<?xml version="1.0" encoding="UTF-8" standalone="no"?>
<!DOCTYPE svg PUBLIC "-//W3C//DTD SVG 1.1//EN" "http://www.w3.org/Graphics/SVG/1.1/DTD/svg11.dtd">
<svg width="100%" height="100%" viewBox="0 0 890 255" version="1.1" xmlns="http://www.w3.org/2000/svg" xmlns:xlink="http://www.w3.org/1999/xlink" xml:space="preserve" xmlns:serif="http://www.serif.com/" style="fill-rule:evenodd;clip-rule:evenodd;stroke-linejoin:round;stroke-miterlimit:2;">
    <g transform="matrix(1,0,0,1,-0.87,-3.16)">
        <g transform="matrix(1.14524,0,0,1.23124,-15.1988,-50.394)">
            <ellipse cx="102.109" cy="238.02" rx="28.604" ry="3.244" style="fill-opacity:0.06;"/>
        </g>
        <path d="M336.47,118.03C336.47,118.266 336.276,118.46 336.04,118.46L328.82,118.46C328.584,118.46 328.39,118.266 328.39,118.03L328.39,43.87C328.39,43.634 328.584,43.44 328.82,43.44L336.04,43.44C336.276,43.44 336.47,43.634 336.47,43.87L336.47,118.03Z" style="fill:rgb(207,9,44);fill-rule:nonzero;"/>
        <path d="M410.27,118.36L373.75,82.71L373.52,82.62L370.47,82.62L370.24,82.72L370.14,82.95L370.14,118.12L370.04,118.35L369.81,118.45L362.55,118.45L362.39,118.41L362.27,118.29L362.22,118.12L362.22,43.75L362.32,43.52L362.55,43.42L369.81,43.42L369.98,43.47L370.1,43.59L370.14,43.75L370.14,74.15L370.24,74.38L370.47,74.48L373.37,74.48L373.6,74.39L406.2,43.52L406.3,43.46L406.43,43.43L417.24,43.43L417.47,43.52L417.57,43.76L417.47,44L381.28,78.25L381.18,78.49L381.28,78.73L421.41,117.88L421.49,118.01L421.51,118.16L421.4,118.37L421.18,118.45L410.5,118.45L410.27,118.36Z" style="fill:rgb(207,9,44);fill-rule:nonzero;"/>
        <path d="M456.87,43.63L484.98,43.62L485.23,43.67L485.44,43.81L485.58,44.03L485.63,44.28L485.63,51.15L485.58,51.39L485.45,51.6L485.24,51.73L485,51.78L461.36,51.78L461.19,51.81L461.05,51.91L460.95,52.06L460.92,52.23L460.92,117.79L460.87,118.04L460.73,118.25L460.52,118.39L460.27,118.44L456.88,118.45L453.48,118.44L453.23,118.39L453.02,118.25L452.88,118.04L452.83,117.79L452.82,52.23L452.78,52.06L452.69,51.91L452.55,51.82L452.38,51.78L428.74,51.79L428.5,51.74L428.29,51.6L428.16,51.4L428.11,51.16L428.11,44.29L428.16,44.04L428.3,43.82L428.51,43.68L428.76,43.63L456.87,43.63Z" style="fill:rgb(207,9,44);fill-rule:nonzero;"/>
        <path d="M523.4,43.58L526.02,43.62L526.41,43.75L526.68,44.08L558.73,118.29L558.73,118.38L558.66,118.44L550.31,118.44L550.11,118.38L549.97,118.22L540.6,96.52L540.44,96.25L540.2,96.04L539.92,95.91L539.61,95.86L523.4,95.85L507.19,95.86L506.88,95.91L506.6,96.04L506.37,96.25L506.2,96.52L496.83,118.22L496.69,118.38L496.49,118.44L488.16,118.44L488.14,118.43L488.07,118.38L488.07,118.29L520.13,44.08L520.4,43.75L520.79,43.62L523.4,43.58ZM510.22,87.3L510.2,87.37L510.21,87.52L510.28,87.65L510.39,87.74L510.54,87.77L536.26,87.77L536.49,87.68L536.6,87.46L536.58,87.3L523.71,57.39L523.59,57.24L523.4,57.18L523.21,57.24L523.09,57.39L510.22,87.3Z" style="fill:rgb(207,9,44);fill-rule:nonzero;"/>
        <path d="M638.85,118.31L638.86,118.33L638.85,118.41L638.78,118.44L629,118.44L628.78,118.39L628.6,118.25L605.93,88.61L605.74,88.42L605.52,88.27L605.27,88.18L605,88.15L586.04,88.15L585.79,88.24L585.66,88.48L585.65,88.54L585.65,118.16L585.6,118.32L585.48,118.43L585.35,118.46L577.83,118.46L577.65,118.38L577.58,118.2L577.57,44.18L577.61,43.96L577.74,43.77L577.93,43.65L578.15,43.6L597.01,43.58L602.44,43.62L605.22,43.68L607.3,43.88L609.31,44.25L611.25,44.78L613.12,45.48L614.29,46.01L615.44,46.62L616.55,47.29L617.64,48.03L618.8,48.93L619.88,49.87L620.9,50.89L621.84,51.95L622.73,53.08L623.52,54.26L624.25,55.49L624.89,56.76L625.43,58.03L625.89,59.31L626.26,60.62L626.55,61.95L626.77,63.3L626.89,64.66L626.94,66.02L626.9,67.38L626.77,68.74L626.57,70.08L626.28,71.4L625.9,72.71L625.45,74L624.91,75.25L624.31,76.45L623.63,77.62L622.78,78.89L621.82,80.1L620.8,81.24L619.67,82.31L618.49,83.29L617.22,84.21L615.89,85.04L614.48,85.8L614.45,85.82L614.3,86.04L614.37,86.3L638.85,118.31ZM585.63,52.07L585.67,79.81L585.68,79.89L585.81,80.08L586.01,80.15L603.99,80.12L605.45,80.05L606.89,79.84L608.31,79.51L609.68,79.04L611,78.45L612.25,77.74L613.42,76.92L614.5,76L615.47,74.97L616.34,73.87L617.09,72.69L617.71,71.44L618.2,70.15L618.55,68.81L618.76,67.45L618.83,66.08L618.83,65.68L618.76,64.31L618.54,62.95L618.18,61.62L617.69,60.32L617.06,59.08L616.31,57.9L615.44,56.8L614.46,55.78L613.38,54.86L612.21,54.04L610.95,53.34L609.63,52.75L608.26,52.29L606.84,51.96L605.4,51.76L603.95,51.7L585.97,51.73L585.73,51.82L585.63,52.06L585.63,52.07Z" style="fill:rgb(207,9,44);fill-rule:nonzero;"/>
        <path d="M674.19,104.14L674.21,104.13L674.24,104.13L674.3,104.08L697.89,43.83L698.03,43.66L698.25,43.59L706.47,43.59L706.58,43.64L706.61,43.75L706.6,43.78L677.61,117.87L677.5,118.08L677.33,118.24L677.12,118.36L676.89,118.41L674.19,118.45L671.49,118.41L671.26,118.36L671.05,118.24L670.88,118.08L670.77,117.87L641.76,43.79L641.76,43.76L641.79,43.65L641.89,43.6L650.11,43.59L650.33,43.66L650.47,43.83L674.08,104.08L674.14,104.13L674.16,104.13L674.19,104.14Z" style="fill:rgb(207,9,44);fill-rule:nonzero;"/>
        <path d="M256.12,118.47L255.96,118.44L255.83,118.35L255.74,118.22L255.71,118.06L255.71,44.07L255.82,43.81L256.07,43.7L279.74,43.69L282.72,43.66L285.28,43.82L286.4,43.97L287.42,44.16L288.33,44.4L289.14,44.69L290.79,45.45L292.34,46.31L293.81,47.3L295.17,48.38L296.45,49.59L297.6,50.88L298.64,52.27L299.56,53.73L300.34,55.27L300.99,56.87L301.49,58.51L301.84,60.18L302.04,61.87L302.09,63.58L301.98,65.26L301.73,66.94L301.37,68.43L300.88,69.9L300.28,71.31L299.55,72.7L298.72,74.01L297.77,75.28L296.73,76.48L295.56,77.63L295.52,77.67L295.45,77.82L295.44,77.99L295.5,78.15L295.63,78.27L296.75,78.98L297.81,79.74L298.8,80.53L299.73,81.37L300.59,82.24L301.39,83.16L302.12,84.12L302.79,85.12L303.81,86.97L304.62,88.94L305.24,91.04L305.65,93.27L305.84,95.14L305.88,96.97L305.78,98.79L305.54,100.57L305.16,102.31L304.64,104L303.99,105.63L303.21,107.19L302.23,108.78L301.11,110.29L299.85,111.7L298.46,113.01L296.95,114.2L295.32,115.27L293.59,116.21L291.76,117.03L290.72,117.4L289.58,117.72L288.34,117.98L287,118.19L285.57,118.34L284.04,118.44L280.69,118.47L256.12,118.47ZM263.84,51.87L263.8,74.35L263.87,74.56L264.07,74.68L264.13,74.68L281.93,74.72L283.1,74.66L284.25,74.5L285.39,74.23L286.49,73.86L287.55,73.38L288.55,72.81L289.49,72.14L290.36,71.39L291.14,70.56L291.84,69.67L292.44,68.71L292.95,67.7L293.34,66.64L293.63,65.56L293.8,64.45L293.86,63.34L293.86,63L293.8,61.88L293.64,60.77L293.35,59.69L292.96,58.63L292.46,57.62L291.86,56.66L291.17,55.76L290.39,54.93L289.52,54.18L288.58,53.51L287.58,52.93L286.53,52.45L285.43,52.07L284.29,51.8L283.14,51.63L281.97,51.58L264.17,51.54L263.94,51.64L263.84,51.87ZM263.82,83.08L263.82,110.02L263.83,110.11L263.94,110.26L264.12,110.32L283.62,110.32L285.02,110.25L286.4,110.06L287.75,109.73L289.07,109.28L290.33,108.71L291.53,108.02L292.65,107.22L293.69,106.32L294.63,105.33L295.46,104.26L296.18,103.11L296.78,101.9L297.25,100.64L297.59,99.34L297.79,98.02L297.86,96.68L297.86,96.42L297.79,95.08L297.59,93.76L297.25,92.46L296.78,91.2L296.18,89.99L295.46,88.84L294.63,87.77L293.69,86.78L292.65,85.88L291.53,85.08L290.33,84.39L289.07,83.82L287.75,83.37L286.4,83.04L285.02,82.85L283.62,82.78L264.12,82.78L263.94,82.84L263.83,83L263.82,83.08Z" style="fill:rgb(207,9,44);fill-rule:nonzero;"/>
        <path d="M751.18,79.54L751.25,79.53L751.31,79.53L751.51,79.39L776.51,43.95L776.71,43.77L776.97,43.71L786.47,43.71L786.53,43.77L786.52,43.85L755.48,87.75L755.28,88.16L755.21,88.62L755.21,117.82L755.16,118.06L755.03,118.26L754.83,118.4L754.59,118.44L751.18,118.45L747.78,118.45L747.54,118.4L747.34,118.26L747.2,118.06L747.16,117.82L747.15,88.62L747.08,88.16L746.88,87.75L715.83,43.85L715.82,43.77L715.88,43.72L715.9,43.71L725.38,43.71L725.64,43.78L725.84,43.95L750.85,79.39L751.05,79.53L751.11,79.53L751.18,79.54Z" style="fill:rgb(207,9,44);fill-rule:nonzero;"/>
        <path d="M820.17,54.503L820.123,55.535L819.97,56.558L819.715,57.562L819.358,58.537L818.904,59.473L818.357,60.362L817.722,61.196L817.005,61.965L816.213,62.663L815.354,63.283L814.436,63.82L813.467,64.266L812.458,64.62L811.418,64.876L810.357,65.034L809.285,65.09L808.213,65.045L807.15,64.899L806.107,64.653L805.094,64.31L804.122,63.874L803.198,63.347L802.333,62.736L801.533,62.046L800.808,61.284L800.165,60.458L799.608,59.574L799.144,58.643L798.777,57.672L798.511,56.67L798.348,55.649L798.29,54.617L798.337,53.585L798.49,52.562L798.745,51.558L799.102,50.583L799.556,49.647L800.103,48.758L800.738,47.924L801.455,47.155L802.247,46.457L803.106,45.837L804.024,45.301L804.993,44.854L806.002,44.5L807.042,44.244L808.103,44.087L809.175,44.03L810.247,44.075L811.31,44.221L812.353,44.467L813.366,44.81L814.338,45.247L815.262,45.773L816.128,46.384L816.927,47.074L817.652,47.836L818.295,48.662L818.852,49.546L819.316,50.478L819.683,51.449L819.949,52.45L820.112,53.471L820.17,54.503ZM809.202,46.54L808.458,46.581L807.722,46.7L807,46.894L806.3,47.161L805.627,47.501L804.99,47.908L804.393,48.38L803.843,48.911L803.345,49.496L802.904,50.131L802.523,50.808L802.207,51.522L801.959,52.264L801.78,53.029L801.674,53.809L801.64,54.597L801.679,55.383L801.791,56.163L801.975,56.926L802.229,57.667L802.55,58.379L802.935,59.053L803.381,59.685L803.883,60.267L804.437,60.794L805.037,61.261L805.677,61.664L806.351,61.999L807.054,62.262L807.777,62.451L808.514,62.564L809.258,62.6L810.002,62.559L810.738,62.441L811.46,62.246L812.16,61.979L812.833,61.639L813.47,61.232L814.067,60.76L814.617,60.229L815.115,59.644L815.556,59.009L815.937,58.332L816.253,57.618L816.501,56.876L816.68,56.111L816.786,55.331L816.82,54.544L816.781,53.757L816.669,52.977L816.485,52.214L816.232,51.473L815.91,50.761L815.525,50.087L815.079,49.455L814.577,48.873L814.023,48.346L813.423,47.879L812.783,47.476L812.109,47.141L811.406,46.878L810.683,46.689L809.946,46.576L809.202,46.54Z" style="fill:rgb(207,9,44);fill-rule:nonzero;"/>
        <path d="M808.39,55.59L808.18,55.42L807.92,55.37L807.67,55.46L807.49,55.66L807.43,55.9L807.43,59.93L807.39,60.12L807.28,60.28L807.12,60.38L806.93,60.42L805.77,60.42L805.44,60.36L805.17,60.17L804.98,59.9L804.92,59.57L804.92,49.45L804.96,49.24L805.08,49.05L805.26,48.92L805.47,48.87L805.97,48.84L808.57,48.76L809.54,48.8L810.42,48.89L811.23,49.04L811.93,49.25L812.56,49.53L813.14,49.88L813.48,50.22L813.71,50.64L813.98,51.55L814.09,52.38L814.02,53.12L813.79,53.77L813.47,54.25L813.03,54.67L812.47,55.02L811.8,55.32L811.75,55.34L811.56,55.49L811.45,55.7L811.43,55.94L811.51,56.16L813.57,59.53L813.65,59.79L813.62,60.05L813.46,60.28L813.23,60.41L813.07,60.43L811.48,60.43L811.14,60.37L810.84,60.2L810.61,59.94L810.49,59.62L810.24,58.78L809.8,57.83L809.19,56.76L808.39,55.59ZM811.308,51.829C811.329,51.386 810.98,51.004 810.536,50.984L808.238,50.879C808.226,50.879 808.214,50.878 808.202,50.878C807.771,50.878 807.412,51.222 807.392,51.652L807.352,52.551C807.331,52.994 807.68,53.376 808.124,53.397L810.422,53.501C810.434,53.501 810.446,53.502 810.458,53.502C810.889,53.502 811.248,53.158 811.268,52.728L811.308,51.829Z" style="fill:rgb(207,9,44);fill-rule:nonzero;"/>
        <path d="M199.58,71.44L122.28,197.96L122.03,198.3L121.74,198.61L121.4,198.87L121.03,199.08L101.43,208.43L101.34,206.04L101.11,203.87L100.77,201.21L100.65,199.34L100.6,168.41L100.5,155.78L100.38,142.42L100.35,132.34L100.43,123.48L100.6,115.81L125.21,104.47L149.75,93.28L150.31,92.9L150.69,92.44L151.68,92.37L152.56,92.09L198.22,71.23L198.84,71.04L199.09,71.05L199.3,71.13L199.45,71.26L199.58,71.44Z" style="fill:rgb(207,9,44);fill-rule:nonzero;"/>
        <path d="M74.68,36.36L75.15,36.73L75.8,36.97L99.76,47.89L100.14,47.99L100.49,48.02L100.83,47.93L124.55,37.09L125.23,37.01L125.78,36.75L126.29,36.3L145.83,27.34L146.29,27.18L146.78,27.13L147.27,27.18L147.74,27.34L180.56,42.34L180.75,42.48L180.88,42.69L180.91,42.92L180.84,43.15L180.82,43.18L172.22,57.19L150.69,92.44L150.31,92.9L149.75,93.28L125.21,104.47L100.6,115.81L100.07,115.65L99.48,115.32L100.11,112.7L100.55,110.29L100.82,108.09L100.9,106.1L100.75,85.42L100.67,84.35L100.5,83.35L100.23,82.39L99.86,81.51L99.3,80.53L98.6,79.61L97.74,78.73L96.74,77.9L95.59,77.12L94.27,76.37L92.75,75.61L90.6,74.65L88.91,73.89L67.91,64.22L49.11,55.65L44.86,53.75L31.56,47.78L23.64,44.07L22.68,43.7L21.55,43.48L20.36,43.48L20.22,43.11L20.18,42.84L20.23,42.58L20.38,42.36L20.6,42.2L53.6,27.14L54.05,27.04L54.49,27.14L74.68,36.36ZM160.49,51.98L159.84,52.16L158.58,52.71L158.44,52.82L158.37,52.98L158.38,53.15L158.47,53.3L158.58,53.37L160.58,52.3L160.64,52.24L160.64,52.07L160.49,51.98ZM134.09,64.25L134.13,64.3L134.19,64.34L134.44,64.31L140.09,61.77L144.11,59.9L146.49,58.71L147.06,58.37L147.23,58.19L146.99,58.2L146.35,58.42L143.9,59.45L139.87,61.29L134.27,63.94L134.08,64.11L134.07,64.18L134.09,64.25Z" style="fill:rgb(98,195,175);fill-rule:nonzero;"/>
        <path d="M125.52,35.47L125.78,35.91L126.29,36.3L125.78,36.75L125.23,37.01L124.55,37.09L125.52,35.47Z" style="fill:rgb(110,110,110);fill-rule:nonzero;"/>
        <path d="M75.8,36.97L75.15,36.73L74.68,36.36L75.57,35.76L75.93,36.28L75.99,36.5L75.98,36.7L75.8,36.97Z" style="fill:rgb(110,110,110);fill-rule:nonzero;"/>
        <path d="M877.94,191.46L875.03,191.46L874.88,191.42L874.76,191.32L874.69,191.18L874.7,191.02L887.25,143.69L887.38,143.5L887.59,143.43L890.5,143.43L890.65,143.47L890.77,143.57L890.84,143.71L890.83,143.87L878.28,191.2L878.16,191.38L877.94,191.46Z" style="fill:rgb(110,110,110);fill-rule:nonzero;"/>
        <path d="M475,185.42C475,188.646 472.346,191.3 469.12,191.3L467.5,191.3C464.274,191.3 461.62,188.646 461.62,185.42L461.62,149.7C461.62,146.474 464.274,143.82 467.5,143.82L469.12,143.82C472.346,143.82 475,146.474 475,149.7L475,185.42ZM470.85,149.4C470.85,148.133 469.807,147.09 468.54,147.09L467.98,147.09C466.713,147.09 465.67,148.133 465.67,149.4L465.67,185.74C465.67,187.007 466.713,188.05 467.98,188.05L468.54,188.05C469.807,188.05 470.85,187.007 470.85,185.74L470.85,149.4Z" style="fill:rgb(110,110,110);fill-rule:nonzero;"/>
        <path d="M536.19,167.99L530.06,190.95L529.98,191.13L529.85,191.27L529.67,191.37L529.48,191.4L527.09,191.4L526.88,191.32L526.71,191.16L526.63,190.95L526.63,190.72L529.97,177.76L532.78,167.2L538.92,144.24L539,144.06L539.13,143.91L539.3,143.82L539.5,143.79L541.89,143.79L542.1,143.87L542.27,144.03L542.35,144.24L542.34,144.47L539,157.43L536.19,167.99Z" style="fill:rgb(110,110,110);fill-rule:nonzero;"/>
        <path d="M775.01,186.56L774.99,186.79L775.06,187.01L775.22,187.18L775.43,187.27L775.52,187.28L784.33,187.3L784.53,187.34L784.71,187.46L784.82,187.63L784.86,187.84L784.86,190.39L784.77,190.69L784.55,190.9L784.28,190.97L771.62,190.94L771.4,190.9L771.22,190.78L771.09,190.6L771.04,190.38L770.96,187.73L771,186.89L771.07,186.38L773.42,179.26L778.3,165.18L779.12,162.7L779.74,160.58L780.18,158.66L780.48,156.85L780.64,155.27L780.72,153.62L780.71,151.84L780.62,149.84L780.53,149.11L780.34,148.49L780.07,147.99L779.7,147.6L779.12,147.26L778.4,147.1L777.7,147.13L777.13,147.32L776.65,147.68L776.27,148.18L775.97,148.82L775.74,149.63L775.6,150.58L775.54,151.67L775.54,152.92L775.62,154.56L775.67,155.51L775.62,155.81L775.46,156.08L775.2,156.25L774.9,156.32L774.88,156.32L772.15,156.3L771.9,156.25L771.69,156.1L771.56,155.88L771.52,155.63L771.52,155.61L771.56,150.79L771.59,149.89L771.67,149.06L771.82,148.28L772.02,147.57L772.28,146.92L772.59,146.33L772.97,145.81L773.4,145.35L773.94,144.91L774.54,144.56L775.22,144.27L775.96,144.06L776.77,143.92L777.65,143.86L778.6,143.87L779.62,143.95L780.6,144.13L781.45,144.4L782.21,144.79L782.86,145.27L783.4,145.86L783.84,146.53L784.2,147.31L784.48,148.22L784.68,149.24L784.8,150.39L784.85,151.72L784.85,153.42L784.74,155.98L784.49,158.3L784.1,160.38L783.56,162.21L778.48,176.57L775.01,186.56Z" style="fill:rgb(110,110,110);fill-rule:nonzero;"/>
        <path d="M803.789,185.492C803.783,188.675 801.162,191.292 797.979,191.292C797.975,191.292 797.972,191.292 797.969,191.292L796.249,191.289C793.065,191.283 790.449,188.662 790.449,185.479C790.449,185.475 790.449,185.472 790.449,185.468L790.511,149.628C790.517,146.445 793.138,143.828 796.321,143.828C796.325,143.828 796.328,143.828 796.331,143.829L798.051,143.832C801.235,143.837 803.851,146.458 803.851,149.641C803.851,149.645 803.851,149.648 803.851,149.652L803.789,185.492ZM799.68,149.33C799.68,148.107 798.673,147.1 797.45,147.1L796.79,147.1C795.567,147.1 794.56,148.107 794.56,149.33L794.56,185.83C794.56,187.053 795.567,188.06 796.79,188.06L797.45,188.06C798.673,188.06 799.68,187.053 799.68,185.83L799.68,149.33Z" style="fill:rgb(110,110,110);fill-rule:nonzero;"/>
        <path d="M823.04,185.38C823.04,188.628 820.368,191.3 817.12,191.3L815.58,191.3C812.332,191.3 809.66,188.628 809.66,185.38L809.66,149.74C809.66,146.492 812.332,143.82 815.58,143.82L817.12,143.82C820.368,143.82 823.04,146.492 823.04,149.74L823.04,185.38ZM818.95,149.47C818.95,148.17 817.88,147.1 816.58,147.1L816.08,147.1C814.78,147.1 813.71,148.17 813.71,149.47L813.71,185.67C813.71,186.97 814.78,188.04 816.08,188.04L816.58,188.04C817.88,188.04 818.95,186.97 818.95,185.67L818.95,149.47Z" style="fill:rgb(110,110,110);fill-rule:nonzero;"/>
        <path d="M259.53,189.47L259.53,190.44L259.49,190.66L259.36,190.84L259.18,190.97L258.96,191.01L256.34,191.01L256.1,190.96L255.9,190.83L255.77,190.62L255.72,190.38L255.72,144.74L255.76,144.51L255.89,144.32L256.08,144.19L256.31,144.15L259.16,144.15L259.42,144.21L259.68,144.44L259.78,144.77L259.78,157.17L259.88,157.35L260.08,157.36L260.15,157.3L260.87,156.52L261.72,155.89L262.67,155.46L263.66,155.24L264.71,155.23L265.73,155.44L266.64,155.85L267.46,156.46L268.08,157.19L268.54,158.03L268.84,159L268.96,160.05L269.06,164.56L269.12,170.04L269.06,183.92L269,185.19L268.85,186.39L268.62,187.46L268.31,188.41L267.9,189.25L267.43,189.94L266.88,190.5L266.24,190.95L265.37,191.28L264.42,191.42L263.34,191.36L262.18,191.1L261.74,190.91L261.36,190.62L259.98,189.28L259.89,189.22L259.77,189.21L259.65,189.25L259.56,189.35L259.53,189.47ZM265.04,161.56C265.04,160.167 263.893,159.02 262.5,159.02L262.36,159.02C260.967,159.02 259.82,160.167 259.82,161.56L259.82,185.48C259.82,186.873 260.967,188.02 262.36,188.02L262.5,188.02C263.893,188.02 265.04,186.873 265.04,185.48L265.04,161.56Z" style="fill:rgb(110,110,110);fill-rule:nonzero;"/>
        <path d="M279.611,148.532C279.607,148.897 279.306,149.195 278.941,149.195C278.938,149.195 278.936,149.195 278.934,149.195L275.974,149.164C275.609,149.161 275.311,148.859 275.311,148.494C275.311,148.492 275.311,148.49 275.311,148.487L275.349,144.808C275.353,144.443 275.654,144.145 276.019,144.145C276.022,144.145 276.024,144.145 276.026,144.145L278.986,144.176C279.351,144.179 279.649,144.481 279.649,144.846C279.649,144.848 279.649,144.85 279.649,144.853L279.611,148.532Z" style="fill:rgb(110,110,110);fill-rule:nonzero;"/>
        <path d="M411.327,148.564C411.326,148.909 411.042,149.193 410.697,149.193C410.696,149.193 410.696,149.193 410.696,149.193L407.696,149.187C407.35,149.187 407.067,148.903 407.067,148.557C407.067,148.557 407.067,148.557 407.067,148.556L407.073,144.776C407.074,144.431 407.358,144.147 407.703,144.147C407.704,144.147 407.704,144.147 407.704,144.147L410.704,144.153C411.05,144.153 411.333,144.437 411.333,144.783C411.333,144.783 411.333,144.783 411.333,144.784L411.327,148.564Z" style="fill:rgb(110,110,110);fill-rule:nonzero;"/>
        <path d="M625.44,148.631C625.438,148.937 625.186,149.188 624.88,149.188C624.879,149.188 624.878,149.188 624.877,149.188L621.657,149.172C621.351,149.17 621.1,148.918 621.1,148.612C621.1,148.611 621.1,148.61 621.1,148.609L621.12,144.709C621.122,144.403 621.374,144.152 621.68,144.152C621.681,144.152 621.682,144.152 621.683,144.152L624.903,144.169C625.209,144.17 625.46,144.422 625.46,144.728C625.46,144.729 625.46,144.73 625.46,144.731L625.44,148.631Z" style="fill:rgb(110,110,110);fill-rule:nonzero;"/>
        <path d="M696.37,189.3L696.28,189.24L696.16,189.23L696.04,189.27L695.95,189.36L695.92,189.49L695.92,190.46L695.87,190.68L695.75,190.86L695.56,190.99L695.35,191.03L692.73,191.03L692.49,190.98L692.29,190.84L692.15,190.64L692.11,190.4L692.16,144.75L692.2,144.53L692.33,144.34L692.52,144.21L692.75,144.16L695.6,144.17L695.84,144.21L696.04,144.35L696.17,144.55L696.22,144.79L696.2,157.19L696.3,157.36L696.5,157.38L696.57,157.32L697.29,156.54L698.15,155.91L699.1,155.48L700.09,155.26L701.14,155.25L702.15,155.46L703.07,155.88L703.88,156.48L704.51,157.22L704.96,158.06L705.26,159.03L705.38,160.08L705.48,164.59L705.53,170.07L705.45,183.95L705.4,185.22L705.25,186.42L705.01,187.49L704.7,188.44L704.29,189.28L703.82,189.97L703.27,190.53L702.62,190.97L701.76,191.31L700.81,191.45L699.73,191.38L698.57,191.12L698.13,190.93L697.75,190.64L696.37,189.3ZM701.56,161.56C701.56,160.145 700.395,158.98 698.98,158.98L698.86,158.98C697.445,158.98 696.28,160.145 696.28,161.56L696.28,185.5C696.28,186.915 697.445,188.08 698.86,188.08L698.98,188.08C700.395,188.08 701.56,186.915 701.56,185.5L701.56,161.56Z" style="fill:rgb(110,110,110);fill-rule:nonzero;"/>
        <path d="M447.33,163.15L448.13,162.42L448.94,161.89L449.75,161.56L450.57,161.44L450.74,161.44L451.97,161.54L453.01,161.79L453.91,162.19L454.64,162.72L455.07,163.2L455.43,163.74L455.73,164.37L455.96,165.07L456.13,165.85L456.25,166.75L456.32,168.96L456.28,175.68L456.3,184L456.28,184.93L456.19,185.79L456.05,186.59L455.84,187.33L455.57,188L455.25,188.62L454.86,189.17L454.42,189.65L453.94,190.06L453.4,190.41L452.81,190.71L452.17,190.94L451.47,191.12L450.71,191.25L449.04,191.32L447.84,191.22L446.74,190.96L445.81,190.57L444.98,190.01L444.26,189.27L443.66,188.34L443.2,187.23L442.87,185.94L442.68,184.48L442.61,182.82L442.64,180.92L442.79,178.33L442.81,178.1L442.92,177.87L443.16,177.77L446.32,177.77L446.59,177.88L446.7,178.15L446.8,185.52L446.8,185.58L446.87,186.07L447.03,186.54L447.28,186.96L447.62,187.33L448.01,187.63L448.46,187.83L448.94,187.95L449.44,187.97L449.64,187.95L450.14,187.89L450.62,187.74L451.05,187.49L451.44,187.17L451.76,186.78L451.99,186.33L452.14,185.85L452.19,185.35L452.17,167.78L452.11,166.98L451.95,166.3L451.68,165.74L451.3,165.31L450.85,165.02L450.31,164.84L449.68,164.76L448.96,164.79L448.3,164.97L447.74,165.35L447.33,165.89L447.11,166.54L446.88,168.45L446.86,169.25L446.9,169.94L446.88,170.14L446.79,170.31L446.64,170.44L446.45,170.49L443.31,170.49L443.12,170.45L442.96,170.34L442.85,170.18L442.81,169.99L442.81,144.84L442.86,144.58L443.01,144.36L443.23,144.21L443.49,144.16L455.44,144.16L455.75,144.25L455.93,144.46L456,144.72L456,147.31L455.96,147.52L455.84,147.71L455.65,147.83L455.44,147.87L447.41,147.87L447.2,147.91L447.02,148.03L446.9,148.22L446.86,148.43L446.86,162.96L446.89,163.09L446.98,163.19L447.11,163.23L447.24,163.21L447.33,163.15Z" style="fill:rgb(110,110,110);fill-rule:nonzero;"/>
        <path d="M654.312,148.331C654.309,148.753 653.96,149.099 653.538,149.097L651.038,149.083C650.615,149.081 650.269,148.732 650.272,148.309L650.288,145.109C650.291,144.687 650.64,144.341 651.062,144.344L653.562,144.357C653.985,144.359 654.331,144.708 654.328,145.131L654.312,148.331Z" style="fill:rgb(110,110,110);fill-rule:nonzero;"/>
        <path d="M716.26,148.577C716.263,148.895 716.004,149.159 715.686,149.163L712.426,149.197C712.424,149.197 712.422,149.197 712.42,149.197C712.104,149.197 711.844,148.939 711.84,148.623L711.8,144.763C711.797,144.445 712.056,144.181 712.374,144.177L715.634,144.143C715.636,144.143 715.638,144.143 715.64,144.143C715.956,144.143 716.216,144.401 716.22,144.717L716.26,148.577Z" style="fill:rgb(110,110,110);fill-rule:nonzero;"/>
        <path d="M311.06,155.66L311.3,155.7L311.5,155.84L311.64,156.04L311.68,156.28L311.69,158.17L311.63,158.43L311.49,158.66L311.26,158.81L311,158.86L309.5,158.86L309.23,158.91L309,159.07L308.85,159.29L308.8,159.56L308.81,185.44L308.85,186.07L308.95,186.59L309.12,186.99L309.36,187.29L309.71,187.53L310.14,187.68L310.69,187.76L311.41,187.77L311.6,187.85L311.68,188.04L311.68,190.59L311.6,190.8L311.41,190.91L310.49,191L309.63,191.03L308.86,190.99L308.15,190.89L307.52,190.72L306.94,190.49L306.42,190.19L305.97,189.82L305.62,189.43L305.32,188.97L305.08,188.46L304.88,187.89L304.75,187.26L304.67,186.58L304.66,185.02L304.66,159.72L304.62,159.46L304.51,159.21L304.33,159.01L304.11,158.86L303.77,158.78L303.3,158.83L303.25,158.83L303.03,158.81L302.83,158.69L302.7,158.5L302.65,158.28L302.65,156.37L302.7,156.12L302.84,155.9L303.05,155.76L303.31,155.71L303.76,155.66L304.15,155.54L304.36,155.42L304.53,155.24L304.64,155.02L304.67,154.78L304.67,151.75L304.72,151.41L304.87,151.1L305.1,150.84L305.4,150.66L308.02,149.52L308.12,149.48L308.37,149.49L308.58,149.6L308.73,149.79L308.79,150.02L308.79,155.03L308.84,155.27L308.97,155.48L309.17,155.61L309.41,155.66L311.06,155.66Z" style="fill:rgb(110,110,110);fill-rule:nonzero;"/>
        <path d="M601.09,155.66L601.33,155.71L601.53,155.84L601.67,156.05L601.71,156.29L601.72,158.17L601.66,158.43L601.52,158.66L601.29,158.8L601.03,158.86L599.54,158.86L599.27,158.91L599.04,159.06L598.88,159.29L598.83,159.56L598.85,185.4L598.89,186.04L598.99,186.55L599.16,186.95L599.4,187.26L599.75,187.49L600.18,187.64L600.73,187.72L601.45,187.73L601.64,187.81L601.72,188L601.72,190.55L601.64,190.76L601.45,190.87L600.53,190.96L599.67,190.99L598.9,190.95L598.2,190.85L597.56,190.68L596.98,190.45L596.47,190.15L596.01,189.78L595.67,189.39L595.37,188.93L595.12,188.42L594.93,187.85L594.8,187.22L594.71,186.54L594.71,184.98L594.7,159.72L594.66,159.46L594.55,159.21L594.37,159.01L594.15,158.86L593.81,158.78L593.34,158.83L593.29,158.83L593.07,158.81L592.87,158.69L592.74,158.5L592.69,158.28L592.69,156.38L592.74,156.12L592.88,155.91L593.09,155.76L593.35,155.71L593.8,155.66L594.19,155.55L594.4,155.42L594.57,155.24L594.67,155.02L594.71,154.78L594.71,151.76L594.76,151.42L594.9,151.11L595.13,150.85L595.43,150.67L598.05,149.53L598.16,149.49L598.4,149.5L598.61,149.61L598.76,149.8L598.82,150.03L598.82,155.03L598.87,155.27L599.01,155.48L599.21,155.61L599.44,155.66L601.09,155.66Z" style="fill:rgb(110,110,110);fill-rule:nonzero;"/>
        <path d="M668.26,187.96L668.25,190.56L668.17,190.78L667.95,190.88L666.92,190.95L665.95,190.93L665.07,190.84L664.29,190.67L663.58,190.42L662.98,190.11L662.47,189.73L662.04,189.25L661.74,188.75L661.51,188.17L661.38,187.54L661.34,186.83L661.33,173.68L661.13,159.96L661.06,159.58L660.88,159.23L659.8,157.81L659.64,157.5L659.61,157.16L659.69,156.82L659.89,156.53L660.46,155.89L660.9,155.22L661.22,154.53L661.41,153.81L661.48,153.1L661.43,152.37L661.42,152.01L661.51,151.66L661.69,151.34L661.95,151.09L663.92,149.58L664.32,149.41L664.75,149.44L665.12,149.65L665.34,150.02L665.39,150.31L665.38,154.82L665.43,155.07L665.56,155.3L665.77,155.46L666.02,155.54L667.06,155.68L667.48,155.79L667.86,156.02L668.14,156.33L668.34,156.7L668.43,157.11L668.41,157.53L668.29,157.93L668.06,158.28L667.74,158.56L667.37,158.75L665.93,158.85L665.73,158.9L665.57,159.02L665.46,159.19L665.42,159.39L665.29,185.18L665.34,185.86L665.48,186.43L665.7,186.9L666.02,187.25L666.38,187.48L666.82,187.63L667.33,187.68L667.91,187.65L668.15,187.72L668.26,187.94L668.26,187.96Z" style="fill:rgb(110,110,110);fill-rule:nonzero;"/>
        <path d="M610.11,157.39L610.14,157.53L610.25,157.65L610.4,157.69L610.56,157.66L610.67,157.55L611.04,157.08L611.45,156.66L612.16,156.15L612.97,155.75L613.9,155.49L614.94,155.34L615.18,155.37L615.39,155.5L615.53,155.69L615.59,155.92L615.59,155.95L615.6,158.95L615.6,158.97L615.54,159.2L615.4,159.39L615.2,159.51L614.97,159.54L614.03,159.53L613.19,159.65L612.46,159.9L611.84,160.29L611.47,160.63L611.14,161.04L610.87,161.52L610.65,162.06L610.48,162.66L610.36,163.32L610.27,164.85L610.33,190.42L610.25,190.66L610.1,190.8L609.9,190.85L606.74,190.86L606.55,190.81L606.37,190.65L606.31,190.43L606.23,156.3L606.27,156.09L606.39,155.92L606.57,155.8L606.78,155.76L609.46,155.75L609.79,155.84L610.02,156.08L610.11,156.4L610.11,157.39Z" style="fill:rgb(110,110,110);fill-rule:nonzero;"/>
        <path d="M285.91,173.29L285.96,163.27L286.1,160.9L286.24,159.97L286.41,159.18L286.63,158.48L286.92,157.85L287.26,157.31L287.67,156.84L288.06,156.5L288.5,156.21L289.01,155.95L289.58,155.74L290.88,155.45L292.46,155.32L293.63,155.36L294.69,155.56L295.57,155.91L296.35,156.42L296.94,157.04L297.43,157.81L297.79,158.72L298.05,159.77L298.2,160.98L298.26,162.35L298.22,163.93L298.09,166.13L298.07,166.5L298.02,166.68L297.91,166.82L297.75,166.92L297.57,166.95L294.64,166.93L294.44,166.89L294.28,166.78L294.16,166.62L294.12,166.42L294.04,160.29L294.01,159.95L293.9,159.62L293.73,159.32L293.5,159.06L293.22,158.85L292.91,158.7L292.58,158.62L292.23,158.6L292.17,158.6L291.99,158.62L291.62,158.69L291.27,158.82L290.95,159.01L290.67,159.25L290.44,159.55L290.27,159.88L290.16,160.24L290.12,160.61L290.03,167.21L290.01,173.3L289.98,179.39L290.03,185.99L290.07,186.36L290.18,186.72L290.35,187.06L290.57,187.35L290.85,187.6L291.17,187.79L291.52,187.93L291.88,187.99L292.06,188.01L292.13,188.02L292.47,188L292.81,187.92L293.12,187.77L293.4,187.56L293.63,187.31L293.8,187.01L293.91,186.68L293.95,186.33L294.07,180.21L294.12,180.01L294.23,179.85L294.4,179.74L294.59,179.7L297.52,179.7L297.7,179.74L297.86,179.83L297.97,179.98L298.02,180.16L298.04,180.53L298.16,182.73L298.18,184.31L298.11,185.68L297.95,186.88L297.69,187.94L297.32,188.84L296.82,189.61L296.23,190.23L295.45,190.74L294.56,191.07L293.5,191.27L292.33,191.3L290.75,191.16L289.45,190.86L288.88,190.64L288.38,190.38L287.94,190.08L287.55,189.74L287.14,189.27L286.81,188.73L286.53,188.09L286.31,187.39L286.14,186.6L286.02,185.67L285.88,183.3L285.91,173.29Z" style="fill:rgb(110,110,110);fill-rule:nonzero;"/>
        <path d="M320.25,175.02L320.25,185.55L320.3,186.02L320.44,186.48L320.66,186.9L320.96,187.27L321.33,187.57L321.76,187.8L322.21,187.93L322.69,187.98L323.1,187.98L323.56,187.93L324,187.8L324.41,187.58L324.77,187.29L325.06,186.94L325.28,186.53L325.41,186.09L325.46,185.63L325.46,180.05L325.57,179.72L325.76,179.56L326.01,179.5L329.03,179.5L329.24,179.54L329.42,179.66L329.53,179.84L329.57,180.05L329.59,183.5L329.59,184.57L329.52,185.56L329.38,186.48L329.16,187.31L328.88,188.07L328.52,188.75L328.1,189.34L327.6,189.86L327.03,190.3L326.39,190.66L325.68,190.95L324.9,191.15L324.04,191.27L323.12,191.32L322.13,191.28L321.06,191.17L320.22,191L319.47,190.75L318.8,190.4L318.22,189.98L317.7,189.45L317.27,188.85L316.92,188.17L316.63,187.37L316.42,186.49L316.26,185.5L316.18,184.37L316.15,183.11L316.13,167.71L316.1,166.17L316.1,162.51L316.2,161.22L316.37,160.09L316.63,159.09L316.98,158.24L317.42,157.5L317.98,156.86L318.41,156.49L318.9,156.17L319.43,155.91L320.01,155.69L320.66,155.52L321.37,155.39L322.94,155.29L324.41,155.37L325.65,155.63L326.21,155.83L326.71,156.08L327.17,156.36L327.57,156.69L328.08,157.23L328.5,157.85L328.85,158.58L329.12,159.38L329.32,160.29L329.47,161.34L329.55,162.54L329.58,163.92L329.58,173.77L329.53,174.01L329.4,174.22L329.2,174.35L328.96,174.4L320.87,174.4L320.63,174.45L320.43,174.58L320.3,174.78L320.25,175.02ZM321.04,170.71L324.7,170.69L324.77,170.69L325.06,170.61L325.3,170.43L325.45,170.18L325.51,169.88L325.48,161.57L325.43,160.99L325.29,160.42L325.07,159.91L324.77,159.45L324.41,159.08L324,158.8L323.55,158.64L323.09,158.58L322.57,158.58L322.1,158.64L321.66,158.81L321.25,159.09L320.89,159.47L320.59,159.92L320.38,160.44L320.24,161L320.2,161.59L320.23,169.9L320.29,170.21L320.47,170.47L320.73,170.65L321.04,170.71Z" style="fill:rgb(110,110,110);fill-rule:nonzero;"/>
        <path d="M344.5,157.17L344.61,157.25L344.78,157.27L344.95,157.21L345.06,157.08L345.11,156.91L345.11,156.22L345.15,156.01L345.27,155.82L345.46,155.7L345.68,155.65L348.29,155.66L348.48,155.69L348.65,155.78L348.78,155.92L348.86,156.09L348.88,156.25L348.87,181.66L348.79,192.48L348.71,193.27L348.54,193.99L348.28,194.67L347.94,195.28L347.32,196.03L346.53,196.67L345.59,197.18L344.55,197.54L343.37,197.77L342.14,197.84L340.85,197.75L339.57,197.51L338.9,197.3L338.28,197.03L337.73,196.69L337.25,196.28L336.87,195.87L336.54,195.42L336.26,194.91L336.03,194.35L335.71,193.08L335.58,191.61L335.58,191.59L335.64,191.32L335.79,191.09L336.03,190.94L336.3,190.9L339.04,190.96L339.31,191.01L339.54,191.15L339.71,191.36L339.8,191.62L339.81,192.23L339.83,192.99L340.06,193.61L340.43,194.13L340.87,194.53L341.4,194.83L341.96,194.99L342.55,195.01L343.12,194.9L343.64,194.65L344.09,194.28L344.31,193.99L344.49,193.66L344.68,192.94L344.81,191.02L344.87,188L344.82,187.83L344.71,187.69L344.55,187.62L344.37,187.64L344.27,187.7L342.68,188.91L342.37,189.09L342.01,189.18L340.52,189.25L339.85,189.21L339.22,189.11L338.65,188.95L338.12,188.74L337.64,188.47L337.21,188.14L336.84,187.77L336.51,187.34L336.23,186.85L335.99,186.32L335.67,185.08L335.53,183.62L335.44,179.09L335.41,173.68L335.53,160.23L335.61,159.47L335.82,158.67L336.17,157.85L336.65,157L336.87,156.7L337.14,156.45L337.38,156.27L338.25,155.8L339.11,155.48L339.96,155.31L340.8,155.29L341.75,155.46L342.68,155.83L343.59,156.4L344.5,157.17ZM344.82,161.51C344.82,160.089 343.651,158.92 342.23,158.92L342.09,158.92C340.669,158.92 339.5,160.089 339.5,161.51L339.5,183.07C339.5,184.491 340.669,185.66 342.09,185.66L342.23,185.66C343.651,185.66 344.82,184.491 344.82,183.07L344.82,161.51Z" style="fill:rgb(110,110,110);fill-rule:nonzero;"/>
        <path d="M358.72,157.26L358.76,157.41L358.87,157.52L359.02,157.57L359.17,157.54L359.29,157.43L359.66,156.95L360.08,156.53L360.79,156.01L361.62,155.62L362.55,155.35L363.6,155.21L363.84,155.24L364.05,155.36L364.2,155.56L364.26,155.8L364.26,158.87L364.2,159.1L364.06,159.29L363.85,159.41L363.62,159.44L362.67,159.42L361.83,159.55L361.09,159.8L360.46,160.19L360.09,160.54L359.76,160.95L359.49,161.43L359.26,161.97L359.09,162.58L358.97,163.25L358.87,164.78L358.88,190.56L358.85,190.73L358.75,190.87L358.61,190.97L358.44,191L355.27,191L355.05,190.94L354.89,190.78L354.83,190.56L354.82,156.15L354.86,155.95L354.98,155.77L355.16,155.65L355.37,155.61L358.07,155.61L358.32,155.66L358.53,155.8L358.67,156.01L358.72,156.26L358.72,157.26Z" style="fill:rgb(110,110,110);fill-rule:nonzero;"/>
        <path d="M378.53,189.44L377.22,190.68L376.97,190.86L376.69,190.98L375.15,191.35L374.43,191.44L373.78,191.45L373.18,191.4L372.63,191.28L372.11,191.09L371.64,190.83L371.02,190.31L370.48,189.6L370.06,188.75L369.73,187.73L369.51,186.55L369.37,185.19L369.31,183.63L369.33,181.51L369.34,179.82L369.33,179.2L369.35,176.32L369.42,175.31L369.55,174.42L369.75,173.61L370,172.91L370.32,172.28L370.73,171.7L371.33,171.09L372.08,170.57L372.94,170.13L373.97,169.78L375.06,169.5L376.11,169.31L377.11,169.18L378.06,169.14L378.31,169.09L378.52,168.94L378.66,168.73L378.71,168.48L378.71,160.73L378.67,160.32L378.55,159.92L378.35,159.55L378.09,159.23L377.77,158.97L377.4,158.77L377,158.65L376.59,158.61L375.95,158.61L375.54,158.65L375.15,158.77L374.79,158.96L374.47,159.23L374.21,159.54L374.02,159.91L373.9,160.3L373.86,160.71L373.86,164.84L373.82,165.02L373.72,165.17L373.56,165.27L373.38,165.31L370.29,165.31L370.12,165.28L369.98,165.19L369.88,165.05L369.83,164.89L369.74,163.46L369.74,162.16L369.82,161.01L369.98,160L370.23,159.09L370.58,158.26L371.01,157.55L371.55,156.92L372.01,156.52L372.53,156.18L373.08,155.89L373.7,155.65L374.38,155.47L375.13,155.33L376.77,155.22L378.14,155.31L379.33,155.58L380.35,156.03L380.79,156.32L381.19,156.66L381.54,157.04L381.85,157.47L382.33,158.46L382.64,159.64L382.78,160.99L382.81,190.52L382.77,190.71L382.66,190.87L382.5,190.97L382.31,191.01L379.51,191.01L379.32,190.97L379.16,190.86L379.05,190.7L379.01,190.51L379.01,189.65L378.98,189.52L378.89,189.41L378.76,189.36L378.62,189.38L378.53,189.44ZM375.12,173.33L374.44,173.76L373.9,174.37L373.56,175.11L373.44,175.91L373.39,185.71L373.4,185.8L373.46,186.26L373.61,186.69L373.84,187.08L374.15,187.41L374.52,187.68L374.94,187.87L375.39,187.97L375.84,187.98L376.22,187.95L376.72,187.86L377.18,187.69L377.61,187.43L377.99,187.1L378.29,186.7L378.52,186.25L378.66,185.77L378.71,185.28L378.76,173.37L378.66,172.9L378.37,172.52L377.94,172.31L377.46,172.3L377.24,172.37L375.12,173.33Z" style="fill:rgb(110,110,110);fill-rule:nonzero;"/>
        <path d="M422.03,157.47L422.4,156.99L422.82,156.57L423.53,156.05L424.36,155.66L425.29,155.39L426.34,155.25L426.58,155.28L426.79,155.4L426.94,155.6L427,155.84L427,158.91L426.94,159.14L426.8,159.33L426.6,159.45L426.36,159.48L425.41,159.47L424.57,159.59L423.83,159.84L423.2,160.23L422.82,160.58L422.5,160.99L422.22,161.47L422,162.02L421.83,162.62L421.7,163.29L421.61,164.83L421.61,190.64L421.51,190.92L421.36,191.04L421.17,191.08L417.99,191.08L417.86,191.06L417.64,190.9L417.55,190.64L417.55,156.19L417.59,155.98L417.71,155.81L417.89,155.69L418.1,155.65L420.81,155.65L421.13,155.74L421.37,155.97L421.46,156.3L421.46,157.3L421.5,157.45L421.61,157.56L421.76,157.61L421.91,157.58L422.03,157.47Z" style="fill:rgb(110,110,110);fill-rule:nonzero;"/>
        <path d="M484.84,157.39L484.87,157.52L484.96,157.62L485.08,157.67L485.21,157.65L485.3,157.6L485.57,157.28L485.87,156.77L486.09,156.5L486.45,156.23L487.52,155.69L488.54,155.35L489.51,155.23L490.44,155.32L491.11,155.53L491.76,155.86L492.37,156.31L492.97,156.88L493.14,157L493.34,157.06L493.55,157.03L493.74,156.92L494.49,156.3L495.18,155.84L495.79,155.54L496.33,155.39L497.65,155.29L498.78,155.39L499.75,155.68L500.55,156.15L501.01,156.59L501.4,157.1L501.72,157.72L501.97,158.42L502.17,159.21L502.31,160.15L502.39,161.17L502.41,162.33L502.42,190.55L502.38,190.74L502.27,190.89L502.12,191L501.93,191.03L498.76,191.04L498.45,190.93L498.32,190.76L498.28,190.56L498.27,160.97L498.26,160.8L498.19,160.42L498.03,160.05L497.81,159.73L497.52,159.46L497.19,159.25L496.82,159.12L496.43,159.06L496.03,159.09L495.93,159.1L495.48,159.21L495.06,159.4L494.68,159.66L494.35,159.99L494.08,160.36L493.88,160.78L493.76,161.23L493.72,161.69L493.72,190.58L493.65,190.82L493.47,190.99L493.25,191.05L490.1,191.05L489.88,191L489.71,190.86L489.62,190.57L489.6,160.98L489.59,160.82L489.52,160.43L489.37,160.07L489.14,159.74L488.86,159.47L488.52,159.26L488.15,159.12L487.76,159.06L487.36,159.09L487.3,159.1L486.86,159.21L486.43,159.4L486.05,159.65L485.72,159.98L485.46,160.35L485.26,160.77L485.14,161.21L485.1,161.67L485.09,190.59L485.05,190.76L484.95,190.92L484.8,191.02L484.63,191.05L481.46,191.06L481.28,191.02L481.12,190.92L481.02,190.76L480.99,190.58L480.97,156.17L481,155.97L481.11,155.8L481.28,155.69L481.47,155.65L484.26,155.65L484.38,155.66L484.56,155.73L484.71,155.86L484.8,156.03L484.84,156.23L484.84,157.39Z" style="fill:rgb(110,110,110);fill-rule:nonzero;"/>
        <path d="M518.09,156.93L518.09,156.24L518.18,155.93L518.42,155.72L518.66,155.67L521.27,155.67L521.62,155.78L521.8,155.99L521.86,156.26L521.87,181.66L521.78,192.48L521.7,193.27L521.54,193.99L521.28,194.67L520.93,195.28L520.32,196.02L519.53,196.67L518.59,197.18L517.55,197.54L516.37,197.77L515.14,197.84L513.85,197.75L512.57,197.51L511.9,197.3L511.28,197.03L510.73,196.69L510.25,196.28L509.87,195.88L509.54,195.42L509.26,194.91L509.03,194.35L508.71,193.08L508.58,191.61L508.58,191.6L508.64,191.32L508.79,191.1L509.03,190.95L509.3,190.9L512.04,190.96L512.31,191.01L512.54,191.15L512.71,191.36L512.8,191.62L512.8,192.23L512.82,192.99L513.06,193.61L513.43,194.14L513.87,194.54L514.4,194.83L514.96,194.99L515.55,195.01L516.12,194.9L516.64,194.65L517.09,194.28L517.31,193.99L517.49,193.66L517.68,192.94L517.81,191.03L517.86,188L517.82,187.83L517.7,187.69L517.54,187.63L517.37,187.64L517.26,187.7L515.68,188.91L515.36,189.09L515.01,189.18L513.52,189.26L512.85,189.21L512.22,189.11L511.65,188.95L511.12,188.74L510.64,188.47L510.21,188.15L509.84,187.77L509.51,187.34L509.23,186.86L508.99,186.32L508.67,185.08L508.53,183.63L508.44,179.1L508.41,173.7L508.52,160.25L508.6,159.49L508.81,158.69L509.16,157.87L509.64,157.02L509.93,156.65L510.37,156.29L511.24,155.82L512.1,155.5L512.95,155.33L513.79,155.31L514.73,155.48L515.66,155.85L516.58,156.42L517.48,157.19L517.6,157.26L517.77,157.29L517.93,157.23L518.05,157.1L518.09,156.93ZM517.76,161.45C517.76,160.057 516.613,158.91 515.22,158.91L515.1,158.91C513.707,158.91 512.56,160.057 512.56,161.45L512.56,183.13C512.56,184.523 513.707,185.67 515.1,185.67L515.22,185.67C516.613,185.67 517.76,184.523 517.76,183.13L517.76,161.45Z" style="fill:rgb(110,110,110);fill-rule:nonzero;"/>
        <path d="M551.24,174.79L551.13,175.16L551.14,175.49L551.24,175.74L551.37,185.55L551.42,186.02L551.56,186.46L551.77,186.88L552.07,187.24L552.42,187.55L552.83,187.78L553.27,187.93L553.73,188L553.94,188.01L553.99,188.01L554.45,187.98L554.89,187.86L555.3,187.65L555.66,187.37L555.95,187.02L556.17,186.62L556.31,186.19L556.36,185.73L556.41,179.95L556.45,179.75L556.56,179.59L556.72,179.48L556.92,179.44L559.95,179.44L560.16,179.48L560.34,179.6L560.45,179.78L560.49,179.99L560.51,183.77L560.52,184.77L560.46,185.7L560.33,186.56L560.14,187.34L559.88,188.06L559.55,188.7L559.16,189.27L558.69,189.78L558.16,190.21L557.56,190.57L556.88,190.86L556.14,191.07L555.34,191.22L554.46,191.29L553.51,191.29L552.5,191.21L551.4,191.02L550.44,190.7L549.59,190.26L548.88,189.68L548.52,189.28L548.2,188.84L547.7,187.81L547.37,186.61L547.22,185.23L547.15,182.24L547.12,177.41L547.18,162.26L547.3,160.49L547.43,159.73L547.62,159.02L547.86,158.39L548.16,157.81L548.5,157.32L548.9,156.87L549.55,156.35L550.32,155.94L551.19,155.64L552.19,155.44L553.26,155.33L554.26,155.31L555.2,155.36L556.07,155.5L556.85,155.71L557.56,156.01L558.2,156.39L558.77,156.85L559.19,157.32L559.56,157.86L559.87,158.46L560.12,159.13L560.31,159.86L560.44,160.65L560.5,161.5L560.5,162.43L560.45,165.23L560.48,169.23L560.47,173.86L560.42,174.07L560.3,174.24L560.12,174.36L559.91,174.41L551.24,174.79ZM551.71,170.65L555.93,170.67L556.1,170.64L556.25,170.54L556.35,170.4L556.38,170.22L556.43,161.4L556.39,160.86L556.27,160.33L556.07,159.84L555.8,159.41L555.47,159.06L555.09,158.8L554.69,158.64L554.26,158.58L553.5,158.58L553.08,158.63L552.67,158.79L552.29,159.05L551.96,159.39L551.68,159.82L551.48,160.3L551.35,160.83L551.31,161.38L551.26,170.2L551.29,170.37L551.39,170.52L551.54,170.61L551.71,170.65Z" style="fill:rgb(110,110,110);fill-rule:nonzero;"/>
        <path d="M570.51,157.42L570.55,157.55L570.63,157.65L570.76,157.7L570.89,157.68L570.97,157.63L571.24,157.31L571.55,156.8L571.77,156.53L572.12,156.27L573.19,155.72L574.2,155.39L575.17,155.27L576.1,155.36L576.77,155.56L577.41,155.89L578.03,156.34L578.62,156.91L578.79,157.03L578.99,157.09L579.2,157.06L579.39,156.95L580.14,156.33L580.82,155.88L581.43,155.57L581.97,155.43L583.29,155.33L584.41,155.42L585.39,155.71L586.18,156.18L586.64,156.62L587.02,157.13L587.35,157.75L587.6,158.44L587.8,159.24L587.93,160.17L588.01,161.19L588.03,162.34L588.04,190.49L588.01,190.67L587.9,190.82L587.74,190.93L587.56,190.96L584.39,190.97L584.21,190.93L584.06,190.83L583.95,190.67L583.92,190.49L583.91,160.98L583.9,160.82L583.82,160.44L583.67,160.07L583.45,159.75L583.16,159.48L582.83,159.27L582.46,159.14L582.07,159.09L581.68,159.12L581.58,159.13L581.13,159.24L580.71,159.43L580.33,159.69L580,160.01L579.73,160.38L579.53,160.8L579.41,161.24L579.37,161.7L579.37,190.51L579.26,190.81L579.1,190.94L578.9,190.98L575.76,190.98L575.55,190.93L575.38,190.79L575.28,190.5L575.26,161L575.25,160.84L575.18,160.46L575.03,160.09L574.81,159.76L574.52,159.49L574.19,159.28L573.82,159.14L573.43,159.09L573.03,159.11L572.97,159.12L572.53,159.23L572.11,159.42L571.73,159.68L571.4,160L571.13,160.37L570.94,160.79L570.82,161.23L570.78,161.69L570.77,190.52L570.73,190.7L570.63,190.85L570.48,190.95L570.31,190.99L567.14,190.99L566.97,190.95L566.81,190.85L566.71,190.69L566.68,190.51L566.65,156.2L566.69,156L566.8,155.84L566.97,155.72L567.16,155.68L569.94,155.68L570.22,155.75L570.43,155.97L570.51,156.26L570.51,157.42Z" style="fill:rgb(110,110,110);fill-rule:nonzero;"/>
        <path d="M635.7,173.3L635.68,179.39L635.72,186L635.76,186.37L635.87,186.73L636.04,187.06L636.27,187.36L636.55,187.61L636.86,187.8L637.21,187.93L637.58,188L637.76,188.02L637.82,188.03L638.17,188.01L638.51,187.93L638.82,187.78L639.1,187.57L639.32,187.31L639.5,187.01L639.61,186.68L639.65,186.34L639.77,180.21L639.81,180.01L639.93,179.85L640.09,179.74L640.29,179.7L643.22,179.7L643.4,179.73L643.56,179.83L643.67,179.98L643.72,180.16L643.74,180.53L643.86,182.73L643.88,184.31L643.81,185.69L643.65,186.89L643.39,187.95L643.02,188.85L642.52,189.62L641.93,190.23L641.15,190.74L640.26,191.08L639.2,191.28L638.03,191.31L636.45,191.17L635.14,190.87L634.58,190.65L634.08,190.39L633.63,190.09L633.24,189.75L632.84,189.28L632.5,188.73L632.22,188.1L632,187.4L631.83,186.61L631.71,185.68L631.57,183.31L631.6,173.28L631.64,163.26L631.79,160.88L631.92,159.96L632.1,159.17L632.32,158.47L632.61,157.83L632.95,157.3L633.35,156.82L633.75,156.48L634.19,156.19L634.7,155.93L635.26,155.72L636.57,155.43L638.15,155.3L639.32,155.34L640.38,155.54L641.27,155.88L642.04,156.4L642.63,157.01L643.12,157.79L643.49,158.7L643.74,159.76L643.9,160.96L643.95,162.34L643.92,163.91L643.79,166.11L643.77,166.48L643.72,166.66L643.61,166.81L643.45,166.91L643.26,166.94L640.33,166.92L640.14,166.88L639.97,166.77L639.86,166.6L639.82,166.41L639.74,160.28L639.7,159.93L639.59,159.6L639.42,159.3L639.19,159.04L638.92,158.83L638.61,158.68L638.27,158.6L637.92,158.58L637.86,158.58L637.68,158.6L637.31,158.67L636.96,158.8L636.64,158.99L636.36,159.24L636.13,159.53L635.96,159.86L635.85,160.22L635.81,160.59L635.72,167.2L635.7,173.3Z" style="fill:rgb(110,110,110);fill-rule:nonzero;"/>
        <path d="M682.45,189.65L682.42,189.52L682.33,189.42L682.2,189.37L682.06,189.38L681.97,189.44L680.66,190.68L680.41,190.86L680.13,190.98L678.59,191.35L677.87,191.44L677.22,191.45L676.61,191.4L676.07,191.28L675.54,191.08L675.08,190.83L674.45,190.3L673.92,189.6L673.5,188.75L673.18,187.73L672.95,186.54L672.81,185.18L672.76,183.63L672.77,181.5L672.79,179.81L672.78,179.19L672.8,176.31L672.87,175.3L673,174.41L673.2,173.6L673.45,172.9L673.78,172.27L674.19,171.69L674.79,171.08L675.53,170.56L676.4,170.13L677.43,169.77L678.52,169.5L679.57,169.3L680.57,169.18L681.52,169.13L681.77,169.08L681.98,168.94L682.12,168.72L682.17,168.47L682.18,160.72L682.14,160.31L682.02,159.91L681.82,159.54L681.56,159.22L681.23,158.96L680.87,158.76L680.47,158.64L680.06,158.6L679.42,158.6L679.01,158.64L678.62,158.76L678.25,158.95L677.94,159.21L677.68,159.53L677.48,159.89L677.36,160.29L677.32,160.7L677.32,164.83L677.28,165.01L677.18,165.16L677.02,165.26L676.84,165.3L673.75,165.3L673.58,165.27L673.44,165.18L673.34,165.04L673.29,164.88L673.2,163.44L673.2,162.15L673.28,161L673.44,159.98L673.69,159.07L674.04,158.24L674.48,157.53L675.02,156.91L675.47,156.51L675.99,156.16L676.55,155.88L677.17,155.64L677.85,155.45L678.6,155.32L680.24,155.21L681.61,155.3L682.8,155.57L683.82,156.02L684.26,156.31L684.66,156.65L685.01,157.04L685.32,157.47L685.8,158.46L686.11,159.63L686.25,160.98L686.25,190.53L686.22,190.71L686.11,190.87L685.94,190.98L685.75,191.02L682.95,191.01L682.76,190.98L682.6,190.87L682.49,190.71L682.45,190.51L682.45,189.65ZM678.5,173.33L677.82,173.76L677.29,174.37L676.95,175.11L676.83,175.91L676.82,185.68L676.82,185.77L676.88,186.22L677.03,186.65L677.27,187.04L677.58,187.37L677.95,187.64L678.36,187.83L678.81,187.93L679.26,187.94L679.64,187.9L680.13,187.81L680.6,187.64L681.03,187.38L681.4,187.05L681.7,186.65L681.93,186.2L682.06,185.73L682.11,185.23L682.13,173.35L682.03,172.89L681.73,172.51L681.3,172.3L680.83,172.29L680.61,172.36L678.5,173.33Z" style="fill:rgb(110,110,110);fill-rule:nonzero;"/>
        <path d="M726.19,157.26L726.23,157.42L726.34,157.54L726.49,157.58L726.65,157.55L726.76,157.46L727.41,156.74L728.09,156.16L728.82,155.73L729.59,155.45L730.53,155.3L731.61,155.31L732.54,155.47L733.35,155.77L734.01,156.2L734.45,156.63L734.81,157.14L735.11,157.74L735.34,158.42L735.51,159.18L735.63,160.06L735.72,162.23L735.72,190.53L735.6,190.84L735.44,190.96L735.24,191.01L732.13,191.01L731.95,190.97L731.81,190.87L731.71,190.72L731.67,190.54L731.68,161.39L731.68,161.28L731.61,160.83L731.45,160.39L731.21,160L730.9,159.67L730.52,159.4L730.1,159.22L729.65,159.12L729.18,159.12L728.97,159.13L728.48,159.2L728.01,159.37L727.58,159.63L727.21,159.96L726.9,160.35L726.67,160.8L726.53,161.27L726.49,161.77L726.48,190.65L726.38,190.89L726.14,190.99L722.75,190.99L722.49,190.88L722.38,190.62L722.4,156.25L722.49,155.95L722.7,155.74L722.98,155.67L725.63,155.67L725.97,155.79L726.13,155.99L726.19,156.24L726.19,157.26Z" style="fill:rgb(110,110,110);fill-rule:nonzero;"/>
        <path d="M746.44,174.39L746.2,174.44L746,174.57L745.87,174.77L745.82,175.01L745.8,185.52L745.85,186L745.99,186.45L746.21,186.87L746.51,187.24L746.88,187.54L747.3,187.77L747.76,187.91L748.24,187.95L748.64,187.95L749.1,187.91L749.55,187.78L749.95,187.56L750.31,187.27L750.61,186.92L750.82,186.51L750.96,186.07L751,185.61L751.01,180.04L751.05,179.86L751.25,179.59L751.56,179.49L754.58,179.5L754.79,179.54L754.96,179.66L755.08,179.84L755.12,180.05L755.13,183.49L755.13,184.56L755.06,185.55L754.91,186.47L754.7,187.3L754.41,188.05L754.06,188.73L753.63,189.32L753.13,189.84L752.56,190.28L751.92,190.64L751.21,190.92L750.43,191.12L749.58,191.24L748.66,191.29L747.67,191.25L746.6,191.14L745.76,190.97L745.02,190.71L744.35,190.37L743.77,189.94L743.25,189.42L742.83,188.82L742.48,188.13L742.19,187.33L741.97,186.46L741.82,185.47L741.74,184.34L741.71,183.08L741.72,167.71L741.7,166.16L741.7,162.51L741.8,161.22L741.97,160.1L742.23,159.11L742.58,158.25L743.02,157.52L743.58,156.87L744.01,156.51L744.5,156.19L745.03,155.93L745.62,155.71L746.26,155.54L746.97,155.42L748.54,155.32L750,155.4L751.24,155.67L751.8,155.87L752.3,156.11L752.76,156.4L753.16,156.72L753.66,157.26L754.08,157.88L754.43,158.61L754.7,159.42L754.9,160.32L755.04,161.37L755.13,162.57L755.15,163.94L755.14,173.78L755.09,174.02L754.95,174.22L754.75,174.36L754.52,174.41L746.44,174.39ZM746.16,170.67L750.64,170.67L750.9,170.56L751.01,170.3L751,162.02L750.95,161.34L750.82,160.7L750.62,160.1L750.34,159.58L750.01,159.15L749.63,158.83L749.21,158.63L748.78,158.57L747.98,158.57L747.55,158.64L747.13,158.83L746.75,159.15L746.42,159.58L746.14,160.11L745.94,160.7L745.82,161.35L745.78,162.02L745.79,170.3L745.79,170.33L745.91,170.58L746.16,170.67Z" style="fill:rgb(110,110,110);fill-rule:nonzero;"/>
        <path d="M832.93,157.4L832.96,157.53L833.05,157.63L833.17,157.68L833.31,157.66L833.39,157.61L833.66,157.29L833.97,156.78L834.19,156.51L834.55,156.24L835.61,155.7L836.63,155.36L837.6,155.24L838.53,155.33L839.2,155.54L839.84,155.87L840.46,156.32L841.05,156.89L841.22,157.01L841.43,157.06L841.64,157.03L841.82,156.93L842.58,156.31L843.26,155.85L843.87,155.55L844.41,155.4L845.73,155.3L846.86,155.4L847.83,155.69L848.63,156.16L849.09,156.59L849.47,157.11L849.8,157.73L850.05,158.42L850.24,159.22L850.38,160.15L850.46,161.17L850.48,162.33L850.49,190.52L850.46,190.71L850.35,190.86L850.19,190.97L850.01,191L846.84,191.01L846.56,190.92L846.41,190.75L846.36,190.53L846.35,160.97L846.34,160.8L846.27,160.42L846.11,160.06L845.89,159.73L845.6,159.46L845.27,159.26L844.9,159.12L844.51,159.07L844.11,159.1L844.01,159.11L843.57,159.22L843.15,159.41L842.76,159.67L842.44,159.99L842.17,160.37L841.97,160.78L841.85,161.23L841.8,161.69L841.8,190.55L841.77,190.73L841.67,190.88L841.52,190.98L841.34,191.02L838.19,191.02L837.95,190.96L837.77,190.79L837.71,190.54L837.69,160.98L837.68,160.83L837.61,160.44L837.46,160.07L837.23,159.75L836.95,159.47L836.61,159.26L836.24,159.13L835.85,159.07L835.45,159.09L835.39,159.1L834.95,159.21L834.53,159.4L834.15,159.66L833.82,159.98L833.55,160.36L833.35,160.77L833.23,161.22L833.19,161.68L833.18,190.56L833.15,190.74L833.05,190.89L832.9,190.99L832.73,191.03L829.56,191.03L829.38,190.99L829.23,190.89L829.12,190.73L829.09,190.55L829.06,156.18L829.1,155.98L829.21,155.81L829.38,155.7L829.57,155.66L832.35,155.66L832.6,155.71L832.84,155.92L832.93,156.23L832.93,157.4Z" style="fill:rgb(110,110,110);fill-rule:nonzero;"/>
        <path d="M865.55,157.17L865.66,157.25L865.83,157.27L866,157.21L866.11,157.08L866.16,156.91L866.16,156.22L866.2,156L866.32,155.82L866.51,155.7L866.73,155.65L869.34,155.65L869.53,155.68L869.7,155.77L869.83,155.91L869.91,156.08L869.93,156.24L869.94,181.66L869.86,192.48L869.78,193.27L869.62,193.99L869.35,194.67L869.01,195.28L868.4,196.03L867.6,196.68L866.67,197.19L865.63,197.55L864.45,197.77L863.21,197.84L861.92,197.76L860.64,197.52L859.97,197.31L859.36,197.03L858.81,196.7L858.32,196.29L857.94,195.88L857.61,195.42L857.33,194.91L857.1,194.35L856.78,193.08L856.65,191.61L856.65,191.6L856.71,191.33L856.86,191.1L857.1,190.95L857.37,190.9L860.11,190.96L860.38,191.02L860.61,191.16L860.78,191.37L860.87,191.62L860.88,192.24L860.9,192.99L861.13,193.61L861.5,194.14L861.94,194.54L862.47,194.83L863.03,194.99L863.62,195.02L864.19,194.9L864.71,194.66L865.16,194.28L865.38,193.99L865.56,193.66L865.76,192.94L865.88,191.03L865.93,188L865.89,187.83L865.78,187.69L865.62,187.63L865.44,187.64L865.33,187.7L863.75,188.91L863.44,189.09L863.08,189.18L861.59,189.26L860.92,189.21L860.29,189.11L859.72,188.96L859.19,188.74L858.71,188.47L858.28,188.15L857.9,187.77L857.58,187.34L857.3,186.86L857.06,186.32L856.74,185.09L856.6,183.63L856.51,179.1L856.47,173.69L856.58,160.24L856.66,159.47L856.87,158.68L857.22,157.86L857.7,157.01L858.05,156.58L858.43,156.27L859.3,155.8L860.16,155.48L861.01,155.31L861.85,155.29L862.8,155.46L863.73,155.83L864.64,156.4L865.55,157.17ZM865.84,161.46C865.84,160.061 864.689,158.91 863.29,158.91L863.17,158.91C861.771,158.91 860.62,160.061 860.62,161.46L860.62,183.12C860.62,184.519 861.771,185.67 863.17,185.67L863.29,185.67C864.689,185.67 865.84,184.519 865.84,183.12L865.84,161.46Z" style="fill:rgb(110,110,110);fill-rule:nonzero;"/>
        <path d="M279.47,190.59C279.47,190.82 279.28,191.01 279.05,191.01L275.85,191.01C275.62,191.01 275.43,190.82 275.43,190.59L275.43,156.07C275.43,155.84 275.62,155.65 275.85,155.65L279.05,155.65C279.28,155.65 279.47,155.84 279.47,156.07L279.47,190.59Z" style="fill:rgb(110,110,110);fill-rule:nonzero;"/>
        <path d="M395.01,184.36L398.08,156.06L398.22,155.79L398.5,155.68L401.64,155.68L401.87,155.8L401.95,156.06L397.91,190.16L397.81,190.48L397.6,190.75L397.32,190.92L396.99,190.98L392.39,190.98L392.13,190.93L391.9,190.79L391.73,190.58L391.65,190.32L387.61,156.21L387.63,156.01L387.72,155.83L387.88,155.7L388.07,155.65L390.68,155.65L390.92,155.69L391.12,155.82L391.27,156.01L391.34,156.24L392.83,168.79L394.32,181.87L394.52,182.89L394.93,184.37L394.94,184.39L395.01,184.36Z" style="fill:rgb(110,110,110);fill-rule:nonzero;"/>
        <path d="M411.28,190.59C411.28,190.815 411.095,191 410.87,191L407.59,191C407.365,191 407.18,190.815 407.18,190.59L407.18,156.07C407.18,155.845 407.365,155.66 407.59,155.66L410.87,155.66C411.095,155.66 411.28,155.845 411.28,156.07L411.28,190.59Z" style="fill:rgb(110,110,110);fill-rule:nonzero;"/>
        <path d="M625.34,190.6C625.34,190.808 625.168,190.98 624.96,190.98L621.66,190.98C621.452,190.98 621.28,190.808 621.28,190.6L621.28,156.04C621.28,155.832 621.452,155.66 621.66,155.66L624.96,155.66C625.168,155.66 625.34,155.832 625.34,156.04L625.34,190.6Z" style="fill:rgb(110,110,110);fill-rule:nonzero;"/>
        <path d="M654.29,190.6C654.29,190.825 654.105,191.01 653.88,191.01L650.62,191.01C650.395,191.01 650.21,190.825 650.21,190.6L650.21,156.08C650.21,155.855 650.395,155.67 650.62,155.67L653.88,155.67C654.105,155.67 654.29,155.855 654.29,156.08L654.29,190.6Z" style="fill:rgb(110,110,110);fill-rule:nonzero;"/>
        <path d="M716.03,190.48C716.03,190.743 715.813,190.96 715.55,190.96L712.39,190.96C712.127,190.96 711.91,190.743 711.91,190.48L711.91,156.12C711.91,155.857 712.127,155.64 712.39,155.64L715.55,155.64C715.813,155.64 716.03,155.857 716.03,156.12L716.03,190.48Z" style="fill:rgb(110,110,110);fill-rule:nonzero;"/>
        <path d="M332.08,218.62L331.81,218.68L331.58,218.83L331.43,219.06L331.38,219.33L331.4,250.37L331.33,250.6L331.18,250.73L330.99,250.78L327.82,250.78L327.62,250.74L327.42,250.56L327.34,250.3L327.32,219.22L327.29,219.03L327.19,218.86L327.04,218.73L326.85,218.66L326,218.55L325.8,218.55L325.62,218.46L325.49,218.31L325.43,218.12L325.43,218.07L325.44,216.09L325.48,215.85L325.62,215.64L325.83,215.51L326.08,215.46L326.55,215.46L326.84,215.4L327.08,215.23L327.23,214.98L327.27,214.69L327.27,214.65L327.25,212.5L327.38,207.86L327.49,206.86L327.7,206.01L328.04,205.29L328.5,204.71L328.89,204.37L329.34,204.1L329.87,203.88L330.44,203.72L331.82,203.54L333.62,203.57L333.9,203.64L334.13,203.8L334.29,204.04L334.34,204.31L334.34,206.03L334.29,206.31L334.13,206.54L333.9,206.7L333.62,206.75L333.61,206.75L332.84,206.82L332.2,207.1L331.78,207.48L331.44,208L331.36,208.35L331.37,214.67L331.42,214.93L331.57,215.15L331.79,215.3L332.05,215.35L333.64,215.35L333.9,215.4L334.12,215.55L334.27,215.76L334.32,216.02L334.32,217.97L334.27,218.22L334.13,218.43L333.91,218.57L333.66,218.62L332.08,218.62Z" style="fill:rgb(110,110,110);fill-rule:nonzero;"/>
        <path d="M467.91,219.33L467.91,250.46L467.88,250.62L467.79,250.75L467.66,250.84L467.5,250.87L464.32,250.87L464.14,250.83L463.98,250.73L463.88,250.57L463.84,250.39L463.84,219.22L463.81,219.02L463.71,218.85L463.56,218.72L463.37,218.65L462.52,218.54L462.32,218.54L462.14,218.45L462,218.3L461.94,218.11L461.94,218.06L461.95,216.08L462,215.84L462.14,215.63L462.35,215.49L462.6,215.44L463.07,215.44L463.36,215.38L463.6,215.21L463.75,214.96L463.79,214.67L463.79,214.63L463.77,212.47L463.91,207.82L464.01,206.81L464.23,205.97L464.57,205.24L465.03,204.67L465.43,204.33L465.88,204.05L466.41,203.83L466.98,203.67L468.36,203.49L470.17,203.52L470.45,203.59L470.68,203.75L470.84,203.99L470.89,204.27L470.89,205.99L470.83,206.27L470.68,206.5L470.44,206.66L470.16,206.71L470.15,206.71L469.38,206.78L468.74,207.06L468.32,207.44L467.98,207.96L467.9,208.32L467.9,214.65L467.95,214.91L468.1,215.14L468.32,215.29L468.58,215.34L470.18,215.34L470.44,215.39L470.66,215.54L470.81,215.75L470.86,216.01L470.86,217.97L470.81,218.22L470.67,218.43L470.45,218.57L470.2,218.62L468.61,218.62L468.34,218.67L468.12,218.83L467.96,219.06L467.91,219.33Z" style="fill:rgb(110,110,110);fill-rule:nonzero;"/>
        <path d="M626.96,247.14L635.81,247.14L636.02,247.18L636.19,247.3L636.31,247.47L636.35,247.68L636.35,250.25L636.25,250.58L636.04,250.76L635.77,250.83L623.05,250.83L622.83,250.79L622.64,250.67L622.51,250.49L622.46,250.27L622.38,247.61L622.41,246.76L622.49,246.25L624.83,239.09L629.7,224.93L630.53,222.44L631.14,220.3L631.58,218.37L631.88,216.55L632.03,214.96L632.11,213.31L632.09,211.52L632,209.5L631.9,208.77L631.72,208.15L631.44,207.65L631.07,207.25L630.49,206.92L629.76,206.76L629.06,206.79L628.48,206.98L628,207.34L627.62,207.84L627.32,208.49L627.1,209.3L626.96,210.26L626.89,211.35L626.9,212.61L626.99,214.26L627.04,215.21L626.99,215.52L626.82,215.78L626.57,215.96L626.26,216.03L626.25,216.03L623.5,216.02L623.25,215.97L623.04,215.82L622.9,215.6L622.87,215.35L622.87,215.32L622.9,210.48L622.92,209.58L623.01,208.74L623.15,207.96L623.35,207.24L623.61,206.59L623.93,206L624.3,205.47L624.74,205L625.27,204.57L625.88,204.21L626.56,203.92L627.3,203.71L628.12,203.57L629,203.5L629.96,203.51L630.98,203.59L631.97,203.76L632.82,204.03L633.59,204.42L634.24,204.9L634.79,205.5L635.23,206.17L635.59,206.95L635.87,207.86L636.07,208.89L636.2,210.05L636.26,211.38L636.26,213.09L636.16,215.67L635.91,218L635.52,220.09L634.98,221.93L629.91,236.37L626.45,246.42L626.42,246.65L626.5,246.87L626.65,247.04L626.87,247.13L626.96,247.14Z" style="fill:rgb(110,110,110);fill-rule:nonzero;"/>
        <path d="M381.42,208.32C381.42,208.616 381.176,208.86 380.88,208.86L377.62,208.86C377.324,208.86 377.08,208.616 377.08,208.32L377.08,204.34C377.08,204.044 377.324,203.8 377.62,203.8L380.88,203.8C381.176,203.8 381.42,204.044 381.42,204.34L381.42,208.32Z" style="fill:rgb(110,110,110);fill-rule:nonzero;"/>
        <path d="M437.13,250.39C437.13,250.626 436.936,250.82 436.7,250.82L433.36,250.82C433.124,250.82 432.93,250.626 432.93,250.39L432.93,204.27C432.93,204.034 433.124,203.84 433.36,203.84L436.7,203.84C436.936,203.84 437.13,204.034 437.13,204.27L437.13,250.39Z" style="fill:rgb(110,110,110);fill-rule:nonzero;"/>
        <path d="M566.693,208.327C566.692,208.639 566.435,208.896 566.123,208.896C566.122,208.896 566.122,208.896 566.121,208.896L562.981,208.885C562.669,208.883 562.413,208.626 562.413,208.315C562.413,208.314 562.413,208.313 562.413,208.313L562.427,204.353C562.428,204.041 562.685,203.784 562.997,203.784C562.998,203.784 562.998,203.784 562.999,203.785L566.139,203.796C566.451,203.797 566.707,204.054 566.707,204.365C566.707,204.366 566.707,204.367 566.707,204.368L566.693,208.327Z" style="fill:rgb(110,110,110);fill-rule:nonzero;"/>
        <path d="M582.28,249.07L580.9,250.42L580.52,250.71L580.08,250.9L578.91,251.16L577.83,251.22L576.88,251.09L576.01,250.75L575.36,250.3L574.81,249.74L574.34,249.05L573.93,248.21L573.62,247.26L573.38,246.18L573.23,244.98L573.17,243.71L573.11,229.79L573.15,224.29L573.25,219.77L573.37,218.72L573.67,217.74L574.13,216.9L574.76,216.17L575.57,215.55L576.49,215.14L577.51,214.93L578.56,214.94L579.55,215.16L580.51,215.59L581.37,216.22L582.09,217L582.16,217.06L582.36,217.05L582.46,216.87L582.45,204.44L582.48,204.24L582.57,204.06L582.79,203.88L583.07,203.82L585.92,203.81L586.25,203.91L586.45,204.13L586.52,204.4L586.56,250.17L586.51,250.41L586.37,250.62L586.17,250.76L585.93,250.8L583.31,250.81L583.09,250.76L582.9,250.64L582.78,250.45L582.74,250.24L582.73,249.26L582.7,249.14L582.62,249.04L582.5,249L582.37,249.02L582.28,249.07ZM582.39,221.25C582.39,219.884 581.266,218.76 579.9,218.76L579.78,218.76C578.414,218.76 577.29,219.884 577.29,221.25L577.29,245.39C577.29,246.756 578.414,247.88 579.78,247.88L579.9,247.88C581.266,247.88 582.39,246.756 582.39,245.39L582.39,221.25Z" style="fill:rgb(110,110,110);fill-rule:nonzero;"/>
        <path d="M646.49,222.73L646.52,222.86L646.61,222.96L646.74,223L646.87,222.98L646.96,222.92L647.77,222.18L648.58,221.65L649.39,221.32L650.22,221.2L650.39,221.2L651.63,221.3L652.67,221.55L653.58,221.95L654.31,222.49L654.75,222.97L655.1,223.51L655.4,224.15L655.63,224.85L655.81,225.64L655.92,226.54L656,228.76L655.96,235.52L655.97,243.89L655.95,244.82L655.86,245.69L655.72,246.49L655.51,247.24L655.24,247.91L654.91,248.53L654.53,249.08L654.08,249.58L653.6,249.98L653.06,250.34L652.46,250.63L651.81,250.87L651.11,251.05L650.35,251.17L648.67,251.25L647.46,251.15L646.36,250.89L645.42,250.49L644.59,249.93L643.86,249.18L643.26,248.25L642.8,247.13L642.47,245.84L642.28,244.37L642.2,242.7L642.24,240.79L642.39,238.18L642.41,237.95L642.52,237.71L642.76,237.62L645.94,237.62L646.05,237.64L646.25,237.78L646.32,238L646.42,245.41L646.42,245.48L646.49,245.97L646.65,246.44L646.91,246.87L647.24,247.24L647.64,247.53L648.09,247.74L648.57,247.86L649.07,247.88L649.27,247.86L649.77,247.8L650.26,247.64L650.7,247.4L651.08,247.07L651.4,246.68L651.64,246.23L651.79,245.75L651.84,245.25L651.83,227.57L651.77,226.77L651.6,226.08L651.33,225.52L650.95,225.09L650.5,224.8L649.96,224.61L649.32,224.54L648.6,224.57L647.94,224.75L647.37,225.13L646.96,225.68L646.74,226.33L646.5,228.25L646.48,229.05L646.52,229.75L646.51,229.94L646.42,230.12L646.26,230.24L646.07,230.3L642.91,230.3L642.66,230.23L642.48,230.04L642.41,229.79L642.42,204.5L642.46,204.28L642.56,204.09L642.8,203.89L643.1,203.82L655.12,203.82L655.32,203.86L655.49,203.96L655.63,204.15L655.69,204.38L655.68,206.99L655.64,207.2L655.52,207.39L655.34,207.51L655.12,207.55L647.05,207.55L646.83,207.59L646.65,207.71L646.53,207.9L646.49,208.11L646.49,222.73Z" style="fill:rgb(110,110,110);fill-rule:nonzero;"/>
        <path d="M755.5,249.11L755.41,249.06L755.29,249.04L755.16,249.08L755.08,249.18L755.05,249.3L755.05,250.28L755,250.5L754.88,250.68L754.69,250.81L754.47,250.85L751.84,250.85L751.6,250.8L751.4,250.67L751.26,250.46L751.22,250.22L751.21,204.33L751.28,204.06L751.5,203.83L751.81,203.74L754.67,203.74L754.91,203.79L755.11,203.92L755.25,204.12L755.3,204.36L755.3,216.83L755.39,217.01L755.6,217.02L755.67,216.96L756.39,216.17L757.25,215.54L758.2,215.11L759.2,214.89L760.25,214.88L761.27,215.09L762.2,215.5L763.01,216.11L763.65,216.85L764.1,217.69L764.4,218.67L764.53,219.72L764.63,224.26L764.68,229.77L764.63,243.72L764.57,245L764.42,246.21L764.19,247.28L763.87,248.24L763.47,249.08L762.99,249.77L762.44,250.34L761.79,250.79L760.92,251.13L759.97,251.26L758.88,251.2L757.71,250.94L757.27,250.75L756.89,250.46L755.5,249.11ZM760.65,221.36C760.65,219.939 759.481,218.77 758.06,218.77L757.92,218.77C756.499,218.77 755.33,219.939 755.33,221.36L755.33,245.26C755.33,246.681 756.499,247.85 757.92,247.85L758.06,247.85C759.481,247.85 760.65,246.681 760.65,245.26L760.65,221.36Z" style="fill:rgb(110,110,110);fill-rule:nonzero;"/>
        <path d="M775.36,250.35C775.36,250.624 775.134,250.85 774.86,250.85L771.7,250.85C771.426,250.85 771.2,250.624 771.2,250.35L771.2,204.35C771.2,204.076 771.426,203.85 771.7,203.85L774.86,203.85C775.134,203.85 775.36,204.076 775.36,204.35L775.36,250.35Z" style="fill:rgb(110,110,110);fill-rule:nonzero;"/>
        <path d="M263.09,250.8L262.05,250.87L261.08,250.85L260.19,250.76L259.41,250.6L258.69,250.35L258.09,250.04L257.57,249.65L257.14,249.18L256.83,248.67L256.61,248.09L256.47,247.46L256.43,246.74L256.38,233.52L256.14,219.72L256.07,219.34L255.89,218.99L254.8,217.57L254.64,217.26L254.6,216.91L254.69,216.57L254.89,216.28L255.46,215.63L255.9,214.96L256.22,214.26L256.41,213.54L256.47,212.83L256.42,212.09L256.41,211.73L256.5,211.37L256.68,211.06L256.94,210.8L258.92,209.28L259.32,209.11L259.75,209.13L260.12,209.35L260.35,209.72L260.4,210.01L260.4,214.54L260.45,214.8L260.59,215.02L260.79,215.19L261.05,215.27L262.09,215.4L262.52,215.52L262.9,215.74L263.18,216.05L263.38,216.42L263.48,216.84L263.46,217.26L263.33,217.66L263.1,218.02L262.79,218.3L262.41,218.49L260.97,218.59L260.77,218.64L260.6,218.76L260.49,218.94L260.45,219.14L260.4,245.07L260.45,245.75L260.59,246.33L260.82,246.8L261.14,247.16L261.5,247.39L261.94,247.53L262.45,247.58L263.04,247.55L263.28,247.62L263.39,247.84L263.39,250.47L263.3,250.69L263.09,250.8Z" style="fill:rgb(110,110,110);fill-rule:nonzero;"/>
        <path d="M726.37,215.38L726.61,215.43L726.82,215.56L726.95,215.77L727,216.01L727,217.9L726.95,218.17L726.8,218.39L726.57,218.54L726.31,218.59L724.81,218.59L724.54,218.64L724.31,218.8L724.15,219.02L724.1,219.29L724.09,245.24L724.12,245.88L724.23,246.39L724.4,246.79L724.64,247.1L724.98,247.34L725.42,247.49L725.97,247.57L726.69,247.58L726.88,247.66L726.96,247.85L726.96,250.41L726.88,250.62L726.69,250.73L725.77,250.82L724.9,250.85L724.13,250.81L723.42,250.7L722.78,250.54L722.2,250.3L721.69,250L721.23,249.63L720.88,249.23L720.59,248.78L720.34,248.26L720.15,247.69L720.01,247.06L719.93,246.38L719.93,244.81L719.95,219.45L719.91,219.18L719.8,218.94L719.63,218.73L719.4,218.58L719.06,218.51L718.59,218.55L718.54,218.56L718.31,218.53L718.12,218.41L717.99,218.23L717.94,218L717.94,216.09L717.99,215.84L718.13,215.62L718.35,215.47L718.6,215.42L719.05,215.38L719.45,215.26L719.66,215.14L719.83,214.95L719.93,214.73L719.97,214.49L719.97,211.46L720.02,211.12L720.17,210.8L720.4,210.54L720.7,210.36L723.33,209.22L723.44,209.19L723.68,209.19L723.9,209.3L724.05,209.49L724.1,209.73L724.1,214.75L724.15,214.99L724.28,215.2L724.48,215.33L724.72,215.38L726.37,215.38Z" style="fill:rgb(110,110,110);fill-rule:nonzero;"/>
        <path d="M808.37,215.46L808.61,215.51L808.82,215.65L808.95,215.85L809,216.09L809,217.97L808.97,218.18L808.87,218.38L808.62,218.58L808.31,218.66L806.82,218.66L806.55,218.71L806.32,218.86L806.17,219.09L806.11,219.35L806.1,245.18L806.13,245.81L806.23,246.32L806.4,246.72L806.64,247.03L806.99,247.27L807.42,247.42L807.97,247.49L808.68,247.51L808.69,247.51L808.87,247.58L808.95,247.77L808.95,250.32L808.87,250.53L808.68,250.64L807.76,250.73L806.9,250.76L806.14,250.72L805.43,250.61L804.79,250.45L804.22,250.21L803.7,249.91L803.25,249.54L802.9,249.15L802.61,248.7L802.36,248.18L802.17,247.61L802.04,246.99L801.96,246.3L801.96,244.75L801.98,219.51L801.95,219.25L801.84,219L801.66,218.8L801.44,218.65L801.1,218.57L800.63,218.62L800.58,218.62L800.36,218.6L800.16,218.48L800.03,218.29L799.98,218.07L799.98,216.17L800.03,215.91L800.18,215.7L800.39,215.55L800.64,215.5L801.09,215.46L801.49,215.34L801.7,215.22L801.86,215.04L801.97,214.82L802,214.58L802.01,211.56L802.06,211.22L802.2,210.91L802.44,210.65L802.73,210.47L805.35,209.33L805.46,209.3L805.7,209.3L805.91,209.41L806.06,209.6L806.12,209.84L806.11,214.84L806.16,215.08L806.3,215.28L806.5,215.42L806.73,215.46L808.37,215.46Z" style="fill:rgb(110,110,110);fill-rule:nonzero;"/>
        <path d="M272.74,234.16L272.5,234.21L272.3,234.35L272.16,234.55L272.11,234.79L272.11,245.4L272.16,245.88L272.3,246.34L272.53,246.76L272.83,247.14L273.2,247.44L273.63,247.67L274.09,247.81L274.57,247.85L274.98,247.85L275.45,247.81L275.9,247.67L276.31,247.45L276.67,247.16L276.96,246.8L277.18,246.39L277.32,245.95L277.36,245.48L277.37,239.86L277.41,239.65L277.53,239.47L277.71,239.35L277.92,239.3L280.96,239.31L280.97,239.31L281.18,239.35L281.35,239.47L281.47,239.65L281.51,239.86L281.53,243.34L281.53,244.42L281.46,245.42L281.31,246.34L281.1,247.18L280.81,247.94L280.45,248.63L280.02,249.23L279.52,249.75L278.95,250.2L278.3,250.56L277.58,250.84L276.8,251.05L275.94,251.17L275,251.22L274,251.18L272.93,251.07L272.08,250.9L271.33,250.65L270.65,250.3L270.06,249.87L269.54,249.34L269.11,248.73L268.76,248.04L268.46,247.23L268.25,246.35L268.09,245.35L268,244.22L267.98,242.94L267.96,227.42L267.93,225.86L267.94,222.17L268.03,220.87L268.21,219.74L268.47,218.73L268.82,217.87L269.28,217.1L269.83,216.48L270.26,216.11L270.76,215.78L271.29,215.52L271.88,215.3L272.53,215.12L273.25,215L274.83,214.9L276.31,214.98L277.56,215.24L278.12,215.45L278.63,215.69L279.09,215.98L279.5,216.31L280.01,216.85L280.43,217.48L280.78,218.21L281.05,219.03L281.26,219.94L281.41,221L281.49,222.21L281.52,223.6L281.52,233.53L281.47,233.77L281.34,233.98L281.13,234.12L280.89,234.16L272.74,234.16ZM272.89,230.38L276.69,230.36L276.96,230.3L277.19,230.15L277.35,229.92L277.4,229.65L277.35,220.96L277.3,220.45L277.17,219.96L276.95,219.51L276.66,219.12L276.31,218.8L275.9,218.56L275.46,218.42L275.01,218.37L274.45,218.37L273.99,218.42L273.56,218.57L273.16,218.82L272.81,219.14L272.52,219.54L272.3,219.99L272.17,220.48L272.13,220.98L272.18,229.67L272.23,229.94L272.39,230.17L272.62,230.33L272.89,230.38Z" style="fill:rgb(110,110,110);fill-rule:nonzero;"/>
        <path d="M301.1,248.04L301.12,249.47L301.17,250.09L301.13,250.36L301,250.59L300.78,250.76L300.51,250.82L297.52,250.82L297.27,250.77L297.06,250.63L296.92,250.42L296.87,250.17L296.9,221.02L296.9,220.87L296.82,220.42L296.65,219.99L296.4,219.61L296.08,219.29L295.69,219.03L295.27,218.87L294.82,218.79L294.36,218.8L294.17,218.82L293.66,218.92L293.18,219.11L292.74,219.38L292.35,219.73L292.04,220.15L291.81,220.61L291.67,221.11L291.62,221.63L291.62,250.45L291.51,250.71L291.25,250.82L287.81,250.82L287.64,250.77L287.54,250.66L287.5,250.51L287.5,215.92L287.55,215.69L287.68,215.49L287.88,215.36L288.11,215.31L290.71,215.31L290.97,215.36L291.19,215.51L291.34,215.73L291.39,215.99L291.39,216.89L291.43,217.04L291.54,217.16L291.69,217.21L291.84,217.19L291.95,217.11L292.72,216.38L293.52,215.8L294.38,215.35L295.25,215.06L296.15,214.92L297.03,214.94L297.86,215.13L298.64,215.48L299.17,215.84L299.65,216.28L300.06,216.79L300.4,217.36L300.67,218L300.87,218.71L301,219.45L301.04,220.25L301.1,248.04Z" style="fill:rgb(110,110,110);fill-rule:nonzero;"/>
        <path d="M320.501,245.338C320.507,248.564 317.857,251.223 314.632,251.229L313.072,251.231C309.846,251.237 307.187,248.587 307.182,245.362L307.139,220.782C307.133,217.556 309.783,214.897 313.008,214.891L314.568,214.889C317.794,214.883 320.453,217.533 320.459,220.758L320.501,245.338ZM316.41,220.84C316.41,219.48 315.29,218.36 313.93,218.36L313.69,218.36C312.33,218.36 311.21,219.48 311.21,220.84L311.21,245.38C311.21,246.74 312.33,247.86 313.69,247.86L313.93,247.86C315.29,247.86 316.41,246.74 316.41,245.38L316.41,220.84Z" style="fill:rgb(110,110,110);fill-rule:nonzero;"/>
        <path d="M352.492,245.166C352.504,248.48 349.787,251.216 346.473,251.227L345.053,251.232C341.74,251.244 339.004,248.527 338.992,245.214L338.908,220.954C338.896,217.64 341.613,214.904 344.927,214.893L346.347,214.888C349.66,214.876 352.396,217.593 352.408,220.906L352.492,245.166ZM348.36,220.82C348.36,219.47 347.25,218.36 345.9,218.36L345.58,218.36C344.23,218.36 343.12,219.47 343.12,220.82L343.12,245.38C343.12,246.73 344.23,247.84 345.58,247.84L345.9,247.84C347.25,247.84 348.36,246.73 348.36,245.38L348.36,220.82Z" style="fill:rgb(110,110,110);fill-rule:nonzero;"/>
        <path d="M391.73,216.98L391.76,217.13L391.87,217.24L392.02,217.29L392.18,217.26L392.3,217.15L392.67,216.67L393.09,216.25L393.8,215.73L394.63,215.33L395.56,215.06L396.61,214.92L396.86,214.95L397.07,215.07L397.22,215.27L397.27,215.51L397.28,215.53L397.28,218.59L397.22,218.82L397.08,219.01L396.87,219.13L396.64,219.16L395.69,219.15L394.85,219.27L394.11,219.53L393.47,219.92L393.1,220.27L392.77,220.68L392.5,221.16L392.27,221.7L392.1,222.31L391.98,222.98L391.89,224.52L391.92,250.39L391.85,250.63L391.69,250.77L391.48,250.83L388.3,250.83L388.13,250.8L387.98,250.7L387.89,250.56L387.85,250.39L387.81,215.87L387.85,215.67L387.97,215.49L388.15,215.37L388.36,215.33L391.07,215.33L391.4,215.41L391.64,215.65L391.72,215.98L391.73,216.98Z" style="fill:rgb(110,110,110);fill-rule:nonzero;"/>
        <path d="M422.7,249.48L422.67,249.34L422.57,249.24L422.44,249.19L422.31,249.21L422.22,249.27L420.9,250.52L420.66,250.7L420.37,250.82L418.82,251.2L418.11,251.28L417.45,251.3L416.84,251.24L416.29,251.13L415.77,250.93L415.3,250.68L414.67,250.15L414.13,249.45L413.71,248.59L413.38,247.57L413.15,246.38L413.01,245.02L412.95,243.45L412.96,241.32L412.97,239.63L412.96,239L412.97,236.11L413.05,235.09L413.17,234.2L413.37,233.39L413.62,232.69L413.94,232.05L414.36,231.47L414.95,230.86L415.7,230.33L416.57,229.9L417.6,229.54L418.7,229.26L419.75,229.06L420.75,228.93L421.71,228.89L421.96,228.83L422.17,228.69L422.31,228.48L422.36,228.22L422.34,220.44L422.34,220.4L422.29,219.99L422.17,219.6L421.97,219.24L421.7,218.92L421.38,218.67L421.01,218.48L420.62,218.36L420.21,218.32L419.57,218.32L419.16,218.36L418.76,218.48L418.4,218.68L418.08,218.94L417.82,219.26L417.63,219.63L417.51,220.02L417.47,220.43L417.48,224.58L417.44,224.76L417.34,224.91L417.18,225.02L417,225.05L413.9,225.06L413.73,225.03L413.59,224.94L413.48,224.8L413.44,224.64L413.34,223.2L413.33,221.9L413.41,220.75L413.58,219.73L413.83,218.81L414.17,217.98L414.61,217.26L415.15,216.63L415.61,216.23L416.13,215.88L416.68,215.6L417.3,215.36L417.99,215.17L418.74,215.03L420.38,214.92L421.76,215L422.96,215.27L423.98,215.72L424.42,216.01L424.82,216.35L425.17,216.74L425.48,217.17L425.97,218.16L426.29,219.34L426.43,220.7L426.52,250.34L426.48,250.53L426.37,250.69L426.21,250.8L426.01,250.84L423.2,250.84L422.94,250.77L422.76,250.58L422.7,250.34L422.7,249.48ZM418.76,233.18L418.08,233.62L417.54,234.23L417.21,234.97L417.09,235.77L417.09,245.66L417.16,246.11L417.31,246.54L417.55,246.93L417.86,247.27L418.23,247.53L418.65,247.72L419.09,247.82L419.55,247.83L419.93,247.79L420.42,247.7L420.89,247.53L421.32,247.27L421.69,246.93L421.99,246.54L422.22,246.09L422.35,245.61L422.4,245.11L422.4,233.2L422.29,232.73L422,232.36L421.57,232.14L421.09,232.14L420.87,232.21L418.76,233.18Z" style="fill:rgb(110,110,110);fill-rule:nonzero;"/>
        <path d="M453.32,249.44L453.28,249.31L453.19,249.21L453.06,249.16L452.93,249.18L452.84,249.23L451.52,250.48L451.28,250.66L450.99,250.78L449.44,251.16L448.73,251.24L448.08,251.26L447.47,251.2L446.92,251.08L446.4,250.89L445.93,250.63L445.3,250.11L444.77,249.4L444.34,248.55L444.02,247.53L443.79,246.34L443.65,244.98L443.59,243.42L443.6,241.29L443.62,239.6L443.61,238.97L443.62,236.09L443.7,235.07L443.82,234.18L444.02,233.37L444.27,232.67L444.59,232.04L445.01,231.46L445.6,230.85L446.35,230.32L447.22,229.89L448.25,229.53L449.34,229.25L450.39,229.05L451.39,228.93L452.35,228.89L452.6,228.83L452.81,228.69L452.95,228.47L453,228.22L452.99,220.45L452.91,219.88L452.68,219.35L452.31,218.9L451.83,218.56L451.36,218.39L450.86,218.33L450.22,218.33L449.81,218.37L449.42,218.49L449.06,218.69L448.74,218.95L448.48,219.27L448.29,219.63L448.17,220.03L448.13,220.44L448.13,224.58L448.1,224.76L447.99,224.91L447.84,225.01L447.65,225.05L444.55,225.05L444.39,225.02L444.24,224.93L444.14,224.8L444.09,224.63L444,223.19L444,221.9L444.08,220.75L444.24,219.73L444.49,218.82L444.84,217.99L445.27,217.27L445.81,216.64L446.27,216.24L446.79,215.9L447.35,215.61L447.97,215.37L448.65,215.18L449.4,215.05L451.04,214.93L452.41,215.02L453.61,215.29L454.63,215.74L455.07,216.03L455.47,216.37L455.82,216.76L456.13,217.19L456.62,218.18L456.93,219.36L457.07,220.71L457.13,250.31L457.09,250.5L456.98,250.66L456.82,250.77L456.63,250.81L453.82,250.81L453.63,250.77L453.47,250.66L453.36,250.5L453.32,250.31L453.32,249.44ZM449.36,233.17L448.67,233.61L448.14,234.22L447.8,234.96L447.68,235.76L447.65,245.58L447.65,245.67L447.71,246.13L447.86,246.56L448.1,246.95L448.41,247.28L448.78,247.55L449.2,247.74L449.65,247.84L450.1,247.85L450.48,247.81L450.98,247.73L451.45,247.55L451.88,247.3L452.25,246.96L452.55,246.56L452.78,246.12L452.92,245.64L452.97,245.14L453.01,233.2L452.9,232.74L452.61,232.36L452.18,232.14L451.7,232.14L451.48,232.21L449.36,233.17Z" style="fill:rgb(110,110,110);fill-rule:nonzero;"/>
        <path d="M480.23,234.17L480.02,234.21L479.83,234.32L479.69,234.48L479.62,234.68L479.6,234.8L479.6,245.41L479.65,245.89L479.79,246.35L480.02,246.77L480.32,247.15L480.69,247.45L481.12,247.68L481.58,247.82L482.06,247.86L482.47,247.86L482.94,247.82L483.38,247.68L483.8,247.46L484.16,247.17L484.45,246.81L484.67,246.4L484.81,245.96L484.85,245.5L484.85,239.87L484.89,239.69L484.98,239.52L485.17,239.37L485.41,239.32L488.46,239.32L488.67,239.36L488.84,239.48L488.96,239.66L489,239.87L489.02,243.35L489.02,244.43L488.94,245.43L488.8,246.35L488.58,247.19L488.3,247.95L487.94,248.64L487.51,249.24L487.01,249.76L486.43,250.21L485.79,250.57L485.07,250.85L484.28,251.06L483.42,251.18L482.49,251.23L481.49,251.19L480.42,251.08L479.57,250.91L478.82,250.65L478.14,250.31L477.55,249.88L477.03,249.35L476.6,248.74L476.25,248.05L475.95,247.24L475.74,246.36L475.58,245.36L475.5,244.23L475.47,242.95L475.45,227.43L475.43,225.87L475.43,222.19L475.53,220.88L475.7,219.75L475.96,218.75L476.31,217.88L476.77,217.12L477.32,216.49L477.75,216.12L478.25,215.8L478.78,215.53L479.37,215.31L480.02,215.14L480.74,215.01L482.32,214.91L483.8,215L485.05,215.26L485.62,215.46L486.12,215.71L486.58,215.99L486.99,216.32L487.5,216.87L487.92,217.49L488.27,218.23L488.55,219.04L488.75,219.96L488.9,221.01L488.98,222.23L489.01,223.61L489.01,233.54L488.96,233.78L488.83,233.99L488.62,234.13L488.38,234.18L480.23,234.17ZM480.04,230.36L484.44,230.36L484.71,230.26L484.86,230.01L484.87,229.93L484.87,221.08L484.83,220.55L484.69,220.04L484.48,219.57L484.18,219.16L483.83,218.82L483.43,218.57L482.99,218.41L482.53,218.36L481.95,218.36L481.49,218.41L481.05,218.57L480.65,218.82L480.3,219.16L480,219.57L479.79,220.04L479.65,220.55L479.61,221.08L479.61,229.93L479.62,230.04L479.78,230.27L480.04,230.36Z" style="fill:rgb(110,110,110);fill-rule:nonzero;"/>
        <path d="M499.46,217.11L500.11,216.38L500.8,215.8L501.53,215.37L502.3,215.08L503.25,214.93L504.34,214.94L505.27,215.1L506.08,215.4L506.75,215.84L507.19,216.27L507.55,216.78L507.86,217.39L508.09,218.06L508.26,218.83L508.39,219.71L508.47,221.9L508.49,250.35L508.45,250.53L508.35,250.69L508.19,250.79L508.01,250.83L504.88,250.83L504.7,250.79L504.55,250.69L504.46,250.54L504.42,250.36L504.41,221.05L504.41,220.95L504.34,220.49L504.18,220.05L503.94,219.66L503.62,219.32L503.24,219.06L502.82,218.87L502.36,218.77L501.9,218.77L501.69,218.78L501.19,218.86L500.72,219.03L500.29,219.28L499.91,219.62L499.61,220.01L499.38,220.46L499.24,220.94L499.19,221.44L499.2,250.48L499.1,250.72L498.86,250.82L495.45,250.82L495.19,250.71L495.08,250.45L495.08,215.89L495.12,215.67L495.25,215.48L495.44,215.35L495.66,215.31L498.32,215.31L498.64,215.41L498.82,215.61L498.89,215.88L498.89,216.91L498.93,217.07L499.04,217.18L499.19,217.23L499.35,217.2L499.46,217.11Z" style="fill:rgb(110,110,110);fill-rule:nonzero;"/>
        <path d="M524.29,249.45L524.26,249.32L524.16,249.21L524.04,249.17L523.9,249.18L523.81,249.24L522.5,250.49L522.25,250.67L521.96,250.79L520.41,251.17L519.7,251.25L519.05,251.27L518.44,251.21L517.89,251.09L517.37,250.9L516.9,250.65L516.27,250.12L515.73,249.41L515.31,248.56L514.98,247.54L514.75,246.35L514.61,244.99L514.56,243.43L514.57,241.29L514.58,239.6L514.57,238.98L514.58,236.09L514.66,235.07L514.78,234.18L514.98,233.37L515.23,232.67L515.55,232.03L515.96,231.45L516.56,230.85L517.31,230.32L518.18,229.88L519.21,229.52L520.3,229.25L521.35,229.05L522.36,228.92L523.31,228.88L523.56,228.82L523.77,228.68L523.91,228.47L523.96,228.21L523.95,220.44L523.85,219.79L523.55,219.19L523.08,218.72L522.48,218.42L521.82,218.31L521.18,218.32L520.77,218.36L520.38,218.48L520.02,218.67L519.7,218.93L519.44,219.25L519.25,219.62L519.13,220.01L519.09,220.42L519.09,224.57L519.06,224.75L518.95,224.9L518.8,225L518.61,225.04L515.51,225.04L515.34,225.01L515.2,224.92L515.1,224.79L515.05,224.62L514.96,223.18L514.95,221.89L515.03,220.73L515.2,219.72L515.44,218.8L515.79,217.97L516.23,217.26L516.77,216.63L517.22,216.23L517.75,215.88L518.3,215.59L518.92,215.35L519.61,215.16L520.36,215.03L522,214.91L523.37,215L524.57,215.27L525.59,215.72L526.03,216.01L526.43,216.35L526.79,216.74L527.1,217.17L527.58,218.16L527.9,219.34L528.04,220.69L528.1,250.32L528.07,250.51L527.96,250.67L527.79,250.78L527.6,250.81L524.79,250.82L524.6,250.78L524.44,250.67L524.33,250.51L524.29,250.32L524.29,249.45ZM520.32,233.18L519.63,233.62L519.1,234.23L518.76,234.97L518.64,235.77L518.62,245.59L518.62,245.68L518.68,246.14L518.83,246.57L519.07,246.96L519.38,247.29L519.75,247.56L520.17,247.75L520.62,247.85L521.07,247.86L521.46,247.82L521.95,247.74L522.42,247.56L522.85,247.3L523.22,246.97L523.52,246.57L523.75,246.12L523.89,245.64L523.94,245.14L523.96,233.21L523.86,232.74L523.56,232.37L523.13,232.15L522.65,232.15L522.43,232.22L520.32,233.18Z" style="fill:rgb(110,110,110);fill-rule:nonzero;"/>
        <path d="M538.2,217.08L538.24,217.21L538.32,217.31L538.45,217.36L538.58,217.34L538.66,217.29L538.94,216.98L539.24,216.46L539.46,216.19L539.82,215.92L540.89,215.38L541.91,215.04L542.88,214.92L543.81,215.01L544.49,215.22L545.13,215.55L545.75,216L546.35,216.57L546.52,216.69L546.72,216.75L546.93,216.72L547.12,216.61L547.87,215.99L548.56,215.53L549.17,215.22L549.71,215.08L551.04,214.98L552.17,215.07L553.14,215.37L553.94,215.84L554.4,216.27L554.79,216.79L555.11,217.41L555.37,218.11L555.56,218.91L555.7,219.84L555.78,220.87L555.8,222.03L555.82,250.29L555.78,250.48L555.67,250.63L555.52,250.74L555.33,250.78L552.15,250.78L551.97,250.74L551.81,250.64L551.71,250.48L551.67,250.3L551.66,220.66L551.65,220.5L551.57,220.11L551.42,219.75L551.2,219.42L550.91,219.15L550.57,218.94L550.2,218.81L549.81,218.76L549.42,218.78L549.32,218.79L548.87,218.91L548.45,219.1L548.06,219.36L547.73,219.68L547.46,220.06L547.26,220.48L547.14,220.92L547.1,221.38L547.1,250.32L547.01,250.61L546.84,250.74L546.63,250.79L543.48,250.79L543.29,250.76L543.14,250.65L543.03,250.5L543,250.32L542.97,220.68L542.97,220.52L542.89,220.13L542.74,219.76L542.52,219.44L542.23,219.16L541.89,218.95L541.52,218.81L541.13,218.76L540.73,218.78L540.67,218.79L540.23,218.9L539.8,219.09L539.42,219.35L539.09,219.67L538.83,220.05L538.63,220.46L538.51,220.91L538.47,221.37L538.46,250.33L538.43,250.51L538.33,250.66L538.18,250.76L538,250.8L534.82,250.8L534.64,250.77L534.49,250.66L534.39,250.51L534.35,250.32L534.33,215.86L534.36,215.66L534.47,215.49L534.64,215.38L534.83,215.34L537.62,215.34L537.84,215.38L538.03,215.51L538.16,215.69L538.2,215.92L538.2,217.08Z" style="fill:rgb(110,110,110);fill-rule:nonzero;"/>
        <path d="M597.4,234.16L597.16,234.21L596.95,234.35L596.82,234.55L596.77,234.79L596.76,245.39L596.8,245.86L596.94,246.32L597.17,246.75L597.47,247.12L597.84,247.42L598.27,247.65L598.73,247.79L599.21,247.84L599.62,247.84L600.08,247.79L600.53,247.66L600.94,247.44L601.3,247.15L601.6,246.79L601.82,246.38L601.95,245.94L602,245.47L602.01,239.86L602.05,239.65L602.17,239.47L602.35,239.35L602.56,239.3L605.6,239.31L605.61,239.31L605.82,239.35L605.99,239.47L606.11,239.65L606.15,239.86L606.16,243.34L606.16,244.42L606.08,245.41L605.94,246.33L605.72,247.17L605.44,247.93L605.08,248.62L604.65,249.22L604.15,249.74L603.57,250.18L602.93,250.54L602.21,250.83L601.42,251.03L600.57,251.15L599.64,251.2L598.64,251.16L597.56,251.04L596.71,250.87L595.97,250.62L595.29,250.27L594.7,249.84L594.18,249.31L593.75,248.71L593.4,248.02L593.11,247.21L592.89,246.33L592.74,245.33L592.66,244.2L592.63,242.92L592.63,227.42L592.61,225.87L592.62,222.19L592.72,220.89L592.89,219.76L593.15,218.75L593.5,217.89L593.95,217.15L594.51,216.5L594.95,216.13L595.44,215.81L595.97,215.55L596.56,215.33L597.21,215.15L597.93,215.03L599.51,214.93L600.99,215.02L602.23,215.28L602.8,215.48L603.31,215.73L603.76,216.02L604.17,216.35L604.68,216.89L605.1,217.51L605.45,218.25L605.72,219.06L605.92,219.98L606.07,221.03L606.15,222.24L606.18,223.63L606.16,233.54L606.12,233.78L605.98,233.99L605.78,234.13L605.54,234.18L597.4,234.16ZM597.06,230.37L601.8,230.35L602.01,230.26L602.1,230.05L602.06,221.52L602.01,220.9L601.89,220.31L601.69,219.77L601.43,219.29L601.11,218.9L600.74,218.61L600.35,218.44L599.94,218.38L598.8,218.38L598.39,218.45L598,218.63L597.63,218.92L597.32,219.31L597.06,219.79L596.87,220.34L596.75,220.93L596.72,221.54L596.76,230.07L596.85,230.29L597.06,230.37Z" style="fill:rgb(110,110,110);fill-rule:nonzero;"/>
        <path d="M666,217.27L666.28,216.95L666.58,216.44L666.8,216.17L667.16,215.9L668.23,215.35L669.25,215.02L670.23,214.9L671.16,214.99L671.83,215.2L672.48,215.53L673.1,215.98L673.69,216.55L673.86,216.68L674.06,216.73L674.28,216.7L674.46,216.59L675.22,215.97L675.91,215.51L676.52,215.21L677.06,215.06L678.39,214.96L679.51,215.06L680.49,215.35L681.29,215.82L681.75,216.26L682.14,216.78L682.46,217.4L682.72,218.1L682.91,218.9L683.05,219.83L683.13,220.86L683.15,222.02L683.14,250.31L683.1,250.49L683,250.65L682.84,250.75L682.65,250.79L679.47,250.79L679.29,250.75L679.13,250.65L679.03,250.49L678.99,250.31L679,220.65L678.99,220.49L678.92,220.1L678.77,219.73L678.54,219.41L678.25,219.14L677.92,218.93L677.55,218.8L677.15,218.74L676.76,218.77L676.66,218.78L676.21,218.89L675.79,219.08L675.41,219.34L675.07,219.67L674.8,220.04L674.61,220.46L674.48,220.91L674.44,221.37L674.42,250.33L674.38,250.51L674.28,250.66L674.13,250.76L673.95,250.8L670.79,250.8L670.61,250.76L670.45,250.66L670.35,250.5L670.31,250.32L670.31,220.66L670.3,220.5L670.23,220.11L670.08,219.75L669.86,219.42L669.57,219.14L669.23,218.93L668.86,218.79L668.47,218.74L668.07,218.76L668.01,218.77L667.56,218.88L667.14,219.07L666.76,219.33L666.43,219.65L666.16,220.03L665.96,220.44L665.84,220.89L665.8,221.35L665.77,250.33L665.73,250.51L665.64,250.66L665.49,250.76L665.31,250.8L662.13,250.8L661.95,250.76L661.8,250.66L661.7,250.5L661.66,250.32L661.66,215.83L661.7,215.63L661.81,215.46L661.97,215.35L662.17,215.31L664.96,215.31L665.18,215.35L665.37,215.48L665.5,215.67L665.54,215.89L665.54,217.06L665.57,217.19L665.66,217.29L665.78,217.34L665.92,217.32L666,217.27Z" style="fill:rgb(110,110,110);fill-rule:nonzero;"/>
        <path d="M696.76,258L695.02,258L693.51,257.57L692.84,257.29L692.24,256.97L691.7,256.61L691.22,256.22L690.8,255.78L690.45,255.3L689.99,254.42L689.7,253.44L689.58,252.34L689.63,251.13L689.73,250.93L689.94,250.85L693.37,250.85L693.59,250.94L693.68,251.16L693.68,251.17L693.69,252.31L693.86,253.25L694.18,253.98L694.4,254.26L694.66,254.5L695.01,254.7L695.42,254.84L695.88,254.9L696.4,254.89L696.82,254.82L697.21,254.69L697.58,254.49L697.89,254.25L698.16,253.96L698.36,253.63L698.49,253.28L698.55,252.91L698.87,248.07L698.86,247.93L698.76,247.73L698.58,247.61L698.37,247.57L698.16,247.64L696.27,248.79L695.69,249.05L695.07,249.14L693.83,249.08L692.75,248.86L691.81,248.46L691.03,247.91L690.66,247.51L690.33,247.07L690.06,246.57L689.83,246.01L689.65,245.4L689.53,244.74L689.42,243.25L689.38,229.21L689.43,220.25L689.5,219.38L689.66,218.57L689.92,217.81L690.28,217.13L690.73,216.5L691.26,215.97L691.88,215.53L692.55,215.2L693.31,214.98L694.11,214.9L694.89,214.95L695.68,215.13L696.43,215.44L697.16,215.87L697.83,216.42L698.47,217.09L698.6,217.18L698.75,217.2L698.89,217.14L698.99,217.02L699.02,216.89L699.02,215.85L699.06,215.65L699.17,215.48L699.33,215.37L699.53,215.33L702.29,215.33L702.48,215.36L702.65,215.46L702.8,215.66L702.86,215.9L702.8,251.76L702.73,252.86L702.51,253.85L702.16,254.75L701.68,255.53L701.28,256L700.81,256.43L700.29,256.8L699.71,257.13L699.06,257.42L698.36,257.66L696.76,258ZM698.66,221.01C698.66,219.743 697.617,218.7 696.35,218.7L695.83,218.7C694.563,218.7 693.52,219.743 693.52,221.01L693.52,243.09C693.52,244.357 694.563,245.4 695.83,245.4L696.35,245.4C697.617,245.4 698.66,244.357 698.66,243.09L698.66,221.01Z" style="fill:rgb(110,110,110);fill-rule:nonzero;"/>
        <path d="M741.34,249.44L741.3,249.31L741.21,249.21L741.08,249.16L740.95,249.18L740.85,249.23L739.54,250.48L739.29,250.66L739.01,250.78L737.46,251.15L736.75,251.24L736.09,251.25L735.49,251.19L734.94,251.07L734.41,250.88L733.95,250.63L733.32,250.1L732.78,249.39L732.36,248.54L732.04,247.52L731.81,246.33L731.67,244.97L731.62,243.41L731.63,241.28L731.64,239.59L731.64,238.96L731.66,236.08L731.73,235.06L731.86,234.17L732.05,233.36L732.31,232.66L732.63,232.03L733.04,231.45L733.64,230.84L734.39,230.31L735.26,229.88L736.29,229.52L737.38,229.25L738.43,229.05L739.43,228.93L740.39,228.88L740.64,228.83L740.85,228.69L740.99,228.47L741.04,228.22L741.04,220.45L741,220.05L740.89,219.66L740.71,219.3L740.46,218.99L740.15,218.72L739.8,218.52L739.42,218.39L739.02,218.33L738.28,218.33L737.87,218.37L737.47,218.49L737.11,218.68L736.79,218.94L736.53,219.26L736.34,219.63L736.22,220.02L736.18,220.43L736.18,224.57L736.14,224.75L736.04,224.9L735.88,225.01L735.7,225.04L732.6,225.04L732.43,225.01L732.29,224.92L732.19,224.78L732.14,224.62L732.05,223.18L732.05,221.89L732.13,220.73L732.29,219.72L732.54,218.81L732.89,217.97L733.33,217.26L733.87,216.63L734.32,216.23L734.85,215.89L735.4,215.6L736.02,215.36L736.71,215.18L737.46,215.04L739.1,214.93L740.47,215.02L741.67,215.28L742.68,215.74L743.13,216.03L743.53,216.37L743.88,216.76L744.19,217.19L744.67,218.18L744.99,219.36L745.12,220.71L745.15,250.32L745.11,250.51L745,250.66L744.84,250.77L744.64,250.81L741.84,250.81L741.65,250.77L741.48,250.66L741.37,250.5L741.34,250.31L741.34,249.44ZM737.4,233.16L736.71,233.6L736.18,234.21L735.84,234.95L735.72,235.75L735.69,245.56L735.69,245.66L735.75,246.11L735.9,246.54L736.14,246.93L736.45,247.27L736.82,247.53L737.24,247.72L737.68,247.82L738.14,247.83L738.52,247.8L739.02,247.71L739.48,247.54L739.91,247.28L740.29,246.94L740.59,246.55L740.82,246.1L740.96,245.62L741,245.12L741.04,233.19L740.94,232.73L740.64,232.35L740.21,232.13L739.73,232.13L739.52,232.2L737.4,233.16Z" style="fill:rgb(110,110,110);fill-rule:nonzero;"/>
        <path d="M786.56,234.15L786.32,234.2L786.12,234.33L785.99,234.54L785.94,234.77L785.91,245.37L785.96,245.85L786.1,246.31L786.32,246.73L786.63,247.1L787,247.4L787.42,247.63L787.88,247.77L788.36,247.82L788.78,247.82L789.24,247.78L789.68,247.64L790.1,247.43L790.46,247.13L790.75,246.77L790.97,246.37L791.11,245.92L791.16,245.46L791.17,239.85L791.21,239.64L791.33,239.46L791.51,239.34L791.72,239.3L794.77,239.3L794.97,239.35L795.15,239.47L795.27,239.65L795.3,239.86L795.32,243.33L795.31,244.41L795.24,245.41L795.09,246.32L794.88,247.16L794.59,247.92L794.23,248.6L793.8,249.2L793.3,249.73L792.72,250.17L792.08,250.53L791.36,250.81L790.58,251.01L789.72,251.14L788.79,251.18L787.79,251.14L786.72,251.03L785.87,250.86L785.12,250.6L784.44,250.25L783.86,249.82L783.34,249.29L782.91,248.68L782.56,248L782.27,247.19L782.05,246.31L781.9,245.31L781.82,244.18L781.79,242.91L781.81,227.41L781.79,225.86L781.79,222.18L781.89,220.88L782.07,219.75L782.33,218.74L782.68,217.88L783.13,217.14L783.69,216.49L784.13,216.13L784.62,215.8L785.15,215.54L785.74,215.32L786.39,215.15L787.11,215.03L788.69,214.93L790.16,215.02L791.41,215.28L791.98,215.48L792.48,215.73L792.94,216.02L793.35,216.35L793.85,216.89L794.27,217.52L794.62,218.25L794.89,219.06L795.1,219.98L795.24,221.03L795.33,222.24L795.35,223.63L795.33,233.54L795.28,233.78L795.14,233.99L794.94,234.12L794.7,234.17L786.56,234.15ZM786.21,230.36L790.89,230.36L791.1,230.27L791.19,230.06L791.19,221.42L791.15,220.83L791.02,220.26L790.82,219.73L790.55,219.27L790.22,218.89L789.84,218.61L789.43,218.44L789,218.38L788.1,218.38L787.67,218.44L787.26,218.61L786.88,218.89L786.55,219.27L786.28,219.73L786.08,220.26L785.95,220.83L785.91,221.42L785.91,230.06L786,230.27L786.21,230.36Z" style="fill:rgb(110,110,110);fill-rule:nonzero;"/>
        <path d="M813.7,240.29L813.76,239.97L813.94,239.7L814.21,239.52L814.53,239.45L816.91,239.45L817.3,239.53L817.62,239.75L817.84,240.08L817.92,240.47L817.92,246.25L817.95,246.57L818.04,246.87L818.2,247.16L818.4,247.4L818.65,247.61L818.93,247.76L819.24,247.85L819.56,247.88L820.15,247.88L820.61,247.8L821.02,247.56L821.31,247.19L821.46,246.75L821.66,244.97L821.76,243.32L821.76,241.82L821.64,240.46L821.42,239.24L821.1,238.16L820.67,237.22L820.13,236.42L818.14,233.8L814.82,229.22L814.44,228.56L814.19,227.83L813.81,225.88L813.6,223.98L813.56,222.23L813.71,220.63L814.03,219.22L814.52,218.01L814.82,217.48L815.17,216.99L815.56,216.57L815.98,216.19L816.45,215.86L816.95,215.58L818.06,215.19L819.35,214.98L820.77,214.98L821.89,215.12L822.82,215.38L823.63,215.77L824.27,216.27L824.63,216.68L824.93,217.15L825.19,217.7L825.39,218.29L825.67,219.73L825.81,221.72L825.85,223.7L825.8,224.64L825.63,225.15L825.34,225.59L824.93,225.93L824.44,226.14L823.91,226.21L823.39,226.14L822.9,225.92L822.5,225.57L822.16,225.04L822.02,224.42L821.74,219.78L821.6,219.22L821.25,218.75L820.76,218.44L820.19,218.33L819.53,218.33L818.98,218.43L818.5,218.73L818.16,219.18L818.01,219.72L817.87,222.33L817.94,224.44L818.05,225.31L818.21,226.07L818.43,226.69L818.7,227.2L821.31,230.99L824.67,235.6L825.07,236.23L825.38,236.92L825.58,237.64L825.67,238.39L825.78,240.13L825.92,242.25L825.95,243.8L825.89,245.18L825.72,246.4L825.45,247.48L825.06,248.42L824.55,249.23L823.93,249.9L823.3,250.35L822.57,250.72L821.76,250.99L820.83,251.15L819.33,251.22L818,251.08L817.4,250.93L816.83,250.72L816.31,250.45L815.83,250.13L815.24,249.61L814.73,248.98L814.3,248.25L813.94,247.42L813.84,247.04L813.81,246.66L813.7,240.29Z" style="fill:rgb(110,110,110);fill-rule:nonzero;"/>
        <path d="M364.25,242.54L364.23,242.8L364.27,243.06L364.38,243.33L364.35,243.72L364.45,243.92L364.65,243.94L364.72,243.94L364.8,243.87L368.02,215.55L368.1,215.4L368.25,215.34L371.67,215.34L371.8,215.41L371.84,215.55L367.74,250.18L367.66,250.44L367.49,250.65L367.26,250.79L367,250.84L362.12,250.84L361.89,250.8L361.7,250.68L361.56,250.5L361.49,250.28L357.37,215.55L357.41,215.41L357.54,215.34L360.93,215.34L361.07,215.39L361.14,215.53L364.25,242.54Z" style="fill:rgb(110,110,110);fill-rule:nonzero;"/>
        <path d="M381.29,250.46C381.29,250.674 381.114,250.85 380.9,250.85L377.58,250.85C377.366,250.85 377.19,250.674 377.19,250.46L377.19,215.72C377.19,215.506 377.366,215.33 377.58,215.33L380.9,215.33C381.114,215.33 381.29,215.506 381.29,215.72L381.29,250.46Z" style="fill:rgb(110,110,110);fill-rule:nonzero;"/>
        <path d="M566.63,250.45C566.63,250.658 566.458,250.83 566.25,250.83L562.93,250.83C562.722,250.83 562.55,250.658 562.55,250.45L562.55,215.71C562.55,215.502 562.722,215.33 562.93,215.33L566.25,215.33C566.458,215.33 566.63,215.502 566.63,215.71L566.63,250.45Z" style="fill:rgb(110,110,110);fill-rule:nonzero;"/>
        <path d="M125.52,35.47L124.55,37.09L100.83,47.93L100.49,48.02L100.14,47.99L99.76,47.89L100.09,47.63L100.33,47.34L100.42,46.96L100.42,35.63L100.37,35.27L100.22,34.95L99.99,34.68L99.69,34.48L68.48,20.26L67.81,20.02L67.12,19.9L66.55,19.89L65.97,19.97L65.84,19.61L65.8,19.35L65.85,19.08L65.99,18.86L66.21,18.71L100.06,3.25L100.49,3.16L100.93,3.25L135.14,18.89L135.26,18.98L135.34,19.11L135.36,19.27L135.32,19.41L135.31,19.43L125.52,35.47Z" style="fill:rgb(61,172,218);fill-rule:nonzero;"/>
        <path d="M1.46,69.78L3.2,71.04L4.87,72.1L6.6,73.06L8.41,73.92L10.28,74.69L12.17,75.42L14.62,76.45L17.04,77.55L32.54,84.78L48.13,91.79L50.41,92.8L99.48,115.32L100.07,115.65L100.6,115.81L100.43,123.48L100.35,132.34L100.38,142.42L100.5,155.78L100.6,168.41L100.65,199.34L100.77,201.21L101.11,203.87L101.34,206.04L101.43,208.43L79.78,199.05L79.27,198.73L78.89,198.27L0.93,70.68L0.87,70.51L0.89,70.34L1.03,70.06L1.23,69.87L1.46,69.78Z" style="fill:rgb(172,7,37);fill-rule:nonzero;"/>
        <path d="M99.48,115.32L50.41,92.8L28.74,57.24L20.36,43.48L21.55,43.48L22.68,43.7L23.64,44.07L31.56,47.78L44.86,53.75L49.11,55.65L67.91,64.22L88.91,73.89L90.6,74.65L92.75,75.61L94.27,76.37L95.59,77.12L96.74,77.9L97.74,78.73L98.6,79.61L99.3,80.53L99.86,81.51L100.23,82.39L100.5,83.35L100.67,84.35L100.75,85.42L100.9,106.1L100.82,108.09L100.55,110.29L100.11,112.7L99.48,115.32Z" style="fill:rgb(89,165,150);fill-rule:nonzero;"/>
        <path d="M160.58,52.3L158.58,53.37L158.47,53.3L158.38,53.15L158.37,52.98L158.44,52.82L158.58,52.71L159.84,52.16L160.49,51.98L160.64,52.07L160.64,52.24L160.58,52.3Z" style="fill:rgb(89,165,150);fill-rule:nonzero;"/>
        <path d="M147.23,58.19L147.06,58.37L146.49,58.71L144.11,59.9L140.09,61.77L134.44,64.31L134.19,64.34L134.13,64.3L134.09,64.25L134.07,64.18L134.08,64.11L134.27,63.94L139.87,61.29L143.9,59.45L146.35,58.42L146.99,58.2L147.23,58.19Z" style="fill:rgb(89,165,150);fill-rule:nonzero;"/>
        <path d="M28.74,57.24L50.41,92.8L48.13,91.79L32.54,84.78L17.04,77.55L14.62,76.45L12.17,75.42L10.28,74.69L8.41,73.92L6.6,73.06L4.87,72.1L3.2,71.04L1.46,69.78L28.74,57.24Z" style="fill:rgb(122,5,26);fill-rule:nonzero;"/>
        <path d="M172.22,57.19L199.97,69.94L200.13,70.06L200.22,70.23L200.24,70.42L200.18,70.6L200.16,70.64L199.58,71.44L199.45,71.26L199.3,71.13L199.09,71.05L198.84,71.04L198.22,71.23L152.56,92.09L151.68,92.37L150.69,92.44L172.22,57.19Z" style="fill:rgb(122,5,26);fill-rule:nonzero;"/>
        <path d="M551.24,174.79L551.18,175.23L551.22,175.65L551.24,175.74L551.14,175.49L551.13,175.16L551.24,174.79Z" style="fill:rgb(122,5,26);fill-rule:nonzero;"/>
        <path d="M364.38,243.33L364.27,243.06L364.23,242.8L364.25,242.54L364.37,242.77L364.43,243L364.38,243.33Z" style="fill:rgb(122,5,26);fill-rule:nonzero;"/>
        <path d="M364.65,243.94L364.45,243.92L364.35,243.72L364.38,243.33L364.59,243.47L364.67,243.67L364.65,243.94Z" style="fill:rgb(122,5,26);fill-rule:nonzero;"/>
        <path d="M301.12,249.47L301.1,248.04L301.12,249.47Z" style="fill:rgb(122,5,26);fill-rule:nonzero;"/>
        <path d="M99.76,47.89L75.8,36.97L75.98,36.7L75.99,36.5L75.93,36.28L75.57,35.76L65.97,19.97L66.55,19.89L67.12,19.9L67.81,20.02L68.48,20.26L99.69,34.48L99.99,34.68L100.22,34.95L100.37,35.27L100.42,35.63L100.42,46.96L100.33,47.34L100.09,47.63L99.76,47.89Z" style="fill:rgb(47,133,169);fill-rule:nonzero;"/>
    </g>
</svg>
