<?xml version="1.0" encoding="UTF-8" standalone="no"?>
<!DOCTYPE svg PUBLIC "-//W3C//DTD SVG 1.1//EN" "http://www.w3.org/Graphics/SVG/1.1/DTD/svg11.dtd">
<svg width="100%" height="100%" viewBox="0 0 378 209" version="1.1" xmlns="http://www.w3.org/2000/svg" xmlns:xlink="http://www.w3.org/1999/xlink" xml:space="preserve" xmlns:serif="http://www.serif.com/" style="fill-rule:evenodd;clip-rule:evenodd;stroke-linejoin:round;stroke-miterlimit:2;">
    <g transform="matrix(1,0,0,1,-198.05,-123.83)">
        <path d="M299.94,156.43L322.29,173.29L322.46,173.7L322.25,173.99L321.99,174.15L321.74,174.2L301.52,174.29L274.75,174.23L274.47,174.17L274.28,174.05L270.71,166.18L274.18,166.34L305.9,168.34L306,168.32L306.07,168.16L305.97,168.03L281.02,158.29L270.52,154.22L264.45,151.81L264.09,151.54L263.67,151.01L257.05,136.57L253.74,129.26L253.4,128.36L253.18,127.47L253.09,126.6L253.14,125.75L253.15,125.66L253.25,125.26L253.41,124.89L253.65,124.56L253.94,124.28L254.28,124.06L254.66,123.91L255.06,123.83L255.46,123.83L256.13,123.96L256.85,124.23L257.59,124.63L258.38,125.16L279.08,140.64L299.94,156.43Z" style="fill:rgb(0,30,85);fill-rule:nonzero;"/>
        <path d="M372.58,171.48L373.969,171.517L375.353,171.624L376.731,171.8L378.099,172.045L379.453,172.357L380.79,172.738L382.108,173.185L383.403,173.697L384.671,174.274L385.91,174.913L387.117,175.614L388.289,176.375L389.423,177.193L390.516,178.067L391.566,178.994L392.57,179.974L393.525,181.002L394.43,182.077L395.283,183.196L396.08,184.356L396.821,185.555L397.503,186.79L398.125,188.057L398.686,189.354L399.183,190.677L399.616,192.024L399.984,193.391L400.286,194.774L400.521,196.171L400.689,197.578L400.788,198.992L400.82,200.409L400.783,201.826L400.679,203.24L400.506,204.646L400.267,206.043L399.96,207.425L399.587,208.791L399.149,210.136L398.647,211.458L398.082,212.752L397.456,214.018L396.769,215.25L396.024,216.446L395.223,217.603L394.366,218.719L393.458,219.791L392.498,220.816L391.491,221.792L390.438,222.716L389.342,223.586L388.205,224.4L387.031,225.157L385.821,225.853L384.58,226.488L383.31,227.061L382.013,227.568L380.694,228.011L379.355,228.387L378,228.695L376.631,228.935L375.253,229.106L373.868,229.208L372.48,229.24L371.092,229.203L369.707,229.096L368.329,228.92L366.962,228.675L365.607,228.363L364.27,227.982L362.952,227.535L361.657,227.023L360.389,226.446L359.15,225.807L357.943,225.106L356.771,224.345L355.637,223.527L354.544,222.653L353.494,221.726L352.49,220.746L351.535,219.718L350.63,218.643L349.777,217.524L348.98,216.364L348.239,215.165L347.557,213.93L346.935,212.663L346.374,211.366L345.877,210.043L345.444,208.696L345.076,207.329L344.774,205.946L344.539,204.549L344.371,203.142L344.272,201.728L344.24,200.311L344.277,198.894L344.381,197.48L344.554,196.074L344.794,194.677L345.1,193.295L345.473,191.929L345.911,190.584L346.413,189.262L346.978,187.968L347.604,186.702L348.291,185.47L349.036,184.274L349.837,183.117L350.693,182.001L351.602,180.929L352.562,179.904L353.569,178.928L354.622,178.004L355.718,177.134L356.855,176.32L358.029,175.564L359.239,174.867L360.48,174.232L361.751,173.66L363.047,173.152L364.366,172.709L365.705,172.333L367.06,172.025L368.429,171.785L369.807,171.614L371.192,171.512L372.58,171.48ZM372.427,182.35L370.876,182.442L369.34,182.707L367.835,183.142L366.374,183.742L364.972,184.503L363.643,185.416L362.399,186.473L361.252,187.664L360.213,188.977L359.293,190.4L358.5,191.919L357.841,193.519L357.324,195.185L356.952,196.901L356.73,198.65L356.66,200.415L356.743,202.18L356.977,203.928L357.36,205.641L357.889,207.303L358.559,208.899L359.363,210.412L360.293,211.828L361.341,213.134L362.496,214.317L363.748,215.365L365.083,216.269L366.49,217.02L367.955,217.61L369.463,218.035L371.001,218.289L372.553,218.37L374.104,218.278L375.64,218.013L377.145,217.578L378.606,216.978L380.008,216.217L381.337,215.304L382.581,214.247L383.728,213.056L384.767,211.743L385.687,210.32L386.48,208.801L387.139,207.201L387.657,205.535L388.028,203.819L388.25,202.07L388.32,200.305L388.238,198.54L388.003,196.792L387.62,195.079L387.091,193.417L386.421,191.821L385.617,190.308L384.687,188.892L383.639,187.586L382.484,186.403L381.232,185.355L379.897,184.451L378.49,183.7L377.025,183.11L375.517,182.685L373.979,182.431L372.427,182.35Z" style="fill:rgb(0,30,85);fill-rule:nonzero;"/>
        <path d="M423.92,227.82L412.86,227.82L412.6,227.71L412.49,227.44L412.47,180.69L412.49,179.62L412.58,178.64L412.71,177.77L412.91,176.98L413.16,176.26L413.48,175.62L413.86,175.05L414.3,174.55L414.77,174.15L415.29,173.81L415.87,173.52L416.51,173.29L417.23,173.11L418.01,172.98L419.78,172.87L430.74,172.86L442.34,172.93L443.56,173.03L444.67,173.32L445.62,173.77L446.45,174.4L447.13,175.22L447.41,175.7L447.64,176.21L447.95,177.34L448.06,178.53L447.97,179.82L447.67,181.1L447.18,182.34L446.5,183.5L446.31,183.71L446.08,183.86L445.82,183.96L445.54,183.99L425.12,183.99L424.89,184.04L424.7,184.17L424.57,184.36L424.52,184.59L424.55,194.49L424.59,194.67L424.69,194.82L424.85,194.92L425.03,194.94L425.06,194.94L439.71,194.93L441.2,195.04L441.88,195.19L442.51,195.38L443.09,195.64L443.61,195.94L444.1,196.3L444.52,196.71L445.13,197.56L445.55,198.52L445.79,199.61L445.84,200.77L445.7,202.01L445.38,203.27L444.87,204.51L444.2,205.7L444.04,205.89L443.83,206.04L443.6,206.13L443.35,206.16L425.09,206.16L424.88,206.2L424.7,206.32L424.58,206.5L424.54,206.71L424.54,227.2L424.49,227.44L424.36,227.64L424.16,227.77L423.92,227.82Z" style="fill:rgb(0,30,85);fill-rule:nonzero;"/>
        <path d="M575.82,178.41C575.82,181.581 573.211,184.19 570.04,184.19C566.869,184.19 564.26,181.581 564.26,178.41C564.26,175.239 566.869,172.63 570.04,172.63C573.211,172.63 575.82,175.239 575.82,178.41ZM569.872,173.123L568.877,173.257L567.927,173.591L567.057,174.112L566.303,174.8L565.692,175.628L565.248,176.566L564.988,177.577L564.923,178.621L565.054,179.659L565.376,180.651L565.878,181.559L566.54,182.348L567.336,182.987L568.237,183.453L569.206,183.726L570.208,183.797L571.203,183.663L572.153,183.33L573.023,182.809L573.777,182.12L574.388,181.292L574.832,180.354L575.092,179.344L575.158,178.299L575.026,177.261L574.704,176.269L574.202,175.361L573.54,174.572L572.744,173.933L571.843,173.467L570.874,173.194L569.872,173.123Z" style="fill:rgb(0,30,85);fill-rule:nonzero;"/>
        <path d="M471.99,194.19L488.58,194.16L490.5,194.17L492.08,194.33L493.33,194.62L493.83,194.82L494.24,195.06L494.73,195.44L495.15,195.86L495.76,196.71L496.2,197.72L496.45,198.82L496.51,200.03L496.39,201.29L496.06,202.59L495.57,203.82L494.93,204.92L494.76,205.11L494.55,205.25L494.31,205.34L494.06,205.37L472.29,205.37L472.06,205.42L471.86,205.55L471.73,205.75L471.68,205.98L471.68,216.17L471.72,216.39L471.85,216.58L472.04,216.71L472.26,216.75L496.93,216.75L497.11,216.8L497.21,216.92L497.25,217.07L497.25,227.51L497.16,227.73L496.94,227.82L460.06,227.82L459.9,227.79L459.76,227.7L459.67,227.56L459.64,227.4L459.63,193.08L459.68,178.9L459.79,177.7L460.05,176.64L460.46,175.71L461.02,174.92L461.43,174.51L461.89,174.16L462.4,173.85L462.97,173.59L463.59,173.38L464.26,173.21L465.77,173.02L473.21,172.94L491.25,172.95L492.1,172.98L492.88,173.08L493.62,173.24L494.3,173.46L494.92,173.75L495.47,174.09L495.97,174.5L496.41,174.95L496.95,175.78L497.32,176.7L497.53,177.74L497.56,178.84L497.42,180L497.1,181.19L496.63,182.39L495.99,183.56L495.66,183.88L495.21,184L472,184L471.77,184.09L471.68,184.31L471.68,193.88L471.69,193.96L471.8,194.13L471.99,194.19Z" style="fill:rgb(0,30,85);fill-rule:nonzero;"/>
        <path d="M531.23,212.76L531.33,212.92L531.53,213.04L531.76,213.05L531.97,212.95L532.1,212.76L538.83,195.32L544.68,179.78L545.62,177.5L546.08,176.61L546.55,175.85L547.03,175.19L547.57,174.61L548.13,174.13L548.75,173.72L549.51,173.37L550.36,173.13L551.26,173L552.27,172.97L553.81,173.13L555.43,173.53L557.12,174.18L558.89,175.07L559.05,175.2L559.15,175.38L559.19,175.58L559.15,175.78L554.14,188.71L548.93,201.59L543.51,214.43L537.89,227.22L537.74,227.47L537.52,227.66L537.26,227.78L536.97,227.82L526.17,227.82L525.94,227.79L525.72,227.69L525.54,227.54L525.4,227.34L522.87,222.06L520.38,216.7L517.93,211.24L515.53,205.7L513.17,200.07L510.86,194.36L508.59,188.55L506.36,182.66L505.97,181.44L505.74,180.25L505.64,179.09L505.7,177.98L505.9,176.95L506.26,176.01L506.74,175.19L507.36,174.48L507.92,174.02L508.56,173.64L509.24,173.35L510,173.14L510.81,173.01L511.69,172.98L512.6,173.03L513.57,173.17L514.38,173.36L515.13,173.6L515.81,173.91L516.43,174.28L516.64,174.48L516.78,174.73L531.23,212.76Z" style="fill:rgb(0,30,85);fill-rule:nonzero;"/>
        <path d="M568.78,181.09L568.58,181.34L568.28,181.45L567.96,181.39L567.72,181.18L567.62,180.85L567.62,175.78L567.67,175.53L567.8,175.32L568.01,175.17L568.25,175.1L569.81,175.07L570.46,175.13L571.02,175.24L571.52,175.41L571.91,175.61L572.23,175.87L572.49,176.19L572.66,176.59L572.74,177.08L572.69,177.58L572.51,178.08L572.19,178.6L571.73,179.13L571.71,179.15L571.63,179.29L571.61,179.46L571.66,179.63L571.77,179.76L572.41,180.32L572.67,180.64L572.69,181L572.53,181.27L572.25,181.43L571.93,181.41L571.67,181.23L570.02,179.27L569.79,179.1L569.5,179.07L569.23,179.17L569.05,179.39L568.99,179.62L568.91,180.53L568.78,181.09ZM568.851,177.233L568.94,177.593L569.22,177.904L569.648,178.121L570.158,178.209L570.673,178.157L571.114,177.97L571.415,177.679L571.529,177.327L571.44,176.968L571.16,176.656L570.733,176.439L570.223,176.351L569.708,176.403L569.266,176.59L568.965,176.881L568.851,177.233Z" style="fill:rgb(0,30,85);fill-rule:nonzero;"/>
        <path d="M291.34,211.24L288.37,204.79L288.42,204.56L288.66,204.05L289.09,203.58L307.39,187.93L320.81,176.41L320.93,176.37L321.05,176.42L321.06,176.43L321.11,176.55L321.07,176.67L292.13,210.89L291.83,211.14L291.6,211.22L291.34,211.24Z" style="fill:rgb(0,30,85);fill-rule:nonzero;"/>
        <path d="M538.23,263.32L538.14,266.47L537.85,269.35L537.36,272.01L537.03,273.28L536.67,274.46L536.25,275.58L535.78,276.67L535.26,277.69L534.69,278.67L534.07,279.56L533.4,280.42L532.69,281.22L531.91,281.97L530.87,282.82L529.74,283.59L528.54,284.27L527.23,284.87L527.13,284.9L526.88,284.89L526.66,284.78L526.5,284.58L526.45,284.34L526.45,281.14L526.56,280.67L526.88,280.29L527.12,280.11L527.8,279.53L528.42,278.9L529,278.2L529.53,277.46L530.02,276.63L530.46,275.76L530.85,274.84L531.2,273.83L531.76,271.65L532.15,269.23L532.37,266.5L532.44,263.32L532.37,260.14L532.14,257.41L531.75,254.99L531.19,252.82L530.84,251.81L530.45,250.88L530.01,250.02L529.51,249.19L528.99,248.44L528.4,247.74L527.78,247.12L527.1,246.54L526.86,246.35L526.55,245.98L526.43,245.51L526.43,242.31L526.48,242.06L526.64,241.87L526.86,241.75L527.11,241.75L527.21,241.78L528.52,242.37L529.72,243.05L530.86,243.83L531.89,244.68L532.67,245.43L533.38,246.22L534.06,247.08L534.67,247.97L535.25,248.95L535.77,249.97L536.24,251.06L536.66,252.18L537.02,253.36L537.35,254.63L537.84,257.28L538.13,260.16L538.23,263.32Z" style="fill:rgb(0,30,85);fill-rule:nonzero;"/>
        <path d="M353.84,263.32L353.91,266.5L354.13,269.23L354.51,271.64L355.07,273.82L355.43,274.83L355.81,275.75L356.25,276.62L356.74,277.44L357.27,278.19L357.85,278.89L358.47,279.51L359.15,280.1L359.39,280.28L359.7,280.65L359.82,281.12L359.81,284.32L359.76,284.56L359.61,284.76L359.39,284.87L359.14,284.88L359.03,284.85L357.73,284.25L356.53,283.57L355.4,282.8L354.36,281.95L353.59,281.2L352.87,280.41L352.2,279.55L351.59,278.65L351.01,277.67L350.5,276.66L350.03,275.57L349.61,274.45L349.25,273.27L348.92,272L348.44,269.35L348.15,266.47L348.05,263.32L348.15,260.17L348.44,257.29L348.93,254.64L349.26,253.37L349.63,252.19L350.04,251.07L350.52,249.99L351.03,248.97L351.61,247.99L352.22,247.1L352.9,246.24L353.61,245.45L354.39,244.7L355.42,243.85L356.56,243.08L357.76,242.4L359.06,241.81L359.17,241.77L359.42,241.78L359.64,241.89L359.79,242.09L359.84,242.34L359.84,245.53L359.73,246L359.41,246.38L359.17,246.56L358.49,247.14L357.87,247.77L357.29,248.46L356.76,249.21L356.27,250.03L355.83,250.9L355.44,251.82L355.09,252.83L354.52,255.01L354.14,257.42L353.91,260.15L353.84,263.32Z" style="fill:rgb(0,30,85);fill-rule:nonzero;"/>
        <path d="M387.631,247.941C387.63,248.176 387.436,248.369 387.201,248.369C387.2,248.369 387.2,248.369 387.199,248.369L381.899,248.351C381.664,248.35 381.471,248.156 381.471,247.921C381.471,247.92 381.471,247.92 381.471,247.919L381.489,242.619C381.49,242.384 381.684,242.191 381.919,242.191C381.92,242.191 381.92,242.191 381.921,242.191L387.221,242.209C387.456,242.21 387.649,242.404 387.649,242.639C387.649,242.64 387.649,242.64 387.649,242.641L387.631,247.941Z" style="fill:rgb(0,30,85);fill-rule:nonzero;"/>
        <path d="M451.36,253.26L451.45,253.36L451.59,253.4L451.72,253.37L451.82,253.28L451.86,253.14L451.86,242.53L451.96,242.3L452.19,242.2L457.61,242.2L457.84,242.29L457.93,242.52L457.93,277.43L457.88,277.7L457.72,277.92L457.5,278.08L457.23,278.13L452.37,278.13L452.11,278.03L451.91,277.84L451.8,277.59L451.81,277.31L451.84,277.2L451.89,276.67L451.84,276.12L451.78,275.97L451.63,275.85L451.45,275.81L451.26,275.86L451.13,276L450.48,276.95L449.78,277.7L449.02,278.24L448.2,278.56L447.49,278.67L446.75,278.65L445.97,278.48L445.15,278.17L444.58,277.85L444.06,277.43L443.58,276.9L443.16,276.27L442.76,275.52L442.42,274.69L442.13,273.75L441.87,272.69L441.5,270.33L441.3,267.53L441.27,264.33L441.4,260.28L441.43,259.53L441.53,258.23L441.7,257L441.96,255.84L442.3,254.76L442.71,253.76L443.21,252.83L443.78,251.98L444.44,251.2L444.92,250.81L445.48,250.57L446.39,250.38L447.24,250.33L448.04,250.41L448.78,250.64L449.53,251.04L450.21,251.61L450.82,252.35L451.36,253.26ZM449.645,255.98L449.411,256.021L449.178,256.144L448.729,256.629L448.315,257.419L447.951,258.481L447.651,259.776L447.428,261.254L447.289,262.858L447.24,264.526L447.283,266.194L447.416,267.798L447.635,269.277L447.93,270.573L448.29,271.637L448.702,272.428L449.149,272.915L449.381,273.038L449.615,273.08L449.849,273.039L450.082,272.917L450.531,272.431L450.945,271.641L451.309,270.579L451.609,269.284L451.832,267.806L451.971,266.202L452.02,264.534L451.977,262.866L451.844,261.262L451.626,259.783L451.33,258.487L450.97,257.423L450.558,256.632L450.111,256.145L449.879,256.022L449.645,255.98Z" style="fill:rgb(0,30,85);fill-rule:nonzero;"/>
        <path d="M506.035,247.955C506.035,248.175 505.854,248.355 505.635,248.355C505.635,248.355 505.635,248.355 505.635,248.355L500.295,248.345C500.075,248.345 499.895,248.164 499.895,247.945C499.895,247.945 499.895,247.945 499.895,247.945L499.905,242.605C499.905,242.385 500.086,242.205 500.305,242.205C500.305,242.205 500.305,242.205 500.305,242.205L505.645,242.215C505.865,242.215 506.045,242.396 506.045,242.615C506.045,242.615 506.045,242.615 506.045,242.615L506.035,247.955Z" style="fill:rgb(0,30,85);fill-rule:nonzero;"/>
        <path d="M516.5,253.36L517.05,252.45L517.66,251.71L518.34,251.14L519.08,250.73L519.82,250.51L520.62,250.43L521.47,250.48L522.38,250.67L522.94,250.91L523.42,251.3L524.07,252.07L524.65,252.93L525.14,253.85L525.56,254.86L525.9,255.94L526.15,257.09L526.33,258.32L526.43,259.62L526.46,260.37L526.59,264.42L526.55,267.62L526.35,270.42L525.98,272.78L525.73,273.84L525.44,274.77L525.1,275.6L524.7,276.36L524.28,276.98L523.8,277.51L523.28,277.93L522.71,278.25L521.89,278.56L521.11,278.72L520.37,278.75L519.66,278.64L518.85,278.31L518.09,277.78L517.38,277.03L516.73,276.08L516.6,275.94L516.42,275.89L516.23,275.93L516.09,276.05L516.03,276.2L515.98,276.75L516.03,277.28L516.06,277.39L516.06,277.67L515.96,277.92L515.76,278.11L515.49,278.2L515.42,278.21L510.64,278.21L510.37,278.16L510.14,278L509.99,277.78L509.94,277.51L509.94,242.62L510.03,242.4L510.26,242.3L515.67,242.3L515.83,242.34L515.96,242.47L516,242.63L516,253.24L516.04,253.37L516.14,253.47L516.28,253.5L516.41,253.46L516.5,253.36ZM518.23,256L517.996,256.041L517.764,256.164L517.315,256.649L516.902,257.436L516.54,258.496L516.243,259.786L516.022,261.26L515.886,262.858L515.84,264.52L515.886,266.182L516.022,267.781L516.243,269.253L516.54,270.545L516.902,271.604L517.315,272.392L517.764,272.876L517.996,272.999L518.23,273.04L518.464,272.999L518.696,272.876L519.145,272.392L519.558,271.604L519.92,270.545L520.217,269.253L520.438,267.781L520.574,266.182L520.62,264.52L520.574,262.858L520.438,261.26L520.217,259.786L519.92,258.496L519.558,257.436L519.145,256.649L518.696,256.164L518.464,256.041L518.23,256Z" style="fill:rgb(0,30,85);fill-rule:nonzero;"/>
        <path d="M417.8,256.44L417.74,262.71L417.82,271.76L417.92,272.37L418.18,272.8L418.53,273.03L418.99,273.14L419.56,273.14L420.25,273.02L420.47,273.02L420.67,273.1L420.82,273.26L420.89,273.46L420.89,277.16L420.85,277.43L420.72,277.68L420.53,277.87L420.28,277.99L419.41,278.23L418.07,278.46L416.7,278.51L415.49,278.41L414.49,278.18L413.65,277.79L412.99,277.28L412.6,276.82L412.29,276.29L412.05,275.69L411.87,274.97L411.75,274.18L411.68,273.28L411.66,270.67L411.67,269.44L411.72,256.53L411.72,256.51L411.66,256.24L411.5,256.01L411.26,255.86L410.98,255.82L410.84,255.83L410.55,255.73L410.31,255.53L410.16,255.27L410.11,254.97L410.12,251.68L410.17,251.4L410.29,251.15L410.49,250.95L410.73,250.81L411.07,250.76L411.31,250.71L411.52,250.57L411.65,250.36L411.7,250.12L411.7,244.16L411.76,243.97L411.88,243.87L412.02,243.84L417.44,243.84L417.61,243.89L417.71,244L417.75,244.15L417.75,250.26L417.79,250.47L417.91,250.64L418.09,250.76L418.3,250.8L420.37,250.8L420.59,250.84L420.77,250.97L420.9,251.15L420.94,251.37L420.94,255.18L420.89,255.42L420.76,255.62L420.55,255.75L420.31,255.8L418.46,255.8L418.21,255.85L418,255.99L417.86,256.19L417.8,256.44Z" style="fill:rgb(0,30,85);fill-rule:nonzero;"/>
        <path d="M367.63,252.95L367.66,253.08L367.75,253.2L367.9,253.25L368.05,253.23L368.17,253.14L368.84,252.16L369.2,251.69L369.6,251.29L370.23,250.87L370.97,250.55L371.78,250.38L372.61,250.35L373.48,250.46L374.32,250.71L375.08,251.08L375.73,251.57L376.19,252.06L376.6,252.6L376.94,253.22L377.22,253.9L377.44,254.65L377.6,255.46L377.7,256.34L377.74,257.29L377.79,266.84L377.75,277.74L377.72,277.91L377.62,278.05L377.47,278.15L377.29,278.18L372.14,278.18L371.97,278.15L371.83,278.06L371.74,277.92L371.71,277.75L371.68,257.88L371.68,257.85L371.64,257.48L371.53,257.12L371.34,256.79L371.1,256.51L370.81,256.28L370.47,256.11L370.11,256.01L369.74,255.98L369.66,255.98L369.28,256.01L368.91,256.12L368.58,256.3L368.28,256.54L368.04,256.84L367.86,257.17L367.75,257.54L367.72,257.92L367.67,277.79L367.6,278.01L367.46,278.14L367.28,278.18L361.97,278.18L361.71,278.07L361.6,277.81L361.61,251.39L361.66,251.17L361.78,250.98L361.97,250.85L362.19,250.81L367.09,250.81L367.23,250.83L367.52,251.02L367.63,251.35L367.63,252.95Z" style="fill:rgb(0,30,85);fill-rule:nonzero;"/>
        <path d="M397.94,253.12L398.61,252.14L398.97,251.67L399.37,251.27L400,250.84L400.75,250.53L401.56,250.36L402.38,250.33L403.26,250.44L404.09,250.69L404.86,251.06L405.51,251.55L405.97,252.03L406.37,252.58L406.72,253.2L407,253.88L407.22,254.63L407.38,255.44L407.48,256.32L407.52,257.27L407.57,266.83L407.54,277.73L407.5,277.9L407.41,278.05L407.26,278.15L407.08,278.18L401.92,278.18L401.76,278.15L401.62,278.05L401.52,277.91L401.49,277.75L401.46,257.86L401.46,257.84L401.42,257.46L401.3,257.1L401.12,256.78L400.88,256.49L400.58,256.26L400.25,256.09L399.88,255.99L399.51,255.96L399.43,255.96L399.08,255.99L398.75,256.08L398.43,256.24L398.15,256.44L397.91,256.69L397.72,256.98L397.58,257.3L397.51,257.64L397.49,257.9L397.45,277.79L397.34,278.07L397.06,278.18L391.75,278.18L391.49,278.07L391.38,277.81L391.38,251.37L391.42,251.15L391.55,250.96L391.74,250.83L391.96,250.79L396.86,250.79L397.07,250.83L397.24,250.95L397.36,251.12L397.4,251.33L397.4,252.93L397.43,253.06L397.53,253.18L397.67,253.23L397.82,253.21L397.94,253.12Z" style="fill:rgb(0,30,85);fill-rule:nonzero;"/>
        <path d="M486.16,252.97L486.19,253.1L486.29,253.22L486.43,253.27L486.58,253.25L486.7,253.16L487.37,252.18L487.73,251.71L488.13,251.32L488.76,250.89L489.5,250.57L490.31,250.4L491.14,250.37L492.01,250.48L492.85,250.73L493.61,251.1L494.26,251.59L494.72,252.07L495.12,252.62L495.47,253.24L495.75,253.92L495.97,254.67L496.13,255.48L496.23,256.36L496.27,257.3L496.32,266.86L496.29,277.75L496.26,277.92L496.16,278.06L496.01,278.16L495.84,278.2L490.68,278.2L490.44,278.13L490.3,277.97L490.25,277.77L490.22,257.9L490.22,257.87L490.17,257.5L490.06,257.14L489.88,256.81L489.63,256.53L489.34,256.3L489,256.13L488.64,256.03L488.27,256L488.19,256L487.81,256.04L487.44,256.15L487.11,256.33L486.81,256.57L486.57,256.86L486.4,257.2L486.29,257.56L486.25,257.94L486.21,277.81L486.1,278.08L485.82,278.2L480.52,278.2L480.26,278.09L480.15,277.83L480.14,251.41L480.18,251.21L480.28,251.03L480.48,250.89L480.72,250.83L485.62,250.83L485.82,250.87L486.07,251.07L486.16,251.37L486.16,252.97Z" style="fill:rgb(0,30,85);fill-rule:nonzero;"/>
        <path d="M436.85,271.55L437.06,271.43L437.4,271.39L437.71,271.52L437.93,271.77L438.01,272.1L438.01,276.02L437.95,276.43L437.78,276.82L437.52,277.14L437.17,277.37L436.05,277.86L434.95,278.23L433.86,278.49L432.8,278.63L431.75,278.65L430.75,278.55L429.79,278.34L428.88,278.01L427.92,277.52L427.03,276.89L426.21,276.14L425.47,275.26L424.82,274.26L424.25,273.15L423.78,271.96L423.41,270.66L423.14,269.37L422.92,267.98L422.77,266.54L422.68,265.1L422.67,263.66L422.73,262.28L422.86,260.91L423.05,259.61L423.31,258.39L423.62,257.27L423.99,256.22L424.44,255.21L424.92,254.32L425.48,253.49L426.08,252.75L426.75,252.09L427.63,251.43L428.59,250.94L429.39,250.66L430.21,250.5L431.04,250.44L431.87,250.49L432.68,250.65L433.46,250.91L434.19,251.26L434.86,251.71L435.5,252.26L436.06,252.92L436.82,254.1L437.47,255.45L438,256.98L438.41,258.66L438.7,260.51L438.87,262.5L438.91,264.6L438.83,266.85L438.78,267.03L438.67,267.18L438.51,267.28L438.33,267.32L429.36,267.32L429.16,267.37L428.99,267.51L428.88,267.7L428.86,267.91L429.01,268.85L429.24,269.71L429.56,270.51L429.95,271.23L430.41,271.83L430.93,272.32L431.5,272.7L432.14,272.97L432.68,273.09L433.25,273.12L433.82,273.07L434.41,272.93L435.01,272.71L435.63,272.4L436.23,272.02L436.85,271.55ZM429.37,262.61L432.53,262.65L432.75,262.61L432.95,262.48L433.08,262.29L433.13,262.07L433.13,261.56L433.11,260.45L433,259.38L432.83,258.4L432.59,257.53L432.29,256.82L431.94,256.29L431.57,255.97L431.17,255.85L430.89,255.85L430.49,255.95L430.11,256.27L429.75,256.79L429.44,257.49L429.17,258.35L428.97,259.33L428.84,260.4L428.79,261.5L428.79,262.01L428.83,262.24L428.95,262.43L429.14,262.56L429.37,262.61Z" style="fill:rgb(0,30,85);fill-rule:nonzero;"/>
        <path d="M470.53,276.37L470.5,276.25L470.42,276.17L470.3,276.13L470.18,276.15L470.1,276.22L469.29,277.16L468.44,277.87L467.56,278.36L466.64,278.61L465.76,278.64L464.85,278.48L464.12,278.2L463.62,277.9L463.16,277.54L462.73,277.1L462.35,276.61L461.99,276.02L461.69,275.38L461.2,273.9L460.88,272.11L460.77,270.17L460.86,268.16L461.15,266.35L461.64,264.74L461.94,264.05L462.29,263.42L462.68,262.87L463.11,262.39L463.57,261.99L464.08,261.66L464.62,261.4L465.21,261.21L465.83,261.09L466.49,261.05L467.18,261.07L467.92,261.16L469.52,261.56L469.81,261.59L470.08,261.5L470.29,261.3L470.39,261.04L470.4,260.93L470.4,258.87L470.34,258.39L470.18,257.94L469.91,257.54L469.56,257.21L469.01,256.86L468.44,256.58L467.8,256.38L467.12,256.27L466.41,256.24L465.67,256.3L464.89,256.45L464.08,256.68L463.23,257L462.35,257.41L462.32,257.42L462.19,257.39L462.14,257.28L462.14,251.96L462.18,251.78L462.38,251.6L464.1,251.04L465.82,250.68L467.48,250.52L469.08,250.56L470.53,250.81L471.88,251.26L472.5,251.56L473.08,251.91L473.6,252.3L474.09,252.74L474.6,253.3L475.05,253.93L475.44,254.59L475.76,255.33L476.03,256.11L476.23,256.97L476.36,257.85L476.43,258.8L476.56,263.17L476.61,267.79L476.6,272.65L476.52,277.77L476.49,277.93L476.4,278.07L476.26,278.16L476.1,278.19L470.88,278.19L470.63,278.09L470.53,277.84L470.53,276.37ZM469.78,266L467.66,265.94L467.45,265.97L467.22,266.07L467.04,266.23L466.92,266.45L466.87,266.69L466.75,271.19L466.77,271.64L466.86,272.07L467.02,272.47L467.23,272.82L467.49,273.12L467.79,273.34L468.13,273.47L468.47,273.53L468.57,273.53L468.92,273.5L469.26,273.37L469.57,273.17L469.85,272.89L470.08,272.55L470.25,272.16L470.36,271.73L470.41,271.29L470.53,266.79L470.53,266.78L470.47,266.49L470.31,266.23L470.07,266.06L469.78,266Z" style="fill:rgb(0,30,85);fill-rule:nonzero;"/>
        <path d="M387.55,277.78C387.55,277.999 387.369,278.18 387.15,278.18L381.83,278.18C381.611,278.18 381.43,277.999 381.43,277.78L381.43,251.2C381.43,250.981 381.611,250.8 381.83,250.8L387.15,250.8C387.369,250.8 387.55,250.981 387.55,251.2L387.55,277.78Z" style="fill:rgb(0,30,85);fill-rule:nonzero;"/>
        <path d="M506,277.82C506,278.023 505.833,278.19 505.63,278.19L500.29,278.19C500.087,278.19 499.92,278.023 499.92,277.82L499.92,251.18C499.92,250.977 500.087,250.81 500.29,250.81L505.63,250.81C505.833,250.81 506,250.977 506,251.18L506,277.82Z" style="fill:rgb(0,30,85);fill-rule:nonzero;"/>
        <path d="M438.25,324.96C438.25,325.19 438.06,325.38 437.83,325.38L435.35,325.38C435.12,325.38 434.93,325.19 434.93,324.96L434.93,289.8C434.93,289.57 435.12,289.38 435.35,289.38L437.83,289.38C438.06,289.38 438.25,289.57 438.25,289.8L438.25,324.96Z" style="fill:rgb(0,30,85);fill-rule:nonzero;"/>
        <path d="M516.57,289.24L517.75,289.35L518.82,289.68L519.5,290.04L520.13,290.49L520.72,291.04L521.27,291.7L521.77,292.46L522.23,293.32L522.65,294.28L523.02,295.35L523.34,296.51L523.63,297.78L524.06,300.62L524.33,303.87L524.41,307.52L524.32,311.18L524.06,314.43L523.62,317.27L523.34,318.54L523.01,319.7L522.64,320.77L522.22,321.73L521.77,322.59L521.26,323.35L520.72,324L520.13,324.56L519.49,325.01L518.82,325.36L517.74,325.69L516.57,325.8L515.39,325.69L514.32,325.36L513.64,325.01L513.01,324.56L512.42,324L511.87,323.35L511.37,322.59L510.91,321.73L510.49,320.77L510.12,319.7L509.8,318.54L509.51,317.27L509.07,314.43L508.81,311.18L508.73,307.52L508.81,303.87L509.08,300.62L509.52,297.78L509.8,296.51L510.13,295.34L510.5,294.28L510.91,293.32L511.37,292.46L511.88,291.7L512.42,291.04L513.01,290.49L513.65,290.03L514.32,289.68L515.4,289.35L516.57,289.24ZM516.55,292.08L516.087,292.154L515.629,292.377L515.18,292.745L514.744,293.255L514.325,293.903L513.928,294.682L513.556,295.585L513.212,296.602L512.626,298.942L512.189,301.611L511.921,304.508L511.83,307.52L511.921,310.532L512.189,313.429L512.626,316.098L513.212,318.438L513.556,319.455L513.928,320.358L514.325,321.137L514.744,321.785L515.18,322.295L515.629,322.663L516.087,322.886L516.55,322.96L517.013,322.886L517.471,322.663L517.92,322.295L518.356,321.785L518.775,321.137L519.172,320.358L519.544,319.455L519.888,318.438L520.475,316.098L520.911,313.429L521.179,310.532L521.27,307.52L521.179,304.508L520.911,301.611L520.475,298.942L519.888,296.602L519.544,295.585L519.172,294.682L518.775,293.903L518.356,293.255L517.92,292.745L517.471,292.377L517.013,292.154L516.55,292.08Z" style="fill:rgb(0,30,85);fill-rule:nonzero;"/>
        <path d="M487.18,325.08L487.12,325.25L487.02,325.35L486.88,325.38L484.01,325.38L483.83,325.3L483.75,325.11L483.75,294.32L483.64,294.08L483.38,294L483.33,294.02L480.56,295.07L480.42,295.09L480.29,295.05L480.18,294.96L480.13,294.83L480.12,294.77L480.12,292.15L480.16,291.89L480.27,291.65L480.45,291.46L480.68,291.33L485.2,289.62L485.46,289.55L485.77,289.52L486.09,289.57L486.39,289.69L486.65,289.86L486.88,290.09L487.04,290.37L487.15,290.67L487.18,290.99L487.18,325.08Z" style="fill:rgb(0,30,85);fill-rule:nonzero;"/>
        <path d="M495.4,303.98L497.16,303.69L498.06,303.61L498.91,303.65L499.74,303.79L500.51,304.04L501.09,304.31L501.64,304.64L502.18,305.04L502.67,305.5L503.13,306.02L503.55,306.59L504.29,307.92L504.87,309.43L505.27,311.13L505.48,312.92L505.49,314.76L505.32,316.56L504.95,318.31L504.39,319.97L503.69,321.44L502.83,322.74L501.85,323.82L501.31,324.29L500.73,324.7L500.14,325.05L499.52,325.34L498.72,325.62L497.88,325.81L497.02,325.91L496.11,325.92L495.2,325.84L494.24,325.67L493.27,325.41L492.26,325.06L492.09,324.92L492.02,324.71L492.02,321.95L492.11,321.83L492.26,321.81L493.26,322.11L494.19,322.32L495.1,322.44L495.95,322.47L496.77,322.4L497.53,322.25L498.26,321.99L498.91,321.66L499.42,321.3L499.89,320.9L500.32,320.42L500.71,319.89L501.05,319.3L501.35,318.67L501.8,317.25L502.07,315.65L502.12,313.92L501.97,312.14L501.61,310.38L501.31,309.48L500.94,308.73L500.47,308.1L499.94,307.62L499.45,307.32L498.92,307.09L498.35,306.94L497.68,306.85L496.97,306.82L496.17,306.86L494.11,307.13L493.93,307.15L493.57,307.13L493.21,307.04L492.88,306.88L492.59,306.65L492.36,306.37L492.19,306.04L492.09,305.69L492.07,305.32L492.7,290.19L492.75,289.97L492.88,289.79L493.08,289.66L493.3,289.62L503.57,289.62L503.76,289.66L503.92,289.77L504.03,289.93L504.07,290.13L504.07,292.45L504.03,292.64L503.93,292.8L503.77,292.9L503.58,292.94L496.1,292.94L495.86,292.99L495.66,293.11L495.52,293.31L495.47,293.54L495.02,303.74L495.11,303.95L495.33,304.01L495.4,303.98Z" style="fill:rgb(0,30,85);fill-rule:nonzero;"/>
        <path d="M352.48,311.91L352.56,313.86L352.79,315.77L353.15,317.52L353.64,319.06L354.23,320.3L354.92,321.29L355.3,321.67L355.71,322L356.13,322.24L356.58,322.43L357.43,322.58L358.31,322.53L359.3,322.26L360.32,321.79L360.52,321.73L360.72,321.77L360.88,321.89L360.97,322.08L360.98,322.2L360.9,324.2L360.84,324.53L360.69,324.83L360.47,325.08L360.18,325.25L359.26,325.56L358.29,325.74L357.3,325.78L356.32,325.68L355.38,325.44L354.48,325.07L353.69,324.59L352.99,323.99L352.18,323.08L351.46,322.05L350.84,320.92L350.33,319.72L349.92,318.42L349.61,317L349.4,315.47L349.28,313.77L349.24,311.89L349.29,310.02L349.42,308.32L349.65,306.79L349.97,305.37L350.38,304.07L350.9,302.88L351.53,301.75L352.25,300.73L353.07,299.83L353.77,299.22L354.57,298.75L355.46,298.39L356.41,298.16L357.39,298.07L358.38,298.11L359.35,298.29L360.27,298.61L360.55,298.79L360.78,299.04L360.92,299.34L360.98,299.67L361.05,301.67L361.04,301.79L360.94,301.97L360.78,302.1L360.58,302.13L360.38,302.08L359.36,301.6L358.38,301.32L357.5,301.26L356.65,301.41L356.2,301.59L355.78,301.84L355.36,302.16L354.99,302.54L354.28,303.52L353.69,304.76L353.19,306.3L352.81,308.04L352.57,309.95L352.48,311.91Z" style="fill:rgb(0,30,85);fill-rule:nonzero;"/>
        <path d="M374.34,322.85L374.24,322.67L374.03,322.67L373.96,322.74L373.48,323.45L372.96,324.07L372.38,324.61L371.78,325.05L371.13,325.41L370.46,325.66L369.76,325.81L369.05,325.85L368.23,325.76L367.43,325.53L366.67,325.16L365.96,324.66L365.33,324.04L364.76,323.3L364.3,322.47L363.92,321.54L363.64,320.52L363.45,319.4L363.34,318.18L363.32,316.87L363.39,315.61L363.56,314.43L363.83,313.34L364.19,312.34L364.65,311.44L365.21,310.65L365.84,309.99L366.56,309.44L367.27,309.05L368.05,308.76L368.87,308.58L369.75,308.49L370.68,308.51L371.67,308.63L372.7,308.85L373.78,309.17L373.97,309.19L374.15,309.13L374.28,309L374.35,308.83L374.36,308.76L374.29,306.3L374.18,305.35L374.02,304.52L373.78,303.77L373.49,303.15L373.12,302.62L372.67,302.16L372.26,301.87L371.79,301.63L371.29,301.45L370.72,301.32L370.1,301.25L369.4,301.24L367.88,301.39L366.42,301.71L365.18,302.18L365.11,302.21L364.96,302.21L364.82,302.14L364.72,302.02L364.69,301.87L364.69,299.79L364.8,299.42L365.09,299.17L366.43,298.64L367.75,298.27L369.05,298.06L370.31,298.01L371.51,298.13L372.64,298.42L373.68,298.87L374.62,299.47L375.32,300.09L375.93,300.8L376.45,301.6L376.88,302.49L377.21,303.44L377.45,304.48L377.59,305.58L377.64,306.76L377.64,324.64L377.58,324.93L377.42,325.17L377.18,325.33L376.89,325.39L374.9,325.39L374.69,325.35L374.5,325.23L374.38,325.05L374.34,324.84L374.34,322.85ZM373.75,311.93L373.02,311.66L372.32,311.46L371.65,311.33L371.01,311.28L370.4,311.29L369.84,311.38L369.3,311.55L368.8,311.78L368.35,312.08L367.94,312.44L367.56,312.87L367.24,313.36L366.96,313.9L366.74,314.49L366.56,315.14L366.44,315.81L366.37,316.54L366.37,317.29L366.53,318.78L366.91,320.23L367.49,321.5L367.77,321.91L368.12,322.28L368.53,322.57L368.98,322.8L369.46,322.94L369.96,323L370.47,322.98L370.96,322.87L371.81,322.52L372.55,322.01L373.1,321.43L373.56,320.7L373.91,319.86L374.16,318.89L374.32,317.79L374.39,316.54L374.38,315.11L374.29,313.13L374.26,312.65L374.21,312.42L374.11,312.22L373.95,312.05L373.75,311.93Z" style="fill:rgb(0,30,85);fill-rule:nonzero;"/>
        <path d="M385.34,321.97L385.34,331.57L385.3,331.77L385.19,331.93L385.03,332.04L384.83,332.08L382.67,332.08L382.46,332.04L382.29,331.92L382.17,331.75L382.13,331.54L382.13,298.97L382.17,298.79L382.27,298.64L382.42,298.54L382.6,298.5L384.9,298.5L385.15,298.58L385.28,298.73L385.33,298.93L385.33,301.81L385.36,301.92L385.44,302L385.56,302.03L385.67,302L385.75,301.91L386.23,301.02L386.74,300.25L387.27,299.57L387.81,299.02L388.4,298.56L388.99,298.21L389.61,297.98L390.23,297.87L390.75,297.86L391.27,297.93L391.8,298.08L392.33,298.3L392.85,298.59L393.34,298.95L394.32,299.88L395.22,301.06L395.96,302.41L396.54,303.87L396.91,305.4L397.14,306.98L397.31,308.78L397.42,310.6L397.45,312.41L397.41,314.1L397.3,315.72L397.12,317.22L396.87,318.63L396.56,319.88L396.19,321.01L395.75,322.05L395.26,322.94L394.72,323.71L394.09,324.39L393.43,324.92L392.68,325.35L392.02,325.6L391.31,325.77L390.3,325.84L389.82,325.78L389.36,325.67L388.88,325.47L388.43,325.21L387.98,324.87L387.56,324.47L386.73,323.42L385.77,321.85L385.69,321.77L385.57,321.74L385.46,321.77L385.37,321.85L385.34,321.97ZM389.76,300.93L389.312,300.983L388.868,301.141L388.433,301.403L388.011,301.766L387.606,302.227L387.221,302.781L386.861,303.422L386.529,304.146L385.96,305.81L385.538,307.708L385.278,309.768L385.19,311.91L385.278,314.052L385.538,316.112L385.96,318.01L386.529,319.674L386.861,320.398L387.221,321.039L387.606,321.594L388.011,322.054L388.433,322.417L388.868,322.679L389.312,322.837L389.76,322.89L390.208,322.837L390.652,322.679L391.087,322.417L391.509,322.054L391.914,321.594L392.299,321.039L392.659,320.398L392.991,319.674L393.56,318.01L393.982,316.112L394.242,314.052L394.33,311.91L394.242,309.768L393.982,307.708L393.56,305.81L392.991,304.146L392.659,303.422L392.299,302.781L391.914,302.227L391.509,301.766L391.087,301.403L390.652,301.141L390.208,300.983L389.76,300.93Z" style="fill:rgb(0,30,85);fill-rule:nonzero;"/>
        <path d="M410.9,302.06L409.57,301.67L408.47,301.4L407.47,301.24L406.58,301.18L405.78,301.23L405.11,301.38L404.54,301.63L404.06,302.01L403.71,302.47L403.46,303.05L403.32,303.73L403.29,304.54L403.38,305.31L403.6,306.03L403.98,306.77L404.51,307.44L406.23,309.19L408.76,311.79L409.65,312.84L410.4,313.84L411.02,314.82L411.52,315.79L411.9,316.77L412.15,317.73L412.33,319.17L412.33,319.86L412.26,320.51L412.15,321.12L411.97,321.69L411.73,322.25L411.44,322.77L411.08,323.26L410.66,323.7L410.18,324.12L409.65,324.48L409.07,324.8L408.46,325.06L407.78,325.28L407.07,325.45L405.54,325.63L403.94,325.58L402.34,325.31L400.79,324.84L400.52,324.68L400.3,324.45L400.17,324.16L400.12,323.85L400.12,321.81L400.16,321.63L400.28,321.48L400.45,321.4L400.64,321.4L400.74,321.44L401.92,322L403.11,322.4L404.29,322.63L405.46,322.7L406.3,322.64L407.13,322.51L407.44,322.41L407.73,322.26L407.98,322.06L408.19,321.81L408.51,321.28L408.75,320.76L408.92,320.21L409.01,319.67L409.01,318.88L408.84,318.04L408.51,317.2L408.03,316.32L407.38,315.42L406.56,314.45L405.56,313.4L404.09,311.96L402.6,310.5L401.78,309.54L401.1,308.45L400.58,307.27L400.24,306.03L400.09,304.79L400.13,303.61L400.37,302.45L400.79,301.38L400.84,301.28L401.26,300.59L401.75,299.99L402.56,299.29L403.53,298.72L404.59,298.33L405.78,298.1L407.05,298.05L408.39,298.17L409.7,298.46L410.95,298.91L411.12,299.06L411.18,299.28L411.18,301.85L411.1,302.02L410.93,302.07L410.9,302.06Z" style="fill:rgb(0,30,85);fill-rule:nonzero;"/>
        <path d="M456.44,322.31L456.44,322.97L456.32,323.68L455.99,324.31L455.47,324.81L454.82,325.11L453.72,325.38L452.68,325.56L451.67,325.64L450.72,325.64L449.79,325.54L448.93,325.36L448.1,325.08L447.33,324.72L446.45,324.14L445.67,323.46L444.94,322.63L444.32,321.69L443.76,320.63L443.28,319.43L442.89,318.14L442.59,316.73L442.36,315.17L442.24,313.52L442.22,311.83L442.29,310.09L442.47,308.34L442.74,306.61L443.1,304.97L443.53,303.49L444.03,302.29L444.71,301.16L445.51,300.15L446.43,299.29L447.42,298.63L448.41,298.19L449.45,297.96L450.46,297.96L451.28,298.14L452.1,298.48L452.87,298.97L453.63,299.64L454.5,300.68L455.25,301.91L455.88,303.35L456.39,304.96L456.77,306.78L457.01,308.74L457.1,310.83L457.06,312.95L456.94,313.21L456.67,313.32L446.06,313.32L445.83,313.38L445.64,313.53L445.52,313.74L445.49,313.98L445.68,315.55L445.96,316.98L446.35,318.3L446.83,319.44L447.4,320.43L448.04,321.22L448.77,321.84L449.59,322.3L450.18,322.49L450.81,322.61L451.45,322.64L452.14,322.59L452.86,322.46L453.62,322.24L454.4,321.94L455.22,321.56L455.4,321.49L455.78,321.49L456.12,321.65L456.36,321.94L456.44,322.31ZM445.85,310.6L453.55,310.68L453.56,310.68L453.8,310.58L453.9,310.33L453.91,310.08L453.84,308.32L453.63,306.62L453.26,305.05L452.77,303.68L452.15,302.55L451.81,302.09L451.45,301.71L451.07,301.4L450.68,301.18L450.28,301.05L449.88,301L449.72,301L449.32,301.04L448.91,301.16L448.52,301.38L448.14,301.67L447.77,302.05L447.42,302.5L446.78,303.62L446.25,304.98L445.86,306.54L445.6,308.23L445.51,310L445.5,310.25L445.61,310.5L445.85,310.6Z" style="fill:rgb(0,30,85);fill-rule:nonzero;"/>
        <path d="M470.76,299.33L470.76,301.89L470.68,302.06L470.51,302.11L470.48,302.1L469.15,301.71L468.05,301.44L467.05,301.28L466.16,301.22L465.37,301.27L464.7,301.42L464.13,301.67L463.65,302.04L463.3,302.5L463.04,303.09L462.9,303.76L462.87,304.57L462.96,305.34L463.18,306.06L463.56,306.8L464.09,307.47L465.81,309.22L468.33,311.82L469.22,312.87L469.96,313.87L470.58,314.85L471.08,315.82L471.46,316.8L471.71,317.76L471.88,319.2L471.88,319.88L471.82,320.53L471.7,321.15L471.53,321.72L471.29,322.28L470.99,322.79L470.63,323.28L470.22,323.73L469.74,324.14L469.21,324.5L468.63,324.82L468.01,325.08L467.34,325.3L466.63,325.47L465.09,325.64L463.5,325.59L461.91,325.33L460.35,324.85L460.08,324.69L459.87,324.46L459.73,324.17L459.69,323.86L459.69,321.82L459.73,321.64L459.85,321.49L460.02,321.41L460.21,321.41L460.31,321.45L461.49,322.01L462.67,322.41L463.85,322.64L465.03,322.71L465.86,322.66L466.69,322.53L467,322.43L467.29,322.28L467.54,322.08L467.75,321.83L468.07,321.3L468.31,320.78L468.48,320.23L468.57,319.69L468.57,318.9L468.4,318.06L468.08,317.23L467.59,316.35L466.95,315.44L466.13,314.48L465.13,313.42L463.67,311.99L462.18,310.53L461.36,309.56L460.68,308.48L460.16,307.3L459.82,306.06L459.67,304.82L459.72,303.64L459.96,302.48L460.38,301.41L460.43,301.31L460.85,300.62L461.34,300.02L462.15,299.32L463.11,298.76L464.18,298.37L465.37,298.14L466.63,298.09L467.97,298.21L469.28,298.5L470.53,298.96L470.7,299.11L470.76,299.33Z" style="fill:rgb(0,30,85);fill-rule:nonzero;"/>
        <path d="M532.2,301.32L532.86,300.37L533.68,299.37L534.13,298.95L534.6,298.6L535.07,298.32L535.54,298.11L536.05,297.96L536.56,297.88L537.3,297.89L538.02,298.03L538.75,298.32L539.45,298.73L540.12,299.26L540.74,299.9L541.31,300.65L541.81,301.49L541.92,301.62L542.07,301.68L542.24,301.67L542.38,301.58L542.44,301.5L542.88,300.77L543.36,300.14L543.89,299.56L544.45,299.08L545.07,298.67L545.71,298.36L546.39,298.13L547.09,297.99L547.7,297.95L548.32,297.99L548.92,298.09L549.51,298.26L550.08,298.49L550.63,298.79L551.15,299.15L551.63,299.57L552.07,300.04L552.46,300.56L552.79,301.1L553.08,301.68L553.31,302.3L553.49,302.96L553.61,303.63L553.67,304.33L553.78,307.86L553.83,312.48L553.78,324.96L553.75,325.12L553.65,325.25L553.52,325.34L553.36,325.37L550.88,325.37L550.71,325.34L550.57,325.25L550.48,325.11L550.45,324.94L550.46,306.25L550.38,305.18L550.23,304.23L549.99,303.37L549.69,302.64L549.3,302L548.85,301.5L548.33,301.13L547.77,300.91L547.32,300.84L546.87,300.84L546.41,300.93L545.96,301.09L545.52,301.32L545.09,301.62L544.68,301.99L544.29,302.42L543.65,303.42L543.18,304.57L542.9,305.83L542.81,307.16L542.81,324.99L542.78,325.16L542.68,325.3L542.53,325.4L542.36,325.43L540,325.43L539.84,325.4L539.7,325.3L539.6,325.16L539.57,325L539.58,307.75L539.54,306.1L539.42,304.74L539.2,303.67L538.89,302.9L538.37,302.1L537.81,301.5L537.21,301.08L536.57,300.86L535.93,300.82L535.24,300.97L534.52,301.28L533.77,301.78L533.34,302.17L532.97,302.65L532.63,303.24L532.35,303.89L532.12,304.66L531.95,305.45L531.84,306.29L531.81,307.11L531.81,325.01L531.72,325.27L531.57,325.39L531.39,325.43L529.02,325.43L528.85,325.4L528.7,325.3L528.6,325.15L528.57,324.98L528.57,298.94L528.61,298.76L528.71,298.61L528.86,298.52L529.04,298.48L531.32,298.48L531.49,298.51L531.63,298.61L531.72,298.74L531.76,298.91L531.79,301.21L531.82,301.31L532.01,301.43L532.2,301.32Z" style="fill:rgb(0,30,85);fill-rule:nonzero;"/>
        <path d="M569.08,320.44L567.91,321.99L567.24,322.75L566.75,323.13L566.25,323.43L565.71,323.66L565.17,323.81L564.29,323.89L563.43,323.8L562.56,323.54L561.73,323.12L560.96,322.55L560.28,321.86L559.71,321.07L559.28,320.19L558.79,318.87L558.38,317.55L558.04,316.24L557.78,314.93L557.59,313.63L557.47,312.33L557.42,311.03L557.45,309.74L557.65,307.66L558.05,305.6L558.63,303.54L559.4,301.5L559.74,300.8L560.13,300.17L560.57,299.6L561.06,299.12L561.59,298.71L562.15,298.39L562.74,298.16L563.34,298.02L564.15,297.98L564.95,298.08L565.75,298.33L566.53,298.73L567.24,299.25L567.91,299.91L568.51,300.67L569.04,301.55L569.14,301.66L569.28,301.7L569.42,301.67L569.53,301.57L569.57,301.43L569.67,298.85L569.71,298.69L569.81,298.55L569.95,298.47L570.12,298.44L572.35,298.53L572.53,298.57L572.68,298.68L572.78,298.84L572.82,299.02L572.82,320.72L572.83,322.01L572.83,324.24L572.71,325.83L572.42,327.22L571.95,328.44L571.56,329.13L571.1,329.73L570.65,330.2L570.16,330.61L569.6,330.98L569.01,331.3L568.35,331.58L567.66,331.8L566.13,332.09L564.41,332.18L562.6,332.06L560.72,331.72L558.94,331.19L558.76,331.05L558.7,330.82L558.8,328.3L558.87,328.15L559.04,328.1L559.06,328.11L560.76,328.55L562.31,328.85L563.71,329.01L564.96,329.03L566.06,328.91L567.01,328.65L567.81,328.24L568.46,327.7L568.78,327.31L569.04,326.86L569.32,325.98L569.5,324.65L569.59,322.85L569.59,320.6L569.55,320.46L569.45,320.36L569.31,320.32L569.18,320.36L569.08,320.44ZM565.163,300.98L564.721,301.029L564.283,301.173L563.854,301.411L563.438,301.741L563.039,302.16L562.66,302.663L561.979,303.903L561.42,305.413L561.007,307.136L560.753,309.005L560.67,310.948L560.76,312.891L561.02,314.759L561.44,316.48L562.003,317.988L562.689,319.226L563.069,319.728L563.47,320.145L563.888,320.473L564.317,320.71L564.755,320.853L565.197,320.9L565.639,320.851L566.077,320.707L566.506,320.469L566.922,320.139L567.321,319.72L567.7,319.217L568.381,317.977L568.94,316.467L569.353,314.744L569.607,312.875L569.69,310.932L569.6,308.989L569.34,307.121L568.92,305.4L568.357,303.892L567.671,302.654L567.291,302.152L566.89,301.735L566.473,301.407L566.043,301.17L565.605,301.027L565.163,300.98Z" style="fill:rgb(0,30,85);fill-rule:nonzero;"/>
        <path d="M426.23,322.77L425.49,323.82L424.75,324.63L424.02,325.19L423.29,325.5L421.91,325.76L420.65,325.78L420.08,325.71L419.55,325.59L419.03,325.4L418.55,325.16L417.87,324.66L417.28,324.04L416.78,323.29L416.35,322.39L416,321.37L415.74,320.22L415.56,318.93L415.47,317.52L415.51,298.94L415.55,298.77L415.65,298.62L415.8,298.52L415.97,298.49L418.25,298.49L418.51,298.57L418.64,298.73L418.69,298.93L418.69,317.25L418.74,318.34L418.89,319.35L419.13,320.26L419.46,321.03L419.88,321.72L420.38,322.25L420.96,322.65L421.58,322.89L422.04,322.96L422.52,322.96L422.99,322.89L423.46,322.74L423.92,322.51L424.36,322.22L424.78,321.86L425.18,321.43L425.52,320.96L425.83,320.44L426.3,319.29L426.58,318.01L426.68,316.64L426.69,298.96L426.73,298.78L426.83,298.63L426.98,298.53L427.16,298.49L429.47,298.49L429.62,298.52L429.75,298.61L429.84,298.74L429.87,298.89L429.87,324.93L429.84,325.1L429.74,325.25L429.59,325.35L429.42,325.38L427.01,325.38L426.83,325.34L426.69,325.24L426.6,325.08L426.58,324.91L426.59,324.86L426.79,323.68L426.79,322.88L426.73,322.74L426.61,322.65L426.46,322.63L426.32,322.68L426.23,322.77Z" style="fill:rgb(0,30,85);fill-rule:nonzero;"/>
        <path d="M274.18,166.34L281.02,158.29L305.97,168.03L306.07,168.16L306,168.32L305.9,168.34L274.18,166.34Z" style="fill:rgb(245,131,45);fill-rule:nonzero;"/>
        <path d="M322.46,173.7L322.92,173.87L323.17,174.13L323.22,174.36L323.17,174.64L315.73,198.27L303.38,236.77L302.82,238.33L302.27,239.55L301.72,240.44L301.18,240.98L300.51,241.35L299.84,241.55L299.29,241.59L298.75,241.54L298.19,241.4L297.65,241.18L297.08,240.85L296.54,240.45L296.02,239.97L295.54,239.43L281.67,224L281.56,223.83L281.52,223.63L281.55,223.43L281.65,223.25L291.34,211.24L291.6,211.22L291.83,211.14L292.13,210.89L321.07,176.67L321.11,176.55L321.06,176.43L321.05,176.42L320.93,176.37L320.81,176.41L307.39,187.93L289.09,203.58L288.66,204.05L288.42,204.56L288.37,204.79L274.95,215.8L274.76,215.9L274.55,215.93L274.35,215.87L274.18,215.74L246.25,184.81L256.31,174.42L273.99,174.36L274.13,174.26L274.16,174.17L274.28,174.05L274.47,174.17L274.75,174.23L301.52,174.29L321.74,174.2L321.99,174.15L322.25,173.99L322.46,173.7Z" style="fill:rgb(245,131,45);fill-rule:nonzero;"/>
        <path d="M244.81,144.16L255.07,148.19L262.67,151.07L263.12,151.13L263.67,151.01L264.09,151.54L264.45,151.81L270.52,154.22L281.02,158.29L274.18,166.34L270.71,166.18L227.64,163.43L227.1,163.29L226.64,162.95L223.99,160.14L244.81,144.16Z" style="fill:rgb(251,181,64);fill-rule:nonzero;"/>
        <path d="M256.31,174.42L246.25,184.81L237.39,174.95L237.32,174.82L237.31,174.67L237.38,174.53L237.51,174.44L237.62,174.42L256.31,174.42Z" style="fill:rgb(251,181,64);fill-rule:nonzero;"/>
        <path d="M244.81,144.16L223.99,160.14L211.61,146.33L199.37,132.4L198.85,131.73L198.46,131.05L198.2,130.35L198.06,129.64L198.05,128.87L198.17,128.41L198.44,128.01L198.83,127.73L199.29,127.61L200.63,127.57L201.94,127.68L203.18,127.94L204.39,128.34L244.81,144.16Z" style="fill:rgb(254,209,75);fill-rule:nonzero;"/>
        <path d="M322.29,173.29L299.94,156.43L300.81,150.53L301.46,144.76L301.58,144.04L301.8,143.36L302.1,142.72L302.47,142.16L302.89,141.71L303.36,141.37L303.84,141.17L304.35,141.11L304.66,141.15L304.98,141.25L305.57,141.62L306.16,142.24L306.68,143.06L315.97,160.32L322.18,172.06L322.32,172.58L322.29,173.29Z" style="fill:rgb(254,209,75);fill-rule:nonzero;"/>
    </g>
</svg>
