<?xml version="1.0" encoding="UTF-8" standalone="no"?>
<!DOCTYPE svg PUBLIC "-//W3C//DTD SVG 1.1//EN" "http://www.w3.org/Graphics/SVG/1.1/DTD/svg11.dtd">
<svg width="100%" height="100%" viewBox="0 0 393 170" version="1.1" xmlns="http://www.w3.org/2000/svg" xmlns:xlink="http://www.w3.org/1999/xlink" xml:space="preserve" xmlns:serif="http://www.serif.com/" style="fill-rule:evenodd;clip-rule:evenodd;stroke-linejoin:round;stroke-miterlimit:2;">
    <g transform="matrix(1,0,0,1,-5.21,-2.85)">
        <path d="M135.86,22.74L135.7,23.06L135.62,23.39L135.63,23.81L135.78,24.26L135.92,24.48L136.12,24.65L136.35,24.75L136.6,24.79L139.03,24.79L139.48,24.7L139.86,24.46L141.99,22.29L143.6,20.41L145.15,18.34L146.76,15.97L149,12.44L150.96,9.33L151.14,9.11L151.37,8.95L151.64,8.85L151.92,8.81L153.82,8.69L155.6,8.36L157.26,7.82L158.05,7.47L158.81,7.07L160.04,6.26L161.19,5.28L162.24,4.16L163.21,2.87L167.08,2.97L167.23,3.01L167.34,3.1L167.4,3.24L167.4,3.39L167.36,3.47L147.07,36.09L146.97,36.32L146.93,36.58L146.97,36.83L147.07,37.06L167.81,69.79L167.83,69.99L167.69,70.12L167.63,70.13L149.43,70.13L149.15,70.09L148.89,69.98L148.66,69.81L148.49,69.58L136.42,48.69L136.31,48.57L136.16,48.51L136,48.53L135.87,48.61L135.81,48.68L122.65,69.83L122.39,70.08L122.04,70.17L104.38,70.17L104.23,70.14L104.12,70.04L104.06,69.9L104.06,69.75L104.1,69.67L106.88,65.26L108.51,64.72L110.05,64.02L110.91,63.52L111.75,62.95L112.55,62.33L113.32,61.65L114.06,60.91L114.77,60.11L115.45,59.25L116.09,58.33L119.81,52.64L122.71,48.1L124.77,44.71L126.01,42.47L126.44,41.55L126.81,40.61L127.12,39.66L127.36,38.7L127.65,37L127.75,35.25L127.72,35.09L127.62,34.96L127.47,34.88L127.31,34.87L127.26,34.88L126.73,34.98L126.34,34.97L104.58,3.17L104.55,3.11L104.58,2.93L104.75,2.85L122.87,2.85L123.22,2.94L123.48,3.19L135.86,22.74Z" style="fill:rgb(63,18,117);fill-rule:nonzero;"/>
        <path d="M294.8,67.4L296.56,65.66L298.13,63.82L299.5,61.89L300.68,59.85L301.47,58.19L302.14,56.47L302.69,54.69L303.13,52.84L303.44,50.94L303.64,48.97L303.73,46.95L303.69,44.86L303.54,42.39L303.32,39.94L303.01,37.5L302.63,35.07L302.17,32.64L301.62,30.23L300.98,27.47L300.53,25.14L300.24,23.26L300.14,21.82L300.11,15.21L300.18,8.68L300.23,8.37L300.37,8.09L300.57,7.85L300.84,7.67L301.96,7.08L303.01,6.39L303.93,5.65L304.78,4.82L305.57,3.9L306.29,2.9L308.65,2.93L308.87,2.98L309.05,3.1L309.17,3.28L309.21,3.5L309.21,69.53L309.16,69.76L309.03,69.96L308.83,70.09L308.59,70.14L295.18,70.14L294.95,70.1L294.75,69.99L294.59,69.82L294.5,69.61L294.39,69.01L294.39,68.47L294.48,67.99L294.67,67.58L294.8,67.4Z" style="fill:rgb(63,18,117);fill-rule:nonzero;"/>
        <path d="M318.77,63.07L319.92,62.2L320.92,61.19L321.77,60L322.45,58.66L322.97,57.15L323.33,55.46L323.52,53.63L323.57,51.58L323.48,49.24L323.24,46.03L323.17,45.12L323.07,44.25L322.92,43.44L322.72,42.7L322.47,42.03L322.16,41.43L321.81,40.9L321.4,40.43L320.95,40.04L320.47,39.73L319.94,39.48L319.37,39.29L318.76,39.16L318.75,31.32L318.7,31.09L318.57,30.9L318.38,30.77L318.15,30.72L313.03,30.72L312.78,30.67L312.57,30.53L312.43,30.33L312.38,30.08L312.34,20.26L312.34,21.05L312.45,21.72L312.68,22.27L313.01,22.71L313.36,22.97L313.77,23.16L314.24,23.28L314.79,23.33L319.01,23.39L322.44,23.37L322.87,23.32L323.29,23.19L323.67,22.98L324.01,22.7L324.28,22.36L324.48,21.97L324.61,21.55L324.65,21.12L324.65,9.47L324.69,9.03L324.8,8.6L324.99,8.19L325.24,7.83L325.56,7.51L325.92,7.26L326.32,7.07L326.75,6.95L327.47,6.78L328.12,6.57L328.72,6.3L329.27,5.97L329.71,5.62L330.09,5.23L330.38,4.8L330.58,4.33L330.71,3.73L330.7,3.07L333.07,2.93L333.31,2.96L333.52,3.09L333.66,3.28L333.72,3.52L333.72,19.08L333.76,19.3L333.89,19.48L334.07,19.61L334.29,19.65L347.36,19.65L347.51,19.69L347.62,19.8L347.67,19.96L347.63,20.11L347.52,20.23L345.69,21.49L344.02,22.87L342.5,24.37L341.15,25.99L340.44,26.97L339.79,27.98L339.19,29.04L338.64,30.13L338.48,30.37L338.26,30.56L338,30.68L337.72,30.72L334.27,30.72L334.08,30.75L333.91,30.84L333.79,30.99L333.71,31.16L333.7,31.29L333.7,69.81L333.62,70.02L333.51,70.11L333.37,70.14L319.33,70.14L319.11,70.1L318.93,69.97L318.8,69.78L318.76,69.56L318.77,63.07Z" style="fill:rgb(63,18,117);fill-rule:nonzero;"/>
        <path d="M397.66,22.63C397.66,25.543 395.263,27.94 392.35,27.94C389.437,27.94 387.04,25.543 387.04,22.63C387.04,19.717 389.437,17.32 392.35,17.32C395.263,17.32 397.66,19.717 397.66,22.63ZM396.41,22.64C396.41,20.413 394.577,18.58 392.35,18.58C390.123,18.58 388.29,20.413 388.29,22.64C388.29,24.867 390.123,26.7 392.35,26.7C394.577,26.7 396.41,24.867 396.41,22.64Z" style="fill:rgb(63,18,117);fill-rule:nonzero;"/>
        <path d="M219.15,70.08L220.14,68.75L220.98,67.34L221.5,66.3L221.94,65.23L222.31,64.11L222.62,62.96L222.85,61.77L223.02,60.55L223.11,59.28L223.14,57.98L222.83,27.42L222.86,27.02L222.94,26.63L223.09,26.26L223.29,25.92L223.55,25.61L223.84,25.35L224.18,25.13L224.54,24.97L225.52,24.69L226.43,24.58L227.27,24.63L228.05,24.85L228.69,25.18L229.28,25.64L229.82,26.24L230.3,26.96L230.45,27.14L230.64,27.26L230.87,27.31L231.1,27.28L233.87,26.46L236.13,25.71L237.89,25.02L239.15,24.4L240.14,23.66L241.37,22.47L242.82,20.83L244.5,18.74L244.7,32.14L244.63,32.4L244.45,32.58L244.2,32.64L242.65,32.67L241.23,32.8L239.91,33.03L238.72,33.35L237.66,33.77L236.69,34.3L235.86,34.92L235.13,35.66L234.71,36.2L234.34,36.79L234.03,37.42L233.77,38.09L233.57,38.82L233.41,39.6L233.26,41.27L233.13,52.45L233.17,69.66L233.14,69.83L233.05,69.98L232.9,70.07L232.73,70.11L219.15,70.08Z" style="fill:rgb(63,18,117);fill-rule:nonzero;"/>
        <path d="M391.48,23.9L391.31,25.33L391.25,25.47L391.13,25.56L390.89,25.62L390.69,25.58L390.52,25.46L390.4,25.23L390.26,24.49L390.11,21.19L390.18,20.8L390.33,20.42L390.55,20.09L390.84,19.81L391.18,19.6L391.55,19.46L391.95,19.4L392.35,19.42L392.52,19.46L393.43,19.75L394.12,20.11L394.59,20.53L394.85,21.01L394.89,21.53L394.82,21.89L394.69,22.17L394.49,22.42L394.16,22.71L393.94,22.89L393.77,23.1L393.68,23.36L393.69,23.63L393.79,23.88L394.49,24.99L394.56,25.24L394.5,25.49L394.31,25.67L394.05,25.73L393.78,25.62L393.15,24.93L392.3,23.71L392.16,23.57L391.95,23.51L391.73,23.55L391.56,23.69L391.48,23.9ZM391.35,21.435L391.43,21.734L391.668,21.991L392.025,22.165L392.449,22.23L392.875,22.177L393.237,22.012L393.481,21.763L393.57,21.466L393.49,21.166L393.253,20.91L392.895,20.735L392.471,20.67L392.045,20.724L391.683,20.888L391.439,21.137L391.35,21.435Z" style="fill:rgb(63,18,117);fill-rule:nonzero;"/>
        <path d="M160.82,50.15L162.04,50.74L163.27,51.18L164.5,51.49L165.75,51.66L165.98,51.64L166.19,51.56L166.37,51.42L166.5,51.23L166.72,50.71L166.88,50.16L167.07,48.9L167.08,47.43L166.92,45.4L166.79,43.88L166.78,42.92L166.98,40.76L167.31,38.72L167.76,36.8L168.35,35.01L169.07,33.34L169.92,31.8L170.9,30.38L172.01,29.09L173.01,28.13L174.1,27.25L175.27,26.45L176.54,25.74L177.88,25.11L179.32,24.56L180.84,24.09L182.45,23.71L183.92,23.45L185.31,23.3L186.67,23.24L187.98,23.29L189.08,23.4L190.15,23.58L191.24,23.82L192.39,24.15L194.89,25.03L198.2,26.44L198.75,26.64L199.31,26.78L199.89,26.85L200.46,26.85L201.02,26.77L201.56,26.63L202.08,26.42L202.56,26.14L204.05,25.26L205.62,24.58L206.98,24.16L208.4,23.87L209.02,23.73L209.59,23.49L210.03,23.24L210.43,22.92L210.81,22.54L211.15,22.11L211.75,21.05L212.23,19.76L212.85,19.64L213.45,19.65L213.66,19.69L213.87,19.78L214.03,19.93L214.14,20.13L214.18,20.35L214.18,69.53L214.14,69.76L214.01,69.95L213.82,70.08L213.59,70.13L200.33,70.13L200.12,70.09L199.94,69.97L199.82,69.78L199.78,69.57L199.78,65.06L199.76,64.98L199.61,64.85L199.41,64.9L197.8,66.25L196.12,67.41L194.36,68.39L192.54,69.17L191.24,69.61L189.91,69.95L188.55,70.2L187.16,70.37L185.73,70.44L184.26,70.43L182.77,70.32L181.24,70.13L178.95,69.66L176.69,68.97L175.21,68.38L173.78,67.7L172.38,66.91L171.04,66.03L169.75,65.07L168.54,64.02L167.39,62.9L166.32,61.71L165.32,60.45L164.41,59.12L163.58,57.74L162.83,56.3L162.18,54.81L161.63,53.28L161.18,51.73L160.82,50.15ZM181.31,55.24L178.45,57.14L178.25,57.32L178.05,57.71L178.04,58.15L178.24,58.55L178.59,58.82L179.8,59.32L181.05,59.76L182.33,60.13L183.64,60.43L184.95,60.66L186.28,60.82L187.61,60.91L188.94,60.92L190.24,60.86L191.53,60.73L192.77,60.52L194,60.24L195.16,59.9L196.29,59.48L197.36,59L198.39,58.45L199.89,57.47L201.22,56.37L202.36,55.16L203.33,53.84L204.06,52.53L204.64,51.13L205.08,49.64L205.36,48.05L205.5,46.37L205.49,44.59L205.33,42.72L205.02,40.75L205.01,40.69L204.8,40.25L204.43,39.93L203.97,39.78L203.49,39.83L199.44,41.06L199.07,40.06L198.65,39.12L198.18,38.24L197.67,37.41L197.12,36.65L196.51,35.94L195.87,35.29L195.17,34.7L194.36,34.12L193.49,33.6L192.57,33.16L191.59,32.79L190.63,32.5L189.7,32.29L188.75,32.15L187.82,32.08L186.88,32.07L185.96,32.14L185.05,32.29L184.16,32.5L182.93,32.92L181.78,33.47L180.67,34.16L179.64,34.96L178.68,35.88L177.82,36.9L177.05,38.03L176.4,39.23L175.88,40.49L175.48,41.8L175.23,43.11L175.11,44.44L175.14,45.73L175.3,47.02L175.6,48.26L176.05,49.47L176.46,50.33L176.96,51.17L177.51,51.95L178.15,52.7L178.84,53.4L179.6,54.06L180.42,54.67L181.31,55.24Z" style="fill:rgb(63,18,117);fill-rule:nonzero;"/>
        <path d="M342.25,57.72L347.97,59.33L348.23,59.34L348.47,59.23L348.63,59.03L348.68,58.77L348.64,58.6L346,51.71L345.48,50.19L345.07,48.65L344.78,47.05L344.6,45.43L344.55,43.81L344.61,42.19L344.79,40.57L345.09,38.98L345.5,37.41L346.03,35.88L346.66,34.42L347.4,33.01L348.23,31.68L349.16,30.41L350.18,29.23L351.29,28.12L352.3,27.26L353.33,26.49L354.41,25.79L355.51,25.19L356.67,24.66L357.84,24.21L359.07,23.84L360.32,23.55L361.64,23.33L362.98,23.2L364.36,23.14L365.81,23.15L367.29,23.24L368.84,23.41L370.42,23.65L372.07,23.97L375.61,24.85L379.57,26.07L379.63,26.08L379.8,26.07L379.95,25.99L380.05,25.86L380.08,25.69L380.03,22.13L381.74,23.37L383.34,24.75L384.83,26.24L386.19,27.85L387.43,29.56L388.52,31.37L389.47,33.25L390.26,35.21L390.9,37.22L391.38,39.28L391.69,41.36L391.84,43.47L391.82,45.58L391.63,47.68L391.28,49.76L390.76,51.81L390.15,53.64L389.4,55.42L388.53,57.14L387.54,58.79L386.43,60.37L385.21,61.86L383.88,63.26L382.46,64.56L380.94,65.75L379.35,66.83L377.68,67.8L375.94,68.64L374.15,69.35L372.31,69.93L370.43,70.37L368.53,70.68L366.6,70.85L364.66,70.88L362.72,70.77L360.8,70.52L358.9,70.13L357.04,69.6L355.22,68.93L353.45,68.14L351.74,67.22L350.11,66.18L348.55,65.02L347.08,63.75L345.71,62.38L344.45,60.91L343.29,59.36L342.25,57.72ZM361.82,56.22L361.13,56.67L360.63,57.14L360.3,57.63L360.15,58.13L360.2,58.72L360.42,59.12L360.79,59.39L361.96,59.84L363.16,60.23L364.35,60.54L365.56,60.78L366.76,60.95L367.97,61.04L369.13,61.06L370.28,60.99L371.37,60.86L372.43,60.65L373.44,60.37L374.41,60.01L375.31,59.59L376.16,59.09L376.94,58.53L377.68,57.9L378.69,56.78L379.54,55.53L380.25,54.1L380.79,52.54L381.19,50.77L381.41,48.99L381.44,47.32L381.3,45.63L381,43.94L380.54,42.23L380.39,41.89L380.16,41.6L379.7,41.24L379.2,41.07L378.69,41.09L378.15,41.3L377.58,41.69L376.98,42.28L376.71,41.03L376.35,39.86L375.9,38.74L375.37,37.71L374.74,36.73L374.04,35.83L373.25,35.01L372.4,34.29L371.51,33.67L370.57,33.14L369.57,32.69L368.54,32.35L367.46,32.1L366.37,31.95L365.27,31.89L364.16,31.94L363.07,32.09L362,32.33L360.95,32.67L359.93,33.11L358.97,33.63L358.06,34.25L357.23,34.93L356.46,35.7L355.77,36.53L355.16,37.45L354.63,38.42L354.19,39.46L353.85,40.53L353.59,41.67L353.43,42.84L353.36,44.07L353.42,45.73L353.66,47.3L354.08,48.77L354.69,50.15L355.24,51.08L355.89,51.97L356.64,52.8L357.48,53.59L358.42,54.32L359.46,55.01L360.59,55.64L361.82,56.22Z" style="fill:rgb(63,18,117);fill-rule:nonzero;"/>
        <path d="M267.67,58.25L268.71,59.04L269.87,59.68L270.67,59.99L271.49,60.22L272.35,60.37L273.21,60.44L274.11,60.43L274.99,60.34L275.87,60.17L276.74,59.92L277.6,59.59L278.43,59.19L279.24,58.72L280,58.19L280.72,57.59L281.39,56.93L281.98,56.24L282.52,55.49L292.41,55.46L292.47,55.47L292.67,55.62L292.67,55.87L291.74,57.73L290.68,59.48L289.49,61.15L288.19,62.7L286.68,64.23L285.07,65.62L283.34,66.89L281.52,68L279.58,68.99L277.58,69.8L275.53,70.46L273.43,70.95L271.3,71.26L269.14,71.41L267.01,71.38L264.89,71.17L262.82,70.8L260.78,70.25L258.81,69.54L256.89,68.66L254.87,67.51L252.97,66.18L251.17,64.65L249.52,62.96L252.18,62.62L252.41,62.56L252.74,62.32L252.93,61.96L252.95,61.55L252.78,61.18L251.65,59.58L250.62,57.89L249.71,56.13L248.92,54.3L248.26,52.43L247.73,50.52L247.34,48.61L247.09,46.68L246.99,44.81L247.03,42.94L247.21,41.14L247.53,39.35L247.99,37.67L248.59,36.02L249.32,34.46L250.2,32.96L251.18,31.58L252.3,30.26L253.36,29.2L254.45,28.24L255.61,27.36L256.81,26.57L258.09,25.85L259.4,25.23L260.77,24.7L262.17,24.26L263.65,23.89L265.16,23.63L266.73,23.45L268.31,23.36L269.98,23.36L271.66,23.45L273.36,23.63L275.12,23.9L276.9,24.26L278.72,24.71L280.52,25.24L282.36,25.86L282.44,25.88L282.74,25.89L283.01,25.77L283.21,25.54L283.3,25.26L283.56,22.74L284.98,23.87L286.3,25.07L287.54,26.37L288.68,27.73L289.53,28.86L290.3,30.03L291.03,31.27L291.7,32.53L292.3,33.84L292.83,35.18L293.29,36.54L293.68,37.93L294.01,39.37L294.28,40.83L294.47,42.31L294.59,43.8L294.64,45.3L294.62,46.82L294.53,48.34L294.37,49.87L294.26,50.06L294.06,50.14L258.22,50.14L258.01,50.19L257.84,50.32L257.74,50.5L257.74,50.72L257.76,50.8L258.45,52.36L259.28,53.73L260.26,54.93L261.37,55.95L262.02,56.41L262.71,56.83L263.44,57.19L264.2,57.5L265.86,57.98L267.67,58.25ZM268.88,39.56L280.24,39.53L280.29,39.52L280.5,39.36L280.52,39.1L280.02,37.92L279.42,36.85L278.72,35.86L277.92,34.98L277.05,34.2L276.1,33.54L275.06,32.96L273.95,32.48L272.77,32.11L271.54,31.85L270.23,31.68L268.88,31.63L267.53,31.68L266.23,31.84L264.99,32.11L263.82,32.48L262.71,32.95L261.66,33.53L260.71,34.19L259.84,34.96L259.04,35.85L258.33,36.84L257.73,37.91L257.23,39.08L257.25,39.35L257.47,39.5L257.51,39.51L268.88,39.56Z" style="fill:rgb(63,18,117);fill-rule:nonzero;"/>
        <path d="M96.38,31.78L96.38,32.15L96.28,32.45L96.38,31.78Z" style="fill:rgb(63,18,117);fill-rule:nonzero;"/>
        <path d="M62.67,82.46L69.76,92.25L69.88,92.63L69.78,93.01L61.19,106.5L60.39,103.95L60.11,102.79L59.91,101.7L59.79,100.69L59.75,99.76L59.78,98.9L59.9,98.12L60.68,94.25L61.4,90.36L62.07,86.42L62.67,82.46Z" style="fill:rgb(63,18,117);fill-rule:nonzero;"/>
        <path d="M60.21,36.42L56.07,28.21L56.03,28.04L56.09,27.89L62.67,18.84L62.79,18.74L62.94,18.71L63.09,18.76L63.2,18.88L67.34,27.09L67.38,27.26L67.32,27.41L60.74,36.46L60.62,36.56L60.46,36.59L60.31,36.53L60.21,36.42Z" style="fill:rgb(141,142,141);fill-rule:nonzero;"/>
        <path d="M272.5,124.43L272.4,125.21L272.37,126.08L272.43,127.04L272.57,128.09L272.52,128.3L272.33,128.4L269.4,128.4L269.29,128.35L269.25,128.24L269.25,85.34L269.3,85.14L269.47,84.93L269.73,84.86L272.41,84.86L272.72,84.95L272.9,85.16L272.97,85.42L272.97,97.73L273,97.84L273.08,97.94L273.2,97.98L273.32,97.95L273.42,97.87L274.47,96.5L275.03,95.91L275.62,95.39L276.22,94.93L276.85,94.54L277.49,94.21L278.16,93.94L279.19,93.67L280.26,93.53L281.55,93.52L282.75,93.65L283.91,93.93L284.98,94.35L285.97,94.89L286.87,95.54L287.72,96.32L288.48,97.21L289.2,98.24L289.83,99.36L290.38,100.61L290.85,101.92L291.3,103.64L291.66,105.66L291.9,107.82L292.02,110.07L292.02,112.27L291.9,114.43L291.67,116.48L291.31,118.43L290.87,120.16L290.32,121.75L289.69,123.19L288.96,124.46L288.14,125.6L287.24,126.55L286.23,127.36L285.15,127.99L284.3,128.35L283.39,128.63L282.45,128.81L281.45,128.89L280.3,128.87L279.21,128.73L278.17,128.47L277.19,128.08L276.04,127.43L274.98,126.58L274.01,125.54L273.13,124.31L273.03,124.21L272.88,124.15L272.71,124.18L272.57,124.28L272.5,124.43ZM272.71,111.18L272.79,113.74L273.01,116.04L273.37,118.08L273.87,119.87L274.52,121.39L274.89,122.06L275.3,122.66L275.74,123.19L276.22,123.66L276.74,124.07L277.29,124.41L278,124.74L278.76,124.97L279.58,125.11L280.44,125.15L281.3,125.11L282.12,124.96L282.88,124.72L283.59,124.39L284.13,124.05L284.65,123.64L285.12,123.16L285.56,122.63L285.97,122.02L286.34,121.36L286.97,119.83L287.47,118.04L287.81,116L288.02,113.69L288.08,111.13L288,108.57L287.78,106.27L287.42,104.23L286.92,102.45L286.28,100.92L285.9,100.26L285.5,99.66L285.05,99.12L284.57,98.65L284.06,98.24L283.5,97.9L282.79,97.58L282.03,97.34L281.22,97.2L280.36,97.16L279.49,97.21L278.68,97.35L277.92,97.59L277.21,97.92L276.66,98.27L276.15,98.68L275.67,99.15L275.23,99.69L274.82,100.29L274.45,100.96L273.82,102.49L273.33,104.27L272.98,106.32L272.78,108.62L272.71,111.18Z" style="fill:rgb(141,142,141);fill-rule:nonzero;"/>
        <path d="M127.216,90.594C127.216,90.862 126.995,91.083 126.726,91.083C126.726,91.083 126.726,91.083 126.725,91.083L123.686,91.077C123.417,91.077 123.196,90.855 123.196,90.586L123.204,86.447C123.204,86.178 123.425,85.957 123.694,85.957C123.694,85.957 123.694,85.957 123.695,85.957L126.735,85.963C127.003,85.963 127.224,86.185 127.224,86.454L127.216,90.594Z" style="fill:rgb(141,142,141);fill-rule:nonzero;"/>
        <path d="M110.18,98.4L110.21,98.56L110.34,98.71L110.52,98.77L110.71,98.74L110.86,98.63L111.11,98.31L112.37,96.69L113.3,95.68L114.22,94.88L115.18,94.29L116,93.95L116.92,93.7L117.91,93.56L119.03,93.51L119.28,93.58L119.46,93.76L119.53,94.01L119.53,97.23L119.49,97.42L119.38,97.58L119.22,97.69L119.03,97.74L118.03,97.78L117.1,97.89L116.23,98.06L115.42,98.3L114.68,98.59L114,98.96L113.38,99.38L112.82,99.87L112.3,100.45L111.85,101.11L111.47,101.83L111.16,102.62L110.92,103.49L110.75,104.42L110.65,105.43L110.61,106.5L110.62,127.95L110.61,128.07L110.44,128.31L110.16,128.41L107.06,128.41L106.89,128.37L106.75,128.28L106.65,128.14L106.62,127.98L106.62,94.37L106.65,94.2L106.75,94.06L106.89,93.96L107.06,93.93L109.65,93.93L109.85,93.97L110.02,94.09L110.13,94.26L110.18,94.47L110.18,98.4Z" style="fill:rgb(141,142,141);fill-rule:nonzero;"/>
        <path d="M158.29,100.47L158.16,100.55L157.95,100.57L157.76,100.5L157.62,100.34L157.57,100.14L157.57,96.82L157.69,96.39L158,96.08L160.2,94.94L161.25,94.5L162.25,94.14L163.22,93.86L164.2,93.66L165.15,93.53L166.13,93.48L167.76,93.56L169.4,93.85L170.32,94.12L171.17,94.47L171.97,94.91L172.69,95.41L173.54,96.19L174.27,97.06L174.9,98.07L175.4,99.16L175.8,100.37L176.09,101.69L176.25,103.09L176.29,104.51L176.23,110.64L176.26,116.58L176.37,122.35L176.57,127.94L176.54,128.12L176.44,128.27L176.3,128.37L176.12,128.41L173.71,128.41L173.51,128.37L173.35,128.26L173.24,128.1L173.2,127.9L173.2,124.17L173.16,124.02L173.05,123.91L172.9,123.86L172.74,123.9L172.63,124.01L172.01,124.91L171.35,125.72L170.61,126.46L169.83,127.09L168.98,127.65L168.1,128.11L167.17,128.47L166.22,128.73L165.19,128.89L164.17,128.93L163.15,128.87L162.15,128.69L161.17,128.4L160.23,128.01L159.33,127.51L158.49,126.92L157.66,126.18L156.91,125.33L156.27,124.41L155.73,123.39L155.32,122.33L155.01,121.19L154.83,120.01L154.76,118.76L154.86,116.98L155,116.13L155.19,115.33L155.44,114.58L155.73,113.87L156.09,113.18L156.5,112.55L157.01,111.89L157.58,111.29L158.22,110.73L158.91,110.22L159.69,109.74L160.52,109.33L161.42,108.95L162.37,108.62L163.39,108.34L164.5,108.1L166.86,107.76L169.48,107.61L172.4,107.63L172.57,107.6L172.72,107.5L172.82,107.35L172.85,107.18L172.77,105.37L172.61,103.86L172.38,102.52L172.06,101.34L171.65,100.32L171.16,99.46L170.55,98.71L169.87,98.13L169.38,97.83L168.83,97.59L168.26,97.4L167.64,97.27L166.98,97.2L166.26,97.18L164.72,97.33L163.8,97.51L162.91,97.77L161.69,98.24L160.51,98.85L159.38,99.59L158.29,100.47ZM160.34,123.19L161.15,123.9L162.03,124.44L162.95,124.79L163.93,125L165,125.06L166.13,124.97L167.01,124.8L167.81,124.54L168.57,124.2L169.25,123.78L169.76,123.38L170.22,122.94L170.65,122.44L171.04,121.9L171.72,120.63L172.23,119.17L172.6,117.49L172.81,115.63L172.86,113.6L172.75,111.38L172.74,111.28L172.7,111.23L172.72,111.26L172.61,111.24L170.4,111.05L168.37,111.02L166.51,111.15L164.81,111.46L163.33,111.92L162.04,112.55L161.48,112.91L160.96,113.33L160.5,113.77L160.09,114.26L159.64,114.93L159.27,115.67L158.99,116.46L158.78,117.33L158.65,118.46L158.66,119.52L158.83,120.52L159.15,121.44L159.66,122.35L160.34,123.19Z" style="fill:rgb(141,142,141);fill-rule:nonzero;"/>
        <path d="M185.05,98.61L185.29,98.29L186.56,96.68L187.49,95.66L188.41,94.86L189.37,94.27L190.19,93.93L191.11,93.68L192.1,93.54L193.22,93.49L193.41,93.53L193.57,93.64L193.68,93.8L193.72,93.99L193.72,97.21L193.68,97.4L193.57,97.57L193.41,97.68L193.22,97.72L192.22,97.77L191.29,97.87L190.42,98.05L189.61,98.28L188.87,98.58L188.18,98.94L187.56,99.37L187.01,99.86L186.49,100.44L186.04,101.09L185.66,101.82L185.35,102.61L185.11,103.47L184.93,104.41L184.83,105.41L184.8,106.49L184.81,127.95L184.73,128.2L184.57,128.35L184.35,128.41L181.24,128.41L181.07,128.38L180.93,128.28L180.83,128.14L180.8,127.98L180.8,94.35L180.83,94.18L180.93,94.04L181.07,93.94L181.24,93.91L183.83,93.91L184.03,93.95L184.2,94.07L184.32,94.24L184.36,94.45L184.36,98.38L184.4,98.55L184.53,98.69L184.71,98.76L184.9,98.73L185.05,98.61Z" style="fill:rgb(141,142,141);fill-rule:nonzero;"/>
        <path d="M206.14,93.52L207.76,93.61L209.28,93.9L210.67,94.36L211.96,95.02L212.71,95.52L213.4,96.09L214.05,96.74L214.65,97.44L215.22,98.24L215.74,99.09L216.21,100.03L216.63,101L217.01,102.06L217.34,103.21L217.62,104.39L217.85,105.65L218.16,108.31L218.27,111.19L218.17,114.07L217.86,116.73L217.63,117.99L217.35,119.17L217.02,120.32L216.65,121.38L216.23,122.35L215.76,123.29L215.25,124.14L214.68,124.94L214.08,125.64L213.42,126.29L212.73,126.86L211.98,127.37L210.69,128.03L209.31,128.49L207.79,128.78L206.17,128.87L204.56,128.78L203.03,128.5L201.65,128.04L200.36,127.38L199.61,126.87L198.92,126.3L198.26,125.66L197.66,124.95L197.09,124.15L196.58,123.3L196.1,122.37L195.69,121.39L195.31,120.34L194.98,119.19L194.7,118.01L194.47,116.75L194.16,114.09L194.05,111.21L194.15,108.33L194.46,105.67L194.69,104.41L194.96,103.23L195.3,102.08L195.67,101.02L196.09,100.04L196.56,99.11L197.07,98.26L197.64,97.46L198.24,96.75L198.89,96.1L199.58,95.54L200.33,95.03L201.62,94.37L203.01,93.9L204.53,93.62L206.14,93.52ZM198.03,111.2L198.1,113.7L198.32,115.95L198.67,117.96L199.17,119.72L199.81,121.24L200.18,121.9L200.59,122.51L201.03,123.05L201.51,123.53L202.03,123.96L202.58,124.32L203.38,124.7L204.24,124.98L205.16,125.15L206.15,125.2L207.14,125.15L208.07,124.98L208.93,124.7L209.72,124.32L210.28,123.96L210.79,123.53L211.27,123.05L211.71,122.51L212.12,121.9L212.5,121.24L213.14,119.72L213.63,117.96L213.99,115.95L214.2,113.7L214.27,111.2L214.2,108.7L213.99,106.45L213.63,104.44L213.14,102.68L212.5,101.17L212.12,100.5L211.72,99.89L211.27,99.35L210.79,98.87L210.28,98.44L209.73,98.08L208.93,97.7L208.07,97.42L207.14,97.25L206.15,97.2L205.16,97.25L204.24,97.42L203.38,97.7L202.58,98.08L202.03,98.44L201.51,98.87L201.04,99.35L200.59,99.89L200.18,100.5L199.81,101.16L199.17,102.68L198.67,104.44L198.32,106.45L198.1,108.7L198.03,111.2Z" style="fill:rgb(141,142,141);fill-rule:nonzero;"/>
        <path d="M246.41,100.45L246.28,100.53L246.07,100.56L245.88,100.48L245.74,100.33L245.69,100.12L245.69,96.8L245.81,96.37L246.13,96.06L248.33,94.92L249.38,94.47L250.38,94.12L251.35,93.84L252.33,93.63L253.29,93.51L254.26,93.45L255.9,93.54L257.54,93.83L258.46,94.1L259.31,94.45L260.11,94.89L260.83,95.4L261.68,96.17L262.41,97.04L263.04,98.05L263.55,99.15L263.95,100.35L264.23,101.68L264.4,103.08L264.43,104.5L264.37,110.63L264.4,116.59L264.51,122.36L264.71,127.96L264.67,128.13L264.58,128.29L264.43,128.39L264.26,128.43L261.84,128.43L261.65,128.39L261.48,128.28L261.37,128.11L261.33,127.92L261.33,124.18L261.29,124.03L261.18,123.92L261.03,123.87L260.88,123.91L260.76,124.02L260.15,124.93L259.48,125.74L258.74,126.47L257.96,127.11L257.11,127.67L256.23,128.13L255.29,128.49L254.34,128.75L253.32,128.91L252.29,128.95L251.27,128.88L250.27,128.7L249.29,128.41L248.35,128.02L247.45,127.53L246.61,126.93L245.77,126.19L245.03,125.34L244.39,124.41L243.85,123.39L243.43,122.33L243.13,121.19L242.94,120.01L242.88,118.76L242.98,116.97L243.12,116.13L243.31,115.33L243.55,114.57L243.85,113.86L244.21,113.18L244.62,112.54L245.13,111.88L245.7,111.28L246.34,110.72L247.03,110.21L247.82,109.74L248.64,109.32L249.55,108.94L250.5,108.61L251.52,108.33L252.63,108.09L254.99,107.75L257.62,107.6L260.54,107.62L260.72,107.59L260.86,107.49L260.96,107.35L260.99,107.17L260.9,105.36L260.75,103.85L260.52,102.51L260.2,101.33L259.79,100.31L259.3,99.44L258.69,98.7L258.01,98.12L257.51,97.82L256.97,97.57L256.4,97.38L255.78,97.25L255.11,97.18L254.39,97.17L252.85,97.31L251.93,97.5L251.04,97.75L249.81,98.22L248.64,98.83L247.5,99.57L246.41,100.45ZM248.47,123.21L249.28,123.92L250.17,124.46L251.08,124.82L252.07,125.03L253.13,125.08L254.27,124.99L255.15,124.81L255.95,124.56L256.71,124.21L257.39,123.79L257.9,123.4L258.36,122.95L258.79,122.45L259.18,121.91L259.86,120.64L260.37,119.17L260.74,117.49L260.94,115.63L260.99,113.59L260.88,111.37L260.86,111.27L260.82,111.22L260.85,111.25L260.84,111.25L260.74,111.23L258.52,111.04L256.49,111.01L254.62,111.15L252.93,111.46L251.45,111.92L250.15,112.56L249.6,112.92L249.08,113.34L248.62,113.78L248.2,114.27L247.76,114.94L247.39,115.69L247.1,116.48L246.9,117.35L246.77,118.48L246.79,119.55L246.96,120.54L247.28,121.47L247.79,122.38L248.47,123.21Z" style="fill:rgb(141,142,141);fill-rule:nonzero;"/>
        <path d="M297.48,100.47L297.35,100.55L297.14,100.57L296.95,100.5L296.81,100.34L296.76,100.14L296.76,96.82L296.88,96.39L297.19,96.08L299.4,94.94L300.44,94.5L301.44,94.14L302.41,93.87L303.39,93.66L304.35,93.53L305.32,93.48L306.95,93.56L308.59,93.85L309.51,94.12L310.36,94.47L311.15,94.91L311.88,95.42L312.73,96.19L313.45,97.06L314.09,98.07L314.59,99.16L314.99,100.37L315.28,101.69L315.44,103.08L315.48,104.51L315.42,110.63L315.45,116.58L315.56,122.34L315.76,127.93L315.73,128.11L315.63,128.26L315.49,128.36L315.31,128.4L312.9,128.4L312.61,128.31L312.42,128.07L312.39,127.89L312.39,124.16L312.35,124.01L312.24,123.9L312.09,123.85L311.93,123.89L311.82,124L311.2,124.91L310.53,125.71L309.8,126.45L309.02,127.08L308.17,127.65L307.29,128.1L306.36,128.47L305.41,128.72L304.39,128.88L303.36,128.92L302.34,128.86L301.34,128.68L300.37,128.39L299.42,128L298.53,127.5L297.68,126.91L296.85,126.17L296.1,125.32L295.46,124.4L294.92,123.38L294.51,122.32L294.21,121.18L294.02,120L293.95,118.75L294.06,116.97L294.19,116.12L294.39,115.33L294.63,114.57L294.93,113.86L295.29,113.18L295.69,112.54L296.21,111.89L296.77,111.29L297.41,110.72L298.11,110.22L298.89,109.74L299.71,109.32L300.62,108.94L301.56,108.62L302.58,108.34L303.69,108.09L306.05,107.76L308.67,107.6L311.59,107.63L311.76,107.6L311.91,107.5L312.01,107.35L312.04,107.18L311.95,105.37L311.8,103.85L311.57,102.52L311.25,101.34L310.84,100.32L310.35,99.46L309.74,98.71L309.06,98.13L308.57,97.83L308.02,97.59L307.45,97.4L306.84,97.27L306.17,97.2L305.45,97.18L303.91,97.33L302.99,97.51L302.1,97.77L300.88,98.24L299.7,98.85L298.57,99.59L297.48,100.47ZM299.56,123.21L300.37,123.92L301.26,124.45L302.17,124.81L303.16,125.01L304.22,125.06L305.35,124.96L306.23,124.79L307.03,124.53L307.78,124.18L308.46,123.76L308.96,123.36L309.42,122.92L309.85,122.42L310.24,121.87L310.91,120.6L311.42,119.14L311.77,117.46L311.97,115.6L312.01,113.58L311.89,111.36L311.88,111.26L311.84,111.22L311.86,111.24L311.76,111.22L309.54,111.04L307.52,111.02L305.66,111.17L303.96,111.48L302.49,111.95L301.2,112.58L300.65,112.95L300.13,113.37L299.68,113.81L299.26,114.3L298.82,114.97L298.46,115.71L298.18,116.5L297.97,117.38L297.85,118.5L297.87,119.56L298.04,120.56L298.37,121.48L298.88,122.39L299.56,123.21Z" style="fill:rgb(141,142,141);fill-rule:nonzero;"/>
        <path d="M323.17,98.03L323.2,98.16L323.3,98.26L323.43,98.3L323.56,98.27L323.67,98.18L324.27,97.35L324.9,96.6L325.55,95.93L326.22,95.34L326.91,94.83L327.63,94.4L328.38,94.05L329.14,93.79L330.41,93.53L331.74,93.47L333.25,93.61L334.65,93.95L335.88,94.46L337,95.18L337.77,95.86L338.44,96.64L339.03,97.54L339.51,98.53L339.92,99.64L340.23,100.84L340.44,102.14L340.56,103.5L340.63,110.72L340.62,128.14L340.54,128.32L340.36,128.4L337.09,128.4L336.96,128.37L336.87,128.27L336.83,128.14L336.85,105.45L336.82,104.15L336.73,102.99L336.58,101.97L336.36,101.07L336.06,100.25L335.7,99.56L335.26,98.95L334.73,98.42L334.12,97.99L333.41,97.64L332.63,97.4L331.74,97.25L331.08,97.21L330.43,97.23L329.79,97.32L329.18,97.47L328.06,97.92L327.01,98.6L326.08,99.48L325.26,100.55L324.57,101.8L324.06,103.15L323.73,104.58L323.6,106.02L323.55,114.01L323.58,128.04L323.47,128.29L323.22,128.4L320.11,128.4L319.87,128.3L319.77,128.07L319.77,94.39L319.81,94.21L319.91,94.06L320.06,93.96L320.24,93.92L322.46,93.92L322.82,94.02L323.08,94.28L323.17,94.63L323.17,98.03Z" style="fill:rgb(141,142,141);fill-rule:nonzero;"/>
        <path d="M127.15,128C127.15,128.236 126.956,128.43 126.72,128.43L123.62,128.43C123.384,128.43 123.19,128.236 123.19,128L123.19,94.4C123.19,94.164 123.384,93.97 123.62,93.97L126.72,93.97C126.956,93.97 127.15,94.164 127.15,94.4L127.15,128Z" style="fill:rgb(141,142,141);fill-rule:nonzero;"/>
        <path d="M143.1,123.62L143.16,123.62L143.28,123.53L143.36,123.31L151.07,94.54L151.18,94.3L151.37,94.1L151.61,93.97L151.87,93.93L154.69,93.93L154.86,93.97L154.99,94.07L155.08,94.22L155.09,94.39L155.08,94.44L145.63,127.73L145.4,128.13L145,128.36L143.12,128.41L141.25,128.35L140.85,128.12L140.61,127.72L131.26,94.41L131.25,94.35L131.27,94.18L131.35,94.03L131.49,93.93L131.65,93.9L134.47,93.9L134.74,93.95L134.97,94.08L135.16,94.27L135.27,94.52L142.9,123.31L142.98,123.53L143.1,123.62Z" style="fill:rgb(141,142,141);fill-rule:nonzero;"/>
        <path d="M230.44,106.39L230.62,106.33L230.67,106.27L236.65,94.6L236.84,94.33L237.1,94.12L237.4,93.99L237.73,93.94L240.88,93.94L241.09,93.99L241.26,94.13L241.34,94.32L241.34,94.54L241.29,94.65L232.89,109.2L232.79,109.45L232.75,109.72L232.77,109.98L232.86,110.24L241.97,128.25L241.98,128.28L241.96,128.38L241.86,128.42L237.88,128.42L237.69,128.36L237.55,128.21L230.64,113.78L230.56,113.69L230.42,113.64L230.27,113.68L230.2,113.78L223.19,128.16L223.05,128.32L222.86,128.37L218.88,128.34L218.78,128.3L218.76,128.2L218.77,128.17L228,110.22L228.09,109.97L228.11,109.7L228.08,109.43L227.97,109.18L219.67,94.58L219.62,94.46L219.62,94.25L219.71,94.05L219.87,93.92L220.08,93.87L223.23,93.89L223.56,93.94L223.86,94.07L224.12,94.29L224.31,94.56L230.21,106.27L230.26,106.33L230.44,106.39Z" style="fill:rgb(141,142,141);fill-rule:nonzero;"/>
        <path d="M168.05,164.86L168.23,164.83L168.41,164.89L168.54,165.01L168.61,165.18L168.62,165.25L168.62,166.52L168.59,166.72L168.48,166.89L168.33,167.02L168.14,167.09L166.81,167.24L165.67,167.18L165.17,167.07L164.72,166.91L164.32,166.7L163.96,166.43L163.46,165.85L163.09,165.12L162.86,164.24L162.76,163.2L162.69,156.93L162.79,150.37L162.74,150.1L162.59,149.88L162.37,149.72L162.1,149.67L160.61,149.67L160.35,149.62L160.13,149.47L159.98,149.25L159.93,148.99L159.93,148.18L159.97,147.96L160.1,147.78L160.28,147.65L160.5,147.61L162.19,147.61L162.4,147.57L162.58,147.45L162.7,147.28L162.74,147.07L162.74,144.28L162.81,143.91L163.02,143.6L163.33,143.39L163.7,143.32L164.46,143.32L164.63,143.35L164.77,143.45L164.87,143.59L164.9,143.76L164.9,147.1L164.94,147.3L165.05,147.46L165.21,147.57L165.41,147.61L168.02,147.61L168.28,147.66L168.51,147.81L168.66,148.04L168.71,148.3L168.71,148.95L168.65,149.23L168.5,149.47L168.26,149.62L167.98,149.68L165.56,149.68L165.29,149.73L165.07,149.89L164.91,150.11L164.86,150.38L164.88,162.21L164.93,163.12L165.12,163.88L165.42,164.45L165.85,164.86L166.29,165.05L166.82,165.11L167.39,165.05L168.05,164.86Z" style="fill:rgb(141,142,141);fill-rule:nonzero;"/>
        <path d="M158.69,163.67L158.73,163.65L158.85,163.68L158.91,163.8L158.91,165.99L158.86,166.16L158.72,166.27L157.67,166.68L156.65,166.98L155.64,167.17L154.66,167.25L153.72,167.21L152.83,167.05L151.99,166.79L151.21,166.41L150.53,165.95L149.9,165.39L149.34,164.74L148.84,164L148.42,163.17L148.07,162.26L147.8,161.28L147.6,160.23L147.41,158.35L147.38,156.48L147.51,154.74L147.81,153.13L148.27,151.71L148.87,150.46L149.62,149.4L150.51,148.54L151.15,148.09L151.82,147.74L152.53,147.48L153.26,147.33L154,147.29L154.73,147.34L155.44,147.5L156.13,147.77L156.99,148.29L157.76,149L158.38,149.86L158.84,150.84L159.35,152.52L159.6,153.73L159.75,154.97L159.81,156.23L159.77,157.52L159.72,157.72L159.59,157.89L159.42,158L159.22,158.04L150.27,158.04L150.03,158.1L149.84,158.24L149.71,158.45L149.68,158.69L149.79,159.77L149.99,160.78L150.27,161.7L150.64,162.53L151.09,163.25L151.61,163.87L152.19,164.35L152.84,164.71L153.45,164.93L154.11,165.05L154.79,165.07L155.51,164.99L156.27,164.81L157.06,164.52L157.86,164.15L158.69,163.67ZM150.17,155.82L157.17,155.88L157.44,155.77L157.55,155.51L157.55,155.32L157.48,154.18L157.28,153.09L156.94,152.07L156.48,151.18L155.91,150.45L155.27,149.91L154.56,149.57L153.83,149.45L153.63,149.45L152.89,149.56L152.18,149.88L151.52,150.42L150.95,151.14L150.47,152.02L150.11,153.02L149.89,154.12L149.81,155.26L149.81,155.45L149.91,155.71L150.17,155.82Z" style="fill:rgb(141,142,141);fill-rule:nonzero;"/>
        <path d="M232.84,150.04L232.86,150.12L233.01,150.22L233.17,150.14L234,149.08L234.87,148.29L235.32,148L235.78,147.77L236.24,147.6L236.72,147.51L237.38,147.48L237.6,147.54L237.78,147.67L237.91,147.86L237.95,148.09L237.95,149.17L237.9,149.43L237.76,149.66L237.54,149.82L237.28,149.89L236.27,150.04L235.4,150.31L234.68,150.71L234.1,151.23L233.73,151.75L233.46,152.36L233.29,153.05L233.21,153.83L233.1,159.94L233.16,166.49L233.12,166.73L232.98,166.94L232.78,167.08L232.53,167.13L231.43,167.13L231.22,167.09L231.05,166.97L230.93,166.8L230.89,166.59L230.89,148.1L230.92,147.94L231.01,147.81L231.15,147.72L231.31,147.69L232.27,147.69L232.49,147.73L232.67,147.86L232.8,148.04L232.84,148.26L232.84,150.04Z" style="fill:rgb(141,142,141);fill-rule:nonzero;"/>
        <path d="M357.35,148.46L357.09,149.95L356.93,150.18L356.66,150.21L355.67,149.88L354.72,149.69L353.85,149.66L353.02,149.78L352.27,150.05L351.65,150.46L351.17,151L350.86,151.63L350.75,152.2L350.78,152.82L350.95,153.42L351.26,154.02L351.68,154.57L352.24,155.11L352.89,155.59L353.67,156.04L355.43,157.02L356.1,157.48L356.67,157.93L357.15,158.4L357.57,158.91L357.89,159.42L358.14,159.98L358.33,160.66L358.41,161.41L358.38,162.2L358.24,163.06L357.99,163.9L357.65,164.64L357.22,165.31L356.72,165.88L355.99,166.45L355.17,166.88L354.26,167.18L353.23,167.35L352.12,167.38L350.99,167.26L349.82,167.01L348.69,166.62L348.47,166.48L348.3,166.28L348.21,166.03L348.21,165.76L348.44,164.48L348.52,164.31L348.65,164.18L348.83,164.12L349.02,164.15L349.08,164.17L349.83,164.55L350.58,164.84L351.33,165.06L352.03,165.18L352.7,165.21L353.3,165.15L353.86,165L354.4,164.76L354.77,164.51L355.11,164.2L355.56,163.65L355.88,163.11L356.08,162.55L356.14,162L356.1,161.52L355.97,161.06L355.75,160.59L355.44,160.14L355.05,159.7L354.6,159.3L354.06,158.92L353.46,158.58L353.31,158.5L351.38,157.43L350.69,156.97L350.11,156.5L349.6,156L349.21,155.49L348.9,154.96L348.68,154.38L348.56,153.82L348.5,152.56L348.64,151.4L348.97,150.38L349.23,149.91L349.52,149.48L350.14,148.83L350.87,148.32L351.72,147.91L352.67,147.65L353.69,147.51L354.77,147.52L355.89,147.66L357.03,147.94L357.29,148.14L357.35,148.46Z" style="fill:rgb(141,142,141);fill-rule:nonzero;"/>
        <path d="M372.71,147.22L373.406,147.269L374.095,147.416L374.771,147.658L375.427,147.995L376.057,148.422L376.655,148.936L377.214,149.531L377.731,150.202L378.198,150.942L378.613,151.744L378.972,152.601L379.27,153.504L379.504,154.445L379.674,155.414L379.776,156.402L379.81,157.4L379.776,158.398L379.674,159.386L379.504,160.355L379.27,161.296L378.972,162.199L378.613,163.056L378.198,163.858L377.731,164.598L377.214,165.269L376.655,165.864L376.057,166.378L375.427,166.805L374.771,167.142L374.095,167.384L373.406,167.531L372.71,167.58L372.014,167.531L371.325,167.384L370.649,167.142L369.993,166.805L369.363,166.378L368.765,165.864L368.206,165.269L367.69,164.598L367.222,163.858L366.807,163.056L366.448,162.199L366.151,161.296L365.916,160.355L365.746,159.386L365.644,158.398L365.61,157.4L365.644,156.402L365.746,155.414L365.916,154.445L366.151,153.504L366.448,152.601L366.807,151.744L367.222,150.942L367.69,150.202L368.206,149.531L368.765,148.936L369.363,148.422L369.993,147.995L370.649,147.658L371.325,147.416L372.014,147.269L372.71,147.22ZM372.724,149.39L372.257,149.428L371.795,149.542L371.342,149.732L370.901,149.997L370.479,150.332L370.077,150.735L369.354,151.73L368.76,152.943L368.318,154.327L368.044,155.829L367.95,157.392L368.039,158.955L368.307,160.458L368.744,161.843L369.334,163.058L370.054,164.055L370.454,164.46L370.876,164.797L371.315,165.063L371.768,165.255L372.229,165.371L372.696,165.41L373.163,165.372L373.625,165.258L374.078,165.068L374.519,164.803L374.942,164.468L375.343,164.065L376.066,163.07L376.66,161.857L377.102,160.473L377.376,158.971L377.47,157.408L377.381,155.845L377.113,154.342L376.676,152.957L376.086,151.742L375.366,150.745L374.966,150.34L374.545,150.003L374.105,149.737L373.652,149.546L373.191,149.429L372.724,149.39Z" style="fill:rgb(141,142,141);fill-rule:nonzero;"/>
        <path d="M163.21,2.87L162.24,4.16L161.19,5.28L160.04,6.26L158.81,7.07L158.05,7.47L157.26,7.82L155.6,8.36L153.82,8.69L151.92,8.81L151.64,8.85L151.37,8.95L151.14,9.11L150.96,9.33L149,12.44L146.76,15.97L145.15,18.34L143.6,20.41L141.99,22.29L139.86,24.46L139.48,24.7L139.03,24.79L136.6,24.79L136.35,24.75L136.12,24.65L135.92,24.48L135.78,24.26L135.63,23.81L135.62,23.39L135.7,23.06L135.86,22.74L135.88,22.92L135.95,23.06L136.2,23.16L136.37,23.12L136.49,23.01L148.3,3.32L148.45,3.13L148.65,2.98L148.88,2.88L149.13,2.85L163.21,2.87Z" style="fill:rgb(136,101,179);fill-rule:nonzero;"/>
        <path d="M380.03,22.13L380.08,25.69L380.05,25.86L379.95,25.99L379.8,26.07L379.63,26.08L379.57,26.07L375.61,24.85L372.07,23.97L370.42,23.65L368.84,23.41L367.29,23.24L365.81,23.15L364.36,23.14L362.98,23.2L361.64,23.33L360.32,23.55L359.07,23.84L357.84,24.21L356.67,24.66L355.51,25.19L354.41,25.79L353.33,26.49L352.3,27.26L351.29,28.12L350.18,29.23L349.16,30.41L348.23,31.68L347.4,33.01L346.66,34.42L346.03,35.88L345.5,37.41L345.09,38.98L344.79,40.57L344.61,42.19L344.55,43.81L344.6,45.43L344.78,47.05L345.07,48.65L345.48,50.19L346,51.71L348.64,58.6L348.68,58.77L348.63,59.03L348.47,59.23L348.23,59.34L347.97,59.33L342.25,57.72L341.57,56.48L340.95,55.21L340.41,53.91L339.93,52.58L339.52,51.22L339.19,49.85L338.93,48.46L338.75,47.06L338.63,45.65L338.6,44.24L338.64,42.82L338.75,41.41L338.94,40.01L339.2,38.63L339.54,37.25L339.95,35.9L340.74,33.8L341.71,31.78L342.84,29.84L344.14,28.01L345.58,26.29L347.16,24.7L348.87,23.25L350.69,21.95L352.35,20.95L354.09,20.07L355.88,19.33L357.72,18.71L359.6,18.23L361.51,17.89L363.45,17.69L365.39,17.63L367.33,17.72L369.26,17.94L371.16,18.3L373.04,18.81L374.87,19.44L376.66,20.21L378.38,21.11L380.03,22.13Z" style="fill:rgb(136,101,179);fill-rule:nonzero;"/>
        <path d="M283.56,22.74L283.3,25.26L283.21,25.54L283.01,25.77L282.74,25.89L282.44,25.88L282.36,25.86L280.52,25.24L278.72,24.71L276.9,24.26L275.12,23.9L273.36,23.63L271.66,23.45L269.98,23.36L268.31,23.36L266.73,23.45L265.16,23.63L263.65,23.89L262.17,24.26L260.77,24.7L259.4,25.23L258.09,25.85L256.81,26.57L255.61,27.36L254.45,28.24L253.36,29.2L252.3,30.26L251.18,31.58L250.2,32.96L249.32,34.46L248.59,36.02L247.99,37.67L247.53,39.35L247.21,41.14L247.03,42.94L246.99,44.81L247.09,46.68L247.34,48.61L247.73,50.52L248.26,52.43L248.92,54.3L249.71,56.13L250.62,57.89L251.65,59.58L252.78,61.18L252.95,61.55L252.93,61.96L252.74,62.32L252.41,62.56L252.18,62.62L249.52,62.96L248.38,61.66L247.34,60.31L246.38,58.91L245.53,57.48L244.76,55.98L244.1,54.46L243.54,52.88L243.08,51.3L242.67,49.37L242.41,47.44L242.29,45.47L242.33,43.51L242.51,41.54L242.83,39.59L243.3,37.67L243.91,35.79L244.65,33.96L245.53,32.18L246.54,30.47L247.68,28.83L248.92,27.29L250.28,25.84L251.73,24.51L253.3,23.28L254.53,22.42L255.83,21.64L257.15,20.93L258.53,20.3L259.93,19.75L261.38,19.26L262.84,18.87L264.35,18.54L265.67,18.33L266.99,18.19L268.3,18.12L269.61,18.13L271.37,18.25L273.13,18.5L274.87,18.88L276.62,19.39L278.36,20.04L280.1,20.81L281.83,21.71L283.56,22.74Z" style="fill:rgb(136,101,179);fill-rule:nonzero;"/>
        <path d="M244.5,18.74L242.82,20.83L241.37,22.47L240.14,23.66L239.15,24.4L237.89,25.02L236.13,25.71L233.87,26.46L231.1,27.28L230.87,27.31L230.64,27.26L230.45,27.14L230.3,26.96L229.82,26.24L229.28,25.64L228.69,25.18L228.05,24.85L227.27,24.63L226.43,24.58L225.52,24.69L224.54,24.97L224.18,25.13L223.84,25.35L223.55,25.61L223.29,25.92L223.09,26.26L222.94,26.63L222.86,27.02L222.83,27.42L223.14,57.98L223.11,59.28L223.02,60.55L222.85,61.77L222.62,62.96L222.31,64.11L221.94,65.23L221.5,66.3L220.98,67.34L220.14,68.75L219.15,70.08L218.77,70.09L218.42,70L218.4,69.99L218.14,69.76L218.04,69.42L218.04,20.28L218.1,20.02L218.33,19.76L218.66,19.66L231.49,19.66L231.8,19.74L232.03,19.97L232.12,20.29L232.12,25.44L232.14,25.52L232.28,25.62L232.44,25.55L235.08,22.33L235.76,21.63L236.58,21L237.54,20.44L238.64,19.95L239.89,19.54L241.29,19.2L242.82,18.93L244.5,18.74Z" style="fill:rgb(136,101,179);fill-rule:nonzero;"/>
        <path d="M106.88,65.26L126.34,34.97L126.73,34.98L127.26,34.88L127.31,34.87L127.47,34.88L127.62,34.96L127.72,35.09L127.75,35.25L127.65,37L127.36,38.7L127.12,39.66L126.81,40.61L126.44,41.55L126.01,42.47L124.77,44.71L122.71,48.1L119.81,52.64L116.09,58.33L115.45,59.25L114.77,60.11L114.06,60.91L113.32,61.65L112.55,62.33L111.75,62.95L110.91,63.52L110.05,64.02L108.51,64.72L106.88,65.26Z" style="fill:rgb(136,101,179);fill-rule:nonzero;"/>
        <path d="M181.31,55.24L182.86,55.95L184.44,56.48L186.03,56.82L187.57,56.96L189.13,56.92L190.62,56.67L192.07,56.24L193.44,55.63L194.3,55.12L195.12,54.53L195.88,53.87L196.59,53.15L197.22,52.37L197.8,51.53L198.31,50.63L198.74,49.68L199.1,48.7L199.39,47.68L199.59,46.64L199.72,45.57L199.77,44.47L199.74,43.34L199.63,42.21L199.44,41.06L203.49,39.83L203.97,39.78L204.43,39.93L204.8,40.25L205.01,40.69L205.02,40.75L205.33,42.72L205.49,44.59L205.5,46.37L205.36,48.05L205.08,49.64L204.64,51.13L204.06,52.53L203.33,53.84L202.36,55.16L201.22,56.37L199.89,57.47L198.39,58.45L197.36,59L196.29,59.48L195.16,59.9L194,60.24L192.77,60.52L191.53,60.73L190.24,60.86L188.94,60.92L187.61,60.91L186.28,60.82L184.95,60.66L183.64,60.43L182.33,60.13L181.05,59.76L179.8,59.32L178.59,58.82L178.24,58.55L178.04,58.15L178.05,57.71L178.25,57.32L178.45,57.14L181.31,55.24Z" style="fill:rgb(136,101,179);fill-rule:nonzero;"/>
        <path d="M361.82,56.22L363.02,56.45L364.19,56.57L365.37,56.59L366.51,56.5L367.65,56.31L368.75,56.01L369.83,55.6L370.86,55.1L371.65,54.61L372.4,54.07L373.11,53.48L373.76,52.83L374.37,52.12L374.92,51.38L375.42,50.58L375.86,49.75L376.23,48.9L376.53,48.02L376.78,47.1L376.95,46.16L377.06,45.21L377.1,44.23L377.08,43.26L376.98,42.28L377.58,41.69L378.15,41.3L378.69,41.09L379.2,41.07L379.7,41.24L380.16,41.6L380.39,41.89L380.54,42.23L381,43.94L381.3,45.63L381.44,47.32L381.41,48.99L381.19,50.77L380.79,52.54L380.25,54.1L379.54,55.53L378.69,56.78L377.68,57.9L376.94,58.53L376.16,59.09L375.31,59.59L374.41,60.01L373.44,60.37L372.43,60.65L371.37,60.86L370.28,60.99L369.13,61.06L367.97,61.04L366.76,60.95L365.56,60.78L364.35,60.54L363.16,60.23L361.96,59.84L360.79,59.39L360.42,59.12L360.2,58.72L360.15,58.13L360.3,57.63L360.63,57.14L361.13,56.67L361.82,56.22Z" style="fill:rgb(136,101,179);fill-rule:nonzero;"/>
        <path d="M10.61,26.53L10.81,25.04L11.09,23.62L11.44,22.27L11.87,21L12.37,19.79L12.95,18.66L13.61,17.59L14.34,16.6L16.23,14.14L16.82,13.26L17.17,12.6L17.96,10.55L18.67,8.26L19.29,5.72L19.83,2.93L21.32,5.73L22.63,8.57L23.73,11.46L24.65,14.4L24.64,14.68L24.49,14.91L10.61,26.53Z" style="fill:rgb(98,98,101);fill-rule:nonzero;"/>
        <path d="M40.52,32.51L40.61,31.38L40.76,30.3L40.99,29.28L41.28,28.32L41.63,27.41L42.06,26.56L42.55,25.76L43.11,25.01L43.29,24.8L43.76,24.17L44.1,23.49L44.31,22.78L44.4,22.03L44.67,12.81L48.68,22.65L48.73,22.87L48.72,23.09L48.65,23.3L48.53,23.49L40.52,32.51Z" style="fill:rgb(98,98,101);fill-rule:nonzero;"/>
        <path d="M45.32,45.7L45.85,44.04L46.7,41.78L47.67,39.56L48.78,37.38L50.01,35.25L50.19,34.82L50.27,34.37L50.48,26.65L54.8,35.51L54.87,35.72L54.88,35.95L54.82,36.16L54.71,36.36L46.54,46.7L46.36,46.84L46.14,46.89L45.92,46.84L45.74,46.7L45.5,46.28L45.32,45.7Z" style="fill:rgb(98,98,101);fill-rule:nonzero;"/>
        <path d="M80.31,45.81L80.51,45.84L80.66,45.8L80.76,45.67L80.8,45.47L80.74,44.83L80.57,44.33L80.32,43.86L79.99,43.32L79.72,42.73L79.52,42.09L79.38,41.42L79.29,40.7L79.27,39.93L79.42,38.27L79.54,37.83L79.75,37.43L80.45,36.23L81.02,34.87L81.45,33.37L81.75,31.72L85.22,38.59L85.33,38.88L85.37,39.19L85.34,39.5L85.25,39.79L81.9,47.38L81.86,47.46L81.72,47.58L81.54,47.63L81.35,47.6L81.2,47.49L80.91,47.13L80.67,46.73L80.31,45.81Z" style="fill:rgb(98,98,101);fill-rule:nonzero;"/>
        <path d="M32.76,33.16L38.63,44.46L38.68,44.8L38.53,45.11L26.81,57.43L26.95,55.54L27.2,53.76L27.57,52.09L28.06,50.53L28.66,49.08L29.38,47.74L30.21,46.51L31.16,45.39L31.5,45.04L31.79,44.68L32,44.27L32.11,43.83L32.12,43.37L31.99,41.27L31.93,39.16L31.97,37.03L32.08,34.89L31.88,34.75L31.77,34.58L31.77,34.3L31.94,33.97L32.27,33.59L32.76,33.16Z" style="fill:rgb(98,98,101);fill-rule:nonzero;"/>
        <path d="M40.71,48.18L47.44,59.56L47.52,59.77L47.54,59.99L47.49,60.21L47.37,60.4L36.87,73.06L36.93,62.32L36.99,61.95L37.17,61.6L39.45,58.47L39.63,58.11L39.66,57.71L39.58,56.3L39.57,54.91L39.65,53.52L39.8,52.15L40.17,50.15L40.71,48.18Z" style="fill:rgb(98,98,101);fill-rule:nonzero;"/>
        <path d="M19.83,2.93L19.29,5.72L18.67,8.26L17.96,10.55L17.17,12.6L16.82,13.26L16.23,14.14L14.34,16.6L13.61,17.59L12.95,18.66L12.37,19.79L11.87,21L11.44,22.27L11.09,23.62L10.81,25.04L10.61,26.53L5.24,14.81L5.21,14.46L5.4,14.16L19.83,2.93Z" style="fill:rgb(183,181,183);fill-rule:nonzero;"/>
        <path d="M44.67,12.81L44.4,22.03L44.31,22.78L44.1,23.49L43.76,24.17L43.29,24.8L43.11,25.01L42.55,25.76L42.06,26.56L41.63,27.41L41.28,28.32L40.99,29.28L40.76,30.3L40.61,31.38L40.52,32.51L40.08,33.14L39.61,33.56L39.43,33.63L39.23,33.63L39.05,33.55L38.92,33.4L38.91,33.38L34.26,24.19L34.18,23.94L34.18,23.67L34.26,23.42L34.42,23.2L44.67,12.81Z" style="fill:rgb(183,181,183);fill-rule:nonzero;"/>
        <path d="M26.3,18.51L25.68,19.32L25.15,20.19L24.65,21.27L24.26,22.45L23.96,23.77L23.65,25.67L23.39,27.31L23.25,27.88L23.02,28.42L22.71,28.92L22.32,29.36L21.55,30.18L20.99,30.91L20.46,31.72L19.99,32.55L19.56,33.46L18.8,35.51L18,38.39L17.35,40.76L11.65,29.56L11.6,29.21L11.78,28.91L25.18,17.62L25.41,17.5L25.68,17.49L25.92,17.6L26.09,17.8L26.14,17.92L26.3,18.51Z" style="fill:rgb(183,181,183);fill-rule:nonzero;"/>
        <path d="M50.48,26.65L50.27,34.37L50.19,34.82L50.01,35.25L48.78,37.38L47.67,39.56L46.7,41.78L45.85,44.04L45.32,45.7L40.39,36.53L40.3,36.29L40.29,36.03L40.37,35.78L40.51,35.57L49.64,25.84L49.79,25.74L49.97,25.71L50.15,25.76L50.28,25.88L50.32,25.94L50.43,26.26L50.48,26.65Z" style="fill:rgb(183,181,183);fill-rule:nonzero;"/>
        <path d="M91.73,30.29L89.96,37.8L89.97,38.24L90.18,38.61L90.77,39.3L91.23,40.01L91.54,40.75L91.71,41.49L91.74,42.24L91.64,43L88.76,37.94L88.62,37.47L88.71,37L91.73,30.29Z" style="fill:rgb(183,181,183);fill-rule:nonzero;"/>
        <path d="M81.75,31.72L81.45,33.37L81.02,34.87L80.45,36.23L79.75,37.43L79.54,37.83L79.42,38.27L79.27,39.93L79.29,40.7L79.38,41.42L79.52,42.09L79.72,42.73L79.99,43.32L80.32,43.86L80.57,44.33L80.74,44.83L80.8,45.47L80.76,45.67L80.66,45.8L80.51,45.84L80.31,45.81L77.35,40.64L77.26,40.42L77.23,40.19L77.25,39.96L77.34,39.74L81.75,31.72Z" style="fill:rgb(183,181,183);fill-rule:nonzero;"/>
        <path d="M32.76,33.16L32.27,33.59L31.94,33.97L31.77,34.3L31.77,34.58L31.88,34.75L32.08,34.89L31.97,37.03L31.93,39.16L31.99,41.27L32.12,43.37L32.11,43.83L32,44.27L31.79,44.68L31.5,45.04L31.16,45.39L30.21,46.51L29.38,47.74L28.66,49.08L28.06,50.53L27.57,52.09L27.2,53.76L26.95,55.54L26.81,57.43L19.31,44.88L19.22,44.64L19.21,44.38L19.28,44.13L19.44,43.92L31.73,32.54L31.92,32.42L32.15,32.39L32.37,32.46L32.54,32.6L32.57,32.65L32.76,33.16Z" style="fill:rgb(183,181,183);fill-rule:nonzero;"/>
        <path d="M56.21,38.26L55.78,40.29L55.33,42.02L54.88,43.45L54.41,44.58L53.59,46.08L52.29,48.19L52.13,48.6L52.12,49.04L54.11,60.46L47.41,49.9L47.32,49.7L47.3,49.48L47.35,49.26L47.46,49.06L56.21,38.26Z" style="fill:rgb(183,181,183);fill-rule:nonzero;"/>
        <path d="M40.71,48.18L40.17,50.15L39.8,52.15L39.65,53.52L39.57,54.91L39.58,56.3L39.66,57.71L39.63,58.11L39.45,58.47L37.17,61.6L36.99,61.95L36.93,62.32L36.87,73.06L28.26,60.2L28.17,60L28.15,59.77L28.2,59.56L28.32,59.37L39.5,47.46L39.72,47.31L39.98,47.27L40.23,47.35L40.42,47.52L40.48,47.63L40.71,48.18Z" style="fill:rgb(183,181,183);fill-rule:nonzero;"/>
        <path d="M49.5,62.62L49.14,64.03L48.71,65.39L48.22,66.69L47.67,67.94L47.05,69.14L46.37,70.29L45.63,71.39L44.82,72.43L43.97,73.4L43.71,73.81L43.62,74.29L43.62,77.26L43.68,77.75L43.85,78.21L44.38,79.31L44.83,80.48L45.21,81.73L45.52,83.04L45.71,83.69L46.09,84.57L46.46,85.42L46.69,86.09L46.8,86.72L46.82,87.32L46.8,87.56L38.55,75.97L38.45,75.78L38.43,75.56L38.47,75.35L38.58,75.17L49.5,62.62Z" style="fill:rgb(183,181,183);fill-rule:nonzero;"/>
        <path d="M64.16,52.78L69.94,62.3L70.03,62.51L70.06,62.74L70.03,62.97L69.94,63.18L63.08,74.48L62.8,73.04L62.47,71.63L62.08,70.26L61.63,68.92L61.13,67.61L60.58,66.34L59.97,65.1L59.31,63.9L59.15,63.51L59.1,63.1L59.19,62.26L59.52,61.3L60.18,60.1L60.77,59.08L61.15,58.2L61.2,58.05L61.76,56.67L62.44,55.33L63.24,54.03L64.16,52.78Z" style="fill:rgb(195,10,128);fill-rule:nonzero;"/>
        <path d="M306.29,2.9L305.57,3.9L304.78,4.82L303.93,5.65L303.01,6.39L301.96,7.08L300.84,7.67L300.57,7.85L300.37,8.09L300.23,8.37L300.18,8.68L300.11,15.21L300.14,21.82L300.24,23.26L300.53,25.14L300.98,27.47L301.62,30.23L302.17,32.64L302.63,35.07L303.01,37.5L303.32,39.94L303.54,42.39L303.69,44.86L303.73,46.95L303.64,48.97L303.44,50.94L303.13,52.84L302.69,54.69L302.14,56.47L301.47,58.19L300.68,59.85L299.5,61.89L298.13,63.82L296.56,65.66L294.8,67.4L294.48,65.44L294.34,63.86L294.4,62.63L294.49,62.16L294.64,61.78L295.66,59.66L296.54,57.55L297.28,55.43L297.89,53.31L298.36,51.2L298.69,49.08L298.88,46.97L298.94,44.86L298.87,42.83L298.67,40.8L298.34,38.76L297.89,36.73L297.31,34.7L296.6,32.68L295.77,30.65L294.81,28.62L294.54,27.89L294.45,27.12L294.45,3.48L294.55,3.16L294.75,2.99L295,2.93L306.29,2.9Z" style="fill:rgb(155,124,194);fill-rule:nonzero;"/>
        <path d="M330.7,3.07L330.71,3.73L330.58,4.33L330.38,4.8L330.09,5.23L329.71,5.62L329.27,5.97L328.72,6.3L328.12,6.57L327.47,6.78L326.75,6.95L326.32,7.07L325.92,7.26L325.56,7.51L325.24,7.83L324.99,8.19L324.8,8.6L324.69,9.03L324.65,9.47L324.65,21.12L324.61,21.55L324.48,21.97L324.28,22.36L324.01,22.7L323.67,22.98L323.29,23.19L322.87,23.32L322.44,23.37L319.01,23.39L314.79,23.33L314.24,23.28L313.77,23.16L313.36,22.97L313.01,22.71L312.68,22.27L312.45,21.72L312.34,21.05L312.34,20.26L313.47,19.9L314.82,19.66L316.4,19.53L318.2,19.51L318.4,19.47L318.57,19.36L318.69,19.19L318.73,18.99L318.73,3.59L318.77,3.38L318.89,3.19L319.08,3.07L319.29,3.03L330.7,3.07Z" style="fill:rgb(155,124,194);fill-rule:nonzero;"/>
        <path d="M212.23,19.76L211.75,21.05L211.15,22.11L210.81,22.54L210.43,22.92L210.03,23.24L209.59,23.49L209.02,23.73L208.4,23.87L206.98,24.16L205.62,24.58L204.05,25.26L202.56,26.14L202.08,26.42L201.56,26.63L201.02,26.77L200.46,26.85L199.89,26.85L199.31,26.78L198.75,26.64L198.2,26.44L194.89,25.03L192.39,24.15L191.24,23.82L190.15,23.58L189.08,23.4L187.98,23.29L186.67,23.24L185.31,23.3L183.92,23.45L182.45,23.71L180.84,24.09L179.32,24.56L177.88,25.11L176.54,25.74L175.27,26.45L174.1,27.25L173.01,28.13L172.01,29.09L170.9,30.38L169.92,31.8L169.07,33.34L168.35,35.01L167.76,36.8L167.31,38.72L166.98,40.76L166.78,42.92L166.79,43.88L166.92,45.4L167.08,47.43L167.07,48.9L166.88,50.16L166.72,50.71L166.5,51.23L166.37,51.42L166.19,51.56L165.98,51.64L165.75,51.66L164.5,51.49L163.27,51.18L162.04,50.74L160.82,50.15L160.48,48.05L160.31,45.96L160.29,43.87L160.44,41.81L160.74,39.75L161.2,37.74L161.82,35.76L162.59,33.85L163.51,32L164.57,30.24L165.77,28.58L167.09,27.01L168.53,25.57L170.09,24.24L171.73,23.05L173.48,22L174.93,21.26L176.43,20.62L177.96,20.08L179.54,19.64L181.13,19.3L182.77,19.06L184.41,18.92L186.09,18.88L187.43,18.94L188.74,19.1L190.02,19.35L191.26,19.71L192.27,20.07L193.25,20.51L194.21,21L195.15,21.57L196.07,22.2L196.96,22.9L197.84,23.67L198.69,24.5L198.84,24.59L199.02,24.6L199.18,24.53L199.28,24.39L199.31,24.25L199.31,20.34L199.35,20.11L199.48,19.92L199.67,19.79L199.9,19.74L212.23,19.76Z" style="fill:rgb(155,124,194);fill-rule:nonzero;"/>
        <path d="M318.77,63.07L318.76,39.16L319.37,39.29L319.94,39.48L320.47,39.73L320.95,40.04L321.4,40.43L321.81,40.9L322.16,41.43L322.47,42.03L322.72,42.7L322.92,43.44L323.07,44.25L323.17,45.12L323.24,46.03L323.48,49.24L323.57,51.58L323.52,53.63L323.33,55.46L322.97,57.15L322.45,58.66L321.77,60L320.92,61.19L319.92,62.2L318.77,63.07Z" style="fill:rgb(155,124,194);fill-rule:nonzero;"/>
        <path d="M282.52,55.49L281.98,56.24L281.39,56.93L280.72,57.59L280,58.19L279.24,58.72L278.43,59.19L277.6,59.59L276.74,59.92L275.87,60.17L274.99,60.34L274.11,60.43L273.21,60.44L272.35,60.37L271.49,60.22L270.67,59.99L269.87,59.68L268.71,59.04L267.67,58.25L269.15,58.3L270.58,58.21L271.96,57.97L273.28,57.58L274.11,57.26L274.91,56.87L275.7,56.43L276.46,55.92L277.01,55.64L277.62,55.54L282.52,55.49Z" style="fill:rgb(155,124,194);fill-rule:nonzero;"/>
        <path d="M17.35,40.76L18,38.39L18.8,35.51L19.56,33.46L19.99,32.55L20.46,31.72L20.99,30.91L21.55,30.18L22.32,29.36L22.71,28.92L23.02,28.42L23.25,27.88L23.39,27.31L23.65,25.67L23.96,23.77L24.26,22.45L24.65,21.27L25.15,20.19L25.68,19.32L26.3,18.51L31,29.04L31.06,29.25L31.05,29.47L30.97,29.68L30.83,29.85L18.26,41.5L18.05,41.6L17.82,41.56L17.72,41.5L17.48,41.2L17.35,40.76Z" style="fill:rgb(114,109,122);fill-rule:nonzero;"/>
        <path d="M75.73,37.76L72.2,30.77L72.16,30.62L72.21,30.47L76.68,22.72L76.78,22.62L76.92,22.56L77.11,22.6L77.25,22.74L80.78,29.73L80.82,29.88L80.77,30.03L76.3,37.78L76.17,37.9L76.01,37.94L75.85,37.89L75.73,37.76Z" style="fill:rgb(114,109,122);fill-rule:nonzero;"/>
        <path d="M87.6,21.99L90.65,28.02L90.71,28.24L90.67,28.46L87.98,35.65L87.92,35.74L87.81,35.82L87.67,35.84L87.54,35.79L87.45,35.68L84.64,30.14L84.51,29.78L84.46,29.41L84.49,29.03L84.61,28.67L87.56,21.99L87.58,21.98L87.6,21.99Z" style="fill:rgb(114,109,122);fill-rule:nonzero;"/>
        <path d="M66.39,47.69L61.62,39.42L61.57,39.25L61.62,39.08L67.67,29.36L67.78,29.25L67.93,29.2L68.12,29.25L68.24,29.38L72.7,38.18L72.73,38.35L72.68,38.51L66.96,47.7L66.75,47.85L66.55,47.83L66.39,47.69Z" style="fill:rgb(114,109,122);fill-rule:nonzero;"/>
        <path d="M54.11,60.46L52.12,49.04L52.13,48.6L52.29,48.19L53.59,46.08L54.41,44.58L54.88,43.45L55.33,42.02L55.78,40.29L56.21,38.26L61.77,48.57L61.85,48.78L61.87,49L61.82,49.22L61.72,49.42L54.11,60.46Z" style="fill:rgb(114,109,122);fill-rule:nonzero;"/>
        <path d="M72.9,59.24L67.68,50.19L67.63,50.02L67.68,49.85L73.36,40.75L73.48,40.63L73.64,40.59L73.81,40.64L73.92,40.76L78.93,49.45L78.98,49.61L78.93,49.77L73.48,59.23L73.38,59.34L73.25,59.39L73.05,59.37L72.9,59.24Z" style="fill:rgb(114,109,122);fill-rule:nonzero;"/>
        <path d="M46.8,87.56L46.82,87.32L46.8,86.72L46.69,86.09L46.46,85.42L46.09,84.57L45.71,83.69L45.52,83.04L45.21,81.73L44.83,80.48L44.38,79.31L43.85,78.21L43.68,77.75L43.62,77.26L43.62,74.29L43.71,73.81L43.97,73.4L44.82,72.43L45.63,71.39L46.37,70.29L47.05,69.14L47.67,67.94L48.22,66.69L48.71,65.39L49.14,64.03L49.5,62.62L57.77,75.52L57.85,75.7L57.88,75.9L57.75,76.27L48.58,88.87L48.42,89.02L48.21,89.1L47.99,89.08L47.79,88.99L47.48,88.72L47.22,88.39L46.99,88.01L46.8,87.56Z" style="fill:rgb(90,83,100);fill-rule:nonzero;"/>
        <path d="M64.16,52.78L63.24,54.03L62.44,55.33L61.76,56.67L61.2,58.05L61.15,58.2L60.77,59.08L60.18,60.1L59.52,61.3L59.19,62.26L59.1,63.1L59.15,63.51L59.31,63.9L59.97,65.1L60.58,66.34L61.13,67.61L61.63,68.92L62.08,70.26L62.47,71.63L62.8,73.04L63.08,74.48L55.62,63.35L55.52,63.14L55.49,62.91L55.53,62.69L55.63,62.48L63.25,52.02L63.27,52L63.39,51.9L63.54,51.86L63.7,51.89L63.83,51.97L64.05,52.3L64.16,52.78Z" style="fill:rgb(248,128,196);fill-rule:nonzero;"/>
        <path d="M91.64,43L91.74,42.24L91.71,41.49L91.54,40.75L91.23,40.01L90.77,39.3L90.18,38.61L89.97,38.24L89.96,37.8L91.73,30.29L94.65,36L94.74,36.3L94.71,36.61L92.73,43.59L92.59,43.82L92.35,43.95L92.08,43.94L91.85,43.8L91.73,43.54L91.64,43Z" style="fill:rgb(75,48,121);fill-rule:nonzero;"/>
        <path d="M87.16,42.31L90.61,48.29L90.75,48.75L90.68,49.22L87.27,57.79L84.73,50.59L84.67,50.07L84.8,48.93L85,47.82L85.26,46.72L85.59,45.65L86.29,43.95L87.16,42.31Z" style="fill:rgb(75,48,121);fill-rule:nonzero;"/>
        <path d="M81.18,72.42L79.76,68.75L78.29,65.51L78.08,64.83L77.95,63.81L77.88,62.42L77.89,60.69L77.98,60.36L78.2,60.11L78.41,59.98L78.59,59.84L78.72,59.65L79.36,58.12L79.83,56.43L80.11,54.57L80.22,52.55L85.65,61.58L85.78,62.01L85.7,62.45L81.18,72.42Z" style="fill:rgb(75,48,121);fill-rule:nonzero;"/>
        <path d="M72.13,65.32L79.07,76.02L79.19,76.28L79.25,76.57L79.22,76.86L79.12,77.13L73.18,88.21L73.04,88.36L72.84,88.41L72.63,88.38L72.49,88.29L72.43,88.11L72.46,87.86L71.81,85.49L71.19,83.63L70.61,82.3L70.33,81.83L70.06,81.49L69.51,80.86L69.05,80.2L68.68,79.51L68.39,78.79L68.21,78.09L68.11,77.36L68.09,76.62L68.14,75.84L68.19,75.63L72.13,65.32Z" style="fill:rgb(75,48,121);fill-rule:nonzero;"/>
        <path d="M87.16,42.31L86.29,43.95L85.59,45.65L85.26,46.72L85,47.82L84.8,48.93L84.67,50.07L84.73,50.59L87.27,57.79L82.68,50.2L82.53,49.73L82.62,49.25L86.03,41.53L86.13,41.39L86.27,41.3L86.53,41.28L86.75,41.41L86.94,41.65L87.08,41.96L87.16,42.31Z" style="fill:rgb(169,159,186);fill-rule:nonzero;"/>
        <path d="M80.22,52.55L80.11,54.57L79.83,56.43L79.36,58.12L78.72,59.65L78.59,59.84L78.41,59.98L78.2,60.11L77.98,60.36L77.89,60.69L77.88,62.42L77.95,63.81L78.08,64.83L78.29,65.51L79.76,68.75L81.18,72.42L74.92,63.18L74.82,62.98L74.77,62.75L74.79,62.52L74.87,62.31L80.22,52.55Z" style="fill:rgb(169,159,186);fill-rule:nonzero;"/>
        <path d="M72.13,65.32L68.19,75.63L68.14,75.84L68.09,76.62L68.11,77.36L68.21,78.09L68.39,78.79L68.68,79.51L69.05,80.2L69.51,80.86L70.06,81.49L70.33,81.83L70.61,82.3L71.19,83.63L71.81,85.49L72.46,87.86L64.78,77.36L64.68,77.16L64.64,76.94L64.67,76.71L64.76,76.51L72.13,65.32Z" style="fill:rgb(169,159,186);fill-rule:nonzero;"/>
        <path d="M96.38,31.78L96.28,32.45L96.2,32.8L96.09,32.95L95.92,33.03L95.74,33.02L95.58,32.93L95.5,32.82L93.27,28.41L93.13,27.94L93.18,27.45L94.82,21.66L94.88,21.55L95,21.46L95.15,21.44L95.29,21.5L95.39,21.61L97.52,25.82L97.68,26.24L97.77,26.69L97.76,27.14L97.67,27.59L96.38,31.78Z" style="fill:rgb(119,103,150);fill-rule:nonzero;"/>
        <path d="M62.67,82.46L62.07,86.42L61.4,90.36L60.68,94.25L59.9,98.12L59.78,98.9L59.75,99.76L59.79,100.69L59.91,101.7L60.11,102.79L60.39,103.95L61.19,106.5L50.34,92.6L50.23,92.29L50.33,91.98L59.72,79.08L59.94,78.94L60.14,78.96L60.3,79.08L62.67,82.46Z" style="fill:rgb(119,103,150);fill-rule:nonzero;"/>
        <path d="M203.03,163.98L202.51,164.53L201.95,165.01L201.34,165.46L200.7,165.85L200.02,166.18L199.33,166.44L198.62,166.63L197.91,166.77L197.19,166.83L196.48,166.82L195.78,166.75L195.1,166.61L194.44,166.4L193.81,166.12L193.24,165.79L192.71,165.39L191.9,164.58L191.26,163.63L190.77,162.52L190.45,161.31L190.27,159.88L190.28,158.53L190.48,157.25L190.86,156.05L191.15,155.42L191.5,154.81L192.36,153.67L193.45,152.62L194.77,151.66L194.8,151.64L194.94,151.48L195,151.28L194.98,151.07L194.88,150.89L194.12,149.9L193.49,148.81L193.01,147.7L192.68,146.55L192.54,145.44L192.58,144.41L192.8,143.41L193.18,142.52L193.49,142.03L193.86,141.57L194.28,141.15L194.76,140.77L195.5,140.32L196.27,139.99L197.1,139.78L197.94,139.69L198.78,139.74L199.6,139.92L200.35,140.21L201.05,140.63L201.83,141.32L202.44,142.15L202.9,143.09L203.16,144.1L203.23,145.09L203.11,146.13L202.8,147.14L202.31,148.16L201.64,149.17L200.82,150.11L199.86,150.98L198.81,151.73L198.67,151.86L198.59,152.03L198.57,152.22L198.62,152.4L198.65,152.45L202.95,159.24L203.09,159.39L203.32,159.47L203.56,159.43L203.75,159.28L203.85,159.06L205.11,151.99L205.18,151.81L205.3,151.67L205.46,151.57L205.65,151.54L206.83,151.54L207.09,151.66L207.19,151.94L206.91,154.44L206.44,156.84L205.75,159.14L204.87,161.34L204.81,161.56L204.81,161.79L204.87,162.01L204.99,162.21L208.09,165.88L208.16,166L208.18,166.19L208.11,166.37L207.97,166.49L207.78,166.54L206.2,166.54L205.86,166.5L205.54,166.37L205.26,166.17L205.04,165.9L203.87,164.05L203.71,163.89L203.5,163.81L203.28,163.82L203.08,163.93L203.03,163.98ZM197.13,150.39L197.16,150.39L197.21,150.38L198.39,149.45L199.32,148.59L199.99,147.82L200.4,147.13L200.62,146.5L200.77,145.84L200.82,145.18L200.79,144.52L200.66,143.95L200.45,143.42L200.17,142.97L199.8,142.58L199.13,142.17L198.35,141.96L197.54,141.94L196.78,142.15L196.32,142.41L195.92,142.77L195.56,143.22L195.29,143.73L195.06,144.35L194.93,145L194.88,145.67L194.92,146.34L195.12,147.12L195.55,148.05L196.19,149.13L197.06,150.36L197.11,150.38L197.13,150.39ZM202.42,161.95L196.69,153.48L196.51,153.37L196.3,153.41L195.23,154.14L194.29,154.89L193.5,155.78L192.89,156.78L192.49,157.84L192.3,158.92L192.34,159.99L192.6,160.99L193.07,161.9L193.26,162.18L193.93,162.96L194.77,163.58L195.74,164.01L196.82,164.23L197.95,164.25L199.1,164.05L200.22,163.65L201.27,163.06L202.35,162.34L202.46,162.16L202.42,161.95Z" style="fill:rgb(146,150,145);fill-rule:nonzero;"/>
        <path d="M130.52,149.47L131.19,148.76L131.9,148.2L132.64,147.78L133.42,147.51L134.16,147.39L134.93,147.39L135.72,147.51L136.55,147.76L137.09,147.99L137.65,148.32L138.15,148.73L138.62,149.22L139.03,149.77L139.42,150.42L139.75,151.13L140.04,151.9L140.29,152.77L140.49,153.72L140.65,154.76L140.79,156.95L140.72,159.24L140.6,160.36L140.43,161.39L140.12,162.57L139.69,163.65L139.14,164.64L138.48,165.5L137.73,166.2L136.91,166.75L136.05,167.1L135.15,167.27L134.53,167.28L133.89,167.2L133.28,167.03L132.66,166.77L132.05,166.43L131.45,166L130.87,165.49L130.29,164.89L130.19,164.82L130.05,164.79L129.9,164.84L129.8,164.95L129.77,165.09L129.77,166.44L129.73,166.67L129.6,166.87L129.41,167L129.18,167.04L128.58,167.04L128.34,167L128.13,166.86L127.99,166.65L127.94,166.4L127.84,143.04L127.89,142.79L128.04,142.57L128.26,142.43L128.52,142.38L129.38,142.37L129.62,142.42L129.82,142.55L129.96,142.75L130.01,142.98L130.03,149.29L130.07,149.42L130.16,149.52L130.29,149.57L130.43,149.54L130.52,149.47ZM134.258,149.21L133.819,149.251L133.385,149.369L132.959,149.562L132.547,149.83L132.151,150.168L131.776,150.575L131.103,151.576L130.552,152.794L130.145,154.183L129.898,155.688L129.82,157.254L129.914,158.818L130.177,160.321L130.598,161.705L131.162,162.918L131.846,163.911L132.225,164.314L132.624,164.648L133.04,164.911L133.467,165.1L133.903,165.214L134.342,165.25L134.781,165.209L135.215,165.091L135.641,164.898L136.053,164.63L136.449,164.292L136.824,163.885L137.498,162.884L138.048,161.666L138.455,160.277L138.702,158.772L138.78,157.207L138.686,155.642L138.423,154.139L138.002,152.755L137.438,151.543L136.754,150.549L136.375,150.146L135.976,149.812L135.56,149.549L135.133,149.36L134.697,149.246L134.258,149.21Z" style="fill:rgb(146,150,145);fill-rule:nonzero;"/>
        <path d="M145.19,166.4C145.19,166.685 144.955,166.92 144.67,166.92L143.59,166.92C143.305,166.92 143.07,166.685 143.07,166.4L143.07,143.02C143.07,142.735 143.305,142.5 143.59,142.5L144.67,142.5C144.955,142.5 145.19,142.735 145.19,143.02L145.19,166.4Z" style="fill:rgb(146,150,145);fill-rule:nonzero;"/>
        <path d="M255.55,166.69C255.55,166.926 255.356,167.12 255.12,167.12L253.84,167.12C253.604,167.12 253.41,166.926 253.41,166.69L253.41,143.05C253.41,142.814 253.604,142.62 253.84,142.62L255.12,142.62C255.356,142.62 255.55,142.814 255.55,143.05L255.55,166.69Z" style="fill:rgb(146,150,145);fill-rule:nonzero;"/>
        <path d="M363.468,143.568C363.468,143.568 363.472,145.429 363.472,145.429C363.472,145.703 363.246,145.928 362.973,145.929C362.973,145.929 361.612,145.931 361.612,145.931C361.338,145.931 361.112,145.706 361.112,145.432C361.112,145.432 361.108,143.571 361.108,143.571C361.108,143.297 361.334,143.072 361.608,143.071C361.608,143.071 362.968,143.069 362.968,143.069C363.242,143.069 363.468,143.294 363.468,143.568Z" style="fill:rgb(146,150,145);fill-rule:nonzero;"/>
        <path d="M111.78,164.85L111.96,164.83L112.13,164.88L112.27,165L112.34,165.17L112.35,165.24L112.35,166.51L112.31,166.71L112.21,166.88L112.06,167.01L111.87,167.08L110.54,167.24L109.4,167.18L108.9,167.07L108.45,166.91L108.05,166.69L107.69,166.43L107.18,165.85L106.82,165.12L106.58,164.24L106.49,163.2L106.41,156.93L106.5,150.37L106.45,150.11L106.31,149.88L106.08,149.73L105.82,149.67L104.32,149.67L104.06,149.62L103.84,149.48L103.69,149.25L103.64,148.99L103.64,148.18L103.74,147.86L103.95,147.68L104.21,147.61L105.9,147.61L106.11,147.57L106.29,147.45L106.41,147.28L106.45,147.07L106.45,144.28L106.49,144L106.61,143.75L106.95,143.44L107.41,143.32L108.16,143.32L108.33,143.35L108.48,143.45L108.57,143.59L108.61,143.76L108.61,147.1L108.65,147.29L108.76,147.46L108.92,147.57L109.12,147.61L111.73,147.61L112.11,147.72L112.34,147.97L112.42,148.3L112.42,148.95L112.36,149.22L112.21,149.46L111.97,149.62L111.69,149.68L109.27,149.68L109,149.73L108.78,149.88L108.63,150.11L108.57,150.38L108.6,162.21L108.66,163.12L108.85,163.88L109.15,164.45L109.58,164.85L110.02,165.04L110.54,165.1L111.12,165.04L111.78,164.85Z" style="fill:rgb(146,150,145);fill-rule:nonzero;"/>
        <path d="M123.45,164.91L123.42,164.78L123.32,164.68L123.19,164.63L123.04,164.66L122.93,164.75L122.17,165.66L121.29,166.38L120.35,166.88L119.32,167.17L118.46,167.25L117.6,167.18L116.74,166.96L115.92,166.6L115.17,166.11L114.51,165.51L113.95,164.82L113.51,164.04L113.16,163.07L113,162.07L113.01,161L113.21,159.93L113.4,159.32L113.64,158.75L113.95,158.22L114.3,157.74L114.92,157.09L115.68,156.53L116.53,156.09L117.52,155.73L118.63,155.47L119.85,155.31L121.2,155.25L122.67,155.29L122.88,155.26L123.06,155.14L123.19,154.97L123.24,154.76L123.24,154.75L123.2,153.84L123.1,152.99L122.94,152.2L122.72,151.46L122.32,150.67L122.05,150.34L121.75,150.06L121.16,149.71L120.44,149.49L119.65,149.42L118.77,149.51L117.81,149.75L116.84,150.13L115.91,150.64L115.13,151.21L114.99,151.27L114.84,151.27L114.71,151.2L114.63,151.07L114.61,150.97L114.61,149.4L114.71,149L115,148.7L116.05,148.14L117.18,147.72L118.35,147.44L119.47,147.33L120.55,147.37L121.53,147.58L122.45,147.95L123.23,148.46L123.94,149.14L124.5,149.96L124.85,150.83L125.09,152L125.22,153.46L125.24,155.22L125.21,160.78L125.37,166.44L125.34,166.65L125.23,166.83L125.06,166.95L124.86,166.99L124.03,166.99L123.71,166.9L123.52,166.69L123.45,166.41L123.45,164.91ZM116.2,163.99L116.64,164.38L117.32,164.77L118.07,165L118.87,165.07L119.69,164.98L120.47,164.73L121.19,164.32L121.8,163.8L122.29,163.15L122.62,162.46L122.96,161.3L123.17,160.09L123.24,158.82L123.18,157.51L123.17,157.45L123.12,157.39L123.1,157.36L123.09,157.36L123.07,157.34L123,157.32L121.69,157.2L120.42,157.21L119.2,157.36L118.03,157.65L117.32,157.94L116.65,158.41L116.1,158.99L115.66,159.69L115.38,160.46L115.25,161.26L115.28,162.07L115.47,162.82L115.83,163.52L116.2,163.99Z" style="fill:rgb(146,150,145);fill-rule:nonzero;"/>
        <path d="M179.11,148.35L178.85,149.83L178.7,150.06L178.43,150.09L178.39,150.08L177.44,149.76L176.49,149.57L175.62,149.54L174.79,149.66L174.04,149.94L173.42,150.34L172.94,150.88L172.64,151.51L172.53,152.09L172.56,152.7L172.72,153.3L173.04,153.9L173.46,154.45L174.01,154.99L174.66,155.47L175.44,155.91L177.2,156.89L177.87,157.35L178.44,157.8L178.92,158.27L179.33,158.78L179.66,159.29L179.91,159.85L180.1,160.53L180.18,161.28L180.15,162.06L180.01,162.92L179.76,163.76L179.42,164.5L178.99,165.17L178.49,165.74L177.76,166.31L176.95,166.74L176.04,167.04L175.01,167.21L173.9,167.24L172.77,167.12L171.6,166.87L170.47,166.49L170.25,166.35L170.08,166.14L169.99,165.89L169.99,165.63L170.22,164.35L170.3,164.18L170.43,164.05L170.61,163.99L170.8,164.01L170.86,164.04L171.61,164.41L172.36,164.71L173.1,164.93L173.81,165.05L174.48,165.07L175.08,165.01L175.64,164.87L176.17,164.62L176.54,164.37L176.88,164.06L177.33,163.52L177.65,162.98L177.85,162.41L177.91,161.86L177.87,161.39L177.74,160.93L177.52,160.45L177.21,160L176.82,159.57L176.37,159.17L175.83,158.79L175.23,158.45L175.08,158.37L173.15,157.31L172.46,156.84L171.88,156.37L171.37,155.87L170.98,155.37L170.68,154.84L170.45,154.26L170.34,153.7L170.27,152.45L170.41,151.28L170.75,150.27L171,149.79L171.3,149.36L171.91,148.72L172.64,148.2L173.49,147.8L174.43,147.53L175.46,147.4L176.54,147.4L177.65,147.55L178.79,147.83L179.05,148.03L179.11,148.35Z" style="fill:rgb(146,150,145);fill-rule:nonzero;"/>
        <path d="M221.71,147.22L222.406,147.269L223.095,147.416L223.771,147.658L224.427,147.995L225.057,148.422L225.655,148.936L226.214,149.531L226.731,150.202L227.198,150.942L227.613,151.744L227.972,152.601L228.27,153.504L228.504,154.445L228.674,155.414L228.776,156.402L228.81,157.4L228.776,158.398L228.674,159.386L228.504,160.355L228.27,161.296L227.972,162.199L227.613,163.056L227.198,163.858L226.731,164.598L226.214,165.269L225.655,165.864L225.057,166.378L224.427,166.805L223.771,167.142L223.095,167.384L222.406,167.531L221.71,167.58L221.014,167.531L220.325,167.384L219.649,167.142L218.993,166.805L218.363,166.378L217.766,165.864L217.206,165.269L216.69,164.598L216.222,163.858L215.807,163.056L215.448,162.199L215.151,161.296L214.916,160.355L214.746,159.386L214.644,158.398L214.61,157.4L214.644,156.402L214.746,155.414L214.916,154.445L215.151,153.504L215.448,152.601L215.807,151.744L216.222,150.942L216.69,150.202L217.206,149.531L217.766,148.936L218.363,148.422L218.993,147.995L219.649,147.658L220.325,147.416L221.014,147.269L221.71,147.22ZM221.724,149.39L221.257,149.428L220.795,149.542L220.342,149.732L219.901,149.997L219.479,150.332L219.077,150.735L218.354,151.73L217.76,152.943L217.318,154.327L217.044,155.829L216.95,157.392L217.039,158.955L217.307,160.458L217.744,161.843L218.334,163.058L219.054,164.055L219.454,164.46L219.875,164.797L220.315,165.063L220.768,165.255L221.23,165.371L221.696,165.41L222.163,165.372L222.625,165.258L223.078,165.068L223.519,164.803L223.942,164.468L224.343,164.065L225.066,163.07L225.66,161.857L226.102,160.473L226.376,158.971L226.47,157.408L226.381,155.845L226.113,154.342L225.676,152.957L225.086,151.742L224.366,150.745L223.966,150.34L223.545,150.003L223.105,149.737L222.652,149.546L222.19,149.429L221.724,149.39Z" style="fill:rgb(146,150,145);fill-rule:nonzero;"/>
        <path d="M248.66,165.04L248.63,164.91L248.53,164.8L248.39,164.76L248.25,164.79L248.14,164.88L247.37,165.78L246.49,166.5L245.56,167L244.53,167.3L243.66,167.38L242.8,167.31L241.94,167.09L241.13,166.73L240.38,166.24L239.71,165.63L239.16,164.95L238.72,164.17L238.37,163.2L238.2,162.2L238.21,161.13L238.41,160.06L238.6,159.44L238.85,158.88L239.15,158.35L239.5,157.86L240.12,157.22L240.88,156.66L241.74,156.21L242.72,155.85L243.83,155.59L245.05,155.44L246.41,155.37L247.87,155.41L248.08,155.38L248.27,155.27L248.39,155.09L248.44,154.88L248.44,154.87L248.4,153.97L248.31,153.12L248.14,152.32L247.92,151.58L247.52,150.8L247.26,150.46L246.96,150.18L246.37,149.83L245.64,149.61L244.85,149.55L243.97,149.63L243.01,149.87L242.04,150.26L241.11,150.76L240.33,151.33L240.2,151.4L240.05,151.39L239.91,151.32L239.83,151.2L239.81,151.09L239.81,149.52L239.91,149.12L240.2,148.82L241.25,148.27L242.38,147.84L243.55,147.56L244.67,147.45L245.75,147.5L246.73,147.7L247.65,148.07L248.44,148.58L249.14,149.27L249.7,150.08L250.05,150.96L250.3,152.13L250.42,153.59L250.44,155.34L250.42,160.9L250.58,166.57L250.55,166.78L250.44,166.95L250.27,167.07L250.07,167.12L249.24,167.12L248.9,167.01L248.72,166.81L248.66,166.54L248.66,165.04ZM241.4,164.1L241.83,164.49L242.51,164.89L243.26,165.12L244.06,165.2L244.88,165.11L245.66,164.86L246.39,164.46L247,163.94L247.5,163.29L247.83,162.6L248.17,161.44L248.38,160.23L248.47,158.97L248.42,157.65L248.4,157.59L248.35,157.53L248.33,157.5L248.32,157.5L248.3,157.48L248.23,157.45L246.92,157.33L245.65,157.34L244.43,157.48L243.25,157.76L242.54,158.06L241.87,158.52L241.32,159.09L240.88,159.79L240.59,160.56L240.45,161.37L240.48,162.18L240.67,162.93L241.02,163.63L241.4,164.1Z" style="fill:rgb(146,150,145);fill-rule:nonzero;"/>
        <path d="M275,148.48L274.74,149.97L274.58,150.19L274.31,150.23L274.27,150.22L273.32,149.89L272.37,149.7L271.5,149.67L270.67,149.79L269.91,150.06L269.3,150.47L268.81,151L268.51,151.63L268.4,152.21L268.43,152.82L268.59,153.43L268.9,154.03L269.32,154.58L269.88,155.12L270.53,155.6L271.31,156.05L273.07,157.03L273.74,157.49L274.31,157.95L274.79,158.42L275.2,158.92L275.53,159.44L275.78,160L275.97,160.68L276.05,161.43L276.02,162.22L275.87,163.08L275.62,163.92L275.29,164.66L274.85,165.33L274.35,165.89L273.62,166.47L272.8,166.9L271.89,167.2L270.86,167.37L269.75,167.39L268.62,167.27L267.45,167.02L266.32,166.63L266.09,166.49L265.93,166.29L265.84,166.04L265.84,165.77L266.07,164.49L266.14,164.32L266.28,164.19L266.46,164.13L266.65,164.16L266.71,164.18L267.46,164.56L268.21,164.86L268.96,165.07L269.66,165.19L270.33,165.22L270.93,165.17L271.49,165.02L272.03,164.77L272.4,164.52L272.74,164.21L273.19,163.67L273.51,163.13L273.71,162.57L273.78,162.01L273.74,161.54L273.61,161.07L273.38,160.6L273.08,160.15L272.69,159.72L272.23,159.32L271.69,158.93L271.1,158.59L270.95,158.51L269.01,157.44L268.33,156.98L267.74,156.51L267.24,156L266.84,155.5L266.54,154.97L266.32,154.38L266.2,153.83L266.14,152.57L266.28,151.4L266.62,150.39L266.87,149.92L267.17,149.48L267.78,148.84L268.51,148.32L269.37,147.92L270.31,147.66L271.34,147.53L272.42,147.53L273.54,147.68L274.68,147.96L274.94,148.16L275,148.48Z" style="fill:rgb(146,150,145);fill-rule:nonzero;"/>
        <path d="M301.44,148.46L301.18,149.95L301.02,150.18L300.75,150.21L300.72,150.2L299.76,149.87L298.81,149.69L297.94,149.66L297.11,149.78L296.36,150.05L295.74,150.46L295.26,150.99L294.95,151.62L294.84,152.2L294.87,152.82L295.04,153.42L295.35,154.02L295.77,154.57L296.33,155.11L296.98,155.59L297.76,156.04L299.52,157.02L300.19,157.48L300.76,157.93L301.24,158.4L301.66,158.91L301.98,159.42L302.23,159.98L302.42,160.67L302.51,161.41L302.48,162.2L302.33,163.06L302.08,163.9L301.75,164.64L301.32,165.31L300.81,165.88L300.08,166.46L299.26,166.89L298.35,167.19L297.33,167.36L296.21,167.38L295.08,167.27L293.91,167.01L292.78,166.63L292.55,166.49L292.39,166.28L292.3,166.03L292.3,165.77L292.53,164.49L292.6,164.32L292.74,164.19L292.92,164.13L293.11,164.15L293.17,164.18L293.92,164.55L294.67,164.85L295.42,165.07L296.12,165.19L296.79,165.22L297.39,165.16L297.95,165.01L298.49,164.76L298.86,164.51L299.2,164.2L299.65,163.66L299.97,163.12L300.17,162.55L300.24,162L300.19,161.52L300.06,161.06L299.84,160.59L299.53,160.14L299.14,159.71L298.69,159.31L298.15,158.92L297.55,158.58L297.4,158.5L295.46,157.43L294.78,156.97L294.19,156.5L293.69,156L293.29,155.49L292.99,154.96L292.77,154.38L292.65,153.82L292.58,152.56L292.72,151.4L293.06,150.38L293.31,149.91L293.61,149.48L294.23,148.83L294.95,148.31L295.81,147.91L296.75,147.64L297.78,147.51L298.86,147.52L299.98,147.66L301.12,147.94L301.38,148.14L301.44,148.46Z" style="fill:rgb(146,150,145);fill-rule:nonzero;"/>
        <path d="M306.73,165.54L306.73,171.89L306.68,172.13L306.55,172.33L306.34,172.46L306.1,172.51L305.23,172.51L304.97,172.46L304.75,172.31L304.6,172.1L304.55,171.84L304.55,148.32L304.6,148.07L304.74,147.86L304.95,147.72L305.2,147.67L305.8,147.67L306.06,147.73L306.31,147.95L306.4,148.27L306.4,149.63L306.44,149.78L306.54,149.88L306.68,149.93L306.83,149.91L306.93,149.83L307.51,149.22L308.09,148.71L308.7,148.27L309.31,147.93L309.93,147.67L310.55,147.5L311.18,147.41L311.81,147.41L312.72,147.58L313.59,147.94L314.42,148.48L315.17,149.19L315.83,150.05L316.4,151.04L316.83,152.13L317.15,153.32L317.32,154.35L317.45,155.47L317.53,157.79L317.4,159.99L317.24,161.03L317.04,162L316.8,162.87L316.51,163.65L316.18,164.36L315.79,165.02L315.38,165.58L314.91,166.07L314.4,166.48L313.85,166.82L313.3,167.06L312.47,167.31L311.67,167.43L310.89,167.44L310.15,167.32L309.36,167.05L308.61,166.63L307.9,166.07L307.22,165.36L307.12,165.29L306.99,165.26L306.86,165.31L306.76,165.41L306.73,165.54ZM310.932,149.37L310.493,149.407L310.057,149.52L309.63,149.71L309.215,149.973L308.815,150.308L308.436,150.712L307.752,151.708L307.188,152.924L306.767,154.312L306.504,155.819L306.41,157.387L306.488,158.956L306.735,160.465L307.142,161.857L307.692,163.079L308.366,164.082L308.741,164.49L309.137,164.829L309.549,165.097L309.975,165.291L310.409,165.409L310.848,165.45L311.287,165.414L311.723,165.3L312.15,165.111L312.566,164.847L312.965,164.512L313.344,164.108L314.028,163.112L314.592,161.896L315.013,160.508L315.276,159.002L315.37,157.434L315.292,155.865L315.045,154.355L314.638,152.963L314.088,151.742L313.414,150.738L313.039,150.331L312.643,149.991L312.231,149.723L311.805,149.529L311.371,149.411L310.932,149.37Z" style="fill:rgb(146,150,145);fill-rule:nonzero;"/>
        <path d="M330.42,163.8L330.46,163.78L330.58,163.81L330.64,163.93L330.64,166.12L330.59,166.28L330.45,166.4L329.4,166.81L328.38,167.1L327.37,167.29L326.39,167.37L325.45,167.33L324.56,167.17L323.73,166.9L322.94,166.52L322.26,166.06L321.64,165.51L321.08,164.86L320.58,164.11L320.16,163.28L319.81,162.37L319.54,161.4L319.35,160.34L319.16,158.46L319.13,156.6L319.27,154.86L319.57,153.25L320.03,151.83L320.64,150.58L321.39,149.53L322.27,148.67L322.91,148.22L323.58,147.87L324.3,147.62L325.02,147.47L325.76,147.42L326.49,147.48L327.2,147.64L327.89,147.91L328.75,148.43L329.51,149.13L330.14,150L330.59,150.98L331.1,152.66L331.35,153.87L331.5,155.11L331.55,156.37L331.51,157.66L331.46,157.86L331.34,158.03L331.16,158.14L330.96,158.17L322.04,158.16L322.02,158.16L321.78,158.22L321.59,158.36L321.46,158.57L321.43,158.81L321.54,159.89L321.73,160.9L322.02,161.82L322.38,162.64L322.83,163.37L323.35,163.98L323.93,164.47L324.57,164.83L325.18,165.05L325.85,165.17L326.53,165.19L327.25,165.11L328,164.93L328.79,164.65L329.59,164.28L330.42,163.8ZM321.85,156.02L329,156.12L329.22,156.03L329.3,155.83L329.3,155.64L329.25,154.47L329.05,153.34L328.72,152.3L328.26,151.39L327.7,150.63L327.06,150.07L326.37,149.72L325.64,149.59L325.4,149.59L324.66,149.69L323.95,150.03L323.3,150.57L322.72,151.31L322.24,152.21L321.88,153.24L321.65,154.37L321.56,155.54L321.56,155.73L321.64,155.93L321.85,156.02Z" style="fill:rgb(146,150,145);fill-rule:nonzero;"/>
        <path d="M336.09,149.7L336.11,149.81L336.19,149.91L336.3,149.96L336.43,149.94L336.54,149.87L336.95,149.34L337.42,148.75L337.84,148.41L338.54,148.05L339.22,147.77L339.93,147.58L340.61,147.47L341.28,147.45L341.93,147.52L342.54,147.68L343.12,147.91L343.75,148.29L344.31,148.76L344.8,149.34L345.21,150L345.54,150.73L345.77,151.54L345.91,152.38L345.95,153.29L345.98,166.6L345.93,166.8L345.82,166.97L345.64,167.09L345.43,167.13L344.37,167.12L344.15,167.08L343.97,166.96L343.85,166.78L343.81,166.57L343.83,152.68L343.81,152.37L343.68,151.75L343.43,151.18L343.06,150.67L342.59,150.25L342.05,149.93L341.45,149.73L340.82,149.67L340.2,149.73L339.83,149.81L339.11,150.02L338.45,150.35L337.85,150.79L337.33,151.33L336.91,151.94L336.6,152.62L336.42,153.34L336.35,154.08L336.33,166.56L336.29,166.78L336.16,166.97L335.98,167.09L335.76,167.13L334.7,167.13L334.48,167.09L334.29,166.96L334.16,166.77L334.11,166.55L334.14,148.06L334.25,147.8L334.51,147.69L335.58,147.69L335.9,147.81L336.04,147.99L336.09,148.21L336.09,149.7Z" style="fill:rgb(146,150,145);fill-rule:nonzero;"/>
        <path d="M363.41,166.48C363.41,166.732 363.202,166.94 362.95,166.94L361.59,166.94C361.338,166.94 361.13,166.732 361.13,166.48L361.13,148.08C361.13,147.828 361.338,147.62 361.59,147.62L362.95,147.62C363.202,147.62 363.41,147.828 363.41,148.08L363.41,166.48Z" style="fill:rgb(146,150,145);fill-rule:nonzero;"/>
        <path d="M384.24,149.87L384.65,149.34L385.12,148.74L385.54,148.4L386.24,148.04L386.93,147.76L387.63,147.57L388.31,147.46L388.98,147.44L389.63,147.51L390.25,147.66L390.83,147.9L391.45,148.27L392.02,148.75L392.51,149.32L392.92,149.98L393.25,150.71L393.48,151.52L393.62,152.36L393.66,153.27L393.71,166.59L393.67,166.79L393.55,166.96L393.38,167.08L393.17,167.12L392.1,167.12L391.89,167.08L391.7,166.96L391.58,166.78L391.54,166.57L391.54,152.67L391.52,152.36L391.39,151.74L391.14,151.16L390.77,150.65L390.3,150.23L389.75,149.92L389.15,149.72L388.53,149.65L387.9,149.72L387.53,149.8L386.82,150.01L386.15,150.35L385.55,150.79L385.04,151.32L384.62,151.94L384.31,152.62L384.12,153.34L384.06,154.08L384.06,166.57L383.95,166.91L383.75,167.08L383.49,167.14L382.43,167.14L382.2,167.1L382.01,166.97L381.88,166.78L381.84,166.56L381.84,148.06L381.95,147.8L382.21,147.69L383.28,147.69L383.48,147.73L383.64,147.84L383.75,148L383.79,148.2L383.79,149.7L383.81,149.8L383.89,149.9L384.01,149.95L384.13,149.94L384.24,149.87Z" style="fill:rgb(146,150,145);fill-rule:nonzero;"/>
        <path d="M288.15,165.1L288.13,165L288.05,164.9L287.94,164.85L287.81,164.86L287.7,164.93L287.29,165.47L286.82,166.06L286.4,166.4L285.7,166.76L285.01,167.04L284.31,167.23L283.63,167.34L282.95,167.36L282.3,167.29L281.69,167.13L281.11,166.9L280.48,166.52L279.92,166.05L279.43,165.48L279.02,164.81L278.69,164.08L278.46,163.27L278.32,162.43L278.28,161.52L278.24,148.19L278.28,147.99L278.4,147.81L278.58,147.7L278.78,147.66L279.86,147.66L280.07,147.7L280.25,147.82L280.37,148L280.41,148.21L280.4,162.12L280.42,162.44L280.55,163.05L280.8,163.63L281.17,164.14L281.64,164.56L282.19,164.88L282.79,165.08L283.41,165.14L284.04,165.08L284.41,165L285.12,164.78L285.79,164.45L286.39,164.01L286.91,163.48L287.33,162.86L287.63,162.18L287.82,161.46L287.89,160.72L287.9,148.22L287.94,148L288.07,147.82L288.25,147.69L288.47,147.65L289.53,147.65L289.76,147.7L289.95,147.82L290.08,148.01L290.12,148.23L290.1,166.75L289.99,167.01L289.73,167.12L288.66,167.11L288.47,167.08L288.3,166.96L288.19,166.8L288.15,166.6L288.15,165.1Z" style="fill:rgb(146,150,145);fill-rule:nonzero;"/>
    </g>
</svg>
