<?xml version="1.0" encoding="UTF-8" standalone="no"?>
<!DOCTYPE svg PUBLIC "-//W3C//DTD SVG 1.1//EN" "http://www.w3.org/Graphics/SVG/1.1/DTD/svg11.dtd">
<svg width="100%" height="100%" viewBox="0 0 1184 382" version="1.1" xmlns="http://www.w3.org/2000/svg" xmlns:xlink="http://www.w3.org/1999/xlink" xml:space="preserve" xmlns:serif="http://www.serif.com/" style="fill-rule:evenodd;clip-rule:evenodd;">
    <g transform="matrix(1,0,0,1,-118.733,-118.87)">
        <path d="M642.87,358.75L643.13,358.64L643.24,358.38L643.24,340.39L643.13,340.13L642.87,340.02L598.13,340.02L597.87,339.91L597.76,339.65L597.76,241.39L597.65,241.13L597.39,241.02L574.42,241.02L574.16,241.13L574.05,241.39L574.05,358.38L574.16,358.64L574.42,358.75L642.87,358.75" style="fill:none;fill-rule:nonzero;stroke:rgb(145,73,16);stroke-width:0.5px;"/>
        <path d="M909.257,233.1L910.993,233.18L912.712,233.433L914.398,233.854L916.036,234.441L917.609,235.188L919.102,236.088L920.5,237.131L921.792,238.308L922.963,239.608L924.002,241.017L924.9,242.523L925.649,244.111L926.24,245.766L926.668,247.472L926.929,249.211L927.02,250.968L926.941,252.726L926.692,254.467L926.276,256.176L925.697,257.834L924.959,259.428L924.072,260.94L923.042,262.357L921.88,263.665L920.597,264.851L919.206,265.904L917.719,266.814L916.151,267.571L914.518,268.17L912.835,268.603L911.117,268.868L909.383,268.96L907.647,268.88L905.928,268.627L904.242,268.206L902.604,267.619L901.032,266.872L899.539,265.973L898.14,264.929L896.848,263.752L895.678,262.452L894.638,261.043L893.74,259.537L892.991,257.949L892.4,256.294L891.972,254.589L891.712,252.849L891.62,251.092L891.699,249.334L891.948,247.593L892.364,245.884L892.944,244.226L893.681,242.632L894.568,241.12L895.598,239.703L896.76,238.395L898.043,237.209L899.434,236.156L900.921,235.246L902.489,234.489L904.122,233.89L905.806,233.457L907.523,233.193L909.257,233.1ZM909.224,236.191L907.846,236.277L906.483,236.505L905.147,236.873L903.852,237.378L902.611,238.015L901.434,238.777L900.334,239.657L899.322,240.647L898.406,241.737L897.595,242.917L896.899,244.175L896.322,245.5L895.871,246.878L895.551,248.296L895.363,249.74L895.311,251.197L895.394,252.653L895.612,254.093L895.962,255.504L896.441,256.873L897.045,258.185L897.768,259.428L898.603,260.591L899.542,261.661L900.575,262.63L901.693,263.487L902.885,264.224L904.14,264.835L905.445,265.312L906.788,265.652L908.156,265.852L909.536,265.909L910.914,265.823L912.277,265.595L913.613,265.227L914.908,264.722L916.149,264.085L917.326,263.323L918.426,262.443L919.439,261.453L920.354,260.363L921.165,259.183L921.861,257.925L922.438,256.6L922.889,255.222L923.209,253.804L923.397,252.36L923.449,250.903L923.366,249.447L923.149,248.007L922.798,246.596L922.319,245.228L921.715,243.916L920.992,242.672L920.157,241.51L919.218,240.439L918.185,239.47L917.067,238.613L915.875,237.876L914.62,237.266L913.315,236.788L911.972,236.448L910.604,236.248L909.224,236.191Z" style="fill:rgb(35,31,32);fill-rule:nonzero;"/>
        <path d="M136.45,260.9L136.36,260.81L136.24,260.78L136.12,260.81L136.03,260.9L136,261.02L136,357.23L135.96,357.43L135.85,357.6L135.68,357.71L135.48,357.75L119.06,357.75L118.84,357.66L118.75,357.43L118.75,239.06L118.84,238.84L119.06,238.75L141.41,238.75L141.83,238.86L142.13,239.17L194.29,333.92L194.39,333.98L194.48,333.93L194.5,333.87L194.5,239.06L194.59,238.84L194.81,238.75L211.44,238.75L211.66,238.84L211.75,239.06L211.75,357.43L211.7,357.6L211.59,357.7L211.44,357.74L190.29,357.74L190.05,357.71L189.83,357.62L189.64,357.47L189.5,357.28L136.45,260.9Z" style="fill:rgb(35,31,32);fill-rule:nonzero;"/>
        <path d="M642.87,358.75L574.42,358.75L574.21,358.69L574.09,358.55L574.05,358.38L574.05,241.39L574.16,241.13L574.42,241.02L597.39,241.02L597.59,241.08L597.71,241.21L597.76,241.39L597.76,339.65L597.87,339.91L598.13,340.02L642.87,340.02L643.08,340.08L643.2,340.22L643.24,340.39L643.24,358.38L643.13,358.64L642.87,358.75Z" style="fill:rgb(35,31,32);fill-rule:nonzero;"/>
        <path d="M917.11,261.16L917.12,261.2L917.06,261.4L916.86,261.49L913.99,261.49L913.79,261.46L913.6,261.36L913.46,261.2L913.38,261.01L912,255.16L911.85,254.71L911.64,254.3L911.35,253.93L911.01,253.61L910.62,253.35L910.19,253.16L909.74,253.04L909.27,253L907.34,253L906.99,253.06L906.67,253.23L906.43,253.49L906.29,253.81L906.25,254.09L906.25,261.07L906.22,261.24L906.12,261.38L905.98,261.48L905.81,261.51L903.21,261.51L903.03,261.47L902.88,261.38L902.79,261.23L902.75,261.05L902.75,241.9L902.79,241.67L902.92,241.46L903.1,241.32L903.33,241.25L903.76,241.21L906.27,240.98L908.24,240.91L909.99,240.97L911.55,241.18L912.91,241.53L914.05,242.04L914.53,242.34L914.97,242.68L915.34,243.06L915.67,243.47L916.09,244.23L916.37,245.12L916.54,246.23L916.53,247.25L916.36,248.17L916.02,249.01L915.63,249.62L915.12,250.18L914.51,250.67L913.79,251.11L913.69,251.18L913.56,251.37L913.52,251.6L913.59,251.82L913.75,251.99L914.48,252.59L915.09,253.33L915.52,254.14L915.75,254.96L916.39,258.37L916.74,259.84L917.11,261.16ZM906.25,244.13L906.25,249.81L906.28,249.98L906.38,250.11L906.52,250.21L906.68,250.24L908.73,250.24L909.56,250.18L910.35,250L911.09,249.71L911.73,249.33L912.26,248.85L912.65,248.31L912.89,247.73L912.97,247.12L912.97,246.82L912.89,246.21L912.65,245.63L912.26,245.09L911.73,244.61L911.09,244.23L910.35,243.94L909.56,243.76L908.73,243.7L906.68,243.7L906.52,243.73L906.38,243.83L906.28,243.96L906.25,244.13Z" style="fill:rgb(35,31,32);fill-rule:nonzero;"/>
        <path d="M276.81,359.61L275.02,359.58L273.26,359.49L271.5,359.34L269.76,359.12L268.06,358.84L266.39,358.51L264.72,358.1L263.08,357.64L261.47,357.12L259.89,356.54L258.33,355.89L256.8,355.18L255.3,354.42L253.85,353.6L252.43,352.73L251.06,351.8L249.75,350.84L248.48,349.84L247.26,348.78L246.08,347.69L244.93,346.54L243.83,345.34L242.77,344.11L241.77,342.83L240.8,341.51L239.89,340.15L239.02,338.76L238.21,337.33L237.44,335.86L236.73,334.37L236.07,332.84L235.46,331.28L234.42,328.1L233.59,324.82L233,321.48L232.63,318.06L232.5,314.63L232.59,311.14L232.92,307.63L233.48,304.15L233.89,302.25L234.36,300.4L234.9,298.56L235.5,296.77L236.18,295.01L236.92,293.3L237.72,291.64L238.58,290.03L239.51,288.45L240.5,286.92L241.55,285.45L242.65,284.03L243.82,282.65L245.05,281.34L246.33,280.08L247.66,278.88L249.13,277.67L250.66,276.53L252.25,275.46L253.89,274.46L255.57,273.54L257.31,272.69L259.1,271.92L260.93,271.23L262.78,270.62L264.67,270.09L266.6,269.63L268.58,269.26L270.58,268.97L272.61,268.76L274.65,268.64L276.71,268.6L278.78,268.63L280.82,268.75L282.85,268.96L284.85,269.24L286.83,269.61L288.76,270.06L290.65,270.59L292.51,271.19L294.34,271.88L296.13,272.65L297.86,273.5L299.55,274.41L301.19,275.41L302.78,276.47L304.31,277.61L305.79,278.82L307.12,280.01L308.41,281.27L309.63,282.58L310.81,283.95L311.92,285.37L312.97,286.84L313.96,288.37L314.9,289.95L315.76,291.56L316.56,293.22L317.31,294.92L317.98,296.68L318.59,298.47L319.14,300.31L319.61,302.16L320.02,304.06L320.59,307.54L320.93,311.05L321.03,314.53L320.9,317.97L320.54,321.38L319.96,324.73L319.14,328.01L318.1,331.2L317.5,332.75L316.84,334.28L316.13,335.78L315.37,337.24L314.56,338.68L313.69,340.07L312.78,341.43L311.82,342.76L310.82,344.03L309.76,345.27L308.66,346.47L307.52,347.62L306.34,348.72L305.12,349.78L303.85,350.79L302.55,351.75L301.18,352.67L299.76,353.55L298.31,354.37L296.81,355.14L295.29,355.85L293.72,356.5L292.15,357.08L290.54,357.61L288.9,358.08L287.23,358.48L285.56,358.82L283.86,359.11L282.13,359.33L280.36,359.48L278.6,359.58L276.81,359.61ZM276.703,281.77L275.372,281.812L274.044,281.932L272.723,282.13L271.411,282.405L270.113,282.758L268.83,283.187L267.567,283.691L266.325,284.268L265.109,284.918L263.921,285.639L262.764,286.43L261.64,287.287L260.553,288.21L259.505,289.195L258.498,290.242L257.536,291.346L256.62,292.506L255.752,293.718L254.935,294.98L254.171,296.289L253.461,297.641L252.807,299.034L252.211,300.463L251.673,301.926L251.197,303.419L250.782,304.938L250.429,306.48L250.14,308.04L249.915,309.616L249.755,311.204L249.66,312.799L249.63,314.397L249.666,315.996L249.766,317.591L249.932,319.177L250.162,320.753L250.457,322.312L250.815,323.853L251.235,325.37L251.717,326.862L252.259,328.323L252.86,329.75L253.519,331.14L254.234,332.49L255.003,333.796L255.824,335.055L256.696,336.264L257.616,337.421L258.583,338.522L259.593,339.565L260.644,340.547L261.735,341.466L262.861,342.319L264.021,343.105L265.212,343.822L266.43,344.468L267.674,345.041L268.939,345.541L270.223,345.965L271.523,346.313L272.836,346.584L274.157,346.778L275.486,346.893L276.817,346.93L278.148,346.888L279.476,346.768L280.797,346.57L282.109,346.295L283.407,345.942L284.69,345.513L285.953,345.01L287.195,344.432L288.411,343.782L289.599,343.061L290.756,342.27L291.88,341.413L292.967,340.49L294.015,339.505L295.022,338.458L295.984,337.354L296.9,336.194L297.768,334.982L298.585,333.72L299.349,332.411L300.059,331.059L300.713,329.666L301.31,328.237L301.847,326.774L302.323,325.281L302.738,323.762L303.091,322.22L303.38,320.66L303.605,319.084L303.765,317.496L303.86,315.901L303.89,314.303L303.854,312.704L303.754,311.11L303.588,309.523L303.358,307.948L303.063,306.388L302.705,304.847L302.285,303.33L301.803,301.838L301.261,300.378L300.66,298.95L300.001,297.56L299.286,296.21L298.517,294.904L297.696,293.645L296.824,292.436L295.904,291.279L294.937,290.178L293.927,289.135L292.876,288.153L291.785,287.235L290.659,286.381L289.499,285.595L288.308,284.878L287.09,284.232L285.846,283.659L284.581,283.159L283.297,282.735L281.997,282.387L280.685,282.116L279.363,281.922L278.034,281.807L276.703,281.77Z" style="fill:rgb(35,31,32);fill-rule:nonzero;"/>
        <path d="M462.07,268.62L464.14,268.66L466.18,268.78L468.21,268.98L470.21,269.27L472.18,269.63L474.12,270.08L476.01,270.61L477.86,271.21L479.69,271.9L481.48,272.67L483.22,273.52L484.91,274.43L486.55,275.43L488.13,276.49L489.67,277.63L491.14,278.83L492.48,280.03L493.76,281.29L494.99,282.6L496.16,283.97L497.27,285.39L498.32,286.86L499.31,288.39L500.25,289.96L501.11,291.57L501.91,293.23L502.66,294.94L503.33,296.69L503.94,298.49L504.49,300.32L504.96,302.17L505.37,304.07L505.94,307.55L506.28,311.06L506.38,314.54L506.25,317.97L505.89,321.39L505.31,324.74L504.49,328.02L503.45,331.2L502.85,332.76L502.19,334.29L501.48,335.78L500.72,337.25L499.91,338.68L499.05,340.08L498.13,341.44L497.17,342.76L496.17,344.04L495.12,345.28L494.02,346.47L492.87,347.62L491.69,348.72L490.47,349.78L489.21,350.79L487.9,351.75L486.53,352.67L485.12,353.55L483.66,354.37L482.17,355.14L480.64,355.85L479.08,356.5L477.5,357.08L475.89,357.61L474.26,358.08L472.59,358.48L470.92,358.82L469.22,359.1L467.48,359.32L465.72,359.48L463.96,359.58L462.17,359.61L460.38,359.58L458.62,359.49L456.86,359.34L455.13,359.12L453.42,358.84L451.75,358.5L450.08,358.1L448.44,357.64L446.83,357.12L445.26,356.54L443.69,355.89L442.17,355.18L440.67,354.42L439.21,353.6L437.8,352.73L436.42,351.8L435.12,350.84L433.85,349.84L432.62,348.78L431.44,347.69L430.3,346.54L429.2,345.34L428.14,344.11L427.13,342.83L426.17,341.51L425.26,340.15L424.39,338.76L423.57,337.33L422.81,335.87L422.1,334.37L421.44,332.85L420.83,331.29L419.79,328.11L418.96,324.83L418.37,321.49L418,318.07L417.87,314.64L417.96,311.15L418.3,307.64L418.85,304.16L419.26,302.27L419.73,300.41L420.27,298.57L420.88,296.78L421.55,295.03L422.29,293.32L423.09,291.66L423.94,290.05L424.88,288.47L425.87,286.94L426.92,285.46L428.02,284.05L429.19,282.67L430.42,281.35L431.7,280.1L433.03,278.9L434.5,277.69L436.03,276.55L437.62,275.48L439.25,274.48L440.94,273.56L442.68,272.71L444.46,271.94L446.29,271.25L448.14,270.64L450.03,270.11L451.97,269.66L453.94,269.28L455.94,268.99L457.97,268.78L460.01,268.66L462.07,268.62ZM435.25,314.36L435.32,316.79L435.53,319.22L435.88,321.6L436.36,323.94L436.97,326.21L437.71,328.42L438.56,330.53L439.55,332.56L440.62,334.44L441.82,336.23L443.11,337.88L444.51,339.41L445.98,340.78L447.56,342.04L449.2,343.13L450.95,344.09L452.23,344.67L453.55,345.18L454.9,345.61L456.3,345.97L457.71,346.24L459.16,346.44L460.63,346.55L462.15,346.59L463.66,346.55L465.13,346.43L466.58,346.24L467.99,345.96L469.39,345.61L470.74,345.17L472.06,344.66L473.34,344.07L475.08,343.11L476.73,342.02L478.3,340.76L479.77,339.39L481.17,337.85L482.46,336.2L483.65,334.41L484.73,332.53L485.71,330.5L486.56,328.39L487.3,326.18L487.9,323.91L488.38,321.57L488.72,319.19L488.93,316.76L489,314.33L488.93,311.89L488.72,309.47L488.37,307.09L487.89,304.74L487.28,302.48L486.54,300.27L485.69,298.16L484.7,296.13L483.63,294.25L482.43,292.46L481.14,290.81L479.74,289.28L478.27,287.9L476.69,286.65L475.05,285.56L473.3,284.6L472.02,284.02L470.7,283.5L469.35,283.07L467.95,282.72L466.54,282.45L465.09,282.25L463.62,282.13L462.1,282.09L460.59,282.14L459.12,282.25L457.67,282.45L456.26,282.73L454.86,283.08L453.51,283.51L452.19,284.03L450.91,284.61L449.16,285.58L447.52,286.67L445.95,287.92L444.48,289.3L443.08,290.84L441.79,292.49L440.6,294.28L439.52,296.16L438.54,298.19L437.69,300.3L436.95,302.51L436.35,304.78L435.87,307.12L435.53,309.5L435.32,311.93L435.25,314.36Z" style="fill:rgb(35,31,32);fill-rule:nonzero;"/>
        <path d="M746.99,359.62L745.2,359.59L743.44,359.5L741.68,359.35L739.95,359.13L738.24,358.86L736.57,358.52L734.9,358.12L733.26,357.66L731.65,357.14L730.08,356.56L728.51,355.91L726.98,355.21L725.48,354.45L724.03,353.63L722.61,352.76L721.24,351.84L719.93,350.88L718.66,349.87L717.43,348.82L716.25,347.73L715.1,346.58L714,345.39L712.95,344.15L711.94,342.88L710.97,341.56L710.05,340.2L709.19,338.81L708.37,337.38L707.6,335.92L706.89,334.42L706.23,332.9L705.62,331.34L704.57,328.16L703.74,324.88L703.14,321.54L702.77,318.12L702.64,314.69L702.73,311.21L703.06,307.7L703.61,304.21L704.01,302.32L704.48,300.46L705.02,298.63L705.62,296.83L706.29,295.08L707.03,293.37L707.83,291.7L708.68,290.09L709.61,288.51L710.6,286.98L711.65,285.51L712.75,284.09L713.92,282.71L715.15,281.39L716.43,280.13L717.76,278.93L719.23,277.72L720.76,276.58L722.34,275.51L723.97,274.51L725.66,273.59L727.4,272.74L729.18,271.96L731.01,271.27L732.86,270.66L734.75,270.12L736.68,269.67L738.65,269.29L740.65,269L742.69,268.79L744.72,268.66L746.79,268.62L748.86,268.65L750.9,268.77L752.93,268.97L754.93,269.26L756.9,269.62L758.84,270.07L760.73,270.59L762.58,271.2L764.41,271.89L766.2,272.65L767.94,273.49L769.63,274.41L771.27,275.4L772.86,276.46L774.39,277.6L775.87,278.8L777.21,280L778.49,281.25L779.72,282.56L780.9,283.93L782.01,285.35L783.06,286.82L784.06,288.34L784.99,289.92L785.86,291.53L786.66,293.19L787.4,294.89L788.08,296.65L788.7,298.44L789.24,300.28L789.72,302.13L790.13,304.02L790.7,307.5L791.04,311.01L791.15,314.49L791.03,317.93L790.67,321.35L790.09,324.69L789.27,327.97L788.24,331.16L787.64,332.72L786.98,334.24L786.28,335.74L785.52,337.21L784.71,338.64L783.85,340.04L782.94,341.4L781.98,342.72L780.97,344L779.92,345.24L778.82,346.44L777.68,347.59L776.5,348.69L775.28,349.75L774.02,350.76L772.72,351.72L771.34,352.65L769.93,353.53L768.48,354.35L766.98,355.12L765.46,355.83L763.9,356.49L762.32,357.07L760.71,357.6L759.08,358.07L757.41,358.47L755.74,358.82L754.04,359.1L752.31,359.32L750.54,359.48L748.78,359.58L746.99,359.62ZM720.03,314.37L720.1,316.8L720.31,319.23L720.66,321.61L721.14,323.95L721.75,326.22L722.49,328.43L723.35,330.54L724.33,332.56L725.41,334.45L726.61,336.24L727.9,337.88L729.3,339.42L730.77,340.79L732.35,342.04L733.99,343.14L735.74,344.09L737.02,344.68L738.35,345.19L739.69,345.62L741.09,345.97L742.5,346.25L743.96,346.44L745.43,346.56L746.94,346.6L748.45,346.55L749.92,346.44L751.38,346.24L752.79,345.96L754.18,345.61L755.53,345.17L756.86,344.66L758.13,344.07L759.88,343.11L761.52,342.01L763.1,340.76L764.57,339.38L765.97,337.85L767.25,336.2L768.45,334.4L769.52,332.52L770.5,330.49L771.35,328.38L772.09,326.17L772.69,323.9L773.17,321.55L773.51,319.18L773.72,316.75L773.79,314.31L773.71,311.88L773.5,309.45L773.16,307.08L772.67,304.73L772.06,302.47L771.32,300.26L770.47,298.15L769.48,296.12L768.4,294.24L767.21,292.45L765.92,290.8L764.51,289.26L763.04,287.89L761.47,286.64L759.82,285.55L758.07,284.59L756.8,284.01L755.47,283.49L754.12,283.06L752.72,282.71L751.31,282.44L749.86,282.24L748.39,282.13L746.87,282.09L745.36,282.13L743.89,282.25L742.44,282.45L741.03,282.72L739.63,283.08L738.28,283.51L736.96,284.03L735.68,284.61L733.93,285.57L732.29,286.67L730.72,287.92L729.25,289.3L727.85,290.84L726.56,292.49L725.37,294.28L724.3,296.17L723.31,298.2L722.46,300.31L721.73,302.52L721.12,304.78L720.65,307.13L720.3,309.51L720.1,311.94L720.03,314.37Z" style="fill:rgb(35,31,32);fill-rule:nonzero;"/>
        <path d="M813.08,374.78L813.09,374.72L813.17,374.58L813.3,374.49L813.45,374.46L813.6,374.5L817.12,376.13L820.76,377.61L824.41,378.9L828.05,380.01L831.6,380.89L835.08,381.57L838.45,382.03L841.7,382.27L844.76,382.29L847.69,382.09L850.45,381.68L851.77,381.4L853.06,381.06L854.31,380.67L855.52,380.22L856.68,379.73L857.82,379.17L858.89,378.58L859.93,377.92L860.91,377.22L861.87,376.46L863.4,375.04L864.79,373.48L866.07,371.75L867.2,369.89L868.22,367.86L869.09,365.72L869.84,363.39L870.45,360.94L870.71,359.51L870.93,357.92L871.09,356.17L871.21,354.25L871.28,349.91L871.16,344.91L871.14,344.82L870.96,344.7L870.75,344.78L869.57,346.15L867.82,347.94L865.9,349.62L863.86,351.15L861.73,352.52L859.45,353.76L857.09,354.83L854.62,355.74L852.09,356.48L849.48,357.05L846.83,357.45L844.12,357.67L841.4,357.72L838.67,357.58L835.96,357.27L833.27,356.79L830.62,356.12L828.54,355.45L826.54,354.66L824.61,353.73L822.76,352.7L820.54,351.21L818.42,349.53L816.45,347.67L814.6,345.62L812.9,343.41L811.34,341.01L809.94,338.47L808.68,335.77L807.59,332.93L806.66,329.94L805.91,326.84L805.35,323.68L804.96,320.43L804.76,317.14L804.74,313.8L804.91,310.45L805.27,307.12L805.81,303.83L806.53,300.61L807.43,297.45L808.49,294.42L809.72,291.49L811.11,288.68L812.63,286.05L814.3,283.57L816.08,281.29L818,279.17L820.03,277.25L822.18,275.51L824.42,273.99L826.77,272.66L829.21,271.55L830.51,271.05L832.04,270.54L834.44,269.88L836.89,269.36L839.38,269L841.93,268.79L844.52,268.74L847.15,268.83L849.84,269.07L852.57,269.47L854.26,269.8L855.89,270.22L857.46,270.71L858.97,271.28L860.43,271.92L861.83,272.65L863.18,273.45L864.46,274.33L865.6,275.22L866.69,276.17L867.73,277.18L868.72,278.27L869.66,279.42L870.55,280.64L871.39,281.92L872.19,283.27L872.33,283.36L872.48,283.27L872.5,283.19L872.5,271.33L872.54,271.11L872.67,270.92L872.86,270.79L873.08,270.75L886.86,270.75L887.22,270.86L887.42,271.09L887.5,271.39L887.49,353.75L887.45,356.16L887.33,358.51L887.12,360.78L886.84,363L886.47,365.15L886.02,367.24L885.5,369.24L884.89,371.18L884.2,373.04L883.43,374.85L882.59,376.55L881.67,378.2L880.66,379.78L879.57,381.29L878.41,382.7L877.17,384.05L876.18,385.03L875.13,385.96L874.04,386.86L872.9,387.71L871.72,388.51L870.5,389.27L869.22,389.98L867.9,390.65L865.15,391.85L862.2,392.86L859.1,393.7L855.8,394.35L852.24,394.86L848.69,395.21L845.13,395.4L841.58,395.44L837.88,395.3L834.18,394.99L830.48,394.51L826.78,393.85L823.09,393.03L819.4,392.02L815.71,390.85L812.02,389.5L811.78,389.36L811.6,389.15L811.5,388.89L811.48,388.61L813.08,374.78ZM846.46,344.5L847.72,344.48L848.94,344.39L850.16,344.24L851.34,344.04L852.5,343.77L853.62,343.44L854.74,343.04L855.82,342.6L857.65,341.66L859.42,340.52L861.06,339.23L862.63,337.74L864.07,336.1L865.42,334.27L866.63,332.32L867.72,330.21L868.68,327.95L869.51,325.57L870.18,323.09L870.68,320.57L871.03,317.97L871.2,315.37L871.21,312.8L871.04,310.26L870.76,307.97L870.38,305.73L869.89,303.52L869.3,301.39L868.62,299.33L867.85,297.37L866.99,295.49L866.05,293.73L865.03,292.08L863.95,290.57L862.77,289.14L861.53,287.86L860.24,286.71L858.86,285.66L857.43,284.76L855.91,283.97L854.87,283.51L853.79,283.12L852.7,282.78L851.57,282.51L850.42,282.29L849.23,282.13L848.03,282.04L846.8,282L845.56,282.02L844.36,282.11L843.17,282.25L842.02,282.46L840.89,282.72L839.79,283.04L838.71,283.43L837.66,283.87L836.14,284.64L834.7,285.53L833.3,286.57L832,287.7L830.75,288.97L829.56,290.38L828.46,291.88L827.42,293.52L826.46,295.27L825.57,297.15L824.79,299.09L824.08,301.14L823.48,303.27L822.96,305.48L822.56,307.71L822.25,310L822.06,312.53L822.03,315.11L822.18,317.71L822.5,320.31L822.98,322.84L823.62,325.32L824.42,327.72L825.35,329.98L826.42,332.1L827.61,334.07L828.94,335.91L830.37,337.57L831.91,339.07L833.54,340.38L835.3,341.54L837.12,342.49L838.2,342.96L839.31,343.36L840.43,343.7L841.58,343.98L842.76,344.2L843.98,344.37L845.2,344.46L846.46,344.5Z" style="fill:rgb(35,31,32);fill-rule:nonzero;"/>
        <path d="M394.18,270.75L409.84,270.75L409.98,270.78L410.09,270.88L410.14,271.01L410.13,271.15L379.12,357.55L379.01,357.7L378.84,357.75L360.03,357.75L359.89,357.72L359.75,357.55L328.74,271.15L328.74,270.95L328.85,270.81L329.03,270.75L346.22,270.75L346.41,270.81L346.51,270.96L369.66,340.78L369.75,340.91L369.89,340.98L370.1,340.94L370.23,340.78L393.89,270.95L393.98,270.83L394.18,270.75Z" style="fill:rgb(35,31,32);fill-rule:nonzero;"/>
        <path d="M585.99,454.1L586.02,456.39L586.13,458.64L586.31,460.89L586.56,463.11L587.12,466.61L587.85,470.1L588.78,473.63L589.91,477.18L591.25,480.81L592.8,484.54L594.59,488.44L596.68,492.61L596.68,492.77L596.56,492.87L596.53,492.88L590.91,493.36L590.69,493.32L590.53,493.16L589.15,490.79L587.82,488.35L586.58,485.89L585.4,483.38L584.31,480.87L583.32,478.37L582.41,475.83L581.59,473.33L580.86,470.83L580.24,468.37L579.7,465.9L579.27,463.48L578.93,461.1L578.68,458.72L578.54,456.4L578.49,454.09L578.54,451.79L578.68,449.47L578.93,447.09L579.27,444.71L579.71,442.29L580.25,439.82L580.87,437.36L581.6,434.86L582.42,432.36L583.34,429.82L584.33,427.33L585.42,424.81L586.6,422.3L587.84,419.85L589.17,417.41L590.55,415.03L590.71,414.88L590.93,414.84L596.55,415.32L596.58,415.33L596.7,415.43L596.7,415.59L594.61,419.76L592.82,423.65L591.26,427.38L589.92,431.02L588.8,434.57L587.86,438.09L587.12,441.58L586.57,445.08L586.32,447.3L586.13,449.55L586.02,451.8L585.99,454.1Z" style="fill:rgb(35,31,32);fill-rule:nonzero;"/>
        <path d="M1003.24,454.08L1003.19,456.39L1003.04,458.71L1002.8,461.09L1002.46,463.47L1002.03,465.89L1001.49,468.36L1000.86,470.82L1000.14,473.32L999.32,475.82L998.41,478.36L997.42,480.86L996.33,483.38L995.15,485.88L993.91,488.34L992.59,490.78L991.21,493.16L991.04,493.31L990.83,493.35L985.2,492.88L985.17,492.87L985.05,492.76L985.06,492.6L987.14,488.43L988.93,484.54L990.48,480.81L991.82,477.17L992.94,473.62L993.87,470.09L994.61,466.6L995.16,463.1L995.41,460.88L995.59,458.63L995.7,456.38L995.74,454.08L995.7,451.79L995.59,449.54L995.4,447.29L995.15,445.07L994.59,441.57L993.85,438.08L992.92,434.55L991.79,431L990.45,427.37L988.89,423.64L987.1,419.75L985.01,415.58L985,415.42L985.12,415.31L985.16,415.31L990.78,414.82L990.99,414.86L991.16,415.02L992.54,417.39L993.87,419.83L995.11,422.29L996.29,424.79L997.38,427.31L998.38,429.81L999.3,432.34L1000.12,434.84L1000.84,437.34L1001.47,439.8L1002.01,442.27L1002.45,444.69L1002.79,447.07L1003.04,449.45L1003.19,451.77L1003.24,454.08Z" style="fill:rgb(35,31,32);fill-rule:nonzero;"/>
        <path d="M261.76,480.87C261.76,481.084 261.584,481.26 261.37,481.26L254.65,481.26C254.436,481.26 254.26,481.084 254.26,480.87L254.26,415.65C254.26,415.436 254.436,415.26 254.65,415.26L261.37,415.26C261.584,415.26 261.76,415.436 261.76,415.65L261.76,480.87Z" style="fill:rgb(35,31,32);fill-rule:nonzero;"/>
        <path d="M126.993,426.627C126.992,426.835 126.821,427.007 126.613,427.007C126.613,427.007 126.612,427.007 126.612,427.007L119.112,426.993C118.904,426.993 118.733,426.822 118.733,426.613C118.733,426.613 118.733,426.613 118.733,426.613L118.747,418.373C118.748,418.165 118.919,417.993 119.127,417.993C119.127,417.993 119.128,417.993 119.128,417.994L126.628,418.007C126.836,418.007 127.007,418.178 127.007,418.387C127.007,418.387 127.007,418.387 127.007,418.387L126.993,426.627Z" style="fill:rgb(35,31,32);fill-rule:nonzero;"/>
        <path d="M281.26,426.63C281.26,426.833 281.093,427 280.89,427L273.11,427C272.907,427 272.74,426.833 272.74,426.63L272.74,418.37C272.74,418.167 272.907,418 273.11,418L280.89,418C281.093,418 281.26,418.167 281.26,418.37L281.26,426.63Z" style="fill:rgb(35,31,32);fill-rule:nonzero;"/>
        <path d="M876.993,426.607C876.992,426.826 876.812,427.007 876.593,427.007C876.593,427.007 876.592,427.007 876.592,427.007L869.132,426.994C868.913,426.993 868.733,426.813 868.733,426.594C868.733,426.593 868.733,426.593 868.733,426.593L868.747,418.393C868.748,418.174 868.928,417.993 869.147,417.993C869.147,417.993 869.148,417.993 869.148,417.994L876.608,418.007C876.827,418.007 877.007,418.187 877.007,418.406C877.007,418.407 877.007,418.407 877.007,418.407L876.993,426.607Z" style="fill:rgb(35,31,32);fill-rule:nonzero;"/>
        <path d="M937.25,426.64C937.25,426.837 937.087,427 936.89,427L929.35,427C929.153,427 928.99,426.837 928.99,426.64L928.99,418.36C928.99,418.163 929.153,418 929.35,418L936.89,418C937.087,418 937.25,418.163 937.25,418.36L937.25,426.64Z" style="fill:rgb(35,31,32);fill-rule:nonzero;"/>
        <path d="M1043.5,426.597C1043.5,426.816 1043.32,426.997 1043.1,426.997C1043.1,426.997 1043.1,426.997 1043.1,426.997L1035.64,426.984C1035.42,426.983 1035.24,426.803 1035.24,426.584C1035.24,426.583 1035.24,426.583 1035.24,426.583L1035.26,418.403C1035.26,418.184 1035.44,418.003 1035.66,418.003C1035.66,418.003 1035.66,418.003 1035.66,418.003L1043.12,418.017C1043.34,418.017 1043.52,418.197 1043.52,418.416C1043.52,418.417 1043.52,418.417 1043.52,418.417L1043.5,426.597Z" style="fill:rgb(35,31,32);fill-rule:nonzero;"/>
        <path d="M1103,426.627C1103,426.836 1102.83,427.007 1102.62,427.007C1102.62,427.007 1102.62,427.007 1102.62,427.007L1094.86,426.993C1094.65,426.993 1094.48,426.821 1094.48,426.613C1094.48,426.613 1094.48,426.613 1094.48,426.613L1094.5,418.373C1094.5,418.164 1094.67,417.993 1094.88,417.993C1094.88,417.993 1094.88,417.993 1094.88,417.993L1102.64,418.007C1102.85,418.007 1103.02,418.179 1103.02,418.387C1103.02,418.387 1103.02,418.387 1103.02,418.387L1103,426.627Z" style="fill:rgb(35,31,32);fill-rule:nonzero;"/>
        <path d="M1221.5,426.587C1221.5,426.812 1221.32,426.997 1221.09,426.997C1221.09,426.997 1221.09,426.997 1221.09,426.997L1213.65,426.984C1213.43,426.983 1213.24,426.798 1213.24,426.574C1213.24,426.573 1213.24,426.573 1213.24,426.573L1213.26,418.413C1213.26,418.188 1213.44,418.003 1213.67,418.003C1213.67,418.003 1213.67,418.003 1213.67,418.003L1221.11,418.017C1221.33,418.017 1221.52,418.202 1221.52,418.426C1221.52,418.427 1221.52,418.427 1221.52,418.427L1221.5,426.587Z" style="fill:rgb(35,31,32);fill-rule:nonzero;"/>
        <path d="M628.84,481.23L628.6,481.12L628.5,480.88L628.5,420.32L628.58,420.11L628.79,420.02L638.28,419.99L645.22,420.06L646.56,420.12L647.87,420.25L649.17,420.45L650.43,420.72L651.66,421.05L652.85,421.44L654.04,421.91L655.18,422.43L656.69,423.26L658.12,424.19L659.5,425.25L660.79,426.4L662.03,427.68L663.17,429.05L664.24,430.53L665.21,432.09L666.1,433.75L666.89,435.48L667.58,437.29L668.17,439.16L668.65,441.08L669.02,443.04L669.28,445.03L669.43,447.04L669.49,449.17L669.47,451.22L669.36,453.22L669.18,455.2L668.92,457.08L668.58,458.93L668.17,460.7L667.67,462.42L667.1,464.05L666.45,465.62L665.73,467.12L664.92,468.56L664.05,469.9L663.1,471.18L662.08,472.38L660.97,473.52L660.01,474.39L658.99,475.22L657.94,475.99L656.82,476.71L655.66,477.37L654.44,477.99L653.18,478.55L651.87,479.06L649.81,479.72L647.64,480.25L645.31,480.67L642.82,480.97L640.22,481.16L637.29,481.27L634,481.29L629.4,481.24L628.84,481.23ZM636.37,427.16L636.13,473.65L636.13,473.66L636.17,473.88L636.3,474.07L636.48,474.19L636.71,474.24L641.82,474.26L643.69,474.17L645.56,473.89L647.38,473.4L649.16,472.73L650.86,471.87L652.48,470.83L654,469.63L655.4,468.27L656.67,466.77L657.8,465.15L658.78,463.41L659.59,461.58L660.24,459.67L660.7,457.7L660.99,455.69L661.09,453.67L661.13,447.41L661.04,445.38L660.78,443.36L660.33,441.39L659.71,439.48L658.91,437.64L657.96,435.89L656.84,434.25L655.59,432.74L654.2,431.37L652.7,430.15L651.09,429.1L649.39,428.22L647.62,427.53L645.8,427.02L643.94,426.71L642.06,426.61L636.95,426.58L636.73,426.62L636.54,426.75L636.42,426.93L636.37,427.16Z" style="fill:rgb(35,31,32);fill-rule:nonzero;"/>
        <path d="M702.16,449.29L706.73,459.4L711.53,469.45L711.63,469.52L711.74,469.46L711.76,469.4L711.76,420.3L711.84,420.09L712.05,420.01L718.98,420.01L719.18,420.09L719.26,420.29L719.26,480.61L719.21,480.86L719.07,481.07L718.85,481.21L718.6,481.26L710.18,481.26L709.93,481.22L709.7,481.12L709.51,480.96L709.37,480.75L702.06,465.16L698.91,458.27L696.11,451.98L691.53,441.87L686.73,431.82L686.63,431.75L686.52,431.81L686.51,431.87L686.51,480.97L686.42,481.18L686.22,481.26L679.29,481.26L679.09,481.18L679.01,480.98L679.01,420.66L679.06,420.41L679.2,420.2L679.41,420.06L679.67,420.01L688.09,420.01L688.33,420.05L688.56,420.15L688.75,420.31L688.89,420.52L696.21,436.11L699.35,443L702.16,449.29Z" style="fill:rgb(35,31,32);fill-rule:nonzero;"/>
        <path d="M750.81,420L754.79,420.08L754.95,420.13L755.06,420.27L775.2,481.05L775.21,481.09L775.16,481.27L774.98,481.35L767.35,481.35L767.2,481.31L767.11,481.19L761.99,465.74L761.9,465.55L761.75,465.41L761.56,465.32L761.36,465.28L750.58,465.25L739.81,465.18L739.6,465.21L739.42,465.3L739.27,465.44L739.17,465.63L733.9,481.02L733.8,481.14L733.65,481.18L726.03,481.11L725.85,481.02L725.8,480.84L725.81,480.8L746.56,420.23L746.66,420.09L746.83,420.04L750.81,420ZM741.21,457.83L741.2,457.97L741.25,458.1L741.36,458.19L741.49,458.22L759.34,458.28L759.47,458.25L759.58,458.16L759.63,458.04L759.63,457.9L750.8,429.22L750.7,429.08L750.54,429.01L750.35,429.06L750.23,429.22L741.21,457.83Z" style="fill:rgb(35,31,32);fill-rule:nonzero;"/>
        <path d="M550.27,474.45L550.31,474.44L550.44,474.47L550.5,474.59L550.5,480.34L550.45,480.51L550.31,480.62L548.17,481.25L546.04,481.65L544.01,481.82L543.04,481.82L542.09,481.75L541.2,481.63L540.33,481.45L539.53,481.21L538.76,480.91L538.06,480.56L537.39,480.15L536.8,479.7L536.25,479.18L535.74,478.6L535.28,477.95L534.89,477.26L534.56,476.51L534.28,475.7L534.07,474.83L533.92,473.92L533.83,472.95L533.77,464.86L533.74,443.11L533.69,442.88L533.56,442.68L533.37,442.55L533.14,442.5L527.01,442.5L526.75,442.39L526.64,442.13L526.64,436.67L526.67,436.52L526.76,436.39L526.89,436.3L527.04,436.27L533.28,436.27L533.46,436.23L533.62,436.13L533.72,435.97L533.76,435.79L533.76,427.57L533.81,427.42L533.94,427.32L540.9,425.02L540.94,425.01L541.16,425.07L541.26,425.28L541.26,435.77L541.3,435.96L541.41,436.12L541.57,436.23L541.76,436.27L550.05,436.27L550.23,436.31L550.38,436.4L550.47,436.55L550.51,436.73L550.51,442.06L550.48,442.23L550.38,442.38L550.24,442.48L550.07,442.51L541.94,442.51L541.68,442.56L541.47,442.71L541.32,442.92L541.27,443.18L541.31,469.28L541.35,470.27L541.46,471.18L541.64,472.03L541.89,472.79L542.21,473.46L542.59,474.05L543.04,474.53L543.54,474.93L544.17,475.27L544.87,475.49L545.64,475.6L546.46,475.59L547.34,475.48L548.27,475.25L549.25,474.9L550.27,474.45Z" style="fill:rgb(35,31,32);fill-rule:nonzero;"/>
        <path d="M1205.5,474.46L1205.54,474.45L1205.67,474.48L1205.73,474.6L1205.73,480.36L1205.68,480.53L1205.54,480.64L1203.39,481.27L1201.27,481.67L1199.23,481.84L1198.26,481.83L1197.31,481.77L1196.42,481.65L1195.55,481.47L1194.75,481.23L1193.98,480.93L1193.27,480.58L1192.61,480.17L1192.01,479.71L1191.46,479.2L1190.95,478.61L1190.49,477.96L1190.11,477.27L1189.77,476.52L1189.5,475.71L1189.28,474.84L1189.13,473.93L1189.04,472.96L1188.99,464.85L1188.96,443.08L1188.91,442.85L1188.78,442.65L1188.59,442.52L1188.36,442.47L1182.22,442.47L1181.96,442.36L1181.85,442.1L1181.85,436.64L1181.89,436.48L1181.97,436.35L1182.1,436.27L1182.26,436.24L1188.5,436.24L1188.69,436.2L1188.84,436.1L1188.95,435.94L1188.98,435.76L1188.98,427.53L1189.03,427.37L1189.16,427.28L1196.13,424.98L1196.17,424.97L1196.4,425.03L1196.49,425.24L1196.49,435.74L1196.53,435.93L1196.64,436.09L1196.8,436.2L1196.99,436.24L1205.29,436.24L1205.47,436.28L1205.61,436.38L1205.71,436.53L1205.75,436.7L1205.75,442.04L1205.71,442.21L1205.62,442.36L1205.48,442.45L1205.31,442.49L1197.17,442.49L1196.91,442.54L1196.69,442.68L1196.55,442.9L1196.5,443.16L1196.53,469.28L1196.57,470.28L1196.68,471.19L1196.86,472.04L1197.11,472.8L1197.43,473.47L1197.81,474.05L1198.26,474.54L1198.76,474.94L1199.4,475.28L1200.1,475.5L1200.86,475.61L1201.68,475.61L1202.56,475.49L1203.5,475.26L1204.48,474.91L1205.5,474.46Z" style="fill:rgb(35,31,32);fill-rule:nonzero;"/>
        <path d="M145.31,441.65L145.36,441.83L145.49,441.97L145.68,442.02L145.86,441.97L146,441.83L147,440.33L148.11,439.04L149.34,437.95L150.68,437.08L151.7,436.59L152.77,436.2L153.9,435.92L155.08,435.74L156.32,435.66L157.62,435.69L158.98,435.82L160.39,436.06L162.04,436.48L163.54,437.07L164.84,437.82L166.01,438.74L167.02,439.84L167.88,441.14L168.59,442.64L169.15,444.33L169.56,446.23L169.83,448.36L169.98,450.78L170.01,453.66L169.95,468.86L169.96,480.8L169.92,480.98L169.82,481.13L169.67,481.24L169.49,481.27L162.69,481.25L162.53,481.22L162.39,481.13L162.3,480.99L162.26,480.83L162.32,452.5L162.27,450.83L162.11,449.29L161.84,447.9L161.47,446.65L160.98,445.55L160.4,444.62L159.69,443.82L158.9,443.19L158.4,442.9L157.86,442.67L156.72,442.35L155.42,442.23L154.01,442.32L152.8,442.55L151.71,442.9L150.68,443.38L149.77,443.97L148.88,444.75L148.09,445.69L147.42,446.74L146.86,447.94L146.42,449.26L146.1,450.71L145.89,452.29L145.82,453.95L145.77,480.69L145.69,480.98L145.49,481.17L145.22,481.24L138.67,481.22L138.47,481.18L138.31,481.07L138.2,480.9L138.16,480.71L138.28,436.33L138.31,436.24L138.4,436.21L145.01,436.22L145.23,436.32L145.32,436.54L145.31,441.65Z" style="fill:rgb(35,31,32);fill-rule:nonzero;"/>
        <path d="M178.32,472.18L179.35,472.84L180.38,473.43L181.43,473.94L182.48,474.38L183.53,474.75L184.6,475.04L185.67,475.26L186.75,475.41L187.87,475.48L188.99,475.47L190.12,475.39L191.26,475.23L192.39,474.96L193.45,474.54L194.4,473.99L195.2,473.34L195.89,472.55L196.41,471.68L196.78,470.73L196.97,469.73L196.98,468.79L196.83,467.85L196.53,466.96L196.08,466.1L195.5,465.33L194.79,464.62L193.97,464.01L193.01,463.48L187.2,460.66L182.99,458.52L181.79,457.8L180.74,456.99L179.85,456.08L179.12,455.07L178.59,454.06L178.18,452.96L177.91,451.79L177.77,450.53L177.74,449.04L177.81,447.64L177.99,446.29L178.28,445.03L178.67,443.81L179.16,442.68L179.77,441.62L180.46,440.65L181.25,439.77L182.12,438.98L183.09,438.26L184.13,437.63L185.28,437.08L186.49,436.62L187.79,436.26L189.14,435.98L190.58,435.8L192.05,435.72L193.58,435.73L195.13,435.84L196.7,436.04L198.27,436.34L199.83,436.73L201.36,437.21L201.47,437.29L201.51,437.42L201.51,443.62L201.48,443.75L201.39,443.86L201.27,443.92L201.13,443.92L201.07,443.9L200.06,443.47L198.95,443.08L197.8,442.74L196.59,442.46L195.4,442.24L194.25,442.1L193.11,442.03L192.05,442.04L191.08,442.11L190.16,442.25L189.32,442.45L188.54,442.73L187.87,443.06L187.25,443.46L186.73,443.92L186.28,444.45L185.96,444.97L185.7,445.54L185.51,446.14L185.38,446.8L185.33,447.5L185.34,448.26L185.41,449.05L185.56,449.9L185.77,450.49L186.14,451L186.89,451.75L187.72,452.46L188.6,453.11L189.56,453.73L190.58,454.31L191.7,454.88L194.66,456.17L197.53,457.43L198.55,457.96L199.46,458.5L200.28,459.08L201,459.68L201.66,460.35L202.22,461.05L202.69,461.76L203.1,462.56L203.44,463.39L203.73,464.31L204.03,465.66L204.22,467L204.28,468.33L204.23,469.64L204.05,470.96L203.76,472.26L203.34,473.56L202.81,474.84L202.42,475.6L201.99,476.31L201.5,477L200.97,477.63L200.09,478.5L199.12,479.26L198.04,479.93L196.89,480.49L195.63,480.96L194.26,481.33L192.84,481.6L191.33,481.76L189.71,481.82L188.02,481.77L186.31,481.61L184.56,481.34L182.8,480.97L181.05,480.5L179.37,479.93L177.81,479.3L177.63,479.13L177.57,478.89L178.08,472.3L178.15,472.18L178.28,472.16L178.32,472.18Z" style="fill:rgb(35,31,32);fill-rule:nonzero;"/>
        <path d="M298.5,441.68L298.55,441.86L298.69,441.99L298.87,442.04L299.06,441.99L299.19,441.86L300.19,440.35L301.3,439.06L302.53,437.97L303.87,437.09L304.88,436.6L305.95,436.21L307.08,435.92L308.27,435.74L309.51,435.66L310.81,435.69L312.17,435.82L313.58,436.05L315.23,436.47L316.73,437.06L318.04,437.81L319.2,438.73L320.22,439.83L321.08,441.13L321.8,442.62L322.35,444.31L322.77,446.22L323.05,448.35L323.2,450.77L323.24,453.65L323.2,468.85L323.23,480.8L323.19,481L323.01,481.2L322.76,481.27L315.96,481.27L315.8,481.23L315.66,481.14L315.57,481.01L315.53,480.84L315.54,452.5L315.49,450.83L315.32,449.29L315.05,447.9L314.67,446.65L314.19,445.55L313.6,444.62L312.89,443.82L312.1,443.19L311.6,442.91L311.06,442.67L309.92,442.36L308.62,442.24L307.21,442.33L306,442.57L304.91,442.92L303.88,443.4L302.97,443.99L302.08,444.77L301.29,445.71L300.62,446.76L300.07,447.97L299.63,449.29L299.31,450.74L299.11,452.31L299.03,453.98L299.03,480.73L298.95,481.02L298.72,481.23L298.48,481.28L291.92,481.27L291.73,481.23L291.56,481.12L291.45,480.96L291.42,480.76L291.46,436.36L291.55,436.24L291.58,436.24L298.2,436.25L298.42,436.34L298.51,436.57L298.5,441.68Z" style="fill:rgb(35,31,32);fill-rule:nonzero;"/>
        <path d="M376.43,476.1L375.52,477.25L374.53,478.26L373.47,479.15L372.33,479.91L371.23,480.48L370.08,480.95L368.86,481.32L367.59,481.58L366.25,481.73L364.85,481.78L363.38,481.73L361.86,481.57L360.88,481.41L359.95,481.19L359.04,480.9L358.19,480.56L357.39,480.17L356.64,479.72L355.91,479.21L355.25,478.64L354.21,477.55L353.35,476.32L352.63,474.94L352.08,473.45L351.7,471.82L351.49,470.11L351.46,468.3L351.6,466.45L351.86,464.97L352.25,463.6L352.78,462.29L353.44,461.09L354.02,460.23L354.68,459.43L355.41,458.67L356.2,457.97L357.09,457.3L358.03,456.7L359.06,456.14L360.12,455.65L361.29,455.19L362.5,454.81L363.75,454.48L365.09,454.2L366.45,453.99L367.87,453.84L369.29,453.76L370.75,453.74L376.09,453.75L376.33,453.7L376.53,453.57L376.67,453.38L376.73,453.15L376.8,451.58L376.77,450.12L376.63,448.82L376.39,447.63L376.04,446.54L375.6,445.59L375.03,444.73L374.37,444L373.47,443.3L372.45,442.77L371.25,442.36L369.94,442.12L368.13,441.98L366.38,442.02L364.68,442.23L363.02,442.62L361.26,443.25L359.56,444.1L357.92,445.16L356.35,446.44L356.32,446.46L356.21,446.45L356.15,446.36L355.43,439.71L355.48,439.44L355.66,439.24L357.05,438.44L358.51,437.74L360.01,437.14L361.55,436.63L363.13,436.23L364.73,435.94L366.31,435.76L367.9,435.7L369.44,435.74L370.98,435.9L372.47,436.16L373.93,436.54L375.31,437.02L376.66,437.6L377.93,438.29L379.15,439.08L379.3,439.19L380.39,440.11L381.29,441.13L382.07,442.31L382.7,443.61L383.2,445.07L383.59,446.71L383.85,448.51L383.99,450.53L384.02,452.77L383.98,466.89L384.16,481L384.12,481.13L384.03,481.23L383.89,481.27L377.77,481.27L377.56,481.23L377.38,481.11L377.26,480.92L377.22,480.71L377.22,476.35L377.17,476.15L377.03,475.99L376.82,475.92L376.6,475.96L376.43,476.1ZM376.03,459.26L374.48,459.23L371.14,459.2L368.77,459.36L367.69,459.52L366.68,459.74L365.69,460.04L364.76,460.39L363.9,460.79L363.04,461.27L362.3,461.78L361.63,462.38L361.02,463.07L360.48,463.83L360.02,464.68L359.64,465.56L359.34,466.52L359.15,467.49L359.06,468.46L359.08,469.43L359.19,470.35L359.41,471.24L359.72,472.05L360.12,472.81L360.61,473.48L361.19,474.09L361.72,474.51L362.3,474.88L362.92,475.18L363.59,475.42L365.02,475.77L366.4,475.92L367.73,475.89L369.02,475.66L370.28,475.23L371.49,474.6L372.65,473.76L373.76,472.73L374.52,471.84L375.19,470.81L375.75,469.67L376.19,468.41L376.51,467.04L376.72,465.55L376.81,463.92L376.81,462.1L376.7,459.9L376.64,459.65L376.49,459.45L376.28,459.31L376.03,459.26Z" style="fill:rgb(35,31,32);fill-rule:nonzero;"/>
        <path d="M391.29,478.88L391.81,472.29L391.88,472.17L392.01,472.15L392.05,472.17L393.07,472.83L394.11,473.42L395.15,473.93L396.2,474.38L397.26,474.75L398.32,475.04L399.39,475.26L400.47,475.41L401.59,475.48L402.71,475.48L403.84,475.39L404.98,475.23L406.12,474.96L407.18,474.55L408.12,474L408.93,473.35L409.62,472.56L410.14,471.7L410.51,470.74L410.7,469.75L410.71,468.81L410.56,467.86L410.27,466.97L409.82,466.11L409.24,465.34L408.53,464.63L407.71,464.02L406.75,463.49L400.95,460.66L396.74,458.51L395.54,457.79L394.49,456.97L393.6,456.06L392.87,455.05L392.34,454.04L391.94,452.94L391.67,451.77L391.53,450.51L391.5,449.02L391.57,447.62L391.76,446.27L392.04,445.01L392.44,443.79L392.93,442.66L393.54,441.6L394.23,440.63L395.02,439.75L395.89,438.96L396.86,438.24L397.91,437.62L399.06,437.07L400.27,436.62L401.57,436.25L402.92,435.98L404.36,435.8L405.83,435.71L407.36,435.73L408.91,435.84L410.48,436.05L412.05,436.35L413.61,436.74L415.14,437.22L415.25,437.3L415.29,437.43L415.28,443.63L415.25,443.77L415.17,443.88L415.04,443.94L414.91,443.94L414.84,443.91L413.83,443.48L412.72,443.09L411.57,442.75L410.36,442.46L409.17,442.25L408.02,442.11L406.88,442.03L405.82,442.04L404.86,442.1L403.93,442.24L403.1,442.45L402.31,442.72L401.64,443.05L401.02,443.46L400.5,443.91L400.05,444.44L399.73,444.96L399.46,445.53L399.27,446.13L399.15,446.79L399.09,447.49L399.1,448.26L399.17,449.05L399.32,449.89L399.53,450.48L399.9,450.99L400.65,451.74L401.48,452.45L402.36,453.11L403.31,453.73L404.33,454.31L405.45,454.88L408.42,456.18L411.28,457.44L412.3,457.97L413.21,458.51L414.03,459.09L414.75,459.7L415.4,460.37L415.96,461.06L416.43,461.78L416.85,462.58L417.19,463.41L417.47,464.33L417.77,465.68L417.95,467.02L418.02,468.35L417.96,469.67L417.78,470.98L417.49,472.28L417.07,473.58L416.54,474.86L416.15,475.62L415.71,476.33L415.22,477.02L414.69,477.65L413.81,478.52L412.84,479.27L411.76,479.94L410.6,480.5L409.35,480.97L407.98,481.34L406.56,481.6L405.04,481.77L403.42,481.82L401.73,481.77L400.02,481.61L398.27,481.34L396.52,480.96L394.77,480.49L393.09,479.92L391.53,479.29L391.34,479.12L391.29,478.88Z" style="fill:rgb(35,31,32);fill-rule:nonzero;"/>
        <path d="M432.7,475.76L432.61,475.68L432.49,475.65L432.37,475.69L432.28,475.78L432.25,475.9L432.25,499.63L432.14,499.89L431.88,500L425.07,500L424.92,499.97L424.77,499.84L424.72,499.65L424.72,436.46L424.78,436.32L424.93,436.26L431.5,436.26L431.71,436.35L431.79,436.56L431.75,438.4L431.78,439.87L431.9,440.97L432.1,441.69L432.19,441.81L432.33,441.88L432.48,441.88L432.62,441.8L432.68,441.73L433.29,440.81L433.94,439.98L434.61,439.23L435.31,438.56L436.04,437.97L436.8,437.46L437.59,437.04L438.41,436.7L438.46,436.68L439.88,436.24L441.28,435.94L442.68,435.75L444.05,435.7L445.39,435.77L446.69,435.97L447.97,436.29L449.2,436.74L450.62,437.45L451.94,438.32L453.17,439.36L454.29,440.55L455.3,441.89L456.19,443.38L456.93,444.97L457.55,446.69L458.17,449.01L458.66,451.57L459.02,454.26L459.22,457.02L459.28,459.72L459.18,462.36L458.93,464.89L458.53,467.3L458.01,469.47L457.35,471.5L456.58,473.35L455.67,475.02L454.65,476.53L453.51,477.84L452.23,478.98L450.85,479.92L449.68,480.53L448.42,481.03L447.11,481.41L445.7,481.66L443.71,481.81L442.76,481.79L441.84,481.71L440.94,481.57L440.07,481.37L439.23,481.11L438.41,480.78L437.59,480.38L436.81,479.92L436.05,479.39L435.32,478.79L434.62,478.13L433.95,477.41L433.31,476.62L432.7,475.76ZM432.28,458.74L432.36,461.76L432.61,464.45L433.03,466.83L433.31,467.93L433.63,468.95L434,469.9L434.4,470.76L434.85,471.55L435.35,472.3L435.88,472.94L436.46,473.52L437.08,474.02L437.75,474.46L438.68,474.91L439.71,475.23L440.79,475.43L441.97,475.5L443.15,475.43L444.24,475.24L445.26,474.91L446.19,474.46L446.86,474.02L447.48,473.52L448.06,472.94L448.59,472.3L449.1,471.56L449.54,470.76L449.94,469.91L450.31,468.95L450.63,467.94L450.91,466.83L451.33,464.46L451.58,461.76L451.67,458.74L451.58,455.72L451.33,453.02L450.91,450.65L450.63,449.54L450.31,448.53L449.95,447.57L449.54,446.72L449.1,445.92L448.6,445.18L448.07,444.54L447.48,443.96L446.87,443.46L446.19,443.02L445.26,442.57L444.24,442.24L443.16,442.05L441.97,441.98L440.79,442.05L439.71,442.24L438.68,442.57L437.76,443.02L437.08,443.45L436.47,443.95L435.88,444.54L435.35,445.18L434.85,445.92L434.4,446.71L434,447.57L433.63,448.53L433.32,449.54L433.04,450.64L432.62,453.02L432.36,455.71L432.28,458.74Z" style="fill:rgb(35,31,32);fill-rule:nonzero;"/>
        <path d="M488.73,476.33L488.69,476.13L488.54,475.97L488.33,475.9L488.11,475.94L487.94,476.08L487.03,477.23L486.05,478.24L484.98,479.13L483.84,479.89L482.75,480.46L481.6,480.93L480.38,481.3L479.11,481.56L477.77,481.72L476.37,481.77L474.91,481.72L473.38,481.56L472.4,481.39L471.47,481.18L470.57,480.89L469.72,480.55L468.91,480.16L468.16,479.71L467.44,479.2L466.77,478.64L465.74,477.54L464.87,476.31L464.15,474.93L463.61,473.45L463.22,471.82L463.01,470.11L462.97,468.3L463.12,466.45L463.37,464.98L463.76,463.61L464.29,462.3L464.95,461.1L465.54,460.23L466.19,459.43L466.92,458.67L467.71,457.97L468.6,457.31L469.54,456.7L470.56,456.14L471.63,455.65L472.8,455.19L474.01,454.8L475.26,454.48L476.59,454.2L477.95,453.99L479.37,453.84L480.79,453.75L482.25,453.73L487.59,453.74L487.82,453.69L488.03,453.56L488.17,453.37L488.23,453.14L488.3,451.57L488.26,450.11L488.12,448.81L487.88,447.62L487.54,446.53L487.09,445.58L486.52,444.72L485.86,444L484.96,443.3L483.94,442.76L482.74,442.36L481.43,442.12L479.63,441.98L477.87,442.02L476.17,442.23L474.52,442.62L472.76,443.26L471.06,444.1L469.42,445.17L467.85,446.45L467.82,446.47L467.71,446.46L467.65,446.37L466.93,439.72L466.97,439.45L467.16,439.25L468.55,438.45L470,437.75L471.5,437.14L473.05,436.64L474.62,436.24L476.22,435.95L477.8,435.77L479.38,435.7L480.93,435.74L482.47,435.9L483.95,436.16L485.42,436.54L486.8,437.01L488.14,437.6L489.42,438.28L490.64,439.08L490.79,439.18L491.87,440.1L492.78,441.12L493.55,442.3L494.19,443.6L494.69,445.06L495.08,446.7L495.34,448.5L495.48,450.51L495.51,452.75L495.48,466.87L495.67,480.97L495.64,481.1L495.54,481.2L495.4,481.24L489.29,481.25L489.08,481.2L488.9,481.08L488.78,480.9L488.74,480.69L488.73,476.33ZM487.53,459.27L485.98,459.23L482.64,459.2L480.27,459.36L479.19,459.52L478.18,459.74L477.19,460.03L476.26,460.38L475.4,460.78L474.54,461.26L473.8,461.77L473.13,462.36L472.52,463.06L471.98,463.81L471.51,464.66L471.13,465.55L470.84,466.5L470.64,467.47L470.55,468.44L470.56,469.41L470.68,470.33L470.89,471.22L471.2,472.03L471.61,472.79L472.09,473.46L472.67,474.07L473.19,474.49L473.78,474.86L474.39,475.16L475.07,475.4L476.5,475.75L477.88,475.91L479.21,475.88L480.49,475.65L481.76,475.22L482.97,474.59L484.13,473.76L485.24,472.73L486,471.84L486.67,470.81L487.23,469.67L487.68,468.42L488,467.05L488.21,465.56L488.3,463.93L488.3,462.11L488.2,459.91L488.13,459.66L487.99,459.46L487.78,459.32L487.53,459.27Z" style="fill:rgb(35,31,32);fill-rule:nonzero;"/>
        <path d="M509.98,442.05L510.03,442.22L510.16,442.35L510.33,442.4L510.5,442.35L510.62,442.21L511.42,440.84L512.34,439.63L513.36,438.59L514.49,437.71L515.33,437.21L516.23,436.78L517.18,436.42L518.18,436.15L519.23,435.96L520.33,435.84L521.49,435.8L522.7,435.84L522.87,435.92L522.94,436.1L522.92,442.99L522.85,443.15L522.68,443.21L522.66,443.21L521.72,443.06L520.83,442.99L519.95,442.98L519.12,443.04L518.32,443.17L517.57,443.36L516.83,443.62L516.14,443.95L515.49,444.34L514.89,444.78L514.31,445.3L513.77,445.87L513.26,446.51L512.8,447.21L512.37,447.98L511.99,448.79L511.34,450.59L510.87,452.57L510.58,454.75L510.47,457.02L510.43,480.7L510.39,480.91L510.27,481.08L510.1,481.2L509.89,481.24L503.23,481.23L503.04,481.19L502.87,481.08L502.76,480.92L502.72,480.72L502.82,436.36L502.84,436.28L502.96,436.22L509.64,436.23L509.81,436.28L509.95,436.41L509.99,436.59L509.98,442.05Z" style="fill:rgb(35,31,32);fill-rule:nonzero;"/>
        <path d="M610.22,442.22L611.02,440.85L611.93,439.64L612.95,438.59L614.08,437.71L614.92,437.2L615.82,436.77L616.76,436.42L617.76,436.14L618.81,435.94L619.92,435.83L621.07,435.78L622.28,435.82L622.45,435.9L622.52,436.08L622.52,442.97L622.45,443.14L622.28,443.19L622.26,443.19L621.32,443.05L620.43,442.97L619.55,442.97L618.72,443.03L617.92,443.16L617.17,443.35L616.43,443.62L615.74,443.94L615.09,444.33L614.49,444.78L613.91,445.3L613.38,445.87L612.87,446.52L612.41,447.21L611.98,447.98L611.6,448.79L610.95,450.59L610.49,452.58L610.2,454.75L610.1,457.03L610.11,480.71L610.07,480.92L609.95,481.09L609.78,481.21L609.57,481.25L602.91,481.25L602.71,481.21L602.55,481.1L602.44,480.94L602.4,480.75L602.4,436.38L602.43,436.3L602.54,436.24L609.22,436.24L609.42,436.3L609.54,436.43L609.58,436.6L609.58,442.06L609.63,442.23L609.75,442.36L609.93,442.4L610.1,442.35L610.22,442.22Z" style="fill:rgb(35,31,32);fill-rule:nonzero;"/>
        <path d="M816.98,435.74L818.45,435.79L819.86,435.92L821.21,436.15L822.49,436.46L823.74,436.87L824.91,437.37L826.03,437.95L827.07,438.62L828.01,439.34L828.88,440.12L829.7,440.99L830.45,441.93L831.17,442.96L831.81,444.05L832.41,445.22L832.93,446.45L833.41,447.78L833.82,449.16L834.17,450.62L834.45,452.12L834.67,453.69L834.83,455.34L834.93,457.01L834.96,458.76L834.93,460.5L834.83,462.17L834.67,463.82L834.44,465.39L834.16,466.89L833.8,468.35L833.39,469.73L832.91,471.06L832.39,472.29L831.79,473.46L831.15,474.55L830.43,475.58L829.68,476.51L828.85,477.38L827.98,478.16L827.05,478.88L826,479.55L824.88,480.13L823.71,480.62L822.46,481.03L821.18,481.34L819.83,481.57L818.42,481.7L816.95,481.75L815.47,481.7L814.07,481.56L812.71,481.34L811.43,481.02L810.18,480.62L809.01,480.12L807.89,479.53L806.85,478.87L805.91,478.15L805.05,477.36L804.22,476.49L803.47,475.56L802.75,474.53L802.11,473.44L801.52,472.27L800.99,471.04L800.51,469.71L800.11,468.33L799.76,466.86L799.47,465.37L799.25,463.8L799.09,462.14L799,460.47L798.96,458.73L799,456.99L799.09,455.32L799.26,453.67L799.48,452.1L799.77,450.6L800.12,449.14L800.53,447.76L801.01,446.43L801.53,445.2L802.13,444.03L802.78,442.94L803.49,441.91L804.25,440.98L805.07,440.11L805.94,439.32L806.88,438.61L807.92,437.94L809.04,437.35L810.21,436.86L811.46,436.46L812.74,436.14L814.1,435.92L815.5,435.79L816.98,435.74ZM806.89,458.75L806.96,461.73L807.2,464.36L807.61,466.69L808.18,468.76L808.54,469.7L808.93,470.55L809.36,471.34L809.85,472.07L810.37,472.72L810.94,473.31L811.54,473.82L812.2,474.28L813.26,474.82L814.38,475.2L815.64,475.43L816.96,475.51L818.28,475.43L819.53,475.2L820.66,474.82L821.71,474.28L822.37,473.82L822.98,473.31L823.55,472.72L824.06,472.07L824.55,471.33L824.99,470.55L825.37,469.7L825.73,468.76L826.31,466.68L826.71,464.36L826.95,461.73L827.03,458.75L826.95,455.77L826.71,453.14L826.31,450.82L825.73,448.75L825.37,447.8L824.99,446.96L824.55,446.17L824.06,445.43L823.55,444.78L822.97,444.19L822.37,443.68L821.71,443.23L820.65,442.69L819.53,442.31L818.28,442.07L816.96,442L815.64,442.07L814.38,442.31L813.26,442.69L812.2,443.23L811.54,443.68L810.94,444.19L810.37,444.79L809.85,445.43L809.36,446.17L808.93,446.96L808.54,447.8L808.18,448.75L807.61,450.82L807.2,453.14L806.96,455.77L806.89,458.75Z" style="fill:rgb(35,31,32);fill-rule:nonzero;"/>
        <path d="M849.87,442.11L849.91,442.28L850.04,442.4L850.21,442.45L850.38,442.4L850.51,442.26L851.3,440.89L852.21,439.68L853.23,438.63L854.36,437.75L855.2,437.24L856.09,436.81L857.03,436.45L858.03,436.18L859.08,435.98L860.18,435.86L861.34,435.81L862.55,435.85L862.72,435.92L862.79,436.1L862.8,442.99L862.73,443.16L862.56,443.21L862.54,443.21L861.6,443.07L860.71,443L859.83,442.99L859,443.05L858.2,443.19L857.45,443.38L856.72,443.65L856.03,443.98L855.38,444.37L854.78,444.81L854.2,445.33L853.67,445.9L853.16,446.55L852.7,447.25L852.28,448.02L851.9,448.83L851.26,450.63L850.8,452.62L850.51,454.79L850.42,457.06L850.47,480.73L850.43,480.93L850.32,481.11L850.14,481.23L849.94,481.27L843.28,481.28L843.09,481.24L842.92,481.14L842.81,480.97L842.77,480.78L842.68,436.44L842.71,436.36L842.82,436.3L849.5,436.29L849.68,436.34L849.81,436.47L849.86,436.65L849.87,442.11Z" style="fill:rgb(35,31,32);fill-rule:nonzero;"/>
        <path d="M911.45,441.86L911.6,442.01L911.81,442.06L912.01,442L912.16,441.85L912.21,441.65L912.21,437.14L912.26,436.86L912.39,436.6L912.71,436.34L913.11,436.24L918.88,436.24L919.23,436.31L919.52,436.52L919.69,436.83L919.73,437.19L919.71,437.28L919.55,438.19L919.43,439.34L919.32,442.3L919.22,463.41L919.31,479.93L919.25,483.41L919.15,484.96L918.99,486.38L918.77,487.67L918.51,488.84L918.19,489.88L917.82,490.79L917.03,492.3L916.12,493.68L915.1,494.93L913.96,496.05L912.48,497.2L910.85,498.18L909.05,498.98L907.1,499.6L904.92,500.08L902.72,500.39L900.83,500.51L898.93,500.5L897.02,500.37L895.09,500.12L893.16,499.73L891.21,499.22L889.24,498.58L887.27,497.82L887.18,497.74L887.15,497.62L887.15,490.34L887.25,490.13L887.47,490.09L887.54,490.12L888.92,490.93L890.34,491.66L891.82,492.29L893.32,492.84L894.82,493.29L896.33,493.63L897.81,493.86L899.27,493.98L900.65,493.99L902,493.89L903.27,493.68L904.48,493.36L905.6,492.94L906.65,492.42L907.6,491.79L908.48,491.06L909.31,490.17L910.04,489.16L910.66,488.05L911.17,486.82L911.55,485.51L911.83,484.08L911.99,482.57L912.03,480.94L911.92,475.29L911.88,475.17L911.79,475.08L911.67,475.05L911.55,475.08L911.46,475.17L910.89,476.07L910.29,476.9L909.65,477.67L908.99,478.37L908.29,479.01L907.55,479.58L906.79,480.08L905.99,480.52L904.63,481.1L903.18,481.5L901.65,481.73L900.04,481.79L898.2,481.66L896.45,481.33L894.85,480.81L893.33,480.07L892.12,479.29L890.98,478.33L889.95,477.25L888.99,476.01L888.13,474.63L887.36,473.1L886.69,471.45L886.12,469.66L885.63,467.71L885.25,465.64L884.98,463.45L884.82,461.18L884.77,458.81L884.83,456.42L885.01,454.02L885.29,451.71L885.68,449.59L886.22,447.53L886.88,445.61L887.67,443.83L888.54,442.26L889.52,440.88L890.59,439.7L891.73,438.74L892.58,438.16L893.45,437.64L894.34,437.18L895.24,436.78L896.17,436.44L897.11,436.16L898.05,435.95L898.99,435.8L899.92,435.71L900.86,435.69L901.78,435.74L902.69,435.85L903.58,436.02L904.45,436.26L905.31,436.56L906.14,436.92L906.93,437.35L907.69,437.83L908.4,438.36L909.09,438.95L909.74,439.6L910.36,440.31L910.92,441.06L911.45,441.86ZM892.37,458.75L892.45,461.78L892.71,464.47L893.13,466.85L893.41,467.95L893.73,468.96L894.1,469.92L894.5,470.77L894.94,471.57L895.45,472.31L895.98,472.95L896.56,473.53L897.18,474.03L897.85,474.47L898.78,474.92L899.81,475.25L900.89,475.44L902.07,475.51L903.25,475.44L904.33,475.24L905.36,474.91L906.29,474.46L906.96,474.03L907.58,473.53L908.16,472.94L908.69,472.3L909.19,471.56L909.64,470.77L910.04,469.91L910.41,468.95L910.73,467.94L911.01,466.84L911.42,464.46L911.67,461.77L911.76,458.74L911.67,455.72L911.42,453.03L911,450.65L910.72,449.55L910.4,448.53L910.03,447.58L909.63,446.72L909.18,445.93L908.68,445.19L908.15,444.54L907.56,443.96L906.95,443.46L906.27,443.02L905.34,442.58L904.32,442.25L903.23,442.05L902.05,441.99L900.87,442.06L899.79,442.25L898.76,442.58L897.84,443.03L897.16,443.47L896.55,443.97L895.96,444.55L895.43,445.19L894.93,445.93L894.49,446.73L894.08,447.58L893.72,448.54L893.4,449.55L893.12,450.66L892.7,453.03L892.45,455.73L892.37,458.75Z" style="fill:rgb(35,31,32);fill-rule:nonzero;"/>
        <path d="M955.28,441.87L956.27,440.36L957.38,439.07L958.61,437.98L959.95,437.1L960.97,436.6L962.04,436.21L963.17,435.93L964.35,435.74L965.6,435.67L966.9,435.69L968.25,435.82L969.67,436.05L971.32,436.47L972.82,437.06L974.13,437.8L975.29,438.72L976.31,439.82L977.17,441.12L977.89,442.61L978.45,444.3L978.87,446.21L979.15,448.34L979.3,450.76L979.34,453.64L979.31,468.85L979.36,480.8L979.32,480.98L979.22,481.13L979.07,481.23L978.89,481.27L972.09,481.27L971.93,481.24L971.79,481.15L971.7,481.01L971.66,480.85L971.64,452.5L971.59,450.83L971.42,449.28L971.15,447.9L970.77,446.65L970.28,445.55L969.7,444.62L968.99,443.82L968.19,443.19L967.69,442.91L967.16,442.67L966.01,442.36L964.71,442.25L963.3,442.34L962.09,442.57L961,442.92L959.97,443.4L959.06,444L958.18,444.78L957.38,445.72L956.72,446.78L956.16,447.98L955.72,449.3L955.4,450.75L955.2,452.33L955.13,454L955.16,480.75L955.12,480.96L955,481.14L954.82,481.26L954.61,481.3L948.05,481.3L947.85,481.26L947.69,481.15L947.58,480.99L947.54,480.79L947.54,436.38L947.58,436.3L947.66,436.26L954.28,436.26L954.5,436.35L954.59,436.58L954.59,441.69L954.64,441.87L954.77,442.01L954.96,442.06L955.14,442.01L955.28,441.87Z" style="fill:rgb(35,31,32);fill-rule:nonzero;"/>
        <path d="M1060.97,441.69L1061.02,441.87L1061.15,442.01L1061.34,442.06L1061.52,442.01L1061.66,441.87L1062.65,440.36L1063.76,439.07L1064.99,437.98L1066.33,437.1L1067.34,436.6L1068.41,436.21L1069.54,435.93L1070.73,435.74L1071.97,435.66L1073.27,435.69L1074.63,435.81L1076.04,436.05L1077.69,436.46L1079.19,437.05L1080.5,437.79L1081.67,438.71L1082.68,439.81L1083.55,441.11L1084.26,442.6L1084.83,444.29L1085.24,446.2L1085.52,448.33L1085.68,450.75L1085.72,453.63L1085.7,468.83L1085.75,480.78L1085.71,480.96L1085.61,481.11L1085.46,481.21L1085.28,481.25L1078.48,481.25L1078.32,481.22L1078.18,481.13L1078.09,480.99L1078.05,480.83L1078.02,452.49L1077.97,450.82L1077.8,449.28L1077.53,447.89L1077.15,446.64L1076.66,445.54L1076.07,444.61L1075.36,443.81L1074.57,443.19L1074.07,442.9L1073.53,442.67L1072.39,442.36L1071.09,442.24L1069.68,442.34L1068.47,442.57L1067.37,442.92L1066.35,443.4L1065.44,444L1064.56,444.78L1063.76,445.72L1063.1,446.78L1062.54,447.98L1062.11,449.3L1061.79,450.75L1061.59,452.33L1061.52,454L1061.56,480.74L1061.52,480.95L1061.4,481.13L1061.22,481.25L1061.01,481.29L1054.45,481.29L1054.25,481.25L1054.09,481.14L1053.98,480.98L1053.94,480.78L1053.92,436.39L1053.95,436.31L1054.04,436.27L1060.66,436.26L1060.88,436.36L1060.97,436.58L1060.97,441.69Z" style="fill:rgb(35,31,32);fill-rule:nonzero;"/>
        <path d="M1117.56,461.62L1117.73,463.81L1118.01,465.78L1118.39,467.54L1118.9,469.13L1119.52,470.52L1120.25,471.75L1121.13,472.83L1122.12,473.74L1123.03,474.36L1124.06,474.89L1125.17,475.29L1126.39,475.59L1127.64,475.78L1128.87,475.87L1130.1,475.87L1131.31,475.77L1132.4,475.59L1133.48,475.34L1134.56,475L1135.62,474.59L1136.68,474.1L1137.72,473.52L1138.76,472.87L1139.78,472.14L1139.8,472.13L1139.89,472.19L1140.34,478.91L1140.29,479.1L1140.14,479.23L1138.51,479.88L1136.86,480.44L1135.23,480.91L1133.58,481.29L1131.97,481.57L1130.36,481.76L1128.8,481.85L1127.26,481.84L1125.79,481.73L1124.34,481.52L1122.96,481.22L1121.62,480.82L1120.37,480.34L1119.16,479.75L1118.03,479.08L1116.96,478.31L1116.03,477.52L1115.16,476.64L1114.36,475.7L1113.61,474.68L1112.94,473.6L1112.33,472.43L1111.79,471.21L1111.31,469.9L1110.67,467.74L1110.19,465.52L1109.85,463.24L1109.66,460.9L1109.62,458.51L1109.74,456.06L1110,453.55L1110.41,450.99L1110.91,448.81L1111.57,446.77L1112.38,444.86L1113.34,443.11L1114.44,441.54L1115.69,440.13L1117.05,438.92L1118.56,437.89L1119.7,437.27L1120.91,436.76L1122.16,436.35L1123.47,436.05L1124.83,435.85L1126.25,435.75L1127.7,435.76L1129.21,435.88L1130.92,436.16L1132.55,436.62L1134.02,437.25L1135.41,438.05L1136.36,438.76L1137.24,439.56L1138.06,440.46L1138.8,441.43L1139.48,442.5L1140.12,443.68L1140.67,444.93L1141.16,446.29L1141.59,447.72L1141.95,449.25L1142.25,450.89L1142.49,452.6L1142.65,454.42L1142.75,456.31L1142.79,458.3L1142.76,460.36L1142.7,460.61L1142.56,460.81L1142.35,460.95L1142.1,461L1118.14,461L1117.91,461.05L1117.72,461.19L1117.6,461.39L1117.56,461.62ZM1118,455.19L1134.88,455.31L1135.09,455.23L1135.17,455.02L1135.19,453.43L1135.15,452.27L1135.04,451.12L1134.85,449.99L1134.59,448.9L1134.25,447.84L1133.83,446.84L1133.36,445.91L1132.82,445.04L1132.22,444.26L1131.57,443.56L1130.88,442.96L1130.14,442.46L1129.38,442.06L1128.59,441.77L1127.79,441.6L1126.98,441.53L1126.1,441.53L1125.28,441.58L1124.48,441.74L1123.69,442.02L1122.92,442.41L1122.18,442.9L1121.48,443.49L1120.82,444.18L1120.21,444.95L1119.66,445.81L1119.17,446.74L1118.74,447.73L1118.39,448.78L1118.11,449.87L1117.9,451L1117.77,452.15L1117.73,453.31L1117.71,454.9L1117.79,455.1L1117.99,455.19L1118,455.19Z" style="fill:rgb(35,31,32);fill-rule:nonzero;"/>
        <path d="M1155.75,458.84L1155.8,460.67L1155.92,462.34L1156.12,463.86L1156.39,465.27L1156.76,466.6L1157.2,467.82L1157.73,468.98L1158.38,470.09L1158.98,470.95L1159.66,471.78L1160.4,472.57L1161.23,473.33L1161.94,473.8L1163.53,474.48L1165.16,474.95L1166.45,475.16L1167.76,475.24L1169.1,475.2L1170.47,475.03L1171.87,474.73L1173.29,474.31L1174.74,473.76L1176.22,473.08L1176.41,473.03L1176.59,473.07L1176.74,473.19L1176.83,473.36L1176.84,473.46L1176.84,479.58L1176.74,479.88L1176.49,480.08L1174.72,480.67L1172.98,481.15L1171.28,481.5L1169.62,481.73L1168,481.84L1166.41,481.83L1164.87,481.69L1163.36,481.44L1162.09,481.13L1160.88,480.77L1159.71,480.34L1158.6,479.84L1157.54,479.29L1156.54,478.68L1155.58,478L1154.68,477.27L1153.86,476.51L1153.1,475.69L1152.37,474.81L1151.7,473.88L1151.09,472.9L1150.53,471.88L1150.01,470.79L1149.55,469.66L1149.14,468.47L1148.78,467.24L1148.47,465.94L1148.22,464.62L1147.88,461.84L1147.75,458.89L1147.84,455.94L1148.15,453.16L1148.38,451.82L1148.67,450.53L1149.01,449.29L1149.41,448.1L1149.86,446.96L1150.36,445.86L1150.91,444.83L1151.51,443.85L1152.17,442.91L1152.88,442.02L1153.64,441.2L1154.45,440.42L1155.34,439.67L1156.29,438.98L1157.28,438.36L1158.33,437.8L1159.44,437.29L1160.61,436.84L1161.81,436.46L1163.07,436.14L1164.57,435.87L1166.12,435.72L1167.71,435.68L1169.33,435.77L1170.99,435.98L1172.7,436.31L1174.44,436.76L1176.22,437.33L1176.47,437.53L1176.57,437.83L1176.65,443.95L1176.64,444.05L1176.56,444.22L1176.41,444.34L1176.22,444.38L1176.04,444.34L1174.55,443.68L1173.09,443.15L1171.67,442.74L1170.27,442.46L1168.9,442.31L1167.55,442.28L1166.24,442.38L1164.96,442.61L1163.33,443.1L1161.75,443.8L1161.05,444.28L1160.23,445.05L1159.49,445.84L1158.82,446.69L1158.23,447.56L1157.61,448.68L1157.09,449.84L1156.66,451.07L1156.31,452.4L1156.05,453.81L1155.88,455.33L1155.78,457L1155.75,458.84Z" style="fill:rgb(35,31,32);fill-rule:nonzero;"/>
        <path d="M1264.03,458.74L1263.99,460.48L1263.9,462.15L1263.74,463.81L1263.51,465.38L1263.23,466.88L1262.88,468.34L1262.47,469.72L1261.99,471.05L1261.47,472.28L1260.87,473.45L1260.23,474.54L1259.51,475.57L1258.76,476.51L1257.94,477.38L1257.07,478.16L1256.13,478.88L1255.09,479.54L1253.96,480.13L1252.79,480.63L1251.55,481.03L1250.27,481.35L1248.91,481.57L1247.51,481.71L1246.03,481.75L1244.55,481.71L1243.15,481.57L1241.79,481.35L1240.51,481.04L1239.27,480.63L1238.1,480.14L1236.97,479.55L1235.93,478.88L1234.99,478.17L1234.12,477.38L1233.3,476.51L1232.54,475.58L1231.83,474.55L1231.18,473.46L1230.59,472.29L1230.06,471.06L1229.58,469.73L1229.17,468.35L1228.82,466.89L1228.54,465.39L1228.31,463.82L1228.15,462.16L1228.05,460.49L1228.02,458.75L1228.05,457.01L1228.15,455.34L1228.31,453.69L1228.53,452.12L1228.82,450.62L1229.17,449.15L1229.58,447.78L1230.06,446.44L1230.58,445.22L1231.17,444.04L1231.82,442.95L1232.53,441.92L1233.29,440.99L1234.11,440.12L1234.98,439.33L1235.92,438.62L1236.96,437.95L1238.08,437.36L1239.25,436.87L1240.5,436.46L1241.78,436.15L1243.14,435.92L1244.54,435.79L1246.02,435.74L1247.49,435.79L1248.9,435.92L1250.25,436.14L1251.53,436.46L1252.78,436.86L1253.95,437.36L1255.07,437.94L1256.12,438.61L1257.05,439.33L1257.92,440.11L1258.75,440.98L1259.5,441.91L1260.22,442.94L1260.86,444.03L1261.46,445.21L1261.98,446.44L1262.46,447.77L1262.87,449.14L1263.23,450.61L1263.51,452.11L1263.73,453.68L1263.9,455.33L1263.99,457L1264.03,458.74ZM1256.09,458.74L1256.01,455.76L1255.77,453.13L1255.37,450.81L1254.79,448.74L1254.43,447.8L1254.05,446.95L1253.61,446.16L1253.12,445.43L1252.6,444.78L1252.03,444.19L1251.43,443.68L1250.77,443.22L1249.71,442.68L1248.59,442.31L1247.33,442.07L1246.02,442L1244.7,442.07L1243.44,442.31L1242.32,442.69L1241.26,443.23L1240.6,443.68L1240,444.19L1239.43,444.78L1238.91,445.43L1238.42,446.17L1237.99,446.96L1237.6,447.8L1237.25,448.75L1236.67,450.82L1236.27,453.14L1236.03,455.77L1235.95,458.75L1236.03,461.73L1236.27,464.36L1236.67,466.68L1237.25,468.75L1237.61,469.7L1238,470.54L1238.43,471.33L1238.92,472.07L1239.44,472.71L1240.01,473.31L1240.61,473.82L1241.27,474.27L1242.33,474.81L1243.45,475.19L1244.71,475.42L1246.03,475.5L1247.35,475.42L1248.6,475.19L1249.72,474.81L1250.78,474.27L1251.44,473.81L1252.04,473.3L1252.61,472.71L1253.13,472.07L1253.62,471.33L1254.05,470.54L1254.44,469.69L1254.8,468.75L1255.37,466.68L1255.78,464.36L1256.01,461.73L1256.09,458.74Z" style="fill:rgb(35,31,32);fill-rule:nonzero;"/>
        <path d="M1277.96,441.69L1278.01,441.87L1278.14,442.01L1278.33,442.06L1278.51,442.01L1278.65,441.87L1279.64,440.37L1280.75,439.08L1281.97,437.99L1283.31,437.12L1284.32,436.62L1285.39,436.24L1286.52,435.95L1287.7,435.77L1288.94,435.69L1290.24,435.72L1291.59,435.85L1293,436.08L1294.64,436.5L1296.14,437.09L1297.44,437.82L1298.61,438.74L1299.62,439.84L1300.48,441.13L1301.19,442.63L1301.75,444.31L1302.16,446.21L1302.44,448.34L1302.59,450.75L1302.63,453.62L1302.6,468.78L1302.63,480.7L1302.55,480.97L1302.38,481.12L1302.17,481.17L1295.38,481.17L1295.22,481.13L1295.09,481.04L1294.99,480.91L1294.96,480.75L1294.95,452.48L1294.9,450.82L1294.74,449.27L1294.47,447.89L1294.09,446.65L1293.6,445.55L1293.02,444.62L1292.31,443.82L1291.52,443.2L1291.03,442.92L1290.49,442.68L1289.35,442.37L1288.05,442.25L1286.65,442.35L1285.44,442.58L1284.35,442.92L1283.33,443.4L1282.42,444L1281.53,444.77L1280.74,445.71L1280.08,446.76L1279.52,447.97L1279.09,449.28L1278.77,450.73L1278.57,452.3L1278.49,453.97L1278.5,480.64L1278.46,480.85L1278.34,481.03L1278.17,481.14L1277.96,481.19L1271.42,481.18L1271.22,481.14L1271.06,481.03L1270.95,480.87L1270.91,480.67L1270.94,436.39L1270.99,436.29L1271.05,436.27L1277.66,436.28L1277.87,436.37L1277.96,436.6L1277.96,441.69Z" style="fill:rgb(35,31,32);fill-rule:nonzero;"/>
        <path d="M126.76,480.87C126.76,481.078 126.588,481.25 126.38,481.25L119.64,481.25C119.432,481.25 119.26,481.078 119.26,480.87L119.26,436.63C119.26,436.422 119.432,436.25 119.64,436.25L126.38,436.25C126.588,436.25 126.76,436.422 126.76,436.63L126.76,480.87Z" style="fill:rgb(35,31,32);fill-rule:nonzero;"/>
        <path d="M236.45,475.82L236.4,475.64L236.27,475.5L236.08,475.45L235.9,475.5L235.76,475.64L234.76,477.14L233.65,478.43L232.42,479.52L231.08,480.39L230.07,480.88L229,481.27L227.87,481.56L226.68,481.73L225.44,481.81L224.14,481.78L222.78,481.65L221.37,481.42L219.72,480.99L218.22,480.4L216.92,479.66L215.76,478.74L214.74,477.63L213.88,476.34L213.17,474.84L212.62,473.15L212.21,471.25L211.93,469.11L211.78,466.7L211.75,463.82L211.81,448.63L211.8,436.68L211.84,436.48L212.02,436.29L212.27,436.21L219.06,436.23L219.22,436.26L219.36,436.35L219.46,436.49L219.49,436.65L219.44,464.98L219.49,466.64L219.65,468.19L219.92,469.58L220.3,470.82L220.78,471.92L221.36,472.86L222.07,473.66L222.86,474.28L223.36,474.57L223.9,474.81L225.04,475.12L226.34,475.24L227.75,475.15L228.96,474.92L230.05,474.57L231.08,474.09L231.99,473.5L232.88,472.72L233.67,471.78L234.34,470.73L234.9,469.53L235.34,468.21L235.66,466.76L235.86,465.19L235.94,463.52L235.98,436.79L236.02,436.58L236.14,436.4L236.32,436.28L236.53,436.24L243.08,436.26L243.38,436.36L243.53,436.54L243.59,436.77L243.48,481.14L243.45,481.23L243.36,481.26L236.75,481.24L236.53,481.15L236.44,480.92L236.45,475.82Z" style="fill:rgb(35,31,32);fill-rule:nonzero;"/>
        <path d="M280.76,480.86C280.76,481.074 280.584,481.25 280.37,481.25L273.65,481.25C273.436,481.25 273.26,481.074 273.26,480.86L273.26,436.64C273.26,436.426 273.436,436.25 273.65,436.25L280.37,436.25C280.584,436.25 280.76,436.426 280.76,436.64L280.76,480.86Z" style="fill:rgb(35,31,32);fill-rule:nonzero;"/>
        <path d="M876.76,480.85C876.76,481.075 876.575,481.26 876.35,481.26L869.41,481.26C869.185,481.26 869,481.075 869,480.85L869,436.67C869,436.445 869.185,436.26 869.41,436.26L876.35,436.26C876.575,436.26 876.76,436.445 876.76,436.67L876.76,480.85Z" style="fill:rgb(35,31,32);fill-rule:nonzero;"/>
        <path d="M936.76,480.86C936.76,481.074 936.584,481.25 936.37,481.25L929.65,481.25C929.436,481.25 929.26,481.074 929.26,480.86L929.26,436.64C929.26,436.426 929.436,436.25 929.65,436.25L936.37,436.25C936.584,436.25 936.76,436.426 936.76,436.64L936.76,480.86Z" style="fill:rgb(35,31,32);fill-rule:nonzero;"/>
        <path d="M1043.25,480.85C1043.25,481.069 1043.07,481.25 1042.85,481.25L1035.89,481.25C1035.67,481.25 1035.49,481.069 1035.49,480.85L1035.49,436.65C1035.49,436.431 1035.67,436.25 1035.89,436.25L1042.85,436.25C1043.07,436.25 1043.25,436.431 1043.25,436.65L1043.25,480.85Z" style="fill:rgb(35,31,32);fill-rule:nonzero;"/>
        <path d="M1088,499.19L1088,494.13L1088.05,493.9L1088.19,493.71L1088.39,493.6L1088.63,493.58L1088.7,493.6L1090.32,493.95L1091.04,494.02L1091.7,494.02L1092.3,493.94L1092.84,493.8L1093.31,493.58L1093.73,493.29L1094.24,492.71L1094.62,491.96L1094.85,491.04L1094.94,489.96L1095.01,473.22L1094.99,436.57L1095.06,436.37L1095.17,436.28L1095.31,436.25L1102.2,436.25L1102.39,436.33L1102.47,436.52L1102.51,475.4L1102.47,486.56L1102.38,492.21L1102.2,493.85L1102.03,494.62L1101.81,495.34L1101.53,496.01L1101.21,496.63L1100.82,497.23L1100.39,497.77L1099.93,498.25L1099.43,498.68L1098.87,499.08L1098.28,499.43L1096.98,499.98L1095.52,500.37L1093.93,500.57L1092.21,500.57L1090.46,500.39L1088.64,500.02L1088.38,499.9L1088.18,499.71L1088.05,499.47L1088,499.19Z" style="fill:rgb(35,31,32);fill-rule:nonzero;"/>
        <path d="M1221.25,480.85C1221.25,481.069 1221.07,481.25 1220.85,481.25L1213.89,481.25C1213.67,481.25 1213.49,481.069 1213.49,480.85L1213.49,436.65C1213.49,436.431 1213.67,436.25 1213.89,436.25L1220.85,436.25C1221.07,436.25 1221.25,436.431 1221.25,436.65L1221.25,480.85Z" style="fill:rgb(35,31,32);fill-rule:nonzero;"/>
        <path d="M777.37,131.65L768.71,130.23L760.05,128.98L751.46,127.93L742.9,127.06L734.43,126.38L726.02,125.89L717.73,125.6L709.51,125.49L701.45,125.58L693.48,125.86L685.65,126.32L677.93,126.98L670.36,127.83L662.91,128.87L655.62,130.09L648.46,131.51L641.49,133.1L634.66,134.88L628,136.84L621.48,138.99L615.12,141.32L608.91,143.83L602.88,146.52L597.01,149.4L591.29,152.45L585.74,155.69L580.37,159.1L577.75,160.86L575.17,162.68L572.63,164.54L570.12,166.45L567.66,168.4L565.24,170.4L562.88,172.43L560.54,174.51L558.26,176.63L556.02,178.8L553.05,181.8L550.15,184.9L547.34,188.07L544.59,191.33L542.55,193.9L540.59,196.51L538.71,199.16L536.92,201.85L535.21,204.58L533.59,207.36L532.06,210.17L530.61,213.03L530.55,213.11L530.43,213.19L530.28,213.2L530.15,213.14L530.05,213.03L530.04,213L529.96,212.75L529.95,212.48L530.13,211.83L532.02,207.71L533.98,203.66L536.02,199.69L538.14,195.78L540.34,191.95L542.61,188.19L544.96,184.5L547.38,180.88L550.6,176.38L553.96,172.04L557.45,167.88L561.07,163.9L564.82,160.09L568.7,156.45L572.71,152.98L576.86,149.68L580.53,146.99L584.31,144.42L588.18,141.97L592.15,139.66L596.21,137.48L600.38,135.42L604.64,133.49L609,131.69L612.37,130.41L615.77,129.19L619.2,128.04L622.67,126.96L626.17,125.95L629.7,125.01L633.27,124.14L636.88,123.34L640.51,122.6L644.18,121.94L647.89,121.34L651.63,120.81L655.4,120.35L659.21,119.96L663.05,119.63L666.92,119.38L671.75,119.14L676.5,118.98L681.19,118.89L685.8,118.87L690.33,118.92L694.79,119.04L699.18,119.23L703.5,119.5L712.7,120.25L721.92,121.22L731.15,122.39L740.4,123.76L749.65,125.35L758.92,127.14L768.2,129.14L777.5,131.35L777.56,131.39L777.59,131.5L777.51,131.62L777.37,131.65Z" style="fill:rgb(255,115,0);fill-rule:nonzero;"/>
        <path d="M690.09,299.23C690.09,345.498 652.018,383.57 605.75,383.57C559.482,383.57 521.41,345.498 521.41,299.23C521.41,252.962 559.482,214.89 605.75,214.89C652.018,214.89 690.09,252.962 690.09,299.23ZM642.87,358.75L643.13,358.64L643.24,358.38L643.24,340.39L643.13,340.13L642.87,340.02L598.13,340.02L597.87,339.91L597.76,339.65L597.76,241.39L597.65,241.13L597.39,241.02L574.42,241.02L574.16,241.13L574.05,241.39L574.05,358.38L574.16,358.64L574.42,358.75L642.87,358.75Z" style="fill:rgb(255,115,0);fill-rule:nonzero;"/>
    </g>
</svg>
