<?xml version="1.0" encoding="UTF-8" standalone="no"?>
<!DOCTYPE svg PUBLIC "-//W3C//DTD SVG 1.1//EN" "http://www.w3.org/Graphics/SVG/1.1/DTD/svg11.dtd">
<svg width="100%" height="100%" viewBox="0 0 2654 1240" version="1.1" xmlns="http://www.w3.org/2000/svg" xmlns:xlink="http://www.w3.org/1999/xlink" xml:space="preserve" xmlns:serif="http://www.serif.com/" style="fill-rule:evenodd;clip-rule:evenodd;stroke-linejoin:round;stroke-miterlimit:2;">
    <g transform="matrix(1,0,0,1,0.0762376,0)">
        <g transform="matrix(1.0231,0,0,1.0231,0.0363036,0)">
            <path d="M45.39,461.01L45.29,460.78L48.25,451.73L51.3,442.82L54.43,434.06L57.66,425.44L60.97,416.95L64.38,408.58L67.87,400.37L71.45,392.27L75.13,384.31L78.91,376.46L82.77,368.76L86.73,361.18L90.79,353.71L94.94,346.36L99.19,339.14L103.53,332.05L107.62,325.64L111.82,319.32L116.1,313.17L120.47,307.14L124.89,301.3L129.38,295.62L133.92,290.13L138.52,284.82L143.14,279.73L147.81,274.83L152.5,270.14L157.24,265.64L162,261.36L166.79,257.28L171.6,253.43L176.43,249.78L181.25,246.38L186.09,243.19L190.94,240.23L195.8,237.48L200.68,234.95L205.57,232.63L210.46,230.55L215.35,228.69L220.26,227.04L225.17,225.62L230.08,224.42L234.98,223.45L239.89,222.7L244.8,222.18L249.73,221.87L254.65,221.79L258.5,221.88L262.39,222.12L266.25,222.49L270.14,223L273.99,223.65L277.87,224.44L281.72,225.37L285.6,226.44L290.11,227.86L294.58,229.46L298.98,231.23L303.34,233.17L307.64,235.28L311.9,237.57L316.08,240.02L320.22,242.65L324.3,245.44L328.33,248.4L332.31,251.54L336.23,254.85L340.07,258.31L343.86,261.95L347.59,265.75L351.25,269.72L354.87,273.86L358.41,278.16L361.89,282.63L365.29,287.25L368.62,292.03L371.87,296.95L375.04,302.03L378.14,307.24L381.16,312.61L384.08,318.11L386.93,323.74L389.67,329.49L392.33,335.37L394.88,341.34L397.33,347.42L399.67,353.57L402.3,360.93L404.8,368.4L407.18,375.99L409.43,383.68L411.55,391.45L413.54,399.33L415.39,407.3L417.12,415.37L418.71,423.51L420.16,431.73L421.48,440.04L422.67,448.43L423.71,456.86L424.62,465.35L425.39,473.91L426.02,482.52L426.64,493.73L427.06,504.95L427.27,516.19L427.27,527.44L427.07,538.71L426.65,549.99L426.03,561.28L425.21,572.59L424.17,583.91L422.92,595.24L421.47,606.59L419.81,617.96L417.95,629.33L415.87,640.73L413.59,652.13L411.1,663.55L409.65,669.8L408.13,676.02L406.54,682.21L404.89,688.37L403.17,694.51L401.39,700.62L399.55,706.7L397.63,712.75L395.65,718.78L393.61,724.78L391.5,730.75L389.32,736.69L387.08,742.6L384.78,748.49L382.4,754.34L379.97,760.17L376.26,768.7L372.41,777.17L368.52,785.34L364.49,793.38L360.34,801.26L356.06,809L351.66,816.58L347.15,823.99L342.53,831.22L337.79,838.29L332.96,845.16L328.02,851.85L322.99,858.34L317.85,864.64L312.62,870.75L307.29,876.67L301.88,882.37L296.38,887.87L292.83,891.26L289.25,894.53L285.61,897.73L281.95,900.82L278.24,903.8L274.52,906.67L270.75,909.44L266.96,912.1L263.16,914.64L259.35,917.05L255.49,919.37L251.64,921.55L247.77,923.63L243.9,925.57L239.99,927.41L236.1,929.11L232.2,930.7L228.32,932.15L224.4,933.49L220.51,934.7L216.59,935.8L212.71,936.76L208.82,937.6L204.9,938.32L201.03,938.91L197.13,939.38L193.26,939.73L189.37,939.95L185.52,940.04L181.65,940.01L177.81,939.85L173.96,939.57L171.16,939.28L168.36,938.93L165.58,938.51L162.79,938.03L160.03,937.47L157.26,936.85L154.52,936.17L151.77,935.42L151.66,935.35L151.62,935.24L151.64,935.13L151.71,935.05L151.82,935.01L154.57,934.85L157.3,934.62L160.02,934.34L162.73,934L165.42,933.59L168.1,933.13L170.76,932.61L173.41,932.02L177.58,930.98L181.71,929.78L185.8,928.43L189.86,926.94L193.88,925.29L197.87,923.49L201.82,921.54L205.74,919.44L210.55,916.65L215.32,913.68L220.06,910.51L224.75,907.16L229.38,903.63L233.96,899.92L238.49,896.02L242.97,891.94L247.39,887.69L251.75,883.26L256.06,878.66L260.29,873.89L264.45,868.95L268.54,863.87L272.56,858.61L276.49,853.22L280.45,847.54L284.32,841.73L288.1,835.82L291.8,829.79L295.41,823.64L298.93,817.38L302.35,811.03L305.68,804.56L308.91,798L312.06,791.32L315.09,784.58L318.03,777.73L320.87,770.79L323.61,763.76L326.24,756.67L328.76,749.5L331.3,741.9L333.72,734.26L336.03,726.57L338.23,718.83L340.32,711.06L342.29,703.24L344.15,695.39L345.89,687.51L347.51,679.62L349.01,671.7L350.39,663.75L351.66,655.78L352.81,647.81L353.84,639.81L354.74,631.82L355.53,623.83L356.19,615.83L356.73,607.83L357.15,599.85L357.45,591.87L357.63,583.92L357.69,575.96L357.62,568.05L357.43,560.13L357.12,552.26L356.69,544.4L356.13,536.57L355.46,528.77L354.66,521.02L353.75,513.3L352.71,505.63L351.55,497.98L350.46,491.52L349.25,485.1L347.93,478.66L346.49,472.28L344.94,465.94L343.29,459.68L341.53,453.45L339.66,447.31L337.7,441.25L335.64,435.3L333.48,429.44L331.24,423.71L328.91,418.07L326.49,412.56L323.97,407.15L321.38,401.88L317.9,395.26L316.09,392.02L314.25,388.84L312.37,385.71L310.47,382.66L308.51,379.65L306.53,376.71L304.52,373.83L302.49,371.04L300.4,368.28L298.3,365.6L296.16,362.98L294,360.45L291.81,357.98L289.58,355.55L287.34,353.23L285.06,350.96L282.77,348.77L280.43,346.63L278.08,344.58L275.7,342.59L273.3,340.69L270.86,338.84L268.42,337.08L265.93,335.37L263.44,333.75L260.9,332.2L258.36,330.73L255.79,329.32L253.2,327.99L250.58,326.73L246.75,325.04L242.88,323.5L239.01,322.14L235.09,320.93L231.17,319.9L227.2,319.02L223.25,318.31L219.24,317.76L215.46,317.39L211.69,317.17L207.91,317.1L204.1,317.16L200.28,317.38L196.43,317.74L192.61,318.24L188.75,318.89L184.89,319.68L181.01,320.62L177.16,321.69L173.28,322.91L169.41,324.28L165.52,325.79L161.66,327.43L157.79,329.21L153.92,331.15L150.03,333.23L146.18,335.44L142.34,337.79L138.51,340.27L134.7,342.9L130.93,345.63L127.18,348.51L123.45,351.51L119.75,354.64L116.11,357.87L112.51,361.23L108.96,364.69L105.45,368.27L102.03,371.92L98.66,375.68L95.22,379.67L91.85,383.72L88.54,387.84L85.29,392.03L82.1,396.29L78.97,400.61L75.9,405L72.9,409.46L69.96,413.98L67.08,418.57L64.26,423.23L61.5,427.95L58.8,432.74L56.17,437.6L53.59,442.53L51.08,447.52L49.8,450.37L48.21,454.44L46.69,458.36L45.48,461L45.4,461.02L45.39,461.01Z" style="fill:rgb(81,43,139);fill-rule:nonzero;"/>
        </g>
        <g transform="matrix(1.0231,0,0,1.0231,0.0363036,0)">
            <path d="M745.54,798.82L745.79,798.78L746.03,798.83L746.24,798.97L746.38,799.17L749.71,806.03L752.92,812.27L756.07,817.99L759.18,823.26L762.31,828.16L765.43,832.65L767.01,834.77L768.58,836.78L770.18,838.72L771.77,840.56L775.15,844.22L778.62,847.71L782.19,851.03L785.86,854.19L789.63,857.18L793.49,860.01L797.45,862.67L801.51,865.16L805.35,867.32L809.27,869.33L813.27,871.2L817.36,872.93L820.49,874.15L823.63,875.3L826.79,876.38L829.96,877.39L833.15,878.33L836.35,879.21L839.57,880.01L842.8,880.75L848.62,881.89L854.5,882.81L860.42,883.51L866.39,883.99L872.41,884.24L878.47,884.27L884.59,884.08L890.75,883.67L895.26,883.2L899.7,882.55L904.1,881.73L908.41,880.74L912.64,879.58L916.76,878.25L920.79,876.76L924.69,875.11L928.45,873.31L932.07,871.37L935.57,869.26L938.91,867.02L942.1,864.64L945.13,862.13L948.02,859.46L950.73,856.68L953.3,853.74L955.69,850.7L957.91,847.53L959.94,844.27L961.79,840.9L963.43,837.45L964.88,833.92L966.13,830.32L967.15,826.76L967.98,823.15L968.61,819.49L969.04,815.78L969.28,812.05L969.32,808.29L969.15,804.54L968.79,800.76L968.38,797.96L967.87,795.25L967.23,792.59L966.48,790.03L965.6,787.5L964.62,785.06L963.51,782.68L962.29,780.38L961.31,778.71L960.28,777.1L959.17,775.5L958.01,773.96L956.77,772.43L955.48,770.95L954.11,769.5L952.69,768.09L951.19,766.7L949.64,765.36L948.02,764.05L946.34,762.78L944.58,761.52L942.76,760.31L940.89,759.14L938.93,757.99L934.83,755.79L930.48,753.72L925.83,751.77L920.85,749.9L915.58,748.15L909.91,746.46L903.79,744.83L897.05,743.21L856.89,734.62L853.08,733.77L849.16,732.81L845.14,731.76L841,730.6L836.75,729.33L832.39,727.96L827.92,726.49L823.34,724.92L818.89,723.29L814.51,721.56L810.22,719.72L806,717.77L801.85,715.72L797.79,713.56L793.8,711.29L789.89,708.92L787.12,707.14L784.43,705.32L781.81,703.44L779.27,701.52L776.81,699.55L774.41,697.53L772.1,695.47L769.86,693.36L767.7,691.19L765.61,688.99L763.6,686.73L761.66,684.42L759.8,682.07L758.02,679.67L756.31,677.22L754.67,674.73L753.18,672.3L751.77,669.83L750.42,667.32L749.13,664.77L747.92,662.17L746.78,659.53L745.7,656.84L744.7,654.11L743.76,651.34L742.89,648.52L742.09,645.66L741.36,642.76L740.7,639.81L740.1,636.82L739.58,633.79L739.12,630.71L738.55,625.89L738.14,621.05L737.9,616.2L737.83,611.33L737.92,606.48L738.18,601.63L738.6,596.79L739.19,591.96L739.94,587.18L740.86,582.42L741.93,577.73L743.16,573.08L744.55,568.52L746.09,564.01L747.79,559.59L749.64,555.23L751.44,551.37L753.35,547.62L755.37,543.95L757.49,540.4L759.75,536.9L762.1,533.52L764.55,530.24L767.14,527.03L770.04,523.69L773.09,520.43L776.24,517.31L779.54,514.28L782.95,511.37L786.51,508.56L790.18,505.87L793.98,503.29L797.91,500.81L801.97,498.45L806.14,496.2L810.44,494.07L814.85,492.05L819.39,490.15L824.06,488.35L828.85,486.67L833.76,485.11L838.78,483.66L843.94,482.32L849.2,481.11L854.57,480.01L860.03,479.04L865.62,478.18L871.3,477.44L877.1,476.82L882.98,476.32L888.96,475.95L895.02,475.69L901.17,475.56L907.38,475.55L913.67,475.66L920.01,475.89L926.06,476.25L932.05,476.77L937.93,477.46L943.72,478.3L949.4,479.31L954.97,480.47L960.41,481.79L965.73,483.27L970.92,484.89L975.98,486.68L980.88,488.61L985.64,490.68L990.28,492.92L994.76,495.3L999.09,497.82L1003.26,500.48L1005.8,502.23L1008.29,504.05L1010.72,505.93L1013.08,507.87L1015.4,509.89L1017.66,511.97L1019.85,514.1L1021.98,516.3L1024.05,518.55L1026.05,520.86L1027.98,523.23L1029.85,525.65L1031.64,528.12L1033.36,530.64L1035.02,533.2L1036.59,535.82L1038.52,539.26L1040.32,542.78L1042,546.36L1043.54,550.02L1044.95,553.72L1046.22,557.49L1047.35,561.28L1048.35,565.13L1049.59,570.69L1050.61,576.14L1051.4,581.47L1051.97,586.68L1051.95,586.88L1051.87,587.07L1051.72,587.21L1051.54,587.3L1026.98,593.95L1026.8,593.97L1026.63,593.92L1026.49,593.81L1026.39,593.66L1024.99,590.26L1023.57,586.95L1022.1,583.74L1020.61,580.63L1018.98,577.49L1017.2,574.41L1015.76,572.14L1014.25,569.93L1012.66,567.75L1011,565.64L1009.25,563.56L1007.43,561.54L1005.53,559.56L1003.57,557.65L1001.52,555.78L999.42,553.97L997.23,552.21L994.98,550.52L992.64,548.86L990.25,547.27L987.78,545.73L985.26,544.26L982.64,542.83L979.97,541.47L977.23,540.17L974.45,538.93L971.58,537.75L968.68,536.63L965.7,535.58L962.7,534.6L959.62,533.68L956.52,532.83L953.36,532.04L950.18,531.33L946.93,530.69L943.68,530.11L940.38,529.61L937.08,529.18L930.96,528.57L924.78,528.19L918.62,528.05L912.47,528.15L906.41,528.48L903.43,528.73L900.44,529.05L897.52,529.42L894.61,529.85L891.76,530.33L888.91,530.87L886.17,531.47L883.44,532.12L880.77,532.82L878.13,533.58L875.57,534.39L873.03,535.26L870.56,536.17L868.13,537.15L865.77,538.17L863.45,539.25L861.19,540.37L858.98,541.55L856.85,542.77L854.76,544.05L852.74,545.37L850.77,546.75L847.53,549.22L844.52,551.8L841.73,554.49L839.16,557.28L836.82,560.18L835.73,561.67L834.7,563.18L833.72,564.72L832.8,566.29L831.93,567.89L831.12,569.51L830.35,571.18L829.64,572.88L828.99,574.61L828.4,576.36L827.86,578.14L827.38,579.95L826.96,581.78L826.6,583.65L826.29,585.54L826.04,587.45L825.71,591.37L825.6,595.39L825.73,599.53L825.87,601.45L826.08,603.35L826.35,605.23L826.68,607.08L827.08,608.91L827.54,610.72L828.06,612.51L828.65,614.28L829.44,616.37L830.32,618.44L831.3,620.47L832.37,622.47L833.53,624.44L834.78,626.38L836.12,628.28L837.56,630.15L839.44,632.36L841.48,634.5L843.69,636.56L846.06,638.55L848.59,640.45L851.27,642.27L854.13,644.03L857.15,645.7L860.33,647.3L863.66,648.81L867.17,650.26L870.83,651.63L874.69,652.93L878.7,654.16L882.9,655.32L887.33,656.42L895.79,658.38L904.53,660.32L913.57,662.25L922.89,664.16L929.72,665.6L936.47,667.15L943.13,668.82L949.7,670.6L956.18,672.48L962.58,674.48L968.89,676.6L975.12,678.82L979.4,680.46L983.57,682.18L987.64,683.98L991.59,685.87L995.45,687.83L999.17,689.88L1002.83,692.02L1006.35,694.23L1009.79,696.54L1013.11,698.92L1016.35,701.41L1019.47,703.96L1022.49,706.6L1025.42,709.35L1028.24,712.16L1030.99,715.09L1033.88,718.41L1036.64,721.81L1038.23,723.91L1039.77,726.04L1041.26,728.24L1042.7,730.48L1044.08,732.76L1045.41,735.08L1046.69,737.45L1047.91,739.86L1049.08,742.32L1050.19,744.81L1051.26,747.35L1052.26,749.92L1053.2,752.52L1054.08,755.14L1054.91,757.81L1055.67,760.5L1056.38,763.24L1057.02,765.99L1057.61,768.76L1058.13,771.54L1058.59,774.36L1058.98,777.18L1059.31,780.02L1059.58,782.86L1059.79,785.73L1059.93,788.6L1060.01,791.48L1060.03,794.35L1059.98,797.22L1059.87,800.09L1059.69,802.95L1059.45,805.8L1059.11,809.01L1058.69,812.21L1058.19,815.41L1057.62,818.59L1056.98,821.78L1056.26,824.95L1055.46,828.11L1054.6,831.26L1053.66,834.38L1052.65,837.49L1051.57,840.57L1050.41,843.62L1049.19,846.65L1047.9,849.66L1046.54,852.63L1045.12,855.57L1043.64,858.45L1042.09,861.3L1040.47,864.12L1038.8,866.89L1037.07,869.61L1035.27,872.28L1033.42,874.91L1031.51,877.49L1029.55,880.01L1027.53,882.48L1025.47,884.87L1023.35,887.21L1021.19,889.5L1018.96,891.73L1016.71,893.89L1014.4,895.99L1011.68,898.34L1008.91,900.6L1006.06,902.82L1003.16,904.95L1000.16,907.04L997.11,909.05L993.98,911.01L990.81,912.88L987.54,914.71L984.23,916.45L980.83,918.14L977.4,919.75L973.87,921.3L970.31,922.78L966.66,924.19L962.98,925.52L959.23,926.8L955.39,928.01L951.52,929.14L947.58,930.2L943.6,931.19L939.54,932.12L935.46,932.96L931.32,933.73L927.14,934.43L922.89,935.06L918.64,935.61L914.32,936.09L909.98,936.5L905.59,936.83L901.19,937.08L896.75,937.26L887.72,937.44L879.02,937.39L870.6,937.12L866.5,936.89L862.47,936.61L858.49,936.28L854.58,935.88L850.73,935.43L846.95,934.93L843.22,934.36L839.56,933.74L835.92,933.05L832.36,932.31L828.84,931.51L825.4,930.65L821.98,929.73L818.64,928.75L815.33,927.71L812.1,926.62L808.89,925.46L805.75,924.25L802.68,922.98L799.63,921.64L796.64,920.25L793.69,918.79L790.82,917.28L787.97,915.7L785.19,914.07L782.44,912.36L777.85,909.31L773.43,906.11L769.19,902.78L765.13,899.3L761.25,895.69L757.54,891.93L754.02,888.03L750.66,884L748.68,881.43L746.76,878.81L744.92,876.14L743.14,873.41L741.42,870.63L739.78,867.79L738.2,864.9L736.69,861.96L735.25,858.96L733.87,855.91L732.57,852.81L731.33,849.65L730.16,846.44L729.05,843.17L728.02,839.85L727.05,836.48L725.56,830.61L724.12,823.93L722.7,816.45L721.33,808.17L721.34,807.83L721.46,807.51L721.68,807.26L721.98,807.09L745.54,798.82Z" style="fill:rgb(81,43,139);fill-rule:nonzero;"/>
        </g>
        <g transform="matrix(1.0231,0,0,1.0231,0.0363036,0)">
            <path d="M1707.03,920.56C1707.03,921.054 1706.62,921.46 1706.13,921.46L1625.33,921.46C1624.84,921.46 1624.43,921.054 1624.43,920.56L1624.43,487.6C1624.43,487.106 1624.84,486.7 1625.33,486.7L1706.13,486.7C1706.62,486.7 1707.03,487.106 1707.03,487.6L1707.03,920.56Z" style="fill:rgb(81,43,139);fill-rule:nonzero;"/>
        </g>
        <g transform="matrix(1.0231,0,0,1.0231,0.0363036,0)">
            <path d="M1278.07,607.11L1277.55,607.43L1277.35,607.57L1277.2,607.76L1248.18,655.17L1248.02,655.37L1247.82,655.52L1247.59,655.62L1247.34,655.65L1206.56,655.65L1206.39,655.68L1206.24,655.78L1206.14,655.92L1206.11,656.09L1206.13,826.8L1206.23,829.74L1206.53,833.38L1207.03,837.73L1207.73,842.79L1208.21,845.65L1208.8,848.47L1209.51,851.25L1210.33,854L1211.03,856.06L1211.79,858.09L1212.61,860.11L1213.51,862.1L1214.46,864.07L1215.48,866.03L1216.57,867.96L1217.72,869.87L1218.8,871.54L1219.91,873.15L1221.09,874.73L1222.29,876.24L1223.54,877.69L1224.82,879.08L1226.15,880.43L1227.52,881.71L1228.93,882.95L1230.38,884.12L1231.86,885.22L1233.37,886.26L1234.92,887.25L1236.51,888.17L1238.12,889.03L1239.75,889.82L1242.36,890.93L1245.03,891.88L1247.78,892.68L1250.57,893.31L1253.42,893.78L1256.3,894.09L1259.21,894.24L1262.16,894.22L1265.13,894.04L1268.12,893.7L1271.12,893.2L1274.13,892.53L1277.13,891.71L1280.14,890.72L1283.11,889.59L1286.07,888.3L1286.36,888.22L1286.66,888.23L1286.94,888.35L1287.17,888.55L1302.44,907.51L1302.46,907.53L1302.53,907.71L1302.53,907.91L1302.45,908.09L1302.31,908.22L1298.16,910.75L1294.11,913.14L1290.15,915.4L1286.29,917.52L1282.97,919.25L1279.63,920.88L1276.26,922.41L1272.86,923.83L1269.43,925.15L1265.97,926.37L1262.49,927.49L1258.98,928.51L1254.07,929.75L1249.11,930.79L1244.1,931.64L1239.03,932.29L1233.67,932.79L1228.35,933.12L1223.13,933.28L1217.99,933.26L1212.95,933.08L1208.01,932.71L1203.2,932.18L1198.49,931.48L1193.94,930.61L1189.49,929.56L1185.2,928.35L1181.04,926.98L1177.01,925.43L1173.11,923.72L1169.37,921.85L1165.77,919.81L1162.4,917.69L1159.18,915.46L1156.1,913.12L1153.17,910.68L1150.36,908.11L1147.71,905.44L1145.18,902.66L1142.82,899.78L1140.65,896.87L1138.63,893.88L1136.74,890.77L1134.98,887.58L1133.34,884.27L1131.85,880.87L1130.48,877.35L1129.25,873.76L1128.15,870.06L1127.18,866.23L1126.34,862.33L1125.63,858.31L1125.06,854.2L1124.62,849.97L1124.31,845.67L1124.13,841.25L1124,836.62L1123.82,829.39L1123.76,824.58L1123.76,656.16L1123.72,655.96L1123.61,655.79L1123.45,655.68L1123.25,655.64L1074.31,655.64L1074.14,655.61L1073.99,655.51L1073.89,655.36L1073.86,655.19L1073.86,606.85L1073.91,606.61L1074.04,606.41L1074.24,606.28L1074.47,606.23L1123.17,606.23L1123.4,606.19L1123.59,606.06L1123.72,605.87L1123.76,605.64L1123.76,521.17L1123.8,520.99L1123.89,520.84L1124.04,520.75L1124.22,520.71L1205.7,520.71L1205.85,520.74L1205.98,520.83L1206.07,520.96L1206.1,521.12L1206.1,605.78L1206.13,605.95L1206.23,606.1L1206.38,606.2L1206.55,606.23L1277.33,606.24L1277.39,606.24L1277.68,606.33L1277.92,606.53L1278.06,606.8L1278.07,607.11Z" style="fill:rgb(81,43,139);fill-rule:nonzero;"/>
        </g>
        <g transform="matrix(1.0231,0,0,1.0231,0.0363036,0)">
            <path d="M1599.37,771.89L1358.24,771.89L1357.98,771.94L1357.76,772.1L1357.62,772.32L1357.58,772.58L1357.58,772.62L1358.28,778.26L1359.13,783.81L1360.13,789.23L1361.26,794.55L1362.54,799.72L1363.95,804.77L1365.5,809.67L1367.19,814.42L1369,819.01L1370.96,823.45L1373.03,827.72L1375.24,831.84L1377.58,835.8L1380.05,839.6L1382.64,843.22L1385.36,846.68L1387.08,848.71L1388.84,850.68L1390.66,852.6L1392.51,854.45L1394.42,856.25L1396.37,857.99L1398.38,859.67L1400.43,861.29L1402.43,862.79L1404.46,864.22L1406.55,865.61L1408.67,866.93L1410.84,868.21L1413.04,869.43L1415.3,870.59L1417.59,871.7L1419.92,872.75L1422.27,873.74L1424.68,874.68L1427.11,875.56L1429.61,876.39L1432.12,877.16L1434.69,877.87L1437.28,878.53L1439.92,879.13L1442.58,879.67L1445.28,880.15L1448.01,880.58L1450.8,880.95L1453.6,881.26L1456.45,881.51L1459.31,881.71L1465.15,881.92L1471.09,881.91L1477.16,881.66L1483.32,881.18L1488.58,880.56L1493.73,879.72L1496.26,879.21L1498.76,878.65L1501.24,878.03L1503.68,877.36L1506.1,876.63L1508.48,875.85L1510.84,875.01L1513.17,874.12L1515.47,873.17L1517.74,872.16L1519.98,871.1L1522.19,869.98L1526.21,867.77L1530.14,865.36L1533.97,862.76L1537.7,859.96L1541.32,856.98L1544.85,853.8L1548.28,850.44L1551.61,846.88L1556.46,841.37L1560.97,836.04L1565.13,830.87L1568.94,825.88L1569.26,825.58L1569.66,825.41L1570.1,825.39L1570.52,825.51L1589.76,835.12L1589.9,835.22L1589.99,835.37L1590.02,835.53L1589.99,835.7L1587.16,842.88L1584.42,849.39L1581.72,855.39L1579.02,860.95L1576.26,866.19L1573.43,871.13L1570.53,875.75L1567.53,880.12L1564.79,883.79L1561.95,887.34L1559,890.75L1555.96,894.03L1552.82,897.18L1549.57,900.2L1546.23,903.09L1542.78,905.86L1540.18,907.81L1537.52,909.69L1534.81,911.5L1532.04,913.24L1529.22,914.91L1526.34,916.51L1523.41,918.03L1520.42,919.49L1517.38,920.87L1514.28,922.19L1511.13,923.43L1507.93,924.61L1504.67,925.71L1501.35,926.74L1497.98,927.7L1494.56,928.59L1489.89,929.69L1485.35,930.64L1480.79,931.48L1476.2,932.22L1471.59,932.85L1466.96,933.38L1462.3,933.8L1457.62,934.11L1452.92,934.32L1448.55,934.43L1444.25,934.47L1439.96,934.44L1435.73,934.33L1431.53,934.16L1427.41,933.92L1423.32,933.61L1419.25,933.23L1415.25,932.78L1411.28,932.25L1407.37,931.66L1403.48,931L1399.67,930.27L1395.88,929.47L1392.16,928.6L1388.46,927.65L1384.83,926.64L1381.24,925.56L1377.7,924.41L1374.2,923.19L1370.77,921.91L1367.37,920.55L1364.03,919.12L1360.72,917.62L1357.47,916.06L1354.26,914.42L1351.11,912.72L1348,910.94L1344.95,909.1L1341.94,907.19L1339,905.22L1336.08,903.16L1333.12,900.97L1330.21,898.69L1327.35,896.35L1324.54,893.92L1321.57,891.22L1318.69,888.45L1315.88,885.59L1313.14,882.65L1310.47,879.62L1307.88,876.52L1305.36,873.33L1302.93,870.08L1300.56,866.74L1298.29,863.34L1296.08,859.85L1293.97,856.31L1291.93,852.68L1289.98,848.99L1288.11,845.23L1286.33,841.42L1284.63,837.52L1283.02,833.58L1281.5,829.57L1280.07,825.52L1278.73,821.4L1277.48,817.24L1276.32,813.02L1275.26,808.78L1274.29,804.48L1273.42,800.15L1272.64,795.77L1271.96,791.38L1271.37,786.96L1270.88,782.53L1270.49,778.05L1270.2,773.57L1269.97,768.33L1269.85,763.18L1269.83,758.08L1269.93,753.06L1270.14,748.11L1270.45,743.24L1270.88,738.4L1271.41,733.65L1272.06,728.92L1272.81,724.28L1273.69,719.66L1274.66,715.11L1275.75,710.61L1276.96,706.13L1278.28,701.71L1279.71,697.31L1280.06,696.3L1281.49,692.34L1283.02,688.45L1284.64,684.61L1286.34,680.83L1288.13,677.13L1290.01,673.49L1291.99,669.91L1294.05,666.4L1296.2,662.95L1298.43,659.57L1300.76,656.26L1303.17,653.02L1305.65,649.85L1308.22,646.77L1310.88,643.75L1313.62,640.81L1315.97,638.41L1318.37,636.06L1320.82,633.78L1323.32,631.55L1325.89,629.38L1328.5,627.26L1331.16,625.2L1333.87,623.2L1336.64,621.25L1339.46,619.37L1342.32,617.54L1345.23,615.78L1348.19,614.07L1351.2,612.42L1354.25,610.84L1357.34,609.31L1360.48,607.85L1363.67,606.46L1366.89,605.12L1370.15,603.85L1373.45,602.65L1376.79,601.51L1380.16,600.44L1383.57,599.43L1387.01,598.48L1390.48,597.61L1393.99,596.8L1397.53,596.05L1401.1,595.37L1404.7,594.76L1408.34,594.22L1412,593.74L1417.13,593.17L1422.22,592.72L1427.31,592.37L1432.35,592.13L1437.37,592L1442.32,591.97L1447.27,592.06L1452.14,592.26L1456.98,592.57L1461.74,592.99L1466.48,593.51L1471.14,594.15L1475.75,594.89L1480.27,595.74L1484.77,596.71L1489.17,597.77L1493.5,598.94L1497.73,600.21L1501.93,601.6L1506.02,603.08L1510.06,604.67L1514,606.35L1517.86,608.14L1521.67,610.05L1525.37,612.04L1529.02,614.14L1532.56,616.34L1536.05,618.65L1539.42,621.04L1542.73,623.55L1545.93,626.14L1549.08,628.85L1552.25,631.76L1555.34,634.81L1558.32,637.94L1561.23,641.2L1563.58,644L1565.84,646.84L1567.85,649.5L1569.79,652.2L1571.67,654.95L1573.48,657.74L1575.24,660.6L1576.93,663.49L1578.56,666.45L1580.13,669.43L1581.64,672.49L1583.08,675.58L1584.46,678.74L1585.78,681.93L1587.04,685.19L1588.24,688.49L1589.38,691.85L1590.45,695.24L1591.47,698.69L1592.43,702.23L1593.32,705.78L1594.16,709.41L1594.94,713.08L1595.66,716.83L1596.32,720.61L1596.92,724.47L1597.46,728.38L1597.94,732.37L1598.37,736.4L1598.73,740.5L1599.04,744.66L1599.29,748.9L1599.48,753.21L1599.62,757.6L1600,771.23L1599.96,771.48L1599.82,771.69L1599.62,771.84L1599.37,771.89ZM1359.88,723.72L1509.7,723.72L1509.94,723.67L1510.14,723.53L1510.27,723.33L1510.3,723.09L1510.3,723.05L1509.49,716.75L1508.56,710.87L1507.51,705.29L1506.34,700.05L1505.04,695.08L1503.59,690.36L1502,685.9L1500.26,681.68L1498.37,677.69L1497.37,675.79L1496.32,673.92L1495.25,672.14L1494.12,670.4L1492.97,668.73L1491.77,667.1L1490.53,665.54L1489.25,664.02L1487.93,662.57L1486.56,661.16L1485.17,659.82L1483.73,658.53L1482.26,657.3L1480.73,656.12L1477.8,654.08L1474.73,652.23L1471.49,650.56L1468.13,649.09L1464.61,647.8L1460.96,646.7L1457.14,645.78L1453.19,645.06L1449.74,644.58L1446.3,644.23L1442.85,644.01L1439.4,643.92L1435.73,643.95L1432.06,644.14L1428.38,644.46L1424.71,644.93L1421.07,645.55L1417.51,646.34L1414.09,647.27L1410.75,648.37L1407.53,649.63L1404.4,651.05L1401.39,652.61L1398.47,654.34L1396.73,655.48L1395.04,656.68L1393.38,657.94L1391.77,659.25L1390.17,660.64L1388.62,662.07L1387.1,663.58L1385.63,665.14L1384.19,666.77L1382.79,668.45L1381.41,670.2L1380.08,672L1378.77,673.89L1377.51,675.82L1376.26,677.84L1375.07,679.89L1372.76,684.21L1370.59,688.78L1368.52,693.67L1366.56,698.83L1364.7,704.3L1362.92,710.16L1361.2,716.45L1359.52,723.27L1359.51,723.31L1359.53,723.46L1359.6,723.6L1359.73,723.69L1359.88,723.72Z" style="fill:rgb(81,43,139);fill-rule:nonzero;"/>
        </g>
        <g transform="matrix(1.0231,0,0,1.0231,0.0363036,0)">
            <path d="M1943.26,886.97L1943.23,886.82L1943.12,886.68L1942.95,886.6L1942.76,886.61L1942.6,886.71L1939.99,889.45L1937.33,892.11L1934.64,894.67L1931.9,897.14L1929.12,899.54L1926.29,901.85L1923.43,904.06L1920.53,906.2L1917.59,908.24L1914.6,910.2L1911.6,912.05L1908.54,913.83L1905.44,915.52L1902.3,917.13L1899.13,918.64L1895.92,920.06L1892.49,921.47L1889,922.78L1885.49,923.99L1881.94,925.1L1878.33,926.11L1874.68,927.03L1871,927.84L1867.27,928.55L1863.94,929.1L1860.6,929.58L1857.27,929.98L1853.94,930.3L1850.61,930.55L1847.28,930.73L1843.94,930.82L1840.61,930.85L1836.7,930.78L1832.8,930.6L1828.89,930.32L1824.98,929.94L1820.5,929.35L1816.11,928.6L1811.76,927.67L1807.52,926.58L1803.32,925.32L1799.23,923.91L1795.21,922.32L1791.3,920.58L1787.47,918.68L1783.75,916.63L1780.13,914.41L1776.63,912.06L1773.23,909.54L1769.97,906.89L1766.81,904.09L1763.79,901.15L1761.85,899.13L1759.98,897.05L1758.17,894.92L1756.43,892.73L1754.75,890.49L1753.13,888.2L1751.58,885.87L1750.1,883.48L1748.69,881.05L1747.34,878.57L1746.07,876.05L1744.86,873.49L1743.73,870.89L1742.68,868.26L1741.69,865.59L1740.78,862.88L1739.94,860.15L1739.18,857.38L1738.49,854.58L1737.87,851.75L1737.34,848.9L1736.88,846.02L1736.49,843.12L1736.18,840.19L1735.95,837.25L1735.8,834.28L1735.73,831.32L1735.73,828.34L1735.81,825.34L1735.96,822.31L1736.2,819.3L1736.51,816.27L1736.92,813.03L1737.42,809.85L1737.99,806.69L1738.64,803.6L1739.38,800.52L1740.2,797.51L1741.09,794.52L1742.07,791.6L1743.12,788.71L1744.25,785.88L1745.47,783.09L1746.75,780.36L1748.13,777.65L1749.57,775.01L1751.1,772.41L1752.7,769.86L1755.43,765.89L1758.37,762.03L1761.48,758.33L1764.8,754.75L1768.3,751.32L1772,748.01L1775.86,744.87L1779.92,741.87L1784.15,739.02L1788.57,736.31L1793.14,733.78L1797.87,731.4L1802.77,729.18L1807.82,727.13L1812.99,725.26L1818.31,723.55L1823.81,722L1829.44,720.63L1835.15,719.46L1840.98,718.46L1846.88,717.66L1852.88,717.05L1858.93,716.62L1864.99,716.4L1871.13,716.36L1877.25,716.52L1883.39,716.88L1889.5,717.42L1895.58,718.16L1901.61,719.09L1907.57,720.2L1913.44,721.5L1921.17,723.41L1928.6,725.41L1935.72,727.5L1942.54,729.67L1942.62,729.69L1942.82,729.68L1943,729.58L1943.11,729.42L1943.15,729.22L1942.87,721.91L1942.65,718.46L1942.38,715.11L1942.05,711.88L1941.67,708.73L1941.23,705.71L1940.73,702.76L1940.18,699.9L1939.57,697.12L1938.91,694.44L1938.18,691.86L1937.4,689.35L1936.57,686.94L1935.66,684.58L1934.71,682.33L1933.81,680.41L1932.87,678.55L1931.87,676.7L1930.82,674.91L1929.72,673.16L1928.57,671.46L1927.36,669.79L1926.1,668.16L1924.31,666.03L1922.44,663.99L1920.47,662.01L1918.42,660.13L1916.26,658.31L1914.02,656.58L1911.69,654.93L1909.29,653.38L1906.78,651.9L1904.22,650.51L1901.55,649.21L1898.84,648L1896.02,646.87L1893.15,645.85L1890.2,644.91L1887.21,644.07L1884.09,643.31L1880.95,642.66L1877.74,642.1L1874.5,641.64L1871.19,641.28L1867.87,641.03L1864.5,640.88L1861.14,640.83L1857.72,640.88L1854.32,641.03L1850.9,641.29L1847.5,641.65L1844.11,642.1L1840.76,642.66L1837.41,643.32L1834.12,644.07L1831.5,644.75L1828.93,645.49L1826.38,646.31L1823.88,647.19L1821.41,648.15L1818.97,649.17L1816.57,650.27L1814.2,651.43L1810.44,653.46L1806.77,655.68L1803.19,658.08L1799.7,660.67L1796.31,663.44L1793.01,666.39L1789.8,669.52L1786.69,672.84L1783.91,676.03L1781.06,679.51L1778.13,683.28L1775.11,687.34L1774.95,687.5L1774.73,687.59L1774.5,687.61L1774.28,687.54L1753.83,677.32L1753.62,677.1L1753.63,676.8L1759.26,664.83L1761.26,660.8L1763.34,656.87L1765.52,653.05L1767.79,649.34L1770.14,645.74L1772.59,642.25L1775.12,638.88L1777.74,635.61L1779.66,633.36L1781.63,631.18L1783.66,629.05L1785.74,626.98L1787.63,625.19L1789.56,623.46L1791.54,621.76L1793.56,620.11L1795.61,618.51L1797.7,616.97L1799.85,615.45L1802.03,614L1804.26,612.58L1806.52,611.21L1808.84,609.89L1811.18,608.61L1813.57,607.39L1815.98,606.22L1820.94,604.01L1826.06,601.99L1831.34,600.17L1836.74,598.55L1842.28,597.13L1847.95,595.91L1853.75,594.89L1859.65,594.09L1865.67,593.48L1872.01,593.03L1878.27,592.74L1884.41,592.61L1890.47,592.64L1896.43,592.83L1902.3,593.18L1908.07,593.68L1913.75,594.35L1919.34,595.18L1924.84,596.17L1930.23,597.31L1935.53,598.62L1940.76,600.09L1945.9,601.71L1950.93,603.5L1955.87,605.44L1958.69,606.65L1961.44,607.91L1964.14,609.22L1966.77,610.59L1969.35,612.01L1971.87,613.49L1974.32,615.02L1976.72,616.61L1979.06,618.26L1981.33,619.95L1983.55,621.71L1985.71,623.52L1987.81,625.38L1989.85,627.3L1991.83,629.27L1993.74,631.3L1996.11,633.97L1998.38,636.74L2000.56,639.59L2002.63,642.54L2004.61,645.57L2006.49,648.7L2008.27,651.91L2009.95,655.21L2011.57,658.69L2013.07,662.28L2014.47,665.98L2015.76,669.79L2016.93,673.7L2017.99,677.72L2018.95,681.87L2019.8,686.13L2020.54,690.51L2021.18,695.01L2021.71,699.67L2022.15,704.47L2022.48,709.47L2022.72,714.63L2022.87,720.02L2022.92,725.7L2022.96,827.03L2022.94,921.14L2022.85,921.38L2022.63,921.5L2022.58,921.5L1944.05,921.52L1943.75,921.46L1943.5,921.28L1943.33,921.03L1943.27,920.73L1943.26,886.97ZM1942.99,776.87L1937.2,774.67L1931.62,772.7L1926.24,770.96L1921.08,769.44L1917.08,768.41L1913,767.51L1908.89,766.75L1904.79,766.14L1900.68,765.68L1896.61,765.38L1892.54,765.22L1888.53,765.22L1884.6,765.36L1880.75,765.66L1876.95,766.11L1873.26,766.71L1869.65,767.45L1866.16,768.34L1862.76,769.38L1859.48,770.55L1857.21,771.47L1855,772.45L1852.85,773.5L1850.76,774.6L1848.76,775.75L1846.81,776.97L1844.93,778.24L1843.11,779.58L1841.38,780.96L1839.71,782.41L1838.12,783.89L1836.61,785.43L1835.16,787.03L1833.78,788.69L1832.5,790.39L1831.28,792.14L1829.87,794.38L1828.58,796.71L1827.42,799.09L1826.36,801.56L1825.44,804.09L1824.62,806.7L1823.93,809.36L1823.36,812.11L1822.92,814.74L1822.58,817.36L1822.35,819.97L1822.22,822.56L1822.19,825.14L1822.27,827.71L1822.45,830.26L1822.73,832.8L1823.19,835.75L1823.8,838.68L1824.31,840.76L1824.87,842.77L1825.49,844.76L1826.17,846.68L1826.9,848.55L1827.68,850.37L1828.52,852.15L1829.41,853.87L1830.36,855.55L1831.36,857.17L1832.43,858.75L1833.53,860.27L1834.7,861.74L1835.9,863.14L1837.17,864.51L1838.49,865.81L1840.27,867.42L1842.11,868.93L1844.06,870.36L1846.06,871.68L1848.18,872.92L1850.35,874.06L1852.61,875.12L1854.93,876.06L1857.34,876.92L1859.81,877.68L1862.35,878.34L1864.94,878.89L1867.62,879.36L1870.33,879.72L1873.12,879.97L1875.93,880.13L1878.85,880.19L1881.79,880.14L1884.78,879.98L1887.78,879.73L1890.83,879.36L1893.88,878.9L1896.96,878.33L1900.01,877.67L1903.09,876.9L1906.13,876.04L1909.17,875.08L1912.18,874.03L1915.14,872.89L1918.06,871.67L1920.91,870.36L1923.7,868.98L1928.42,866.45L1933.21,863.68L1938.05,860.68L1942.95,857.45L1943.19,857.18L1943.28,856.82L1943.31,777.33L1943.22,777.05L1942.99,776.87Z" style="fill:rgb(81,43,139);fill-rule:nonzero;"/>
        </g>
        <g transform="matrix(1.0231,0,0,1.0231,0.0363036,0)">
            <path d="M2429.55,887L2429.52,886.85L2429.4,886.7L2429.23,886.63L2429.05,886.64L2428.89,886.74L2426.27,889.48L2423.61,892.13L2420.92,894.69L2418.18,897.17L2415.4,899.56L2412.57,901.87L2409.71,904.09L2406.81,906.22L2403.87,908.26L2400.89,910.21L2397.88,912.07L2394.82,913.85L2391.72,915.54L2388.58,917.15L2385.41,918.66L2382.2,920.08L2378.77,921.49L2375.28,922.8L2371.77,924L2368.22,925.11L2364.61,926.12L2360.96,927.04L2357.28,927.85L2353.55,928.56L2350.22,929.11L2346.88,929.59L2343.55,929.99L2340.22,930.31L2336.89,930.56L2333.56,930.73L2330.22,930.83L2326.89,930.85L2322.98,930.78L2319.08,930.6L2315.17,930.32L2311.26,929.94L2306.78,929.35L2302.39,928.6L2298.05,927.67L2293.8,926.58L2289.61,925.32L2285.51,923.9L2281.49,922.32L2277.58,920.58L2273.75,918.67L2270.04,916.62L2266.41,914.41L2262.92,912.05L2259.52,909.53L2256.25,906.88L2253.09,904.08L2250.07,901.15L2248.14,899.12L2246.27,897.04L2244.46,894.91L2242.72,892.72L2241.04,890.48L2239.42,888.19L2237.87,885.86L2236.39,883.47L2234.98,881.04L2233.64,878.56L2232.36,876.04L2231.16,873.48L2230.03,870.88L2228.97,868.25L2227.99,865.58L2227.07,862.87L2226.24,860.14L2225.47,857.37L2224.79,854.57L2224.17,851.73L2223.64,848.89L2223.18,846.01L2222.79,843.11L2222.48,840.17L2222.26,837.23L2222.1,834.27L2222.03,831.31L2222.03,828.33L2222.11,825.33L2222.27,822.3L2222.5,819.29L2222.81,816.26L2223.23,813.02L2223.72,809.84L2224.3,806.68L2224.95,803.59L2225.69,800.51L2226.5,797.5L2227.4,794.51L2228.38,791.59L2229.43,788.7L2230.56,785.88L2231.78,783.08L2233.06,780.35L2234.44,777.65L2235.89,775L2237.42,772.4L2239.02,769.86L2241.75,765.88L2244.68,762.02L2247.8,758.32L2251.11,754.74L2254.61,751.31L2258.32,748.01L2262.18,744.87L2266.23,741.87L2270.47,739.02L2274.89,736.31L2279.45,733.78L2284.19,731.4L2289.09,729.19L2294.14,727.13L2299.31,725.26L2304.63,723.55L2310.13,722.01L2315.76,720.64L2321.47,719.47L2327.3,718.47L2333.2,717.67L2339.2,717.06L2345.25,716.64L2351.31,716.41L2357.45,716.38L2363.57,716.54L2369.71,716.9L2375.82,717.44L2381.9,718.18L2387.93,719.11L2393.88,720.22L2399.76,721.52L2407.49,723.44L2414.92,725.44L2422.04,727.53L2428.86,729.7L2428.94,729.72L2429.14,729.71L2429.31,729.61L2429.43,729.45L2429.47,729.25L2429.19,721.94L2428.97,718.49L2428.7,715.14L2428.37,711.91L2427.99,708.77L2427.55,705.74L2427.06,702.79L2426.5,699.93L2425.89,697.15L2425.23,694.47L2424.51,691.89L2423.73,689.38L2422.89,686.97L2421.99,684.61L2421.03,682.36L2420.14,680.44L2419.2,678.58L2418.2,676.73L2417.15,674.94L2416.04,673.19L2414.9,671.49L2413.68,669.82L2412.43,668.19L2410.64,666.06L2408.77,664.01L2406.79,662.04L2404.75,660.16L2402.59,658.34L2400.35,656.61L2398.02,654.96L2395.62,653.41L2393.11,651.92L2390.55,650.54L2387.89,649.23L2385.17,648.03L2382.35,646.9L2379.48,645.87L2376.53,644.93L2373.54,644.09L2370.43,643.33L2367.28,642.68L2364.07,642.12L2360.84,641.66L2357.53,641.3L2354.21,641.05L2350.84,640.89L2347.47,640.84L2344.06,640.89L2340.65,641.05L2337.23,641.3L2333.83,641.66L2330.45,642.12L2327.09,642.67L2323.75,643.33L2320.45,644.08L2317.84,644.76L2315.26,645.5L2312.72,646.32L2310.21,647.2L2307.74,648.16L2305.3,649.18L2302.9,650.27L2300.54,651.44L2296.77,653.47L2293.1,655.69L2289.52,658.09L2286.03,660.67L2282.64,663.44L2279.34,666.39L2276.13,669.52L2273.02,672.84L2270.25,676.03L2267.39,679.51L2264.46,683.28L2261.44,687.34L2261.27,687.5L2261.06,687.59L2260.83,687.61L2260.61,687.54L2240.16,677.32L2239.96,677.1L2239.96,676.8L2245.59,664.83L2247.59,660.79L2249.68,656.86L2251.86,653.05L2254.12,649.34L2256.48,645.74L2258.92,642.26L2261.46,638.88L2264.08,635.61L2266,633.36L2267.96,631.18L2270,629.05L2272.08,626.98L2273.97,625.2L2275.9,623.46L2277.88,621.76L2279.9,620.12L2281.95,618.52L2284.05,616.97L2286.19,615.46L2288.37,614L2290.6,612.58L2292.86,611.22L2295.18,609.89L2297.53,608.62L2299.91,607.4L2302.32,606.23L2307.29,604.02L2312.41,602L2317.69,600.18L2323.08,598.56L2328.62,597.14L2334.29,595.93L2340.1,594.91L2346,594.1L2352.01,593.5L2358.35,593.05L2364.61,592.76L2370.75,592.63L2376.81,592.66L2382.77,592.85L2388.65,593.2L2394.41,593.71L2400.09,594.38L2405.68,595.21L2411.18,596.2L2416.57,597.34L2421.88,598.65L2427.1,600.12L2432.24,601.75L2437.27,603.54L2442.21,605.48L2445.02,606.68L2447.78,607.94L2450.48,609.26L2453.11,610.63L2455.69,612.05L2458.2,613.53L2460.66,615.06L2463.06,616.65L2465.39,618.3L2467.67,619.99L2469.89,621.75L2472.04,623.56L2474.14,625.42L2476.18,627.34L2478.16,629.31L2480.08,631.34L2482.44,634.01L2484.71,636.78L2486.89,639.64L2488.96,642.58L2490.94,645.62L2492.82,648.74L2494.6,651.96L2496.28,655.26L2497.9,658.74L2499.4,662.33L2500.8,666.03L2502.08,669.84L2503.25,673.75L2504.31,677.76L2505.27,681.91L2506.12,686.17L2506.86,690.55L2507.5,695.06L2508.03,699.72L2508.46,704.52L2508.8,709.51L2509.04,714.68L2509.18,720.07L2509.23,725.75L2509.26,827.08L2509.22,921.18L2509.11,921.43L2508.86,921.54L2430.33,921.54L2430.03,921.48L2429.78,921.31L2429.61,921.05L2429.55,920.75L2429.55,887ZM2429.27,776.86L2423.48,774.67L2417.9,772.7L2412.52,770.96L2407.36,769.44L2403.36,768.41L2399.29,767.51L2395.17,766.76L2391.07,766.15L2386.96,765.69L2382.89,765.39L2378.82,765.23L2374.82,765.23L2370.89,765.38L2367.04,765.68L2363.24,766.13L2359.54,766.73L2355.94,767.47L2352.45,768.36L2349.05,769.4L2345.77,770.58L2343.5,771.5L2341.3,772.48L2339.15,773.52L2337.06,774.63L2335.05,775.78L2333.11,777L2331.23,778.27L2329.41,779.61L2327.67,780.99L2326.01,782.44L2324.43,783.92L2322.91,785.46L2321.47,787.07L2320.09,788.73L2318.8,790.42L2317.58,792.18L2316.18,794.42L2314.89,796.74L2313.73,799.12L2312.67,801.6L2311.75,804.12L2310.93,806.73L2310.24,809.39L2309.67,812.14L2309.23,814.77L2308.9,817.39L2308.67,820L2308.54,822.59L2308.51,825.17L2308.59,827.74L2308.77,830.29L2309.05,832.83L2309.52,835.78L2310.12,838.71L2310.63,840.79L2311.2,842.8L2311.82,844.78L2312.5,846.71L2313.23,848.58L2314.01,850.39L2314.85,852.17L2315.74,853.89L2316.69,855.57L2317.69,857.19L2318.76,858.77L2319.87,860.29L2321.03,861.76L2322.24,863.16L2323.51,864.53L2324.82,865.83L2326.6,867.44L2328.45,868.95L2330.39,870.37L2332.4,871.69L2334.51,872.94L2336.68,874.08L2338.95,875.13L2341.26,876.07L2343.68,876.93L2346.14,877.69L2348.69,878.35L2351.27,878.9L2353.95,879.36L2356.67,879.72L2359.45,879.98L2362.26,880.13L2365.18,880.19L2368.12,880.14L2371.11,879.98L2374.11,879.72L2377.16,879.36L2380.21,878.9L2383.29,878.33L2386.34,877.66L2389.42,876.89L2392.46,876.03L2395.5,875.07L2398.5,874.02L2401.47,872.88L2404.38,871.66L2407.23,870.35L2410.02,868.97L2414.74,866.43L2419.53,863.66L2424.36,860.66L2429.26,857.43L2429.5,857.15L2429.59,856.8L2429.59,777.32L2429.5,777.04L2429.27,776.86Z" style="fill:rgb(81,43,139);fill-rule:nonzero;"/>
        </g>
        <g transform="matrix(1.0231,0,0,1.0231,0.0363036,0)">
            <path d="M2218.45,597.65L2219.27,597.59L2225.03,597.12L2230.77,596.89L2236.49,596.89L2242.2,597.13L2245.43,597.37L2248.64,597.68L2251.85,598.07L2255.06,598.54L2255.17,598.57L2255.37,598.7L2255.49,598.9L2255.52,599.13L2255.44,599.36L2220.33,656.72L2220.19,656.89L2220,657.02L2219.79,657.08L2219.56,657.09L2212.25,656.25L2208.63,655.93L2205.03,655.74L2201.45,655.68L2197.9,655.75L2194.38,655.95L2190.87,656.28L2187.4,656.74L2183.95,657.33L2180.39,658.07L2176.86,658.96L2173.35,659.99L2169.87,661.16L2166.42,662.46L2162.99,663.91L2159.59,665.49L2156.22,667.22L2152.09,669.5L2148.06,671.86L2144.11,674.32L2140.25,676.86L2140.03,677.05L2139.86,677.29L2139.76,677.57L2139.72,677.86L2139.72,920.91L2139.67,921.14L2139.54,921.34L2139.34,921.47L2139.11,921.52L2057.45,921.52L2057.2,921.46L2057.01,921.27L2056.94,921.01L2056.94,606.56L2057.04,606.33L2057.27,606.24L2139.07,606.24L2139.33,606.29L2139.54,606.44L2139.69,606.65L2139.74,606.91L2139.74,644.38L2139.77,644.5L2139.86,644.6L2139.98,644.64L2140.11,644.62L2140.22,644.54L2142.85,641.18L2145.62,637.81L2148.53,634.46L2151.59,631.1L2154.93,627.66L2158.36,624.4L2161.89,621.32L2165.51,618.43L2169.23,615.72L2173.04,613.19L2176.94,610.84L2180.93,608.67L2185.26,606.58L2189.69,604.7L2194.22,603.01L2198.86,601.53L2203.6,600.26L2208.44,599.18L2213.39,598.32L2218.45,597.65Z" style="fill:rgb(81,43,139);fill-rule:nonzero;"/>
        </g>
        <g transform="matrix(1.0231,0,0,1.0231,0.0363036,0)">
            <path d="M420.74,0L427.21,0.55L433.56,1.32L439.8,2.31L445.92,3.51L451.92,4.93L457.81,6.56L460.72,7.46L463.59,8.41L466.43,9.42L469.25,10.48L472.25,11.68L476.64,13.55L480.95,15.52L485.24,17.63L489.45,19.83L493.64,22.18L497.75,24.62L501.81,27.18L505.83,29.87L509.79,32.67L513.72,35.6L517.56,38.62L521.38,41.78L525.12,45.03L528.82,48.42L532.45,51.9L536.03,55.51L539.55,59.22L543.03,63.07L546.43,67L549.78,71.05L553.07,75.21L556.3,79.49L559.45,83.85L562.55,88.33L565.59,92.92L568.57,97.62L571.46,102.4L574.3,107.29L577.07,112.28L579.77,117.37L582.39,122.54L584.94,127.8L587.3,132.87L589.58,137.98L591.8,143.14L593.96,148.39L596.05,153.67L598.09,159.05L600.05,164.44L601.96,169.92L603.79,175.45L605.57,181.05L607.28,186.68L608.92,192.39L610.5,198.14L612.02,203.97L613.47,209.83L614.85,215.77L616.18,221.75L617.43,227.81L618.62,233.89L619.75,240.05L620.81,246.25L621.81,252.53L622.74,258.83L623.6,265.2L624.4,271.62L625.13,278.11L625.8,284.63L626.4,291.21L626.94,297.82L627.41,304.5L627.81,311.23L628.15,318.01L628.42,324.64L628.62,331.27L628.76,337.93L628.84,344.59L628.86,351.25L628.82,357.92L628.72,364.61L628.55,371.3L628.32,378.02L628.04,384.73L627.69,391.47L627.27,398.22L626.8,404.97L626.27,411.72L625.67,418.51L625.01,425.29L623.52,438.9L621.77,452.56L619.78,466.3L617.53,480.09L615.05,493.93L612.31,507.83L609.33,521.81L606.09,535.85L603.76,545.38L601.32,554.89L598.78,564.34L596.13,573.76L593.39,583.11L590.54,592.43L587.59,601.67L584.54,610.88L581.4,620L578.15,629.09L574.81,638.09L571.37,647.05L567.84,655.91L564.21,664.72L560.48,673.47L556.67,682.12L552.76,690.7L548.77,699.17L544.68,707.61L540.51,715.93L536.24,724.19L531.9,732.33L527.45,740.42L522.93,748.4L518.31,756.31L513.63,764.1L508.84,771.83L503.98,779.44L499.03,786.98L494.02,794.39L488.9,801.74L483.72,808.96L478.95,815.42L474.11,821.78L469.21,828.02L464.25,834.15L459.23,840.17L454.15,846.08L449,851.88L443.79,857.56L438.54,863.12L433.24,868.54L427.87,873.87L422.46,879.06L417,884.13L411.5,889.06L405.93,893.88L400.33,898.57L394.71,903.1L389.04,907.48L383.33,911.7L377.59,915.77L371.81,919.68L366,923.44L360.19,927.02L354.35,930.43L348.49,933.68L342.62,936.76L336.76,939.66L330.9,942.38L325.01,944.93L319.14,947.31L313.27,949.5L307.42,951.51L301.59,953.34L295.78,954.98L289.96,956.45L284.16,957.74L278.39,958.85L272.64,959.77L266.89,960.51L261.18,961.07L255.49,961.45L249.84,961.65L244.19,961.66L238.59,961.49L233.01,961.14L227.48,960.61L221.94,959.89L216.46,958.99L212.09,958.14L207.72,957.17L203.39,956.08L199.06,954.87L194.78,953.56L190.5,952.12L186.27,950.57L182.03,948.89L181.92,948.8L181.87,948.67L181.9,948.53L181.99,948.43L182.15,948.39L182.65,948.43L185.72,948.65L188.78,948.81L191.86,948.91L194.93,948.95L198.03,948.93L201.11,948.85L204.21,948.7L207.31,948.5L210.41,948.23L213.51,947.9L219.72,947.06L225.96,945.98L232.21,944.65L238.47,943.08L244.74,941.27L251.02,939.21L257.31,936.92L263.59,934.38L269.87,931.6L276.17,928.58L282.45,925.32L288.77,921.81L295.06,918.06L301.36,914.07L307.63,909.85L313.9,905.4L320.13,900.73L326.34,895.82L332.51,890.7L338.67,885.34L344.77,879.79L350.83,874.02L356.82,868.06L362.77,861.88L368.63,855.54L374.42,849.02L380.1,842.35L385.35,835.95L390.54,829.39L395.65,822.72L400.7,815.91L405.67,808.97L410.57,801.89L415.36,794.72L420.08,787.44L424.7,780.05L429.23,772.56L433.64,765.01L437.95,757.36L442.14,749.66L446.23,741.87L450.19,734.05L454,726.21L456.9,720.05L459.75,713.88L462.53,707.68L465.25,701.47L467.92,695.24L470.52,688.99L473.06,682.72L475.54,676.44L477.96,670.13L480.32,663.81L482.62,657.47L484.86,651.11L487.04,644.73L489.16,638.33L491.22,631.92L493.22,625.49L495.66,617.35L498,609.18L500.24,600.98L502.39,592.75L504.44,584.49L506.4,576.21L508.26,567.89L510.02,559.55L511.69,551.17L513.26,542.77L514.74,534.33L516.12,525.87L517.4,517.38L518.59,508.86L519.68,500.31L520.68,491.73L521.33,485.6L521.91,479.46L522.44,473.31L522.9,467.15L523.31,460.99L523.65,454.82L523.94,448.65L524.16,442.47L524.32,436.28L524.42,430.08L524.46,423.87L524.44,417.66L524.36,411.45L524.22,405.22L524.01,398.99L523.75,392.75L523.44,386.89L523.06,381.05L522.62,375.23L522.12,369.43L521.54,363.64L520.91,357.88L520.2,352.14L519.44,346.41L518.6,340.71L517.7,335.02L516.74,329.36L515.71,323.71L514.61,318.08L513.45,312.48L512.22,306.89L510.93,301.32L508.95,293.39L506.8,285.52L504.5,277.75L502.05,270.08L499.45,262.54L496.7,255.12L493.82,247.86L490.8,240.74L487.66,233.82L484.39,227.05L481,220.48L477.49,214.08L473.86,207.87L470.11,201.85L466.25,196.04L462.28,190.43L458.23,185.06L454.07,179.88L449.82,174.93L445.46,170.18L441,165.64L436.44,161.31L431.79,157.21L427.05,153.33L422.22,149.66L417.29,146.21L412.28,142.98L407.19,139.98L402,137.19L396.72,134.63L391.37,132.3L385.94,130.19L381.23,128.56L376.49,127.1L371.65,125.8L366.78,124.67L362.85,123.88L358.92,123.21L353.97,122.52L348.98,122L343.99,121.66L338.96,121.48L333.91,121.47L328.82,121.64L323.73,121.98L318.61,122.49L313.47,123.17L308.3,124.03L303.13,125.05L297.94,126.24L292.74,127.6L287.53,129.14L282.29,130.84L277.04,132.72L271.78,134.77L266.51,136.98L261.23,139.37L255.95,141.93L250.67,144.65L245.41,147.52L240.14,150.57L234.89,153.78L229.64,157.15L224.42,160.67L219.2,164.35L214.02,168.18L208.87,172.16L203.76,176.27L198.68,180.53L193.66,184.92L188.34,189.75L183.06,194.73L177.86,199.83L172.69,205.06L167.59,210.42L162.54,215.92L157.55,221.55L152.61,227.32L147.73,233.19L142.92,239.2L138.17,245.33L133.48,251.59L128.87,257.95L124.33,264.42L119.86,271.01L115.46,277.71L108.86,288.14L99.01,304.01L97.97,305.62L96.92,307.07L95.87,308.35L94.81,309.47L94.58,309.6L94.3,309.61L94.07,309.47L93.93,309.23L93.92,308.96L94.41,307.13L95.02,305.17L95.76,303.03L96.63,300.72L98.79,295.47L102.22,287.68L103.74,284.25L108.74,273.19L113.86,262.29L119.08,251.59L124.42,241.04L129.87,230.68L135.44,220.48L141.11,210.47L146.9,200.62L152.8,190.95L158.82,181.44L164.94,172.12L171.18,162.96L177.54,153.97L184.01,145.15L190.59,136.51L197.29,128.03L201.8,122.51L206.34,117.08L210.9,111.78L215.5,106.58L220.13,101.49L224.78,96.51L229.45,91.67L234.15,86.92L238.87,82.3L243.62,77.8L248.38,73.42L253.16,69.16L257.97,65.01L262.79,60.98L267.63,57.08L272.48,53.3L277.35,49.65L282.24,46.12L287.15,42.7L292.07,39.41L297.01,36.24L301.95,33.21L306.93,30.28L311.91,27.49L316.9,24.82L321.89,22.29L326.92,19.86L331.95,17.57L336.99,15.4L342.03,13.36L347.11,11.44L352.18,9.65L357.93,7.8L363.81,6.14L369.81,4.66L375.94,3.36L382.18,2.25L388.55,1.32L395.04,0.57L401.66,0L420.74,0Z" style="fill:rgb(132,208,212);fill-rule:nonzero;"/>
        </g>
        <g transform="matrix(1.0231,0,0,1.0231,0.0363036,0)">
            <path d="M2552.3,511.331L2554.35,511.392L2556.39,511.556L2558.41,511.82L2560.43,512.185L2562.42,512.65L2564.39,513.214L2566.33,513.875L2568.23,514.632L2570.1,515.482L2571.92,516.424L2573.69,517.457L2575.41,518.576L2577.08,519.779L2578.69,521.064L2580.23,522.427L2581.7,523.865L2583.1,525.375L2584.43,526.953L2585.68,528.595L2586.85,530.298L2587.93,532.056L2588.93,533.867L2589.84,535.725L2590.66,537.626L2591.39,539.565L2592.02,541.539L2592.55,543.541L2592.99,545.568L2593.33,547.614L2593.57,549.674L2593.71,551.744L2593.75,553.818L2593.69,555.892L2593.53,557.96L2593.27,560.018L2592.91,562.06L2592.45,564.082L2591.89,566.079L2591.24,568.046L2590.49,569.977L2589.65,571.87L2588.72,573.718L2587.71,575.518L2586.6,577.265L2585.42,578.955L2584.15,580.584L2582.81,582.148L2581.39,583.643L2579.9,585.066L2578.34,586.413L2576.72,587.681L2575.05,588.867L2573.31,589.968L2571.53,590.981L2569.7,591.904L2567.82,592.735L2565.91,593.472L2563.96,594.113L2561.99,594.656L2559.99,595.1L2557.97,595.444L2555.94,595.687L2553.9,595.829L2551.86,595.869L2549.81,595.808L2547.78,595.645L2545.75,595.38L2543.73,595.015L2541.74,594.55L2539.77,593.986L2537.83,593.325L2535.93,592.568L2534.06,591.718L2532.24,590.776L2530.47,589.744L2528.75,588.625L2527.08,587.421L2525.47,586.136L2523.93,584.773L2522.46,583.335L2521.06,581.825L2519.73,580.247L2518.48,578.605L2517.31,576.902L2516.22,575.144L2515.23,573.333L2514.32,571.475L2513.5,569.574L2512.77,567.635L2512.14,565.661L2511.61,563.659L2511.17,561.632L2510.83,559.586L2510.59,557.526L2510.45,555.456L2510.41,553.382L2510.47,551.308L2510.63,549.24L2510.89,547.182L2511.25,545.14L2511.71,543.118L2512.27,541.121L2512.92,539.154L2513.67,537.223L2514.51,535.33L2515.43,533.482L2516.45,531.682L2517.56,529.935L2518.74,528.245L2520.01,526.616L2521.35,525.052L2522.77,523.557L2524.26,522.134L2525.82,520.787L2527.43,519.519L2529.11,518.333L2530.85,517.232L2532.63,516.219L2534.46,515.296L2536.34,514.465L2538.25,513.728L2540.2,513.087L2542.17,512.544L2544.17,512.1L2546.18,511.756L2548.22,511.513L2550.26,511.371L2552.3,511.331ZM2551.69,518.274L2550.05,518.343L2548.41,518.496L2546.79,518.734L2545.17,519.057L2543.58,519.462L2542,519.95L2540.45,520.519L2538.92,521.168L2537.43,521.895L2535.97,522.698L2534.56,523.576L2533.18,524.527L2531.86,525.547L2530.58,526.636L2529.35,527.789L2528.18,529.005L2527.07,530.28L2526.01,531.611L2525.02,532.995L2524.1,534.429L2523.24,535.91L2522.46,537.433L2521.74,538.995L2521.1,540.592L2520.53,542.221L2520.05,543.877L2519.63,545.557L2519.3,547.256L2519.05,548.971L2518.87,550.697L2518.78,552.43L2518.76,554.166L2518.83,555.901L2518.98,557.63L2519.21,559.35L2519.52,561.055L2519.9,562.743L2520.37,564.41L2520.91,566.05L2521.53,567.66L2522.22,569.236L2522.98,570.775L2523.81,572.273L2524.72,573.726L2525.68,575.13L2526.72,576.482L2527.81,577.78L2528.97,579.019L2530.17,580.198L2531.44,581.312L2532.75,582.359L2534.11,583.338L2535.51,584.245L2536.95,585.078L2538.43,585.835L2539.95,586.515L2541.49,587.116L2543.06,587.636L2544.65,588.074L2546.26,588.429L2547.89,588.7L2549.52,588.887L2551.16,588.989L2552.81,589.006L2554.45,588.937L2556.09,588.784L2557.71,588.546L2559.33,588.223L2560.93,587.818L2562.5,587.33L2564.05,586.761L2565.58,586.112L2567.07,585.385L2568.53,584.582L2569.94,583.704L2571.32,582.753L2572.64,581.733L2573.92,580.644L2575.15,579.491L2576.32,578.275L2577.43,577L2578.49,575.669L2579.48,574.285L2580.4,572.851L2581.26,571.37L2582.04,569.847L2582.76,568.285L2583.4,566.688L2583.97,565.059L2584.45,563.403L2584.87,561.723L2585.2,560.024L2585.45,558.309L2585.63,556.583L2585.72,554.85L2585.74,553.114L2585.67,551.379L2585.52,549.65L2585.29,547.93L2584.98,546.225L2584.6,544.537L2584.13,542.871L2583.59,541.23L2582.97,539.62L2582.28,538.044L2581.52,536.505L2580.69,535.007L2579.78,533.555L2578.82,532.15L2577.78,530.798L2576.69,529.5L2575.53,528.261L2574.33,527.083L2573.06,525.968L2571.75,524.921L2570.39,523.942L2568.99,523.035L2567.55,522.202L2566.07,521.445L2564.55,520.765L2563.01,520.164L2561.44,519.645L2559.85,519.206L2558.24,518.851L2556.61,518.58L2554.98,518.393L2553.34,518.291L2551.69,518.274Z" style="fill:rgb(35,31,32);fill-rule:nonzero;"/>
        </g>
        <g transform="matrix(1.0231,0,0,1.0231,0.0363036,0)">
            <path d="M2560.99,555.06L2562.42,555.91L2563.67,556.87L2564.73,557.96L2565.61,559.15L2566.1,560.03L2566.5,560.96L2566.83,561.95L2567.06,562.99L2568.09,568.41L2569.01,572.65L2569.83,575.7L2570.2,576.78L2570.55,577.57L2570.59,577.74L2570.56,577.92L2570.45,578.06L2570.29,578.14L2570.2,578.15L2563.27,578.15L2562.97,578.11L2562.7,577.99L2562.47,577.8L2562.3,577.55L2561.61,575.98L2561.05,574.2L2560.57,572.17L2560.07,569.36L2559.4,565.79L2559.06,564.5L2558.68,563.38L2558.22,562.37L2557.7,561.49L2557.09,560.69L2556.42,560.02L2555.36,559.26L2554.15,558.68L2552.73,558.27L2551.15,558.02L2548.37,557.86L2545.01,557.85L2544.78,557.9L2544.58,558.04L2544.45,558.24L2544.4,558.47L2544.4,577.56L2544.36,577.79L2544.23,577.98L2544.04,578.11L2543.81,578.16L2537.39,578.16L2537.18,578.12L2537,578L2536.88,577.81L2536.84,577.6L2536.84,531.73L2536.89,531.45L2537.03,531.21L2537.25,531.03L2537.51,530.94L2542.09,530.31L2546.4,529.95L2548.42,529.86L2550.37,529.85L2552.21,529.9L2553.97,530.01L2555.62,530.19L2557.16,530.44L2558.64,530.76L2560,531.13L2561.27,531.58L2562.42,532.08L2563.48,532.65L2564.46,533.3L2565.45,534.12L2566.32,535.04L2567.1,536.09L2567.75,537.22L2568.29,538.45L2568.69,539.73L2568.97,541.08L2569.1,542.46L2569.08,543.84L2568.92,545.21L2568.63,546.52L2568.19,547.79L2567.63,548.96L2566.94,550.06L2566.14,551.04L2565.22,551.93L2564.36,552.58L2563.42,553.16L2560.99,554.44L2560.85,554.57L2560.8,554.75L2560.85,554.93L2560.99,555.06ZM2544.39,536.95L2544.41,551.03L2544.49,551.41L2544.7,551.72L2545.01,551.93L2545.38,552L2550.5,551.99L2551.53,551.96L2552.54,551.84L2553.54,551.66L2554.5,551.41L2555.43,551.08L2556.31,550.7L2557.13,550.25L2557.89,549.75L2558.58,549.19L2559.19,548.59L2559.71,547.94L2560.15,547.27L2560.49,546.56L2560.74,545.83L2560.89,545.09L2560.94,544.35L2560.94,543.59L2560.89,542.84L2560.74,542.1L2560.49,541.37L2560.14,540.67L2559.7,539.99L2559.17,539.35L2558.56,538.75L2557.87,538.2L2557.11,537.69L2556.28,537.25L2555.4,536.87L2554.48,536.55L2553.51,536.3L2552.51,536.12L2551.5,536.01L2550.48,535.97L2545.36,535.98L2544.98,536.06L2544.67,536.27L2544.46,536.58L2544.39,536.95Z" style="fill:rgb(35,31,32);fill-rule:nonzero;"/>
        </g>
        <g transform="matrix(1.0231,0,0,1.0231,0.0363036,0)">
            <path d="M2219.27,597.59L2218.45,597.65L2219.27,597.59Z" style="fill:rgb(35,31,32);fill-rule:nonzero;"/>
        </g>
        <g transform="matrix(1.0231,0,0,1.0231,0.0363036,0)">
            <path d="M1553.54,1179.58L1501.46,1090.5L1501.37,1090.4L1501.23,1090.35L1501.09,1090.36L1500.97,1090.43L1500.95,1090.46L1469.11,1126.95L1469.04,1127.07L1469.03,1127.16L1469.03,1179.42L1468.94,1179.65L1468.71,1179.74L1450.27,1179.74L1450.04,1179.65L1449.95,1179.42L1449.95,952.1L1450.04,951.87L1450.27,951.78L1468.71,951.78L1468.91,951.85L1469,951.96L1469.03,952.1L1469.03,1101.38L1469.11,1101.58L1469.35,1101.7L1469.59,1101.59L1544.56,1015.65L1544.81,1015.54L1566.29,1015.54L1566.46,1015.59L1566.58,1015.73L1566.6,1015.91L1566.53,1016.07L1513.73,1076.58L1513.66,1076.77L1513.7,1076.96L1574.89,1179.26L1574.94,1179.42L1574.89,1179.58L1574.78,1179.7L1574.62,1179.74L1553.81,1179.74L1553.65,1179.7L1553.54,1179.58Z" style="fill:rgb(35,31,32);fill-rule:nonzero;"/>
        </g>
        <g transform="matrix(1.0231,0,0,1.0231,0.0363036,0)">
            <path d="M1610.73,979.29C1610.73,979.597 1610.48,979.85 1610.17,979.85L1592.23,979.85C1591.92,979.85 1591.67,979.597 1591.67,979.29L1591.67,952.35C1591.67,952.043 1591.92,951.79 1592.23,951.79L1610.17,951.79C1610.48,951.79 1610.73,952.043 1610.73,952.35L1610.73,979.29Z" style="fill:rgb(35,31,32);fill-rule:nonzero;"/>
        </g>
        <g transform="matrix(1.0231,0,0,1.0231,0.0363036,0)">
            <path d="M2336.22,952.43L2336.22,1035.76L2336.25,1035.9L2336.36,1036.04L2336.52,1036.1L2336.69,1036.09L2336.83,1035.99L2338.83,1033.84L2340.88,1031.76L2342.97,1029.78L2345.09,1027.9L2347.24,1026.12L2349.41,1024.44L2351.62,1022.86L2353.84,1021.39L2356.06,1020.05L2358.27,1018.83L2360.52,1017.71L2362.75,1016.72L2364.99,1015.84L2367.2,1015.09L2369.45,1014.45L2371.66,1013.94L2374.34,1013.44L2376.97,1013.04L2379.59,1012.72L2382.17,1012.51L2384.74,1012.38L2387.26,1012.36L2389.76,1012.42L2392.22,1012.58L2394.65,1012.83L2397.04,1013.18L2399.4,1013.62L2401.72,1014.15L2404.02,1014.78L2406.26,1015.5L2408.49,1016.32L2410.65,1017.23L2412.82,1018.24L2414.92,1019.34L2417,1020.54L2419.01,1021.82L2421,1023.21L2422.93,1024.68L2424.82,1026.25L2426.65,1027.9L2428.43,1029.64L2430.15,1031.45L2431.82,1033.36L2433.43,1035.35L2435,1037.43L2436.5,1039.58L2437.95,1041.82L2439.32,1044.12L2440.65,1046.51L2441.91,1048.97L2443.1,1051.51L2444.23,1054.1L2445.28,1056.76L2446.26,1059.46L2447.18,1062.24L2448.02,1065.06L2448.79,1067.94L2449.48,1070.86L2450.09,1073.81L2450.63,1076.8L2451.09,1079.82L2451.47,1082.87L2451.78,1085.94L2452,1089.03L2452.18,1093.02L2452.25,1097.04L2452.21,1101.1L2452.06,1105.2L2451.8,1109.33L2451.44,1113.49L2450.96,1117.69L2450.37,1121.93L2449.67,1126.08L2448.83,1130.12L2447.86,1134.02L2446.76,1137.79L2445.53,1141.45L2444.17,1144.96L2442.68,1148.32L2441.07,1151.54L2439.34,1154.6L2437.49,1157.51L2435.5,1160.29L2433.4,1162.91L2431.18,1165.37L2428.85,1167.67L2426.39,1169.83L2423.82,1171.82L2421.66,1173.31L2419.41,1174.71L2417.1,1176L2414.69,1177.19L2412.8,1178.02L2410.89,1178.78L2408.9,1179.49L2406.89,1180.12L2404.8,1180.69L2402.68,1181.19L2400.5,1181.63L2398.29,1182L2396,1182.31L2393.69,1182.55L2391.34,1182.73L2388.92,1182.84L2386.48,1182.88L2383.97,1182.86L2381.46,1182.77L2378.89,1182.61L2374.85,1182.21L2370.97,1181.62L2367.22,1180.84L2363.57,1179.86L2360.09,1178.69L2356.7,1177.32L2353.46,1175.76L2350.32,1173.99L2348.05,1172.54L2345.84,1170.96L2343.71,1169.29L2341.64,1167.5L2339.64,1165.59L2337.69,1163.56L2335.81,1161.43L2334,1159.17L2333.88,1159.08L2333.73,1159.05L2333.59,1159.09L2333.49,1159.2L2333.45,1159.31L2330.58,1179.15L2330.51,1179.38L2330.35,1179.56L2330.15,1179.69L2329.91,1179.73L2317.31,1179.73L2317.1,1179.67L2316.97,1179.53L2316.92,1179.34L2316.92,952.24L2316.95,952.07L2317.05,951.92L2317.2,951.82L2317.37,951.79L2335.58,951.79L2335.82,951.84L2336.03,951.98L2336.17,952.19L2336.22,952.43ZM2336.22,1135.25L2336.27,1136.22L2336.43,1137.13L2336.69,1137.91L2337.05,1138.56L2339.09,1141.39L2341.17,1144.08L2343.31,1146.64L2345.48,1149.05L2347.7,1151.32L2349.95,1153.43L2352.27,1155.42L2354.61,1157.24L2356.99,1158.93L2359.39,1160.45L2361.83,1161.82L2364.33,1163.06L2366.83,1164.14L2369.4,1165.07L2371.98,1165.85L2374.61,1166.48L2376.97,1166.92L2379.36,1167.23L2381.77,1167.42L2384.22,1167.5L2386.67,1167.45L2389.15,1167.28L2391.65,1167L2394.19,1166.59L2397.17,1165.93L2400.06,1165.06L2402.83,1164L2405.5,1162.72L2408.04,1161.27L2410.49,1159.61L2412.8,1157.76L2415.02,1155.72L2417.11,1153.5L2419.1,1151.08L2420.97,1148.48L2422.71,1145.69L2424.34,1142.72L2425.83,1139.58L2427.19,1136.27L2428.41,1132.82L2429.49,1129.23L2430.42,1125.53L2431.19,1121.71L2431.81,1117.81L2432.22,1114.47L2432.55,1111.05L2432.8,1107.61L2432.97,1104.14L2433.05,1100.65L2433.04,1097.17L2432.95,1093.74L2432.78,1090.33L2432.52,1086.98L2432.18,1083.69L2431.76,1080.47L2431.26,1077.33L2430.68,1074.25L2430.02,1071.26L2429.28,1068.32L2428.46,1065.49L2427.58,1062.79L2426.64,1060.2L2425.61,1057.67L2424.52,1055.25L2423.35,1052.91L2422.12,1050.7L2420.81,1048.55L2419.44,1046.52L2418.02,1044.61L2416.51,1042.77L2414.94,1041.05L2413.29,1039.42L2411.61,1037.91L2409.84,1036.48L2408.01,1035.17L2406.11,1033.95L2404.68,1033.13L2403.2,1032.36L2401.7,1031.65L2400.17,1030.99L2398.59,1030.39L2396.97,1029.85L2395.34,1029.37L2393.66,1028.94L2391.63,1028.51L2389.62,1028.17L2387.62,1027.93L2385.62,1027.78L2383.64,1027.73L2381.67,1027.77L2379.72,1027.9L2377.77,1028.14L2376.23,1028.39L2374.69,1028.71L2373.15,1029.08L2371.63,1029.52L2370.11,1030.02L2368.61,1030.58L2367.11,1031.21L2365.62,1031.89L2362.9,1033.26L2360.26,1034.72L2357.71,1036.26L2355.23,1037.88L2352.82,1039.59L2350.5,1041.38L2348.26,1043.26L2346.09,1045.22L2343.79,1047.48L2341.58,1049.85L2339.47,1052.32L2337.45,1054.9L2336.92,1055.74L2336.53,1056.66L2336.3,1057.62L2336.22,1058.61L2336.22,1135.25Z" style="fill:rgb(35,31,32);fill-rule:nonzero;"/>
        </g>
        <g transform="matrix(1.0231,0,0,1.0231,0.0363036,0)">
            <path d="M2511.16,1082.26L2511.08,1088.23L2510.87,1094.15L2510.52,1100L2510.03,1105.81L2509.4,1111.54L2508.64,1117.22L2507.73,1122.82L2506.69,1128.38L2505.51,1133.88L2504.19,1139.33L2502.73,1144.71L2501.13,1150.03L2499.4,1155.28L2497.53,1160.49L2495.52,1165.61L2493.38,1170.69L2491.03,1175.84L2488.53,1180.94L2485.89,1185.96L2483.1,1190.92L2480.17,1195.81L2477.09,1200.65L2473.88,1205.4L2470.51,1210.1L2470.16,1210.48L2469.74,1210.76L2469.26,1210.93L2468.75,1210.99L2448.39,1210.99L2448.24,1210.95L2448.13,1210.86L2448.07,1210.72L2448.08,1210.56L2448.12,1210.47L2450.6,1206.95L2452.99,1203.4L2455.32,1199.79L2457.55,1196.15L2459.71,1192.47L2461.78,1188.77L2463.77,1185L2465.69,1181.21L2468.33,1175.62L2470.8,1169.96L2473.11,1164.2L2475.23,1158.39L2477.2,1152.46L2478.99,1146.48L2480.62,1140.39L2482.07,1134.26L2483.35,1128.01L2484.46,1121.71L2485.41,1115.31L2486.18,1108.87L2486.78,1102.31L2487.21,1095.7L2487.47,1088.99L2487.56,1082.24L2487.48,1075.49L2487.23,1068.79L2486.81,1062.18L2486.22,1055.62L2485.46,1049.17L2484.53,1042.77L2483.43,1036.47L2482.15,1030.22L2480.71,1024.08L2479.1,1017.99L2477.32,1012.01L2475.36,1006.08L2473.24,1000.26L2470.95,994.5L2468.49,988.84L2465.85,983.23L2463.94,979.44L2461.95,975.67L2459.89,971.97L2457.74,968.28L2455.51,964.64L2453.19,961.03L2450.81,957.47L2448.34,953.95L2448.29,953.86L2448.28,953.7L2448.34,953.56L2448.45,953.47L2448.6,953.43L2468.96,953.46L2469.47,953.52L2469.95,953.7L2470.38,953.98L2470.72,954.35L2474.08,959.06L2477.29,963.82L2480.36,968.66L2483.28,973.55L2486.06,978.52L2488.69,983.55L2491.18,988.65L2493.52,993.8L2495.66,998.89L2497.66,1004.02L2499.52,1009.22L2501.25,1014.47L2502.84,1019.8L2504.28,1025.18L2505.6,1030.63L2506.77,1036.13L2507.8,1041.69L2508.69,1047.3L2509.45,1052.98L2510.07,1058.71L2510.55,1064.52L2510.89,1070.37L2511.09,1076.29L2511.16,1082.26Z" style="fill:rgb(35,31,32);fill-rule:nonzero;"/>
        </g>
        <g transform="matrix(1.0231,0,0,1.0231,0.0363036,0)">
            <path d="M920.35,1082.5L920.44,1089.25L920.7,1095.96L921.12,1102.57L921.72,1109.13L922.49,1115.58L923.42,1121.98L924.53,1128.28L925.81,1134.53L927.26,1140.67L928.88,1146.75L930.66,1152.74L932.63,1158.67L934.75,1164.49L937.05,1170.24L939.51,1175.91L942.16,1181.51L944.07,1185.3L946.06,1189.06L948.13,1192.77L950.28,1196.45L952.52,1200.09L954.83,1203.7L957.22,1207.26L959.7,1210.78L959.75,1210.87L959.76,1211.03L959.7,1211.17L959.58,1211.27L959.43,1211.3L939.07,1211.28L938.56,1211.22L938.08,1211.05L937.66,1210.77L937.31,1210.4L933.95,1205.69L930.73,1200.93L927.66,1196.1L924.73,1191.2L921.95,1186.23L919.31,1181.21L916.82,1176.11L914.47,1170.96L912.33,1165.88L910.33,1160.75L908.46,1155.55L906.73,1150.29L905.13,1144.96L903.68,1139.59L902.36,1134.14L901.19,1128.64L900.15,1123.08L899.25,1117.47L898.49,1111.78L897.87,1106.06L897.38,1100.25L897.04,1094.4L896.83,1088.47L896.76,1082.5L896.83,1076.53L897.03,1070.61L897.38,1064.76L897.87,1058.95L898.49,1053.22L899.25,1047.54L900.15,1041.93L901.18,1036.37L902.36,1030.87L903.68,1025.42L905.13,1020.04L906.72,1014.71L908.45,1009.46L910.32,1004.26L912.32,999.13L914.46,994.05L916.81,988.89L919.3,983.79L921.94,978.77L924.73,973.8L927.65,968.91L930.72,964.07L933.94,959.31L937.3,954.61L937.65,954.23L938.07,953.95L938.55,953.78L939.06,953.72L959.42,953.7L959.57,953.74L959.69,953.84L959.75,953.98L959.73,954.13L959.69,954.22L957.21,957.74L954.82,961.3L952.51,964.91L950.27,968.55L948.12,972.23L946.05,975.94L944.06,979.7L942.15,983.5L939.51,989.1L937.04,994.76L934.74,1000.52L932.62,1006.34L930.66,1012.27L928.87,1018.25L927.25,1024.34L925.81,1030.47L924.53,1036.72L923.42,1043.03L922.48,1049.42L921.72,1055.87L921.12,1062.44L920.7,1069.05L920.44,1075.75L920.35,1082.5Z" style="fill:rgb(35,31,32);fill-rule:nonzero;"/>
        </g>
        <g transform="matrix(1.0231,0,0,1.0231,0.0363036,0)">
            <path d="M1252.84,963.24L1253.1,963.29L1253.31,963.44L1253.46,963.66L1253.51,963.92L1253.51,1016.01L1253.57,1016.29L1253.73,1016.53L1253.97,1016.69L1254.26,1016.75L1288.84,1016.75L1289.06,1016.79L1289.24,1016.92L1289.37,1017.11L1289.41,1017.33L1289.41,1031.62L1289.37,1031.82L1289.25,1031.99L1289.08,1032.11L1288.88,1032.15L1253.9,1032.15L1253.62,1032.26L1253.51,1032.53L1253.5,1147.59L1253.47,1150.08L1253.51,1152.34L1253.61,1154.37L1253.77,1156.18L1253.99,1157.76L1254.27,1159.12L1254.62,1160.25L1255.03,1161.15L1255.91,1162.56L1256.86,1163.8L1257.93,1164.91L1259.07,1165.85L1260.28,1166.64L1261.62,1167.31L1263.03,1167.84L1264.57,1168.25L1266.22,1168.54L1268,1168.71L1269.94,1168.76L1272.05,1168.7L1274.06,1168.55L1276.08,1168.33L1278.13,1168.02L1280.21,1167.64L1282.3,1167.19L1284.41,1166.65L1286.55,1166.04L1288.71,1165.35L1288.79,1165.33L1289.03,1165.34L1289.23,1165.45L1289.37,1165.63L1289.42,1165.86L1289.42,1180.54L1289.38,1180.77L1289.27,1180.98L1289.1,1181.14L1288.89,1181.24L1285.64,1182.05L1282.12,1182.75L1278.33,1183.35L1274.26,1183.83L1271.62,1184.05L1269.01,1184.16L1266.42,1184.17L1263.85,1184.07L1261.31,1183.86L1258.8,1183.55L1256.31,1183.13L1253.85,1182.61L1252.01,1182.14L1250.18,1181.61L1248.74,1181.13L1247.38,1180.59L1246.08,1179.98L1244.87,1179.31L1243.71,1178.58L1242.63,1177.79L1241.61,1176.92L1240.67,1176L1239.86,1175.09L1239.11,1174.14L1238.41,1173.11L1237.78,1172.05L1237.18,1170.9L1236.66,1169.71L1236.18,1168.45L1235.76,1167.14L1235.39,1165.78L1235.07,1164.31L1234.8,1162.81L1234.58,1161.21L1234.3,1157.81L1234.2,1153.99L1234.2,1033L1234.14,1032.67L1233.95,1032.4L1233.68,1032.21L1233.35,1032.15L1210.35,1032.15L1210.14,1032.11L1209.95,1031.99L1209.83,1031.81L1209.79,1031.6L1209.79,1017.39L1209.84,1017.15L1209.98,1016.94L1210.19,1016.81L1210.43,1016.76L1233.34,1016.76L1233.66,1016.7L1233.93,1016.52L1234.12,1016.25L1234.19,1015.94L1234.19,963.61L1234.3,963.35L1234.56,963.24L1252.84,963.24Z" style="fill:rgb(35,31,32);fill-rule:nonzero;"/>
        </g>
        <g transform="matrix(1.0231,0,0,1.0231,0.0363036,0)">
            <path d="M1201.84,1040.21L1188.3,1049.62L1187.99,1049.76L1187.64,1049.76L1187.32,1049.64L1187.07,1049.4L1185.59,1047.38L1184.07,1045.43L1182.54,1043.59L1180.97,1041.83L1179.4,1040.18L1177.79,1038.6L1176.17,1037.13L1174.51,1035.73L1172.83,1034.43L1171.12,1033.21L1169.39,1032.09L1167.61,1031.04L1165.83,1030.1L1164.01,1029.24L1162.17,1028.47L1160.29,1027.78L1158.4,1027.19L1156.48,1026.67L1154.54,1026.25L1152.55,1025.92L1150.54,1025.66L1148.48,1025.5L1146.41,1025.42L1144.3,1025.42L1142.16,1025.51L1140.07,1025.68L1138.06,1025.93L1136.09,1026.26L1134.19,1026.67L1132.35,1027.17L1130.59,1027.74L1128.89,1028.39L1127.29,1029.11L1125.75,1029.91L1124.3,1030.78L1122.92,1031.73L1121.63,1032.75L1120.41,1033.86L1119.29,1035.02L1118.25,1036.26L1117.05,1037.93L1115.99,1039.73L1115.08,1041.63L1114.31,1043.65L1113.7,1045.75L1113.23,1047.97L1112.92,1050.27L1112.75,1052.69L1112.77,1054.99L1113.02,1057.22L1113.49,1059.32L1113.81,1060.36L1114.19,1061.35L1114.84,1062.78L1115.63,1064.19L1116.52,1065.52L1117.55,1066.82L1118.69,1068.06L1119.97,1069.27L1121.35,1070.41L1122.87,1071.52L1124.5,1072.57L1126.25,1073.58L1128.15,1074.55L1130.17,1075.48L1132.34,1076.38L1134.64,1077.24L1137.11,1078.07L1139.83,1078.91L1151.21,1082.19L1159.32,1084.52L1164.99,1086.23L1170.05,1087.89L1174.7,1089.56L1177.23,1090.55L1179.62,1091.56L1181.93,1092.63L1184.12,1093.71L1186.19,1094.83L1188.18,1096.01L1190.06,1097.21L1191.87,1098.47L1193.56,1099.76L1195.18,1101.11L1196.69,1102.5L1198.12,1103.94L1199.45,1105.42L1200.71,1106.96L1201.86,1108.54L1202.94,1110.18L1204.24,1112.46L1205.41,1114.85L1206.41,1117.34L1207.27,1119.94L1207.97,1122.63L1208.52,1125.44L1208.93,1128.35L1209.18,1131.39L1209.26,1133.83L1209.21,1136.21L1209.05,1138.57L1208.75,1140.88L1208.34,1143.18L1207.8,1145.41L1207.13,1147.62L1206.36,1149.76L1205.74,1151.22L1205.08,1152.65L1204.35,1154.07L1203.57,1155.45L1202.73,1156.81L1201.85,1158.13L1200.9,1159.43L1199.9,1160.7L1197.75,1163.15L1195.38,1165.49L1192.84,1167.66L1190.09,1169.71L1187.15,1171.61L1184.07,1173.33L1180.83,1174.89L1177.48,1176.26L1173.98,1177.45L1170.4,1178.45L1166.75,1179.25L1163.04,1179.84L1159.35,1180.25L1155.67,1180.5L1152.02,1180.6L1148.4,1180.54L1144.82,1180.33L1141.27,1179.96L1137.76,1179.44L1134.3,1178.76L1130.91,1177.93L1127.58,1176.96L1124.3,1175.83L1121.09,1174.54L1117.96,1173.12L1114.9,1171.55L1111.94,1169.84L1109.06,1167.99L1106.19,1165.94L1103.41,1163.74L1100.75,1161.41L1098.19,1158.93L1095.76,1156.33L1093.43,1153.59L1091.23,1150.74L1089.14,1147.74L1089.04,1147.49L1089.04,1147.21L1089.14,1146.96L1089.33,1146.76L1102.29,1137.75L1102.55,1137.64L1102.83,1137.63L1103.09,1137.73L1103.3,1137.93L1106.43,1142.13L1107.96,1144.03L1109.47,1145.83L1110.99,1147.53L1112.5,1149.13L1114.04,1150.66L1115.57,1152.08L1117.13,1153.43L1118.68,1154.69L1120.26,1155.87L1121.88,1156.99L1123.5,1158.01L1125.17,1158.97L1126.85,1159.85L1128.58,1160.67L1131.32,1161.79L1134.13,1162.73L1137.06,1163.52L1140.06,1164.13L1142.05,1164.44L1144.06,1164.69L1146.1,1164.89L1148.17,1165.03L1152.4,1165.12L1156.73,1164.99L1159.39,1164.75L1162.02,1164.35L1164.62,1163.77L1167.16,1163.03L1169.62,1162.13L1171.99,1161.08L1174.26,1159.88L1176.43,1158.53L1178.45,1157.06L1180.34,1155.46L1182.08,1153.76L1183.67,1151.93L1185.08,1150.03L1186.33,1148.01L1187.39,1145.93L1188.29,1143.76L1188.8,1142.21L1189.22,1140.61L1189.55,1139.01L1189.79,1137.36L1189.94,1135.71L1190,1134.03L1189.96,1132.34L1189.83,1130.61L1189.57,1128.71L1189.18,1126.89L1188.66,1125.14L1187.99,1123.42L1187.12,1121.62L1186.09,1119.88L1184.9,1118.22L1183.56,1116.62L1182.06,1115.09L1180.39,1113.63L1178.56,1112.22L1176.57,1110.88L1174.43,1109.61L1172.14,1108.4L1169.66,1107.24L1167.01,1106.14L1164.21,1105.09L1161.15,1104.05L1157.81,1103.03L1154.03,1101.97L1147.98,1100.35L1138.23,1097.71L1131.34,1095.66L1128.18,1094.62L1125.16,1093.55L1122.27,1092.45L1119.45,1091.3L1117.55,1090.46L1115.72,1089.57L1113.95,1088.64L1112.26,1087.67L1110.64,1086.66L1109.09,1085.6L1107.61,1084.5L1106.2,1083.36L1104.87,1082.18L1103.61,1080.96L1102.42,1079.69L1101.31,1078.39L1100.27,1077.05L1099.3,1075.66L1098.4,1074.23L1097.58,1072.76L1096.87,1071.33L1096.22,1069.85L1095.64,1068.34L1095.13,1066.8L1094.69,1065.22L1094.31,1063.6L1094.01,1061.94L1093.77,1060.25L1093.6,1058.53L1093.51,1056.77L1093.48,1054.98L1093.52,1053.15L1093.63,1051.31L1093.81,1049.43L1094.06,1047.51L1094.38,1045.56L1094.87,1043.17L1095.47,1040.88L1096.19,1038.65L1097.01,1036.51L1097.95,1034.42L1098.99,1032.43L1100.15,1030.5L1101.41,1028.67L1102.38,1027.4L1103.4,1026.18L1104.49,1024.99L1105.61,1023.85L1106.81,1022.74L1108.05,1021.68L1109.36,1020.65L1110.71,1019.68L1112.11,1018.75L1113.55,1017.87L1115.06,1017.03L1116.6,1016.24L1118.21,1015.48L1119.86,1014.78L1121.56,1014.12L1123.3,1013.52L1126.94,1012.43L1130.74,1011.55L1134.71,1010.87L1138.8,1010.39L1143,1010.12L1147.28,1010.05L1151.64,1010.2L1156.01,1010.55L1159.79,1011.04L1163.46,1011.71L1167.01,1012.57L1170.45,1013.6L1173.77,1014.82L1176.97,1016.22L1180.06,1017.8L1183.04,1019.57L1185.79,1021.44L1188.43,1023.47L1190.97,1025.68L1193.4,1028.05L1195.72,1030.59L1197.94,1033.3L1200.05,1036.17L1202.05,1039.22L1202.15,1039.48L1202.14,1039.76L1202.03,1040.01L1201.84,1040.21Z" style="fill:rgb(35,31,32);fill-rule:nonzero;"/>
        </g>
        <g transform="matrix(1.0231,0,0,1.0231,0.0363036,0)">
            <path d="M1655,1040L1655.03,1040.15L1655.15,1040.31L1655.33,1040.39L1655.53,1040.38L1655.69,1040.28L1658.58,1037.33L1661.25,1034.7L1663.81,1032.3L1666.3,1030.07L1668.73,1028.02L1671.13,1026.1L1673.49,1024.34L1675.85,1022.71L1678.23,1021.19L1680.61,1019.8L1682.98,1018.54L1685.36,1017.41L1687.76,1016.4L1690.16,1015.51L1692.6,1014.74L1695.05,1014.09L1696.99,1013.66L1699.93,1013.11L1702.9,1012.7L1705.89,1012.42L1708.92,1012.27L1711.97,1012.25L1715.04,1012.36L1718.15,1012.61L1721.28,1012.98L1723.16,1013.27L1725,1013.62L1726.8,1014.03L1728.56,1014.49L1730.26,1015.01L1731.93,1015.58L1733.55,1016.2L1735.12,1016.88L1736.64,1017.61L1738.1,1018.39L1739.53,1019.23L1740.91,1020.13L1742.23,1021.07L1743.5,1022.07L1744.73,1023.12L1745.91,1024.23L1747.34,1025.71L1748.69,1027.29L1749.94,1028.93L1751.12,1030.66L1752.21,1032.47L1753.22,1034.38L1754.14,1036.35L1754.97,1038.41L1755.79,1040.69L1756.52,1043L1757.18,1045.32L1757.75,1047.66L1758.47,1051.36L1758.99,1055.12L1759.31,1058.92L1759.43,1062.77L1759.55,1117.62L1759.51,1179.1L1759.47,1179.29L1759.36,1179.46L1759.19,1179.57L1759,1179.61L1741.15,1179.62L1740.91,1179.57L1740.7,1179.43L1740.56,1179.23L1740.51,1178.99L1740.46,1070.52L1740.42,1067.12L1740.3,1063.94L1740.1,1060.98L1739.82,1058.18L1739.46,1055.54L1739.02,1053.03L1738.49,1050.68L1737.88,1048.46L1737.18,1046.34L1736.39,1044.36L1735.49,1042.47L1734.51,1040.72L1733.43,1039.07L1732.27,1037.55L1731.01,1036.14L1729.64,1034.82L1727.82,1033.36L1725.86,1032.08L1723.72,1030.94L1721.45,1029.99L1719.01,1029.19L1716.44,1028.56L1713.68,1028.09L1710.78,1027.79L1708.09,1027.67L1705.44,1027.71L1702.8,1027.91L1700.2,1028.27L1697.29,1028.86L1694.42,1029.65L1691.59,1030.65L1688.78,1031.85L1686.02,1033.25L1683.28,1034.85L1680.58,1036.65L1677.91,1038.66L1672.97,1042.7L1667.69,1047.24L1662.08,1052.28L1656.13,1057.82L1655.57,1058.45L1655.22,1059.07L1655.06,1059.53L1654.96,1060.09L1654.93,1061.73L1654.95,1062.6L1654.98,1179.08L1654.87,1179.41L1654.68,1179.57L1654.43,1179.63L1636.42,1179.64L1636.15,1179.58L1635.92,1179.43L1635.76,1179.2L1635.71,1178.93L1635.63,1015.91L1635.75,1015.63L1636.02,1015.52L1654.32,1015.51L1654.69,1015.62L1654.91,1015.86L1654.98,1016.17L1655,1040Z" style="fill:rgb(35,31,32);fill-rule:nonzero;"/>
        </g>
        <g transform="matrix(1.0231,0,0,1.0231,0.0363036,0)">
            <path d="M1952.11,1179.73L1934.2,1179.73L1934.03,1179.7L1933.88,1179.6L1933.78,1179.45L1933.75,1179.28L1933.75,1016.21L1933.8,1015.96L1933.94,1015.75L1934.15,1015.61L1934.39,1015.56L1952.23,1015.56L1952.46,1015.61L1952.66,1015.74L1952.79,1015.93L1952.84,1016.16L1952.84,1039.3L1952.89,1039.48L1953.01,1039.62L1953.19,1039.68L1953.37,1039.65L1953.5,1039.56L1958.01,1034.81L1960.1,1032.72L1962.14,1030.77L1964.13,1028.96L1966.09,1027.27L1968.02,1025.69L1969.93,1024.22L1971.86,1022.84L1973.78,1021.55L1975.74,1020.34L1977.68,1019.24L1979.66,1018.21L1981.63,1017.28L1983.63,1016.43L1985.68,1015.65L1988.81,1014.64L1992.01,1013.81L1995.32,1013.16L1998.71,1012.69L2001.31,1012.45L2003.86,1012.33L2006.38,1012.3L2008.86,1012.39L2011.28,1012.58L2013.65,1012.88L2015.97,1013.29L2018.24,1013.8L2020.43,1014.41L2022.56,1015.13L2024.63,1015.95L2026.64,1016.88L2028.58,1017.91L2030.45,1019.04L2032.23,1020.26L2033.94,1021.59L2036.06,1023.47L2038.06,1025.54L2039.91,1027.75L2041.61,1030.13L2043.16,1032.65L2044.56,1035.33L2045.8,1038.14L2046.89,1041.12L2046.97,1041.27L2047.16,1041.44L2047.42,1041.51L2047.68,1041.46L2047.89,1041.29L2049.87,1038.85L2051.97,1036.46L2054.17,1034.14L2056.48,1031.87L2058.91,1029.66L2061.45,1027.51L2064.09,1025.41L2066.85,1023.38L2069.11,1021.83L2071.41,1020.4L2073.74,1019.09L2076.09,1017.89L2078.48,1016.81L2080.9,1015.84L2083.36,1014.99L2085.84,1014.26L2089.25,1013.45L2092.73,1012.85L2096.26,1012.47L2099.85,1012.3L2103.49,1012.34L2107.2,1012.59L2110.96,1013.06L2114.78,1013.74L2117.2,1014.3L2119.53,1014.99L2121.75,1015.78L2123.87,1016.7L2125.89,1017.73L2127.82,1018.87L2129.64,1020.14L2131.36,1021.52L2132.86,1022.89L2134.27,1024.36L2135.6,1025.94L2136.85,1027.61L2138,1029.38L2139.08,1031.25L2140.07,1033.21L2140.97,1035.28L2141.9,1037.82L2142.69,1040.5L2143.33,1043.34L2143.84,1046.36L2144.22,1049.58L2144.47,1053.03L2144.6,1056.8L2144.62,1061.05L2144.62,1179.09L2144.57,1179.35L2144.42,1179.56L2144.21,1179.71L2143.95,1179.76L2125.99,1179.76L2125.81,1179.73L2125.51,1179.52L2125.4,1179.17L2125.42,1061.02L2125.31,1055.05L2125.18,1052.44L2124.99,1050.1L2124.75,1048.01L2124.46,1046.17L2124.11,1044.59L2123.71,1043.27L2122.84,1041.16L2121.81,1039.19L2120.61,1037.38L2119.25,1035.72L2118.04,1034.51L2116.73,1033.39L2115.31,1032.37L2113.79,1031.44L2112.16,1030.61L2110.43,1029.88L2108.59,1029.24L2106.65,1028.7L2105.16,1028.37L2103.68,1028.1L2102.2,1027.9L2100.71,1027.77L2098.47,1027.7L2096.23,1027.78L2093.95,1028.01L2091.68,1028.4L2089.39,1028.93L2087.1,1029.61L2084.78,1030.44L2082.46,1031.42L2079.4,1032.87L2076.43,1034.41L2073.55,1036.05L2070.75,1037.78L2068.03,1039.61L2065.4,1041.53L2062.86,1043.55L2060.41,1045.67L2057.57,1048.34L2054.86,1051.14L2052.27,1054.08L2049.81,1057.16L2049.4,1057.79L2049.1,1058.48L2048.92,1059.22L2048.86,1059.97L2048.86,1179.08L2048.75,1179.44L2048.52,1179.66L2048.2,1179.74L2030.14,1179.74L2029.91,1179.7L2029.72,1179.57L2029.59,1179.38L2029.55,1179.15L2029.59,1114.17L2029.54,1053.5L2029.44,1050.85L2029.13,1048.31L2028.63,1045.89L2027.94,1043.58L2027.06,1041.41L2025.99,1039.38L2024.73,1037.48L2023.29,1035.73L2022.08,1034.51L2020.77,1033.38L2019.37,1032.37L2017.88,1031.44L2016.29,1030.61L2014.61,1029.88L2012.86,1029.27L2011.01,1028.75L2008.91,1028.3L2006.85,1027.98L2004.78,1027.78L2002.73,1027.71L2000.28,1027.8L1997.8,1028.06L1995.33,1028.51L1992.81,1029.14L1990.25,1029.95L1987.62,1030.95L1984.9,1032.16L1982.07,1033.58L1979.84,1034.8L1977.6,1036.1L1975.39,1037.46L1973.24,1038.87L1971.13,1040.34L1969.1,1041.84L1967.11,1043.4L1965.22,1044.98L1963.4,1046.59L1961.68,1048.21L1960.03,1049.88L1958.49,1051.54L1957.03,1053.23L1955.68,1054.91L1954.42,1056.61L1953.25,1058.34L1952.94,1059.01L1952.84,1059.73L1952.84,1179L1952.78,1179.28L1952.63,1179.52L1952.39,1179.67L1952.11,1179.73Z" style="fill:rgb(35,31,32);fill-rule:nonzero;"/>
        </g>
        <g transform="matrix(1.0231,0,0,1.0231,0.0363036,0)">
            <path d="M2290.57,1179.11L2290.58,1179.16L2290.55,1179.37L2290.44,1179.56L2290.26,1179.69L2290.05,1179.73L2272.67,1179.73L2272.4,1179.68L2272.17,1179.54L2272,1179.33L2271.92,1179.07L2269.69,1160.98L2269.65,1160.83L2269.5,1160.63L2269.28,1160.52L2269.03,1160.53L2268.81,1160.64L2260.52,1166.78L2257.51,1168.89L2254.46,1170.85L2251.37,1172.66L2248.23,1174.32L2245.05,1175.84L2241.82,1177.21L2238.55,1178.43L2235.23,1179.51L2231.46,1180.53L2227.63,1181.38L2223.75,1182.03L2219.81,1182.5L2215.82,1182.79L2211.77,1182.89L2207.67,1182.8L2203.51,1182.53L2200.72,1182.18L2197.85,1181.63L2194.96,1180.89L2192.08,1179.96L2189.3,1178.87L2186.68,1177.65L2184.23,1176.31L2182,1174.86L2180.58,1173.81L2179.23,1172.73L2177.93,1171.59L2176.69,1170.41L2175.52,1169.19L2174.41,1167.93L2173.35,1166.62L2172.35,1165.27L2171.1,1163.38L2169.97,1161.42L2168.94,1159.38L2168.04,1157.28L2167.24,1155.08L2166.55,1152.84L2165.98,1150.5L2165.53,1148.13L2165.18,1145.66L2164.96,1143.16L2164.84,1140.58L2164.85,1137.97L2164.97,1135.28L2165.21,1132.56L2165.55,1129.82L2166.02,1127L2166.64,1124.18L2167.43,1121.43L2168.4,1118.79L2169.54,1116.21L2170.73,1113.93L2172.09,1111.7L2173.58,1109.57L2175.22,1107.49L2177,1105.49L2178.95,1103.55L2181.02,1101.7L2183.24,1099.91L2185.62,1098.18L2188.14,1096.53L2190.83,1094.94L2193.65,1093.42L2196.64,1091.96L2199.76,1090.58L2203.06,1089.25L2206.5,1087.99L2212.71,1085.9L2219.23,1083.88L2226.04,1081.91L2233.24,1079.98L2240.76,1078.1L2248.91,1076.18L2257.91,1074.18L2268.9,1071.83L2269.24,1071.7L2269.51,1071.46L2269.69,1071.14L2269.76,1070.78L2269.8,1062.93L2269.68,1056.26L2269.59,1054.55L2269.42,1052.85L2269.19,1051.21L2268.88,1049.6L2268.5,1048.03L2268.04,1046.49L2267.52,1045.02L2266.93,1043.59L2266.27,1042.22L2265.54,1040.9L2264.75,1039.66L2263.9,1038.47L2262.99,1037.36L2262.02,1036.3L2260.99,1035.33L2259.9,1034.41L2258.12,1033.15L2256.23,1032.06L2254.18,1031.14L2252.04,1030.4L2249.74,1029.76L2247.45,1029.2L2245.16,1028.72L2242.88,1028.33L2240.62,1028.03L2238.38,1027.81L2236.16,1027.67L2233.96,1027.62L2231.76,1027.66L2229.59,1027.78L2227.44,1027.98L2225.32,1028.27L2223.21,1028.65L2221.12,1029.1L2219.07,1029.65L2217.05,1030.27L2214.71,1031.11L2212.41,1032.07L2210.15,1033.13L2207.95,1034.31L2205.77,1035.6L2203.65,1037L2201.58,1038.51L2199.56,1040.12L2197.59,1041.84L2195.68,1043.67L2193.82,1045.59L2192.02,1047.62L2190.28,1049.76L2188.6,1051.99L2186.98,1054.31L2185.42,1056.74L2185.18,1057L2184.85,1057.15L2184.5,1057.16L2184.16,1057.04L2172.5,1049.9L2172.34,1049.76L2172.25,1049.57L2172.23,1049.35L2172.29,1049.15L2173.66,1046.68L2175.08,1044.28L2176.54,1041.98L2178.06,1039.76L2179.63,1037.62L2181.26,1035.55L2182.93,1033.59L2184.66,1031.7L2186.43,1029.91L2188.26,1028.19L2190.12,1026.58L2192.04,1025.04L2194.01,1023.59L2196.04,1022.22L2198.09,1020.95L2200.21,1019.76L2203.27,1018.24L2206.43,1016.89L2209.68,1015.72L2213.04,1014.72L2216.46,1013.9L2219.99,1013.26L2223.59,1012.8L2227.3,1012.52L2231.73,1012.36L2235.96,1012.34L2240.02,1012.47L2243.93,1012.75L2247.65,1013.17L2251.22,1013.75L2254.61,1014.46L2257.84,1015.33L2260.9,1016.34L2263.8,1017.5L2266.51,1018.81L2269.07,1020.26L2271.46,1021.86L2273.68,1023.61L2275.72,1025.5L2277.59,1027.53L2278.68,1028.88L2279.71,1030.31L2280.74,1031.9L2281.7,1033.53L2282.59,1035.23L2283.41,1036.98L2284.16,1038.79L2284.86,1040.69L2285.47,1042.62L2286.03,1044.64L2286.52,1046.71L2286.95,1048.86L2287.3,1051.06L2287.59,1053.33L2287.82,1055.66L2287.97,1058.06L2288.07,1060.55L2288.1,1063.11L2288.07,1118.74L2288.12,1151.25L2288.17,1154.8L2288.3,1158.32L2288.49,1161.83L2288.76,1165.33L2289.11,1168.8L2289.52,1172.25L2290.01,1175.69L2290.57,1179.11ZM2269,1139.3L2269,1087.56L2268.95,1087.4L2268.84,1087.28L2268.69,1087.21L2268.52,1087.21L2262.05,1088.56L2255.67,1090.03L2249.36,1091.6L2243.14,1093.28L2237.01,1095.07L2230.95,1096.96L2224.98,1098.97L2219.09,1101.08L2215.93,1102.3L2212.89,1103.59L2209.96,1104.95L2207.14,1106.38L2204.44,1107.87L2201.85,1109.43L2199.37,1111.06L2197,1112.75L2195.4,1114.01L2193.91,1115.32L2192.53,1116.68L2191.25,1118.09L2190.07,1119.55L2189,1121.07L2188.03,1122.63L2187.16,1124.25L2186.27,1126.24L2185.53,1128.29L2184.94,1130.42L2184.49,1132.62L2184.18,1134.89L2184.03,1137.23L2184.01,1139.65L2184.15,1142.14L2184.43,1144.52L2184.86,1146.8L2185.44,1148.99L2186.18,1151.08L2187.06,1153.07L2188.09,1154.94L2189.27,1156.68L2190.58,1158.31L2192.06,1159.85L2193.68,1161.25L2195.43,1162.52L2197.31,1163.65L2199.31,1164.64L2201.43,1165.49L2203.67,1166.2L2206.03,1166.76L2207.86,1167.08L2209.77,1167.31L2211.71,1167.44L2213.72,1167.47L2215.77,1167.41L2217.88,1167.25L2220.01,1167L2222.2,1166.65L2224.44,1166.2L2226.72,1165.66L2229.01,1165.03L2231.32,1164.3L2233.63,1163.49L2235.95,1162.6L2238.27,1161.62L2240.57,1160.56L2244.42,1158.62L2248.16,1156.53L2251.8,1154.29L2255.33,1151.9L2258.75,1149.37L2262.05,1146.69L2265.25,1143.86L2268.35,1140.89L2268.63,1140.55L2268.83,1140.16L2268.96,1139.74L2269,1139.3Z" style="fill:rgb(35,31,32);fill-rule:nonzero;"/>
        </g>
        <g transform="matrix(1.0231,0,0,1.0231,0.0363036,0)">
            <path d="M1062.41,1152.84L1062.38,1152.68L1062.26,1152.52L1062.08,1152.44L1061.88,1152.46L1061.71,1152.56L1058.82,1155.51L1056.14,1158.13L1053.59,1160.54L1051.09,1162.77L1048.66,1164.83L1046.25,1166.74L1043.89,1168.5L1041.53,1170.13L1039.15,1171.65L1036.76,1173.04L1034.39,1174.3L1032.01,1175.43L1029.61,1176.44L1027.21,1177.33L1024.76,1178.1L1022.31,1178.75L1020.37,1179.18L1017.42,1179.72L1014.45,1180.14L1011.45,1180.42L1008.43,1180.56L1005.37,1180.58L1002.29,1180.47L999.18,1180.23L996.05,1179.85L994.17,1179.55L992.33,1179.2L990.53,1178.8L988.76,1178.33L987.06,1177.82L985.4,1177.25L983.77,1176.62L982.2,1175.94L980.68,1175.21L979.21,1174.42L977.79,1173.58L976.41,1172.68L975.09,1171.74L973.81,1170.74L972.58,1169.69L971.4,1168.58L969.97,1167.09L968.62,1165.52L967.37,1163.88L966.19,1162.14L965.1,1160.32L964.09,1158.41L963.17,1156.44L962.34,1154.38L961.52,1152.09L960.79,1149.79L960.14,1147.47L959.57,1145.12L958.84,1141.41L958.32,1137.65L958,1133.85L957.89,1130L957.8,1075.1L957.87,1013.56L957.91,1013.36L958.02,1013.2L958.18,1013.09L958.38,1013.05L976.24,1013.05L976.48,1013.1L976.69,1013.23L976.83,1013.44L976.88,1013.68L976.88,1122.25L976.92,1125.65L977.04,1128.83L977.24,1131.8L977.51,1134.6L977.87,1137.24L978.32,1139.75L978.84,1142.1L979.45,1144.33L980.16,1146.45L980.95,1148.43L981.84,1150.32L982.82,1152.08L983.9,1153.73L985.06,1155.25L986.32,1156.66L987.7,1157.98L989.52,1159.45L991.48,1160.73L993.61,1161.87L995.88,1162.83L998.33,1163.63L1000.9,1164.26L1003.67,1164.73L1006.57,1165.03L1009.26,1165.15L1011.92,1165.11L1014.55,1164.91L1017.16,1164.56L1020.07,1163.97L1022.94,1163.17L1025.78,1162.18L1028.59,1160.98L1031.36,1159.58L1034.1,1157.98L1036.8,1156.18L1039.47,1154.17L1044.42,1150.13L1049.7,1145.59L1055.32,1140.54L1061.28,1135L1061.84,1134.37L1062.2,1133.75L1062.36,1133.28L1062.45,1132.73L1062.48,1131.09L1062.47,1130.22L1062.49,1013.63L1062.53,1013.42L1062.65,1013.24L1062.83,1013.12L1063.04,1013.08L1081.07,1013.08L1081.34,1013.13L1081.57,1013.29L1081.73,1013.52L1081.78,1013.79L1081.78,1176.96L1081.67,1177.24L1081.39,1177.35L1063.07,1177.35L1062.82,1177.3L1062.6,1177.16L1062.46,1176.94L1062.41,1176.69L1062.41,1152.84Z" style="fill:rgb(35,31,32);fill-rule:nonzero;"/>
        </g>
        <g transform="matrix(1.0231,0,0,1.0231,0.0363036,0)">
            <path d="M1431.96,1099.84L1318.96,1099.84L1318.74,1099.88L1318.55,1100.01L1318.42,1100.2L1318.37,1100.42L1318.38,1105.16L1318.61,1109.81L1319.04,1114.39L1319.69,1118.88L1320.54,1123.3L1321.6,1127.63L1322.88,1131.88L1324.36,1136.06L1325.26,1138.31L1326.22,1140.53L1327.7,1143.57L1329.32,1146.44L1331.09,1149.17L1333,1151.73L1335.08,1154.15L1337.28,1156.38L1339.62,1158.46L1342.08,1160.35L1344.08,1161.7L1346.14,1162.93L1348.3,1164.07L1350.51,1165.09L1352.79,1166L1355.13,1166.79L1357.51,1167.47L1359.95,1168.03L1362.46,1168.48L1365.01,1168.81L1367.61,1169.02L1370.24,1169.12L1372.9,1169.1L1375.6,1168.95L1378.33,1168.7L1381.08,1168.32L1382.92,1167.98L1384.71,1167.55L1386.99,1166.86L1389.24,1166.01L1391.43,1165.01L1393.6,1163.85L1395.72,1162.54L1397.81,1161.06L1399.88,1159.42L1401.93,1157.62L1403.93,1155.67L1405.91,1153.56L1407.89,1151.26L1409.87,1148.79L1411.84,1146.14L1413.88,1143.23L1416,1140.02L1418.29,1136.39L1418.4,1136.27L1418.55,1136.2L1418.87,1136.23L1433.65,1143.61L1433.92,1143.82L1434.09,1144.12L1434.12,1144.46L1434.02,1144.79L1434.01,1144.81L1432.06,1148.04L1430.11,1151.1L1428.15,1153.98L1426.17,1156.72L1424.16,1159.31L1422.13,1161.76L1420.07,1164.07L1417.98,1166.23L1415.84,1168.27L1413.68,1170.18L1411.45,1171.97L1409.19,1173.63L1406.87,1175.17L1404.53,1176.57L1402.13,1177.86L1399.65,1179.03L1397.76,1179.84L1395.81,1180.58L1393.85,1181.25L1391.85,1181.85L1389.82,1182.38L1387.75,1182.84L1385.67,1183.23L1383.53,1183.56L1379.21,1184.07L1374.95,1184.4L1370.78,1184.56L1366.67,1184.54L1362.67,1184.34L1358.75,1183.97L1354.95,1183.42L1351.22,1182.7L1347.63,1181.81L1344.12,1180.74L1340.74,1179.5L1337.46,1178.08L1334.33,1176.51L1331.31,1174.76L1328.42,1172.85L1325.64,1170.77L1323.97,1169.38L1322.35,1167.93L1320.79,1166.42L1319.28,1164.85L1317.82,1163.21L1316.4,1161.5L1315.05,1159.74L1313.75,1157.92L1312.51,1156.03L1311.32,1154.08L1310.19,1152.09L1309.11,1150.03L1308.08,1147.9L1307.11,1145.71L1306.2,1143.47L1305.34,1141.17L1304.49,1138.67L1303.7,1136.09L1302.98,1133.49L1302.31,1130.8L1301.71,1128.06L1301.17,1125.25L1300.7,1122.41L1300.28,1119.49L1299.93,1116.52L1299.64,1113.47L1299.41,1110.35L1299.24,1107.17L1299.14,1103.92L1299.09,1100.61L1299.18,1093.74L1299.31,1090.74L1299.5,1087.75L1299.77,1084.78L1300.11,1081.83L1300.52,1078.92L1301.01,1076.03L1301.55,1073.21L1302.17,1070.41L1302.85,1067.67L1303.61,1064.96L1304.42,1062.32L1305.31,1059.73L1306.25,1057.18L1307.27,1054.69L1308.35,1052.27L1309.49,1049.9L1310.68,1047.61L1311.94,1045.38L1313.25,1043.22L1314.62,1041.13L1316.04,1039.12L1317.53,1037.17L1319.06,1035.3L1320.65,1033.5L1322.29,1031.78L1324,1030.12L1325.74,1028.55L1327.54,1027.05L1329.38,1025.64L1331.28,1024.3L1333.21,1023.05L1335.2,1021.87L1337.27,1020.75L1339.4,1019.72L1341.56,1018.77L1343.77,1017.91L1346.02,1017.13L1348.32,1016.44L1350.64,1015.84L1353.03,1015.32L1355.44,1014.89L1357.92,1014.54L1360.41,1014.28L1362.96,1014.11L1365.53,1014.02L1368.15,1014.02L1370.8,1014.11L1373.49,1014.28L1377.26,1014.68L1380.94,1015.28L1384.48,1016.07L1387.92,1017.05L1391.24,1018.23L1394.47,1019.6L1397.55,1021.15L1400.53,1022.9L1402.44,1024.16L1404.29,1025.5L1406.09,1026.93L1407.82,1028.42L1409.52,1030.02L1411.15,1031.68L1412.73,1033.43L1414.24,1035.25L1415.72,1037.17L1417.12,1039.14L1418.47,1041.21L1419.76,1043.33L1421,1045.55L1422.17,1047.83L1423.29,1050.19L1424.33,1052.6L1425.33,1055.13L1426.26,1057.7L1427.14,1060.36L1427.93,1063.05L1428.67,1065.82L1429.35,1068.67L1429.95,1071.54L1430.49,1074.49L1430.96,1077.48L1431.37,1080.54L1431.7,1083.61L1431.97,1086.74L1432.16,1089.89L1432.28,1093.09L1432.33,1096.27L1432.31,1099.49L1432.21,1099.74L1431.96,1099.84ZM1318.94,1084.35L1412.4,1084.51L1412.58,1084.44L1412.65,1084.26L1412.65,1083.93L1412.6,1081.25L1412.44,1078.57L1412.16,1075.9L1411.77,1073.26L1411.27,1070.63L1410.66,1068.04L1409.95,1065.49L1409.12,1062.99L1408.19,1060.53L1407.16,1058.13L1406.03,1055.79L1404.81,1053.52L1403.49,1051.32L1402.07,1049.2L1400.58,1047.16L1398.99,1045.22L1397.33,1043.36L1395.59,1041.6L1393.78,1039.95L1391.9,1038.4L1389.96,1036.96L1387.96,1035.63L1385.91,1034.42L1383.81,1033.33L1381.66,1032.36L1379.48,1031.51L1377.26,1030.79L1375.02,1030.2L1372.75,1029.73L1370.47,1029.4L1368.18,1029.2L1365.88,1029.13L1365.66,1029.13L1363.36,1029.19L1361.06,1029.39L1358.78,1029.71L1356.51,1030.17L1354.27,1030.75L1352.05,1031.46L1349.86,1032.3L1347.71,1033.26L1345.61,1034.35L1343.55,1035.55L1341.55,1036.87L1339.6,1038.31L1337.72,1039.85L1335.9,1041.5L1334.16,1043.25L1332.49,1045.1L1330.9,1047.04L1329.39,1049.07L1327.97,1051.19L1326.64,1053.38L1325.41,1055.65L1324.27,1057.98L1323.23,1060.38L1322.3,1062.83L1321.46,1065.34L1320.74,1067.89L1320.12,1070.47L1319.61,1073.09L1319.21,1075.74L1318.93,1078.4L1318.75,1081.08L1318.69,1083.77L1318.69,1084.1L1318.77,1084.27L1318.94,1084.35Z" style="fill:rgb(35,31,32);fill-rule:nonzero;"/>
        </g>
        <g transform="matrix(1.0231,0,0,1.0231,0.0363036,0)">
            <path d="M1610.74,1179.21C1610.74,1179.5 1610.5,1179.74 1610.21,1179.74L1592.21,1179.74C1591.92,1179.74 1591.68,1179.5 1591.68,1179.21L1591.68,1016.13C1591.68,1015.84 1591.92,1015.6 1592.21,1015.6L1610.21,1015.6C1610.5,1015.6 1610.74,1015.84 1610.74,1016.13L1610.74,1179.21Z" style="fill:rgb(35,31,32);fill-rule:nonzero;"/>
        </g>
        <g transform="matrix(1.0231,0,0,1.0231,0.0363036,0)">
            <path d="M1889.3,1155.15L1889.26,1155L1889.14,1154.84L1888.96,1154.76L1888.77,1154.77L1888.6,1154.87L1885.71,1157.82L1883.04,1160.45L1880.48,1162.85L1877.99,1165.08L1875.56,1167.14L1873.16,1169.05L1870.8,1170.81L1868.44,1172.44L1866.06,1173.96L1863.68,1175.35L1861.3,1176.61L1858.93,1177.74L1856.53,1178.75L1854.13,1179.64L1851.69,1180.41L1849.24,1181.06L1847.3,1181.5L1844.36,1182.04L1841.39,1182.45L1838.39,1182.73L1835.37,1182.88L1832.32,1182.9L1829.24,1182.79L1826.13,1182.55L1823,1182.17L1821.12,1181.88L1819.28,1181.53L1817.48,1181.12L1815.72,1180.66L1814.02,1180.15L1812.35,1179.58L1810.73,1178.95L1809.16,1178.27L1807.64,1177.54L1806.17,1176.76L1804.75,1175.92L1803.37,1175.02L1802.05,1174.08L1800.77,1173.08L1799.55,1172.03L1798.36,1170.92L1796.94,1169.44L1795.59,1167.86L1794.33,1166.22L1793.16,1164.49L1792.07,1162.68L1791.05,1160.77L1790.14,1158.8L1789.3,1156.74L1788.49,1154.45L1787.75,1152.15L1787.1,1149.83L1786.53,1147.49L1785.81,1143.78L1785.28,1140.03L1784.96,1136.23L1784.85,1132.38L1784.73,1077.52L1784.77,1016.03L1784.82,1015.81L1785.01,1015.6L1785.28,1015.52L1803.13,1015.51L1803.37,1015.56L1803.58,1015.69L1803.72,1015.9L1803.77,1016.14L1803.82,1124.63L1803.86,1128.02L1803.98,1131.2L1804.18,1134.16L1804.46,1136.97L1804.82,1139.61L1805.26,1142.11L1805.79,1144.46L1806.4,1146.69L1807.1,1148.8L1807.89,1150.79L1808.79,1152.68L1809.77,1154.43L1810.85,1156.08L1812.01,1157.6L1813.27,1159.01L1814.64,1160.33L1816.47,1161.79L1818.42,1163.07L1820.56,1164.21L1822.83,1165.16L1825.27,1165.96L1827.84,1166.59L1830.61,1167.06L1833.51,1167.36L1836.19,1167.48L1838.85,1167.44L1841.48,1167.24L1844.09,1166.88L1846.99,1166.29L1849.86,1165.5L1852.7,1164.5L1855.5,1163.3L1858.27,1161.9L1861.01,1160.3L1863.71,1158.5L1866.38,1156.49L1871.32,1152.45L1876.6,1147.91L1882.21,1142.87L1888.16,1137.33L1888.72,1136.7L1889.08,1136.08L1889.23,1135.61L1889.33,1135.06L1889.36,1133.42L1889.35,1132.55L1889.31,1016.05L1889.35,1015.84L1889.47,1015.66L1889.65,1015.54L1889.86,1015.5L1907.88,1015.49L1908.15,1015.55L1908.38,1015.7L1908.53,1015.93L1908.59,1016.2L1908.66,1179.25L1908.55,1179.52L1908.27,1179.64L1889.97,1179.64L1889.72,1179.59L1889.5,1179.45L1889.36,1179.24L1889.31,1178.98L1889.3,1155.15Z" style="fill:rgb(35,31,32);fill-rule:nonzero;"/>
        </g>
        <g transform="matrix(1.0231,0,0,1.0231,0.0363036,0)">
            <path d="M123.02,923.1L122.92,923.06L122.86,922.88L123,922.74L125.47,922.1L129.82,920.8L134.12,919.28L138.37,917.53L142.56,915.57L146.67,913.4L150.71,911.01L154.7,908.4L158.62,905.58L162.47,902.55L166.24,899.31L169.95,895.84L173.57,892.18L177.12,888.31L180.58,884.24L183.97,879.96L187.27,875.5L190.44,870.94L193.51,866.26L196.48,861.49L199.35,856.62L202.12,851.64L204.8,846.55L207.38,841.35L209.87,836.03L212.26,830.6L214.56,825.07L216.77,819.4L218.89,813.62L220.91,807.72L222.85,801.7L224.7,795.53L226.46,789.25L228.27,782.27L229.94,775.23L231.48,768.13L232.87,760.98L234.13,753.76L235.25,746.49L236.23,739.16L237.07,731.77L237.78,724.31L238.34,716.8L238.77,709.24L239.06,701.61L239.21,693.92L239.22,686.18L239.09,678.37L238.83,670.51L238.34,661.52L237.63,652.59L236.71,643.77L235.57,635.03L234.22,626.42L232.66,617.93L230.89,609.59L228.91,601.38L226.73,593.36L225.57,589.41L224.35,585.48L223.08,581.63L221.77,577.79L220.4,574.02L218.98,570.27L217.52,566.59L216.01,562.94L214.45,559.35L212.83,555.78L211.18,552.3L209.47,548.84L207.72,545.44L205.92,542.08L203.52,537.83L201.02,533.69L198.44,529.68L195.78,525.81L193.05,522.07L190.23,518.48L187.36,515.04L184.43,511.76L181.43,508.64L178.37,505.67L175.27,502.88L172.11,500.26L168.91,497.8L165.65,495.51L162.33,493.37L158.98,491.42L155.44,489.57L151.85,487.92L148.26,486.49L144.62,485.26L140.96,484.23L137.26,483.41L133.57,482.81L129.84,482.41L127.53,482.27L125.23,482.21L122.91,482.23L120.6,482.32L118.27,482.5L115.95,482.76L113.61,483.1L111.28,483.51L108.95,484.01L106.64,484.58L104.31,485.23L101.99,485.96L99.67,486.77L97.36,487.66L95.04,488.63L92.75,489.67L90.45,490.79L88.17,491.98L85.9,493.25L83.64,494.6L81.39,496.02L79.17,497.51L76.94,499.08L74.75,500.71L72.58,502.42L70.43,504.19L68.3,506.04L66.2,507.94L64.14,509.9L62.11,511.92L60.1,514.01L58.13,516.15L54.89,519.86L51.72,523.7L48.64,527.65L45.63,531.74L42.7,535.94L39.84,540.27L37.06,544.73L34.35,549.32L31.74,554.01L29.2,558.82L26.74,563.76L24.36,568.8L22.08,573.95L19.88,579.19L17.77,584.56L15.75,590.01L13.26,597.2L10.93,604.4L8.77,611.61L6.79,618.84L4.96,626.07L3.31,633.32L1.83,640.57L0.51,647.84L0.51,647.85L0.46,647.91L0.38,647.91L-0.07,647.74L-0.11,647.67L0.77,637.85L1.83,628.14L3.08,618.53L4.51,609.03L6.13,599.63L7.94,590.34L9.93,581.16L12.1,572.08L13.34,567.25L14.64,562.48L15.98,557.76L17.36,553.1L18.8,548.49L20.28,543.94L21.82,539.42L23.4,534.97L25.02,530.59L26.68,526.28L28.4,522L30.16,517.79L31.97,513.65L33.81,509.58L35.72,505.55L37.65,501.6L39.64,497.71L41.65,493.9L43.73,490.13L45.83,486.45L47.99,482.82L50.18,479.28L52.41,475.8L54.7,472.36L57.01,469.02L59.38,465.72L61.77,462.51L64.23,459.34L66.71,456.27L69.24,453.25L71.8,450.32L74.42,447.43L76.63,445.09L78.89,442.8L81.18,440.58L83.51,438.42L85.85,436.35L88.23,434.33L90.63,432.4L93.07,430.53L95.51,428.74L98,427.01L100.49,425.38L103.01,423.81L105.52,422.33L108.07,420.93L110.62,419.61L113.19,418.37L115.75,417.21L118.34,416.14L120.92,415.15L123.53,414.24L126.11,413.42L128.72,412.68L131.32,412.03L133.93,411.46L136.53,410.98L139.15,410.58L141.76,410.27L144.38,410.04L146.97,409.9L149.58,409.84L152.17,409.87L154.77,409.98L157.98,410.24L161.2,410.63L164.4,411.16L167.61,411.82L170.77,412.6L173.95,413.52L177.09,414.57L180.24,415.76L182.41,416.66L184.56,417.62L186.71,418.64L188.83,419.72L190.97,420.88L193.07,422.09L197.26,424.7L201.39,427.55L205.46,430.64L209.48,433.98L213.42,437.54L217.3,441.35L221.09,445.38L224.81,449.63L228.41,454.07L231.92,458.72L235.29,463.53L238.55,468.52L241.65,473.64L244.5,478.65L247.26,483.77L249.91,488.94L252.45,494.21L254.9,499.56L257.25,505.02L259.49,510.54L261.63,516.17L263.68,521.87L265.62,527.69L267.48,533.6L269.23,539.63L270.89,545.73L272.45,551.95L273.92,558.28L275.3,564.72L276.45,570.57L277.52,576.45L278.5,582.37L279.39,588.33L280.21,594.33L280.93,600.37L281.58,606.44L282.14,612.55L282.61,618.7L283,624.89L283.31,631.11L283.53,637.38L283.67,643.68L283.72,650.02L283.69,656.4L283.57,662.81L283.27,671.75L282.8,680.64L282.16,689.51L281.36,698.31L280.39,707.06L279.26,715.73L277.96,724.36L276.5,732.9L274.88,741.37L273.1,749.73L271.15,758.04L269.05,766.24L266.78,774.35L264.37,782.34L261.79,790.26L259.06,798.05L256.89,803.86L254.65,809.55L252.34,815.12L249.96,820.58L247.5,825.94L244.96,831.18L242.35,836.3L239.67,841.31L236.91,846.22L234.07,851.02L231.16,855.7L228.18,860.26L225.12,864.72L221.99,869.07L218.76,873.32L215.47,877.46L213.37,879.99L211.21,882.48L209.04,884.89L206.83,887.26L204.61,889.53L202.35,891.76L200.08,893.9L197.77,895.99L195.47,897.99L193.12,899.93L190.76,901.79L188.37,903.59L185.99,905.3L183.57,906.95L181.15,908.51L178.7,910.01L176.26,911.41L173.79,912.75L171.32,914L168.82,915.19L166.33,916.29L163.81,917.31L161.3,918.26L158.76,919.13L156.23,919.92L153.67,920.63L151.11,921.27L148.53,921.83L145.97,922.3L143.38,922.7L140.8,923.02L138.2,923.26L134.41,923.47L130.64,923.51L126.82,923.39L123.02,923.1Z" style="fill:rgb(242,218,0);fill-rule:nonzero;"/>
        </g>
    </g>
</svg>
