<?xml version="1.0" encoding="UTF-8" standalone="no"?>
<!DOCTYPE svg PUBLIC "-//W3C//DTD SVG 1.1//EN" "http://www.w3.org/Graphics/SVG/1.1/DTD/svg11.dtd">
<svg width="100%" height="100%" viewBox="0 0 540 255" version="1.1" xmlns="http://www.w3.org/2000/svg" xmlns:xlink="http://www.w3.org/1999/xlink" xml:space="preserve" xmlns:serif="http://www.serif.com/" style="fill-rule:evenodd;clip-rule:evenodd;stroke-linejoin:round;stroke-miterlimit:2;">
    <g transform="matrix(1,0,0,1,-30.06,-172.1)">
        <path d="M53.92,247.12L53.91,247.17L53.92,247.34L54,247.49L54.14,247.58L54.3,247.62L101.63,247.62L101.78,247.63L102.23,247.79L102.57,248.13L102.74,248.57L102.71,249.05L100.89,255.6L100.64,256.13L100.24,256.55L99.73,256.83L99.15,256.92L52.25,256.92L52,256.96L51.79,257.08L51.62,257.27L51.52,257.5L50.76,260.59L48.35,270.62L47.48,274.65L46.75,278.36L46.15,281.93L45.68,285.23L45.34,288.33L45.13,291.24L45.18,292.12L45.43,292.93L45.79,293.53L46.3,294.08L46.93,294.54L47.71,294.94L48.63,295.28L49.65,295.52L50.8,295.69L52,295.76L97.57,295.79L97.72,295.8L98,295.86L98.27,295.98L98.51,296.15L98.7,296.37L98.84,296.62L98.93,296.9L98.96,297.19L98.93,297.48L97.6,303.59L97.35,304.22L96.9,304.73L96.31,305.06L95.64,305.18L71.99,305.31L48.51,305.36L45.83,305.29L43.43,305.09L41.31,304.76L39.41,304.28L37.74,303.65L36.28,302.88L35.63,302.44L35.01,301.94L34.47,301.43L33.97,300.86L33.26,299.86L32.67,298.74L32.22,297.51L31.89,296.16L31.69,294.71L31.63,293.12L31.68,291.43L31.87,289.6L32.8,283.5L34.02,276.93L35.54,269.88L37.37,262.37L41.02,248.28L44.91,233.79L49.03,218.88L53.39,203.56L53.51,203.32L53.69,203.13L53.93,203L54.2,202.96L116.01,202.96L116.31,202.99L116.59,203.09L116.85,203.24L117.07,203.44L117.25,203.69L117.36,203.97L117.42,204.26L117.41,204.56L117.37,204.75L115.76,210.54L115.62,210.91L115.43,211.25L115.18,211.56L114.89,211.82L114.56,212.04L114.2,212.19L113.81,212.29L113.42,212.32L64.13,212.32L63.91,212.36L63.71,212.46L63.55,212.63L63.46,212.83L53.92,247.12Z" style="fill:rgb(139,0,90);fill-rule:nonzero;"/>
        <path d="M146.12,298.39L144.9,304.01L144.7,304.52L144.34,304.94L143.87,305.21L143.33,305.32L139.36,305.39L135.6,305.38L132.04,305.29L128.69,305.11L127.26,304.97L125.94,304.74L124.71,304.42L123.59,304.03L122.55,303.54L121.62,302.97L120.78,302.31L120.05,301.58L119.58,301L119.17,300.38L118.8,299.7L118.49,298.99L118.01,297.45L117.72,295.72L117.63,293.82L117.73,291.75L118.03,289.47L118.52,287.02L137.54,204.05L137.71,203.63L138.02,203.29L138.41,203.08L138.86,203L148.85,203L149.28,203.09L149.64,203.35L149.86,203.73L149.9,204.17L149.88,204.29L130.75,288L130.44,289.51L130.25,290.71L130.15,291.79L130.16,292.76L130.27,293.63L130.48,294.39L130.81,295.07L131.22,295.63L131.85,296.17L132.58,296.56L133.49,296.85L134.52,297L136.22,297.09L138.54,297.13L145.02,297.05L145.15,297.05L145.59,297.2L145.93,297.5L146.12,297.93L146.12,298.39Z" style="fill:rgb(139,0,90);fill-rule:nonzero;"/>
        <path d="M195.49,208.08L195.52,208.08L195.67,208.18L195.7,208.36L193.33,217.07L193.2,217.27L192.97,217.34L184.04,217.39L183.78,217.37L183.38,217.28L183.01,217.1L182.69,216.85L182.43,216.53L182.24,216.17L182.13,215.78L182.11,215.37L182.18,214.97L183.64,209.59L183.91,209.01L184.35,208.54L184.92,208.24L185.55,208.13L195.49,208.08Z" style="fill:rgb(139,0,90);fill-rule:nonzero;"/>
        <path d="M396.42,208.09L406.3,208.09L406.45,208.19L406.48,208.37L404.08,216.99L403.95,217.18L403.73,217.26L394.87,217.26L394.61,217.24L394.22,217.15L393.86,216.97L393.54,216.72L393.28,216.4L393.1,216.04L392.99,215.65L392.97,215.25L393.04,214.85L394.52,209.53L394.79,208.95L395.23,208.49L395.79,208.19L396.42,208.09Z" style="fill:rgb(139,0,90);fill-rule:nonzero;"/>
        <path d="M476.63,232.06L474.83,237.11L474.65,237.49L474.4,237.83L474.09,238.12L473.74,238.34L473.34,238.49L472.93,238.57L472.5,238.56L472.09,238.48L469.71,237.8L467.34,237.19L464.96,236.68L462.57,236.24L460.19,235.89L457.8,235.61L455.41,235.42L453.02,235.32L449.26,235.32L445.49,235.52L443.79,235.71L442.18,236L440.68,236.4L439.28,236.89L437.97,237.48L436.77,238.18L435.66,238.97L434.66,239.87L433.72,240.91L432.88,242.06L432.16,243.32L431.54,244.69L431.03,246.17L430.63,247.75L430.34,249.45L430.16,251.26L430.16,252.12L430.29,252.93L430.61,253.88L431.12,254.8L431.79,255.64L432.65,256.43L433.66,257.14L434.82,257.78L436.11,258.32L437.49,258.75L455.56,263.45L457.39,264L459.31,264.71L461.33,265.57L463.44,266.58L464.8,267.36L466.05,268.26L467.12,269.25L468.06,270.37L468.68,271.29L469.2,272.24L469.64,273.27L470,274.33L470.28,275.48L470.48,276.66L470.59,277.88L470.61,279.18L470.56,280.53L470.41,281.94L470.19,283.36L469.88,284.83L469.48,286.32L469.01,287.85L468.46,289.35L467.84,290.86L467.2,292.21L466.5,293.49L465.71,294.72L464.86,295.88L463.96,296.96L463.01,297.97L461.98,298.93L460.89,299.83L459.72,300.69L458.5,301.49L457.2,302.24L455.85,302.92L454.42,303.56L452.94,304.13L451.39,304.66L449.79,305.11L448.11,305.52L446.39,305.87L444.62,306.16L442.77,306.4L440.83,306.58L438.82,306.69L436.78,306.75L434.68,306.75L430.34,306.55L425.9,306.12L421.33,305.43L416.74,304.52L412.26,303.39L410.14,302.76L408.09,302.1L408.08,302.09L407.74,301.94L407.44,301.72L407.19,301.45L407,301.14L406.88,300.79L406.82,300.43L406.84,300.06L406.93,299.7L408.73,294.65L408.91,294.28L409.15,293.94L409.46,293.66L409.81,293.45L410.2,293.31L410.61,293.25L411.02,293.26L411.42,293.36L415.1,294.56L418.75,295.56L422.36,296.38L425.95,297.01L429.49,297.45L433.01,297.71L436.49,297.77L439.94,297.65L442.29,297.43L444.48,297.06L446.51,296.56L448.36,295.93L450.08,295.16L451.62,294.25L453.04,293.19L454.29,292L454.95,291.24L455.56,290.43L456.11,289.58L456.61,288.68L457.07,287.73L457.48,286.71L457.83,285.67L458.13,284.57L458.4,283.32L458.58,282.15L458.68,281.07L458.68,280.07L458.59,279.13L458.41,278.26L458.14,277.46L457.78,276.72L457.26,275.95L456.63,275.25L455.87,274.59L454.99,273.99L453.99,273.44L452.8,272.91L451.44,272.4L449.87,271.9L432.72,267.29L430.14,266.48L428.92,266L427.72,265.47L426.61,264.91L425.53,264.29L424.53,263.64L423.58,262.94L422.73,262.23L421.93,261.47L421.21,260.69L420.55,259.86L419.98,259.02L419.47,258.15L419.05,257.25L418.69,256.32L418.33,255.02L418.11,253.65L418.03,252.25L418.1,250.78L418.42,248.23L418.87,245.84L419.46,243.6L420.19,241.52L421.06,239.56L422.07,237.76L423.23,236.09L424.52,234.57L425.47,233.62L426.49,232.73L427.58,231.9L428.74,231.13L429.97,230.42L431.25,229.77L432.63,229.17L434.06,228.64L435.58,228.16L437.16,227.74L438.83,227.37L440.56,227.06L442.41,226.79L444.32,226.59L448.42,226.33L451.92,226.27L455.38,226.35L458.8,226.56L462.18,226.91L465.51,227.39L468.81,228.01L472.07,228.76L475.29,229.65L475.43,229.69L475.48,229.7L475.81,229.85L476.11,230.06L476.36,230.33L476.55,230.64L476.68,230.98L476.73,231.34L476.72,231.71L476.63,232.06Z" style="fill:rgb(139,0,90);fill-rule:nonzero;"/>
        <path d="M253.89,298.4L253.89,298.3L253.74,298.16L253.55,298.22L252.32,299.41L251.03,300.5L249.69,301.51L248.29,302.42L247.05,303.13L245.77,303.77L244.45,304.34L243.08,304.85L241.68,305.29L240.24,305.67L238.75,305.98L237.23,306.22L233.59,306.61L229.99,306.81L226.49,306.82L223.12,306.62L220,306.24L217.08,305.67L215.73,305.32L214.42,304.91L213.18,304.47L211.99,303.97L210.93,303.46L209.93,302.91L208.98,302.32L208.09,301.68L207.26,301.01L206.49,300.3L205.76,299.54L205.09,298.75L204.44,297.85L203.86,296.92L203.33,295.93L202.86,294.9L202.45,293.8L202.1,292.67L201.81,291.48L201.58,290.25L201.41,288.97L201.29,287.61L201.24,284.76L201.41,281.68L201.82,278.27L202.42,274.66L203.31,269.95L205.96,257.21L206.51,254.79L207.1,252.51L207.71,250.38L208.35,248.37L209.04,246.48L209.77,244.68L210.54,242.99L211.36,241.4L212.23,239.88L213.15,238.46L214.13,237.1L215.16,235.85L216.23,234.69L217.37,233.59L218.55,232.59L219.82,231.66L221.23,230.75L222.73,229.93L224.29,229.21L225.94,228.58L227.88,227.99L229.98,227.49L232.26,227.09L234.68,226.79L237.29,226.58L240.05,226.46L243.05,226.44L246.37,226.5L249.59,226.7L252.56,227.1L253.98,227.38L255.32,227.71L256.64,228.1L257.87,228.53L259.04,229L260.18,229.54L261.25,230.12L262.27,230.77L263.22,231.44L264.12,232.18L264.96,232.97L265.76,233.81L266.86,235.21L267.82,236.72L267.87,236.77L268.05,236.82L268.2,236.69L270.93,229.69L271.25,229.01L271.61,228.51L272,228.17L272.42,227.99L272.72,227.97L276.14,227.97L278.74,227.96L280.6,228.04L280.68,228.05L281.12,228.21L281.46,228.54L281.65,228.98L281.64,229.45L258.1,337.79L257.91,338.27L257.57,338.66L257.12,338.91L256.61,339L246.32,339L245.91,338.91L245.57,338.67L245.36,338.3L245.32,337.89L245.34,337.78L253.89,298.4ZM236.45,235.72L234.27,236.18L232.21,236.85L230.32,237.71L229.41,238.21L228.54,238.77L227.05,239.89L225.65,241.2L224.39,242.64L223.22,244.26L222.17,246.03L221.23,247.98L220.38,250.1L219.64,252.39L218.56,256.41L217.38,261.35L216.11,267.21L214.73,273.99L214.04,277.85L213.64,281.07L213.54,282.55L213.5,283.95L213.52,285.26L213.61,286.49L213.76,287.68L213.98,288.78L214.26,289.82L214.62,290.82L215.04,291.72L215.53,292.58L216.08,293.36L216.71,294.08L217.32,294.66L217.99,295.2L218.71,295.67L219.49,296.1L220.33,296.48L221.23,296.81L222.17,297.08L223.18,297.3L224.66,297.54L226.17,297.72L227.72,297.84L229.3,297.9L230.9,297.89L232.54,297.81L235.92,297.48L238.11,297.12L240.2,296.65L242.17,296.07L244.05,295.38L245.8,294.58L247.45,293.65L248.99,292.62L250.44,291.47L251.9,290.08L253.26,288.54L254.48,286.86L255.6,285.03L256.04,284.17L256.47,283.17L257.35,280.74L258.22,277.73L259.1,274.13L263.26,256.01L263.73,253.73L264.05,251.65L264.21,249.76L264.21,248.06L264.05,246.49L263.72,244.99L263.23,243.63L262.56,242.33L261.83,241.26L260.95,240.26L259.95,239.36L258.81,238.52L257.54,237.79L256.13,237.13L254.62,236.57L252.99,236.09L251.2,235.7L249.31,235.41L247.29,235.21L245.21,235.11L243.02,235.11L240.81,235.22L238.58,235.42L236.45,235.72Z" style="fill:rgb(139,0,90);fill-rule:nonzero;"/>
        <path d="M311.74,227.57L312.12,227.66L312.43,227.9L312.62,228.25L312.65,228.64L312.63,228.73L300.65,279.87L300.2,282.1L299.93,284.14L299.83,286.02L299.89,287.71L300.13,289.28L300.53,290.67L301.11,291.92L301.84,293L302.39,293.6L302.99,294.15L303.67,294.65L304.4,295.09L305.23,295.5L306.11,295.85L307.09,296.16L308.12,296.41L310.4,296.8L313.06,297.03L316.19,297.13L320.53,297.12L323.17,297.01L325.64,296.73L327.99,296.29L330.15,295.69L332.17,294.91L334.01,293.98L335.71,292.89L337.28,291.61L338.33,290.56L339.31,289.41L340.2,288.18L341.01,286.84L341.72,285.42L342.36,283.9L342.91,282.3L343.38,280.6L348,261.24L355.51,229.26L355.62,228.92L355.79,228.6L356.01,228.31L356.27,228.07L356.57,227.87L356.9,227.72L357.25,227.63L357.61,227.6L366.74,227.6L366.86,227.61L367.28,227.75L367.61,228.05L367.79,228.46L367.78,228.91L360.91,258.84L355.09,283.6L354.6,285.42L354.04,287.15L353.38,288.82L352.65,290.39L351.83,291.92L350.93,293.36L349.94,294.74L348.87,296.02L347.32,297.63L345.61,299.12L343.77,300.46L341.78,301.67L339.65,302.75L337.37,303.7L334.93,304.53L332.36,305.22L329.63,305.78L326.77,306.21L323.76,306.51L320.61,306.67L317.29,306.7L313.85,306.61L310.27,306.38L306.5,306.02L303.66,305.6L301.01,304.98L299.77,304.61L298.59,304.18L297.45,303.71L296.37,303.2L295.36,302.64L294.39,302.03L293.49,301.38L292.64,300.69L291.86,299.96L291.13,299.18L290.47,298.36L289.86,297.49L288.98,295.93L288.27,294.25L287.76,292.46L287.43,290.56L287.28,288.57L287.33,286.47L287.55,284.29L287.97,281.99L291.63,265.97L300.02,229.75L300.22,229.11L300.48,228.57L300.81,228.15L301.2,227.83L301.52,227.67L301.86,227.56L302.65,227.51L305.21,227.59L308.53,227.58L311.74,227.57Z" style="fill:rgb(139,0,90);fill-rule:nonzero;"/>
        <path d="M173.12,305.33L162.68,305.33L162.31,305.25L162,305.03L161.8,304.7L161.76,304.33L161.78,304.2L179.3,228.42L179.41,228.14L179.62,227.91L179.89,227.76L180.19,227.71L190.64,227.71L191.04,227.8L191.36,228.06L191.54,228.43L191.54,228.84L174.01,304.62L173.9,304.9L173.69,305.13L173.42,305.28L173.12,305.33Z" style="fill:rgb(139,0,90);fill-rule:nonzero;"/>
        <path d="M384.66,305.34L374.49,305.34L374.13,305.27L373.81,305.09L373.61,304.87L373.49,304.61L373.43,304.33L373.46,304.04L390.91,228.54L391.11,228.12L391.48,227.82L391.94,227.72L402.11,227.72L402.55,227.82L402.92,228.1L403.14,228.53L403.14,229.02L385.69,304.52L385.59,304.78L385.43,305.01L385.08,305.25L384.66,305.34Z" style="fill:rgb(139,0,90);fill-rule:nonzero;"/>
        <path d="M499.322,297.574C499.281,302.291 495.365,306.139 490.647,306.098L488.708,306.081C484.018,306.04 480.183,302.171 480.183,297.482C480.183,297.457 480.183,297.432 480.183,297.407L480.198,295.707C480.239,290.989 484.155,287.141 488.873,287.182L490.812,287.199C495.502,287.24 499.337,291.109 499.337,295.798C499.337,295.823 499.337,295.848 499.337,295.874L499.322,297.574ZM496.74,295.82C496.74,292.287 493.833,289.38 490.3,289.38L489,289.38C485.467,289.38 482.56,292.287 482.56,295.82L482.56,297.32C482.56,300.853 485.467,303.76 489,303.76L490.3,303.76C493.833,303.76 496.74,300.853 496.74,297.32L496.74,295.82Z" style="fill:rgb(139,0,90);fill-rule:nonzero;"/>
        <path d="M488.59,298.35L488.59,300.97L488.54,301.25L488.38,301.48L488.15,301.64L487.87,301.69L487.19,301.69L486.88,301.63L486.62,301.46L486.45,301.2L486.39,300.9L486.39,292.32L486.43,292.06L486.56,291.84L486.76,291.67L487,291.57L488.1,291.39L489.18,291.33L490.23,291.39L491.25,291.56L491.68,291.67L492.29,291.94L492.85,292.42L493.26,293.1L493.5,293.91L493.55,294.77L493.4,295.62L493.07,296.41L492.57,297.04L491.96,297.46L491.93,297.48L491.78,297.61L491.7,297.79L491.69,297.99L491.77,298.18L493.43,300.61L493.54,300.91L493.51,301.23L493.34,301.5L493.06,301.66L492.86,301.69L492.01,301.69L491.59,301.62L491.21,301.43L490.9,301.14L490.7,300.76L489.76,298.15L489.57,297.88L489.27,297.76L488.95,297.8L488.7,298L488.59,298.35ZM488.57,293.77L488.61,295.69L488.65,295.88L488.76,296.04L488.93,296.14L489.12,296.18L489.75,296.16L490.35,296.05L490.85,295.76L491.18,295.33L491.29,294.83L491.29,294.51L491.16,294.02L490.81,293.6L490.29,293.33L489.69,293.24L489.06,293.26L488.87,293.3L488.71,293.41L488.61,293.57L488.57,293.76L488.57,293.77Z" style="fill:rgb(139,0,90);fill-rule:nonzero;"/>
        <path d="M193.34,357.83L193.37,357.97L193.48,358.09L193.63,358.14L193.78,358.11L193.9,358.01L194.83,356.85L195.85,355.86L196.94,355.05L198.11,354.4L199.3,353.95L200.56,353.66L201.91,353.48L203.19,353.4L204.43,353.41L205.6,353.51L206.75,353.72L207.83,354.01L208.86,354.41L209.83,354.89L210.77,355.48L211.63,356.16L212.46,356.94L213.21,357.8L213.93,358.79L214.58,359.84L215.17,360.98L215.71,362.24L216.19,363.56L216.62,365L217,366.53L217.31,368.15L217.57,369.86L217.77,371.66L217.92,373.55L218,375.51L218.05,377.1L218.18,383.56L218.14,386.21L218.02,388.64L217.83,390.97L217.56,393.15L217.21,395.18L216.77,397.07L216.25,398.84L215.64,400.48L214.94,401.95L214.17,403.28L213.31,404.47L212.37,405.5L211.32,406.42L210.21,407.16L209.15,407.71L208,408.14L206.8,408.46L205.51,408.66L203.69,408.79L201.98,408.79L200.35,408.66L198.83,408.39L197.39,407.99L196.06,407.45L194.82,406.78L193.69,405.98L193.06,405.44L192.47,404.85L191.41,403.54L190.5,402.04L189.75,400.38L189.15,398.52L188.72,396.51L188.45,394.33L188.35,392L188.3,372.52L188.31,335.04L188.39,334.65L188.61,334.31L188.95,334.09L189.34,334.01L192.32,334.01L192.71,334.09L193.04,334.31L193.26,334.64L193.34,335.03L193.34,357.83ZM212.77,381.13L212.78,378.98L212.78,375.05L212.64,372.06L212.33,369.43L211.86,367.17L211.54,366.12L211.18,365.17L210.77,364.29L210.3,363.47L209.8,362.76L209.24,362.1L208.63,361.53L207.96,361.03L206.84,360.41L205.63,359.98L204.27,359.72L202.81,359.64L201.35,359.73L199.99,360.01L198.78,360.45L197.67,361.07L197.01,361.58L196.41,362.16L195.85,362.82L195.35,363.54L194.89,364.36L194.49,365.24L194.14,366.19L193.83,367.24L193.37,369.51L193.09,372.15L192.98,375.14L193.01,379.07L193.04,381.21L193.03,383.36L193.03,387.29L193.17,390.28L193.47,392.91L193.95,395.17L194.27,396.22L194.63,397.17L195.03,398.05L195.5,398.87L196.01,399.58L196.57,400.24L197.18,400.81L197.85,401.31L198.96,401.93L200.17,402.36L201.54,402.62L203,402.7L204.46,402.61L205.82,402.33L207.02,401.89L208.13,401.27L208.8,400.76L209.4,400.18L209.96,399.52L210.46,398.8L210.92,397.98L211.32,397.1L211.67,396.15L211.98,395.1L212.44,392.83L212.72,390.19L212.83,387.2L212.8,383.27L212.77,381.13Z" style="fill:rgb(139,0,90);fill-rule:nonzero;"/>
        <path d="M119.082,345.775C119.028,347.497 117.597,348.884 115.874,348.884C115.84,348.884 115.806,348.883 115.773,348.882L114.853,348.853C113.093,348.798 111.69,347.304 111.746,345.544L111.818,343.245C111.872,341.523 113.303,340.136 115.026,340.136C115.06,340.136 115.094,340.137 115.127,340.138L116.047,340.167C117.807,340.222 119.21,341.716 119.154,343.476L119.082,345.775Z" style="fill:rgb(139,0,90);fill-rule:nonzero;"/>
        <path d="M302.06,380.55L301.94,384.53L301.59,388.41L301.32,390.32L301,392.21L300.62,394.08L300.19,395.93L299.48,398.47L298.67,400.99L297.73,403.49L296.68,405.97L295.5,408.46L294.2,410.92L292.78,413.4L291.23,415.86L290.95,416.17L290.58,416.36L290.17,416.43L289.75,416.35L287.52,415.54L287.05,415.25L286.75,414.8L286.66,414.27L286.79,413.74L286.87,413.61L288.62,410.75L290.19,407.86L291.58,404.9L292.78,401.89L293.64,399.4L294.37,396.87L294.99,394.28L295.5,391.66L295.9,388.95L296.18,386.21L296.35,383.4L296.41,380.55L296.36,377.69L296.19,374.88L295.91,372.14L295.52,369.44L295.02,366.81L294.4,364.22L293.67,361.69L292.82,359.19L291.62,356.19L290.24,353.22L288.68,350.32L286.93,347.47L286.86,347.34L286.72,346.81L286.82,346.27L287.12,345.82L287.58,345.53L289.82,344.73L290.24,344.66L290.65,344.72L291.02,344.92L291.3,345.23L292.84,347.69L294.26,350.17L295.55,352.63L296.73,355.12L297.77,357.6L298.71,360.11L299.52,362.63L300.22,365.17L300.65,367.02L301.02,368.89L301.34,370.78L301.6,372.7L301.94,376.57L302.06,380.55Z" style="fill:rgb(139,0,90);fill-rule:nonzero;"/>
        <path d="M485.17,355.01L485.55,354.86L486.18,354.71L488.18,354.42L489.11,354.35L489.98,354.34L490.82,354.41L491.6,354.55L492.32,354.75L492.98,355.02L493.6,355.37L494.16,355.78L494.9,356.52L495.5,357.38L495.98,358.4L496.32,359.52L496.53,360.8L496.6,362.15L496.54,363.62L496.34,365.14L496.14,366.01L495.86,366.8L495.48,367.54L495.03,368.19L494.54,368.74L493.99,369.23L493.36,369.66L492.68,370.02L491.91,370.34L491.09,370.59L490.21,370.78L489.29,370.9L488.27,370.97L487.23,370.96L486.17,370.89L485.07,370.75L483.95,370.54L482.87,370.27L481.83,369.95L480.87,369.58L480.53,369.36L480.28,369.04L480.16,368.65L480.18,368.24L480.46,366.98L480.61,366.65L480.87,366.42L481.22,366.31L481.57,366.36L481.68,366.41L482.99,366.99L484.54,367.45L486.08,367.74L487.56,367.83L488.82,367.73L489.92,367.44L490.38,367.23L490.81,366.97L491.17,366.68L491.49,366.34L491.79,365.9L492.03,365.4L492.09,365.24L492.39,364.15L492.52,362.99L492.48,361.78L492.28,360.51L492.13,359.97L491.92,359.5L491.66,359.06L491.34,358.69L490.72,358.2L489.94,357.84L489.04,357.64L488.02,357.58L486.86,357.67L485.61,357.92L484.31,358.31L483.07,358.81L482.76,358.91L482.43,358.94L482.1,358.9L481.79,358.78L481.52,358.6L481.29,358.36L481.13,358.08L481.03,357.76L481.01,357.4L481.79,345.76L481.87,345.45L482.06,345.2L482.33,345.03L482.64,344.97L493.76,344.97L494.21,345.08L494.58,345.35L494.82,345.75L494.88,346.21L494.81,347.22L494.71,347.6L494.48,347.91L494.15,348.12L493.77,348.19L485.84,348.19L485.48,348.26L485.18,348.45L484.96,348.75L484.87,349.1L484.5,354.6L484.54,354.8L484.66,354.97L484.84,355.06L485.05,355.06L485.17,355.01Z" style="fill:rgb(139,0,90);fill-rule:nonzero;"/>
        <path d="M35.71,381.57L35.76,384.42L35.92,387.24L36.2,389.98L36.59,392.68L37.09,395.3L37.71,397.9L38.43,400.43L39.28,402.93L40.48,405.93L41.86,408.9L43.42,411.8L45.16,414.66L45.24,414.79L45.37,415.31L45.28,415.85L44.97,416.3L44.51,416.59L42.27,417.39L41.86,417.47L41.44,417.4L41.07,417.2L40.79,416.89L39.26,414.43L37.84,411.95L36.55,409.48L35.37,406.99L34.33,404.51L33.4,402L32.59,399.49L31.89,396.94L31.46,395.09L31.09,393.22L30.77,391.33L30.51,389.41L30.17,385.54L30.06,381.56L30.19,377.58L30.54,373.7L30.8,371.79L31.12,369.9L31.5,368.03L31.94,366.18L32.65,363.64L33.47,361.13L34.41,358.62L35.46,356.14L36.64,353.65L37.94,351.19L39.36,348.72L40.91,346.26L41.19,345.95L41.56,345.75L41.98,345.69L42.39,345.77L44.63,346.58L45.09,346.87L45.39,347.32L45.49,347.85L45.35,348.38L45.27,348.51L43.52,351.36L41.95,354.26L40.56,357.22L39.35,360.22L38.5,362.72L37.76,365.25L37.14,367.84L36.63,370.46L36.23,373.16L35.94,375.9L35.77,378.71L35.71,381.57Z" style="fill:rgb(139,0,90);fill-rule:nonzero;"/>
        <path d="M360.55,366.81L360.58,366.93L360.66,367.02L360.78,367.07L360.91,367.04L361.01,366.96L361.78,366.01L362.61,365.2L363.51,364.53L364.47,364L365.44,363.63L366.48,363.39L367.58,363.25L368.63,363.18L369.65,363.19L370.61,363.27L371.55,363.44L372.44,363.68L373.29,364.01L374.09,364.41L374.85,364.89L375.56,365.45L376.24,366.09L376.86,366.79L377.45,367.6L377.98,368.47L378.48,369.43L378.91,370.44L379.31,371.54L379.67,372.74L379.97,373.99L380.23,375.32L380.6,378.18L380.78,381.33L380.83,382.64L380.93,387.95L380.89,390.1L380.8,392.11L380.64,394.02L380.41,395.82L380.13,397.48L379.77,399.03L379.34,400.48L378.85,401.8L378.27,403.03L377.63,404.12L376.92,405.11L376.15,405.95L375.31,406.69L374.38,407.31L373.51,407.76L372.56,408.12L371.58,408.38L370.52,408.54L369.02,408.65L367.62,408.65L366.27,408.53L365.02,408.31L363.84,407.98L362.76,407.55L361.74,406.99L360.82,406.34L359.82,405.41L358.95,404.34L358.2,403.11L357.59,401.74L357.1,400.22L356.75,398.57L356.53,396.77L356.44,394.86L356.4,378.87L356.43,348.1L356.49,347.78L356.68,347.51L356.95,347.32L357.27,347.26L359.72,347.26L360.04,347.32L360.31,347.51L360.49,347.78L360.56,348.1L360.55,366.81ZM376.55,386.02L376.55,381.02L376.43,378.57L376.18,376.44L375.78,374.56L375.22,372.92L374.88,372.2L374.5,371.52L374.08,370.94L373.61,370.4L373.12,369.93L372.57,369.52L371.67,369.03L370.66,368.67L369.56,368.46L368.34,368.39L367.12,368.47L366.02,368.7L365.01,369.07L364.12,369.58L363.58,369.99L363.09,370.46L362.63,371.01L362.22,371.6L361.84,372.28L361.51,373L360.97,374.65L360.6,376.53L360.38,378.67L360.29,381.12L360.32,384.36L360.35,386.12L360.34,387.88L360.35,391.12L360.47,393.57L360.72,395.71L361.12,397.58L361.68,399.23L362.01,399.95L362.4,400.62L362.82,401.21L363.28,401.74L363.78,402.21L364.33,402.62L365.22,403.11L366.24,403.47L367.34,403.68L368.56,403.75L369.78,403.67L370.87,403.45L371.89,403.07L372.77,402.57L373.32,402.15L373.81,401.68L374.27,401.14L374.68,400.54L375.06,399.86L375.38,399.14L375.92,397.49L376.3,395.61L376.52,393.47L376.61,391.02L376.58,387.78L376.55,386.02Z" style="fill:rgb(139,0,90);fill-rule:nonzero;"/>
        <path d="M393.68,402.83L393.93,402.88L394.14,403.02L394.28,403.23L394.33,403.47L394.33,407.41L394.29,407.64L394.16,407.84L393.96,407.99L393.73,408.05L392.42,408.12L391.29,408.12L390.3,408.05L389.41,407.9L388.61,407.67L387.92,407.37L387.31,407L386.77,406.52L386.42,406.1L386.11,405.62L385.86,405.1L385.66,404.52L385.25,402.74L384.96,400.72L384.8,398.48L384.77,396L384.79,348.34L384.87,347.97L385.01,347.77L385.19,347.61L385.42,347.5L385.66,347.47L388.17,347.47L388.51,347.54L388.8,347.73L388.99,348.02L389.06,348.36L389.06,400.81L389.1,401.2L389.21,401.58L389.4,401.93L389.65,402.24L389.96,402.49L390.31,402.68L390.69,402.79L391.09,402.83L393.68,402.83Z" style="fill:rgb(139,0,90);fill-rule:nonzero;"/>
        <path d="M503.37,352.47L503.39,352.54L503.48,352.66L503.61,352.74L503.76,352.74L503.91,352.69L505.25,351.88L506.59,351.33L507.92,351.01L508.58,350.95L509.23,350.95L510.46,351.11L511.69,351.48L512.9,352.08L514.11,352.89L514.31,353L514.53,353.04L514.76,353.01L514.96,352.91L516.32,352.12L517.77,351.51L519.27,351.12L520.76,350.95L522.17,351.03L522.81,351.14L523.43,351.32L524.02,351.55L524.57,351.85L525.06,352.18L525.51,352.58L525.9,353L526.24,353.48L526.53,353.98L526.77,354.54L527.12,355.79L527.26,357.18L527.41,363.78L527.47,370L527.44,370.23L527.34,370.44L527.06,370.69L526.69,370.78L524.59,370.78L524.28,370.72L524.02,370.55L523.85,370.29L523.79,369.98L523.79,357.58L523.74,356.99L523.6,356.43L523.36,355.89L523.05,355.4L522.66,354.96L522.2,354.6L521.69,354.31L521.14,354.11L520.67,354.01L520.19,353.98L519.24,353.98L518.59,354.05L517.97,354.24L517.39,354.55L516.89,354.96L516.47,355.47L516.17,356.04L515.98,356.67L515.91,357.32L515.92,369.92L515.88,370.18L515.76,370.42L515.44,370.7L515.03,370.8L513.19,370.8L512.82,370.73L512.5,370.52L512.29,370.2L512.21,369.83L512.21,357.77L512.12,357L511.89,356.26L511.51,355.59L511.01,355L510.4,354.52L509.71,354.17L508.96,353.96L508.19,353.9L507.92,353.89L507.19,353.96L506.49,354.17L505.84,354.51L505.27,354.97L504.81,355.53L504.46,356.17L504.24,356.87L504.17,357.6L504.17,369.87L504.1,370.23L503.89,370.55L503.58,370.75L503.21,370.83L501.51,370.83L501.1,370.75L500.75,370.51L500.52,370.16L500.43,369.75L500.43,352.21L500.51,351.81L500.74,351.48L501.08,351.27L501.47,351.21L501.52,351.21L502.09,351.3L502.55,351.45L502.91,351.68L503.17,351.96L503.37,352.47Z" style="fill:rgb(139,0,90);fill-rule:nonzero;"/>
        <path d="M541.48,370.72L541.43,370.35L541.23,370.04L540.92,369.84L540.55,369.79L540.43,369.81L539.11,370.07L537.88,370.22L536.75,370.26L535.7,370.2L534.74,370.03L533.87,369.75L533.09,369.37L532.4,368.88L531.92,368.41L531.49,367.88L531.12,367.28L530.81,366.62L530.55,365.89L530.35,365.09L530.21,364.22L530.12,363.29L530.03,361.44L530.01,359.96L530.08,358.63L530.23,357.43L530.46,356.33L530.78,355.34L531.21,354.41L531.72,353.6L532,353.26L532.74,352.59L533.67,352.06L534.71,351.72L535.87,351.55L537.14,351.55L538.45,351.75L539.7,352.11L540.83,352.63L540.85,352.64L541.08,352.71L541.32,352.67L541.53,352.55L541.68,352.35L541.93,351.89L542.21,351.52L542.53,351.24L542.88,351.05L543.42,350.93L544.02,350.98L544.25,351.07L544.44,351.23L544.56,351.44L544.6,351.68L544.64,367.2L544.59,374.49L544.49,375.51L544.27,376.43L543.92,377.3L543.46,378.08L543.06,378.58L542.61,379.04L542.09,379.46L541.52,379.83L540.91,380.14L540.26,380.39L539.56,380.6L538.83,380.75L538.06,380.84L537.28,380.88L535.7,380.76L534.14,380.4L533.38,380.14L532.65,379.82L532.3,379.58L532.04,379.25L531.88,378.85L531.85,378.43L531.93,377.15L532.03,376.82L532.26,376.57L532.57,376.45L532.91,376.47L533.07,376.54L534.49,377.31L535.56,377.72L536.78,377.96L537.86,377.99L538.76,377.82L539.16,377.66L539.53,377.45L539.96,377.07L540.32,376.62L540.62,376.08L540.87,375.42L541.07,374.69L541.21,373.84L541.43,371.46L541.48,370.72ZM541.257,357.813C541.224,355.943 539.677,354.423 537.807,354.423C537.787,354.423 537.767,354.423 537.747,354.424L536.927,354.438C535.057,354.471 533.537,356.018 533.537,357.888C533.537,357.908 533.537,357.928 533.538,357.948L533.644,364.007C533.676,365.877 535.223,367.397 537.093,367.397C537.113,367.397 537.133,367.397 537.153,367.396L537.973,367.382C539.843,367.349 541.363,365.802 541.363,363.932C541.363,363.912 541.363,363.892 541.362,363.872L541.257,357.813Z" style="fill:rgb(139,0,90);fill-rule:nonzero;"/>
        <path d="M314.48,370L314.42,369.71L314.25,369.47L314.01,369.31L313.72,369.25L310.59,369.25L310.38,369.22L310.2,369.11L310.05,368.91L309.99,368.65L309.99,366.11L310.02,365.87L310.13,365.65L310.3,365.47L310.52,365.35L314.1,364.07L314.37,363.86L314.47,363.54L314.46,353.76L314.53,353.4L314.74,353.1L315.04,352.89L315.4,352.82L317.66,352.82L318.04,352.9L318.36,353.11L318.57,353.43L318.65,353.8L318.65,363.53L318.7,363.74L318.82,363.92L318.99,364.04L319.21,364.08L325.95,364.08L326.22,364.13L326.45,364.28L326.6,364.51L326.65,364.78L326.66,368.58L326.6,368.84L326.46,369.06L326.23,369.21L325.97,369.26L319.26,369.27L319.03,369.31L318.83,369.45L318.7,369.64L318.65,369.88L318.67,389.5L318.65,391.67L318.64,394.6L318.75,396.63L319.01,398.33L319.42,399.78L319.73,400.46L320.07,401.04L320.48,401.54L320.93,401.94L321.34,402.21L321.78,402.43L322.81,402.72L324.05,402.86L325.89,402.87L326.59,402.86L326.9,402.92L327.17,403.1L327.35,403.36L327.41,403.67L327.41,403.68L327.39,407.25L327.32,407.57L327.14,407.84L326.87,408.02L326.55,408.08L322.73,407.92L321.63,407.8L320.63,407.57L319.69,407.22L318.84,406.76L317.84,405.98L316.97,405L316.22,403.81L315.6,402.43L315.12,400.84L314.77,399.08L314.57,397.12L314.5,395.02L314.48,370Z" style="fill:rgb(139,0,90);fill-rule:nonzero;"/>
        <path d="M425.57,369.26L422.44,369.26L422.21,369.21L422.02,369.08L421.89,368.89L421.84,368.66L421.84,366.12L421.88,365.88L421.99,365.65L422.16,365.48L422.37,365.36L425.95,364.08L426.22,363.88L426.32,363.55L426.32,353.79L426.39,353.43L426.6,353.13L426.9,352.92L427.26,352.85L429.52,352.85L429.9,352.92L430.21,353.14L430.43,353.45L430.5,353.83L430.5,363.55L430.54,363.76L430.66,363.94L430.84,364.06L431.05,364.1L437.79,364.1L438.06,364.15L438.28,364.31L438.44,364.53L438.49,364.8L438.49,368.6L438.44,368.86L438.29,369.08L438.06,369.23L437.8,369.28L431.1,369.28L430.87,369.33L430.67,369.46L430.54,369.66L430.49,369.89L430.49,389.49L430.47,391.66L430.46,394.58L430.57,396.61L430.82,398.31L431.24,399.76L431.54,400.44L431.88,401.02L432.29,401.52L432.74,401.92L433.15,402.19L433.59,402.41L434.62,402.7L435.86,402.84L437.69,402.85L438.39,402.84L438.7,402.9L438.97,403.08L439.15,403.34L439.21,403.66L439.19,407.23L439.12,407.55L438.94,407.82L438.67,408L438.35,408.06L434.53,407.89L433.43,407.78L432.43,407.55L431.49,407.19L430.65,406.73L429.66,405.96L428.78,404.98L428.03,403.79L427.42,402.41L426.94,400.82L426.59,399.06L426.39,397.1L426.32,395L426.32,370.01L426.26,369.72L426.1,369.48L425.86,369.32L425.57,369.26Z" style="fill:rgb(139,0,90);fill-rule:nonzero;"/>
        <path d="M66.29,403.81L66.23,403.75L66.08,403.66L65.9,403.65L65.74,403.72L65.63,403.85L64.85,405.13L64.04,406.17L63.18,406.99L62.24,407.64L61.64,407.94L61.02,408.18L59.62,408.51L57.95,408.67L55.45,408.7L54.64,408.7L53.62,408.67L52.65,408.57L51.7,408.4L50.8,408.17L49.96,407.87L49.16,407.51L48.4,407.08L47.68,406.59L46.75,405.78L45.93,404.85L45.2,403.79L44.59,402.63L44.08,401.33L43.68,399.94L43.4,398.44L43.24,396.86L43.09,393.77L43.07,391.26L43.18,389.06L43.43,387.06L43.84,385.2L44.4,383.49L45.13,381.94L46.01,380.51L46.71,379.61L47.51,378.75L48.03,378.29L48.61,377.88L49.29,377.5L50.02,377.18L50.86,376.88L51.74,376.63L53.76,376.25L56.03,376.03L58.64,375.96L61.52,376.05L65.05,376.3L65.08,376.3L65.34,376.27L65.56,376.15L65.71,375.95L65.78,375.7L65.78,375.69L65.91,372.31L65.9,369.99L65.76,367.98L65.47,366.2L65.03,364.62L64.75,363.92L64.42,363.25L64.06,362.66L63.65,362.11L63.21,361.62L62.72,361.18L62.2,360.8L61.62,360.46L61.02,360.18L60.37,359.95L58.92,359.63L57.31,359.52L54.75,359.63L53.54,359.77L52.37,359.97L51.25,360.23L50.17,360.54L49.14,360.91L48.15,361.34L47.63,361.46L47.11,361.34L46.7,361L46.47,360.52L46.44,360.26L46.45,356.9L46.53,356.36L46.76,355.88L47.13,355.48L47.59,355.21L48.74,354.79L49.92,354.42L51.15,354.11L52.42,353.86L53.74,353.66L55.09,353.52L57.93,353.4L59.25,353.44L60.48,353.56L61.66,353.76L62.75,354.04L63.78,354.41L64.74,354.86L65.63,355.39L66.44,356.01L67.5,357.04L68.42,358.27L69.18,359.65L69.8,361.22L70.28,362.97L70.62,364.89L70.82,367.02L70.88,369.34L70.84,406.57L70.79,406.91L70.65,407.23L70.43,407.5L70.14,407.7L69.86,407.81L69.55,407.84L67.65,407.84L67.15,407.74L66.72,407.45L66.44,407.02L66.35,406.52L66.35,406.5L66.38,404.59L66.35,404.06L66.29,403.81ZM64.85,382.21L62.13,382.06L58.78,382.02L55.55,382.11L54.36,382.24L53.32,382.43L52.38,382.71L51.57,383.07L50.84,383.53L50.23,384.07L49.8,384.58L49.43,385.18L49.12,385.83L48.88,386.57L48.55,387.97L48.32,389.4L48.18,390.86L48.14,392.36L48.2,393.9L48.35,395.46L48.6,397.06L48.95,398.7L49.2,399.54L49.53,400.26L49.95,400.89L50.43,401.41L50.94,401.8L51.51,402.11L52.14,402.35L52.88,402.53L53.67,402.64L54.56,402.7L57.04,402.69L58,402.66L59.25,402.53L60.46,402.19L61.37,401.77L62.21,401.22L62.98,400.56L63.66,399.79L64.24,398.93L64.71,398L65.06,397.01L65.28,395.98L65.58,393.29L65.74,390.24L65.75,386.81L65.62,383.01L65.55,382.72L65.39,382.46L65.14,382.29L64.85,382.21Z" style="fill:rgb(139,0,90);fill-rule:nonzero;"/>
        <path d="M81.3,359.18L81.34,359.32L81.44,359.43L81.59,359.48L81.74,359.44L81.85,359.34L82.82,357.97L83.74,356.86L84.6,356.01L85.4,355.42L86.29,354.93L87.21,354.5L88.14,354.12L89.09,353.82L90.05,353.57L91.02,353.39L91.99,353.27L92.96,353.22L93.9,353.24L94.83,353.32L95.75,353.47L96.65,353.69L97.53,353.96L98.38,354.31L99.18,354.71L99.95,355.17L100.88,355.84L101.74,356.61L102.53,357.47L103.26,358.42L103.72,359.16L104.16,360.02L104.57,360.99L104.96,362.07L105.66,364.57L106.27,367.52L106.44,368.7L106.58,370.17L106.78,373.96L106.87,378.91L106.85,385L106.71,389.31L106.57,391.21L106.38,393L106.14,394.68L105.84,396.26L105.48,397.72L105.08,399.09L104.61,400.38L104.09,401.57L103.49,402.69L102.85,403.69L102.16,404.59L101.39,405.42L100.57,406.15L99.68,406.8L98.83,407.3L97.92,407.73L96.96,408.08L95.95,408.36L94.9,408.55L93.79,408.67L92.65,408.72L91.44,408.69L89.82,408.52L88.34,408.19L87.02,407.7L85.81,407.05L84.88,406.35L84.01,405.52L83.21,404.55L82.48,403.44L82.28,403.33L82.17,403.36L82.09,403.44L82.06,403.55L82.06,426.19L82,426.5L81.83,426.76L81.57,426.93L81.27,426.99L77.75,426.99L77.42,426.92L77.14,426.74L76.96,426.45L76.89,426.12L76.89,355.39L76.97,354.99L77.19,354.65L77.53,354.42L77.93,354.34L80.27,354.34L80.66,354.42L81,354.64L81.22,354.98L81.3,355.38L81.3,359.18ZM82.02,381.03L82.01,383.17L82.02,387.1L82.16,390.08L82.47,392.71L82.95,394.97L83.27,396.02L83.63,396.96L84.04,397.84L84.51,398.66L85.01,399.37L85.58,400.02L86.18,400.59L86.85,401.09L87.97,401.71L89.18,402.13L90.54,402.39L92,402.47L93.45,402.37L94.81,402.1L96.02,401.66L97.12,401.03L97.79,400.52L98.39,399.95L98.95,399.29L99.44,398.57L99.9,397.74L100.3,396.86L100.65,395.91L100.95,394.86L101.41,392.6L101.68,389.97L101.79,386.98L101.75,383.05L101.72,380.91L101.73,378.77L101.72,374.84L101.58,371.86L101.27,369.23L100.79,366.97L100.47,365.92L100.11,364.98L99.7,364.11L99.23,363.29L98.73,362.57L98.16,361.92L97.56,361.35L96.88,360.85L95.77,360.24L94.56,359.81L93.2,359.55L91.74,359.47L90.28,359.57L88.93,359.84L87.72,360.28L86.61,360.91L85.95,361.42L85.35,361.99L84.79,362.66L84.3,363.38L83.84,364.2L83.44,365.08L83.09,366.03L82.78,367.08L82.33,369.34L82.05,371.98L81.95,374.96L81.99,378.89L82.02,381.03Z" style="fill:rgb(139,0,90);fill-rule:nonzero;"/>
        <path d="M178.13,403.8L178.06,403.73L177.91,403.64L177.74,403.64L177.58,403.7L177.46,403.83L176.69,405.12L175.88,406.15L175.02,406.98L174.08,407.63L173.48,407.93L172.86,408.17L171.47,408.5L169.8,408.66L167.29,408.69L166.48,408.69L165.46,408.66L164.49,408.57L163.54,408.4L162.65,408.17L161.8,407.87L161.01,407.52L160.24,407.09L159.53,406.59L158.59,405.78L157.77,404.86L157.04,403.8L156.43,402.63L155.91,401.34L155.52,399.96L155.24,398.46L155.07,396.88L154.91,393.78L154.89,391.28L155,389.08L155.25,387.07L155.66,385.22L156.22,383.51L156.94,381.95L157.82,380.52L158.52,379.62L159.31,378.76L159.84,378.3L160.42,377.89L161.09,377.51L161.82,377.18L162.66,376.88L163.55,376.63L165.56,376.25L167.84,376.03L170.45,375.96L173.32,376.04L176.85,376.29L176.88,376.29L177.14,376.26L177.36,376.14L177.51,375.94L177.58,375.69L177.58,375.68L177.59,375.41L177.7,372.3L177.69,369.98L177.55,367.97L177.26,366.19L176.81,364.61L176.53,363.91L176.2,363.24L175.84,362.65L175.43,362.1L174.99,361.62L174.5,361.18L173.98,360.79L173.4,360.46L172.8,360.18L172.15,359.95L170.7,359.63L169.09,359.53L166.53,359.64L165.32,359.78L164.15,359.98L163.03,360.24L161.96,360.55L160.92,360.93L159.93,361.36L159.41,361.47L158.9,361.35L158.48,361.02L158.25,360.54L158.22,360.27L158.23,356.91L158.31,356.38L158.54,355.89L158.91,355.5L159.37,355.22L160.51,354.8L161.7,354.44L162.93,354.13L164.2,353.87L165.51,353.67L166.87,353.53L169.71,353.4L171.02,353.44L172.26,353.56L173.43,353.76L174.52,354.04L175.56,354.4L176.51,354.85L177.41,355.39L178.22,356L179.27,357.03L180.2,358.26L180.96,359.64L181.58,361.21L182.07,362.95L182.41,364.87L182.61,367.01L182.68,369.33L182.67,406.54L182.58,407.03L182.3,407.45L181.88,407.72L181.39,407.82L179.49,407.82L178.99,407.72L178.56,407.43L178.28,407L178.19,406.5L178.19,406.48L178.22,404.57L178.19,404.04L178.13,403.8ZM176.77,382.23L174.05,382.08L170.7,382.03L167.47,382.11L166.29,382.24L165.25,382.44L164.31,382.72L163.5,383.07L162.77,383.53L162.16,384.07L161.73,384.58L161.35,385.18L161.05,385.83L160.8,386.56L160.47,387.96L160.23,389.39L160.1,390.86L160.05,392.35L160.11,393.89L160.26,395.45L160.51,397.06L160.85,398.69L161.1,399.53L161.43,400.25L161.84,400.88L162.32,401.4L162.84,401.79L163.4,402.1L164.03,402.34L164.77,402.52L165.56,402.64L166.45,402.7L168.93,402.69L169.89,402.66L171.14,402.54L172.35,402.2L173.26,401.78L174.1,401.24L174.87,400.57L175.55,399.81L176.13,398.95L176.6,398.02L176.95,397.03L177.18,396L177.49,393.31L177.65,390.26L177.67,386.83L177.54,383.03L177.48,382.74L177.31,382.49L177.06,382.31L176.77,382.23Z" style="fill:rgb(139,0,90);fill-rule:nonzero;"/>
        <path d="M245.38,403.77L245.32,403.7L245.17,403.62L244.99,403.61L244.83,403.68L244.72,403.81L243.94,405.09L243.14,406.13L242.28,406.95L241.34,407.61L240.74,407.91L240.12,408.15L238.73,408.48L237.06,408.64L234.56,408.68L233.75,408.68L232.73,408.65L231.76,408.55L230.81,408.39L229.91,408.16L229.07,407.86L228.27,407.51L227.51,407.08L226.79,406.59L225.86,405.78L225.03,404.85L224.3,403.8L223.69,402.63L223.18,401.34L222.78,399.96L222.5,398.46L222.33,396.88L222.17,393.79L222.14,391.28L222.25,389.08L222.5,387.08L222.9,385.23L223.46,383.51L224.18,381.96L225.06,380.53L225.76,379.63L226.55,378.77L227.07,378.31L227.66,377.9L228.33,377.52L229.06,377.19L229.89,376.89L230.78,376.64L232.79,376.25L235.07,376.02L237.67,375.95L240.54,376.03L244.08,376.28L244.11,376.28L244.36,376.25L244.58,376.12L244.73,375.92L244.8,375.68L244.8,375.67L244.81,375.4L244.93,372.28L244.91,369.97L244.76,367.96L244.47,366.18L244.02,364.6L243.74,363.9L243.41,363.24L243.05,362.65L242.64,362.1L242.2,361.62L241.71,361.17L241.19,360.79L240.61,360.46L240.01,360.18L239.36,359.95L237.91,359.64L236.3,359.53L233.74,359.65L232.53,359.79L231.37,359.99L230.25,360.25L229.17,360.57L228.14,360.94L227.15,361.37L226.63,361.49L226.11,361.36L225.7,361.03L225.47,360.55L225.44,360.29L225.44,356.93L225.52,356.4L225.75,355.91L226.12,355.51L226.58,355.24L227.72,354.82L228.91,354.45L230.13,354.14L231.4,353.88L232.72,353.68L234.07,353.54L236.91,353.41L238.23,353.44L239.46,353.56L240.63,353.76L241.72,354.04L242.76,354.4L243.71,354.85L244.61,355.38L245.42,355.99L246.48,357.02L247.4,358.25L248.16,359.63L248.79,361.2L249.27,362.94L249.62,364.86L249.82,366.99L249.89,369.31L249.93,406.51L249.83,407L249.56,407.42L249.14,407.69L248.65,407.79L246.75,407.79L246.25,407.69L245.82,407.4L245.54,406.98L245.45,406.47L245.45,406.45L245.47,404.55L245.44,404.02L245.38,403.77ZM244.12,382.24L241.4,382.08L238.05,382.02L234.81,382.1L233.63,382.22L232.58,382.42L231.64,382.69L230.83,383.05L230.09,383.5L229.49,384.04L229.05,384.55L228.67,385.15L228.37,385.8L228.12,386.54L227.78,387.93L227.54,389.36L227.4,390.83L227.36,392.33L227.41,393.87L227.55,395.44L227.8,397.04L228.14,398.68L228.39,399.52L228.71,400.24L229.13,400.87L229.61,401.39L230.12,401.79L230.69,402.1L231.32,402.34L232.05,402.53L232.84,402.64L233.73,402.71L236.22,402.7L237.18,402.68L238.43,402.56L239.64,402.22L240.56,401.8L241.4,401.26L242.17,400.6L242.85,399.83L243.44,398.97L243.91,398.04L244.27,397.06L244.49,396.02L244.81,393.34L244.98,390.28L245.01,386.85L244.89,383.04L244.82,382.75L244.66,382.5L244.41,382.32L244.12,382.24Z" style="fill:rgb(139,0,90);fill-rule:nonzero;"/>
        <path d="M261.45,359.05L262.08,358.17L262.74,357.36L263.43,356.63L264.15,355.96L264.9,355.37L265.68,354.85L266.48,354.4L267.32,354.03L268.13,353.74L268.97,353.51L269.84,353.35L270.73,353.25L271.65,353.22L272.6,353.25L273.56,353.34L274.56,353.5L276.11,353.88L277.56,354.42L278.86,355.09L280.05,355.93L280.69,356.49L281.28,357.09L281.84,357.76L282.35,358.46L282.83,359.24L283.26,360.06L284,361.85L284.57,363.87L284.98,366.09L285.23,368.53L285.33,371.25L285.41,392.53L285.36,406.11L285.33,406.45L285.23,406.77L285.06,407.07L284.85,407.33L284.59,407.54L284.29,407.7L283.97,407.8L283.63,407.83L281.67,407.83L281.37,407.8L281.08,407.71L280.81,407.56L280.57,407.37L280.38,407.13L280.24,406.86L280.16,406.56L280.13,406.26L280.19,387.46L280.1,370.94L280.02,369.24L279.81,367.63L279.47,366.15L279,364.77L278.41,363.57L277.7,362.49L276.89,361.57L275.94,360.79L275.25,360.36L274.5,360L273.72,359.71L272.88,359.5L271.99,359.36L271.05,359.29L270.08,359.3L269.06,359.38L268.07,359.55L267.17,359.81L266.32,360.18L265.56,360.63L264.62,361.42L263.81,362.41L263.12,363.59L262.56,364.95L262.13,366.52L261.84,368.26L261.67,370.18L261.62,372.37L261.6,406.55L261.56,406.84L261.45,407.12L261.27,407.35L261.03,407.54L260.76,407.65L260.46,407.69L257.72,407.68L257.31,407.6L256.96,407.37L256.73,407.03L256.65,406.62L256.65,355.21L256.73,354.85L256.86,354.65L257.04,354.49L257.26,354.39L257.5,354.36L259.85,354.36L260.22,354.43L260.54,354.65L260.75,354.96L260.82,355.34L260.82,358.86L260.86,359.02L260.98,359.15L261.14,359.2L261.32,359.16L261.45,359.05Z" style="fill:rgb(139,0,90);fill-rule:nonzero;"/>
        <path d="M117.97,406.96C117.97,407.443 117.573,407.84 117.09,407.84L113.79,407.84C113.307,407.84 112.91,407.443 112.91,406.96L112.91,355.24C112.91,354.757 113.307,354.36 113.79,354.36L117.09,354.36C117.573,354.36 117.97,354.757 117.97,355.24L117.97,406.96Z" style="fill:rgb(139,0,90);fill-rule:nonzero;"/>
        <path d="M137.83,377.06L137.94,377.05L138.25,376.94L138.54,376.69L138.82,376.3L139.07,375.78L141.16,370.65L143.13,365.58L144.97,360.56L146.69,355.59L146.94,355.12L147.31,354.74L147.79,354.5L148.32,354.42L151.25,354.42L151.62,354.5L151.91,354.73L152.09,355.06L152.11,355.43L152.07,355.57L143.53,379.47L143.41,379.94L143.37,380.43L143.41,380.91L143.53,381.38L152.62,406.7L152.66,407.03L152.56,407.34L152.33,407.58L152.03,407.71L151.9,407.72L148.4,407.72L147.89,407.64L147.43,407.4L147.07,407.04L146.84,406.58L144.95,400.73L142.99,395L140.98,389.41L138.9,383.94L138.63,383.54L138.28,383.35L137.82,383.28L137.37,383.35L137.02,383.54L136.75,383.93L134.65,389.4L132.61,394.99L130.63,400.7L128.72,406.55L128.49,407L128.12,407.37L127.66,407.6L127.15,407.68L123.65,407.67L123.53,407.66L123.22,407.53L123,407.29L122.9,406.97L122.94,406.64L132.12,381.36L132.25,380.89L132.29,380.41L132.25,379.92L132.13,379.45L123.68,355.52L123.64,355.37L123.66,355L123.84,354.67L124.14,354.45L124.5,354.37L127.43,354.38L127.96,354.47L128.44,354.71L128.82,355.08L129.06,355.56L130.76,360.53L132.58,365.56L134.53,370.64L136.6,375.77L136.86,376.3L137.13,376.69L137.42,376.94L137.73,377.05L137.83,377.06Z" style="fill:rgb(139,0,90);fill-rule:nonzero;"/>
        <path d="M348.59,404.76L348.54,404.7L348.42,404.63L348.27,404.62L348.14,404.68L348.05,404.79L347.4,405.84L346.74,406.69L346.04,407.37L345.26,407.91L344.25,408.35L343.09,408.62L341.72,408.75L339.67,408.78L339,408.78L337.37,408.67L336.59,408.53L335.85,408.34L335.14,408.09L334.48,407.79L333.86,407.44L333.28,407.04L332.51,406.37L331.83,405.6L331.23,404.72L330.72,403.75L330.31,402.7L329.99,401.56L329.76,400.33L329.63,399.04L329.5,396.5L329.48,394.45L329.58,392.63L329.78,390.97L330.12,389.44L330.59,388.03L331.18,386.74L331.91,385.58L332.48,384.84L333.14,384.13L333.57,383.75L334.04,383.42L335.2,382.84L336.62,382.38L338.28,382.07L340.15,381.89L342.3,381.84L344.66,381.91L347.58,382.12L347.6,382.12L347.81,382.09L347.99,381.99L348.12,381.83L348.17,381.63L348.17,381.62L348.18,381.4L348.28,378.84L348.27,376.94L348.16,375.28L347.92,373.8L347.55,372.5L347.05,371.37L346.42,370.43L345.66,369.67L344.75,369.08L343.72,368.66L342.52,368.4L341.21,368.31L339.1,368.4L337.14,368.68L335.33,369.15L333.67,369.81L333.24,369.9L332.81,369.8L332.47,369.52L332.29,369.13L332.26,368.91L332.27,366.15L332.34,365.71L332.53,365.31L332.83,364.98L333.21,364.76L335.13,364.11L337.18,363.65L339.38,363.37L341.72,363.27L342.81,363.3L343.83,363.4L344.8,363.57L345.7,363.8L346.55,364.11L347.32,364.47L348.06,364.91L348.72,365.42L349.59,366.26L350.35,367.28L350.97,368.41L351.49,369.71L351.88,371.14L352.16,372.72L352.32,374.48L352.38,376.39L352.33,407.02L352.25,407.43L352.02,407.77L351.68,407.99L351.28,408.07L349.71,408.07L349.3,407.99L348.95,407.75L348.72,407.4L348.64,406.98L348.64,406.96L348.67,405.39L348.59,404.76ZM347.35,386.99L345.12,386.84L342.38,386.78L339.72,386.83L338.75,386.93L337.89,387.08L337.12,387.3L336.46,387.59L335.87,387.95L335.35,388.39L334.99,388.81L334.68,389.3L334.43,389.83L334.22,390.43L333.94,391.58L333.74,392.75L333.61,393.95L333.57,395.18L333.6,396.43L333.72,397.72L333.91,399.03L334.18,400.38L334.38,401.07L334.64,401.66L334.98,402.18L335.37,402.61L335.79,402.93L336.25,403.19L336.76,403.39L337.36,403.55L338.74,403.71L340.78,403.71L341.57,403.7L342.61,403.6L343.58,403.34L344.34,403L345.02,402.56L345.66,402.02L346.23,401.4L346.71,400.7L347.1,399.94L347.4,399.13L347.59,398.28L347.86,396.08L348.01,393.58L348.05,390.77L347.98,387.65L347.92,387.41L347.79,387.2L347.59,387.06L347.35,386.99Z" style="fill:rgb(139,0,90);fill-rule:nonzero;"/>
        <path d="M401.02,390.04L401.12,392.68L401.31,394.78L401.61,396.6L402.02,398.2L402.56,399.61L403.24,400.81L404.04,401.79L404.97,402.56L406.03,403.13L407.21,403.5L408.55,403.68L410.01,403.66L411.72,403.45L413.3,403.09L414.74,402.59L416.05,401.94L416.14,401.89L416.56,401.79L416.99,401.88L417.35,402.13L417.58,402.5L418.3,404.49L418.41,405.1L418.31,405.72L418.01,406.27L417.54,406.69L416.63,407.21L415.65,407.65L414.6,408.02L413.48,408.32L412.3,408.54L411.05,408.69L409.73,408.76L408.35,408.76L406.8,408.63L405.32,408.3L403.95,407.79L402.72,407.12L401.75,406.38L400.87,405.54L400.08,404.56L399.4,403.49L398.8,402.27L398.31,400.97L397.93,399.56L397.66,398.09L397.25,394.84L396.97,391.64L396.81,388.48L396.77,385.38L396.86,382.31L397.07,379.3L397.4,376.33L397.85,373.41L398.13,372.07L398.49,370.82L398.92,369.67L399.42,368.61L399.99,367.65L400.64,366.79L401.36,366.02L402.15,365.35L402.77,364.92L403.43,364.55L404.12,364.22L404.85,363.95L406.44,363.55L408.17,363.36L409.15,363.34L410.08,363.38L410.98,363.49L411.83,363.66L412.63,363.89L413.38,364.18L414.11,364.53L414.77,364.95L415.56,365.56L416.26,366.26L416.91,367.06L417.48,367.94L417.99,368.92L418.44,370.02L418.82,371.19L419.14,372.47L419.39,373.81L419.58,375.25L419.71,376.81L419.78,378.46L419.74,382.08L419.46,386.7L419.4,387.59L419.34,387.93L419.22,388.26L419.04,388.56L418.81,388.82L418.54,389.03L418.22,389.19L417.89,389.29L417.54,389.32L401.71,389.32L401.44,389.38L401.21,389.54L401.07,389.77L401.02,390.04ZM401.39,384.11L415.05,384.35L415.2,384.29L415.26,384.14L415.37,377.84L415.29,376.02L414.98,374.26L414.74,373.43L414.44,372.64L414.1,371.9L413.71,371.22L413.28,370.59L412.82,370.04L412.32,369.56L411.78,369.16L411.23,368.84L410.66,368.61L410.07,368.46L409.48,368.41L407.52,368.37L406.92,368.41L406.33,368.53L405.75,368.75L405.19,369.04L404.64,369.43L404.12,369.89L403.64,370.42L403.19,371.03L402.78,371.7L402.41,372.43L402.09,373.21L401.82,374.04L401.44,375.78L401.3,377.6L401.19,383.9L401.25,384.05L401.39,384.11Z" style="fill:rgb(139,0,90);fill-rule:nonzero;"/>
        <path d="M442.1,405.1L442.76,402.04L442.89,401.75L443.13,401.54L443.43,401.45L443.74,401.5L443.84,401.54L445.66,402.39L447.63,403.07L449.56,403.52L451.4,403.72L452.22,403.72L453.02,403.67L453.76,403.55L454.47,403.37L455.1,403.13L455.69,402.83L456.22,402.48L456.7,402.06L457.36,401.25L457.85,400.31L458.2,399.19L458.39,397.95L458.51,395.81L458.48,393.99L458.3,392.49L457.98,391.3L457.65,390.66L457.16,390.05L456.52,389.52L455.74,389.02L454.81,388.58L453.73,388.17L452.48,387.8L450.8,387.37L450.21,387.23L448.46,386.68L447.67,386.33L446.92,385.93L446.25,385.5L445.63,385.02L445.06,384.49L444.55,383.91L443.81,382.83L443.24,381.59L442.84,380.23L442.6,378.72L442.43,376.3L442.43,374.13L442.58,372.16L442.91,370.37L443.39,368.8L444.05,367.41L444.43,366.8L444.87,366.23L445.33,365.73L445.84,365.26L446.93,364.51L448.14,363.95L449.54,363.56L451.06,363.35L452.25,363.29L453.42,363.29L454.55,363.35L455.65,363.48L456.73,363.66L457.78,363.91L458.79,364.21L459.78,364.58L460.16,364.82L460.44,365.18L460.58,365.62L460.56,366.07L459.92,369.01L459.76,369.37L459.47,369.63L459.1,369.75L458.72,369.72L458.64,369.69L457.07,369.14L455.47,368.74L453.5,368.45L451.49,368.38L450.55,368.46L449.72,368.65L448.95,368.97L448.28,369.38L447.53,370.09L446.92,371L446.48,372.06L446.2,373.28L446.08,374.64L446.13,376.09L446.36,377.58L446.75,379.03L447.05,379.7L447.4,380.2L447.82,380.64L448.32,381.04L448.95,381.41L449.65,381.75L450.46,382.06L452.8,382.77L455.32,383.53L457.07,384.25L457.83,384.66L458.5,385.1L459.12,385.6L459.65,386.12L460.08,386.65L460.47,387.23L460.82,387.88L461.13,388.56L461.63,390.14L461.96,391.92L462.11,393.94L462.1,396.12L461.9,398.43L461.54,400.81L461.34,401.7L461.1,402.53L460.8,403.32L460.45,404.06L460.06,404.75L459.62,405.37L459.12,405.97L458.59,406.5L457.91,407.04L457.2,407.51L456.41,407.92L455.58,408.25L454.68,408.52L453.75,408.71L452.75,408.83L451.74,408.87L450.66,408.85L449.57,408.74L448.44,408.57L447.32,408.32L446.18,408L445.05,407.62L443.93,407.17L442.85,406.66L442.47,406.39L442.2,406.01L442.08,405.56L442.1,405.1Z" style="fill:rgb(139,0,90);fill-rule:nonzero;"/>
        <path d="M484.74,404.47L494.94,404.47L495.23,404.53L495.48,404.69L495.64,404.93L495.7,405.22L495.7,406.63L495.64,406.94L495.46,407.21L495.19,407.39L494.88,407.45L481.14,407.44L480.92,407.4L480.72,407.3L480.56,407.13L480.46,406.93L480.4,406.47L480.37,405.62L480.43,402.76L480.56,401.34L480.83,400.06L481.24,398.94L481.81,397.93L482.29,397.32L482.82,396.76L483.43,396.24L484.15,395.74L485.88,394.79L488.54,393.62L488.79,393.52L489.82,393.01L490.66,392.41L491.32,391.72L491.8,390.95L492.12,390.01L492.22,388.97L492.1,387.82L491.77,386.57L491.61,386.2L491.4,385.86L491.14,385.55L490.83,385.28L490.49,385.07L490.12,384.91L489.73,384.8L489.33,384.76L487.54,384.78L485.85,384.97L484.25,385.3L482.74,385.8L482.4,385.86L482.07,385.79L481.79,385.6L481.61,385.31L481.6,385.29L481.11,383.93L481.06,383.57L481.15,383.22L481.37,382.93L481.68,382.75L481.71,382.74L483.98,382.17L486.17,381.79L488.17,381.62L490,381.66L491.58,381.9L492.29,382.09L492.95,382.34L493.53,382.64L494.07,382.99L494.54,383.38L494.96,383.83L495.47,384.59L495.85,385.49L496.17,386.72L496.33,388.01L496.33,389.27L496.16,390.52L495.84,391.67L495.38,392.7L494.76,393.64L494.02,394.42L493.35,394.95L492.59,395.39L490.62,396.27L488.16,397.39L487.29,397.88L486.53,398.39L485.87,398.93L485.32,399.49L484.88,400.09L484.51,400.75L484.25,401.43L484.08,402.18L484.01,402.96L484.03,403.81L484.1,404.07L484.26,404.28L484.48,404.42L484.74,404.47Z" style="fill:rgb(139,0,90);fill-rule:nonzero;"/>
        <path d="M509.89,386.03L509.51,391.53L509.55,391.74L509.67,391.9L509.85,391.99L510.06,391.99L510.18,391.94L510.56,391.79L511.19,391.64L513.19,391.36L514.12,391.28L514.99,391.28L515.83,391.35L516.61,391.49L517.33,391.69L517.99,391.96L518.61,392.31L519.17,392.72L519.91,393.46L520.51,394.32L520.99,395.34L521.32,396.46L521.53,397.74L521.61,399.1L521.54,400.57L521.34,402.08L521.14,402.95L520.86,403.74L520.48,404.48L520.03,405.14L519.53,405.68L518.98,406.17L518.35,406.6L517.67,406.96L516.9,407.28L516.09,407.53L515.2,407.72L514.28,407.84L513.26,407.9L512.22,407.89L511.17,407.82L510.06,407.68L508.94,407.47L507.87,407.2L506.83,406.88L505.87,406.51L505.53,406.29L505.28,405.96L505.16,405.57L505.18,405.17L505.46,403.91L505.6,403.58L505.87,403.34L506.22,403.24L506.57,403.29L506.68,403.34L507.99,403.92L509.53,404.39L511.08,404.67L512.55,404.77L513.82,404.66L514.91,404.37L515.38,404.17L515.81,403.91L516.17,403.62L516.49,403.28L516.79,402.84L517.03,402.34L517.09,402.18L517.39,401.08L517.52,399.93L517.48,398.72L517.28,397.45L517.13,396.91L516.93,396.44L516.66,396L516.35,395.62L515.72,395.13L514.94,394.78L514.05,394.57L513.03,394.51L511.86,394.61L510.62,394.85L509.31,395.24L508.08,395.74L507.76,395.84L507.43,395.87L507.11,395.83L506.8,395.71L506.53,395.53L506.3,395.29L506.14,395L506.04,394.69L506.02,394.33L506.81,382.69L506.89,382.38L507.08,382.13L507.35,381.96L507.66,381.9L518.74,381.91L518.78,381.91L519.23,382.02L519.6,382.29L519.84,382.69L519.9,383.15L519.83,384.16L519.73,384.54L519.5,384.85L519.17,385.06L518.79,385.13L510.86,385.12L510.5,385.19L510.19,385.39L509.98,385.68L509.89,386.03Z" style="fill:rgb(139,0,90);fill-rule:nonzero;"/>
        <path d="M528.54,389.04L528.56,389.11L528.65,389.24L528.78,389.31L528.94,389.32L529.08,389.26L530.43,388.46L531.77,387.9L533.09,387.58L533.75,387.52L534.41,387.52L535.65,387.68L536.87,388.06L538.08,388.65L539.29,389.47L539.49,389.58L539.72,389.62L539.94,389.59L540.15,389.49L541.51,388.69L542.96,388.09L544.46,387.7L545.96,387.53L547.36,387.6L548.01,387.72L548.63,387.9L549.21,388.13L549.76,388.42L550.26,388.76L550.71,389.16L551.09,389.58L551.44,390.06L551.73,390.56L551.97,391.12L552.32,392.37L552.46,393.76L552.61,400.37L552.67,406.6L552.61,406.9L552.44,407.15L552.19,407.32L551.89,407.38L549.78,407.38L549.47,407.32L549.21,407.15L549.04,406.89L548.98,406.58L548.98,394.16L548.91,393.46L548.71,392.78L548.37,392.16L547.93,391.61L547.38,391.17L546.76,390.83L546.08,390.63L545.38,390.56L544.43,390.56L543.78,390.62L543.16,390.81L542.58,391.12L542.08,391.54L541.66,392.04L541.35,392.62L541.16,393.25L541.1,393.9L541.1,406.51L541.05,406.79L540.92,407.04L540.61,407.31L540.21,407.4L538.37,407.4L537.99,407.33L537.68,407.11L537.46,406.8L537.39,406.42L537.39,394.35L537.3,393.58L537.07,392.84L536.69,392.17L536.19,391.58L535.58,391.1L534.89,390.75L534.14,390.54L533.37,390.48L533.1,390.47L532.37,390.54L531.67,390.74L531.02,391.08L530.45,391.54L529.98,392.11L529.63,392.75L529.41,393.45L529.34,394.18L529.34,406.46L529.27,406.83L529.06,407.14L528.75,407.35L528.38,407.42L526.68,407.42L526.27,407.34L525.92,407.1L525.68,406.75L525.6,406.34L525.6,388.78L525.68,388.39L525.91,388.05L526.25,387.84L526.64,387.78L526.69,387.78L527.26,387.87L527.72,388.02L528.09,388.25L528.35,388.54L528.54,389.04Z" style="fill:rgb(139,0,90);fill-rule:nonzero;"/>
        <path d="M566.79,407.38L566.74,407.01L566.54,406.7L566.23,406.5L565.86,406.44L565.74,406.46L564.42,406.72L563.19,406.86L562.05,406.9L561,406.84L560.04,406.66L559.17,406.38L558.39,406L557.7,405.51L557.22,405.04L556.79,404.51L556.42,403.91L556.11,403.24L555.86,402.51L555.66,401.71L555.51,400.84L555.43,399.9L555.34,398.05L555.33,396.56L555.4,395.24L555.55,394.03L555.79,392.93L556.11,391.94L556.54,391.02L557.06,390.2L557.33,389.86L558.08,389.19L559.01,388.67L560.05,388.33L561.22,388.15L562.49,388.16L563.8,388.36L565.06,388.73L566.18,389.25L566.2,389.26L566.44,389.33L566.68,389.3L566.89,389.17L567.04,388.97L567.28,388.52L567.57,388.15L567.89,387.87L568.24,387.68L568.78,387.56L569.38,387.61L569.61,387.7L569.8,387.86L569.92,388.07L569.96,388.31L569.97,403.86L569.9,411.16L569.8,412.18L569.57,413.11L569.22,413.98L568.76,414.75L568.35,415.26L567.9,415.71L567.37,416.13L566.81,416.5L566.19,416.81L565.54,417.06L564.84,417.27L564.11,417.42L563.34,417.51L562.56,417.54L560.98,417.42L559.41,417.06L558.66,416.79L557.92,416.47L557.57,416.23L557.31,415.9L557.16,415.5L557.12,415.07L557.21,413.79L557.31,413.47L557.54,413.22L557.85,413.09L558.19,413.11L558.35,413.18L559.77,413.95L560.84,414.37L562.06,414.61L563.15,414.65L564.05,414.49L564.45,414.32L564.81,414.11L565.25,413.74L565.61,413.29L565.91,412.75L566.17,412.09L566.36,411.35L566.51,410.5L566.74,408.12L566.79,407.38ZM566.531,394.263C566.509,392.481 565.024,391.032 563.241,391.053L562.081,391.068C560.299,391.089 558.85,392.574 558.871,394.357L558.949,400.737C558.971,402.519 560.456,403.968 562.239,403.947L563.399,403.932C565.181,403.911 566.63,402.426 566.609,400.643L566.531,394.263Z" style="fill:rgb(139,0,90);fill-rule:nonzero;"/>
        <path d="M502.868,406.238C502.864,407.212 502.062,408.012 501.088,408.012C501.086,408.012 501.084,408.012 501.082,408.012L500.082,408.008C499.107,408.005 498.308,407.202 498.308,406.228C498.308,406.226 498.308,406.224 498.308,406.222L498.312,404.942C498.316,403.968 499.118,403.168 500.092,403.168C500.094,403.168 500.096,403.168 500.099,403.168L501.098,403.172C502.073,403.175 502.872,403.978 502.872,404.952C502.872,404.954 502.872,404.956 502.872,404.958L502.868,406.238Z" style="fill:rgb(139,0,90);fill-rule:nonzero;"/>
        <path d="M207.09,200.08L206.99,200.08L206.92,200.01L206.92,199.91L206.98,199.84L214.52,196.35L222.01,193.05L229.43,189.95L236.79,187.05L244.09,184.35L251.34,181.84L258.52,179.53L265.64,177.42L270.3,176.18L274.99,175.1L279.69,174.17L284.42,173.4L288.97,172.81L293.54,172.36L296.26,172.18L298.95,172.1L301.63,172.11L304.29,172.21L306.93,172.41L309.55,172.69L312.15,173.07L314.74,173.55L317.42,174.14L320.08,174.83L322.71,175.63L325.33,176.52L327.93,177.52L330.51,178.62L333.06,179.82L335.6,181.12L339.69,183.19L354.55,190.69L358.01,192.28L361.5,193.73L365.01,195.06L368.54,196.25L372.09,197.31L375.66,198.24L379.26,199.05L382.88,199.72L383.33,199.79L383.54,199.9L383.63,200.08L383.61,200.29L383.49,200.45L383.3,200.52L379.8,200.78L376.31,200.94L372.84,201L369.38,200.96L365.93,200.82L362.5,200.59L359.08,200.25L355.68,199.82L351.62,199.18L347.57,198.39L342.08,197.17L335.34,195.56L327.33,193.57L318.07,191.19L313.91,190.17L309.75,189.26L305.59,188.46L301.42,187.77L297.24,187.19L293.06,186.73L288.88,186.38L284.69,186.14L278.64,185.99L272.57,186.07L266.5,186.38L260.41,186.93L254.32,187.71L248.21,188.73L242.1,189.97L235.97,191.45L228.2,193.54L220.8,195.68L213.76,197.86L207.09,200.08Z" style="fill:rgb(251,189,159);fill-rule:nonzero;"/>
    </g>
</svg>
