<?xml version="1.0" encoding="UTF-8" standalone="no"?>
<!DOCTYPE svg PUBLIC "-//W3C//DTD SVG 1.1//EN" "http://www.w3.org/Graphics/SVG/1.1/DTD/svg11.dtd">
<svg width="100%" height="100%" viewBox="0 0 359 143" version="1.1" xmlns="http://www.w3.org/2000/svg" xmlns:xlink="http://www.w3.org/1999/xlink" xml:space="preserve" xmlns:serif="http://www.serif.com/" style="fill-rule:evenodd;clip-rule:evenodd;stroke-linejoin:round;stroke-miterlimit:2;">
    <g transform="matrix(1,0,0,1,-1.73,-0.25)">
        <path d="M22.46,1.03L359.42,1L359.62,1.04L359.79,1.16L359.91,1.33L359.95,1.54L359.95,117.51L359.89,117.8L359.73,118.04L359.49,118.2L359.21,118.26L92.46,118.16L91.66,118.18L90.97,118.01L90.94,118L90.79,117.87L90.69,117.7L90.68,117.5L90.74,117.31L93.09,113.18L94.01,111.4L94.82,109.69L95.54,108.05L96.14,106.47L96.63,104.98L97.02,103.54L97.3,102.16L97.47,100.86L97.54,99.59L97.49,98.41L97.34,97.31L97.07,96.25L96.7,95.27L96.21,94.34L95.38,93.2L94.37,92.2L93.13,91.3L91.71,90.54L90.63,90.1L89.49,89.76L88.28,89.49L86.98,89.29L85.63,89.19L84.21,89.16L82.78,89.23L81.37,89.37L78.32,89.83L75.29,90.39L72.26,91.07L69.24,91.87L66.23,92.77L63.23,93.78L60.24,94.91L57.26,96.15L57.16,96.23L57.12,96.35L57.15,96.48L57.24,96.57L57.39,96.59L59.22,96.29L61.16,96.07L63.12,95.92L65.08,95.86L66.98,95.87L68.82,95.97L70.57,96.15L72.23,96.4L73.77,96.73L75.19,97.12L76.53,97.59L77.75,98.13L78.87,98.74L79.85,99.41L80.72,100.15L81.5,100.97L81.93,101.55L82.31,102.2L82.65,102.92L82.93,103.7L83.18,104.58L83.37,105.49L83.61,107.53L83.64,109.86L83.47,112.32L83.09,114.83L82.54,117.11L82.35,117.5L82.05,117.82L81.66,118.02L81.23,118.09L31.56,118.09L31.41,118.06L31.27,117.94L31.21,117.78L31.23,117.6L31.33,117.45L36.25,113.07L41.04,108.62L45.71,104.09L50.26,99.5L54.67,94.84L58.96,90.11L63.13,85.31L67.17,80.44L68.93,78.19L70.54,75.97L72.03,73.76L73.38,71.56L74.57,69.41L75.61,67.3L76.49,65.24L77.22,63.22L77.8,61.26L78.21,59.35L78.48,57.5L78.58,55.72L78.53,53.98L78.33,52.31L77.96,50.67L77.45,49.11L76.93,47.94L76.32,46.78L75.61,45.67L74.8,44.59L73.79,43.43L72.73,42.39L71.6,41.43L70.42,40.58L69.18,39.84L67.9,39.2L66.55,38.64L65.16,38.18L63.71,37.81L62.16,37.53L60.59,37.34L58.93,37.24L57.23,37.24L55.46,37.32L53.61,37.49L51.7,37.76L49.7,38.12L47.64,38.57L45.48,39.11L43.23,39.75L38.5,41.26L33.83,42.93L30.93,44.06L28.06,45.26L25.21,46.53L22.39,47.86L22.18,47.91L21.97,47.86L21.8,47.72L21.7,47.53L21.69,47.42L21.61,1.5L21.65,1.3L21.86,0.96L22.08,0.83L22.27,0.87L22.46,1.03ZM351.09,10.45C351.09,10.176 350.864,9.95 350.59,9.95L109.65,9.95C109.376,9.95 109.15,10.176 109.15,10.45L109.15,69.49C109.15,69.764 109.376,69.99 109.65,69.99L350.59,69.99C350.864,69.99 351.09,69.764 351.09,69.49L351.09,10.45ZM81.955,11.675L81.081,11.349L80.166,11.134L79.221,11.033L78.253,11.047L77.272,11.175L76.288,11.416L75.311,11.769L74.348,12.228L73.411,12.791L72.507,13.451L71.645,14.203L70.835,15.039L70.083,15.951L69.397,16.93L68.783,17.966L68.248,19.051L67.796,20.173L67.433,21.321L67.16,22.485L66.982,23.653L66.899,24.815L66.912,25.958L67.022,27.072L67.228,28.146L67.527,29.17L67.916,30.133L68.392,31.028L68.95,31.844L69.585,32.575L70.29,33.212L71.06,33.751L71.885,34.185L72.76,34.511L73.674,34.726L74.619,34.827L75.587,34.813L76.568,34.685L77.552,34.444L78.53,34.091L79.492,33.632L80.43,33.069L81.333,32.408L82.195,31.657L83.005,30.821L83.757,29.909L84.443,28.93L85.057,27.894L85.592,26.809L86.044,25.687L86.408,24.539L86.68,23.375L86.859,22.207L86.941,21.045L86.928,19.902L86.818,18.788L86.612,17.714L86.313,16.691L85.924,15.727L85.448,14.832L84.89,14.016L84.255,13.286L83.55,12.648L82.781,12.109L81.955,11.675ZM155.87,84.87L155.87,80.7L155.84,80.54L155.75,80.41L155.62,80.32L155.46,80.29L151.14,80.29L150.87,80.4L150.76,80.68L150.76,84.77L150.72,84.99L150.6,85.17L150.41,85.3L150.2,85.34L148.36,85.34L148.13,85.39L147.94,85.52L147.81,85.71L147.76,85.94L147.76,88.81L147.82,89.08L147.98,89.29L148.22,89.42L148.49,89.44L148.58,89.42L149.3,89.3L150.2,89.32L150.42,89.38L150.6,89.52L150.72,89.71L150.77,89.94L150.78,97.24L150.88,99.17L151.02,99.99L151.2,100.72L151.45,101.38L151.75,101.95L152.1,102.44L152.51,102.85L153.05,103.24L153.67,103.53L154.39,103.75L155.18,103.88L156.08,103.93L157.11,103.91L159.69,103.62L159.87,103.56L160.01,103.44L160.11,103.28L160.14,103.1L160.14,100L160.09,99.85L159.98,99.72L159.83,99.65L159.66,99.65L158.57,99.77L157.52,99.69L156.68,99.47L156.36,99.3L156.11,99.04L155.95,98.71L155.89,98.35L155.89,89.98L155.94,89.74L156.08,89.53L156.29,89.39L156.53,89.34L159.29,89.34L159.5,89.3L159.67,89.18L159.79,89.01L159.83,88.8L159.83,85.93L159.79,85.72L159.67,85.53L159.48,85.41L159.27,85.37L156.36,85.37L156.17,85.33L156.01,85.22L155.91,85.06L155.87,84.87ZM332.06,84.86L332.05,80.69L332.02,80.54L331.93,80.41L331.8,80.32L331.64,80.29L327.33,80.29L327.06,80.4L326.95,80.68L326.95,84.77L326.91,84.98L326.79,85.17L326.61,85.29L326.39,85.34L324.56,85.34L324.34,85.38L324.15,85.5L324.02,85.68L323.96,85.89L323.96,88.8L324.02,89.07L324.18,89.29L324.42,89.42L324.69,89.43L324.78,89.41L325.5,89.29L326.4,89.31L326.62,89.37L326.8,89.51L326.92,89.7L326.97,89.93L326.98,97.22L327.09,99.15L327.22,99.97L327.41,100.7L327.66,101.36L327.96,101.93L328.31,102.42L328.71,102.83L329.26,103.22L329.88,103.51L330.6,103.72L331.39,103.85L332.28,103.9L333.31,103.88L335.89,103.59L336.07,103.53L336.21,103.41L336.31,103.25L336.34,103.07L336.34,99.98L336.29,99.82L336.18,99.69L336.03,99.63L335.86,99.62L334.77,99.74L333.72,99.66L332.88,99.45L332.56,99.27L332.31,99.01L332.15,98.69L332.09,98.33L332.08,89.97L332.13,89.72L332.27,89.51L332.48,89.37L332.72,89.33L335.48,89.32L335.81,89.21L336,88.92L336.02,88.78L336.02,85.92L336.01,85.82L335.94,85.64L335.82,85.49L335.65,85.39L335.46,85.36L332.55,85.36L332.36,85.32L332.2,85.21L332.1,85.05L332.06,84.86ZM141.64,98.29L137.99,98.29L137.7,98.33L137.43,98.42L137.19,98.56L136.98,98.76L136.33,99.5L136.12,99.69L135.86,99.83L134.89,100.12L134.04,100.23L133.25,100.16L132.57,99.91L132.17,99.66L131.82,99.34L131.49,98.93L131.21,98.46L130.97,97.91L130.78,97.29L130.52,95.86L130.54,95.67L130.63,95.51L130.78,95.39L130.96,95.34L130.99,95.34L141.68,95.32L141.95,95.26L142.17,95.11L142.32,94.88L142.36,94.62L142.31,93.57L142.2,92.58L142.02,91.64L141.77,90.76L141.46,89.94L141.08,89.17L140.64,88.46L140.13,87.8L139.71,87.35L139.15,86.85L138.55,86.41L137.89,86.02L137.18,85.69L136.43,85.43L135.65,85.24L134.86,85.11L134.06,85.05L133.25,85.07L132.44,85.15L131.65,85.3L130.88,85.52L130.14,85.81L129.44,86.16L128.81,86.56L128.22,87.03L127.54,87.7L126.94,88.46L126.4,89.32L125.94,90.24L125.58,91.24L125.3,92.27L125.12,93.33L125.04,94.41L125.07,95.48L125.19,96.53L125.41,97.53L125.72,98.5L126.12,99.38L126.61,100.21L127.18,100.96L127.83,101.63L128.7,102.34L129.62,102.91L130.6,103.37L131.61,103.7L132.35,103.86L133.1,103.95L133.84,103.98L134.59,103.94L135.35,103.84L136.09,103.67L136.82,103.44L137.54,103.14L138.22,102.8L138.87,102.39L139.5,101.93L140.09,101.42L140.64,100.85L141.15,100.24L141.6,99.59L142.01,98.91L142.05,98.81L142.06,98.62L141.97,98.45L141.83,98.33L141.64,98.29ZM178.65,101.73L178.65,103.09L178.69,103.28L178.8,103.44L178.96,103.55L179.15,103.59L183.19,103.59L183.36,103.55L183.49,103.45L183.58,103.3L183.61,103.13L183.4,95.9L183.39,93.71L183.43,92.48L183.49,90.82L183.43,90.08L183.3,89.38L183.12,88.74L182.88,88.15L182.57,87.61L182.2,87.12L181.81,86.72L181.36,86.36L180.85,86.05L180.3,85.78L179.02,85.38L177.54,85.17L176.01,85.1L174.57,85.15L173.26,85.3L172.07,85.57L171.01,85.94L170.08,86.42L169.26,87.02L168.58,87.71L168.2,88.22L167.87,88.78L167.6,89.38L167.38,90.04L167.42,90.3L167.64,90.44L172.02,90.44L172.34,90.34L172.55,90.08L172.73,89.71L172.96,89.39L173.45,88.98L174.07,88.68L174.84,88.5L175.75,88.45L176.18,88.49L176.61,88.61L177,88.79L177.36,89.04L177.67,89.35L177.93,89.7L178.12,90.1L178.24,90.52L178.27,90.7L178.3,91L178.26,91.3L178.16,91.58L178.01,91.84L177.8,92.06L177.56,92.23L177.28,92.35L176.98,92.41L176.82,92.41L175.21,92.45L173.54,92.66L171.99,93.02L170.6,93.52L169.45,94.13L168.51,94.85L167.81,95.65L167.55,96.08L167.34,96.55L167.33,96.56L166.98,97.8L166.91,98.41L166.89,99L166.95,99.58L167.06,100.14L167.24,100.68L167.48,101.19L168.03,101.98L168.75,102.66L169.61,103.2L170.63,103.62L171.66,103.86L172.46,103.92L173.27,103.89L174.09,103.76L174.93,103.53L175.78,103.2L176.65,102.77L177.53,102.24L178.43,101.62L178.55,101.6L178.64,101.69L178.65,101.73ZM196.52,87.42L196.52,85.89L196.5,85.75L196.31,85.47L195.99,85.36L192.39,85.36L192.19,85.4L192.02,85.52L191.9,85.69L191.86,85.89L191.86,102.96L191.91,103.19L192.04,103.39L192.24,103.52L192.47,103.57L196.38,103.57L196.6,103.53L196.78,103.4L196.9,103.22L196.95,103L197.05,92.11L197.1,91.58L197.26,91.07L197.5,90.6L197.82,90.17L198.22,89.82L198.67,89.54L199.17,89.35L199.69,89.25L199.84,89.23L199.97,89.22L200.44,89.24L200.88,89.35L201.3,89.55L201.67,89.83L201.97,90.18L202.2,90.58L202.34,91.02L202.39,91.48L202.45,103.15L202.48,103.31L202.57,103.45L202.71,103.54L202.87,103.57L207.12,103.57L207.28,103.54L207.42,103.45L207.51,103.32L207.55,103.16L207.58,98.37L207.54,91.05L207.43,89.54L207.3,88.87L207.12,88.25L206.9,87.7L206.62,87.19L206.3,86.75L205.93,86.35L205.48,85.99L204.96,85.69L204.4,85.45L203.77,85.27L202.47,85.06L201.26,85.04L200.15,85.22L199.14,85.59L198.52,85.95L197.93,86.39L197.4,86.92L196.9,87.54L196.71,87.63L196.54,87.52L196.52,87.42ZM231.17,98.29L227.51,98.29L227.23,98.32L226.95,98.41L226.71,98.56L226.5,98.75L225.85,99.49L225.64,99.69L225.38,99.82L224.41,100.11L223.55,100.22L222.77,100.14L222.09,99.9L221.69,99.64L221.34,99.32L221.01,98.92L220.73,98.45L220.49,97.89L220.3,97.27L220.04,95.84L220.06,95.65L220.15,95.48L220.3,95.37L220.49,95.32L231.21,95.32L231.48,95.27L231.7,95.11L231.85,94.89L231.9,94.62L231.85,93.57L231.74,92.58L231.56,91.64L231.31,90.76L231,89.93L230.63,89.17L230.19,88.45L229.68,87.79L229.26,87.34L228.7,86.84L228.1,86.4L227.44,86L226.73,85.68L225.98,85.41L225.2,85.21L224.41,85.09L223.61,85.03L222.8,85.04L221.99,85.12L221.2,85.27L220.42,85.49L219.69,85.77L218.99,86.13L218.35,86.53L217.76,86.99L217.08,87.66L216.47,88.42L215.93,89.28L215.47,90.2L215.1,91.2L214.83,92.23L214.65,93.3L214.56,94.37L214.58,95.44L214.7,96.49L214.92,97.5L215.23,98.47L215.63,99.35L216.12,100.18L216.68,100.93L217.34,101.61L218.21,102.32L219.12,102.89L220.11,103.36L221.12,103.69L221.86,103.85L222.6,103.94L223.35,103.97L224.1,103.93L224.86,103.83L225.6,103.66L226.34,103.44L227.05,103.14L227.73,102.8L228.39,102.39L229.02,101.93L229.61,101.42L230.16,100.86L230.68,100.24L231.13,99.6L231.54,98.91L231.58,98.81L231.58,98.62L231.5,98.45L231.35,98.33L231.17,98.29ZM244.11,87.65L243.92,86.86L243.93,85.95L243.91,85.73L243.81,85.54L243.64,85.4L243.43,85.34L240,85.34L239.74,85.39L239.52,85.54L239.37,85.77L239.32,86.03L239.32,103.1L239.35,103.25L239.51,103.47L239.77,103.55L244.01,103.55L244.18,103.51L244.32,103.42L244.41,103.28L244.44,103.11L244.42,99.71L244.46,95.27L244.57,93.87L244.87,92.69L245.09,92.19L245.35,91.75L245.66,91.36L246.02,91.03L246.58,90.66L247.24,90.4L247.99,90.26L248.82,90.22L248.83,90.22L249.12,90.17L249.36,90L249.52,89.76L249.58,89.47L249.58,85.69L249.51,85.39L249.33,85.15L249.07,84.99L248.77,84.94L248.02,85.02L247.34,85.19L246.72,85.45L246.16,85.8L245.73,86.16L245.35,86.59L245.02,87.09L244.73,87.65L244.63,87.78L244.48,87.85L244.32,87.84L244.18,87.76L244.11,87.65ZM254.87,94.49L254.94,95.63L255.1,96.71L255.38,97.76L255.74,98.72L256.22,99.66L256.79,100.51L257.46,101.29L258.2,101.97L259.2,102.68L260.26,103.23L261.42,103.64L262.61,103.87L263.8,103.94L265,103.83L266.14,103.56L267.24,103.12L268,102.7L268.73,102.19L269.39,101.6L270,100.93L270.54,100.2L271.03,99.4L271.44,98.54L271.79,97.6L271.81,97.41L271.75,97.23L271.62,97.09L271.44,97.03L271.37,97.02L267.46,97.02L267.15,97.1L266.93,97.33L265.95,99.02L265.68,99.28L264.86,99.63L264.13,99.8L263.44,99.81L262.84,99.66L262.36,99.38L261.95,99L261.6,98.51L261.29,97.88L261.05,97.16L260.86,96.31L260.75,95.41L260.71,94.45L260.73,93.49L260.83,92.58L261.01,91.73L261.24,91L261.54,90.37L261.89,89.88L262.29,89.49L262.77,89.21L263.36,89.05L264.05,89.04L264.78,89.21L265.61,89.54L265.88,89.8L266.89,91.48L267.11,91.7L267.42,91.78L271.33,91.72L271.4,91.72L271.58,91.64L271.71,91.5L271.77,91.32L271.74,91.13L271.38,90.2L270.95,89.35L270.46,88.55L269.91,87.83L269.29,87.17L268.62,86.59L267.89,86.09L267.12,85.68L266.01,85.25L264.86,85L263.67,84.91L262.47,85L261.29,85.25L260.14,85.67L259.08,86.24L258.1,86.96L257.36,87.65L256.71,88.44L256.15,89.3L255.68,90.24L255.33,91.21L255.07,92.26L254.92,93.34L254.87,94.49ZM294.27,98.28L290.61,98.29L290.33,98.32L290.05,98.41L289.81,98.56L289.6,98.75L288.95,99.49L288.74,99.69L288.48,99.82L287.52,100.11L286.66,100.22L285.87,100.15L285.19,99.9L284.79,99.65L284.44,99.33L284.11,98.92L283.84,98.45L283.59,97.89L283.4,97.28L283.14,95.85L283.16,95.66L283.25,95.49L283.4,95.38L283.59,95.33L283.61,95.33L294.3,95.32L294.31,95.32L294.57,95.26L294.8,95.11L294.94,94.88L294.99,94.62L294.94,93.57L294.83,92.58L294.65,91.64L294.4,90.76L294.09,89.93L293.72,89.17L293.27,88.45L292.77,87.8L292.35,87.34L291.79,86.84L291.19,86.4L290.52,86.01L289.82,85.68L289.06,85.42L288.29,85.22L287.5,85.1L286.69,85.04L285.88,85.05L285.08,85.13L284.28,85.28L283.51,85.5L282.78,85.79L282.08,86.14L281.44,86.54L280.85,87.01L280.17,87.68L279.56,88.44L279.02,89.3L278.57,90.22L278.2,91.22L277.93,92.25L277.75,93.31L277.67,94.39L277.69,95.45L277.81,96.51L278.02,97.51L278.34,98.48L278.74,99.36L279.23,100.19L279.79,100.94L280.45,101.62L281.32,102.32L282.23,102.9L283.21,103.36L284.23,103.69L284.97,103.85L285.71,103.94L286.46,103.97L287.21,103.93L287.96,103.83L288.71,103.66L289.44,103.43L290.16,103.14L290.84,102.79L291.49,102.39L292.12,101.93L292.71,101.41L293.26,100.85L293.78,100.23L294.23,99.59L294.64,98.9L294.68,98.81L294.68,98.62L294.6,98.45L294.45,98.33L294.27,98.28ZM307.8,102.38L308.61,102.98L309.43,103.43L310.27,103.73L311.13,103.89L311.89,103.92L312.67,103.82L313.46,103.62L314.26,103.3L315.18,102.76L316.03,102L316.75,101.07L317.39,99.96L317.9,98.67L318.27,97.3L318.49,95.82L318.56,94.31L318.48,92.84L318.24,91.4L317.86,90.05L317.35,88.84L316.71,87.77L315.97,86.88L315.1,86.14L314.17,85.61L313.08,85.24L311.94,85.09L310.91,85.11L309.98,85.27L309.14,85.56L308.4,85.98L307.73,86.56L307.16,87.28L307.06,87.37L306.93,87.4L306.79,87.37L306.7,87.27L306.66,87.13L306.66,85.88L306.62,85.68L306.5,85.51L306.33,85.39L306.12,85.35L302.58,85.35L302.36,85.39L302.17,85.52L302.04,85.7L302,85.92L302,109.39L302.09,109.61L302.31,109.7L306.84,109.7L307.02,109.62L307.1,109.43L307.1,102.7L307.13,102.55L307.24,102.39L307.42,102.29L307.62,102.29L307.8,102.38Z" style="fill:rgb(33,18,97);fill-rule:nonzero;"/>
        <path d="M346.99,26.07C346.99,28.319 345.139,30.17 342.89,30.17C340.641,30.17 338.79,28.319 338.79,26.07C338.79,23.821 340.641,21.97 342.89,21.97C345.139,21.97 346.99,23.821 346.99,26.07ZM341.06,28.12L341.06,24.48L341.1,24.3L341.2,24.15L341.35,24.05L341.53,24.01L342.13,24.01L342.31,24.06L342.46,24.17L342.56,24.33L342.58,24.52L342.43,25.74L342.18,26.8L341.83,27.71L341.38,28.46L341.3,28.63L341.3,28.82L341.38,28.99L341.52,29.11L341.58,29.14L342.43,29.34L343.31,29.32L343.83,29.2L344.31,28.99L344.75,28.71L345.15,28.37L345.49,27.98L345.76,27.53L345.97,27.05L346.1,26.53L346.13,25.71L345.97,24.92L345.67,24.25L345.21,23.67L344.72,23.27L344.16,22.99L343.53,22.82L342.88,22.78L342.23,22.86L341.61,23.06L341.06,23.37L340.58,23.8L340.18,24.33L339.89,24.97L339.73,25.67L339.7,26.46L339.75,26.97L339.87,27.43L340.05,27.84L340.29,28.19L340.47,28.38L340.58,28.45L340.75,28.47L340.91,28.41L341.02,28.29L341.06,28.12Z" style="fill:rgb(33,18,97);fill-rule:nonzero;"/>
        <path d="M134.38,43.78L134.38,48.86L134.42,49.02L134.55,49.16L134.73,49.21L148.3,49.21L148.55,49.31L148.65,49.56L148.65,57.3L148.57,57.53L148.45,57.62L148.3,57.65L124.56,57.65L124.31,57.55L124.21,57.3L124.21,22.56L124.31,22.31L124.56,22.21L148.3,22.21L148.48,22.26L148.61,22.39L148.65,22.56L148.65,30L148.55,30.25L148.3,30.35L134.73,30.35L134.52,30.42L134.39,30.61L134.38,30.7L134.38,35.19L134.42,35.35L134.55,35.49L134.73,35.54L148.09,35.54L148.34,35.64L148.44,35.89L148.44,43.08L148.36,43.3L148.24,43.4L148.09,43.43L134.73,43.43L134.54,43.49L134.41,43.64L134.38,43.78Z" style="fill:rgb(33,18,97);fill-rule:nonzero;"/>
        <path d="M220.56,33.9L221.11,33.11L221.66,32.44L222.4,31.87L223.29,31.41L224.35,31.07L225.56,30.85L226.84,30.78L228.12,30.85L229.25,31.06L230.21,31.37L231.1,31.75L231.93,32.22L232.69,32.77L233.69,33.73L234.55,34.87L235.26,36.18L235.83,37.67L236.2,39L236.49,40.4L236.7,41.81L236.82,43.24L236.86,44.65L236.8,46.05L236.66,47.39L236.43,48.7L236.12,49.9L235.73,51.06L235.27,52.13L234.72,53.14L234.12,54.03L233.43,54.86L232.68,55.59L231.86,56.24L230.85,56.85L229.74,57.35L228.57,57.72L227.29,57.97L225.49,58.11L223.81,58.02L223.01,57.89L222.23,57.7L221.49,57.45L220.77,57.14L219.87,56.64L219.02,56.05L218.21,55.35L217.46,54.55L217.42,54.51L217.3,54.45L217.15,54.44L217.02,54.49L216.92,54.6L215.38,57.27L215.1,57.56L214.72,57.66L210.55,57.66L210.24,57.6L209.98,57.42L209.81,57.16L209.75,56.85L209.75,22.86L209.8,22.61L209.94,22.4L210.15,22.26L210.4,22.21L219.36,22.21L219.64,22.28L219.89,22.51L219.98,22.83L220.03,33.66L220.05,33.77L220.13,33.89L220.27,33.96L220.42,33.97L220.56,33.9ZM226.166,40.298C226.15,38.708 224.837,37.409 223.246,37.409C223.236,37.409 223.226,37.409 223.216,37.409L222.896,37.412C221.306,37.429 220.006,38.742 220.006,40.332C220.006,40.342 220.006,40.352 220.006,40.362L220.094,48.702C220.11,50.292 221.423,51.591 223.014,51.591C223.024,51.591 223.034,51.591 223.044,51.591L223.364,51.588C224.954,51.571 226.254,50.258 226.254,48.668C226.254,48.658 226.254,48.648 226.254,48.638L226.166,40.298Z" style="fill:rgb(33,18,97);fill-rule:nonzero;"/>
        <path d="M335.65,57.3C335.65,57.497 335.487,57.66 335.29,57.66L325.83,57.66C325.633,57.66 325.47,57.497 325.47,57.3L325.47,22.56C325.47,22.363 325.633,22.2 325.83,22.2L335.29,22.2C335.487,22.2 335.65,22.363 335.65,22.56L335.65,57.3Z" style="fill:rgb(33,18,97);fill-rule:nonzero;"/>
        <path d="M343.53,24.1L344.62,24.1L344.84,24.17L345.01,24.33L345.1,24.54L345.1,24.77L345.08,24.87L344.83,25.59L344.43,26.27L344.29,26.57L344.26,26.9L344.34,27.22L344.52,27.5L344.6,27.6L344.62,27.82L344.53,28.02L344.34,28.15L344.12,28.16L343.92,28.06L343.41,27.54L343.08,27.08L342.93,26.68L342.95,26.34L343.05,26.15L343.23,25.99L343.66,25.6L343.76,25.43L343.77,25.26L343.73,25.15L343.36,24.77L343.34,24.76L343.21,24.63L343.17,24.45L343.22,24.28L343.35,24.15L343.53,24.1Z" style="fill:rgb(33,18,97);fill-rule:nonzero;"/>
        <path d="M176.69,34.31L177.64,33.26L178.66,32.39L179.74,31.7L180.88,31.19L181.7,30.95L182.55,30.79L183.44,30.71L184.35,30.72L185.29,30.82L186.26,31L187.27,31.26L188.3,31.61L189.03,31.94L189.67,32.35L190.33,32.93L190.88,33.59L191.34,34.34L191.74,35.23L192.05,36.19L192.28,37.26L192.42,38.45L192.48,39.71L192.54,47.83L192.52,57.03L192.46,57.3L192.23,57.55L191.9,57.65L182.73,57.65L182.53,57.61L182.36,57.5L182.25,57.34L182.21,57.14L182.2,40.14L182.15,39.69L182.02,39.26L181.8,38.87L181.5,38.53L181.14,38.26L180.73,38.07L180.29,37.96L179.84,37.95L179.68,37.97L179.48,37.99L178.97,38.09L178.49,38.29L178.05,38.57L177.67,38.92L177.36,39.34L177.13,39.8L176.99,40.3L176.94,40.82L176.89,57.14L176.85,57.33L176.74,57.49L176.58,57.6L176.39,57.64L167.18,57.64L166.98,57.6L166.81,57.49L166.7,57.32L166.66,57.12L166.66,31.98L166.72,31.68L166.89,31.43L167.14,31.26L167.43,31.2L175.67,31.2L175.88,31.24L176.07,31.34L176.25,31.57L176.31,31.84L176.31,34.17L176.41,34.35L176.62,34.37L176.69,34.31Z" style="fill:rgb(33,18,97);fill-rule:nonzero;"/>
        <path d="M261.77,35.18L262.41,33.85L263.17,32.76L263.59,32.31L264.04,31.91L264.52,31.57L265.03,31.28L266.01,30.92L267.09,30.75L268.25,30.77L269.51,30.98L269.84,31.12L270.11,31.36L270.29,31.68L270.35,32.03L270.36,39.55L270.35,39.66L270.25,39.83L270.09,39.95L269.89,39.98L269.7,39.93L267.03,39.72L265.88,39.73L264.89,39.89L264.05,40.22L263.36,40.72L262.8,41.4L262.41,42.25L262.18,43.28L262.11,44.48L262.17,52.74L262.14,57.1L262.09,57.31L261.97,57.49L261.79,57.61L261.57,57.65L252.52,57.65L252.3,57.61L252.11,57.48L251.98,57.29L251.94,57.07L251.94,32.14L252.01,31.78L252.21,31.48L252.51,31.28L252.86,31.2L260.5,31.2L260.83,31.26L261.1,31.45L261.29,31.72L261.35,32.05L261.35,35.1L261.39,35.22L261.48,35.3L261.59,35.32L261.7,35.27L261.77,35.18Z" style="fill:rgb(33,18,97);fill-rule:nonzero;"/>
        <path d="M309.32,49.59L309.59,49.65L309.8,49.82L309.92,50.06L309.93,50.33L309.89,50.45L309.1,51.99L308.62,52.72L308.1,53.4L307.52,54.05L306.91,54.65L306.24,55.22L305.53,55.74L304.02,56.64L302.34,57.35L300.52,57.87L298.64,58.17L296.69,58.26L294.74,58.12L292.82,57.78L290.96,57.23L289.21,56.48L287.59,55.54L286.14,54.44L284.91,53.21L284.35,52.54L283.85,51.83L283.41,51.1L283.02,50.34L282.66,49.46L282.36,48.54L282.14,47.6L281.99,46.63L281.91,45.65L281.91,44.63L281.97,43.61L282.11,42.55L282.35,41.36L282.66,40.23L283.06,39.14L283.52,38.11L284.06,37.13L284.67,36.23L285.36,35.36L286.11,34.57L286.78,33.96L287.49,33.41L288.24,32.9L289.02,32.45L289.85,32.04L290.71,31.69L291.59,31.39L292.5,31.15L294.4,30.83L296.38,30.75L298.37,30.89L300.4,31.27L302.11,31.79L303.67,32.47L305.07,33.32L306.3,34.34L307.23,35.33L308.05,36.45L308.75,37.69L309.33,39.05L309.8,40.53L310.15,42.13L310.39,43.86L310.52,45.7L310.47,46.01L310.3,46.27L310.05,46.45L309.74,46.52L293.44,46.52L293.21,46.56L293.02,46.68L292.88,46.87L292.82,47.09L292.81,47.74L292.88,48.35L293.05,48.93L293.3,49.46L293.8,50.15L294.43,50.7L295.2,51.12L296.03,51.38L296.91,51.47L297.78,51.38L298.59,51.13L299.33,50.69L299.7,50.38L300.03,50.02L300.44,49.7L300.94,49.59L309.32,49.59ZM293.12,41.34L299.66,41.36L299.9,41.27L299.99,41.03L300,40.42L299.93,39.72L299.74,39.04L299.42,38.41L298.99,37.86L298.47,37.41L297.88,37.07L297.23,36.86L296.56,36.79L296.26,36.79L295.58,36.86L294.94,37.06L294.34,37.39L293.81,37.84L293.38,38.39L293.06,39.01L292.86,39.69L292.8,40.4L292.79,41.01L292.89,41.24L293.12,41.34Z" style="fill:rgb(33,18,97);fill-rule:nonzero;"/>
        <path d="M21.68,114.72L21.68,53.48L21.76,53.25L21.97,53.12L25.27,52.39L28.37,51.84L31.32,51.48L34.13,51.29L36.74,51.29L39.2,51.46L41.48,51.82L43.6,52.36L44.93,52.86L46.09,53.48L47.13,54.23L48.01,55.09L48.75,56.07L49.36,57.2L49.82,58.41L50.15,59.77L50.33,61.22L50.37,62.81L50.27,64.52L50.03,66.33L49.64,68.28L49.11,70.33L48.43,72.49L47.62,74.72L46.68,77.04L45.6,79.43L44.41,81.84L43.16,84.16L40.84,88.17L38.44,92.13L35.94,96.05L33.36,99.91L30.69,103.73L27.93,107.5L25.09,111.22L22.15,114.89L22.06,114.96L21.93,114.99L21.8,114.94L21.71,114.85L21.68,114.72Z" style="fill:rgb(33,18,97);fill-rule:nonzero;"/>
        <path d="M131.11,92.3L130.94,92.26L130.79,92.12L130.73,91.91L130.73,91.62L130.79,90.99L130.97,90.39L131.26,89.83L131.65,89.34L132.12,88.94L132.67,88.64L133.25,88.46L133.86,88.4L134.08,88.4L134.69,88.46L135.28,88.65L135.82,88.95L136.29,89.35L136.68,89.84L136.97,90.4L137.15,91.01L137.21,91.64L137.21,91.93L137.1,92.19L136.83,92.3L131.11,92.3Z" style="fill:rgb(33,18,97);fill-rule:nonzero;"/>
        <path d="M220.59,92.32L220.35,92.22L220.25,91.98L220.24,91.73L220.3,91.1L220.46,90.48L220.74,89.91L221.11,89.41L221.57,89L222.09,88.69L222.66,88.5L223.25,88.43L223.63,88.43L224.22,88.48L224.8,88.66L225.32,88.96L225.79,89.36L226.17,89.85L226.46,90.42L226.64,91.03L226.7,91.67L226.71,91.92L226.68,92.06L226.55,92.21L226.37,92.26L220.59,92.32Z" style="fill:rgb(33,18,97);fill-rule:nonzero;"/>
        <path d="M283.95,92.32L283.64,92.23L283.45,92.03L283.38,91.76L283.38,91.53L283.44,90.93L283.61,90.35L283.89,89.81L284.27,89.34L284.74,88.95L285.27,88.66L285.85,88.48L286.46,88.41L286.64,88.41L287.25,88.46L287.83,88.63L288.37,88.91L288.85,89.29L289.24,89.76L289.53,90.29L289.72,90.86L289.78,91.47L289.78,91.7L289.68,92.03L289.48,92.2L289.23,92.26L283.95,92.32Z" style="fill:rgb(33,18,97);fill-rule:nonzero;"/>
        <path d="M310.142,88.55L310.751,88.672L311.334,89.015L311.869,89.568L312.334,90.308L312.712,91.209L312.989,92.234L313.154,93.345L313.2,94.498L313.126,95.65L312.934,96.757L312.632,97.775L312.232,98.666L311.749,99.395L311.201,99.934L310.61,100.263L309.998,100.37L309.389,100.249L308.806,99.905L308.271,99.352L307.806,98.612L307.428,97.711L307.151,96.686L306.986,95.575L306.94,94.422L307.015,93.27L307.206,92.163L307.508,91.145L307.908,90.254L308.391,89.525L308.939,88.986L309.53,88.656L310.142,88.55Z" style="fill:rgb(33,18,97);fill-rule:nonzero;"/>
        <path d="M178.24,95.16L178.3,95.44L178.19,96.87L177.9,98.06L177.68,98.57L177.41,99.03L177.1,99.42L176.74,99.75L176.72,99.77L176,100.26L175.31,100.58L174.67,100.72L174.08,100.67L173.46,100.41L172.89,99.91L172.47,99.29L172.28,98.65L172.3,98.05L172.51,97.43L172.91,96.79L173.49,96.12L173.51,96.11L173.88,95.79L174.31,95.53L174.79,95.32L175.32,95.16L176.54,95.01L177.98,95.07L178.24,95.16Z" style="fill:rgb(33,18,97);fill-rule:nonzero;"/>
        <path d="M22.46,0.31L22.44,0.34L22.36,0.61L22.46,1.03L22.27,0.87L22.08,0.83L21.86,0.96L21.65,1.3L21.61,1.5L21.69,47.42L21.7,47.53L21.8,47.72L21.97,47.86L22.18,47.91L22.39,47.86L25.21,46.53L28.06,45.26L30.93,44.06L33.83,42.93L38.5,41.26L43.23,39.75L45.48,39.11L47.64,38.57L49.7,38.12L51.7,37.76L53.61,37.49L55.46,37.32L57.23,37.24L58.93,37.24L60.59,37.34L62.16,37.53L63.71,37.81L65.16,38.18L66.55,38.64L67.9,39.2L69.18,39.84L70.42,40.58L71.6,41.43L72.73,42.39L73.79,43.43L74.8,44.59L75.61,45.67L76.32,46.78L76.93,47.94L77.45,49.11L77.96,50.67L78.33,52.31L78.53,53.98L78.58,55.72L78.48,57.5L78.21,59.35L77.8,61.26L77.22,63.22L76.49,65.24L75.61,67.3L74.57,69.41L73.38,71.56L72.03,73.76L70.54,75.97L68.93,78.19L67.17,80.44L63.13,85.31L58.96,90.11L54.67,94.84L50.26,99.5L45.71,104.09L41.04,108.62L36.25,113.07L31.33,117.45L31.23,117.6L31.21,117.78L31.27,117.94L31.41,118.06L31.56,118.09L81.23,118.09L81.66,118.02L82.05,117.82L82.35,117.5L82.54,117.11L83.09,114.83L83.47,112.32L83.64,109.86L83.61,107.53L83.37,105.49L83.18,104.58L82.93,103.7L82.65,102.92L82.31,102.2L81.93,101.55L81.5,100.97L80.72,100.15L79.85,99.41L78.87,98.74L77.75,98.13L76.53,97.59L75.19,97.12L73.77,96.73L72.23,96.4L70.57,96.15L68.82,95.97L66.98,95.87L65.08,95.86L63.12,95.92L61.16,96.07L59.22,96.29L57.39,96.59L57.24,96.57L57.15,96.48L57.12,96.35L57.16,96.23L57.26,96.15L60.24,94.91L63.23,93.78L66.23,92.77L69.24,91.87L72.26,91.07L75.29,90.39L78.32,89.83L81.37,89.37L82.78,89.23L84.21,89.16L85.63,89.19L86.98,89.29L88.28,89.49L89.49,89.76L90.63,90.1L91.71,90.54L93.13,91.3L94.37,92.2L95.38,93.2L96.21,94.34L96.7,95.27L97.07,96.25L97.34,97.31L97.49,98.41L97.54,99.59L97.47,100.86L97.3,102.16L97.02,103.54L96.63,104.98L96.14,106.47L95.54,108.05L94.82,109.69L94.01,111.4L93.09,113.18L90.74,117.31L90.68,117.5L90.69,117.7L90.79,117.87L90.94,118L90.97,118.01L91.66,118.18L92.46,118.16L91.9,118.21L91.34,118.33L90.79,118.52L90.23,118.78L71.94,142.99L71.79,143.05L71.67,142.95L71.66,142.87L71.78,142.47L72,142.02L74.33,137.75L76.47,133.41L78.43,129L80.2,124.52L81.14,121.91L82.02,119.27L82.03,119.22L81.96,118.96L81.71,118.85L30.53,118.85L30.13,118.89L29.75,118.99L29.39,119.16L29.06,119.39L25.89,122.03L22.68,124.61L19.43,127.12L16.14,129.56L12.81,131.93L9.44,134.24L6.03,136.48L2.58,138.66L2.44,138.69L2.32,138.65L2.24,138.55L2.22,138.42L2.28,138.3L20.55,117.31L20.79,116.89L20.88,116.41L20.88,53.67L20.85,53.51L20.75,53.38L20.61,53.3L20.45,53.29L20.4,53.3L1.87,58.71L1.8,58.71L1.73,58.61L1.79,58.51L20.53,48.53L20.79,48.28L20.88,47.94L20.88,0.93L20.92,0.7L21.04,0.5L21.22,0.35L21.44,0.27L21.91,0.25L22.46,0.31ZM21.68,114.72L21.71,114.85L21.8,114.94L21.93,114.99L22.06,114.96L22.15,114.89L25.09,111.22L27.93,107.5L30.69,103.73L33.36,99.91L35.94,96.05L38.44,92.13L40.84,88.17L43.16,84.16L44.41,81.84L45.6,79.43L46.68,77.03L47.63,74.71L48.43,72.48L49.11,70.32L49.64,68.27L50.03,66.32L50.27,64.51L50.37,62.8L50.33,61.22L50.15,59.77L49.82,58.41L49.36,57.19L48.75,56.07L48.01,55.09L47.13,54.23L46.09,53.48L44.93,52.86L43.6,52.36L41.48,51.82L39.2,51.46L36.74,51.29L34.13,51.29L31.32,51.48L28.37,51.84L25.27,52.39L21.97,53.12L21.76,53.25L21.68,53.48L21.68,114.72Z" style="fill:rgb(115,202,193);fill-rule:nonzero;"/>
        <path d="M351.09,69.49C351.09,69.764 350.864,69.99 350.59,69.99L109.65,69.99C109.376,69.99 109.15,69.764 109.15,69.49L109.15,10.45C109.15,10.176 109.376,9.95 109.65,9.95L350.59,9.95C350.864,9.95 351.09,10.176 351.09,10.45L351.09,69.49ZM346.99,26.07C346.99,23.821 345.139,21.97 342.89,21.97C340.641,21.97 338.79,23.821 338.79,26.07C338.79,28.319 340.641,30.17 342.89,30.17C345.139,30.17 346.99,28.319 346.99,26.07ZM134.38,43.78L134.46,43.56L134.58,43.46L134.73,43.43L148.09,43.43L148.28,43.37L148.41,43.22L148.44,43.08L148.44,35.89L148.4,35.73L148.27,35.59L148.09,35.54L134.73,35.54L134.48,35.44L134.38,35.19L134.38,30.7L134.46,30.48L134.58,30.38L134.73,30.35L148.3,30.35L148.55,30.25L148.65,30L148.65,22.56L148.55,22.31L148.3,22.21L124.53,22.21L124.3,22.32L124.21,22.56L124.21,57.3L124.22,57.36L124.34,57.57L124.56,57.65L148.3,57.65L148.55,57.55L148.65,57.3L148.65,49.56L148.61,49.4L148.48,49.26L148.3,49.21L134.73,49.21L134.48,49.11L134.38,48.86L134.38,43.78ZM220.03,33.66L219.98,22.83L219.93,22.59L219.8,22.39L219.6,22.26L219.36,22.21L210.4,22.21L210.15,22.26L209.94,22.4L209.8,22.61L209.75,22.86L209.75,56.85L209.81,57.16L209.98,57.42L210.24,57.6L210.55,57.66L214.72,57.66L215.1,57.56L215.38,57.27L216.92,54.6L217.02,54.49L217.15,54.44L217.3,54.45L217.42,54.51L217.46,54.55L218.21,55.35L219.02,56.05L219.87,56.64L220.77,57.14L221.49,57.45L222.23,57.7L223.01,57.89L223.81,58.02L225.49,58.11L227.29,57.97L228.57,57.72L229.74,57.35L230.85,56.85L231.86,56.24L232.68,55.59L233.43,54.86L234.12,54.03L234.72,53.14L235.27,52.13L235.73,51.06L236.12,49.9L236.43,48.7L236.66,47.39L236.8,46.05L236.86,44.65L236.82,43.24L236.7,41.81L236.49,40.4L236.2,39L235.83,37.67L235.26,36.18L234.55,34.87L233.69,33.73L232.69,32.77L231.93,32.22L231.1,31.75L230.21,31.37L229.25,31.06L228.12,30.85L226.84,30.78L225.56,30.85L224.35,31.07L223.29,31.41L222.4,31.87L221.66,32.44L221.11,33.11L220.56,33.9L220.42,33.97L220.27,33.96L220.13,33.89L220.05,33.77L220.03,33.66ZM335.65,22.56C335.65,22.363 335.487,22.2 335.29,22.2L325.83,22.2C325.633,22.2 325.47,22.363 325.47,22.56L325.47,57.3C325.47,57.497 325.633,57.66 325.83,57.66L335.29,57.66C335.487,57.66 335.65,57.497 335.65,57.3L335.65,22.56ZM176.31,34.17L176.31,31.84L176.26,31.6L176.12,31.39L175.91,31.25L175.67,31.2L167.43,31.2L167.14,31.26L166.89,31.43L166.72,31.68L166.66,31.98L166.66,57.12L166.68,57.28L166.87,57.54L167.18,57.64L176.39,57.64L176.58,57.6L176.74,57.49L176.85,57.33L176.89,57.14L176.94,40.82L176.99,40.3L177.13,39.8L177.36,39.34L177.67,38.92L178.05,38.57L178.49,38.29L178.97,38.09L179.48,37.99L179.68,37.97L179.84,37.95L180.29,37.96L180.73,38.07L181.14,38.26L181.5,38.53L181.8,38.87L182.02,39.26L182.15,39.69L182.2,40.14L182.21,57.14L182.25,57.34L182.36,57.5L182.53,57.61L182.73,57.65L191.9,57.65L192.14,57.6L192.34,57.47L192.47,57.27L192.52,57.03L192.54,47.83L192.48,39.71L192.42,38.45L192.28,37.26L192.05,36.19L191.74,35.23L191.34,34.34L190.88,33.59L190.33,32.93L189.67,32.35L189.03,31.94L188.3,31.61L187.27,31.26L186.26,31L185.29,30.82L184.35,30.72L183.44,30.71L182.55,30.79L181.7,30.95L180.88,31.19L179.74,31.7L178.66,32.39L177.64,33.26L176.69,34.31L176.62,34.37L176.41,34.35L176.31,34.17ZM261.35,35.1L261.35,32.05L261.29,31.72L261.1,31.45L260.83,31.26L260.5,31.2L252.88,31.2L252.52,31.27L252.22,31.48L252.01,31.78L251.94,32.14L251.94,57.07L251.95,57.18L252.02,57.36L252.15,57.52L252.32,57.62L252.52,57.65L261.57,57.65L261.79,57.61L261.97,57.49L262.09,57.31L262.14,57.1L262.17,52.74L262.11,44.48L262.18,43.28L262.41,42.25L262.8,41.4L263.36,40.72L264.05,40.22L264.89,39.89L265.88,39.73L267.03,39.72L269.7,39.93L269.89,39.98L270.09,39.95L270.25,39.83L270.35,39.66L270.36,39.55L270.35,32.03L270.29,31.68L270.11,31.36L269.84,31.12L269.51,30.98L268.25,30.77L267.09,30.75L266.01,30.92L265.03,31.28L264.52,31.57L264.04,31.91L263.59,32.31L263.17,32.76L262.41,33.85L261.77,35.18L261.7,35.27L261.59,35.32L261.48,35.3L261.39,35.22L261.35,35.1ZM309.32,49.59L300.94,49.59L300.44,49.7L300.03,50.02L299.7,50.38L299.33,50.69L298.59,51.13L297.78,51.38L296.91,51.47L296.03,51.38L295.2,51.12L294.43,50.7L293.8,50.15L293.3,49.46L293.05,48.93L292.88,48.35L292.81,47.74L292.82,47.09L292.88,46.87L293.02,46.68L293.21,46.56L293.44,46.52L309.74,46.52L310.05,46.45L310.3,46.27L310.47,46.01L310.52,45.7L310.39,43.86L310.15,42.13L309.8,40.53L309.33,39.05L308.75,37.69L308.05,36.45L307.23,35.33L306.3,34.34L305.07,33.32L303.67,32.47L302.11,31.79L300.4,31.27L298.37,30.89L296.38,30.75L294.4,30.83L292.5,31.15L291.59,31.39L290.71,31.69L289.85,32.04L289.02,32.45L288.24,32.9L287.49,33.41L286.78,33.96L286.11,34.57L285.36,35.36L284.67,36.23L284.06,37.13L283.52,38.11L283.06,39.14L282.66,40.23L282.35,41.36L282.11,42.55L281.97,43.61L281.91,44.63L281.91,45.65L281.99,46.63L282.14,47.6L282.36,48.54L282.66,49.46L283.02,50.34L283.41,51.1L283.85,51.83L284.35,52.54L284.91,53.21L286.14,54.44L287.59,55.54L289.21,56.48L290.96,57.23L292.82,57.78L294.74,58.12L296.69,58.26L298.64,58.17L300.52,57.87L302.34,57.35L304.02,56.64L305.53,55.74L306.24,55.22L306.91,54.65L307.52,54.05L308.1,53.4L308.62,52.72L309.1,51.99L309.89,50.45L309.93,50.33L309.92,50.06L309.8,49.82L309.59,49.65L309.32,49.59Z" style="fill:rgb(115,202,193);fill-rule:nonzero;"/>
        <path d="M81.955,11.675L82.781,12.109L83.55,12.648L84.255,13.286L84.89,14.016L85.448,14.832L85.924,15.727L86.313,16.691L86.612,17.714L86.818,18.788L86.928,19.902L86.941,21.045L86.859,22.207L86.68,23.375L86.408,24.539L86.044,25.687L85.592,26.809L85.057,27.894L84.443,28.93L83.757,29.909L83.005,30.821L82.195,31.657L81.333,32.408L80.43,33.069L79.492,33.632L78.53,34.091L77.552,34.444L76.568,34.685L75.587,34.813L74.619,34.827L73.674,34.726L72.76,34.511L71.885,34.185L71.06,33.751L70.29,33.212L69.585,32.575L68.95,31.844L68.392,31.028L67.916,30.133L67.527,29.17L67.228,28.146L67.022,27.072L66.912,25.958L66.899,24.815L66.982,23.653L67.16,22.485L67.433,21.321L67.796,20.173L68.248,19.051L68.783,17.966L69.397,16.93L70.083,15.951L70.835,15.039L71.645,14.203L72.507,13.451L73.411,12.791L74.348,12.228L75.311,11.769L76.288,11.416L77.272,11.175L78.253,11.047L79.221,11.033L80.166,11.134L81.081,11.349L81.955,11.675Z" style="fill:rgb(115,202,193);fill-rule:nonzero;"/>
        <path d="M340.47,28.38L340.29,28.19L340.05,27.84L339.87,27.43L339.75,26.97L339.7,26.46L339.73,25.67L339.89,24.97L340.18,24.33L340.58,23.8L341.06,23.37L341.61,23.06L342.23,22.86L342.88,22.78L343.53,22.82L344.16,22.99L344.72,23.27L345.21,23.67L345.67,24.25L345.97,24.92L346.13,25.71L346.1,26.53L345.97,27.05L345.76,27.53L345.49,27.98L345.15,28.37L344.75,28.71L344.31,28.99L343.83,29.2L343.31,29.32L342.43,29.34L341.58,29.14L341.52,29.11L341.38,28.99L341.3,28.82L341.3,28.63L341.38,28.46L341.83,27.71L342.18,26.8L342.43,25.74L342.58,24.52L342.56,24.33L342.46,24.17L342.31,24.06L342.13,24.01L341.53,24.01L341.35,24.05L341.2,24.15L341.1,24.3L341.06,24.48L341.06,28.12L341.02,28.29L340.91,28.41L340.75,28.47L340.58,28.45L340.47,28.38ZM343.34,24.76L343.36,24.77L343.73,25.15L343.77,25.26L343.76,25.43L343.66,25.6L343.23,25.99L343.05,26.15L342.95,26.34L342.93,26.68L343.08,27.08L343.41,27.54L343.92,28.06L344.12,28.16L344.34,28.15L344.53,28.02L344.62,27.82L344.6,27.6L344.52,27.5L344.34,27.22L344.26,26.9L344.29,26.57L344.43,26.27L344.83,25.59L345.08,24.87L345.1,24.77L345.1,24.54L345.01,24.33L344.84,24.17L344.62,24.1L343.53,24.1L343.35,24.15L343.22,24.28L343.17,24.45L343.21,24.63L343.34,24.76Z" style="fill:rgb(115,202,193);fill-rule:nonzero;"/>
        <path d="M293.12,41.34L293.05,41.33L292.86,41.21L292.79,41.01L292.8,40.4L292.86,39.69L293.06,39.01L293.38,38.39L293.81,37.84L294.34,37.39L294.94,37.06L295.58,36.86L296.26,36.79L296.56,36.79L297.23,36.86L297.88,37.07L298.47,37.41L298.99,37.86L299.42,38.41L299.74,39.04L299.93,39.72L300,40.42L299.99,41.03L299.9,41.27L299.66,41.36L293.12,41.34Z" style="fill:rgb(115,202,193);fill-rule:nonzero;"/>
        <path d="M226.254,48.638C226.254,48.648 226.254,48.658 226.254,48.668C226.254,50.258 224.954,51.571 223.364,51.588L223.044,51.591C223.034,51.591 223.024,51.591 223.014,51.591C221.423,51.591 220.11,50.292 220.094,48.702L220.006,40.362C220.006,40.352 220.006,40.342 220.006,40.332C220.006,38.742 221.306,37.429 222.896,37.412L223.216,37.409C223.226,37.409 223.236,37.409 223.246,37.409C224.837,37.409 226.15,38.708 226.166,40.298L226.254,48.638Z" style="fill:rgb(115,202,193);fill-rule:nonzero;"/>
        <path d="M90.23,118.78L90.79,118.52L91.34,118.33L91.9,118.21L92.46,118.16L359.21,118.26L359.49,118.2L359.73,118.04L359.89,117.8L359.95,117.51L359.95,1.54L359.91,1.33L359.79,1.16L359.62,1.04L359.42,1L22.46,1.03L22.36,0.61L22.44,0.34L22.46,0.31L360.48,0.31L360.66,0.39L360.73,0.57L360.73,118.5L360.64,118.71L360.43,118.8L90.23,118.78Z" style="fill:white;fill-rule:nonzero;"/>
        <path d="M156.36,85.37L159.27,85.37L159.48,85.41L159.67,85.53L159.79,85.72L159.83,85.93L159.83,88.8L159.79,89.01L159.67,89.18L159.5,89.3L159.29,89.34L156.53,89.34L156.29,89.39L156.08,89.53L155.94,89.74L155.89,89.98L155.89,98.35L155.95,98.71L156.11,99.04L156.36,99.3L156.68,99.47L157.52,99.69L158.57,99.77L159.66,99.65L159.83,99.65L159.98,99.72L160.09,99.85L160.14,100L160.14,103.1L160.11,103.28L160.01,103.44L159.87,103.56L159.69,103.62L157.11,103.91L156.08,103.93L155.18,103.88L154.39,103.75L153.67,103.53L153.05,103.24L152.51,102.85L152.1,102.44L151.75,101.95L151.45,101.38L151.2,100.72L151.02,99.99L150.88,99.17L150.78,97.24L150.77,89.94L150.72,89.71L150.6,89.52L150.42,89.38L150.2,89.32L149.3,89.3L148.58,89.42L148.49,89.44L148.22,89.42L147.98,89.29L147.82,89.08L147.76,88.81L147.76,85.94L147.81,85.71L147.94,85.52L148.13,85.39L148.36,85.34L150.2,85.34L150.41,85.3L150.6,85.17L150.72,84.99L150.76,84.77L150.76,80.68L150.87,80.4L151.14,80.29L155.46,80.29L155.69,80.36L155.82,80.51L155.87,80.7L155.87,84.87L155.91,85.06L156.01,85.22L156.17,85.33L156.36,85.37Z" style="fill:white;fill-rule:nonzero;"/>
        <path d="M332.06,84.86L332.1,85.05L332.2,85.21L332.36,85.32L332.55,85.36L335.46,85.36L335.67,85.4L335.85,85.52L335.97,85.7L336.02,85.92L336.02,88.78L335.92,89.09L335.73,89.26L335.48,89.32L332.72,89.33L332.48,89.37L332.27,89.51L332.13,89.72L332.08,89.97L332.09,98.33L332.15,98.69L332.31,99.01L332.56,99.27L332.88,99.45L333.72,99.66L334.77,99.74L335.86,99.62L336.03,99.63L336.18,99.69L336.29,99.82L336.34,99.98L336.34,103.07L336.31,103.25L336.21,103.41L336.07,103.53L335.89,103.59L333.31,103.88L332.28,103.9L331.39,103.85L330.6,103.72L329.88,103.51L329.26,103.22L328.71,102.83L328.31,102.42L327.96,101.93L327.66,101.36L327.41,100.7L327.22,99.97L327.09,99.15L326.98,97.22L326.97,89.93L326.92,89.7L326.8,89.51L326.62,89.37L326.4,89.31L325.5,89.29L324.78,89.41L324.69,89.43L324.42,89.42L324.18,89.29L324.02,89.07L323.96,88.8L323.96,85.94L324.02,85.67L324.24,85.43L324.56,85.34L326.39,85.34L326.61,85.29L326.79,85.17L326.91,84.98L326.95,84.77L326.95,80.68L327.06,80.4L327.33,80.29L331.64,80.29L331.92,80.39L332.02,80.53L332.05,80.69L332.06,84.86Z" style="fill:white;fill-rule:nonzero;"/>
        <path d="M141.64,98.29L141.83,98.33L141.97,98.45L142.06,98.62L142.05,98.81L142.01,98.91L141.6,99.59L141.15,100.24L140.64,100.85L140.09,101.42L139.5,101.93L138.87,102.39L138.22,102.8L137.54,103.14L136.82,103.44L136.09,103.67L135.35,103.84L134.59,103.94L133.84,103.98L133.1,103.95L132.35,103.86L131.61,103.7L130.6,103.37L129.62,102.91L128.7,102.34L127.83,101.63L127.18,100.96L126.61,100.21L126.12,99.38L125.72,98.5L125.41,97.53L125.19,96.53L125.07,95.48L125.04,94.41L125.12,93.33L125.3,92.27L125.58,91.24L125.94,90.24L126.4,89.32L126.94,88.46L127.54,87.7L128.22,87.03L128.81,86.56L129.44,86.16L130.14,85.81L130.88,85.52L131.65,85.3L132.44,85.15L133.25,85.07L134.06,85.05L134.86,85.11L135.65,85.24L136.43,85.43L137.18,85.69L137.89,86.02L138.55,86.41L139.15,86.85L139.71,87.35L140.13,87.8L140.64,88.46L141.08,89.17L141.46,89.94L141.77,90.76L142.02,91.64L142.2,92.58L142.31,93.57L142.36,94.62L142.32,94.88L142.17,95.11L141.95,95.26L141.68,95.32L130.99,95.34L130.96,95.34L130.78,95.39L130.63,95.51L130.54,95.67L130.52,95.86L130.78,97.29L130.97,97.91L131.21,98.46L131.49,98.93L131.82,99.34L132.17,99.66L132.57,99.91L133.25,100.16L134.04,100.23L134.89,100.12L135.86,99.83L136.12,99.69L136.33,99.5L136.98,98.76L137.19,98.56L137.43,98.42L137.7,98.33L137.99,98.29L141.64,98.29ZM131.11,92.3L136.83,92.3L137.1,92.19L137.21,91.93L137.21,91.64L137.15,91.01L136.97,90.4L136.68,89.84L136.29,89.35L135.82,88.95L135.28,88.65L134.69,88.46L134.08,88.4L133.86,88.4L133.25,88.46L132.67,88.64L132.12,88.94L131.65,89.34L131.26,89.83L130.97,90.39L130.79,90.99L130.73,91.62L130.73,91.91L130.84,92.18L131.11,92.3Z" style="fill:white;fill-rule:nonzero;"/>
        <path d="M178.65,101.73L178.64,101.69L178.55,101.6L178.43,101.62L177.53,102.24L176.65,102.77L175.78,103.2L174.93,103.53L174.09,103.76L173.27,103.89L172.46,103.92L171.66,103.86L170.63,103.62L169.61,103.2L168.75,102.66L168.03,101.98L167.48,101.19L167.24,100.68L167.06,100.14L166.95,99.58L166.89,99L166.91,98.41L166.98,97.8L167.33,96.56L167.34,96.55L167.55,96.08L167.81,95.65L168.51,94.85L169.45,94.13L170.6,93.52L171.99,93.02L173.54,92.66L175.21,92.45L176.82,92.41L176.98,92.41L177.28,92.35L177.56,92.23L177.8,92.06L178.01,91.84L178.16,91.58L178.26,91.3L178.3,91L178.27,90.7L178.24,90.52L178.12,90.1L177.93,89.7L177.67,89.35L177.36,89.04L177,88.79L176.61,88.61L176.18,88.49L175.75,88.45L174.84,88.5L174.07,88.68L173.45,88.98L172.96,89.39L172.73,89.71L172.55,90.08L172.34,90.34L172.02,90.44L167.64,90.44L167.42,90.3L167.38,90.04L167.6,89.38L167.87,88.78L168.2,88.22L168.58,87.71L169.26,87.02L170.08,86.42L171.01,85.94L172.07,85.57L173.26,85.3L174.57,85.15L176.01,85.1L177.54,85.17L179.02,85.38L180.3,85.78L180.85,86.05L181.36,86.36L181.81,86.72L182.2,87.12L182.57,87.61L182.88,88.15L183.12,88.74L183.3,89.38L183.43,90.08L183.49,90.82L183.43,92.48L183.39,93.71L183.4,95.9L183.61,103.13L183.58,103.3L183.49,103.45L183.36,103.55L183.19,103.59L179.15,103.59L178.96,103.55L178.8,103.44L178.69,103.28L178.65,103.09L178.65,101.73ZM172.89,99.91L173.46,100.41L174.08,100.67L174.67,100.72L175.31,100.58L176,100.26L176.72,99.77L176.74,99.75L177.1,99.42L177.41,99.03L177.68,98.57L177.9,98.06L178.19,96.87L178.3,95.44L178.24,95.16L177.98,95.07L176.54,95.01L175.32,95.16L174.79,95.32L174.31,95.53L173.88,95.79L173.51,96.11L173.49,96.12L172.91,96.79L172.51,97.43L172.3,98.05L172.28,98.65L172.47,99.29L172.89,99.91Z" style="fill:white;fill-rule:nonzero;"/>
        <path d="M196.52,87.42L196.54,87.52L196.71,87.63L196.9,87.54L197.4,86.92L197.93,86.39L198.52,85.95L199.14,85.59L200.15,85.22L201.26,85.04L202.47,85.06L203.77,85.27L204.4,85.45L204.96,85.69L205.48,85.99L205.93,86.35L206.3,86.75L206.62,87.19L206.9,87.7L207.12,88.25L207.3,88.87L207.43,89.54L207.54,91.05L207.58,98.37L207.55,103.16L207.51,103.32L207.42,103.45L207.28,103.54L207.12,103.57L202.87,103.57L202.71,103.54L202.57,103.45L202.48,103.31L202.45,103.15L202.39,91.48L202.34,91.02L202.2,90.58L201.97,90.18L201.67,89.83L201.3,89.55L200.88,89.35L200.44,89.24L199.97,89.22L199.84,89.23L199.69,89.25L199.17,89.35L198.67,89.54L198.22,89.82L197.82,90.17L197.5,90.6L197.26,91.07L197.1,91.58L197.05,92.11L196.95,103L196.9,103.22L196.78,103.4L196.6,103.53L196.38,103.57L192.47,103.57L192.24,103.52L192.04,103.39L191.91,103.19L191.86,102.96L191.86,85.89L191.9,85.69L192.02,85.52L192.19,85.4L192.39,85.36L195.99,85.36L196.19,85.4L196.36,85.52L196.48,85.69L196.52,85.89L196.52,87.42Z" style="fill:white;fill-rule:nonzero;"/>
        <path d="M231.17,98.29L231.35,98.33L231.5,98.45L231.58,98.62L231.58,98.81L231.54,98.91L231.13,99.6L230.68,100.24L230.16,100.86L229.61,101.42L229.02,101.93L228.39,102.39L227.73,102.8L227.05,103.14L226.34,103.44L225.6,103.66L224.86,103.83L224.1,103.93L223.35,103.97L222.6,103.94L221.86,103.85L221.12,103.69L220.11,103.36L219.12,102.89L218.21,102.32L217.34,101.61L216.68,100.93L216.12,100.18L215.63,99.35L215.23,98.47L214.92,97.5L214.7,96.49L214.58,95.44L214.56,94.37L214.65,93.3L214.83,92.23L215.1,91.2L215.47,90.2L215.93,89.28L216.47,88.42L217.08,87.66L217.76,86.99L218.35,86.53L218.99,86.13L219.69,85.77L220.42,85.49L221.2,85.27L221.99,85.12L222.8,85.04L223.61,85.03L224.41,85.09L225.2,85.21L225.98,85.41L226.73,85.68L227.44,86L228.1,86.4L228.7,86.84L229.26,87.34L229.68,87.79L230.19,88.45L230.63,89.17L231,89.93L231.31,90.76L231.56,91.64L231.74,92.58L231.85,93.57L231.9,94.62L231.85,94.89L231.7,95.11L231.48,95.27L231.21,95.32L220.49,95.32L220.3,95.37L220.15,95.48L220.06,95.65L220.04,95.84L220.3,97.27L220.49,97.89L220.73,98.45L221.01,98.92L221.34,99.32L221.69,99.64L222.09,99.9L222.77,100.14L223.55,100.22L224.41,100.11L225.38,99.82L225.64,99.69L225.85,99.49L226.5,98.75L226.71,98.56L226.95,98.41L227.23,98.32L227.51,98.29L231.17,98.29ZM220.59,92.32L226.37,92.26L226.61,92.16L226.71,91.92L226.7,91.67L226.64,91.03L226.46,90.42L226.17,89.85L225.79,89.36L225.32,88.96L224.8,88.66L224.22,88.48L223.63,88.43L223.25,88.43L222.66,88.5L222.09,88.69L221.57,89L221.11,89.41L220.74,89.91L220.46,90.48L220.3,91.1L220.24,91.73L220.25,91.98L220.25,92.03L220.37,92.24L220.59,92.32Z" style="fill:white;fill-rule:nonzero;"/>
        <path d="M244.73,87.65L245.02,87.09L245.35,86.59L245.73,86.16L246.16,85.8L246.72,85.45L247.34,85.19L248.02,85.02L248.77,84.94L249.07,84.99L249.33,85.15L249.51,85.39L249.58,85.69L249.58,89.47L249.52,89.76L249.36,90L249.12,90.17L248.83,90.22L248.82,90.22L247.99,90.26L247.24,90.4L246.58,90.66L246.02,91.03L245.66,91.36L245.35,91.75L245.09,92.19L244.87,92.69L244.57,93.87L244.46,95.27L244.42,99.71L244.44,103.11L244.41,103.28L244.32,103.42L244.18,103.51L244.01,103.55L239.77,103.55L239.6,103.52L239.45,103.42L239.35,103.27L239.32,103.1L239.32,86.03L239.37,85.77L239.52,85.54L239.74,85.39L240,85.34L243.43,85.34L243.64,85.4L243.81,85.54L243.91,85.73L243.93,85.95L243.92,86.86L244.11,87.65L244.18,87.76L244.32,87.84L244.48,87.85L244.63,87.78L244.73,87.65Z" style="fill:white;fill-rule:nonzero;"/>
        <path d="M260.71,94.45L260.75,95.41L260.86,96.31L261.05,97.16L261.29,97.88L261.6,98.51L261.95,99L262.36,99.38L262.84,99.66L263.44,99.81L264.13,99.8L264.86,99.63L265.68,99.28L265.95,99.02L266.93,97.33L267.15,97.1L267.46,97.02L271.37,97.02L271.44,97.03L271.62,97.09L271.75,97.23L271.81,97.41L271.79,97.6L271.44,98.54L271.03,99.4L270.54,100.2L270,100.93L269.39,101.6L268.73,102.19L268,102.7L267.24,103.12L266.14,103.56L265,103.83L263.8,103.94L262.61,103.87L261.42,103.64L260.26,103.23L259.2,102.68L258.2,101.97L257.46,101.29L256.79,100.51L256.22,99.66L255.74,98.72L255.38,97.76L255.1,96.71L254.94,95.63L254.87,94.49L254.92,93.34L255.07,92.26L255.33,91.21L255.68,90.24L256.15,89.3L256.71,88.44L257.36,87.65L258.1,86.96L259.08,86.24L260.14,85.67L261.29,85.25L262.47,85L263.67,84.91L264.86,85L266.01,85.25L267.12,85.68L267.89,86.09L268.62,86.59L269.29,87.17L269.91,87.83L270.46,88.55L270.95,89.35L271.38,90.2L271.74,91.13L271.77,91.32L271.71,91.5L271.58,91.64L271.4,91.72L271.33,91.72L267.42,91.78L267.11,91.7L266.89,91.48L265.88,89.8L265.61,89.54L264.78,89.21L264.05,89.04L263.36,89.05L262.77,89.21L262.29,89.49L261.89,89.88L261.54,90.37L261.24,91L261.01,91.73L260.83,92.58L260.73,93.49L260.71,94.45Z" style="fill:white;fill-rule:nonzero;"/>
        <path d="M294.27,98.28L294.45,98.33L294.6,98.45L294.68,98.62L294.68,98.81L294.64,98.9L294.23,99.59L293.78,100.23L293.26,100.85L292.71,101.41L292.12,101.93L291.49,102.39L290.84,102.79L290.16,103.14L289.44,103.43L288.71,103.66L287.96,103.83L287.21,103.93L286.46,103.97L285.71,103.94L284.97,103.85L284.23,103.69L283.21,103.36L282.23,102.9L281.32,102.32L280.45,101.62L279.79,100.94L279.23,100.19L278.74,99.36L278.34,98.48L278.02,97.51L277.81,96.51L277.69,95.45L277.67,94.39L277.75,93.31L277.93,92.25L278.2,91.22L278.57,90.22L279.02,89.3L279.56,88.44L280.17,87.68L280.85,87.01L281.44,86.54L282.08,86.14L282.78,85.79L283.51,85.5L284.28,85.28L285.08,85.13L285.88,85.05L286.69,85.04L287.5,85.1L288.29,85.22L289.06,85.42L289.82,85.68L290.52,86.01L291.19,86.4L291.79,86.84L292.35,87.34L292.77,87.8L293.27,88.45L293.72,89.17L294.09,89.93L294.4,90.76L294.65,91.64L294.83,92.58L294.94,93.57L294.99,94.62L294.94,94.88L294.8,95.11L294.57,95.26L294.31,95.32L294.3,95.32L283.61,95.33L283.59,95.33L283.4,95.38L283.25,95.49L283.16,95.66L283.14,95.85L283.4,97.28L283.59,97.89L283.84,98.45L284.11,98.92L284.44,99.33L284.79,99.65L285.19,99.9L285.87,100.15L286.66,100.22L287.52,100.11L288.48,99.82L288.74,99.69L288.95,99.49L289.6,98.75L289.81,98.56L290.05,98.41L290.33,98.32L290.61,98.29L294.27,98.28ZM283.95,92.32L289.23,92.26L289.42,92.23L289.58,92.13L289.71,91.99L289.77,91.81L289.78,91.7L289.78,91.47L289.72,90.86L289.53,90.29L289.24,89.76L288.85,89.29L288.37,88.91L287.83,88.63L287.25,88.46L286.64,88.41L286.46,88.41L285.85,88.48L285.27,88.66L284.74,88.95L284.27,89.34L283.89,89.81L283.61,90.35L283.44,90.93L283.38,91.53L283.38,91.76L283.43,91.98L283.55,92.16L283.74,92.28L283.95,92.32Z" style="fill:white;fill-rule:nonzero;"/>
        <path d="M307.1,102.7L307.1,109.43L307.02,109.62L306.84,109.7L302.31,109.7L302.14,109.65L302.04,109.54L302,109.39L302,85.92L302.04,85.7L302.17,85.52L302.36,85.39L302.58,85.35L306.12,85.35L306.33,85.39L306.5,85.51L306.62,85.68L306.66,85.88L306.66,87.13L306.7,87.27L306.79,87.37L306.93,87.4L307.06,87.37L307.16,87.28L307.73,86.56L308.4,85.98L309.14,85.56L309.98,85.27L310.91,85.11L311.94,85.09L313.08,85.24L314.17,85.61L315.1,86.14L315.97,86.88L316.71,87.77L317.35,88.84L317.86,90.05L318.24,91.4L318.48,92.84L318.56,94.31L318.49,95.82L318.27,97.3L317.9,98.67L317.39,99.96L316.75,101.07L316.03,102L315.18,102.76L314.26,103.3L313.46,103.62L312.67,103.82L311.89,103.92L311.13,103.89L310.27,103.73L309.43,103.43L308.61,102.98L307.8,102.38L307.62,102.29L307.42,102.29L307.24,102.39L307.13,102.55L307.1,102.7ZM310.142,88.55L309.53,88.656L308.939,88.986L308.391,89.525L307.908,90.254L307.508,91.145L307.206,92.163L307.015,93.27L306.94,94.422L306.986,95.575L307.151,96.686L307.428,97.711L307.806,98.612L308.271,99.352L308.806,99.905L309.389,100.249L309.998,100.37L310.61,100.263L311.201,99.934L311.749,99.395L312.232,98.666L312.632,97.775L312.934,96.757L313.126,95.65L313.2,94.498L313.154,93.345L312.989,92.234L312.712,91.209L312.334,90.308L311.869,89.568L311.334,89.015L310.751,88.672L310.142,88.55Z" style="fill:white;fill-rule:nonzero;"/>
    </g>
</svg>
