<?xml version="1.0" encoding="UTF-8" standalone="no"?>
<!DOCTYPE svg PUBLIC "-//W3C//DTD SVG 1.1//EN" "http://www.w3.org/Graphics/SVG/1.1/DTD/svg11.dtd">
<svg width="100%" height="100%" viewBox="0 0 664 329" version="1.1" xmlns="http://www.w3.org/2000/svg" xmlns:xlink="http://www.w3.org/1999/xlink" xml:space="preserve" xmlns:serif="http://www.serif.com/" style="fill-rule:evenodd;clip-rule:evenodd;">
    <g transform="matrix(1,0,0,1,-115.51,-292.993)">
        <path d="M706.65,350.6L696,371.55" style="fill:none;fill-rule:nonzero;stroke:rgb(170,128,123);stroke-width:0.5px;"/>
        <path d="M712.01,356.86L710.13,358.65L708.32,360.53L706.58,362.49L704.91,364.53L703.32,366.66L701.79,368.87L700.34,371.16L698.96,373.54" style="fill:none;fill-rule:nonzero;stroke:rgb(126,162,145);stroke-width:0.5px;"/>
        <path d="M731.36,350.31L735.54,349.7L739.63,349.18L741.66,348.98L743.68,348.85L745.7,348.8L747.72,348.84L750.45,349L753.17,349.31L755.89,349.76L758.61,350.36L758.94,350.41L759.27,350.39L759.6,350.3L759.89,350.15L760.16,349.94L760.37,349.69L760.53,349.39L760.63,349.07L760.64,349L760.69,348.64L760.66,348.16L760.45,347.73L760.08,347.43L759.63,347.29L759.54,347.29L750.75,347.33L748.75,347.38L746.62,347.49L742,347.91L736.88,348.59L731.27,349.53L731.2,349.6L731.13,350.08L731.18,350.24L731.33,350.31L731.36,350.31" style="fill:none;fill-rule:nonzero;stroke:rgb(67,183,221);stroke-width:0.5px;"/>
        <path d="M253.71,295.247L254.715,296.038L255.633,296.931L256.455,297.918L257.173,298.988L257.781,300.132L258.272,301.338L258.642,302.596L258.887,303.892L259.005,305.215L258.994,306.551L258.855,307.888L258.59,309.213L258.2,310.513L257.689,311.776L257.063,312.989L256.327,314.141L255.489,315.221L254.556,316.217L253.538,317.122L252.444,317.925L251.285,318.62L250.072,319.199L248.817,319.657L247.531,319.99L246.228,320.194L244.919,320.267L243.618,320.209L242.336,320.021L241.087,319.703L239.882,319.259L238.733,318.694L237.65,318.013L236.645,317.222L235.727,316.329L234.905,315.342L234.187,314.272L233.579,313.128L233.088,311.922L232.718,310.664L232.473,309.368L232.356,308.045L232.366,306.709L232.505,305.372L232.77,304.047L233.16,302.747L233.671,301.484L234.297,300.271L235.033,299.119L235.871,298.039L236.804,297.043L237.822,296.138L238.916,295.335L240.075,294.64L241.288,294.061L242.543,293.603L243.829,293.27L245.132,293.066L246.441,292.993L247.742,293.051L249.024,293.239L250.273,293.557L251.478,294.001L252.627,294.566L253.71,295.247Z" style="fill:rgb(0,146,198);fill-rule:nonzero;"/>
        <path d="M149.51,412.22L201.02,412.22L201.27,412.28L201.48,412.44L201.61,412.68L201.61,412.94L197.92,432.65L197.77,432.96L197.57,433.1L197.32,433.15L122.12,433.15L121.87,433.09L121.66,432.93L121.53,432.69L121.53,432.43L146.92,296.78L147.05,296.49L147.26,296.34L147.52,296.28L169.75,296.28L170,296.34L170.21,296.5L170.34,296.74L170.34,297L148.92,411.5L148.92,411.76L149.05,412L149.26,412.16L149.51,412.22Z" style="fill:rgb(0,146,198);fill-rule:nonzero;"/>
        <path d="M285.81,351.53L289.84,346.6L291.83,344.42L293.99,342.38L296.31,340.47L298.76,338.72L301.31,337.15L303.97,335.76L306.67,334.58L309.45,333.6L312.21,332.85L314.95,332.32L317.71,332.01L320.42,331.92L323.1,332.06L325.7,332.42L328.27,333.01L330.75,333.81L331.07,333.93L332.96,334.76L334.74,335.74L336.37,336.85L337.87,338.12L339.14,339.42L340.32,340.87L341.35,342.41L342.28,344.1L343.08,345.89L343.77,347.8L344.34,349.85L344.8,352.02L345.13,354.31L345.34,356.7L345.44,359.22L345.41,361.84L345.26,364.59L344.99,367.42L344.6,370.34L344.09,373.38L337.34,409.69L332.99,432.67L332.92,432.86L332.78,433.01L332.61,433.11L332.41,433.14L310.16,433.14L309.94,433.09L309.76,432.97L309.65,432.78L309.62,432.56L309.63,432.51L315.63,400.88L318.09,387.5L320.18,375.75L320.81,371.59L321.01,369.76L321.13,368.01L321.18,366.35L321.16,364.77L321.07,363.29L320.91,361.89L320.67,360.57L320.36,359.35L319.96,358.19L319.5,357.15L318.98,356.19L318.36,355.3L317.69,354.52L316.92,353.81L316.09,353.2L315.18,352.67L314.2,352.23L313.13,351.88L312.16,351.65L311.2,351.49L309.93,351.38L308.67,351.38L307.38,351.49L306.1,351.71L304.79,352.05L303.5,352.48L302.21,353.03L300.9,353.68L299.6,354.45L298.29,355.33L297.02,356.29L295.76,357.36L294.54,358.51L293.34,359.76L292.22,361.05L291.14,362.42L289.99,364.02L288.92,365.64L287.38,368.25L285.98,370.98L284.72,373.87L283.58,376.93L282.55,380.21L281.61,383.73L280.73,387.62L279.87,392.04L272.49,432.12L272.34,432.53L272.06,432.86L271.68,433.07L271.25,433.15L249.89,433.15L249.59,433.05L249.35,432.84L249.22,432.56L249.21,432.24L263,357.29L263.92,352.23L264.83,346.76L265.71,340.86L266.58,334.54L266.73,334.25L267.04,334.14L286.75,334.14L287.05,334.2L287.31,334.38L287.47,334.64L287.51,334.94L287.5,335L285.12,351.23L285.14,351.43L285.26,351.59L285.45,351.67L285.65,351.65L285.81,351.53Z" style="fill:rgb(0,146,198);fill-rule:nonzero;"/>
        <path d="M459.12,393.16L459.09,395.66L459.23,398.06L459.55,400.28L460.04,402.39L460.7,404.36L461.55,406.2L462.55,407.87L463.74,409.42L464.48,410.23L465.28,410.99L466.14,411.71L467.04,412.38L468.01,413.01L469.03,413.58L470.1,414.1L471.22,414.58L472.39,415L473.6,415.37L474.87,415.69L476.17,415.95L478.92,416.33L481.83,416.5L484.97,416.45L488.22,416.18L491.57,415.68L494.94,414.98L498.33,414.07L501.63,412.97L504.79,411.7L507.69,410.32L507.92,410.26L508.15,410.3L508.35,410.43L508.47,410.64L508.49,410.73L510.65,426.62L510.61,427L510.39,427.3L509.8,427.73L509.12,428.16L507.44,428.96L504.65,430.07L501.82,431.07L498.98,431.97L496.1,432.76L492.09,433.68L488.04,434.41L483.93,434.94L479.77,435.27L477.34,435.36L474.99,435.36L472.69,435.28L470.46,435.1L468.27,434.84L466.15,434.49L464.08,434.04L462.1,433.52L460.16,432.9L458.31,432.19L456.51,431.4L454.79,430.53L453.12,429.56L451.53,428.51L450,427.37L448.56,426.15L447.14,424.81L445.81,423.38L444.55,421.87L443.39,420.28L442.3,418.59L441.3,416.84L440.38,415L439.55,413.1L438.81,411.11L438.17,409.07L437.61,406.96L437.15,404.8L436.78,402.56L436.51,400.28L436.33,397.95L436.25,395.58L436.26,393.15L436.37,390.7L436.59,388.21L436.89,385.7L437.3,383.19L437.8,380.68L438.39,378.18L439.07,375.69L439.84,373.23L440.7,370.79L441.65,368.37L442.68,366L443.79,363.68L444.98,361.4L446.23,359.2L447.56,357.06L449.34,354.45L451.25,351.96L453.28,349.58L455.43,347.33L457.68,345.2L460.03,343.21L462.46,341.38L464.98,339.69L467.57,338.17L470.23,336.8L472.94,335.6L475.72,334.57L478.52,333.71L481.37,333.03L484.23,332.52L487.13,332.19L490.33,332.03L493.52,332.09L495.35,332.22L497.16,332.42L498.9,332.68L500.6,333.02L502.26,333.42L503.87,333.89L505.42,334.42L506.91,335.02L508.34,335.68L509.72,336.41L511.02,337.2L512.27,338.05L513.46,338.96L514.58,339.94L515.63,340.97L516.62,342.06L517.39,343.01L518.11,344.01L519.4,346.08L519.98,347.19L520.51,348.34L521.42,350.72L521.9,352.32L522.29,353.94L522.58,355.56L522.78,357.19L522.9,359.1L522.89,361.01L522.75,362.95L522.48,364.89L521.97,367.29L521.27,369.59L520.39,371.76L519.31,373.84L518.22,375.56L516.97,377.22L515.6,378.77L514.06,380.26L512.39,381.65L510.57,382.96L508.62,384.18L506.53,385.32L504.29,386.37L501.91,387.33L499.38,388.22L496.72,389.01L493.9,389.73L490.95,390.35L487.85,390.9L484.62,391.35L478.69,391.97L472.58,392.38L466.26,392.57L459.76,392.55L459.52,392.59L459.32,392.72L459.18,392.92L459.12,393.16ZM462.21,374.57L465.82,374.72L469.48,374.75L473.01,374.67L476.38,374.48L479.54,374.18L482.52,373.76L485.28,373.24L487.84,372.61L490.14,371.89L492.23,371.07L494.08,370.15L495.7,369.13L497.1,368.01L498.26,366.8L498.76,366.15L499.21,365.47L499.59,364.79L499.91,364.07L500.31,362.87L500.56,361.59L500.65,360.27L500.59,358.86L500.38,357.49L500.01,356.2L499.5,355.05L498.82,353.98L498.26,353.29L497.63,352.68L496.93,352.11L496.17,351.6L495.32,351.15L494.42,350.76L493.44,350.43L492.43,350.17L491.32,349.96L490.19,349.83L489,349.77L487.8,349.77L486.55,349.84L485.31,349.98L484.06,350.19L482.85,350.46L481.05,350.99L479.31,351.66L477.6,352.47L475.96,353.42L474.36,354.51L472.79,355.74L471.32,357.09L469.89,358.58L468.52,360.21L467.25,361.93L466.06,363.76L464.98,365.67L464,367.67L463.13,369.72L462.38,371.83L461.76,373.96L461.75,374.01L461.76,374.21L461.85,374.39L462.01,374.52L462.21,374.57Z" style="fill:rgb(0,146,198);fill-rule:nonzero;"/>
        <path d="M591.03,353.48L590.9,353.71L590.69,353.86L590.44,353.92L590.18,353.87L590.15,353.85L588.52,353.1L586.76,352.39L584.92,351.74L583.06,351.17L581.18,350.68L579.32,350.29L577.47,349.99L575.67,349.78L573.97,349.68L572.35,349.67L570.77,349.75L569.29,349.93L567.88,350.21L566.59,350.57L565.37,351.02L564.23,351.58L563.02,352.31L561.94,353.1L560.97,353.97L560.14,354.88L559.43,355.86L558.85,356.89L558.41,357.97L558.12,359.07L557.99,359.93L557.94,360.8L557.97,361.67L558.08,362.53L558.28,363.41L558.55,364.28L558.9,365.13L559.32,365.97L559.81,366.78L560.38,367.57L561.01,368.34L561.71,369.07L562.47,369.76L563.3,370.42L564.15,371.02L565.07,371.57L570.96,374.98L573.2,376.35L575.17,377.63L577.04,378.92L578.76,380.2L580.33,381.47L581.78,382.74L583.14,384.06L584.39,385.39L585.53,386.77L586.54,388.15L587.45,389.58L588.24,391.01L588.92,392.48L589.5,394.02L589.89,395.3L590.21,396.62L590.45,397.95L590.62,399.33L590.72,400.72L590.74,402.15L590.69,403.59L590.56,405.09L590.31,406.91L589.98,408.68L589.55,410.42L589.04,412.1L588.44,413.75L587.75,415.33L586.97,416.88L586.11,418.36L585.14,419.82L584.1,421.2L582.96,422.54L581.75,423.82L580.45,425.03L579.07,426.18L577.61,427.28L576.07,428.3L574.45,429.27L572.76,430.16L570.99,431L569.15,431.76L567.25,432.45L565.3,433.07L563.26,433.62L561.18,434.09L558.72,434.55L556.18,434.89L553.61,435.13L551,435.25L548.4,435.26L545.77,435.17L543.18,434.96L540.6,434.64L538.09,434.21L535.66,433.68L533.26,433.05L530.97,432.32L528.75,431.48L526.64,430.57L524.6,429.54L522.69,428.44L522.44,428.23L522.28,427.95L522.23,427.63L522.28,427.31L527.85,411.61L528.01,411.36L528.25,411.19L528.54,411.13L528.83,411.19L528.88,411.22L531.87,412.73L534.84,414.04L537.8,415.13L540.76,416.01L543.7,416.69L546.63,417.15L549.55,417.4L552.46,417.45L553.92,417.36L555.31,417.15L556.68,416.83L557.97,416.41L559.23,415.86L560.41,415.21L561.51,414.46L562.52,413.62L563.45,412.68L564.26,411.66L564.96,410.57L565.53,409.43L565.97,408.25L566.27,407.03L566.44,405.81L566.46,404.57L566.32,403.15L565.98,401.73L565.47,400.36L564.76,399.01L563.88,397.74L562.85,396.56L561.62,395.42L560.27,394.39L557.9,392.84L554.45,390.76L550.33,388.26L547.36,386.3L544.78,384.35L543.64,383.38L542.58,382.41L541.26,381.06L540.04,379.67L538.94,378.26L537.96,376.79L537.11,375.32L536.37,373.8L535.75,372.25L535.24,370.67L534.8,368.73L534.52,366.72L534.41,364.68L534.48,362.57L534.64,360.89L534.88,359.25L535.21,357.63L535.61,356.05L536.1,354.5L536.66,353L537.31,351.52L538.03,350.09L539.07,348.33L540.22,346.66L541.5,345.05L542.88,343.53L544.4,342.07L546.02,340.71L547.75,339.43L549.58,338.25L551.52,337.15L553.54,336.16L555.67,335.26L557.86,334.48L560.13,333.79L562.46,333.23L564.83,332.77L567.24,332.43L569.84,332.18L572.42,332.04L574.96,332.01L577.48,332.09L579.98,332.29L582.44,332.59L584.88,333.01L587.29,333.54L589.53,334.14L591.74,334.83L593.93,335.62L596.1,336.51L596.4,336.72L596.6,337.02L596.68,337.38L596.62,337.74L591.03,353.48Z" style="fill:rgb(0,146,198);fill-rule:nonzero;"/>
        <path d="M663.97,353.52L663.84,353.74L663.62,353.9L663.37,353.96L663.12,353.91L663.08,353.89L661.46,353.13L659.7,352.42L657.86,351.76L655.99,351.18L654.11,350.7L652.25,350.3L650.4,349.99L648.6,349.78L646.9,349.67L645.28,349.66L643.7,349.74L642.22,349.91L640.81,350.19L639.51,350.54L638.3,351L637.15,351.55L635.93,352.28L634.86,353.07L633.89,353.93L633.05,354.84L632.33,355.83L631.76,356.85L631.32,357.93L631.02,359.03L630.88,359.89L630.83,360.76L630.86,361.63L630.97,362.5L631.16,363.37L631.43,364.24L631.78,365.1L632.2,365.94L632.7,366.75L633.26,367.55L633.89,368.31L634.59,369.05L635.35,369.74L636.17,370.4L637.03,371L637.94,371.56L643.83,374.99L646.06,376.37L648.04,377.65L649.9,378.95L651.62,380.23L653.19,381.5L654.64,382.77L656,384.1L657.24,385.44L658.38,386.82L659.39,388.21L660.3,389.63L661.08,391.07L661.76,392.55L662.33,394.08L662.72,395.36L663.04,396.69L663.28,398.02L663.45,399.41L663.54,400.79L663.56,402.22L663.5,403.67L663.37,405.16L663.12,406.99L662.78,408.76L662.35,410.5L661.84,412.18L661.23,413.82L660.54,415.41L659.75,416.95L658.88,418.44L657.92,419.89L656.87,421.27L655.73,422.61L654.51,423.89L653.2,425.1L651.83,426.24L650.35,427.34L648.82,428.36L647.19,429.32L645.5,430.21L643.72,431.04L641.88,431.8L639.98,432.49L638.02,433.1L635.98,433.65L633.9,434.12L631.43,434.57L628.89,434.91L626.32,435.14L623.71,435.25L621.1,435.26L618.48,435.16L615.89,434.94L613.3,434.61L610.79,434.18L608.36,433.65L605.96,433L603.67,432.27L601.45,431.43L599.34,430.51L597.3,429.48L595.39,428.37L595.15,428.16L594.99,427.88L594.93,427.56L594.99,427.24L600.6,411.54L600.76,411.29L601,411.12L601.29,411.06L601.58,411.12L601.63,411.15L604.61,412.67L607.59,413.98L610.55,415.09L613.51,415.98L616.45,416.66L619.38,417.13L622.3,417.39L625.21,417.44L626.67,417.35L628.07,417.15L629.44,416.83L630.73,416.41L631.99,415.87L633.17,415.22L634.28,414.47L635.29,413.63L636.22,412.69L637.04,411.67L637.74,410.59L638.31,409.45L638.75,408.27L639.06,407.04L639.23,405.83L639.26,404.59L639.12,403.16L638.78,401.74L638.27,400.37L637.57,399.02L636.69,397.75L635.66,396.56L634.44,395.42L633.08,394.38L630.72,392.83L627.27,390.74L623.16,388.23L620.19,386.25L617.61,384.3L616.47,383.33L615.41,382.35L614.09,381L612.87,379.61L611.78,378.19L610.8,376.72L609.95,375.24L609.21,373.72L608.6,372.17L608.1,370.58L607.65,368.64L607.38,366.63L607.28,364.59L607.35,362.48L607.52,360.79L607.76,359.15L608.09,357.53L608.5,355.96L608.99,354.4L609.56,352.9L610.21,351.42L610.94,350L611.98,348.24L613.13,346.57L614.42,344.96L615.8,343.44L617.33,341.99L618.95,340.63L620.69,339.35L622.52,338.17L624.47,337.08L626.49,336.09L628.62,335.2L630.81,334.42L633.09,333.74L635.42,333.18L637.79,332.73L640.21,332.39L642.81,332.15L645.39,332.01L647.94,331.99L650.46,332.08L652.96,332.28L655.42,332.59L657.86,333.02L660.27,333.55L662.51,334.16L664.73,334.86L666.91,335.65L669.08,336.55L669.38,336.76L669.58,337.06L669.66,337.42L669.6,337.78L663.97,353.52Z" style="fill:rgb(0,146,198);fill-rule:nonzero;"/>
        <path d="M233.01,433.15L211.17,433.15L210.89,433.09L210.65,432.93L210.48,432.69L210.42,432.41L210.44,432.26L228.69,334.76L228.83,334.44L229.11,334.22L229.42,334.15L251.26,334.15L251.58,334.22L251.83,334.42L251.98,334.71L251.99,335.04L233.74,432.54L233.58,432.89L233.32,433.08L233.01,433.15Z" style="fill:rgb(0,146,198);fill-rule:nonzero;"/>
        <path d="M406.5,353.58L362.85,353.58L362.61,353.53L362.41,353.38L362.28,353.17L362.25,352.93L362.26,352.87L365.66,334.71L365.74,334.49L365.89,334.31L366.1,334.19L366.33,334.15L438.42,334.15L438.67,334.23L438.87,334.4L438.99,334.64L439,334.9L437.08,346.05L436.74,347.56L436.3,348.87L435.76,349.97L435.11,350.86L423.66,363.65L399.57,390.33L398.9,391.07L393.56,396.79L388.08,402.37L382.45,407.83L376.68,413.15L376.59,413.29L376.57,413.45L376.63,413.61L376.76,413.71L376.9,413.74L425.16,413.74L425.34,413.78L425.49,413.89L425.58,414.05L425.61,414.23L425.6,414.27L422.17,432.58L422.09,432.8L421.93,432.98L421.73,433.1L421.5,433.14L344.54,433.14L344.32,433.07L344.14,432.92L344.04,432.71L344.03,432.47L345.7,422.73L346.14,420.6L346.4,419.79L346.69,419.07L347.08,418.34L347.56,417.59L348.16,416.8L348.89,415.95L373.67,388.5L385.84,375.09L390.31,370.36L395.31,365.34L400.82,360.05L406.85,354.48L406.97,354.31L407.02,354.06L406.93,353.82L406.75,353.64L406.5,353.58Z" style="fill:rgb(0,146,198);fill-rule:nonzero;"/>
        <path d="M698.96,373.54L700.34,371.16L701.79,368.87L703.32,366.66L704.91,364.53L706.58,362.49L708.32,360.53L710.13,358.65L712.01,356.86L715.25,354.42L718.53,352.2L721.87,350.19L725.25,348.39L728.69,346.8L732.17,345.43L735.7,344.26L739.29,343.31L741.5,342.84L743.73,342.44L745.97,342.13L748.24,341.89L750.52,341.73L752.83,341.65L755.15,341.65L757.49,341.73L758.23,341.83L758.93,342.04L759.64,342.41L760.3,342.93L760.9,343.6L761.44,344.41L761.72,344.97L761.94,345.55L762.11,346.19L762.21,346.85L762.26,347.56L762.24,348.29L762.04,349.85L761.59,351.53L760.91,353.25L760.02,354.96L759,356.51L758.45,357.09L757.78,357.51L757.02,357.76L756.23,357.82L753.62,357.68L748,357.39L744.16,357.27L740.69,357.26L737.45,357.39L734.81,357.59L732.08,357.89L728.97,358.36L725.96,358.96L723.04,359.69L720.22,360.56L717.5,361.57L714.87,362.71L712.33,363.98L709.89,365.39L707.62,366.88L705.05,368.73L702.16,370.95L698.96,373.54ZM731.36,350.31L735.54,349.7L739.63,349.18L741.66,348.98L743.68,348.85L745.7,348.8L747.72,348.84L750.45,349L753.17,349.31L755.89,349.76L758.61,350.36L758.94,350.41L759.27,350.39L759.6,350.3L759.89,350.15L760.16,349.94L760.37,349.69L760.53,349.39L760.63,349.07L760.64,349L760.69,348.64L760.66,348.16L760.45,347.73L760.08,347.43L759.63,347.29L759.54,347.29L750.75,347.33L748.75,347.38L746.62,347.49L742,347.91L736.88,348.59L731.27,349.53L731.2,349.6L731.13,350.08L731.18,350.24L731.33,350.31L731.36,350.31Z" style="fill:rgb(0,146,198);fill-rule:nonzero;"/>
        <path d="M760.42,375.35C760.42,380.655 756.055,385.02 750.75,385.02C745.445,385.02 741.08,380.655 741.08,375.35C741.08,370.045 745.445,365.68 750.75,365.68C756.055,365.68 760.42,370.045 760.42,375.35ZM750.929,367.351L750.181,367.377L749.439,367.479L748.709,367.657L747.999,367.908L747.317,368.232L746.668,368.624L746.058,369.08L745.494,369.597L744.981,370.169L744.524,370.791L744.128,371.457L743.795,372.16L743.53,372.894L743.335,373.651L743.212,374.424L743.161,375.207L743.184,375.991L743.281,376.768L743.449,377.532L743.689,378.274L743.996,378.988L744.369,379.668L744.804,380.305L745.297,380.895L745.843,381.431L746.436,381.908L747.071,382.323L747.742,382.67L748.442,382.946L749.165,383.149L749.904,383.277L750.651,383.329L751.399,383.303L752.141,383.201L752.871,383.023L753.581,382.772L754.263,382.448L754.912,382.056L755.522,381.6L756.086,381.083L756.599,380.511L757.056,379.889L757.452,379.223L757.785,378.52L758.05,377.786L758.245,377.029L758.368,376.256L758.419,375.473L758.396,374.69L758.3,373.912L758.131,373.148L757.891,372.406L757.584,371.692L757.211,371.012L756.776,370.375L756.283,369.785L755.737,369.249L755.144,368.772L754.509,368.357L753.838,368.01L753.138,367.734L752.415,367.531L751.677,367.403L750.929,367.351Z" style="fill:rgb(76,76,77);fill-rule:nonzero;"/>
        <path d="M749.03,377.64L749.03,379.77L748.97,380.05L748.82,380.29L748.58,380.45L748.3,380.51L747.91,380.51L747.54,380.4L747.3,380.15L747.21,379.81L747.21,371.46L747.27,371.13L747.45,370.84L747.72,370.63L748.05,370.54L750.12,370.47L752.44,370.62L753.22,370.8L753.9,371.17L754.41,371.7L754.71,372.33L754.8,372.96L754.69,373.62L754.4,374.23L753.93,374.82L753.66,375.12L753.53,375.35L753.5,375.85L753.67,376.32L754.18,377.26L754.57,378.12L754.82,378.92L754.94,379.65L754.9,379.92L754.77,380.15L754.55,380.31L754.29,380.37L753.79,380.37L753.44,380.3L753.14,380.11L752.93,379.82L752.85,379.48L752.76,378.91L752.55,378.28L752.22,377.58L751.77,376.83L751.53,376.55L751.23,376.33L750.87,376.19L750.49,376.15L750.11,376.21L749.76,376.36L749.46,376.6L749.22,376.9L749.08,377.26L749.03,377.64ZM752.735,373.196C752.715,372.513 752.148,371.962 751.465,371.962C751.453,371.962 751.441,371.962 751.43,371.962L750.11,371.999C749.427,372.018 748.876,372.585 748.876,373.269C748.876,373.28 748.876,373.292 748.876,373.304L748.886,373.644C748.905,374.327 749.472,374.878 750.155,374.878C750.167,374.878 750.179,374.878 750.191,374.878L751.51,374.841C752.193,374.822 752.744,374.255 752.744,373.571C752.744,373.56 752.744,373.548 752.744,373.536L752.735,373.196Z" style="fill:rgb(76,76,77);fill-rule:nonzero;"/>
        <path d="M139.17,453.4L139.3,453.41L139.62,453.54L139.86,453.79L139.97,454.12L139.93,454.47L138.1,459.92L136.36,465.33L134.71,470.72L133.16,476.07L131.71,481.38L130.34,486.67L129.07,491.92L127.9,497.14L127,501.49L126.18,505.88L125.43,510.35L124.75,514.86L124.15,519.45L123.62,524.08L123.17,528.77L122.79,533.48L122.49,538.27L122.26,543.07L122.11,547.93L122.03,552.78L122.04,557.7L122.12,562.61L122.27,567.55L122.5,572.48L122.47,572.7L122.35,572.88L122.18,573.01L121.96,573.06L117.4,573.06L117.18,573.02L116.99,572.9L116.85,572.72L116.79,572.5L116.23,565.6L115.83,558.82L115.59,552.16L115.51,545.63L115.58,539.22L115.8,532.94L116.19,526.78L116.73,520.74L117.15,517.07L117.67,513.31L118.27,509.49L118.97,505.59L119.75,501.64L120.62,497.63L121.58,493.54L122.62,489.4L123.76,485.19L124.98,480.94L126.29,476.62L127.69,472.26L129.17,467.85L130.72,463.41L132.37,458.93L134.08,454.43L134.32,454.01L134.66,453.68L135.1,453.47L135.57,453.4L139.17,453.4Z" style="fill:rgb(76,76,77);fill-rule:nonzero;"/>
        <path d="M452.3,573.18L452.17,573.17L451.85,573.04L451.61,572.79L451.5,572.46L451.54,572.11L453.36,566.65L455.08,561.23L456.71,555.84L458.25,550.48L459.69,545.15L461.03,539.86L462.29,534.6L463.45,529.37L464.33,525.01L465.14,520.62L465.88,516.14L466.54,511.63L467.13,507.03L467.65,502.4L468.09,497.7L468.45,492.99L468.74,488.19L468.95,483.38L469.09,478.52L469.14,473.66L469.13,468.74L469.03,463.83L468.86,458.88L468.62,453.95L468.65,453.74L468.76,453.55L468.94,453.42L469.15,453.37L469.17,453.37L473.72,453.36L473.94,453.4L474.13,453.52L474.27,453.7L474.33,453.92L474.91,460.82L475.33,467.61L475.59,474.27L475.7,480.8L475.65,487.22L475.44,493.51L475.08,499.67L474.55,505.72L474.14,509.4L473.64,513.15L473.05,516.99L472.36,520.89L471.59,524.84L470.74,528.86L469.79,532.96L468.75,537.1L467.63,541.32L466.42,545.58L465.12,549.91L463.74,554.27L462.27,558.69L460.73,563.13L459.1,567.63L457.39,572.13L457.16,572.55L456.81,572.88L456.38,573.1L455.91,573.17L452.3,573.18Z" style="fill:rgb(76,76,77);fill-rule:nonzero;"/>
        <path d="M149.26,456.24L155,456.24L155.24,456.29L155.44,456.44L155.56,456.66L155.58,456.92L141.26,554.68L141.25,554.72L141.18,554.91L141.05,555.05L140.87,555.15L140.68,555.18L134.94,555.18L134.76,555.15L134.59,555.06L134.4,554.81L134.36,554.5L148.68,456.74L148.79,456.47L149,456.3L149.26,456.24Z" style="fill:rgb(76,76,77);fill-rule:nonzero;"/>
        <path d="M172.29,467.83L165.17,467.83L164.83,467.72L164.64,467.48L164.6,467.17L166.13,456.74L166.27,456.43L166.47,456.29L166.7,456.24L173.81,456.24L174,456.27L174.17,456.37L174.35,456.61L174.38,456.9L172.86,467.33L172.8,467.53L172.67,467.69L172.49,467.79L172.29,467.83Z" style="fill:rgb(76,76,77);fill-rule:nonzero;"/>
        <path d="M288.21,555.22L282.45,555.22L282.2,555.17L282,555.01L281.88,554.79L281.86,554.53L296.17,456.77L296.29,456.49L296.5,456.32L296.77,456.26L302.53,456.26L302.78,456.31L302.98,456.47L303.1,456.69L303.12,456.95L288.81,554.71L288.74,554.9L288.62,555.06L288.43,555.18L288.21,555.22Z" style="fill:rgb(76,76,77);fill-rule:nonzero;"/>
        <path d="M381.9,467.86L374.91,467.86L374.66,467.81L374.45,467.66L374.33,467.44L374.3,467.19L374.3,467.16L375.81,456.79L375.95,456.49L376.16,456.33L376.42,456.27L383.42,456.27L383.68,456.33L383.89,456.48L384.01,456.71L384.03,456.97L382.51,467.34L382.44,467.54L382.3,467.71L382.12,467.82L381.9,467.86Z" style="fill:rgb(76,76,77);fill-rule:nonzero;"/>
        <path d="M404.04,549.58L404,549.34L403.86,549.17L403.64,549.1L403.42,549.15L403.26,549.31L402.23,550.85L401.08,552.22L399.81,553.4L398.44,554.41L397.64,554.88L396.81,555.3L395.94,555.67L395.04,555.98L393.98,556.27L392.96,556.47L391.94,556.59L390.96,556.62L390,556.56L389.08,556.41L388.17,556.18L387.31,555.86L386.63,555.54L385.98,555.17L384.77,554.27L383.67,553.16L382.72,551.87L381.89,550.39L381.22,548.76L380.72,547.01L380.4,545.15L380.21,543.36L380.08,541.49L380.01,539.55L379.99,537.54L380.14,533.3L380.53,528.76L381.2,523.14L382,517.59L382.92,512.13L383.98,506.75L384.47,504.57L385.03,502.45L385.64,500.44L386.3,498.52L387.02,496.72L387.78,495.03L388.59,493.47L389.45,492.03L390.35,490.71L391.29,489.52L392.29,488.43L393.32,487.48L394.4,486.65L395.5,485.95L396.65,485.37L397.87,484.91L398.97,484.61L400.12,484.41L401.29,484.31L402.51,484.31L403.32,484.38L404.11,484.5L404.88,484.69L405.62,484.93L406.45,485.29L407.24,485.73L408.01,486.25L408.74,486.84L409.45,487.52L410.12,488.28L410.77,489.11L411.38,490.03L411.52,490.16L411.71,490.21L411.9,490.17L412.04,490.04L412.1,489.88L416.98,456.59L417.09,456.39L417.29,456.31L423.77,456.31L423.89,456.37L423.92,456.5L411.04,544.44L410.73,547.11L410.46,550.76L410.16,554.72L410.1,554.93L409.97,555.1L409.79,555.21L409.58,555.25L403.87,555.25L403.64,555.2L403.45,555.07L403.34,554.87L403.31,554.64L403.31,554.6L404.04,549.58ZM392.68,548.79L393.44,548.87L394.17,548.87L395.01,548.75L395.81,548.52L396.62,548.18L397.4,547.74L398.2,547.16L398.96,546.5L399.71,545.73L400.45,544.84L401.17,543.84L401.88,542.73L402.57,541.51L403.22,540.21L403.84,538.81L404.4,537.38L404.91,535.9L405.33,534.48L405.78,532.64L406.24,530.44L407.2,524.97L408.2,518.07L409.25,509.74L409.37,508.34L409.44,506.74L409.44,505.11L409.37,503.5L409.25,501.99L409.06,500.55L408.83,499.22L408.53,497.99L408.19,496.89L407.81,495.91L407.37,495.01L406.89,494.24L406.37,493.59L405.79,493.03L405.18,492.6L404.5,492.27L403.79,492.06L403.02,491.96L402.18,491.96L401.38,492.02L400.59,492.17L399.83,492.37L398.52,492.93L397.29,493.72L396.13,494.74L395.07,495.97L394.1,497.44L393.25,499.09L392.51,500.94L391.92,502.9L391.05,506.48L390.26,510.12L389.54,513.82L388.91,517.58L388.34,521.41L387.86,525.3L387.45,529.25L387.12,533.26L386.96,536.27L386.97,538.79L387.14,541.04L387.49,542.98L387.73,543.87L388.02,544.67L388.34,545.41L388.72,546.09L389.14,546.68L389.6,547.21L390.1,547.66L390.66,548.05L391.63,548.51L392.68,548.79Z" style="fill:rgb(76,76,77);fill-rule:nonzero;"/>
        <path d="M687.2,456.26L692.95,456.26L693.26,456.35L693.48,456.6L693.53,456.94L679.22,554.71L679.11,554.98L678.9,555.15L678.64,555.21L672.88,555.21L672.64,555.16L672.44,555.01L672.32,554.79L672.3,554.53L686.62,456.76L686.68,456.57L686.81,456.4L686.99,456.3L687.2,456.26Z" style="fill:rgb(76,76,77);fill-rule:nonzero;"/>
        <path d="M348.9,493.35L342.5,493.35L342.22,493.29L342,493.13L341.85,492.89L341.81,492.61L341.82,492.56L342.73,486.34L342.83,486.05L343.02,485.81L343.28,485.65L343.58,485.6L349.92,485.6L350.11,485.57L350.28,485.47L350.4,485.31L350.46,485.13L352.35,472.24L352.52,471.8L352.88,471.47L359.09,467.88L359.32,467.81L359.56,467.86L359.75,468L359.85,468.22L359.85,468.39L357.42,484.97L357.42,485.01L357.45,485.23L357.56,485.42L357.75,485.55L357.97,485.6L366.1,485.6L366.36,485.65L366.58,485.81L366.72,486.04L366.76,486.3L366.75,486.35L365.87,492.36L365.74,492.76L365.47,493.08L365.11,493.3L364.7,493.37L356.87,493.37L356.5,493.44L356.19,493.63L355.95,493.92L355.84,494.27L355.48,497.52L354.88,502.17L353.74,510.23L349.8,536.58L349.52,538.75L349.35,540.87L349.28,542.94L349.32,544.95L349.37,545.32L349.5,545.68L349.69,546.01L349.94,546.29L350.23,546.52L350.57,546.7L350.93,546.8L351.31,546.84L357.83,546.84L357.87,546.89L356.73,554.7L356.62,554.92L356.4,555.04L354.26,555.34L352.28,555.5L350.51,555.5L348.9,555.35L347.48,555.04L346.21,554.58L345.13,553.97L344.2,553.21L343.46,552.33L342.86,551.3L342.39,550.12L342.07,548.79L341.89,547.3L341.84,545.66L341.93,543.85L342.16,541.88L349.2,493.72L349.13,493.47L348.9,493.35Z" style="fill:rgb(76,76,77);fill-rule:nonzero;"/>
        <path d="M185.5,491.03L187.11,489.43L188.81,487.74L190.08,486.65L191.31,485.8L192.57,485.16L193.63,484.78L194.74,484.52L195.96,484.36L197.25,484.3L198.92,484.4L200.47,484.71L201.84,485.21L202.49,485.55L203.09,485.94L203.83,486.53L204.5,487.2L205.12,487.96L205.66,488.8L206.14,489.73L206.57,490.77L206.92,491.86L207.21,493.06L207.44,494.33L207.61,495.69L207.7,497.14L207.74,498.67L207.7,500.28L207.6,501.96L207.21,505.5L203.7,529.78L199.99,554.97L199.9,555.15L199.71,555.22L193.23,555.22L193.09,555.14L193.05,554.98L197.81,522.66L200.21,505.76L200.45,503.4L200.51,501.15L200.39,499.14L200.1,497.33L199.64,495.81L199.35,495.15L199.01,494.53L198.64,494L198.23,493.53L197.78,493.13L197.28,492.8L196.61,492.47L195.86,492.25L195.12,492.13L194.41,492.08L193.68,492.09L192.99,492.18L192.1,492.41L191.26,492.74L190.43,493.19L189.64,493.74L188.87,494.41L188.1,495.21L187.38,496.09L186.68,497.1L186.01,498.23L185.36,499.46L184.75,500.81L184.19,502.24L183.66,503.77L183.2,505.34L182.79,506.95L182.48,508.49L181.62,513.75L180.21,523.13L175.69,554.24L175.55,554.65L175.28,554.98L174.91,555.2L174.49,555.28L169.37,555.28L169.08,555.2L168.85,555L168.71,554.73L168.69,554.43L178.64,486.48L178.76,486.12L179,485.83L179.33,485.64L179.7,485.57L184.82,485.57L185.16,485.64L185.44,485.84L185.61,486.14L185.65,486.48L185.64,486.55L184.86,490.68L184.87,490.87L184.98,491.04L185.15,491.13L185.34,491.12L185.5,491.03Z" style="fill:rgb(76,76,77);fill-rule:nonzero;"/>
        <path d="M232.12,549.49L230.48,551.13L229.14,552.36L227.9,553.39L226.69,554.26L225.47,554.99L224.24,555.59L223.01,556.03L221.77,556.34L220.5,556.52L219.23,556.56L218.26,556.51L217.34,556.41L216.44,556.25L215.6,556.03L214.8,555.75L214.05,555.42L213.33,555.02L212.65,554.57L211.72,553.8L210.91,552.91L210.19,551.92L209.54,550.78L209,549.54L208.55,548.16L208.2,546.69L207.94,545.11L207.78,543.39L207.72,541.58L207.77,539.66L207.91,537.67L208.17,535.61L208.51,533.52L208.96,531.44L209.48,529.44L210.02,527.74L210.62,526.16L211.29,524.67L212.03,523.29L212.85,521.98L213.74,520.79L214.7,519.68L215.74,518.68L216.6,517.95L217.5,517.29L218.45,516.66L219.45,516.1L220.52,515.57L221.64,515.1L222.82,514.66L224.05,514.28L226.71,513.64L229.67,513.16L233.01,512.82L236.95,512.6L237.22,512.54L237.46,512.39L237.64,512.17L237.73,511.91L238.12,509.44L238.42,507.14L238.64,504.99L238.76,503L238.8,501.17L238.75,499.49L238.61,497.98L238.38,496.62L238.19,495.91L237.93,495.27L237.59,494.66L237.19,494.12L236.55,493.49L235.82,492.97L234.97,492.56L234.05,492.27L233.03,492.1L231.97,492.05L230.87,492.13L229.77,492.34L228.86,492.6L228.01,492.93L227.21,493.34L226.45,493.82L225.73,494.39L225.06,495.03L224.45,495.76L223.89,496.56L223.38,497.44L222.93,498.39L222.53,499.42L222.19,500.53L221.75,502.23L221.6,503.04L221.51,503.37L221.31,503.64L221.02,503.83L220.69,503.89L215.12,503.85L214.82,503.79L214.58,503.61L214.42,503.35L214.38,503.06L214.39,503L214.64,501.6L214.95,500.24L215.32,498.9L215.74,497.61L216.21,496.38L216.73,495.19L217.31,494.05L217.94,492.95L218.61,491.93L219.34,490.95L220.09,490.06L220.9,489.21L221.76,488.43L222.66,487.71L223.59,487.06L224.56,486.48L225.82,485.85L227.14,485.32L228.5,484.9L229.93,484.59L231.38,484.39L232.89,484.29L234.44,484.3L236.04,484.42L236.97,484.55L237.86,484.73L238.73,484.97L239.54,485.26L240.32,485.61L241.04,486L241.74,486.46L242.38,486.96L242.96,487.49L243.49,488.06L243.99,488.68L244.44,489.35L245.21,490.78L245.81,492.39L246.22,494.14L246.45,496.03L246.48,498.01L246.32,500.03L244.52,512.86L240.42,540.93L240,544.16L239.61,548.26L239.29,551.6L238.99,554.14L238.85,554.58L238.56,554.93L238.17,555.17L237.72,555.25L232.54,555.25L232.24,555.19L232,555.01L231.85,554.75L231.81,554.46L231.82,554.39L232.69,549.78L232.68,549.62L232.59,549.48L232.44,549.4L232.27,549.4L232.12,549.49ZM235.96,520.35L232.82,520.49L230.44,520.67L228.4,520.94L226.57,521.32L224.9,521.82L223.38,522.45L222.03,523.22L220.82,524.12L220.14,524.74L219.49,525.44L218.9,526.18L218.35,526.99L217.84,527.85L217.38,528.78L216.96,529.76L216.58,530.82L216.2,532.08L215.87,533.48L215.59,534.93L215.38,536.4L215.24,537.81L215.18,539.17L215.19,540.46L215.27,541.66L215.42,542.76L215.63,543.76L215.91,544.67L216.26,545.52L216.66,546.24L217.14,546.89L217.68,547.44L218.29,547.9L219.02,548.28L219.85,548.56L220.73,548.7L221.72,548.73L222.48,548.66L223.26,548.49L224.03,548.22L224.82,547.86L225.62,547.4L226.42,546.84L227.24,546.19L228.06,545.43L228.91,544.56L229.7,543.67L230.43,542.73L231.09,541.79L232,540.27L232.8,538.65L233.49,536.89L234.08,535L234.58,532.99L235.01,530.74L235.42,528.13L235.9,524.43L236.38,520.81L236.38,520.77L236.35,520.61L236.26,520.47L236.12,520.38L235.96,520.35Z" style="fill:rgb(76,76,77);fill-rule:nonzero;"/>
        <path d="M271,533.68L276.7,533.68L276.93,533.74L277.12,533.88L277.25,534.09L277.27,534.33L276.94,537.21L276.37,540.03L275.61,542.71L275.15,544L274.63,545.25L274.08,546.44L273.48,547.59L272.84,548.68L272.15,549.72L271.43,550.69L270.66,551.6L269.87,552.45L269.03,553.24L268.28,553.85L267.5,554.4L266.66,554.9L265.79,555.34L264.89,555.72L263.96,556.03L263.02,556.27L262.06,556.45L261.1,556.56L260.13,556.6L259.16,556.57L258.19,556.47L257.24,556.3L256.3,556.06L255.4,555.76L254.52,555.39L253.45,554.82L252.47,554.14L251.67,553.45L250.94,552.68L250.27,551.82L249.68,550.9L249.15,549.89L248.67,548.77L248.27,547.6L247.93,546.33L247.66,544.99L247.45,543.57L247.31,542.04L247.23,540.45L247.22,538.76L247.27,537L247.57,533.15L248.15,527.98L248.84,522.69L249.65,517.3L250.56,511.8L251.61,506.29L252.12,504.05L252.66,501.96L253.24,500.01L253.87,498.17L254.54,496.48L255.26,494.9L256.04,493.41L256.87,492.05L257.77,490.78L258.71,489.63L259.72,488.59L260.77,487.68L261.88,486.87L263.08,486.16L264.59,485.45L266.18,484.92L267.88,484.53L269.65,484.32L270.73,484.27L271.75,484.3L272.75,484.4L273.68,484.56L274.59,484.81L275.43,485.13L276.24,485.52L277,485.98L277.83,486.61L278.57,487.33L279.26,488.16L279.86,489.06L280.42,490.08L280.88,491.17L281.28,492.34L281.6,493.61L281.85,494.98L282.03,496.44L282.12,497.93L282.13,499.5L282.06,501.1L281.9,502.74L281.67,504.35L281.37,505.94L281.29,506.14L281.15,506.3L280.96,506.4L280.75,506.44L274.95,506.44L274.74,506.4L274.57,506.28L274.46,506.09L274.43,505.88L274.44,505.84L274.8,503.3L274.97,501.15L274.99,499.22L274.83,497.5L274.51,496.03L274.28,495.39L274.01,494.79L273.7,494.27L273.35,493.8L272.96,493.4L272.52,493.05L272.04,492.77L271.28,492.43L270.53,492.2L269.77,492.06L269.01,492.03L267.94,492.14L266.85,492.46L265.82,492.97L264.81,493.68L263.85,494.56L262.96,495.62L262.17,496.81L261.52,498.07L260.67,500.21L259.91,502.71L259.21,505.58L258.42,509.55L258.12,511.07L256.93,517.65L255.98,524.01L255.25,530.16L254.75,536.1L254.68,538.01L254.73,539.86L254.9,541.6L255.18,543.21L255.56,544.61L256.04,545.83L256.62,546.85L257.29,547.67L257.38,547.75L258.09,548.27L258.96,548.61L259.98,548.77L261.11,548.74L262.33,548.51L263.54,548.1L264.63,547.54L265.46,546.9L266.29,545.98L267.05,544.9L267.74,543.67L268.35,542.29L268.89,540.77L269.37,539.08L269.82,537.14L270.34,534.51L270.41,534.16L270.48,533.97L270.62,533.82L270.8,533.72L271,533.68Z" style="fill:rgb(76,76,77);fill-rule:nonzero;"/>
        <path d="M335.38,522.7L334.95,526.1L334.46,529.25L333.91,532.2L333.29,534.96L332.6,537.55L331.83,540.01L330.99,542.28L330.07,544.39L329.09,546.33L328.02,548.12L326.89,549.71L325.68,551.14L324.4,552.41L323.06,553.49L321.62,554.42L320.13,555.16L318.41,555.81L316.68,556.26L314.97,556.51L313.25,556.56L312.08,556.48L310.9,556.3L309.73,556.03L308.56,555.66L307.65,555.29L306.8,554.84L305.76,554.12L304.82,553.29L303.96,552.33L303.17,551.22L302.47,549.99L301.85,548.61L301.33,547.13L300.89,545.52L300.53,543.76L300.27,541.88L300.1,539.89L300.03,537.81L300.06,535.63L300.18,533.42L300.4,531.19L300.71,529.06L301.55,523.57L302.25,518.08L302.68,514.68L303.16,511.53L303.72,508.58L304.34,505.82L305.03,503.23L305.8,500.77L306.64,498.51L307.56,496.39L308.55,494.45L309.61,492.67L310.75,491.07L311.95,489.64L313.23,488.38L314.57,487.29L316.01,486.36L317.5,485.62L319.22,484.97L320.95,484.52L322.66,484.27L324.38,484.22L325.55,484.31L326.73,484.48L327.9,484.76L329.07,485.12L329.98,485.5L330.83,485.94L331.87,486.66L332.81,487.49L333.67,488.45L334.46,489.56L335.16,490.79L335.78,492.17L336.3,493.65L336.74,495.26L337.1,497.03L337.36,498.9L337.53,500.89L337.6,502.97L337.57,505.16L337.45,507.37L337.23,509.59L336.92,511.73L336.08,517.21L335.38,522.7ZM309.08,519.02L308.56,522.62L307.76,528.26L307.32,532.63L307.21,534.61L307.18,536.47L307.22,538.17L307.34,539.75L307.54,541.23L307.81,542.56L308.17,543.79L308.61,544.86L309.11,545.79L309.72,546.62L310.39,547.29L311.15,547.85L311.94,548.25L312.81,548.54L313.74,548.7L314.77,548.74L315.84,548.66L316.85,548.44L318.14,547.96L319.36,547.25L320.53,546.3L321.6,545.14L322.6,543.74L323.5,542.16L324.29,540.38L324.95,538.47L326.17,534.08L327.18,529.82L327.97,525.71L328.54,521.75L329.05,518.16L329.86,512.52L330.29,508.15L330.4,506.16L330.44,504.31L330.39,502.6L330.28,501.02L330.08,499.55L329.8,498.21L329.44,496.99L329.01,495.91L328.5,494.98L327.9,494.15L327.23,493.48L326.46,492.92L325.68,492.52L324.8,492.23L323.87,492.07L322.85,492.03L321.78,492.11L320.77,492.33L319.48,492.81L318.25,493.52L317.09,494.47L316.01,495.63L315.01,497.03L314.12,498.61L313.33,500.39L312.67,502.3L311.44,506.69L310.44,510.95L309.65,515.06L309.08,519.02Z" style="fill:rgb(76,76,77);fill-rule:nonzero;"/>
        <path d="M427.64,522.99L427.25,524.95L426.89,527.36L426.58,530.2L426.3,533.49L426.22,536.17L426.35,538.81L426.68,541.18L426.92,542.28L427.21,543.3L427.54,544.23L427.9,545.05L428.31,545.8L428.77,546.5L429.26,547.08L429.8,547.59L430.37,548.01L431,548.35L431.53,548.56L432.1,548.72L433.28,548.86L434.59,548.77L435.98,548.45L436.93,548.11L437.83,547.69L438.7,547.16L439.53,546.56L440.35,545.84L441.1,545.06L441.82,544.17L442.48,543.23L443.11,542.17L443.66,541.07L444.16,539.89L444.58,538.69L444.93,537.45L445.19,536.2L445.38,534.93L445.47,533.7L445.52,533.5L445.63,533.34L445.8,533.23L446,533.19L452.44,533.19L452.61,533.23L452.75,533.33L452.84,533.48L452.87,533.65L452.86,533.69L452.46,535.73L451.99,537.7L451.48,539.57L450.92,541.35L450.3,543.04L449.63,544.63L448.91,546.11L448.15,547.49L447.34,548.79L446.48,549.97L445.56,551.08L444.6,552.06L443.6,552.95L442.54,553.75L441.44,554.43L440.27,555.03L438.54,555.7L436.72,556.16L434.74,556.45L432.85,556.56L431,556.49L429.26,556.24L427.64,555.8L426.15,555.2L424.77,554.41L423.55,553.47L422.63,552.54L421.8,551.47L421.09,550.3L420.48,549L419.83,547.12L419.35,545.11L419.02,542.93L418.85,540.61L418.83,538.13L418.96,535.46L419.24,532.49L419.7,528.98L421.4,517.58L422.88,508.63L423.32,506.4L423.84,504.22L424.42,502.13L425.08,500.13L425.79,498.25L426.57,496.46L427.4,494.8L428.28,493.26L429.22,491.84L430.21,490.55L431.26,489.36L432.36,488.3L433.52,487.36L434.7,486.56L435.94,485.87L437.25,485.3L438.44,484.9L439.69,484.6L440.97,484.41L442.3,484.31L443.83,484.31L445.26,484.41L446.61,484.6L447.86,484.9L449.05,485.3L450.13,485.79L451.15,486.39L452.06,487.07L452.74,487.7L453.36,488.39L453.93,489.15L454.44,489.95L454.91,490.85L455.32,491.8L455.68,492.82L455.98,493.89L456.23,495.03L456.43,496.26L456.68,498.9L456.73,501.83L456.58,505.14L456.18,509.84L455.69,514.25L455.11,518.37L454.43,522.2L454.35,522.41L454.2,522.59L454,522.7L453.77,522.74L427.95,522.74L427.75,522.81L427.64,522.99ZM448.56,514.47L449.15,511.19L449.52,507.89L449.63,505.95L449.67,504.01L449.64,502.07L449.54,500.11L449.42,498.98L449.24,497.94L448.98,496.98L448.66,496.11L448.28,495.32L447.82,494.62L447.3,494L446.72,493.47L446.2,493.11L445.65,492.8L445.06,492.55L444.42,492.34L443.04,492.06L441.74,491.97L440.48,492.05L439.3,492.32L438.28,492.71L437.34,493.23L436.44,493.89L435.57,494.69L434.75,495.63L433.96,496.72L433.24,497.93L432.56,499.27L431.92,500.76L431.33,502.37L430.79,504.12L430.3,505.99L429.86,508L429.47,510.11L429.12,512.36L428.82,514.78L428.88,514.97L429.06,515.06L429.07,515.06L447.84,515.05L448.09,515.01L448.31,514.89L448.47,514.7L448.56,514.47Z" style="fill:rgb(76,76,77);fill-rule:nonzero;"/>
        <path d="M517.54,534.32L517.2,537.2L516.64,540.02L515.87,542.7L515.41,543.98L514.9,545.24L514.35,546.43L513.74,547.58L513.1,548.66L512.41,549.71L511.69,550.67L510.93,551.59L510.13,552.43L509.29,553.22L508.55,553.83L507.76,554.38L506.92,554.88L506.05,555.32L505.15,555.7L504.22,556.01L503.28,556.25L502.33,556.43L501.36,556.54L500.39,556.58L499.42,556.54L498.46,556.45L497.5,556.28L496.56,556.04L495.67,555.74L494.79,555.37L493.71,554.79L492.74,554.12L491.93,553.42L491.21,552.66L490.54,551.8L489.95,550.87L489.41,549.86L488.94,548.74L488.54,547.57L488.2,546.3L487.93,544.97L487.72,543.54L487.58,542.02L487.5,540.43L487.49,538.74L487.54,536.98L487.84,533.13L488.43,527.96L489.12,522.68L489.92,517.29L490.84,511.79L491.89,506.29L492.4,504.04L492.94,501.96L493.52,500L494.15,498.17L494.82,496.48L495.54,494.9L496.32,493.41L497.15,492.05L498.05,490.77L498.99,489.63L500.01,488.59L501.05,487.68L502.17,486.87L503.36,486.16L504.88,485.45L506.46,484.92L508.16,484.54L509.93,484.32L511.01,484.27L512.03,484.3L513.03,484.4L513.96,484.57L514.87,484.81L515.71,485.13L516.52,485.52L517.27,485.98L518.1,486.62L518.85,487.34L519.54,488.16L520.14,489.07L520.69,490.09L521.16,491.18L521.55,492.34L521.88,493.62L522.13,494.98L522.3,496.44L522.39,497.94L522.4,499.5L522.33,501.1L522.18,502.74L521.95,504.35L521.64,505.94L521.56,506.14L521.42,506.3L521.23,506.4L521.02,506.44L515.22,506.44L515.01,506.4L514.84,506.27L514.73,506.09L514.7,505.88L514.71,505.84L515.07,503.3L515.25,501.15L515.26,499.22L515.11,497.5L514.78,496.03L514.56,495.39L514.29,494.79L513.98,494.27L513.62,493.8L513.24,493.4L512.8,493.06L512.32,492.77L511.56,492.43L510.81,492.2L510.04,492.06L509.29,492.03L508.22,492.14L507.13,492.46L506.1,492.97L505.09,493.68L504.13,494.56L503.24,495.62L502.45,496.8L501.8,498.07L500.95,500.21L500.19,502.7L499.49,505.57L498.69,509.54L498.4,511.06L497.21,517.64L496.25,524L495.52,530.15L495.02,536.08L494.95,537.99L495,539.84L495.17,541.59L495.45,543.19L495.83,544.59L496.31,545.82L496.89,546.83L497.56,547.65L497.64,547.73L498.35,548.25L499.23,548.59L500.25,548.75L501.37,548.72L502.6,548.5L503.81,548.08L504.89,547.52L505.73,546.88L506.56,545.96L507.32,544.89L508,543.66L508.62,542.27L509.15,540.76L509.63,539.07L510.09,537.13L510.61,534.5L510.68,534.15L510.75,533.96L510.89,533.81L511.07,533.7L511.27,533.67L516.96,533.67L517.2,533.73L517.39,533.87L517.51,534.08L517.54,534.32Z" style="fill:rgb(76,76,77);fill-rule:nonzero;"/>
        <path d="M545.49,549.8L545.48,549.64L545.39,549.49L545.24,549.41L545.07,549.42L544.92,549.51L543.28,551.15L541.94,552.38L540.7,553.41L539.49,554.28L538.27,555.01L537.04,555.61L535.81,556.06L534.57,556.36L533.3,556.54L532.03,556.58L531.06,556.54L530.14,556.44L529.25,556.27L528.4,556.05L527.6,555.77L526.85,555.44L526.13,555.05L525.45,554.6L524.52,553.82L523.71,552.94L522.98,551.94L522.34,550.81L521.8,549.56L521.34,548.18L520.99,546.72L520.74,545.14L520.58,543.42L520.52,541.6L520.56,539.68L520.71,537.7L520.96,535.63L521.31,533.55L521.75,531.46L522.27,529.46L522.81,527.76L523.41,526.18L524.08,524.68L524.82,523.3L525.64,522L526.52,520.81L527.49,519.7L528.53,518.69L529.39,517.96L530.28,517.3L531.24,516.68L532.24,516.11L533.31,515.58L534.43,515.11L535.61,514.67L536.84,514.29L539.5,513.65L542.46,513.17L545.8,512.83L549.74,512.61L550.02,512.55L550.26,512.4L550.43,512.18L550.52,511.91L550.91,509.45L551.21,507.14L551.43,504.99L551.55,503L551.59,501.17L551.54,499.49L551.4,497.98L551.17,496.62L550.98,495.91L550.72,495.27L550.38,494.66L549.98,494.12L549.34,493.49L548.6,492.97L547.75,492.56L546.84,492.27L545.81,492.1L544.76,492.05L543.65,492.14L542.55,492.34L541.65,492.6L540.79,492.94L539.99,493.34L539.24,493.82L538.51,494.39L537.84,495.04L537.23,495.76L536.67,496.56L536.16,497.44L535.71,498.4L535.32,499.43L534.97,500.54L534.53,502.24L534.39,503.05L534.3,503.38L534.1,503.65L533.81,503.83L533.48,503.9L527.9,503.86L527.61,503.8L527.36,503.62L527.21,503.36L527.17,503.07L527.17,503.01L527.43,501.61L527.73,500.24L528.1,498.91L528.52,497.62L528.99,496.39L529.51,495.2L530.09,494.05L530.72,492.96L531.39,491.93L532.12,490.96L532.87,490.06L533.68,489.22L534.54,488.43L535.44,487.71L536.37,487.06L537.34,486.48L538.6,485.85L539.92,485.32L541.28,484.9L542.71,484.59L544.16,484.39L545.67,484.29L547.22,484.3L548.82,484.42L549.76,484.55L550.65,484.73L551.51,484.97L552.33,485.26L553.1,485.6L553.83,486L554.52,486.45L555.17,486.96L555.75,487.49L556.28,488.05L556.78,488.68L557.23,489.34L558,490.78L558.6,492.39L559.01,494.14L559.24,496.03L559.27,498.01L559.11,500.03L557.32,512.86L553.22,540.94L552.81,544.17L552.41,548.28L552.1,551.61L551.8,554.16L551.66,554.59L551.37,554.95L550.98,555.19L550.53,555.27L545.35,555.27L545.05,555.21L544.8,555.03L544.65,554.77L544.62,554.48L544.62,554.41L545.49,549.8ZM548.74,520.34L545.61,520.47L543.23,520.66L541.18,520.93L539.35,521.31L537.68,521.81L536.16,522.44L534.8,523.21L533.59,524.11L532.91,524.74L532.27,525.43L531.68,526.17L531.12,526.99L530.62,527.85L530.15,528.78L529.73,529.76L529.35,530.82L528.98,532.08L528.64,533.48L528.36,534.93L528.15,536.4L528.02,537.81L527.96,539.18L527.96,540.46L528.05,541.67L528.2,542.77L528.41,543.77L528.68,544.68L529.04,545.53L529.44,546.25L529.92,546.9L530.45,547.45L531.06,547.91L531.8,548.29L532.63,548.56L533.51,548.71L534.5,548.74L535.26,548.67L536.04,548.5L536.82,548.23L537.61,547.87L538.4,547.4L539.21,546.85L540.02,546.19L540.84,545.44L541.7,544.56L542.48,543.67L543.21,542.74L543.88,541.79L544.79,540.27L545.58,538.65L546.27,536.89L546.87,535L547.36,532.98L547.8,530.73L548.2,528.12L548.69,524.42L549.16,520.8L549.16,520.76L549.14,520.6L549.05,520.46L548.91,520.37L548.74,520.34Z" style="fill:rgb(76,76,77);fill-rule:nonzero;"/>
        <path d="M575.48,491.28L576.91,489.75L578.13,488.55L579.28,487.53L580.41,486.67L581.52,485.95L582.64,485.36L583.79,484.9L584.94,484.57L585.92,484.39L586.95,484.3L587.99,484.29L589.08,484.38L590.47,484.62L591.74,484.99L592.93,485.51L594.02,486.14L594.85,486.78L595.61,487.48L596.32,488.29L596.95,489.16L597.53,490.15L598.04,491.2L598.48,492.32L598.87,493.55L599.19,494.86L599.45,496.27L599.63,497.73L599.74,499.25L599.78,500.83L599.75,502.45L599.65,504.12L599.48,505.77L597.97,517.05L596.17,528.99L595.72,531.65L595.26,534.05L594.76,536.28L594.21,538.38L593.62,540.34L592.99,542.18L592.3,543.89L591.57,545.49L590.77,546.99L589.93,548.37L589.01,549.66L588.05,550.83L587.02,551.9L585.95,552.85L584.82,553.7L583.6,554.45L582.34,555.09L580.99,555.63L579.6,556.06L578.12,556.38L577.19,556.51L576.29,556.57L575.43,556.55L574.59,556.46L573.78,556.3L573,556.07L572.26,555.77L571.56,555.41L570.91,554.98L570.3,554.5L569.73,553.95L569.21,553.34L568.73,552.67L568.3,551.95L567.92,551.18L567.59,550.35L567.47,550.18L567.28,550.1L567.08,550.12L566.91,550.24L566.83,550.43L562.4,580.67L562.25,580.94L561.96,581.05L555.72,581.05L555.52,580.95L555.46,580.73L569.27,486.44L569.38,486.11L569.6,485.83L569.9,485.65L570.25,485.59L575.37,485.59L575.64,485.65L575.86,485.8L576,486.03L576.04,486.3L576.03,486.35L575.32,491.2L575.35,491.29L575.44,491.3L575.48,491.28ZM586.45,492.26L585.7,492.17L584.97,492.17L584.14,492.29L583.34,492.51L582.53,492.85L581.76,493.28L580.96,493.85L580.21,494.51L579.47,495.27L578.73,496.15L578,497.14L577.29,498.24L576.61,499.45L575.96,500.73L575.34,502.12L574.77,503.54L574.26,505L573.84,506.41L573.39,508.24L572.92,510.42L571.95,515.84L570.92,522.69L569.85,530.95L569.73,532.34L569.66,533.93L569.65,535.54L569.71,537.15L569.83,538.65L570,540.08L570.23,541.4L570.52,542.62L570.85,543.72L571.23,544.69L571.66,545.59L572.13,546.35L572.65,547L573.22,547.55L573.83,547.99L574.5,548.32L575.2,548.53L575.97,548.63L576.8,548.63L577.59,548.57L578.38,548.43L579.14,548.23L580.44,547.68L581.66,546.91L582.82,545.9L583.87,544.67L584.84,543.22L585.7,541.58L586.44,539.75L587.03,537.81L587.91,534.26L588.71,530.65L589.43,526.98L590.08,523.25L590.65,519.45L591.15,515.6L591.57,511.68L591.91,507.69L592.08,504.71L592.08,502.2L591.92,499.97L591.58,498.04L591.34,497.16L591.07,496.36L590.74,495.63L590.37,494.95L589.96,494.37L589.5,493.84L589.01,493.39L588.46,493L587.5,492.53L586.45,492.26Z" style="fill:rgb(76,76,77);fill-rule:nonzero;"/>
        <path d="M632.31,505.24L625.81,505.24L625.64,505.13L625.61,504.94L625.92,503.55L626.13,502.19L626.24,500.87L626.26,499.58L626.18,498.33L626.01,497.11L625.74,495.93L625.37,494.78L625.24,494.43L625.05,494.03L624.81,493.66L624.51,493.33L624.16,493.04L623.31,492.57L622.25,492.27L620.99,492.12L619.96,492.12L619,492.25L618.1,492.49L617.26,492.85L616.39,493.39L615.59,494.09L614.88,494.94L614.24,495.94L613.61,497.15L613.08,498.35L612.66,499.54L612.35,500.71L612.14,501.87L612.03,503.01L612.03,504.13L612.13,505.24L612.34,506.36L612.66,507.45L613.09,508.53L613.63,509.6L614.47,510.85L615.61,512.15L617.1,513.53L619.32,515.36L621.72,517.36L622.7,518.27L623.61,519.2L624.42,520.13L625.16,521.09L625.83,522.06L626.43,523.06L626.96,524.08L627.41,525.14L627.8,526.25L628.12,527.39L628.37,528.57L628.54,529.79L628.63,531.03L628.66,532.32L628.61,533.65L628.49,535.02L628.25,536.85L627.94,538.64L627.58,540.36L627.15,542L626.66,543.58L626.12,545.06L625.52,546.48L624.86,547.8L624.15,549.03L623.41,550.15L622.61,551.18L621.74,552.14L620.84,552.98L619.88,553.75L618.89,554.4L617.83,554.97L617.42,555.16L616.38,555.58L615.32,555.92L614.23,556.2L613.13,556.41L612.02,556.55L610.92,556.61L609.84,556.6L608.79,556.51L607.77,556.35L606.78,556.11L605.85,555.81L604.95,555.43L604.12,554.99L603.34,554.48L602.63,553.92L601.96,553.29L601.16,552.32L600.47,551.23L599.91,550.04L599.48,548.73L599.08,547.03L598.79,545.31L598.64,543.9L598.56,542.48L598.55,541.05L598.62,539.61L598.76,538.16L598.97,536.7L599.26,535.23L599.62,533.75L599.73,533.58L599.93,533.51L606.3,533.51L606.47,533.58L606.52,533.75L606.52,533.77L606.08,536.55L605.83,539.06L605.77,541.29L605.91,543.24L606.05,544.11L606.24,544.91L606.48,545.64L606.76,546.31L607.1,546.9L607.48,547.42L607.91,547.88L608.39,548.26L609.06,548.64L609.8,548.92L610.62,549.08L611.51,549.14L612.63,549.08L613.66,548.91L614.66,548.61L615.56,548.21L616.23,547.81L616.85,547.36L617.44,546.83L617.98,546.24L618.5,545.57L618.97,544.85L619.4,544.05L619.79,543.21L620.14,542.3L620.45,541.3L620.94,539.18L621.23,536.86L621.33,534.48L621.29,533.43L621.16,532.44L620.96,531.49L620.68,530.59L620.28,529.64L619.77,528.7L619.16,527.79L618.42,526.86L617.57,525.94L616.56,524.96L613.6,522.37L610.94,520.08L609.67,518.84L608.55,517.53L607.58,516.15L606.77,514.69L606.28,513.61L605.87,512.49L605.54,511.34L605.28,510.15L605.1,508.92L604.99,507.65L604.96,506.35L605.01,505.01L605.14,503.36L605.33,501.77L605.59,500.21L605.89,498.72L606.26,497.28L606.67,495.94L607.15,494.63L607.67,493.42L608.24,492.3L608.87,491.23L609.55,490.25L610.28,489.33L611.05,488.51L611.88,487.76L612.74,487.1L613.67,486.5L614.87,485.89L616.86,485.13L618.91,484.58L620.91,484.28L621.88,484.22L622.85,484.23L623.75,484.29L624.64,484.42L625.48,484.6L626.29,484.85L627.05,485.16L627.77,485.52L628.43,485.94L629.07,486.41L629.77,487.07L630.36,487.75L630.88,488.48L631.37,489.31L631.79,490.19L632.17,491.17L632.49,492.2L632.76,493.31L632.97,494.45L633.13,495.68L633.23,496.99L633.27,498.3L633.24,499.66L633.16,501.03L633.01,502.42L632.81,503.77L632.56,505.04L632.47,505.18L632.31,505.24Z" style="fill:rgb(76,76,77);fill-rule:nonzero;"/>
        <path d="M698.99,523L698.6,524.96L698.25,527.37L697.93,530.21L697.66,533.5L697.58,536.18L697.72,538.81L698.05,541.19L698.29,542.29L698.58,543.3L698.91,544.23L699.27,545.06L699.68,545.81L700.15,546.5L700.64,547.08L701.18,547.59L701.75,548.01L702.38,548.35L702.91,548.56L703.48,548.72L704.66,548.86L705.97,548.76L707.36,548.45L708.3,548.11L709.2,547.68L710.08,547.16L710.91,546.55L711.72,545.84L712.47,545.05L713.19,544.16L713.85,543.22L714.48,542.16L715.03,541.05L715.53,539.88L715.94,538.68L716.29,537.43L716.56,536.18L716.74,534.92L716.83,533.69L716.88,533.49L716.99,533.33L717.16,533.22L717.36,533.18L723.8,533.17L723.97,533.21L724.11,533.31L724.2,533.46L724.22,533.63L724.22,533.67L723.82,535.71L723.36,537.68L722.85,539.55L722.28,541.34L721.67,543.02L721,544.61L720.29,546.1L719.53,547.48L718.71,548.77L717.86,549.95L716.93,551.06L715.98,552.05L714.98,552.93L713.92,553.73L712.82,554.42L711.66,555.02L709.92,555.69L708.11,556.15L706.13,556.45L704.23,556.56L702.38,556.49L700.65,556.24L699.02,555.81L697.54,555.21L696.16,554.42L694.94,553.48L694.01,552.55L693.18,551.48L692.47,550.32L691.86,549.01L691.21,547.13L690.72,545.12L690.39,542.95L690.22,540.62L690.2,538.14L690.32,535.48L690.6,532.51L691.06,529L692.74,517.59L694.22,508.65L694.65,506.42L695.17,504.23L695.75,502.15L696.4,500.15L697.11,498.26L697.89,496.48L698.72,494.82L699.6,493.28L700.54,491.85L701.52,490.56L702.58,489.36L703.67,488.31L704.83,487.36L706.01,486.56L707.25,485.87L708.56,485.3L709.75,484.9L711,484.6L712.27,484.4L713.61,484.31L715.14,484.3L716.56,484.4L717.91,484.6L719.16,484.89L720.35,485.29L721.44,485.78L722.45,486.37L723.37,487.06L724.05,487.69L724.66,488.37L725.24,489.13L725.75,489.94L726.22,490.83L726.63,491.78L726.99,492.8L727.29,493.87L727.55,495.01L727.75,496.24L728,498.88L728.05,501.81L727.91,505.12L727.52,509.82L727.03,514.23L726.45,518.35L725.78,522.18L725.69,522.39L725.54,522.57L725.34,522.68L725.12,522.72L699.3,522.75L699.1,522.82L698.99,523ZM719.94,514.49L720.52,511.21L720.89,507.91L721.01,505.97L721.05,504.03L721.02,502.08L720.92,500.13L720.8,499L720.62,497.96L720.37,497L720.05,496.13L719.66,495.34L719.21,494.64L718.69,494.02L718.1,493.49L717.59,493.13L717.03,492.82L716.44,492.56L715.8,492.36L714.42,492.08L713.12,491.98L711.86,492.07L710.68,492.33L709.67,492.73L708.72,493.25L707.82,493.9L706.95,494.71L706.13,495.64L705.34,496.73L704.62,497.94L703.94,499.28L703.3,500.77L702.71,502.38L702.17,504.13L701.68,506L701.23,508.01L700.84,510.12L700.5,512.37L700.2,514.79L700.26,514.98L700.44,515.07L719.22,515.07L719.47,515.03L719.68,514.91L719.85,514.72L719.94,514.49Z" style="fill:rgb(76,76,77);fill-rule:nonzero;"/>
        <path d="M755.28,505.25L755.25,505.24L755.08,505.14L755.05,504.95L755.36,503.55L755.57,502.2L755.68,500.87L755.7,499.59L755.62,498.33L755.45,497.12L755.18,495.93L754.82,494.79L754.68,494.44L754.49,494.03L754.25,493.67L753.95,493.34L753.6,493.05L752.75,492.58L751.7,492.27L750.43,492.13L749.41,492.13L748.44,492.25L747.54,492.49L746.7,492.85L745.83,493.4L745.04,494.1L744.32,494.94L743.68,495.94L743.05,497.16L742.53,498.36L742.1,499.54L741.79,500.71L741.58,501.87L741.47,503.01L741.47,504.13L741.57,505.24L741.78,506.36L742.1,507.45L742.53,508.54L743.07,509.6L743.91,510.86L745.05,512.15L746.54,513.53L748.76,515.37L751.15,517.36L752.14,518.27L753.04,519.21L753.85,520.14L754.6,521.09L755.26,522.06L755.86,523.06L756.39,524.09L756.84,525.15L757.23,526.25L757.55,527.4L757.8,528.57L757.97,529.79L758.06,531.04L758.09,532.32L758.04,533.65L757.92,535.02L757.68,536.86L757.37,538.65L757,540.36L756.57,542.01L756.09,543.58L755.55,545.06L754.94,546.49L754.29,547.81L753.58,549.04L752.83,550.15L752.03,551.18L751.16,552.14L750.27,552.98L749.31,553.75L748.31,554.4L747.25,554.97L746.84,555.16L745.81,555.57L744.74,555.92L743.65,556.2L742.55,556.41L741.44,556.55L740.34,556.61L739.27,556.59L738.21,556.51L737.19,556.34L736.2,556.11L735.27,555.8L734.37,555.43L733.55,554.99L732.76,554.48L732.05,553.91L731.39,553.28L730.59,552.32L729.89,551.22L729.34,550.04L728.91,548.72L728.51,547.02L728.22,545.31L728.07,543.9L727.99,542.47L727.98,541.04L728.05,539.6L728.19,538.15L728.4,536.69L728.69,535.22L729.05,533.74L729.16,533.57L729.36,533.5L735.73,533.51L735.9,533.58L735.95,533.75L735.95,533.77L735.51,536.55L735.26,539.06L735.2,541.29L735.34,543.24L735.48,544.11L735.67,544.91L735.9,545.64L736.19,546.3L736.52,546.9L736.9,547.42L737.34,547.87L737.81,548.26L738.48,548.64L739.22,548.91L740.04,549.08L740.93,549.14L742.05,549.08L743.09,548.91L744.08,548.61L744.99,548.21L745.66,547.81L746.27,547.36L746.86,546.83L747.4,546.24L747.92,545.57L748.39,544.85L748.83,544.05L749.21,543.21L749.56,542.3L749.88,541.3L750.36,539.18L750.66,536.86L750.76,534.48L750.72,533.43L750.59,532.45L750.39,531.49L750.11,530.59L749.71,529.65L749.2,528.7L748.59,527.79L747.85,526.87L747,525.94L746,524.96L743.03,522.37L740.37,520.08L739.11,518.84L737.99,517.53L737.02,516.14L736.21,514.68L735.72,513.61L735.31,512.49L734.98,511.34L734.72,510.15L734.54,508.92L734.43,507.65L734.4,506.35L734.45,505.01L734.59,503.36L734.78,501.77L735.03,500.21L735.34,498.72L735.7,497.28L736.12,495.94L736.6,494.63L737.12,493.42L737.69,492.3L738.32,491.23L738.99,490.25L739.73,489.33L740.5,488.52L741.32,487.76L742.19,487.1L743.12,486.51L744.32,485.89L746.31,485.13L748.36,484.59L750.36,484.29L751.33,484.23L752.3,484.23L753.2,484.3L754.09,484.43L754.93,484.61L755.74,484.86L756.49,485.16L757.22,485.53L757.88,485.94L758.51,486.42L759.22,487.08L759.8,487.76L760.33,488.49L760.81,489.32L761.23,490.2L761.61,491.18L761.93,492.21L762.2,493.32L762.41,494.46L762.57,495.69L762.67,497L762.71,498.31L762.68,499.67L762.6,501.04L762.45,502.43L762.25,503.78L762,505.05L761.91,505.19L761.75,505.25L755.28,505.25Z" style="fill:rgb(76,76,77);fill-rule:nonzero;"/>
        <path d="M163.1,485.59L168.75,485.59L168.95,485.62L169.13,485.71L169.34,485.98L169.38,486.32L159.37,554.68L159.3,554.9L159.16,555.07L158.96,555.19L158.74,555.23L153.09,555.23L152.89,555.2L152.7,555.1L152.5,554.83L152.46,554.5L162.47,486.14L162.57,485.87L162.8,485.67L163.1,485.59Z" style="fill:rgb(76,76,77);fill-rule:nonzero;"/>
        <path d="M372.74,485.55L378.49,485.55L378.73,485.6L378.93,485.75L379.05,485.97L379.07,486.23L369.04,554.72L368.98,554.91L368.85,555.08L368.67,555.18L368.46,555.22L362.71,555.22L362.44,555.15L362.23,554.97L362.14,554.77L362.13,554.54L372.16,486.05L372.27,485.79L372.49,485.61L372.74,485.55Z" style="fill:rgb(76,76,77);fill-rule:nonzero;"/>
        <path d="M656.45,549.96L655.8,550.81L655.08,551.63L654.31,552.41L653.48,553.15L652.62,553.82L651.72,554.43L650.82,554.97L649.88,555.45L648.95,555.83L648.01,556.15L647.07,556.39L646.13,556.55L645.22,556.62L644.3,556.62L643.41,556.53L642.53,556.37L641.14,555.94L640.01,555.41L639,554.76L638.28,554.15L637.62,553.49L637.02,552.74L636.49,551.93L635.99,551.02L635.57,550.06L635.21,549.03L634.91,547.9L634.66,546.71L634.47,545.43L634.35,544.11L634.29,542.73L634.29,541.26L634.35,539.75L634.66,536.57L642.03,485.83L642.12,485.66L642.3,485.59L648.82,485.59L648.95,485.66L648.99,485.81L641.66,536.18L641.5,538.24L641.52,540.48L641.72,542.52L642.09,544.33L642.59,545.79L642.89,546.41L643.24,546.97L643.61,547.43L644.02,547.83L644.45,548.14L644.93,548.38L645.59,548.57L646.71,548.69L647.78,548.65L648.69,548.48L649.58,548.2L650.46,547.81L651.3,547.31L652.15,546.68L652.95,545.95L653.72,545.12L654.48,544.18L655.22,543.11L655.92,541.92L656.56,540.68L657.14,539.36L657.66,538L658.1,536.6L658.44,535.23L658.68,533.94L665.75,485.84L665.85,485.66L666.04,485.59L672.57,485.59L672.67,485.65L672.7,485.76L662.58,554.86L662.43,555.14L662.14,555.25L656.72,555.25L656.51,555.16L656.43,554.94L656.43,554.92L657.12,550.23L657.09,550.03L656.97,549.88L656.79,549.81L656.6,549.84L656.45,549.96Z" style="fill:rgb(76,76,77);fill-rule:nonzero;"/>
        <path d="M377.09,610.84L377.06,610.91L377.09,611.14L377.3,611.24L385.69,611.24L386.06,611.36L386.35,611.62L386.51,611.97L386.51,612.36L386.44,612.73L386.23,613.26L385.86,613.69L385.36,613.97L384.8,614.07L372.2,614.07L372.07,614.06L371.72,613.93L371.46,613.66L371.33,613.3L371.36,612.93L371.61,612.33L371.96,611.76L372.41,611.21L372.96,610.7L374.13,609.73L376.92,607.4L378.97,605.58L380.72,603.88L382.15,602.31L383.36,600.77L384.3,599.29L384.98,597.87L385.39,596.51L385.54,595.41L385.49,594.41L385.25,593.57L385.05,593.19L384.81,592.85L384.24,592.32L383.55,591.94L382.72,591.7L381.82,591.61L380.82,591.68L379.82,591.9L378.84,592.27L377.93,592.77L377.51,592.94L377.05,592.93L376.64,592.75L376.33,592.42L376.31,592.39L376.12,592.07L376,591.73L376.02,591.37L376.16,591.05L376.41,590.79L377.7,590.03L379.15,589.42L380.67,589L382.16,588.81L383.56,588.84L384.84,589.08L385.42,589.28L385.98,589.54L386.48,589.84L386.94,590.2L387.38,590.61L387.77,591.08L388.32,591.95L388.7,592.85L388.91,593.67L389,594.51L388.99,595.41L388.86,596.31L388.62,597.25L388.26,598.25L387.81,599.24L387.24,600.28L386.54,601.37L385.74,602.47L384.83,603.6L383.82,604.72L382.7,605.87L381.53,606.97L380.31,608.01L379.16,608.91L377.89,609.94L377.43,610.41L377.09,610.84Z" style="fill:rgb(76,76,77);fill-rule:nonzero;"/>
        <path d="M637.11,610.83L637.08,610.9L637.12,611.13L637.32,611.24L645.63,611.23L645.72,611.24L646.09,611.36L646.38,611.61L646.54,611.97L646.54,612.35L646.47,612.72L646.26,613.26L645.89,613.69L645.39,613.97L644.83,614.07L632.22,614.07L632.09,614.06L631.74,613.93L631.47,613.66L631.35,613.3L631.38,612.93L631.62,612.33L631.97,611.75L632.42,611.21L632.98,610.7L634.15,609.73L636.94,607.39L638.99,605.57L640.74,603.87L642.18,602.3L643.38,600.76L644.33,599.27L645,597.86L645.42,596.49L645.56,595.39L645.51,594.39L645.27,593.55L645.08,593.17L644.83,592.83L644.27,592.3L643.58,591.92L642.75,591.67L641.84,591.59L640.84,591.66L639.84,591.88L638.86,592.25L637.95,592.75L637.52,592.92L637.07,592.91L636.65,592.73L636.34,592.4L636.33,592.37L636.14,592.05L636.02,591.71L636.03,591.35L636.17,591.02L636.43,590.77L637.72,590.01L639.17,589.4L640.69,588.98L642.18,588.78L643.58,588.81L644.87,589.06L645.45,589.26L646,589.51L646.5,589.81L646.97,590.17L647.4,590.58L647.8,591.05L648.35,591.93L648.73,592.83L648.94,593.65L649.03,594.49L649.01,595.38L648.89,596.29L648.65,597.23L648.29,598.23L647.84,599.22L647.27,600.26L646.57,601.35L645.77,602.45L644.85,603.58L643.85,604.71L642.73,605.86L641.55,606.96L640.33,608.01L639.18,608.9L637.91,609.94L637.46,610.4L637.11,610.83Z" style="fill:rgb(76,76,77);fill-rule:nonzero;"/>
        <path d="M663.72,603.79L663.75,603.64L663.71,603.49L663.59,603.39L663.44,603.35L663.29,603.4L661.67,604.34L660.23,604.93L659.55,605.12L658.94,605.21L658.35,605.23L657.77,605.16L656.55,604.83L655.46,604.34L654.55,603.72L653.79,602.94L653.33,602.26L652.97,601.52L652.72,600.71L652.57,599.86L652.52,598.93L652.58,597.97L652.74,596.98L653.01,595.99L653.38,595L653.85,594.04L654.39,593.12L655.02,592.25L655.7,591.48L656.44,590.78L657.22,590.2L658.04,589.71L658.88,589.33L659.7,589.04L660.54,588.84L661.35,588.74L662.14,588.74L662.9,588.83L663.66,589.02L664.37,589.3L665.18,589.76L665.91,590.35L666.55,591.06L667.1,591.88L667.55,592.8L667.88,593.8L668.09,594.87L668.19,596.01L668.18,597.38L668.08,598.74L667.88,600.1L667.58,601.43L667.2,602.74L666.72,604.01L666.15,605.25L665.5,606.43L664.77,607.55L663.96,608.61L663.1,609.58L662.16,610.48L661.18,611.28L660.14,612L659.05,612.63L657.91,613.17L656.75,613.6L655.53,613.95L654.29,614.19L653.01,614.34L652.93,614.34L652.49,614.25L652.13,613.99L651.9,613.6L651.84,613.16L651.85,613.03L651.99,612.51L652.3,612.06L652.74,611.75L653.26,611.6L654.41,611.44L655.52,611.18L656.58,610.83L657.59,610.38L658.51,609.86L659.38,609.25L660.22,608.56L661.01,607.78L661.75,606.91L662.45,605.96L663.11,604.92L663.72,603.79ZM662.675,591.715L661.835,591.491L660.942,591.482L660.031,591.689L659.137,592.103L658.295,592.709L657.536,593.483L656.889,594.396L656.381,595.413L656.029,596.494L655.848,597.598L655.845,598.682L656.019,599.705L656.365,600.628L656.868,601.415L657.51,602.035L658.265,602.466L659.106,602.689L659.998,602.698L660.909,602.491L661.803,602.077L662.645,601.471L663.405,600.697L664.051,599.784L664.559,598.767L664.911,597.686L665.092,596.582L665.095,595.498L664.921,594.475L664.575,593.552L664.072,592.766L663.43,592.145L662.675,591.715Z" style="fill:rgb(76,76,77);fill-rule:nonzero;"/>
        <path d="M681.87,588.747L682.589,589.024L683.266,589.423L683.893,589.938L684.464,590.565L684.974,591.298L685.418,592.131L685.792,593.054L686.092,594.059L686.316,595.136L686.46,596.276L686.524,597.466L686.507,598.696L686.409,599.953L686.232,601.227L685.976,602.503L685.645,603.77L685.241,605.017L684.769,606.23L684.232,607.398L683.637,608.51L682.989,609.555L682.294,610.524L681.558,611.406L680.789,612.193L679.995,612.878L679.183,613.454L678.36,613.916L677.535,614.259L676.716,614.48L675.91,614.576L675.126,614.547L674.37,614.393L673.651,614.116L672.974,613.717L672.347,613.202L671.776,612.575L671.266,611.842L670.822,611.009L670.448,610.086L670.148,609.081L669.924,608.004L669.78,606.865L669.716,605.674L669.733,604.444L669.831,603.187L670.008,601.914L670.264,600.637L670.595,599.37L670.999,598.123L671.471,596.91L672.008,595.742L672.603,594.63L673.251,593.585L673.947,592.616L674.682,591.734L675.451,590.947L676.245,590.262L677.057,589.686L677.88,589.224L678.705,588.881L679.524,588.66L680.33,588.564L681.114,588.593L681.87,588.747ZM680.652,591.34L680.195,591.279L679.718,591.318L679.226,591.456L678.723,591.692L678.215,592.024L677.705,592.447L677.199,592.959L676.702,593.555L675.753,594.971L674.895,596.643L674.16,598.506L673.577,600.488L673.168,602.513L672.949,604.504L672.929,606.383L673.107,608.079L673.269,608.837L673.478,609.526L673.732,610.139L674.027,610.669L674.362,611.112L674.733,611.464L675.136,611.721L675.568,611.88L676.025,611.941L676.502,611.902L676.994,611.764L677.497,611.528L678.006,611.196L678.515,610.773L679.021,610.261L679.518,609.665L680.467,608.249L681.326,606.577L682.06,604.714L682.643,602.732L683.052,600.707L683.271,598.716L683.291,596.837L683.113,595.141L682.951,594.383L682.742,593.694L682.489,593.081L682.193,592.551L681.858,592.108L681.487,591.756L681.084,591.499L680.652,591.34Z" style="fill:rgb(76,76,77);fill-rule:nonzero;"/>
        <path d="M357.51,591.21L357.72,589.8L357.78,589.61L357.91,589.46L358.08,589.36L358.27,589.32L372.39,589.32L372.67,589.4L372.88,589.61L372.95,589.89L372.87,590.18L358.13,613.78L357.93,613.97L357.66,614.04L355.58,614.04L355.34,613.99L355.15,613.84L355.02,613.52L355.1,613.18L367.89,592.71L367.97,592.42L367.9,592.14L367.69,591.93L367.41,591.85L358.07,591.85L357.75,591.75L357.55,591.51L357.51,591.21Z" style="fill:rgb(76,76,77);fill-rule:nonzero;"/>
        <path d="M489.76,592.84L486.99,594.1L486.66,594.17L486.34,594.12L486.05,593.94L485.86,593.67L485.69,593.3L485.58,592.83L485.66,592.35L485.92,591.94L486.31,591.66L492.16,589.01L492.42,588.93L492.68,588.91L492.95,588.95L493.19,589.05L493.41,589.21L493.58,589.41L493.71,589.65L493.77,589.91L493.76,590.26L489.48,613.12L489.28,613.62L488.89,614.01L488.39,614.23L487.85,614.23L487.26,614.12L486.89,613.97L486.61,613.7L486.45,613.33L486.45,612.94L490.15,593.15L490.14,593.02L490.08,592.91L489.97,592.83L489.84,592.82L489.76,592.84Z" style="fill:rgb(76,76,77);fill-rule:nonzero;"/>
        <path d="M512.78,604.68L513.56,604.69L514.58,604.57L514.82,604.58L515.05,604.67L515.22,604.83L515.33,605.05L515.45,605.83L515.41,606.18L515.31,606.5L515.06,606.91L514.88,607.08L514.66,607.19L514.42,607.24L514.17,607.22L513.38,607.1L512.71,607.1L512.19,607.23L511.79,607.49L511.65,607.77L510.63,613.22L510.45,613.67L510.11,614.01L509.67,614.2L509.19,614.21L508.36,614.05L508.06,613.93L507.82,613.7L507.7,613.41L507.69,613.08L508.62,608.14L508.61,607.81L508.47,607.51L508.22,607.3L507.91,607.2L499.02,607.2L498.73,607.1L498.5,606.9L498.38,606.62L498.38,606.31L498.59,605.6L498.92,604.89L499.37,604.16L499.94,603.43L505.37,596.96L510.94,590.11L511.24,589.81L511.6,589.59L512.59,589.25L513.08,589.18L513.56,589.16L514.06,589.2L514.55,589.31L514.74,589.41L514.88,589.57L514.96,589.77L514.96,589.98L512.33,604.06L512.33,604.08L512.34,604.29L512.42,604.47L512.58,604.61L512.78,604.68ZM502.9,604.62L508.76,604.62L509.01,604.58L509.24,604.45L509.41,604.25L509.5,604.01L511.49,593.35L511.42,593.28L511.39,593.3L502.67,604.14L502.62,604.23L502.61,604.37L502.66,604.5L502.76,604.59L502.9,604.62Z" style="fill:rgb(76,76,77);fill-rule:nonzero;"/>
        <path d="M523.94,598.02L523.94,598.04L523.97,598.14L524.07,598.19L525.23,598.23L526.3,598.35L527.31,598.57L528.21,598.88L529.07,599.29L529.81,599.77L530.47,600.35L531.03,601L531.47,601.69L531.8,602.44L532.05,603.25L532.19,604.09L532.23,604.98L532.16,605.89L531.99,606.8L531.73,607.7L531.36,608.6L530.9,609.47L530.36,610.27L529.74,611.04L529.07,611.72L528.32,612.34L527.53,612.88L526.68,613.35L525.72,613.75L524.7,614.05L523.66,614.24L522.57,614.33L521.48,614.31L520.35,614.18L519.22,613.94L518.05,613.59L517.57,613.31L517.23,612.87L517.09,612.33L517.17,611.78L517.24,611.55L517.28,611.46L517.56,611.07L517.98,610.82L518.46,610.77L518.93,610.91L519.87,611.35L520.8,611.64L521.76,611.79L522.68,611.79L523.43,611.69L524.15,611.49L524.87,611.21L525.54,610.85L526.19,610.39L526.79,609.87L527.34,609.26L527.83,608.61L528.23,607.92L528.55,607.2L528.77,606.46L528.9,605.73L528.92,605.02L528.84,604.33L528.66,603.69L528.37,603.09L527.91,602.46L527.29,601.9L526.56,601.45L525.67,601.09L524.68,600.85L523.6,600.71L522.37,600.68L521.07,600.75L520.97,600.75L520.76,600.68L520.59,600.52L520.51,600.31L520.52,600.08L523.4,590.04L523.54,589.74L523.78,589.5L524.07,589.34L524.4,589.29L533.74,589.29L534.12,589.37L534.42,589.6L534.61,589.94L534.64,590.32L534.61,590.44L534.47,590.94L534.29,591.33L533.99,591.63L533.61,591.83L533.18,591.9L526.01,591.9L525.75,591.99L525.6,592.21L523.94,598.02Z" style="fill:rgb(76,76,77);fill-rule:nonzero;"/>
        <path d="M403.1,598.01L403.17,598.22L403.39,598.28L403.48,598.24L404.27,597.56L405.36,596.64L406.16,596.1L406.76,595.8L407.46,595.52L408.64,595.19L409.71,595.07L410.68,595.16L411.54,595.46L412.18,595.88L412.74,596.45L413.22,597.17L413.63,598.04L413.68,598.12L413.82,598.26L414.01,598.32L414.21,598.29L414.37,598.18L415.6,597.05L416.81,596.17L418.03,595.56L418.63,595.35L419.24,595.21L419.9,595.12L420.53,595.1L421.16,595.15L421.76,595.27L422.31,595.45L422.83,595.7L423.29,596.01L423.7,596.38L424.29,597.14L424.7,598.06L424.9,599.08L424.89,600.21L424.55,603.17L424.06,606.32L423.43,609.66L422.66,613.18L422.46,613.65L422.09,614.01L421.62,614.2L421.11,614.21L420.57,614.1L420.56,614.1L420.16,613.93L419.85,613.62L419.68,613.22L419.68,612.78L420.97,605.99L421.39,603.46L421.66,601.49L421.7,600.9L421.67,600.35L421.58,599.82L421.43,599.34L421.22,598.91L420.96,598.55L420.64,598.24L420.29,598L419.92,597.84L419.52,597.75L419.09,597.72L418.64,597.76L418.19,597.88L417.71,598.06L416.8,598.61L415.96,599.34L415.21,600.25L414.54,601.35L413.97,602.62L413.48,604.05L413.06,605.69L412.67,607.61L412.23,610.33L411.76,613.13L411.76,613.14L411.56,613.64L411.18,614.03L410.68,614.24L410.14,614.24L409.54,614.13L409.53,614.13L409.15,613.98L408.86,613.69L408.71,613.31L408.71,612.89L409.77,607.49L410.58,602.69L410.69,601.73L410.71,600.84L410.64,600.01L410.48,599.25L410.44,599.14L410.25,598.74L409.97,598.39L409.62,598.1L409.21,597.89L408.76,597.77L408.29,597.73L407.81,597.78L407.35,597.92L406.71,598.22L406.13,598.57L405.2,599.31L404.37,600.24L403.64,601.36L403.02,602.67L402.5,604.15L402.06,605.84L401.67,607.82L401.24,610.58L400.88,612.92L400.8,613.23L400.66,613.52L400.46,613.77L400.22,613.98L399.94,614.14L399.63,614.24L399.32,614.28L399,614.26L398.98,614.25L398.51,614.17L398.15,614.03L397.87,613.76L397.72,613.4L397.72,613.01L400.88,596.04L401.02,595.69L401.29,595.42L401.63,595.27L402.01,595.26L402.77,595.4L403.05,595.51L403.26,595.71L403.41,596.01L403.41,596.34L403.1,598.01Z" style="fill:rgb(76,76,77);fill-rule:nonzero;"/>
        <path d="M439.14,611.08L439.54,611.04L439.92,611.16L440.22,611.43L440.39,611.79L440.4,611.87L440.45,612.23L440.44,612.63L440.3,613.01L440.05,613.31L439.71,613.51L438.26,613.99L436.81,614.28L435.37,614.37L433.99,614.27L432.73,613.99L431.58,613.52L430.58,612.88L429.72,612.06L429.33,611.54L428.99,610.97L428.71,610.38L428.49,609.73L428.32,609.04L428.22,608.31L428.18,607.55L428.2,606.75L428.42,604.92L428.84,603.2L429.47,601.56L430.29,600.07L431.29,598.73L431.85,598.13L432.45,597.58L433.07,597.08L433.73,596.64L434.43,596.25L435.16,595.92L435.93,595.63L436.73,595.42L437.53,595.27L438.36,595.18L439.21,595.15L440.08,595.2L440.94,595.3L441.83,595.47L442.21,595.64L442.51,595.95L442.68,596.34L442.7,596.76L442.59,597.57L442.45,597.96L442.15,598.26L441.76,598.41L441.34,598.39L441.23,598.34L440.46,598.07L439.72,597.91L438.97,597.84L438.24,597.86L437.31,598.04L436.43,598.36L435.56,598.83L434.76,599.44L433.99,600.2L433.3,601.07L432.69,602.05L432.19,603.09L431.78,604.21L431.52,605.35L431.4,606.44L431.42,607.49L431.57,608.43L431.88,609.3L432.3,610.03L432.87,610.64L433.41,611.03L434.03,611.33L434.72,611.53L435.49,611.63L436.3,611.64L437.19,611.55L438.12,611.36L439.14,611.08Z" style="fill:rgb(76,76,77);fill-rule:nonzero;"/>
        <path d="M455.57,611.41L455.55,611.26L455.47,611.14L455.33,611.07L455.18,611.08L455.06,611.17L454.12,612.1L453.1,612.88L452.01,613.46L450.91,613.83L449.76,613.99L448.64,613.94L447.57,613.68L446.6,613.21L445.89,612.69L445.26,612.04L444.75,611.31L444.34,610.46L444.06,609.57L443.88,608.58L443.83,607.55L443.9,606.45L444.19,604.78L444.62,603.22L445.21,601.75L445.94,600.4L446.82,599.18L447.82,598.1L448.94,597.17L450.16,596.41L451.33,595.87L452.56,595.47L453.83,595.22L455.14,595.11L456.48,595.14L457.84,595.32L459.21,595.64L460.61,596.1L460.85,596.24L461.02,596.45L461.12,596.71L461.13,596.99L460.25,602.35L459.35,607.2L458.42,611.55L457.46,615.4L457.03,616.66L456.48,617.78L455.79,618.78L454.98,619.64L453.99,620.41L452.84,621.03L451.6,621.48L450.23,621.77L448.78,621.88L447.23,621.82L445.64,621.59L444.06,621.19L443.64,620.97L443.32,620.63L443.15,620.19L443.13,619.72L443.19,619.26L443.34,618.87L443.63,618.57L444.02,618.42L444.43,618.43L444.52,618.45L445.62,618.79L446.66,619.02L447.66,619.17L448.59,619.21L449.46,619.15L450.27,619.01L451.04,618.76L451.75,618.41L452.46,617.93L453.09,617.34L453.67,616.63L454.18,615.82L454.63,614.88L455,613.84L455.32,612.67L455.57,611.41ZM456.73,597.91L455.82,597.75L454.96,597.7L454.1,597.76L453.29,597.92L452.38,598.24L451.54,598.67L450.73,599.25L450,599.93L449.32,600.73L448.7,601.66L448.18,602.66L447.76,603.71L447.44,604.85L447.26,605.99L447.21,607.08L447.29,608.11L447.51,608.99L447.86,609.77L448.32,610.38L448.9,610.85L449.38,611.07L449.93,611.2L450.47,611.25L451,611.22L451.88,611L452.74,610.56L453.54,609.92L454.3,609.08L455.02,608.02L455.65,606.81L456.17,605.46L456.55,604.09L457.3,600.4L457.45,599.3L457.46,598.69L457.37,598.42L457.21,598.19L456.99,598.01L456.73,597.91Z" style="fill:rgb(76,76,77);fill-rule:nonzero;"/>
        <path d="M548.52,598.24L549.3,597.56L550.39,596.65L551.2,596.11L551.79,595.81L552.49,595.53L553.67,595.2L554.75,595.08L555.71,595.17L556.57,595.48L557.21,595.89L557.77,596.46L558.25,597.18L558.66,598.05L558.7,598.14L558.85,598.27L559.04,598.33L559.23,598.3L559.4,598.19L560.62,597.06L561.84,596.19L563.05,595.58L563.66,595.37L564.26,595.23L564.92,595.14L565.55,595.12L566.18,595.17L566.78,595.29L567.33,595.47L567.85,595.72L568.31,596.03L568.72,596.4L569.31,597.16L569.72,598.08L569.92,599.1L569.91,600.23L569.56,603.19L569.07,606.33L568.44,609.67L567.67,613.19L567.46,613.66L567.1,614.01L566.63,614.2L566.12,614.21L565.58,614.1L565.57,614.1L565.17,613.93L564.86,613.63L564.69,613.22L564.69,612.78L565.99,606.01L566.41,603.47L566.68,601.5L566.72,600.91L566.69,600.37L566.6,599.84L566.45,599.36L566.24,598.93L565.98,598.56L565.67,598.26L565.31,598.02L564.94,597.86L564.54,597.77L564.11,597.74L563.67,597.78L563.21,597.89L562.74,598.07L561.82,598.62L560.98,599.36L560.23,600.27L559.56,601.36L558.99,602.63L558.51,604.05L558.08,605.69L557.7,607.62L557.24,610.33L556.78,613.13L556.58,613.64L556.2,614.02L555.7,614.24L555.16,614.24L554.56,614.13L554.55,614.13L554.17,613.97L553.88,613.68L553.73,613.3L553.73,612.89L554.8,607.49L555.61,602.7L555.72,601.74L555.74,600.85L555.67,600.02L555.51,599.26L555.47,599.15L555.28,598.75L555,598.4L554.65,598.11L554.24,597.9L553.79,597.77L553.32,597.74L552.84,597.79L552.38,597.93L551.75,598.23L551.16,598.57L550.23,599.31L549.41,600.24L548.68,601.36L548.05,602.67L547.54,604.15L547.09,605.84L546.7,607.82L546.27,610.57L545.91,612.91L545.83,613.22L545.68,613.51L545.48,613.76L545.24,613.97L544.96,614.13L544.66,614.23L544.34,614.27L544.03,614.24L544.01,614.24L543.54,614.16L543.18,614.01L542.9,613.74L542.75,613.39L542.75,613L545.92,596.04L546.06,595.69L546.33,595.42L546.67,595.27L547.05,595.27L547.81,595.41L548.11,595.53L548.33,595.76L548.45,596.04L548.45,596.35L548.14,598.01L548.21,598.23L548.43,598.29L548.52,598.24Z" style="fill:rgb(76,76,77);fill-rule:nonzero;"/>
        <path d="M584.15,611.1L584.55,611.06L584.93,611.18L585.23,611.45L585.39,611.81L585.41,611.9L585.46,612.26L585.45,612.66L585.3,613.03L585.05,613.33L584.7,613.54L583.25,614L581.8,614.28L580.36,614.37L578.98,614.26L577.72,613.97L576.57,613.49L575.57,612.85L574.72,612.03L574.33,611.51L573.99,610.93L573.71,610.34L573.5,609.69L573.34,609L573.24,608.26L573.2,607.5L573.22,606.7L573.45,604.87L573.89,603.15L574.53,601.52L575.35,600.02L576.36,598.69L576.92,598.1L577.53,597.54L578.16,597.05L578.82,596.61L579.52,596.23L580.25,595.9L581.02,595.62L581.83,595.4L582.63,595.26L583.46,595.17L584.31,595.15L585.18,595.2L586.04,595.31L586.93,595.49L587.31,595.66L587.61,595.97L587.78,596.36L587.79,596.78L587.68,597.59L587.53,597.98L587.24,598.28L586.84,598.43L586.43,598.4L586.31,598.36L585.55,598.09L584.8,597.91L584.05,597.84L583.32,597.86L582.39,598.03L581.51,598.35L580.64,598.82L579.83,599.42L579.05,600.18L578.36,601.04L577.74,602.02L577.23,603.06L576.83,604.18L576.55,605.32L576.42,606.41L576.44,607.46L576.59,608.41L576.89,609.27L577.31,610L577.88,610.62L578.41,611.01L579.03,611.31L579.72,611.52L580.49,611.63L581.3,611.64L582.19,611.55L583.13,611.37L584.15,611.1Z" style="fill:rgb(76,76,77);fill-rule:nonzero;"/>
        <path d="M600.6,611.4L600.58,611.25L600.5,611.13L600.36,611.07L600.21,611.08L600.09,611.16L599.16,612.1L598.14,612.87L597.05,613.45L595.96,613.82L594.81,613.99L593.69,613.94L592.63,613.68L591.65,613.21L590.95,612.7L590.32,612.06L589.81,611.32L589.4,610.48L589.11,609.59L588.93,608.61L588.88,607.58L588.95,606.48L589.23,604.81L589.66,603.25L590.25,601.79L590.97,600.44L591.84,599.22L592.84,598.14L593.95,597.21L595.17,596.45L596.33,595.91L597.57,595.51L598.83,595.25L600.14,595.14L601.47,595.17L602.83,595.34L604.2,595.66L605.59,596.12L605.83,596.25L606.01,596.47L606.11,596.73L606.11,597L605.25,602.35L604.36,607.19L603.44,611.54L602.5,615.38L602.07,616.64L601.52,617.75L600.83,618.76L600.03,619.61L599.04,620.38L597.9,621.01L596.67,621.46L595.3,621.75L593.85,621.86L592.3,621.81L590.72,621.58L589.14,621.18L588.72,620.97L588.4,620.62L588.22,620.19L588.21,619.72L588.27,619.26L588.42,618.87L588.71,618.58L589.09,618.42L589.51,618.43L589.59,618.45L590.69,618.79L591.73,619.02L592.72,619.16L593.65,619.2L594.53,619.14L595.33,618.99L596.1,618.74L596.81,618.4L597.51,617.92L598.14,617.33L598.72,616.62L599.22,615.81L599.67,614.86L600.04,613.82L600.36,612.66L600.6,611.4ZM601.86,597.98L600.95,597.82L600.08,597.76L599.22,597.82L598.41,597.98L597.49,598.29L596.65,598.73L595.85,599.29L595.09,599.99L594.41,600.8L593.78,601.73L593.26,602.73L592.84,603.78L592.51,604.93L592.32,606.07L592.27,607.17L592.35,608.2L592.57,609.09L592.91,609.87L593.37,610.49L593.96,610.96L594.44,611.18L594.99,611.32L595.54,611.37L596.07,611.34L596.95,611.12L597.82,610.68L598.63,610.04L599.39,609.2L600.12,608.14L600.75,606.92L601.29,605.56L601.67,604.19L602.43,600.48L602.59,599.38L602.6,598.77L602.51,598.5L602.34,598.26L602.12,598.09L601.86,597.98Z" style="fill:rgb(76,76,77);fill-rule:nonzero;"/>
        <path d="M700,598.01L700.07,598.23L700.29,598.29L700.38,598.25L701.16,597.57L702.25,596.66L703.05,596.12L703.65,595.82L704.35,595.54L705.53,595.21L706.6,595.1L707.57,595.19L708.42,595.5L709.06,595.92L709.62,596.48L710.1,597.2L710.5,598.07L710.55,598.16L710.69,598.29L710.88,598.35L711.08,598.32L711.24,598.21L712.47,597.08L713.68,596.22L714.89,595.61L715.5,595.4L716.1,595.26L716.76,595.17L717.39,595.16L718.02,595.21L718.62,595.32L719.17,595.51L719.68,595.76L720.14,596.07L720.56,596.43L721.14,597.2L721.54,598.11L721.74,599.13L721.74,600.26L721.38,603.21L720.89,606.35L720.26,609.68L719.48,613.2L719.27,613.67L718.91,614.02L718.44,614.21L717.93,614.22L717.39,614.11L717.38,614.11L716.98,613.94L716.67,613.63L716.51,613.23L716.51,612.79L717.81,606.02L718.24,603.49L718.51,601.53L718.55,600.94L718.52,600.39L718.43,599.87L718.28,599.39L718.07,598.96L717.81,598.59L717.5,598.29L717.14,598.05L716.78,597.89L716.38,597.79L715.95,597.77L715.5,597.81L715.05,597.92L714.58,598.1L713.66,598.64L712.82,599.38L712.07,600.28L711.4,601.37L710.83,602.64L710.34,604.06L709.92,605.7L709.53,607.62L709.07,610.33L708.61,613.13L708.4,613.63L708.03,614.02L707.53,614.23L706.99,614.23L706.39,614.12L706.37,614.12L706,613.96L705.71,613.67L705.56,613.29L705.56,612.88L706.63,607.49L707.45,602.71L707.56,601.75L707.58,600.86L707.52,600.03L707.36,599.27L707.32,599.16L707.13,598.76L706.85,598.41L706.5,598.13L706.1,597.91L705.65,597.79L705.17,597.75L704.7,597.8L704.23,597.94L703.6,598.24L703.02,598.58L702.09,599.32L701.26,600.24L700.53,601.36L699.91,602.67L699.39,604.14L698.94,605.83L698.55,607.81L698.12,610.56L697.75,612.89L697.67,613.2L697.52,613.49L697.33,613.74L697.08,613.95L696.81,614.11L696.5,614.21L696.19,614.25L695.87,614.22L695.85,614.22L695.38,614.14L695.02,613.99L694.75,613.72L694.6,613.36L694.6,612.98L697.79,596.04L697.87,595.8L698.01,595.59L698.2,595.42L698.43,595.31L698.67,595.26L698.91,595.28L699.67,595.42L699.96,595.54L700.19,595.76L700.31,596.04L700.31,596.36L700,598.01Z" style="fill:rgb(76,76,77);fill-rule:nonzero;"/>
        <path d="M735.99,611.1L736.39,611.06L736.77,611.18L737.07,611.45L737.24,611.82L737.25,611.9L737.3,612.26L737.29,612.66L737.15,613.03L736.89,613.34L736.55,613.54L735.1,614.01L733.64,614.29L732.21,614.38L730.83,614.28L729.57,613.99L728.41,613.51L727.41,612.87L726.56,612.05L726.17,611.53L725.83,610.96L725.55,610.36L725.33,609.72L725.17,609.03L725.07,608.29L725.03,607.53L725.05,606.73L725.28,604.9L725.71,603.18L726.34,601.54L727.17,600.05L728.17,598.72L728.73,598.12L729.34,597.56L729.96,597.07L730.63,596.63L731.33,596.24L732.05,595.91L732.83,595.63L733.63,595.41L734.43,595.27L735.26,595.18L736.11,595.16L736.98,595.21L737.85,595.31L738.73,595.49L739.12,595.66L739.42,595.96L739.59,596.35L739.6,596.78L739.49,597.59L739.34,597.98L739.05,598.28L738.66,598.43L738.24,598.4L738.12,598.36L737.36,598.09L736.61,597.92L735.86,597.84L735.13,597.87L734.2,598.04L733.32,598.36L732.45,598.83L731.65,599.43L730.87,600.2L730.18,601.06L729.56,602.04L729.06,603.08L728.65,604.2L728.38,605.34L728.25,606.43L728.27,607.48L728.43,608.43L728.72,609.29L729.15,610.02L729.72,610.64L730.25,611.03L730.87,611.33L731.56,611.53L732.33,611.64L733.14,611.65L734.03,611.56L734.97,611.38L735.99,611.1Z" style="fill:rgb(76,76,77);fill-rule:nonzero;"/>
        <path d="M752.45,611.41L752.44,611.26L752.35,611.14L752.22,611.07L752.06,611.09L751.94,611.17L751.01,612.11L749.99,612.88L748.9,613.46L747.81,613.83L746.65,614L745.53,613.95L744.47,613.69L743.5,613.22L742.79,612.71L742.16,612.06L741.65,611.33L741.24,610.49L740.95,609.6L740.78,608.61L740.72,607.58L740.79,606.48L741.07,604.81L741.5,603.26L742.09,601.78L742.81,600.44L743.69,599.21L744.69,598.13L745.8,597.21L747.02,596.44L748.18,595.9L749.41,595.5L750.68,595.24L751.99,595.13L753.32,595.16L754.69,595.34L756.06,595.65L757.45,596.11L757.69,596.25L757.87,596.46L757.96,596.72L757.97,597L757.11,602.35L756.21,607.2L755.3,611.54L754.35,615.39L753.92,616.65L753.37,617.77L752.68,618.78L751.88,619.63L750.89,620.4L749.75,621.03L748.51,621.48L747.14,621.77L745.69,621.88L744.14,621.83L742.56,621.59L740.98,621.2L740.56,620.99L740.24,620.64L740.06,620.21L740.05,619.74L740.11,619.28L740.26,618.89L740.55,618.59L740.93,618.43L741.35,618.45L741.43,618.47L742.53,618.8L743.57,619.04L744.57,619.17L745.5,619.21L746.37,619.16L747.18,619.01L747.95,618.76L748.65,618.41L749.36,617.93L749.99,617.34L750.57,616.63L751.07,615.82L751.52,614.88L751.89,613.84L752.21,612.67L752.45,611.41ZM753.71,597.96L752.8,597.79L751.93,597.74L751.07,597.79L750.25,597.95L749.34,598.26L748.49,598.69L747.69,599.25L746.93,599.95L746.25,600.75L745.62,601.68L745.09,602.68L744.67,603.73L744.34,604.88L744.14,606.02L744.08,607.12L744.17,608.15L744.38,609.04L744.72,609.83L745.18,610.44L745.77,610.91L746.25,611.14L746.79,611.28L747.34,611.33L747.87,611.3L748.76,611.08L749.63,610.64L750.44,610.01L751.2,609.17L751.93,608.11L752.57,606.9L753.11,605.54L753.5,604.17L754.27,600.46L754.43,599.35L754.45,598.75L754.35,598.48L754.19,598.24L753.97,598.06L753.71,597.96Z" style="fill:rgb(76,76,77);fill-rule:nonzero;"/>
        <path d="M478.57,603.82C478.57,606.025 476.755,607.84 474.55,607.84C472.345,607.84 470.53,606.025 470.53,603.82C470.53,601.615 472.345,599.8 474.55,599.8C476.755,599.8 478.57,601.615 478.57,603.82Z" style="fill:rgb(76,76,77);fill-rule:nonzero;"/>
        <path d="M623.62,603.84C623.62,606.067 621.787,607.9 619.56,607.9C617.333,607.9 615.5,606.067 615.5,603.84C615.5,601.613 617.333,599.78 619.56,599.78C621.787,599.78 623.62,601.613 623.62,603.84Z" style="fill:rgb(76,76,77);fill-rule:nonzero;"/>
        <path d="M712.01,356.86L710.13,358.65L708.32,360.53L706.58,362.49L704.91,364.53L703.32,366.66L701.79,368.87L700.34,371.16L698.96,373.54L698.38,374.88L698.24,375.4L698.27,375.93L698.48,377.5L698.49,378.91L698.43,379.34L698.3,379.76L698.1,380.15L697.85,380.5L697.55,380.81L697.2,381.07L696.82,381.27L696.41,381.41L695.29,381.61L694.29,381.62L693.41,381.45L692.65,381.09L692.12,380.66L691.67,380.09L691.3,379.4L691.01,378.59L690.92,378.1L690.9,377.6L690.98,377.11L691.13,376.65L691.37,376.23L691.67,375.86L692.03,375.56L692.44,375.33L692.96,375.07L693.87,374.45L694.68,373.66L695.39,372.69L696,371.55L706.65,350.6L709.19,346.76L711.85,343.07L714.63,339.54L717.53,336.17L720.55,332.96L723.69,329.9L726.96,327L730.35,324.25L732.39,322.71L734.48,321.23L736.65,319.77L738.85,318.38L741.07,317.05L743.32,315.78L745.6,314.58L747.9,313.44L750.23,312.37L752.59,311.36L756.99,309.68L761.47,308.21L766.05,306.96L770.72,305.92L771.47,305.88L772.21,306.04L773.61,306.67L774.87,307.48L775.58,308.07L776.24,308.73L776.84,309.46L777.4,310.25L777.83,311.12L778.15,312.22L778.38,313.57L778.51,315.07L778.52,316.7L778.42,318.4L778.21,320.09L777.9,321.7L777.53,323.11L777.08,324.39L776.56,325.54L775.99,326.5L775.38,327.28L774.69,327.91L773.98,328.34L773.21,328.59L773.1,328.61L768.41,329.39L764.04,330.22L759.89,331.09L755.93,332.04L752.15,333.05L748.52,334.13L745.05,335.29L741.7,336.53L738.46,337.86L735.33,339.28L732.33,340.79L729.43,342.39L726.64,344.09L723.96,345.88L721.35,347.78L718.85,349.78L711.62,355.95L711.59,355.98L711.46,356.18L711.42,356.41L711.48,356.65L711.63,356.84L711.66,356.86L711.81,356.9L712.01,356.86Z" style="fill:rgb(251,177,92);fill-rule:nonzero;"/>
        <path d="M706.65,350.6L696,371.55L696.84,368.91L697.54,366.27L698.12,363.64L698.57,361.02L698.89,358.41L699.08,355.8L699.15,353.19L699.08,350.6L698.8,347.21L698.3,343.84L697.57,340.47L696.63,337.12L695.11,332.64L693.42,328.24L691.54,323.95L689.49,319.74L688.26,317.44L686.99,315.16L685.65,312.92L684.26,310.7L683.98,310.14L683.84,309.52L683.84,308.89L683.99,308.28L684.7,306.56L685.56,304.85L686.54,303.22L687.61,301.71L688.76,300.33L689.98,299.11L691.28,298.02L692.62,297.1L693.19,296.83L693.89,296.63L694.69,296.52L695.59,296.49L696.63,296.54L697.75,296.67L698.96,296.89L700.17,297.17L700.75,297.39L701.28,297.73L701.72,298.18L702.06,298.71L703.2,301.15L704.23,303.65L705.17,306.21L706,308.82L706.73,311.49L707.36,314.21L707.89,316.99L708.32,319.83L708.72,323.53L708.94,327.27L708.99,331.05L708.87,334.87L708.57,338.74L708.1,342.65L707.46,346.6L706.65,350.6Z" style="fill:rgb(88,78,153);fill-rule:nonzero;"/>
        <path d="M731.36,350.31L731.33,350.31L731.18,350.24L731.13,350.08L731.2,349.6L731.27,349.53L736.88,348.59L742,347.91L746.62,347.49L748.75,347.38L750.75,347.33L759.54,347.29L759.63,347.29L760.08,347.43L760.45,347.73L760.66,348.16L760.69,348.64L760.64,349L760.63,349.07L760.53,349.39L760.37,349.69L760.16,349.94L759.89,350.15L759.6,350.3L759.27,350.39L758.94,350.41L758.61,350.36L755.89,349.76L753.17,349.31L750.45,349L747.72,348.84L745.7,348.8L743.68,348.85L741.66,348.98L739.63,349.18L735.54,349.7L731.36,350.31Z" style="fill:rgb(133,219,244);fill-rule:nonzero;"/>
    </g>
</svg>
