<?xml version="1.0" encoding="UTF-8" standalone="no"?>
<!DOCTYPE svg PUBLIC "-//W3C//DTD SVG 1.1//EN" "http://www.w3.org/Graphics/SVG/1.1/DTD/svg11.dtd">
<svg width="100%" height="100%" viewBox="0 0 967 376" version="1.1" xmlns="http://www.w3.org/2000/svg" xmlns:xlink="http://www.w3.org/1999/xlink" xml:space="preserve" xmlns:serif="http://www.serif.com/" style="fill-rule:evenodd;clip-rule:evenodd;stroke-linejoin:round;stroke-miterlimit:2;">
    <g transform="matrix(1,0,0,1,-117.35,-127.08)">
        <path d="M990.46,127.2L990.89,131.55L991.25,135.9L991.54,140.25L991.77,144.6L991.92,148.94L992.01,153.28L992.04,157.62L991.99,161.95L989.92,161.87L987.85,161.86L985.79,161.94L983.74,162.1L980.64,162.5L977.56,163.08L974.49,163.85L971.45,164.81L968.42,165.96L965.41,167.29L962.41,168.8L959.44,170.51L957.55,170.98L955.32,171.69L953.14,172.55L951,173.56L948.9,174.72L946.84,176.04L944.83,177.51L942.86,179.13L940.93,180.91L938.56,183.34L936.31,185.91L934.19,188.61L932.18,191.45L930.3,194.42L928.55,197.53L926.91,200.78L925.4,204.16L924.65,206.07L923.98,208.01L923.41,209.96L922.93,211.93L922.55,213.87L922.25,215.83L922.04,217.81L921.92,219.8L921.85,223.95L922,228L922.36,231.95L922.94,235.81L923.74,239.56L924.75,243.22L925.98,246.77L927.43,250.23L928.91,253.24L930.57,256.17L932.39,259.03L934.4,261.8L936.57,264.49L938.92,267.11L941.44,269.64L944.14,272.1L945.46,273.2L946.86,274.29L948.35,275.36L949.91,276.41L953.28,278.46L956.96,280.44L957.04,280.53L957.04,280.67L956.95,280.77L956.83,280.78L955.38,280.31L954.18,279.83L951.47,278.54L948.82,277.16L946.24,275.69L943.73,274.15L941.26,272.52L938.87,270.8L936.55,269.01L934.3,267.15L932.13,265.2L930.03,263.19L928.01,261.1L926.07,258.95L924.21,256.72L922.43,254.43L920.74,252.07L919.13,249.66L917.57,247.1L916.1,244.48L914.73,241.8L913.46,239.06L912.3,236.28L911.23,233.44L910.28,230.57L909.43,227.65L908.46,223.7L907.69,219.69L907.12,215.71L906.75,211.69L906.59,207.66L906.63,203.66L906.88,199.65L907.32,195.69L907.73,193.04L908.23,190.42L908.82,187.79L909.5,185.19L910.27,182.63L911.12,180.1L912.07,177.57L913.09,175.09L914.21,172.63L915.4,170.22L916.67,167.85L918.03,165.52L919.46,163.23L920.97,161L922.56,158.81L924.21,156.68L925.94,154.61L927.74,152.6L929.6,150.64L931.53,148.75L933.51,146.94L935.56,145.19L937.66,143.51L939.83,141.9L942.03,140.37L944.3,138.91L946.59,137.54L948.93,136.25L951.32,135.03L953.76,133.89L956.22,132.85L958.72,131.89L962.5,130.61L966.37,129.52L970.31,128.63L974.26,127.94L978.28,127.46L982.3,127.17L986.38,127.08L990.46,127.2Z" style="fill:rgb(127,2,125);fill-rule:nonzero;"/>
        <path d="M951.28,325.19L950.51,320.22L949.97,315.43L949.66,310.83L949.58,306.36L949.73,302.01L950.12,297.74L950.39,295.66L950.73,293.58L951.12,291.53L951.57,289.48L952.57,285.69L953.78,281.96L958.39,283.16L963.02,284.13L967.69,284.86L972.36,285.34L974.71,285.5L977.06,285.59L979.4,285.63L981.73,285.6L984.08,285.52L986.41,285.37L988.73,285.16L991.05,284.9L993.35,284.57L995.64,284.18L997.92,283.74L1000.18,283.23L1002.43,282.67L1004.66,282.05L1006.87,281.37L1009.07,280.63L1011.23,279.84L1013.38,278.99L1015.5,278.08L1017.6,277.11L1019.67,276.09L1021.7,275.02L1023.72,273.9L1025.7,272.71L1028.97,270.6L1032.16,268.33L1035.23,265.93L1038.21,263.37L1041.06,260.7L1043.8,257.89L1046.41,254.95L1048.92,251.88L1049.01,251.74L1051.54,247.09L1053.78,243.71L1055.83,240.25L1057.71,236.72L1059.4,233.1L1059.88,232L1060.94,229.31L1061.87,226.58L1062.66,223.83L1063.3,221.05L1063.82,218.22L1064.19,215.36L1064.48,212L1064.63,208.67L1064.65,205.37L1064.55,202.1L1064.31,198.86L1063.94,195.65L1063.43,192.47L1062.8,189.32L1061.97,185.93L1060.98,182.58L1059.84,179.26L1058.54,175.98L1057.09,172.74L1055.48,169.52L1053.72,166.34L1051.81,163.2L1050.91,161.87L1049.83,160.4L1046.67,156.45L1043.91,153.02L1042.21,150.66L1041.95,150.37L1026.48,136.99L1028.89,138.18L1031.26,139.42L1033.6,140.74L1035.91,142.12L1038.18,143.56L1040.4,145.05L1042.58,146.6L1044.71,148.2L1046.75,149.83L1048.76,151.51L1050.71,153.24L1052.61,155.01L1054.48,156.84L1056.29,158.72L1058.06,160.64L1059.77,162.6L1061.44,164.62L1063.05,166.68L1064.61,168.78L1066.11,170.92L1067.56,173.09L1068.95,175.3L1070.28,177.55L1071.56,179.83L1072.78,182.16L1073.94,184.51L1075.04,186.9L1076.08,189.32L1077.05,191.75L1077.96,194.21L1078.81,196.69L1079.6,199.2L1080.32,201.72L1080.97,204.26L1081.56,206.83L1082.09,209.41L1082.55,211.99L1082.94,214.6L1083.27,217.22L1083.53,219.85L1083.74,222.72L1083.87,225.57L1083.93,228.43L1083.91,231.27L1083.81,234.12L1083.63,236.94L1083.37,239.76L1083.04,242.56L1082.63,245.35L1082.15,248.11L1081.59,250.88L1080.95,253.61L1080.23,256.31L1079.45,258.99L1078.58,261.66L1077.64,264.29L1076.39,267.49L1075.03,270.63L1073.56,273.74L1071.98,276.79L1070.3,279.78L1068.53,282.71L1066.64,285.59L1064.66,288.4L1062.57,291.16L1060.39,293.84L1058.12,296.44L1055.77,298.96L1053.33,301.41L1050.8,303.78L1048.2,306.06L1045.52,308.24L1042.77,310.34L1039.95,312.34L1037.06,314.25L1034.1,316.06L1031.1,317.76L1028.04,319.37L1024.92,320.86L1021.74,322.26L1018.54,323.54L1015.29,324.71L1012.02,325.77L1008.71,326.71L1005.36,327.54L1001.99,328.26L998.6,328.86L995.19,329.35L992.45,329.65L989.69,329.88L986.95,330.03L984.2,330.11L981.44,330.11L978.66,330.04L975.91,329.89L973.14,329.67L970.39,329.37L967.64,329L964.9,328.55L962.16,328.03L959.43,327.43L956.7,326.76L953.99,326.01L951.28,325.19Z" style="fill:rgb(127,2,125);fill-rule:nonzero;"/>
        <path d="M967.38,266.53L967.49,262.77L967.5,259.01L967.42,255.26L967.25,251.52L966.94,247.25L966.5,243L968.57,243.83L970.66,244.57L972.78,245.21L974.92,245.76L977.1,246.21L979.28,246.56L981.48,246.81L983.69,246.97L985.92,247.03L988.14,246.99L990.38,246.84L992.6,246.61L994.8,246.27L996.98,245.83L999.16,245.3L1001.31,244.67L1003.42,243.95L1005.49,243.14L1007.52,242.24L1009.49,241.25L1011.41,240.18L1013.28,239.03L1015.08,237.79L1016.81,236.48L1018.48,235.09L1020.07,233.63L1021.57,232.12L1022.99,230.55L1024.32,228.91L1025.57,227.21L1026.71,225.47L1027.77,223.67L1028.72,221.85L1029.57,219.97L1030.33,218.07L1030.98,216.12L1031.76,213.2L1032.31,210.26L1032.64,207.22L1032.74,204.17L1032.61,201.07L1032.27,197.96L1031.69,194.8L1030.9,191.64L1030.91,191.48L1031.03,191.38L1031.04,191.38L1031.21,191.39L1031.32,191.51L1032.77,195.59L1033.36,197.49L1033.87,199.3L1034.27,201.01L1034.59,202.63L1034.82,204.15L1034.96,205.58L1035.07,208.04L1035.07,210.47L1034.97,212.9L1034.77,215.29L1034.46,217.69L1034.05,220.04L1033.53,222.39L1032.91,224.69L1032.14,227.1L1031.27,229.45L1030.28,231.78L1029.19,234.04L1027.98,236.28L1026.67,238.46L1025.25,240.6L1023.73,242.67L1022.12,244.68L1020.41,246.62L1018.6,248.5L1016.7,250.31L1014.72,252.04L1012.66,253.68L1010.53,255.24L1008.33,256.72L1006.05,258.1L1003.71,259.4L1001.31,260.59L998.86,261.69L996.38,262.69L993.85,263.58L991.27,264.37L988.66,265.05L986.03,265.62L983.38,266.09L980.72,266.44L978.05,266.68L975.38,266.81L972.71,266.83L970.05,266.74L967.38,266.53Z" style="fill:rgb(127,2,125);fill-rule:nonzero;"/>
        <path d="M448.11,487.13C448.11,490.63 445.23,493.51 441.73,493.51C438.23,493.51 435.35,490.63 435.35,487.13C435.35,483.63 438.23,480.75 441.73,480.75C445.23,480.75 448.11,483.63 448.11,487.13Z" style="fill:rgb(127,2,125);fill-rule:nonzero;"/>
        <path d="M584.07,487.13C584.07,490.63 581.19,493.51 577.69,493.51C574.19,493.51 571.31,490.63 571.31,487.13C571.31,483.63 574.19,480.75 577.69,480.75C581.19,480.75 584.07,483.63 584.07,487.13Z" style="fill:rgb(127,2,125);fill-rule:nonzero;"/>
        <path d="M720.44,487.08C720.44,490.58 717.56,493.46 714.06,493.46C710.56,493.46 707.68,490.58 707.68,487.08C707.68,483.58 710.56,480.7 714.06,480.7C717.56,480.7 720.44,483.58 720.44,487.08Z" style="fill:rgb(127,2,125);fill-rule:nonzero;"/>
        <path d="M866.89,487.08C866.89,490.574 864.014,493.45 860.52,493.45C857.026,493.45 854.15,490.574 854.15,487.08C854.15,483.586 857.026,480.71 860.52,480.71C864.014,480.71 866.89,483.586 866.89,487.08Z" style="fill:rgb(127,2,125);fill-rule:nonzero;"/>
        <path d="M877,173.83C877,182.514 869.854,189.66 861.17,189.66C852.486,189.66 845.34,182.514 845.34,173.83C845.34,165.146 852.486,158 861.17,158C869.854,158 877,165.146 877,173.83ZM874.37,173.78C874.37,166.566 868.434,160.63 861.22,160.63C854.006,160.63 848.07,166.566 848.07,173.78C848.07,180.994 854.006,186.93 861.22,186.93C868.434,186.93 874.37,180.994 874.37,173.78Z" style="fill:rgb(94,175,54);fill-rule:nonzero;"/>
        <path d="M185.36,160.66L191.43,160.56L197.76,160.59L204.37,160.74L211.25,161.01L213.77,161.18L216.13,161.45L218.34,161.82L220.4,162.29L222.08,162.83L223.59,163.53L224.91,164.37L226.06,165.39L227.05,166.56L227.87,167.91L228.55,169.46L229.07,171.19L229.44,173.09L229.68,175.22L229.81,177.69L229.86,181.04L230.17,243.61L230.4,318L230.37,320.75L230.27,323.46L230.1,326.14L229.87,328.78L229.55,331.39L229.17,333.96L228.72,336.5L228.2,339L227.57,341.51L226.84,343.9L226,346.2L225.05,348.39L223.98,350.52L222.81,352.53L221.52,354.46L220.14,356.28L218.79,357.84L217.37,359.32L215.84,360.74L214.24,362.07L212.52,363.35L210.73,364.55L208.83,365.69L206.86,366.75L204.78,367.75L202.58,368.69L200.3,369.55L197.91,370.36L195.42,371.1L192.82,371.78L190.09,372.41L187.24,372.97L181.44,373.94L175.76,374.68L170.19,375.2L164.74,375.5L152.62,375.83L140.73,376L129.08,375.99L117.65,375.82L117.44,375.73L117.35,375.51L117.35,371.86L117.42,368.18L117.55,364.45L117.74,360.68L117.94,358.25L118.22,356.09L118.6,354.17L119.08,352.45L119.67,350.88L120.37,349.49L121.19,348.24L122.15,347.11L122.92,346.39L123.78,345.72L124.69,345.13L125.69,344.6L126.76,344.12L127.92,343.71L129.18,343.35L130.53,343.05L133.92,342.46L137.13,342.05L140.16,341.82L143.01,341.77L149.89,341.8L156.47,341.68L162.75,341.42L168.74,341.03L170.92,340.76L173.12,340.3L175.33,339.66L177.56,338.82L178.78,338.21L179.89,337.45L180.54,336.88L181.12,336.26L181.67,335.58L182.16,334.84L182.62,334.02L183.01,333.16L183.37,332.24L183.68,331.23L184.16,329.09L184.49,326.62L184.66,323.81L184.7,320.27L184.64,227.16L184.72,161.31L184.77,161.06L184.91,160.85L185.11,160.71L185.36,160.66Z" style="fill:rgb(94,175,54);fill-rule:nonzero;"/>
        <path d="M859.39,175.67L859.1,175.72L858.86,175.88L858.69,176.12L858.63,176.4L858.63,182.24L858.56,182.56L858.37,182.83L858.09,183.01L857.77,183.06L856.13,183L855.82,182.93L855.56,182.74L855.39,182.47L855.33,182.16L855.33,165.76L855.38,165.5L855.53,165.28L855.75,165.13L856.01,165.07L859.74,165.04L862.95,165.1L864.06,165.21L865.01,165.46L865.82,165.86L866.49,166.39L866.95,166.99L867.29,167.7L867.52,168.52L867.63,169.46L867.62,170.18L867.53,170.85L867.34,171.47L867.06,172.02L866.79,172.41L866.46,172.76L865.65,173.37L865.6,173.4L865.42,173.6L865.34,173.85L865.36,174.12L865.49,174.35L866.42,175.42L866.67,175.75L866.86,176.11L867,176.49L867.08,176.89L867.77,182.23L867.78,182.29L867.73,182.6L867.55,182.86L867.29,183.04L866.98,183.09L865.37,183.03L864.97,182.94L864.62,182.72L864.36,182.39L864.24,182L863.6,177.04L863.45,176.56L863.14,176.15L862.71,175.89L862.22,175.78L859.39,175.67ZM858.52,168.12L858.5,172.4L858.52,172.52L858.67,172.73L858.92,172.82L861.46,172.83L861.95,172.79L862.42,172.68L862.86,172.48L863.24,172.23L863.56,171.91L863.79,171.55L863.94,171.15L863.99,170.74L863.99,169.82L863.95,169.41L863.8,169.02L863.57,168.66L863.26,168.34L862.88,168.07L862.45,167.88L861.97,167.75L861.48,167.71L858.94,167.7L858.78,167.73L858.59,167.88L858.52,168.12Z" style="fill:rgb(94,175,54);fill-rule:nonzero;"/>
        <path d="M439.44,282.49L439.37,282.44L439.18,282.46L439.09,282.63L439.09,329.86L439.05,330.05L438.95,330.2L438.79,330.31L438.61,330.35L433.02,330.46L427.69,330.45L422.6,330.32L417.77,330.07L415.69,329.87L413.8,329.55L412.05,329.12L410.43,328.56L408.99,327.89L407.68,327.09L406.52,326.18L405.49,325.13L404.76,324.18L404.12,323.12L403.59,322.01L403.15,320.79L402.8,319.49L402.55,318.08L402.41,316.6L402.36,315.03L402.32,230.1L402.35,176.58L402.4,176.34L402.53,176.14L402.73,176L402.97,175.95L406.89,175.92L411.08,175.97L420.26,176.25L423.63,176.45L426.32,176.75L428.66,177.17L430.74,177.75L431.7,178.11L432.57,178.5L433.38,178.93L434.15,179.41L434.83,179.92L435.46,180.49L436.03,181.08L436.53,181.74L437.04,182.55L437.48,183.44L437.82,184.38L438.08,185.4L438.52,187.92L438.84,190.57L439.03,193.34L439.09,196.25L439.08,259.67L439.12,259.82L439.22,259.93L439.36,259.98L439.51,259.96L439.61,259.89L478.84,219.6L479.42,219.12L480.07,218.76L480.79,218.53L481.54,218.46L529.4,218.46L529.56,218.5L529.68,218.61L529.73,218.76L529.7,218.92L529.62,219.03L469.58,271.19L469.56,271.2L469.48,271.33L469.46,271.47L469.58,271.74L534.63,329.92L534.72,330.06L534.74,330.22L534.67,330.37L534.55,330.47L534.41,330.5L516,330.53L503.25,330.46L500.21,330.38L497.47,330.19L494.96,329.91L492.62,329.51L490.43,329L488.35,328.36L486.36,327.58L484.48,326.67L482.51,325.53L480.64,324.23L478.83,322.74L477.05,321.04L439.44,282.49Z" style="fill:rgb(94,175,54);fill-rule:nonzero;"/>
        <path d="M814.02,177.52L817.75,177.63L821.02,177.92L822.53,178.14L823.95,178.4L825.31,178.73L826.57,179.1L827.75,179.51L828.89,179.99L829.93,180.52L830.92,181.11L831.81,181.73L832.65,182.43L833.4,183.16L834.1,183.97L834.83,184.99L835.47,186.1L836,187.28L836.44,188.57L836.78,189.9L837.02,191.34L837.16,192.84L837.2,194.45L837.14,196.06L836.99,197.56L836.73,198.99L836.39,200.33L835.94,201.6L835.39,202.78L834.74,203.89L834.01,204.9L833.3,205.7L832.54,206.43L831.7,207.12L830.8,207.74L829.8,208.32L828.76,208.83L827.62,209.3L826.44,209.71L825.17,210.07L823.81,210.38L822.39,210.63L820.88,210.84L817.6,211.1L813.87,211.17L810.14,211.07L806.87,210.77L805.36,210.55L803.94,210.29L802.58,209.97L801.32,209.6L800.14,209.18L799.01,208.7L797.96,208.18L796.97,207.59L796.08,206.96L795.25,206.27L794.49,205.53L793.79,204.72L793.06,203.7L792.43,202.59L791.89,201.41L791.45,200.13L791.12,198.79L790.88,197.35L790.74,195.85L790.69,194.24L790.75,192.64L790.9,191.13L791.16,189.7L791.5,188.37L791.96,187.09L792.5,185.91L793.15,184.8L793.88,183.79L794.59,182.99L795.35,182.26L796.2,181.57L797.09,180.95L798.09,180.37L799.13,179.86L800.27,179.39L801.45,178.98L802.72,178.63L804.09,178.32L805.5,178.06L807.02,177.86L810.29,177.59L814.02,177.52Z" style="fill:rgb(94,175,54);fill-rule:nonzero;"/>
        <path d="M776.17,178.39L776.19,183.55L776.07,187.93L775.8,191.53L775.61,193.04L775.38,194.35L775.04,195.63L774.57,196.82L773.99,197.85L773.26,198.78L772.37,199.63L771.31,200.35L770.09,200.95L768.71,201.43L767.18,201.79L765.46,202.03L763.48,202.19L761,202.27L745,202.47L743.96,202.52L742.96,202.65L741.99,202.88L741.06,203.19L740.62,203.42L740.25,203.74L739.76,204.46L739.34,205.47L739.01,206.76L738.76,208.3L738.6,210.12L738.53,212.19L738.53,214.53L738.61,217.52L738.64,218.56L738.68,218.73L738.78,218.88L738.93,218.98L739.11,219.01L777.06,219.01L777.26,219.05L777.44,219.17L777.56,219.34L777.6,219.55L777.57,224.26L777.33,230.26L777.2,232.04L776.99,233.64L776.69,235.07L776.31,236.37L775.83,237.56L775.26,238.62L774.58,239.58L773.81,240.41L772.75,241.27L771.56,241.97L770.18,242.53L768.67,242.93L766.47,243.34L764.31,243.63L762.19,243.81L760.11,243.88L739.07,243.94L738.79,244.05L738.7,244.18L738.67,244.33L738.67,329.77L738.63,330L738.5,330.19L738.31,330.32L738.08,330.37L728.64,330.43L721,330.28L718.49,330.11L716.18,329.83L714.09,329.42L712.19,328.89L710.51,328.25L709.04,327.48L707.8,326.6L706.78,325.61L705.94,324.52L705.22,323.37L704.54,321.87L704.04,320.26L703.74,318.55L703.64,316.73L703.57,281.97L703.62,244.53L703.59,244.35L703.38,244.05L703.02,243.93L682.46,243.93L682.24,243.88L682.07,243.75L681.95,243.57L681.92,243.35L682.6,224.39L682.64,224.22L682.74,224.07L682.89,223.97L683.07,223.94L685,223.94L688.37,223.93L690.86,223.86L693.07,223.71L695.07,223.47L696.93,223.12L698.64,222.67L700.18,222.11L701.58,221.44L701.77,221.33L702.45,220.8L703.06,220.09L703.54,219.24L703.94,218.23L704.25,217.05L704.47,215.7L704.6,214.17L704.67,212.3L704.77,210.09L705,207.94L705.36,205.85L705.84,203.83L706.44,201.87L707.17,199.99L708.01,198.19L708.97,196.47L710.33,194.44L711.86,192.53L713.59,190.72L715.49,189.03L717.57,187.46L719.82,186.02L722.23,184.71L724.81,183.52L726.97,182.65L729.21,181.86L731.49,181.14L733.84,180.5L736.26,179.93L738.76,179.43L741.36,179L744.05,178.63L746.75,178.34L749.57,178.11L752.54,177.93L755.67,177.81L762.5,177.71L771.95,177.8L775.62,177.85L775.83,177.89L776.01,178.01L776.13,178.18L776.17,178.39Z" style="fill:rgb(94,175,54);fill-rule:nonzero;"/>
        <path d="M641.93,312.65L641.88,312.54L641.78,312.45L641.64,312.42L641.51,312.46L641.41,312.56L640.92,313.35L640.35,314.14L638.98,315.72L636.8,317.84L634.45,319.81L631.93,321.64L629.25,323.31L626.42,324.82L623.43,326.17L620.28,327.38L616.97,328.43L613.5,329.33L609.88,330.06L606.1,330.65L602.18,331.07L598.09,331.35L593.87,331.46L589.51,331.42L584.97,331.22L580.73,330.88L576.52,330.36L572.45,329.68L568.5,328.84L564.76,327.86L561.18,326.72L557.83,325.44L554.67,324.01L551.78,322.47L549.1,320.8L546.67,319.01L545.54,318.07L544.47,317.09L543.46,316.09L542.49,315.04L541.6,313.98L540.77,312.88L540,311.76L539.29,310.6L538.64,309.43L538.06,308.22L537.24,306.21L536.58,304.15L536.08,301.98L535.75,299.77L535.57,297.5L535.55,295.13L535.7,292.69L536,290.21L536.53,287.5L536.88,286.18L537.28,284.89L537.73,283.64L538.24,282.43L538.8,281.23L539.41,280.08L540.13,278.86L540.9,277.7L541.75,276.55L542.64,275.45L543.61,274.37L544.63,273.34L545.72,272.33L546.86,271.37L548.08,270.43L549.33,269.55L550.66,268.68L552.03,267.87L554.98,266.33L558.16,264.95L561.6,263.69L565.24,262.6L569.14,261.65L573.21,260.87L577.52,260.23L582.04,259.75L586.7,259.44L591.5,259.29L600.38,259.2L610.44,259.16L634.07,259.23L634.42,259.16L634.72,258.97L634.92,258.67L634.99,258.32L634.95,256.95L634.84,255.67L634.63,254.45L634.35,253.32L633.98,252.23L633.53,251.24L632.99,250.3L632.37,249.45L631.75,248.75L631.07,248.11L630.32,247.52L629.52,246.99L628.62,246.49L627.67,246.05L626.66,245.66L625.55,245.3L623.19,244.76L620.45,244.36L617.32,244.1L613,243.92L601.12,243.88L571.25,243.94L566.98,243.88L562.75,243.69L560.68,243.53L558.98,243.31L557.5,243.03L556.17,242.68L555,242.23L553.96,241.7L553.03,241.06L552.23,240.32L551.75,239.76L551.32,239.14L550.94,238.47L550.61,237.75L550.33,236.96L550.09,236.11L549.78,234.26L549.44,230.64L549.23,226.92L549.12,223.12L549.14,219.22L549.21,219L549.34,218.89L549.51,218.85L598.51,218.91L606.01,218.99L612.63,219.24L618.72,219.67L624.39,220.29L627.13,220.68L629.8,221.13L632.39,221.63L634.9,222.17L637.36,222.78L639.74,223.44L642.09,224.16L644.36,224.93L647.42,226.13L650.3,227.46L652.99,228.93L655.5,230.54L657.83,232.29L659.97,234.18L661.93,236.21L663.71,238.37L664.62,239.64L665.48,240.96L666.28,242.31L667.02,243.71L667.7,245.16L668.33,246.65L668.9,248.18L669.41,249.75L669.87,251.37L670.27,253.03L670.61,254.73L670.89,256.48L671.12,258.27L671.29,260.1L671.45,263.9L671.59,278.3L671.65,294.1L671.64,311.31L671.55,329.92L671.46,330.14L671.25,330.24L668.66,330.39L666.05,330.47L663.42,330.48L660.77,330.41L658.1,330.26L655.4,330.04L652.69,329.75L649.95,329.38L648.28,329.03L647.52,328.79L646.82,328.5L646.17,328.16L645.58,327.79L645.03,327.36L644.55,326.89L643.96,326.16L643.45,325.31L643.05,324.37L642.74,323.33L642.51,322.18L642.36,320.89L642.28,319.43L642.23,317.39L642.15,314.58L641.93,312.65ZM634.36,281.27L608.83,281.09L589.07,281.08L588.85,281.08L585.79,281.13L583.46,281.28L581.42,281.56L579.62,281.98L578.03,282.55L577.33,282.9L576.67,283.29L576.09,283.7L575.56,284.17L575.1,284.66L574.68,285.21L574.28,285.88L573.95,286.63L573.7,287.42L573.53,288.28L573.25,290.57L573.1,292.75L573.07,294.82L573.17,296.78L573.41,298.21L573.61,298.9L573.87,299.56L574.38,300.55L575.02,301.46L575.78,302.3L576.69,303.1L577.72,303.83L578.89,304.52L580.18,305.13L581.59,305.68L583.14,306.17L584.8,306.6L586.6,306.97L588.51,307.28L590.55,307.53L592.69,307.72L594.98,307.84L597.51,307.92L604.19,307.99L610.28,307.91L615.78,307.71L620.69,307.36L622.71,307.13L624.49,306.84L626.06,306.47L627.48,306.03L628.75,305.48L629.87,304.85L630.87,304.13L631.76,303.27L632.34,302.57L632.86,301.78L633.31,300.95L633.7,300.03L634.02,299.05L634.28,297.97L634.48,296.85L634.61,295.63L634.89,291.67L635.05,288.07L635.1,284.81L635.03,281.91L634.97,281.66L634.82,281.46L634.61,281.32L634.36,281.27Z" style="fill:rgb(94,175,54);fill-rule:nonzero;"/>
        <path d="M796.15,274.5L796.18,219.27L796.29,219.03L796.54,218.92L801.92,218.77L806.03,218.73L809.75,218.78L813.1,218.94L816.26,219.2L819.2,219.58L821.91,220.07L824.42,220.68L825.76,221.13L826.95,221.69L828.01,222.36L828.98,223.16L829.88,224.16L830.66,225.3L831.31,226.61L831.83,228.07L832.24,229.69L832.53,231.49L832.71,233.51L832.81,235.91L832.87,274.66L832.84,329.89L832.73,330.13L832.48,330.24L827.1,330.39L822.99,330.43L819.28,330.37L815.92,330.22L812.76,329.96L809.82,329.58L807.11,329.09L804.6,328.48L803.26,328.03L802.07,327.47L801.01,326.8L800.04,325.99L799.14,325L798.37,323.86L797.71,322.55L797.19,321.09L796.78,319.47L796.5,317.67L796.31,315.65L796.22,313.25L796.15,274.5Z" style="fill:rgb(94,175,54);fill-rule:nonzero;"/>
        <path d="M350.51,312.89L350.48,312.77L350.39,312.66L350.25,312.61L350.11,312.63L350,312.72L348.3,314.71L346.46,316.61L344.52,318.38L342.44,320.06L340.25,321.62L337.92,323.09L335.5,324.43L332.95,325.66L330.29,326.78L327.5,327.79L324.65,328.67L321.69,329.43L318.65,330.07L315.53,330.58L312.33,330.96L309.07,331.22L303.55,331.44L298.18,331.43L293,331.2L290.45,330.99L287.96,330.73L285.5,330.42L283.1,330.05L280.73,329.62L278.37,329.13L276.09,328.59L273.81,327.99L271.59,327.33L269.38,326.61L267.15,325.79L265,324.9L262.89,323.91L260.89,322.85L258.96,321.71L257.16,320.52L255.44,319.24L253.84,317.93L252.37,316.55L251.03,315.14L249.79,313.66L248.69,312.16L247.72,310.62L246.87,309.01L246.15,307.39L245.55,305.7L244.86,303.16L244.37,300.62L244.08,298.08L243.99,295.55L244.03,294.09L244.13,292.64L244.3,291.19L244.54,289.74L244.84,288.28L245.21,286.83L245.64,285.38L246.14,283.93L247.03,281.78L248.1,279.7L248.86,278.44L249.69,277.23L250.59,276.04L251.54,274.91L252.58,273.8L253.68,272.73L254.86,271.7L256.08,270.73L257.4,269.77L258.76,268.87L260.2,268.01L261.68,267.19L263.27,266.4L264.89,265.66L266.57,264.96L268.34,264.29L272.08,263.07L276.05,262.03L280.27,261.15L284.77,260.42L289.5,259.86L294.49,259.47L299.74,259.23L305.25,259.16L342.96,259.18L343.17,259.14L343.35,259.02L343.47,258.84L343.51,258.63L343.48,257.28L343.37,256.02L343.18,254.8L342.91,253.67L342.56,252.58L342.12,251.57L341.6,250.62L341,249.74L340.04,248.63L338.9,247.61L337.63,246.74L336.17,245.96L334.55,245.3L332.75,244.75L330.75,244.29L328.56,243.93L325.28,243.55L321.72,243.28L317.87,243.11L313.75,243.05L272,243.02L269.53,242.95L267.23,242.75L265.11,242.39L263.15,241.9L262.14,241.51L261.26,240.98L260.61,240.42L260.04,239.77L259.54,239.04L259.1,238.17L258.73,237.22L258.42,236.15L258.17,234.93L257.97,233.59L257.69,230.55L257.53,227.16L257.51,223.41L257.61,219.32L257.7,219.11L257.91,219.02L291.08,218.98L313,219.09L319.39,219.26L325.35,219.61L330.98,220.15L336.29,220.88L338.85,221.33L341.33,221.82L343.77,222.37L346.14,222.96L348.46,223.62L350.7,224.31L352.92,225.07L355.05,225.88L357.42,226.89L359.67,228L361.82,229.22L363.83,230.54L365.76,231.98L367.55,233.51L369.24,235.15L370.81,236.88L371.91,238.26L372.93,239.69L373.91,241.18L374.8,242.73L375.63,244.33L376.38,245.97L377.06,247.68L377.68,249.44L378.22,251.24L378.7,253.09L379.1,255.02L379.43,256.98L379.69,258.97L379.87,261.01L379.99,263.11L380.03,265.25L380.1,304.65L380.02,329.89L379.97,330.12L379.84,330.31L379.65,330.44L379.42,330.48L372.96,330.44L367.75,330.34L365.03,330.24L362.88,330.09L360.98,329.89L359.25,329.63L357.69,329.28L356.3,328.87L355.1,328.38L354.09,327.82L353.53,327.4L353.1,327L352.69,326.53L352.33,326.01L351.69,324.79L351.2,323.35L350.86,321.7L350.63,319.83L350.53,317.67L350.51,314.79L350.51,312.89ZM342.78,281.25L317.23,281.08L297.24,281.08L294.18,281.13L291.85,281.28L289.8,281.56L288,281.98L286.41,282.56L285.71,282.9L285.05,283.29L284.48,283.71L283.94,284.17L283.48,284.67L283.07,285.21L282.66,285.89L282.33,286.63L282.08,287.43L281.91,288.29L281.64,290.58L281.48,292.76L281.46,294.83L281.56,296.79L281.79,298.22L282,298.92L282.25,299.58L282.77,300.57L283.41,301.47L284.17,302.31L285.08,303.12L286.11,303.85L287.28,304.53L288.57,305.14L289.98,305.7L291.53,306.19L293.19,306.62L295,306.99L296.91,307.3L298.95,307.54L301.09,307.73L303.38,307.86L305.91,307.93L312.6,308L318.69,307.92L324.19,307.71L329.11,307.36L331.13,307.14L332.91,306.84L334.48,306.48L335.9,306.03L337.17,305.48L338.29,304.85L339.29,304.12L340.18,303.27L340.76,302.56L341.28,301.78L341.73,300.94L342.12,300.03L342.44,299.04L342.71,297.97L342.9,296.84L343.03,295.62L343.31,291.66L343.47,288.05L343.51,284.8L343.45,281.89L343.39,281.65L343.24,281.44L343.02,281.3L342.78,281.25Z" style="fill:rgb(94,175,54);fill-rule:nonzero;"/>
        <path d="M486.11,438.27C486.11,438.577 485.857,438.83 485.55,438.83L481.89,438.83C481.583,438.83 481.33,438.577 481.33,438.27L481.33,357.07C481.33,356.763 481.583,356.51 481.89,356.51L485.55,356.51C485.857,356.51 486.11,356.763 486.11,357.07L486.11,438.27Z" style="fill:rgb(72,72,72);fill-rule:nonzero;"/>
        <path d="M508.644,361.956C508.644,361.956 508.644,361.957 508.644,361.957C508.644,362.275 508.383,362.536 508.065,362.537L504.485,362.543C504.485,362.543 504.485,362.543 504.484,362.543C504.166,362.543 503.905,362.282 503.904,361.964L503.896,357.124C503.896,357.124 503.896,357.123 503.896,357.123C503.896,356.805 504.157,356.544 504.475,356.543L508.055,356.537C508.055,356.537 508.055,356.537 508.056,356.537C508.374,356.537 508.635,356.798 508.636,357.116L508.644,361.956Z" style="fill:rgb(72,72,72);fill-rule:nonzero;"/>
        <path d="M565.181,361.919C565.177,362.259 564.894,362.535 564.554,362.531L561.074,362.489C560.734,362.484 560.457,362.201 560.461,361.861L560.519,357.141C560.523,356.801 560.806,356.525 561.147,356.529L564.626,356.572C564.966,356.576 565.243,356.859 565.239,357.199L565.181,361.919Z" style="fill:rgb(72,72,72);fill-rule:nonzero;"/>
        <path d="M654.206,362.024C654.205,362.331 653.953,362.583 653.646,362.583C653.645,362.583 653.645,362.583 653.645,362.583L649.845,362.577C649.538,362.576 649.286,362.324 649.286,362.017C649.286,362.016 649.286,362.016 649.286,362.016L649.294,357.056C649.295,356.749 649.547,356.497 649.854,356.497C649.855,356.497 649.855,356.497 649.855,356.497L653.655,356.503C653.962,356.504 654.214,356.756 654.214,357.063C654.214,357.064 654.214,357.064 654.214,357.064L654.206,362.024Z" style="fill:rgb(72,72,72);fill-rule:nonzero;"/>
        <path d="M676.77,387.55L676.81,387.69L676.91,387.78L677.05,387.81L677.18,387.76L677.27,387.66L678.1,386.03L679,384.5L679.96,383.07L680.99,381.73L682.08,380.49L683.24,379.35L684.46,378.3L685.76,377.35L686.97,376.57L688.24,375.87L689.57,375.26L690.94,374.71L692.37,374.25L693.85,373.87L695.39,373.56L696.98,373.33L699.83,373.1L702.62,373.09L705.3,373.3L707.86,373.73L709.12,374.04L710.35,374.39L711.54,374.8L712.69,375.26L713.83,375.78L714.92,376.35L715.98,376.97L717.01,377.64L718.32,378.62L719.57,379.68L720.75,380.83L721.85,382.06L722.89,383.37L723.85,384.76L724.73,386.23L725.54,387.76L726.27,389.37L726.92,391.05L727.48,392.79L727.97,394.59L728.36,396.43L728.67,398.33L728.9,400.27L729.04,402.27L729.12,404.72L729.11,407.12L729.02,409.45L728.84,411.72L728.58,413.92L728.24,416.03L727.81,418.1L727.31,420.06L726.72,421.95L726.06,423.73L725.31,425.45L724.49,427.06L723.59,428.58L722.61,430.03L721.56,431.37L720.41,432.64L719.2,433.81L718.2,434.67L717.17,435.47L716.08,436.22L714.96,436.92L713.8,437.55L712.62,438.13L711.39,438.66L710.14,439.12L708.85,439.52L707.54,439.86L706.22,440.13L704.88,440.34L703.53,440.49L702.17,440.57L700.81,440.58L699.46,440.53L698.11,440.41L696.76,440.23L695.43,439.98L694.12,439.67L692.83,439.3L691.57,438.86L690.33,438.37L689.12,437.81L687.95,437.2L686.82,436.52L685.74,435.81L684.7,435.04L683.71,434.21L682.75,433.33L681.86,432.41L681.01,431.44L679.97,430.08L679.02,428.64L678.18,427.14L677.43,425.55L677.32,425.42L677.17,425.37L677.02,425.41L676.9,425.52L676.86,425.67L676.86,438.05L676.79,438.39L676.6,438.68L676.32,438.87L675.98,438.94L672.97,438.94L672.59,438.86L672.26,438.64L672.05,438.32L671.97,437.93L671.97,357.03L672.01,356.83L672.12,356.66L672.29,356.55L672.49,356.51L676.25,356.51L676.45,356.55L676.62,356.66L676.73,356.83L676.77,357.03L676.77,387.55ZM701.04,436.11L702.61,436.04L704.13,435.86L705.64,435.59L707.11,435.22L708.53,434.75L709.9,434.19L711.22,433.54L712.48,432.8L713.95,431.77L715.31,430.63L716.59,429.36L717.76,427.97L718.83,426.47L719.79,424.86L720.62,423.17L721.34,421.38L722.28,418.55L723.03,415.74L723.61,412.96L724,410.21L724.22,407.49L724.25,404.79L724.1,402.13L723.77,399.5L723.34,397.27L722.79,395.06L722.1,392.88L721.27,390.71L720.67,389.37L720,388.09L719.27,386.88L718.48,385.73L717.61,384.65L716.68,383.63L715.7,382.69L714.66,381.82L713.15,380.75L711.54,379.82L709.84,379.03L708.05,378.39L706.18,377.89L704.23,377.55L702.21,377.35L700.12,377.31L698.04,377.42L696.02,377.67L694.09,378.08L692.23,378.64L690.47,379.33L688.79,380.17L687.21,381.15L685.73,382.27L684.72,383.17L683.77,384.15L682.87,385.19L682.04,386.3L681.28,387.47L680.59,388.7L679.96,390L679.4,391.37L678.65,393.56L678.03,395.76L677.54,397.99L677.18,400.23L676.93,402.87L676.87,405.53L676.98,408.22L677.28,410.94L677.76,413.68L678.43,416.44L679.27,419.22L680.3,422.03L681.07,423.79L681.96,425.45L682.97,427.03L684.08,428.5L685.3,429.85L686.61,431.08L688.01,432.18L689.5,433.16L690.79,433.86L692.13,434.47L693.52,434.99L694.95,435.41L696.43,435.74L697.95,435.96L699.48,436.08L701.04,436.11Z" style="fill:rgb(72,72,72);fill-rule:nonzero;"/>
        <path d="M535.01,360.15L535.01,373.91L535.05,374.12L535.17,374.29L535.34,374.41L535.55,374.45L548.37,374.45L548.6,374.5L548.79,374.63L548.92,374.82L548.96,375.05L548.96,378.19L548.92,378.42L548.79,378.61L548.6,378.74L548.37,378.79L535.41,378.79L535.2,378.86L535.07,379.04L535.05,379.15L534.99,402.04L535.09,424.24L535.14,425.55L535.27,426.76L535.48,427.9L535.77,428.94L536.13,429.88L536.57,430.72L537.11,431.5L537.72,432.18L538.57,432.89L539.54,433.48L540.64,433.95L541.86,434.3L543.2,434.53L544.72,434.65L546.36,434.66L548.17,434.55L548.43,434.58L548.66,434.7L548.81,434.91L548.88,435.16L548.88,438.08L548.82,438.36L548.67,438.6L548.43,438.77L548.15,438.83L545.39,438.87L543.22,438.81L541.32,438.64L539.61,438.36L538.04,437.93L536.62,437.37L535.34,436.67L534.21,435.84L533.49,435.16L532.82,434.39L532.21,433.56L531.66,432.63L531.29,431.8L530.98,430.79L530.72,429.58L530.51,428.17L530.35,426.58L530.25,424.79L530.21,420.64L530.3,404.05L530.24,379.21L530.2,379.01L530.09,378.84L529.92,378.73L529.72,378.69L518.98,378.69L518.76,378.65L518.58,378.52L518.45,378.33L518.41,378.11L518.41,374.99L518.45,374.79L518.56,374.62L518.73,374.51L518.93,374.47L529.68,374.47L529.9,374.43L530.09,374.3L530.22,374.11L530.26,373.88L530.26,360.23L530.3,360.02L530.42,359.83L530.61,359.71L530.82,359.67L534.53,359.67L534.71,359.71L534.87,359.81L534.97,359.97L535.01,360.15Z" style="fill:rgb(72,72,72);fill-rule:nonzero;"/>
        <path d="M763.28,405.29L763.37,409.23L763.67,413.12L764.19,416.96L764.93,420.76L765.54,423.27L766.25,425.77L767.05,428.24L767.95,430.69L768.95,433.12L770.05,435.53L771.24,437.91L772.53,440.28L772.6,440.52L772.56,440.77L772.42,440.98L772.21,441.12L772.1,441.14L771.52,441.17L771.01,441.12L770.56,440.98L770.17,440.76L769.87,440.48L769.63,440.13L767.84,436.75L766.25,433.36L764.84,429.94L763.62,426.51L762.59,423.05L761.75,419.58L761.09,416.08L760.63,412.57L760.34,408.93L760.26,405.27L760.38,401.62L760.7,397.98L761.19,394.47L761.88,390.99L762.76,387.52L763.82,384.08L765.07,380.65L766.51,377.25L768.14,373.87L769.96,370.51L770.21,370.16L770.51,369.88L770.9,369.67L771.35,369.53L771.86,369.48L772.44,369.52L772.55,369.55L772.76,369.68L772.9,369.89L772.93,370.15L772.86,370.39L771.55,372.74L770.33,375.12L769.21,377.51L768.19,379.93L767.27,382.38L766.44,384.84L765.71,387.33L765.07,389.84L764.3,393.63L763.75,397.46L763.41,401.35L763.28,405.29Z" style="fill:rgb(72,72,72);fill-rule:nonzero;"/>
        <path d="M1067.5,405.31L1067.38,408.97L1067.07,412.6L1066.57,416.12L1065.88,419.61L1065.01,423.08L1063.95,426.52L1062.69,429.95L1061.25,433.36L1059.63,436.74L1057.81,440.1L1057.56,440.45L1057.26,440.73L1056.87,440.95L1056.42,441.08L1055.9,441.13L1055.33,441.09L1055.22,441.07L1055,440.93L1054.86,440.72L1054.83,440.47L1054.91,440.23L1056.22,437.87L1057.43,435.49L1058.55,433.09L1059.57,430.67L1060.49,428.23L1061.32,425.76L1062.05,423.27L1062.69,420.76L1063.46,416.97L1064.01,413.13L1064.35,409.23L1064.48,405.29L1064.39,401.35L1064.08,397.46L1063.56,393.61L1062.82,389.81L1062.21,387.29L1061.5,384.8L1060.69,382.32L1059.79,379.87L1058.79,377.44L1057.7,375.03L1056.5,372.64L1055.21,370.28L1055.14,370.03L1055.18,369.78L1055.31,369.57L1055.53,369.44L1055.64,369.42L1056.22,369.38L1056.73,369.44L1057.18,369.57L1057.57,369.8L1057.87,370.08L1058.11,370.43L1059.9,373.81L1061.5,377.2L1062.91,380.62L1064.13,384.06L1065.16,387.51L1066.01,390.99L1066.66,394.49L1067.13,398.01L1067.42,401.65L1067.5,405.31Z" style="fill:rgb(72,72,72);fill-rule:nonzero;"/>
        <path d="M437.93,373.13L439.98,373.19L441.96,373.36L443.9,373.66L445.76,374.07L447.6,374.61L449.36,375.26L451.07,376.04L452.69,376.93L454.37,378.01L455.94,379.2L457.44,380.53L458.84,381.97L460.17,383.54L461.39,385.22L462.51,387.01L463.53,388.89L464.44,390.88L465.23,392.94L465.92,395.1L466.48,397.32L466.92,399.6L467.24,401.93L467.44,404.29L467.51,406.68L467.46,409.07L467.28,411.44L466.97,413.76L466.54,416.05L466,418.27L465.32,420.44L464.54,422.51L463.64,424.5L462.65,426.39L461.53,428.19L460.33,429.87L459.01,431.45L457.62,432.9L456.13,434.24L454.56,435.44L452.89,436.53L451.27,437.43L449.57,438.22L447.82,438.88L445.98,439.44L444.12,439.86L442.18,440.17L440.21,440.36L438.16,440.43L436.11,440.37L434.14,440.2L432.2,439.9L430.33,439.49L428.49,438.95L426.74,438.3L425.03,437.52L423.4,436.63L421.73,435.55L420.15,434.36L418.65,433.03L417.25,431.59L415.92,430.02L414.71,428.34L413.58,426.55L412.57,424.67L411.66,422.68L410.86,420.62L410.18,418.46L409.61,416.24L409.17,413.96L408.85,411.63L408.66,409.27L408.59,406.88L408.64,404.49L408.82,402.12L409.12,399.8L409.55,397.51L410.1,395.29L410.77,393.12L411.55,391.05L412.45,389.06L413.45,387.17L414.56,385.37L415.77,383.69L417.08,382.11L418.47,380.66L419.97,379.32L421.54,378.12L423.2,377.03L424.82,376.13L426.53,375.34L428.28,374.68L430.11,374.12L431.97,373.7L433.91,373.39L435.89,373.2L437.93,373.13ZM413.52,406.73L413.58,408.94L413.77,411.14L414.08,413.29L414.5,415.41L415.04,417.46L415.7,419.45L416.46,421.35L417.33,423.19L418.29,424.89L419.36,426.51L420.51,428.01L421.76,429.41L423.07,430.66L424.48,431.81L425.95,432.81L427.52,433.7L428.72,434.27L429.97,434.77L431.25,435.19L432.57,435.53L433.9,435.8L435.28,435.99L436.68,436.1L438.11,436.14L439.55,436.1L440.95,435.98L442.33,435.79L443.66,435.52L444.98,435.17L446.25,434.75L447.5,434.25L448.71,433.68L450.27,432.79L451.74,431.79L453.15,430.64L454.46,429.38L455.71,427.98L456.86,426.49L457.92,424.86L458.88,423.15L459.75,421.32L460.5,419.42L461.16,417.42L461.69,415.37L462.12,413.25L462.42,411.1L462.6,408.9L462.66,406.69L462.6,404.48L462.41,402.28L462.1,400.13L461.68,398.01L461.14,395.96L460.48,393.97L459.72,392.06L458.85,390.23L457.89,388.52L456.82,386.9L455.68,385.41L454.42,384.01L453.11,382.75L451.7,381.61L450.23,380.6L448.66,379.72L447.46,379.15L446.21,378.65L444.94,378.23L443.62,377.89L442.28,377.62L440.9,377.43L439.51,377.32L438.07,377.28L436.63,377.32L435.24,377.43L433.86,377.63L432.52,377.89L431.2,378.24L429.93,378.66L428.68,379.16L427.48,379.73L425.91,380.62L424.44,381.63L423.04,382.78L421.72,384.03L420.47,385.43L419.33,386.93L418.26,388.55L417.31,390.26L416.44,392.1L415.68,394L415.03,396L414.49,398.04L414.07,400.16L413.77,402.31L413.58,404.52L413.52,406.73Z" style="fill:rgb(72,72,72);fill-rule:nonzero;"/>
        <path d="M586.74,387.8L586.78,387.92L586.87,388L586.99,388.02L587.1,387.98L587.18,387.89L587.85,386.44L588.59,385.06L589.38,383.76L590.23,382.53L591.14,381.37L592.11,380.29L593.14,379.27L594.23,378.33L595.38,377.46L596.59,376.67L597.86,375.95L599.19,375.3L600.58,374.72L602.03,374.22L603.54,373.79L605.1,373.43L606.73,373.21L608.76,373.13L611.19,373.17L614.02,373.35L615.62,373.53L617.15,373.81L618.64,374.19L620.06,374.67L621.44,375.26L622.74,375.94L623.99,376.72L625.16,377.59L626,378.33L626.8,379.11L627.55,379.94L628.24,380.81L628.9,381.74L629.5,382.71L630.05,383.73L630.54,384.78L630.98,385.87L631.37,387L631.7,388.17L631.98,389.36L632.2,390.58L632.36,391.83L632.51,394.41L632.6,410.42L632.57,438.25L632.53,438.45L632.42,438.62L632.25,438.73L632.05,438.77L628.39,438.77L628.19,438.73L628.01,438.61L627.9,438.43L627.86,438.22L627.9,418.7L627.8,395.66L627.68,393.25L627.32,390.9L627.06,389.77L626.74,388.67L626.37,387.62L625.95,386.61L625.48,385.64L624.96,384.71L624.39,383.85L623.78,383.03L623.12,382.25L622.4,381.53L621.66,380.87L620.86,380.26L619.35,379.32L617.75,378.57L616,378L614.17,377.62L611.84,377.36L609.61,377.27L607.43,377.37L605.35,377.64L603.32,378.09L601.39,378.71L599.55,379.52L597.82,380.49L596.63,381.29L595.51,382.18L594.43,383.16L593.42,384.23L592.47,385.37L591.59,386.58L590.79,387.86L590.06,389.21L589.39,390.64L588.8,392.13L588.29,393.67L587.86,395.27L587.5,396.92L587.23,398.62L587.03,400.35L586.92,402.13L586.83,406.65L586.78,414.22L586.82,438.5L586.74,438.69L586.55,438.77L582.28,438.77L582.11,438.7L582.04,438.53L582.03,375.04L582.06,374.86L582.17,374.7L582.32,374.6L582.51,374.56L586.23,374.56L586.42,374.6L586.59,374.71L586.7,374.88L586.74,375.07L586.74,387.8Z" style="fill:rgb(72,72,72);fill-rule:nonzero;"/>
        <path d="M863.98,397.1L864.01,397.22L864.1,397.31L864.22,397.34L864.34,397.3L864.43,397.21L865.3,395.72L866.23,394.34L867.22,393.06L868.26,391.88L869.36,390.81L870.52,389.84L871.73,388.98L873,388.22L874.62,387.43L876.33,386.8L878.12,386.32L880,386L881.96,385.83L884,385.81L886.13,385.95L888.34,386.24L889.52,386.46L890.66,386.74L891.78,387.08L892.84,387.47L893.87,387.92L894.86,388.42L895.82,388.98L896.73,389.59L898.14,390.7L899.46,391.97L900.65,393.36L901.74,394.91L902.72,396.58L903.58,398.4L904.32,400.31L904.94,402.36L905.44,404.53L905.81,406.81L906.05,409.19L906.15,411.63L906.12,414.12L905.95,416.63L905.65,419.11L905.22,421.56L904.79,423.39L904.27,425.13L903.66,426.78L902.96,428.34L902.18,429.81L901.3,431.18L900.34,432.47L899.28,433.66L897.78,435.07L896.09,436.34L894.27,437.44L892.35,438.35L890.3,439.1L888.18,439.64L885.99,439.98L883.78,440.12L881.61,440.05L879.45,439.77L877.37,439.29L875.35,438.61L873.45,437.74L871.69,436.7L870.05,435.47L868.57,434.1L867.48,432.85L866.48,431.48L864.38,428.34L864.19,428.25L864.01,428.36L863.99,428.46L863.99,438.19L863.94,438.44L863.8,438.65L863.58,438.79L863.33,438.84L860.76,438.84L860.5,438.79L860.28,438.64L860.13,438.42L860.08,438.16L860.08,374.33L860.12,374.12L860.24,373.93L860.43,373.81L860.64,373.77L863.44,373.77L863.65,373.81L863.82,373.93L863.94,374.1L863.98,374.31L863.98,397.1ZM883.49,436.63L884.76,436.57L886,436.42L887.21,436.2L888.37,435.9L889.52,435.53L890.62,435.07L891.68,434.55L892.7,433.95L893.87,433.12L894.97,432.19L896,431.17L896.94,430.05L897.79,428.85L898.55,427.56L899.23,426.19L899.81,424.75L900.56,422.46L901.16,420.2L901.62,417.96L901.94,415.74L902.1,413.55L902.13,411.39L902,409.24L901.73,407.12L901.39,405.33L900.93,403.56L900.38,401.8L899.71,400.06L899.22,398.97L898.68,397.95L898.09,396.97L897.45,396.05L896.75,395.18L896.01,394.36L895.21,393.61L894.37,392.91L893.15,392.05L891.86,391.3L890.49,390.67L889.05,390.16L887.54,389.76L885.97,389.49L884.35,389.33L882.66,389.3L880.99,389.39L879.37,389.6L877.81,389.93L876.32,390.38L874.9,390.94L873.55,391.62L872.28,392.41L871.09,393.32L870.28,394.04L869.51,394.83L868.79,395.67L868.12,396.57L867.52,397.51L866.96,398.5L866.46,399.55L866.01,400.65L865.4,402.41L864.91,404.19L864.52,405.98L864.23,407.78L864.04,409.91L863.99,412.05L864.09,414.22L864.33,416.4L864.72,418.61L865.26,420.83L865.94,423.07L866.77,425.32L867.4,426.75L868.13,428.1L868.93,429.35L869.82,430.52L870.81,431.61L871.86,432.6L873,433.49L874.2,434.27L875.24,434.83L876.31,435.32L877.43,435.74L878.59,436.08L879.77,436.33L880.98,436.51L882.22,436.61L883.49,436.63Z" style="fill:rgb(72,72,72);fill-rule:nonzero;"/>
        <path d="M919.7,438.32C919.7,438.611 919.461,438.85 919.17,438.85L916.31,438.85C916.019,438.85 915.78,438.611 915.78,438.32L915.78,374.36C915.78,374.069 916.019,373.83 916.31,373.83L919.17,373.83C919.461,373.83 919.7,374.069 919.7,374.36L919.7,438.32Z" style="fill:rgb(72,72,72);fill-rule:nonzero;"/>
        <path d="M255.57,388.42L257.68,384.29L257.72,384.23L259.3,382.38L260.99,380.72L262.79,379.25L264.71,377.96L266.33,377.06L268.03,376.27L269.81,375.61L271.65,375.07L273.57,374.65L275.56,374.35L277.63,374.17L279.77,374.11L280.04,374.22L280.15,374.49L280.15,378.62L280.11,378.79L280.01,378.93L279.86,379.02L279.69,379.04L278.23,378.98L276.8,379L275.4,379.09L274.05,379.27L272.72,379.52L271.43,379.85L270.18,380.26L268.96,380.75L267.65,381.39L266.39,382.11L265.17,382.94L263.99,383.86L262.85,384.87L261.76,385.98L260.71,387.19L259.7,388.49L258.78,389.84L257.96,391.24L257.25,392.67L256.65,394.14L256.08,395.9L255.66,397.71L255.38,399.58L255.25,401.5L255.2,412.33L255.24,438.57L255.19,438.74L255.08,438.83L254.94,438.87L250.81,438.87L250.67,438.84L250.52,438.71L250.47,438.53L250.47,374.97L250.56,374.72L250.7,374.61L250.87,374.57L254.78,374.57L254.94,374.6L255.08,374.7L255.18,374.84L255.21,375L255.21,388.33L255.31,388.5L255.5,388.5L255.57,388.42Z" style="fill:rgb(72,72,72);fill-rule:nonzero;"/>
        <path d="M334.4,425.61L334.36,425.48L334.27,425.4L334.15,425.38L334.04,425.43L333.96,425.52L333.28,426.97L332.55,428.35L331.75,429.66L330.9,430.89L329.99,432.05L329.01,433.13L327.98,434.15L326.89,435.09L325.74,435.96L324.53,436.76L323.26,437.48L321.92,438.13L320.53,438.71L319.08,439.21L317.57,439.64L316,440L314.37,440.22L312.33,440.3L309.9,440.26L307.07,440.08L305.47,439.9L303.93,439.62L302.43,439.23L301.01,438.75L299.63,438.17L298.33,437.49L297.08,436.7L295.91,435.83L295.06,435.09L294.26,434.31L293.51,433.48L292.81,432.6L292.16,431.67L291.56,430.7L291.01,429.68L290.51,428.63L290.07,427.53L289.68,426.4L289.35,425.23L289.07,424.04L288.85,422.81L288.69,421.56L288.54,418.98L288.46,402.93L288.49,375.05L288.53,374.85L288.64,374.68L288.81,374.57L289.01,374.53L292.67,374.53L292.88,374.57L293.06,374.69L293.17,374.87L293.21,375.08L293.17,394.64L293.26,417.73L293.39,420.14L293.74,422.49L294,423.62L294.32,424.73L294.69,425.78L295.11,426.8L295.58,427.76L296.11,428.69L296.67,429.56L297.29,430.38L297.95,431.16L298.67,431.89L299.42,432.55L300.21,433.16L301.72,434.1L303.33,434.85L305.08,435.42L306.92,435.8L309.25,436.07L311.48,436.15L313.67,436.06L315.75,435.79L317.79,435.33L319.72,434.71L321.56,433.9L323.3,432.93L324.49,432.12L325.61,431.24L326.69,430.25L327.71,429.19L328.66,428.04L329.54,426.83L330.34,425.54L331.08,424.19L331.74,422.76L332.34,421.27L332.85,419.72L333.28,418.12L333.64,416.47L333.91,414.77L334.11,413.03L334.22,411.25L334.31,406.72L334.36,399.14L334.33,374.81L334.41,374.62L334.6,374.54L338.88,374.54L339.05,374.61L339.12,374.78L339.12,438.39L339.08,438.57L338.98,438.73L338.82,438.83L338.64,438.87L334.91,438.87L334.71,438.83L334.55,438.72L334.44,438.56L334.4,438.36L334.4,425.61Z" style="fill:rgb(72,72,72);fill-rule:nonzero;"/>
        <path d="M377,401.14L377.17,401.14L377.34,401.06L396.55,375.39L396.89,375.03L397.29,374.76L397.75,374.6L398.24,374.54L402.71,374.54L402.86,374.56L403.05,374.68L403.17,374.88L403.18,375.1L403.09,375.31L380.6,404.71L380.48,405.06L380.6,405.4L404.98,438.06L405.08,438.28L405.06,438.53L404.94,438.73L404.73,438.86L404.57,438.89L400.2,438.89L399.7,438.83L399.23,438.66L398.81,438.38L398.47,438.01L377.4,409.23L377.19,409.13L377.14,409.12L377.08,409.11L377.02,409.12L376.97,409.13L376.76,409.23L355.67,438L355.33,438.36L354.91,438.64L354.44,438.82L353.94,438.87L349.57,438.87L349.41,438.84L349.21,438.72L349.08,438.51L349.07,438.26L349.16,438.04L373.57,405.4L373.68,405.05L373.57,404.71L351.1,375.29L351.01,375.09L351.02,374.86L351.14,374.67L351.33,374.55L351.48,374.52L355.95,374.53L356.43,374.58L356.89,374.75L357.3,375.02L357.64,375.38L376.83,401.06L377,401.14Z" style="fill:rgb(72,72,72);fill-rule:nonzero;"/>
        <path d="M508.62,438.25C508.62,438.563 508.363,438.82 508.05,438.82L504.47,438.82C504.157,438.82 503.9,438.563 503.9,438.25L503.9,375.11C503.9,374.797 504.157,374.54 504.47,374.54L508.05,374.54C508.363,374.54 508.62,374.797 508.62,375.11L508.62,438.25Z" style="fill:rgb(72,72,72);fill-rule:nonzero;"/>
        <path d="M565.23,438.47C565.23,438.695 565.045,438.88 564.82,438.88L560.88,438.88C560.655,438.88 560.47,438.695 560.47,438.47L560.47,374.97C560.47,374.745 560.655,374.56 560.88,374.56L564.82,374.56C565.045,374.56 565.23,374.745 565.23,374.97L565.23,438.47Z" style="fill:rgb(72,72,72);fill-rule:nonzero;"/>
        <path d="M654.22,438.42C654.22,438.667 654.017,438.87 653.77,438.87L649.75,438.87C649.503,438.87 649.3,438.667 649.3,438.42L649.3,375C649.3,374.753 649.503,374.55 649.75,374.55L653.77,374.55C654.017,374.55 654.22,374.753 654.22,375L654.22,438.42Z" style="fill:rgb(72,72,72);fill-rule:nonzero;"/>
        <path d="M987.57,386.63L987.56,376.69L987.6,376.49L987.71,376.33L987.87,376.22L988.07,376.18L990.85,376.17L991.07,376.22L991.26,376.34L991.38,376.53L991.43,376.75L991.44,386.56L991.46,386.71L991.54,386.89L991.68,387.03L991.85,387.12L992.04,387.16L1002.06,387.14L1002.3,387.19L1002.5,387.32L1002.64,387.53L1002.69,387.77L1002.69,389.75L1002.64,390L1002.5,390.21L1002.29,390.35L1002.04,390.4L991.96,390.41L991.77,390.45L991.62,390.55L991.51,390.7L991.48,390.88L991.53,426.73L991.57,427.87L991.68,428.93L991.86,429.9L992.11,430.79L992.43,431.61L992.82,432.35L993.28,433L993.81,433.58L994.48,434.14L995.24,434.6L996.09,434.96L997.01,435.24L998.03,435.43L999.14,435.54L1000.36,435.56L1001.67,435.49L1002.04,435.53L1002.36,435.72L1002.58,436.01L1002.67,436.37L1002.67,437.88L1002.6,438.25L1002.39,438.57L1002.08,438.78L1001.71,438.86L999.47,438.84L997.56,438.73L995.86,438.51L994.34,438.17L992.99,437.72L991.82,437.14L990.77,436.43L989.9,435.6L989.39,434.96L988.93,434.24L988.56,433.47L988.24,432.62L988,431.73L987.83,430.76L987.72,429.73L987.68,428.63L987.61,411.42L987.65,390.95L987.61,390.75L987.49,390.58L987.32,390.46L987.11,390.42L978.69,390.43L978.44,390.38L978.22,390.24L978.07,390.02L978.02,389.76L978.02,387.79L978.07,387.54L978.21,387.33L978.41,387.19L978.66,387.14L987.08,387.13L987.28,387.09L987.5,386.9L987.57,386.63Z" style="fill:rgb(72,72,72);fill-rule:nonzero;"/>
        <path d="M785.39,386.63L785.39,376.68L785.43,376.48L785.54,376.32L785.7,376.21L785.9,376.17L788.68,376.17L788.87,376.2L789.04,376.29L789.2,376.5L789.26,376.75L789.26,386.56L789.31,386.79L789.44,386.98L789.63,387.11L789.86,387.16L799.88,387.16L800.12,387.21L800.33,387.34L800.46,387.55L800.51,387.79L800.51,389.77L800.47,389.99L800.37,390.18L800.14,390.36L799.86,390.42L789.77,390.42L789.59,390.46L789.43,390.56L789.33,390.71L789.29,390.89L789.29,426.75L789.33,427.89L789.43,428.95L789.61,429.93L789.86,430.82L790.18,431.64L790.57,432.38L791.03,433.03L791.56,433.61L792.23,434.17L792.99,434.63L793.83,435L794.76,435.28L795.78,435.47L796.89,435.58L798.11,435.6L799.42,435.53L799.79,435.57L800.11,435.76L800.33,436.05L800.42,436.41L800.42,437.93L800.35,438.3L800.14,438.61L799.83,438.82L799.46,438.9L797.22,438.89L795.31,438.77L793.6,438.54L792.08,438.2L790.74,437.75L789.56,437.17L788.52,436.46L787.64,435.62L787.13,434.98L786.68,434.26L786.3,433.49L785.99,432.64L785.75,431.75L785.58,430.78L785.47,429.75L785.43,428.65L785.39,411.43L785.46,390.95L785.42,390.75L785.3,390.58L785.13,390.46L784.92,390.42L776.5,390.42L776.3,390.39L776.11,390.29L775.96,390.15L775.86,389.96L775.83,389.75L775.83,387.77L775.86,387.57L775.96,387.39L776.18,387.2L776.47,387.13L784.89,387.13L785.08,387.09L785.24,386.98L785.35,386.82L785.39,386.63Z" style="fill:rgb(72,72,72);fill-rule:nonzero;"/>
        <path d="M843.18,429.47L843.12,429.33L842.99,429.23L842.83,429.21L842.68,429.27L842.57,429.39L841.66,431.07L840.62,432.6L839.47,433.99L838.18,435.25L837.39,435.91L836.55,436.52L835.67,437.09L834.75,437.61L832.79,438.51L830.66,439.22L829.28,439.56L827.82,439.83L826.33,440.02L824.79,440.13L823.28,440.16L821.75,440.11L820.24,439.97L818.81,439.76L817.47,439.48L816.16,439.11L814.94,438.69L813.78,438.18L812.72,437.62L811.73,436.99L810.85,436.3L810.03,435.53L809.48,434.9L808.97,434.22L808.51,433.47L808.1,432.68L807.72,431.81L807.4,430.9L807.13,429.93L806.91,428.95L806.75,427.9L806.65,426.85L806.61,424.7L806.69,423.65L806.82,422.62L807.01,421.64L807.25,420.71L807.7,419.43L808.23,418.27L808.88,417.17L809.61,416.18L810.25,415.46L810.95,414.8L811.72,414.17L812.53,413.61L813.43,413.08L814.38,412.6L815.38,412.18L816.48,411.78L818.8,411.14L821.49,410.63L824.55,410.25L828.73,409.9L832.09,409.62L834.41,409.36L836.35,409.03L838,408.62L839.42,408.1L840.6,407.45L841.1,407.09L841.54,406.69L841.92,406.27L842.24,405.81L842.61,405.09L842.88,404.29L843.13,403.11L843.28,401.97L843.33,400.83L843.28,399.74L843.13,398.68L842.89,397.67L842.55,396.67L842.11,395.73L841.39,394.56L840.51,393.48L839.47,392.5L838.3,391.64L837,390.92L835.59,390.32L834.07,389.85L832.46,389.53L831.23,389.37L830,389.28L828.79,389.25L827.59,389.29L826.43,389.38L825.29,389.55L824.18,389.77L823.1,390.06L822.08,390.41L821.1,390.82L820.18,391.28L819.3,391.8L818.48,392.38L817.7,393.02L816.99,393.7L816.33,394.44L815.71,395.26L815.15,396.15L814.67,397.08L814.26,398.07L813.91,399.1L813.64,400.19L813.44,401.32L813.31,402.5L813.25,402.74L813.1,402.93L812.89,403.06L812.65,403.11L809.87,403.11L809.65,403.06L809.47,402.94L809.36,402.75L809.32,402.53L809.45,400.87L809.69,399.31L810.03,397.81L810.46,396.41L811.01,395.07L811.66,393.83L812.41,392.66L813.26,391.6L814.15,390.66L815.12,389.82L816.18,389.04L817.3,388.36L818.54,387.74L819.84,387.21L821.22,386.76L822.66,386.41L824.21,386.13L825.79,385.94L827.46,385.84L829.15,385.82L830.92,385.9L832.71,386.06L834.54,386.32L836.36,386.65L837.42,386.9L838.43,387.2L839.39,387.56L840.3,387.96L841.16,388.43L841.97,388.94L842.73,389.51L843.44,390.13L844.11,390.81L844.72,391.55L845.29,392.34L845.8,393.18L846.17,393.99L846.49,394.99L846.75,396.16L846.95,397.52L847.09,399.06L847.17,400.78L847.17,404.77L847.3,430.75L847.4,432.2L847.67,433.37L847.86,433.85L848.1,434.28L848.4,434.65L848.74,434.95L849.08,435.17L849.46,435.34L850.36,435.53L851.4,435.51L852.63,435.29L852.89,435.28L853.13,435.38L853.3,435.57L853.39,435.82L853.39,437.79L853.34,438.08L853.19,438.34L852.97,438.53L852.69,438.63L851.36,438.82L850.11,438.9L848.92,438.86L847.84,438.72L846.87,438.46L846.02,438.09L845.29,437.62L844.65,437.03L844.04,436.17L843.62,435.19L843.37,434.03L843.3,432.74L843.29,430.64L843.18,429.47ZM842.92,410.02L841.61,410.74L840.25,411.32L839.23,411.67L838.18,411.95L837.11,412.16L836.01,412.3L826.24,413.3L823.29,413.65L821.63,413.9L820.12,414.23L818.74,414.62L817.5,415.07L816.38,415.57L815.35,416.16L814.44,416.8L813.62,417.52L812.88,418.33L812.35,419.06L811.87,419.87L811.47,420.71L811.13,421.63L810.85,422.62L810.66,423.59L810.55,424.57L810.52,425.53L810.57,426.48L810.7,427.39L810.92,428.31L811.22,429.2L811.85,430.53L812.67,431.76L813.65,432.87L814.8,433.86L816.1,434.71L817.53,435.41L819.06,435.95L820.7,436.32L822.4,436.56L824.05,436.68L825.64,436.69L827.19,436.59L828.68,436.38L830.12,436.05L831.51,435.61L832.84,435.06L833.8,434.58L834.72,434.03L835.62,433.43L836.49,432.76L837.33,432.03L838.14,431.24L838.93,430.39L839.68,429.47L840.3,428.62L840.85,427.76L841.58,426.36L842.19,424.87L842.67,423.26L843.02,421.54L843.25,419.72L843.39,417.73L843.43,415.46L843.39,412.33L843.36,410.26L843.35,410.18L843.29,410.07L843.18,410L842.92,410.02Z" style="fill:rgb(72,72,72);fill-rule:nonzero;"/>
        <path d="M1008.57,421.48L1010.64,421.56L1011.01,421.64L1011.34,421.84L1011.58,422.14L1011.7,422.5L1012,424.02L1012.38,425.46L1012.86,426.82L1013.42,428.1L1014.09,429.31L1014.84,430.43L1015.68,431.47L1016.59,432.41L1017.47,433.17L1018.41,433.85L1019.41,434.47L1020.47,435.01L1021.58,435.48L1022.73,435.87L1023.95,436.19L1025.21,436.43L1026.52,436.59L1027.85,436.67L1029.24,436.68L1030.65,436.61L1032.09,436.45L1033.54,436.23L1035,435.92L1036.46,435.54L1037.75,435.11L1038.96,434.59L1040.07,433.98L1041.08,433.28L1041.98,432.5L1042.77,431.64L1043.42,430.72L1043.95,429.73L1044.42,428.44L1044.7,427.04L1044.77,425.6L1044.63,424.06L1044.45,423.17L1044.21,422.34L1043.88,421.55L1043.49,420.81L1043.08,420.19L1042.61,419.61L1042.08,419.06L1041.5,418.54L1040.83,418.05L1040.12,417.59L1038.49,416.75L1036.63,416.03L1034.45,415.38L1031.88,414.77L1028.24,414.05L1024.38,413.27L1021.61,412.61L1019.24,411.89L1017.18,411.08L1015.36,410.14L1014.56,409.63L1013.8,409.06L1013.13,408.49L1012.51,407.86L1011.95,407.21L1011.45,406.5L1011,405.75L1010.6,404.93L1010.27,404.09L1010.01,403.19L1009.8,402.27L1009.66,401.28L1009.58,400.27L1009.56,399.2L1009.67,397.54L1009.96,395.96L1010.44,394.5L1011.1,393.12L1011.84,391.99L1012.74,390.92L1013.76,389.97L1014.93,389.09L1016.23,388.32L1017.67,387.63L1019.21,387.06L1020.88,386.58L1022.69,386.2L1024.6,385.94L1026.55,385.81L1028.55,385.79L1030.56,385.9L1032.57,386.12L1034.49,386.47L1036.29,386.92L1037.48,387.3L1038.6,387.74L1039.65,388.24L1040.63,388.79L1041.55,389.4L1042.39,390.07L1043.18,390.79L1043.89,391.57L1044.65,392.57L1045.31,393.66L1045.88,394.82L1046.35,396.06L1046.73,397.39L1047.01,398.79L1047.19,400.27L1047.28,401.84L1047.28,401.85L1047.23,402.09L1047.09,402.29L1046.89,402.42L1046.65,402.46L1043.97,402.36L1043.73,402.31L1043.53,402.17L1043.4,401.97L1043.34,401.74L1043.23,400.49L1043.05,399.31L1042.8,398.19L1042.47,397.14L1042.06,396.16L1041.58,395.24L1041.03,394.38L1040.4,393.59L1039.63,392.81L1038.77,392.1L1037.82,391.47L1036.79,390.92L1035.66,390.45L1034.45,390.06L1033.15,389.74L1031.76,389.5L1030.42,389.35L1029.11,389.26L1027.81,389.23L1026.53,389.28L1025.27,389.39L1024.03,389.56L1022.81,389.8L1021.6,390.11L1020.4,390.48L1019.22,390.93L1018.39,391.31L1017.62,391.76L1016.89,392.28L1016.22,392.86L1015.62,393.5L1015.09,394.18L1014.61,394.92L1014.22,395.7L1013.89,396.52L1013.66,397.36L1013.51,398.22L1013.45,399.09L1013.47,399.95L1013.59,400.81L1013.79,401.63L1014.07,402.43L1014.7,403.65L1015.52,404.73L1016.55,405.7L1017.73,406.53L1018.81,407.12L1020.01,407.68L1021.33,408.19L1022.77,408.68L1026.01,409.54L1030.64,410.53L1034.39,411.31L1037.07,411.96L1039.35,412.66L1041.32,413.44L1043.07,414.35L1043.84,414.84L1044.56,415.37L1045.21,415.93L1045.81,416.52L1046.34,417.15L1046.82,417.82L1047.28,418.59L1047.69,419.42L1048.01,420.29L1048.28,421.22L1048.6,422.76L1048.79,424.23L1048.87,425.66L1048.82,427.03L1048.65,428.35L1048.35,429.61L1047.93,430.82L1047.4,431.96L1046.52,433.35L1045.46,434.6L1044.2,435.75L1042.76,436.76L1041.12,437.66L1039.33,438.43L1037.35,439.06L1035.23,439.55L1033.47,439.84L1031.72,440.05L1030.01,440.17L1028.33,440.21L1026.68,440.16L1025.06,440.01L1023.5,439.79L1021.99,439.47L1020.55,439.08L1019.15,438.59L1017.84,438.03L1016.59,437.38L1015.42,436.66L1014.32,435.86L1013.31,434.99L1012.36,434.03L1011.41,432.9L1010.55,431.65L1009.81,430.34L1009.15,428.92L1008.62,427.44L1008.18,425.87L1007.85,424.23L1007.62,422.49L1007.66,422.12L1007.85,421.79L1008.15,421.57L1008.51,421.48L1008.57,421.48Z" style="fill:rgb(72,72,72);fill-rule:nonzero;"/>
        <path d="M974.95,413.08L974.91,413.26L974.81,413.41L974.66,413.51L974.48,413.54L933.75,413.54L933.55,413.62L933.46,413.81L933.47,415.56L933.58,417.3L933.8,419.02L934.12,420.71L934.54,422.36L935.07,423.97L935.68,425.5L936.38,426.96L937.17,428.33L938.05,429.62L938.99,430.81L940.02,431.91L941.11,432.89L942.26,433.77L943.47,434.54L944.75,435.2L945.91,435.67L947.12,436.07L948.35,436.37L949.63,436.57L950.92,436.69L952.26,436.71L953.61,436.65L955,436.49L956.35,436.25L957.64,435.95L958.87,435.58L960.05,435.13L961.17,434.62L962.23,434.04L963.24,433.39L964.19,432.67L965.29,431.7L966.29,430.62L967.22,429.44L968.05,428.15L968.81,426.76L969.48,425.26L970.06,423.66L970.56,421.96L970.68,421.71L970.87,421.51L971.11,421.38L971.39,421.33L974.06,421.33L974.31,421.38L974.52,421.54L974.65,421.76L974.68,422.02L974.67,422.08L974.13,424.25L973.48,426.28L972.72,428.17L971.84,429.92L970.85,431.54L969.75,433.02L968.54,434.35L967.21,435.55L966,436.46L964.7,437.27L963.33,437.98L961.87,438.59L960.34,439.1L958.72,439.51L957.02,439.82L955.24,440.03L952.82,440.15L950.48,440.07L948.2,439.79L946.03,439.31L943.92,438.64L941.94,437.77L940.05,436.72L938.3,435.48L937.43,434.75L936.6,433.98L935.81,433.16L935.06,432.3L934.36,431.4L933.7,430.45L933.08,429.46L932.52,428.43L931.53,426.26L930.74,423.95L930.16,421.53L929.78,418.99L929.59,416.58L929.53,414.19L929.59,411.78L929.78,409.43L930.09,407.13L930.51,404.93L931.06,402.78L931.72,400.75L932.49,398.84L933.35,397.07L934.33,395.39L935.4,393.86L936.58,392.44L937.83,391.18L939.2,390.03L940.64,389.04L941.59,388.48L942.59,387.97L943.61,387.53L944.67,387.14L945.77,386.8L946.91,386.52L948.06,386.3L949.26,386.14L951.52,385.97L953.68,385.98L955.79,386.15L957.79,386.48L959.74,386.99L961.57,387.66L963.33,388.5L964.97,389.49L966.18,390.38L967.33,391.35L968.41,392.44L969.42,393.6L970.34,394.85L971.19,396.17L971.96,397.59L972.65,399.08L973.25,400.65L973.77,402.28L974.19,403.96L974.53,405.7L974.77,407.48L974.92,409.31L974.98,411.18L974.95,413.08ZM934.12,410.17L970.66,410.05L970.87,409.97L970.99,409.77L971,409.7L970.99,409.49L970.9,407.5L970.62,405.53L970.17,403.6L969.55,401.73L968.77,399.93L967.82,398.22L966.73,396.63L965.5,395.15L964.14,393.82L962.67,392.64L961.11,391.62L959.45,390.77L957.73,390.11L955.96,389.63L954.16,389.34L952.33,389.25L952.29,389.25L950.47,389.35L948.67,389.65L946.9,390.14L945.18,390.82L943.54,391.68L941.98,392.71L940.52,393.9L939.17,395.24L937.95,396.73L936.87,398.33L935.94,400.04L935.16,401.85L934.55,403.73L934.12,405.66L933.86,407.63L933.77,409.62L933.78,409.83L933.88,410.07L934.12,410.17Z" style="fill:rgb(72,72,72);fill-rule:nonzero;"/>
        <path d="M1026.48,136.99L1041.95,150.37L1042.21,150.66L1043.91,153.02L1046.67,156.45L1049.83,160.4L1050.91,161.87L1051.81,163.2L1053.72,166.34L1055.48,169.52L1057.09,172.74L1058.54,175.98L1059.84,179.26L1060.98,182.58L1061.97,185.93L1062.8,189.32L1063.43,192.47L1063.94,195.65L1064.31,198.86L1064.55,202.1L1064.65,205.37L1064.63,208.67L1064.48,212L1064.19,215.36L1063.82,218.22L1063.3,221.05L1062.66,223.83L1061.87,226.58L1060.94,229.31L1059.88,232L1059.4,233.1L1057.71,236.72L1055.83,240.25L1053.78,243.71L1051.54,247.09L1052.67,243.53L1053.6,239.99L1054.34,236.47L1054.89,232.97L1055.24,229.49L1055.4,226.02L1055.37,222.58L1055.14,219.15L1054.86,216.71L1054.55,214.68L1054.18,212.69L1053.74,210.69L1053.23,208.73L1052.66,206.79L1052.03,204.89L1051.34,202.99L1050.58,201.12L1049.66,199.09L1048.68,197.1L1047.61,195.13L1046.48,193.21L1045.27,191.33L1044,189.5L1042.64,187.7L1041.22,185.95L1039.74,184.24L1038.19,182.59L1036.57,180.98L1034.88,179.42L1033.14,177.92L1031.34,176.48L1029.49,175.1L1027.59,173.79L1025.63,172.52L1023.62,171.32L1021.56,170.19L1019.47,169.12L1017.33,168.13L1015.16,167.2L1012.95,166.34L1010.71,165.55L1008.45,164.84L1006.15,164.2L1003.83,163.64L1001.49,163.14L999.14,162.73L996.78,162.39L994.39,162.13L991.99,161.95L992.04,157.62L992.01,153.28L991.92,148.94L991.77,144.6L991.54,140.25L991.25,135.9L990.89,131.55L990.46,127.2L992.55,127.32L994.64,127.51L996.77,127.77L998.89,128.08L1003.24,128.91L1007.66,130L1012.21,131.35L1016.84,132.96L1021.58,134.83L1026.48,136.99Z" style="fill:rgb(54,1,125);fill-rule:nonzero;"/>
        <path d="M953.78,281.96L952.57,285.69L951.57,289.48L951.12,291.53L950.73,293.58L950.39,295.66L950.12,297.74L949.73,302.01L949.58,306.36L949.66,310.83L949.97,315.43L950.51,320.22L951.28,325.19L948.73,324.29L946.23,323.34L943.77,322.35L941.35,321.3L938.98,320.21L936.65,319.06L934.36,317.87L932.11,316.63L929.91,315.34L927.75,314L925.63,312.62L923.56,311.18L921.52,309.7L919.53,308.16L917.59,306.58L915.69,304.95L912.8,302.31L910.01,299.54L907.34,296.66L904.76,293.66L902.29,290.54L899.93,287.3L897.67,283.95L895.51,280.47L894.19,278.18L892.94,275.87L891.75,273.52L890.62,271.15L889.55,268.73L888.55,266.29L887.61,263.82L886.74,261.33L885.92,258.8L885.18,256.26L884.5,253.69L883.89,251.11L883.35,248.5L882.87,245.87L882.46,243.24L882.12,240.59L881.85,237.94L881.65,235.28L881.52,232.62L881.46,229.95L881.47,227.29L881.54,224.62L881.69,221.95L881.91,219.28L882.19,216.64L882.54,214.01L882.96,211.38L883.45,208.76L884.01,206.17L884.64,203.59L885.33,201.02L886.09,198.47L887.24,195.02L888.5,191.62L889.89,188.28L891.39,184.99L893.2,181.4L895.15,177.89L897.25,174.44L899.5,171.06L901.89,167.75L904.43,164.52L907.11,161.35L909.94,158.25L910.05,158.26L910.19,158.46L910.19,158.59L908.63,160.78L907.14,162.99L905.74,165.2L904.43,167.42L903.19,169.66L902.04,171.9L900.96,174.16L899.97,176.42L899.06,178.7L898.24,180.99L897.49,183.28L896.83,185.59L896.25,187.9L895.75,190.23L895.33,192.57L894.99,194.91L894.72,197.51L894.44,201.88L894.38,206.19L894.53,210.42L894.89,214.57L895.47,218.65L896.25,222.66L897.25,226.6L898.46,230.46L899.42,233.09L900.49,235.69L901.65,238.25L902.92,240.77L904.29,243.26L905.76,245.72L907.33,248.14L909,250.52L910.65,252.72L912.36,254.85L914.12,256.91L915.94,258.91L917.82,260.83L919.75,262.69L921.73,264.48L923.77,266.21L927.05,268.75L930.47,271.13L934.02,273.34L937.7,275.4L941.52,277.28L945.47,279.01L949.56,280.57L953.78,281.96Z" style="fill:rgb(54,1,125);fill-rule:nonzero;"/>
        <path d="M966.5,243L966.94,247.25L967.25,251.52L967.42,255.26L967.5,259.01L967.49,262.77L967.38,266.53L965.12,266.22L962.92,265.85L960.79,265.4L958.72,264.89L956.71,264.31L954.77,263.67L952.89,262.95L951.07,262.17L948.04,260.69L945.18,259.08L942.48,257.35L939.94,255.5L937.57,253.52L935.37,251.43L933.33,249.21L931.45,246.86L930.45,245.47L929.51,244.04L928.62,242.57L927.78,241.06L927,239.5L926.27,237.91L925.59,236.28L924.97,234.61L924.4,232.9L923.89,231.15L923.43,229.36L923.02,227.52L922.36,223.74L921.92,219.8L922.04,217.81L922.25,215.83L922.55,213.87L922.93,211.93L923.41,209.96L923.98,208.01L924.65,206.07L925.4,204.16L926.91,200.78L928.55,197.53L930.3,194.42L932.18,191.45L934.19,188.61L936.31,185.91L938.56,183.34L940.93,180.91L942.86,179.13L944.83,177.51L946.84,176.04L948.9,174.72L951,173.56L953.14,172.55L955.32,171.69L957.55,170.98L959.44,170.51L961.72,170.2L963.89,170.06L965.95,170.09L967.91,170.28L969.75,170.64L971.49,171.17L973.12,171.86L974.65,172.72L975.61,173.4L976.53,174.15L977.4,174.98L978.22,175.89L978.99,176.87L979.71,177.93L980.39,179.06L981.01,180.27L981.61,181.7L982.07,183.28L982.35,184.89L982.46,186.54L982.39,188.2L982.14,189.89L981.72,191.56L981.13,193.2L980.37,194.79L979.46,196.31L978.4,197.74L977.23,199.04L975.94,200.23L974.56,201.26L973.09,202.16L971.56,202.89L969.95,203.46L968.54,203.83L967.15,204.08L965.75,204.22L964.39,204.24L963.01,204.16L961.67,203.96L960.34,203.66L959.06,203.24L957.56,202.59L956.14,201.79L954.79,200.84L953.54,199.76L952.41,198.56L951.39,197.24L950.5,195.83L949.75,194.32L949.16,192.76L948.71,191.13L948.41,189.48L948.28,187.78L948.3,186.09L948.48,184.38L948.81,182.7L949.31,181L949.31,180.86L949.24,180.76L949.13,180.71L949.01,180.72L948.91,180.8L947.17,183.41L945.63,186.11L944.3,188.89L943.19,191.74L942.29,194.64L941.61,197.6L941.16,200.56L940.93,203.57L940.92,206.23L941.09,208.9L941.43,211.55L941.96,214.21L942.38,215.87L942.86,217.5L943.4,219.08L944,220.62L944.66,222.14L945.38,223.62L946.15,225.05L946.98,226.45L947.82,227.75L948.72,229.01L949.66,230.23L950.65,231.41L951.7,232.57L952.8,233.69L955.13,235.83L957.69,237.84L960.43,239.7L963.38,241.43L966.5,243Z" style="fill:rgb(54,1,125);fill-rule:nonzero;"/>
        <path d="M746.66,493.09L758.29,493.09L758.54,493.13L758.77,493.23L759.05,493.54L759.15,493.95L759.15,494.63L759.09,494.95L758.9,495.22L758.63,495.41L758.31,495.47L743.33,495.47L743.14,495.43L742.98,495.33L742.88,495.17L742.84,494.98L742.84,493.25L742.93,492.82L743.19,492.47L745.47,490.32L747.88,487.85L750.07,485.45L751.94,483.21L753.42,481.25L754.55,479.5L755.31,478L755.56,477.35L755.71,476.74L755.89,475.23L755.89,474.55L755.83,473.92L755.7,473.35L755.52,472.82L755.28,472.34L754.97,471.92L754.42,471.39L753.73,470.96L752.92,470.65L751.97,470.44L750.78,470.34L749.7,470.42L748.74,470.67L747.9,471.1L747.5,471.41L747.12,471.77L746.48,472.65L745.98,473.74L745.62,475.04L745.5,475.34L745.29,475.59L745,475.75L744.68,475.81L743.79,475.81L743.45,475.74L743.17,475.54L742.99,475.24L742.95,474.9L742.96,474.83L743.3,473.47L743.82,472.2L744.49,471.1L745.35,470.11L746,469.54L746.7,469.05L747.46,468.63L748.26,468.3L749.11,468.05L749.98,467.88L750.86,467.81L751.73,467.82L752.6,467.93L753.45,468.12L754.26,468.39L755.03,468.76L755.74,469.19L756.38,469.71L756.94,470.28L757.43,470.92L757.86,471.67L758.19,472.5L758.41,473.36L758.52,474.3L758.53,475.25L758.43,476.26L758.22,477.29L757.9,478.38L757.37,479.64L756.63,481.01L755.65,482.48L754.45,484.06L753.06,485.71L751.39,487.53L749.45,489.52L746.82,492.13L746.43,492.51L746.34,492.65L746.33,492.82L746.4,492.96L746.53,493.06L746.66,493.09Z" style="fill:rgb(1,1,1);fill-rule:nonzero;"/>
        <path d="M770.56,468L771.67,468.07L772.67,468.25L773.62,468.56L774.48,468.99L775.05,469.37L775.57,469.8L776.07,470.29L776.52,470.84L776.96,471.47L777.34,472.14L778,473.66L778.52,475.42L778.89,477.39L779.11,479.6L779.18,482.07L779.11,484.54L778.89,486.75L778.53,488.72L778.01,490.49L777.35,492.01L776.97,492.68L776.54,493.3L776.09,493.85L775.59,494.35L775.07,494.78L774.5,495.16L773.64,495.58L772.69,495.9L771.68,496.08L770.58,496.15L769.48,496.08L768.47,495.9L767.52,495.59L766.66,495.16L766.09,494.78L765.57,494.36L765.07,493.86L764.62,493.31L764.19,492.69L763.81,492.02L763.14,490.5L762.63,488.73L762.26,486.76L762.04,484.55L761.96,482.08L762.03,479.61L762.25,477.4L762.62,475.43L763.13,473.67L763.79,472.14L764.18,471.47L764.61,470.85L765.06,470.3L765.56,469.8L766.08,469.37L766.65,468.99L767.5,468.57L768.46,468.25L769.46,468.07L770.56,468ZM764.6,482.05L764.66,484.24L764.83,486.21L765.12,487.95L765.53,489.46L766.06,490.74L766.7,491.79L767.06,492.23L767.46,492.61L767.88,492.93L768.33,493.2L768.83,493.41L769.36,493.57L769.92,493.66L770.51,493.69L771.11,493.66L771.67,493.57L772.2,493.41L772.69,493.2L773.15,492.93L773.57,492.61L773.96,492.23L774.33,491.79L774.97,490.74L775.5,489.46L775.91,487.95L776.2,486.21L776.37,484.24L776.43,482.05L776.37,479.85L776.2,477.88L775.9,476.14L775.5,474.63L774.97,473.35L774.33,472.3L773.96,471.86L773.57,471.48L773.15,471.16L772.69,470.89L772.2,470.68L771.67,470.53L771.11,470.43L770.51,470.4L769.92,470.43L769.36,470.53L768.83,470.68L768.33,470.89L767.88,471.16L767.46,471.48L767.06,471.86L766.7,472.3L766.06,473.35L765.53,474.63L765.12,476.14L764.83,477.88L764.66,479.85L764.6,482.05Z" style="fill:rgb(1,1,1);fill-rule:nonzero;"/>
        <path d="M892.85,492.56L892.76,492.7L892.75,492.86L892.82,493.01L892.94,493.11L893.07,493.14L904.69,493.16L905.02,493.22L905.3,493.41L905.49,493.69L905.55,494.02L905.55,494.7L905.49,495.02L905.3,495.29L905.03,495.47L904.71,495.53L889.74,495.51L889.54,495.46L889.33,495.28L889.25,495.02L889.26,493.29L889.35,492.86L889.61,492.51L891.89,490.36L894.31,487.9L896.49,485.51L898.37,483.28L899.84,481.32L900.98,479.57L901.75,478.07L901.99,477.42L902.14,476.82L902.33,475.31L902.33,474.63L902.27,474L902.14,473.43L901.96,472.9L901.72,472.42L901.42,472L900.86,471.47L900.18,471.04L899.36,470.72L898.42,470.52L897.23,470.41L896.15,470.49L895.2,470.74L894.36,471.17L893.95,471.48L893.57,471.84L892.93,472.72L892.43,473.8L892.07,475.1L891.95,475.41L891.74,475.65L891.45,475.81L891.13,475.87L890.24,475.87L889.9,475.8L889.62,475.59L889.44,475.3L889.4,474.96L889.41,474.89L889.75,473.52L890.27,472.26L890.95,471.16L891.8,470.18L892.45,469.61L893.15,469.12L893.92,468.7L894.72,468.37L895.57,468.12L896.44,467.96L897.31,467.89L898.19,467.9L899.05,468.01L899.9,468.2L900.71,468.48L901.48,468.84L902.18,469.28L902.83,469.79L903.39,470.36L903.87,471.01L904.3,471.76L904.63,472.58L904.85,473.45L904.96,474.39L904.96,475.33L904.86,476.34L904.65,477.37L904.33,478.46L903.8,479.72L903.06,481.08L902.08,482.55L900.87,484.13L899.48,485.77L897.81,487.59L895.87,489.58L893.24,492.17L892.85,492.56Z" style="fill:rgb(1,1,1);fill-rule:nonzero;"/>
        <path d="M478.94,482.19L479.01,479.72L479.23,477.5L479.59,475.53L480.1,473.77L480.76,472.25L481.15,471.58L481.58,470.95L482.03,470.41L482.52,469.91L483.05,469.48L483.62,469.1L484.47,468.67L485.42,468.36L486.43,468.17L487.53,468.11L488.63,468.17L489.64,468.35L490.59,468.67L491.45,469.09L492.02,469.47L492.54,469.9L493.04,470.39L493.49,470.94L493.92,471.57L494.31,472.23L494.97,473.76L495.49,475.52L495.86,477.49L496.08,479.7L496.16,482.17L496.09,484.63L495.87,486.85L495.5,488.82L494.99,490.58L494.33,492.11L493.95,492.77L493.52,493.4L493.07,493.95L492.57,494.45L492.05,494.88L491.48,495.26L490.62,495.68L489.67,496L488.66,496.18L487.56,496.25L486.46,496.18L485.45,496L484.5,495.69L483.65,495.26L483.08,494.89L482.55,494.46L482.05,493.96L481.6,493.42L481.17,492.79L480.79,492.12L480.12,490.6L479.6,488.84L479.24,486.87L479.01,484.65L478.94,482.19ZM481.57,482.15L481.63,484.35L481.81,486.32L482.1,488.06L482.51,489.57L483.04,490.85L483.68,491.9L484.05,492.34L484.44,492.72L484.86,493.05L485.32,493.31L485.82,493.53L486.35,493.68L486.91,493.77L487.5,493.8L488.09,493.77L488.65,493.68L489.18,493.53L489.68,493.31L490.14,493.04L490.56,492.72L490.95,492.34L491.32,491.9L491.96,490.85L492.49,489.57L492.9,488.06L493.19,486.32L493.36,484.34L493.42,482.14L493.36,479.94L493.19,477.97L492.89,476.23L492.49,474.72L491.96,473.44L491.32,472.39L490.95,471.95L490.55,471.57L490.13,471.24L489.68,470.98L489.18,470.76L488.65,470.61L488.09,470.52L487.5,470.49L486.9,470.52L486.34,470.61L485.81,470.76L485.31,470.98L484.86,471.24L484.44,471.57L484.04,471.95L483.68,472.39L483.03,473.44L482.51,474.72L482.1,476.23L481.81,477.97L481.63,479.94L481.57,482.15Z" style="fill:rgb(1,1,1);fill-rule:nonzero;"/>
        <path d="M606.52,472.24L606.48,472.08L606.36,471.97L606.21,471.94L606.05,471.99L606.04,472L601.69,475.25L601.39,475.37L601.08,475.35L600.81,475.19L600.64,474.92L600.61,474.71L600.61,474L600.64,473.7L600.74,473.41L600.91,473.16L601.13,472.96L606.74,468.76L607.15,468.55L607.49,468.48L607.83,468.49L608.16,468.59L608.46,468.75L608.71,468.99L608.91,469.27L609.02,469.6L609.06,469.94L609.05,494.94L608.99,495.22L608.83,495.47L608.59,495.63L608.3,495.69L607.25,495.69L607.04,495.65L606.84,495.56L606.6,495.29L606.51,494.94L606.52,472.24Z" style="fill:rgb(1,1,1);fill-rule:nonzero;"/>
        <path d="M912.38,471.42L912.09,479.99L912.13,480.07L912.21,480.08L912.24,480.07L913.11,479.43L913.95,478.9L914.78,478.46L915.59,478.14L916.38,477.91L917.15,477.78L917.91,477.76L918.64,477.84L918.79,477.87L920.23,478.27L921.5,478.83L922.62,479.56L923.55,480.43L924.16,481.19L924.65,482.03L925.06,482.95L925.36,483.94L925.57,485.02L925.67,486.15L925.66,487.36L925.55,488.61L925.39,489.54L925.14,490.41L924.79,491.26L924.37,492.04L923.86,492.8L923.27,493.48L922.6,494.12L921.87,494.67L921.07,495.16L920.23,495.57L919.36,495.88L918.46,496.11L917.54,496.24L916.62,496.29L915.71,496.23L914.81,496.08L913.95,495.84L913.13,495.5L912.38,495.08L911.68,494.57L911.19,494.13L910.74,493.64L909.98,492.55L909.38,491.28L908.97,489.87L908.96,489.78L909,489.42L909.18,489.1L909.47,488.89L909.83,488.81L910.57,488.81L910.96,488.88L911.31,489.08L911.56,489.38L911.69,489.75L911.92,490.6L912.29,491.36L912.72,491.96L913.22,492.47L913.83,492.92L914.5,493.28L915.22,493.54L915.98,493.7L916.77,493.76L917.57,493.72L918.63,493.52L919.56,493.2L920.39,492.76L921.09,492.2L921.57,491.67L921.98,491.07L922.31,490.4L922.57,489.65L922.77,488.83L922.89,487.93L922.94,486.96L922.92,485.91L922.83,485.1L922.67,484.34L922.43,483.62L922.11,482.96L921.71,482.34L921.25,481.79L920.71,481.3L920.12,480.9L919.6,480.63L919.06,480.42L918.5,480.26L917.92,480.17L917.34,480.15L916.76,480.18L916.17,480.28L915.6,480.45L915.06,480.67L914.54,480.95L913.61,481.66L913.19,482.09L912.79,482.58L912.14,483.68L911.94,483.98L911.66,484.23L911.33,484.39L910.97,484.45L910.6,484.42L910.26,484.29L909.96,484.08L909.73,483.79L909.57,483.43L909.53,483.03L910.01,468.97L910.13,468.7L910.4,468.59L923.6,468.56L923.89,468.62L924.15,468.79L924.32,469.04L924.38,469.34L924.38,470.17L924.32,470.47L924.15,470.73L923.89,470.9L923.59,470.96L912.84,470.98L912.67,471.02L912.52,471.11L912.42,471.25L912.38,471.42Z" style="fill:rgb(1,1,1);fill-rule:nonzero;"/>
        <path d="M346.94,480.18L347.81,479.55L348.65,479.01L349.48,478.58L350.29,478.26L351.08,478.03L351.85,477.91L352.61,477.89L353.34,477.97L353.49,478L354.93,478.41L356.2,478.97L357.32,479.7L358.25,480.57L358.85,481.34L359.35,482.17L359.75,483.1L360.05,484.09L360.25,485.16L360.35,486.3L360.34,487.5L360.23,488.75L360.06,489.68L359.81,490.55L359.46,491.4L359.04,492.19L358.52,492.94L357.94,493.62L357.26,494.25L356.54,494.81L355.73,495.3L354.89,495.7L354.02,496.01L353.12,496.23L352.2,496.37L351.28,496.41L350.37,496.35L349.47,496.2L348.62,495.96L347.8,495.61L347.04,495.19L346.34,494.68L345.86,494.24L345.4,493.74L344.65,492.66L344.05,491.38L343.65,489.98L343.64,489.89L343.67,489.53L343.86,489.21L344.15,489L344.51,488.92L345.25,488.92L345.64,488.99L345.98,489.19L346.24,489.49L346.37,489.86L346.6,490.71L346.96,491.48L347.39,492.07L347.89,492.59L348.49,493.04L349.16,493.4L349.88,493.66L350.65,493.83L351.44,493.89L352.24,493.84L353.29,493.64L354.23,493.33L355.05,492.89L355.76,492.33L356.24,491.81L356.65,491.21L356.98,490.54L357.25,489.79L357.44,488.97L357.57,488.07L357.62,487.1L357.6,486.05L357.52,485.24L357.36,484.48L357.12,483.76L356.8,483.1L356.41,482.48L355.95,481.93L355.41,481.44L354.82,481.03L354.3,480.76L353.76,480.55L353.19,480.39L352.62,480.3L352.04,480.27L351.45,480.31L350.87,480.41L350.3,480.57L349.76,480.79L349.23,481.07L348.3,481.77L347.88,482.21L347.48,482.7L346.83,483.79L346.63,484.1L346.35,484.34L346.02,484.5L345.65,484.56L345.29,484.53L344.94,484.4L344.65,484.19L344.42,483.9L344.26,483.53L344.22,483.14L344.73,469.08L344.85,468.81L345.13,468.7L358.32,468.7L358.56,468.74L358.77,468.85L359.01,469.12L359.1,469.48L359.1,470.31L359.04,470.61L358.87,470.87L358.61,471.04L358.31,471.1L347.56,471.1L347.39,471.13L347.24,471.23L347.14,471.37L347.1,471.54L346.79,480.1L346.83,480.18L346.91,480.2L346.94,480.18Z" style="fill:rgb(1,1,1);fill-rule:nonzero;"/>
        <path d="M470.83,472.31L470.79,472.16L470.68,472.05L470.53,472.01L470.38,472.05L470.35,472.07L466,475.32L465.71,475.44L465.39,475.42L465.12,475.26L464.95,474.99L464.92,474.78L464.92,474.07L464.99,473.66L465.17,473.31L465.44,473.03L471.05,468.84L471.46,468.63L471.8,468.56L472.14,468.57L472.47,468.66L472.77,468.83L473.02,469.06L473.21,469.35L473.33,469.67L473.37,470.01L473.37,494.99L473.31,495.28L473.15,495.52L472.91,495.68L472.62,495.74L471.57,495.74L471.29,495.68L471.05,495.52L470.89,495.28L470.83,495L470.83,472.31Z" style="fill:rgb(1,1,1);fill-rule:nonzero;"/>
        <path d="M619.39,471.51L619.14,480.08L619.17,480.16L619.26,480.17L619.29,480.15L620.15,479.52L620.99,478.98L621.82,478.54L622.63,478.21L623.42,477.98L624.19,477.85L624.94,477.83L625.68,477.91L625.82,477.93L627.27,478.33L628.54,478.89L629.66,479.61L630.6,480.48L631.21,481.24L631.71,482.07L632.12,482.99L632.42,483.98L632.63,485.06L632.74,486.19L632.74,487.39L632.63,488.64L632.47,489.57L632.22,490.45L631.88,491.3L631.47,492.08L630.95,492.84L630.37,493.53L629.7,494.16L628.98,494.72L628.18,495.21L627.34,495.62L626.47,495.94L625.57,496.17L624.65,496.31L623.73,496.36L622.82,496.31L621.92,496.16L621.06,495.92L620.24,495.58L619.49,495.17L618.78,494.66L618.29,494.22L617.84,493.73L617.07,492.65L616.47,491.38L616.06,489.98L616.05,489.88L616.08,489.52L616.26,489.2L616.56,488.99L616.91,488.91L617.65,488.91L618.04,488.97L618.39,489.17L618.64,489.47L618.78,489.84L619.01,490.69L619.38,491.45L619.81,492.04L620.32,492.56L620.92,493L621.6,493.36L622.32,493.62L623.08,493.78L623.87,493.83L624.67,493.78L625.73,493.58L626.66,493.26L627.48,492.81L628.19,492.25L628.66,491.72L629.06,491.12L629.4,490.45L629.66,489.7L629.85,488.87L629.96,487.98L630.01,487L629.99,485.96L629.9,485.15L629.73,484.39L629.49,483.67L629.17,483.01L628.77,482.39L628.3,481.85L627.76,481.36L627.17,480.96L626.65,480.69L626.11,480.48L625.54,480.33L624.97,480.24L624.39,480.22L623.8,480.25L623.22,480.36L622.65,480.52L622.11,480.75L621.59,481.03L620.66,481.74L620.24,482.17L619.85,482.67L619.2,483.77L619,484.07L618.72,484.32L618.39,484.48L618.03,484.55L617.66,484.52L617.32,484.39L617.02,484.17L616.79,483.89L616.63,483.53L616.59,483.13L617.01,469.07L617.13,468.8L617.41,468.69L630.6,468.6L630.89,468.66L631.15,468.83L631.32,469.08L631.38,469.38L631.39,470.21L631.33,470.51L631.16,470.77L630.9,470.94L630.6,471L619.85,471.07L619.68,471.11L619.53,471.2L619.43,471.34L619.39,471.51Z" style="fill:rgb(1,1,1);fill-rule:nonzero;"/>
        <path d="M410.7,478.18L410.85,478.29L411.04,478.31L411.22,478.25L411.34,478.11L411.39,478L411.42,477.59L411.37,477.05L411.39,476.7L411.54,476.39L411.8,476.17L412.14,476.07L412.87,476.07L413.2,476.14L413.47,476.33L413.65,476.6L413.7,476.93L413.7,476.95L413.61,479L413.57,482.16L413.6,491.83L413.58,493.71L413.5,495.25L413.34,496.6L413.09,497.8L412.76,498.85L412.34,499.76L411.82,500.55L411.18,501.25L410.74,501.62L410.24,501.95L409.15,502.46L407.85,502.81L406.39,502.99L405,503.01L403.64,502.92L402.41,502.73L401.29,502.42L400.35,502.01L399.56,501.52L398.9,500.91L398.42,500.23L398.13,499.56L397.95,498.8L397.96,498.44L398.09,498.11L398.29,497.86L398.56,497.69L398.88,497.59L399.22,497.58L399.57,497.67L399.89,497.83L400.16,498.06L400.36,498.35L400.67,498.86L401.03,499.31L401.5,499.76L402.02,500.14L402.61,500.46L403.24,500.7L403.92,500.87L404.62,500.96L405.34,500.97L406.06,500.9L406.76,500.76L407.44,500.54L408.1,500.25L408.72,499.88L409.28,499.46L409.78,498.98L410.2,498.46L410.56,497.88L410.79,497.4L411.19,496.15L411.36,494.89L411.32,493.79L411.1,492.69L411.07,492.64L410.94,492.57L410.81,492.64L410.11,493.43L409.36,494.09L408.57,494.63L407.72,495.04L407.09,495.25L406.44,495.4L405.76,495.48L405.06,495.51L404.09,495.44L403.18,495.27L402.31,495L401.5,494.63L400.48,493.96L399.55,493.1L398.76,492.09L398.1,490.9L397.57,489.57L397.21,488.15L397.01,486.64L396.98,485.1L397.12,483.58L397.43,482.09L397.89,480.71L398.51,479.42L399.26,478.29L400.11,477.35L401.09,476.57L402.15,475.99L403.09,475.66L403.86,475.49L404.62,475.4L405.37,475.39L406.1,475.47L406.71,475.6L407.31,475.79L408.48,476.35L409.61,477.15L410.7,478.18ZM405.325,477.64L404.744,477.682L404.169,477.8L403.606,477.993L403.06,478.259L402.536,478.595L402.04,478.998L401.575,479.464L401.148,479.989L400.761,480.568L400.419,481.194L400.124,481.863L399.88,482.568L399.553,484.056L399.45,485.601L399.575,487.146L399.923,488.629L400.176,489.33L400.48,489.994L400.831,490.616L401.226,491.189L401.661,491.708L402.132,492.168L402.633,492.564L403.162,492.893L403.712,493.151L404.277,493.336L404.854,493.446L405.435,493.48L406.016,493.438L406.591,493.32L407.154,493.127L407.7,492.861L408.224,492.525L408.72,492.122L409.185,491.656L409.612,491.131L409.999,490.552L410.341,489.926L410.636,489.257L410.88,488.553L411.207,487.065L411.31,485.519L411.185,483.974L410.837,482.491L410.584,481.79L410.28,481.126L409.929,480.504L409.534,479.931L409.099,479.412L408.628,478.952L408.127,478.556L407.598,478.227L407.048,477.969L406.483,477.784L405.906,477.674L405.325,477.64Z" style="fill:rgb(1,1,1);fill-rule:nonzero;"/>
        <path d="M546.52,478.15L546.68,478.26L546.86,478.28L547.04,478.21L547.17,478.08L547.21,477.96L547.24,477.55L547.19,477.01L547.21,476.66L547.36,476.35L547.63,476.13L547.96,476.03L548.7,476.03L549.02,476.1L549.3,476.28L549.47,476.56L549.53,476.89L549.53,476.91L549.45,478.97L549.41,482.13L549.45,491.82L549.44,493.7L549.36,495.25L549.2,496.6L548.96,497.8L548.62,498.86L548.2,499.77L547.68,500.56L547.05,501.26L546.6,501.63L546.1,501.96L545.01,502.47L543.71,502.83L542.25,503.01L540.85,503.04L539.49,502.95L538.26,502.76L537.14,502.45L536.19,502.05L535.4,501.55L534.74,500.95L534.26,500.26L533.96,499.59L533.79,498.83L533.8,498.47L533.92,498.14L534.12,497.89L534.39,497.71L534.71,497.62L535.06,497.61L535.4,497.69L535.73,497.85L536,498.09L536.2,498.37L536.51,498.88L536.87,499.33L537.34,499.79L537.86,500.17L538.46,500.48L539.09,500.73L539.77,500.89L540.48,500.98L541.19,500.99L541.91,500.92L542.61,500.77L543.3,500.55L543.96,500.26L544.58,499.9L545.13,499.48L545.64,498.99L546.06,498.47L546.42,497.89L546.65,497.41L547.05,496.16L547.21,494.89L547.17,493.79L546.95,492.68L546.92,492.64L546.79,492.57L546.66,492.63L545.96,493.43L545.21,494.09L544.41,494.63L543.57,495.04L542.94,495.26L542.28,495.41L541.61,495.49L540.9,495.52L539.93,495.45L539.02,495.29L538.14,495.01L537.34,494.65L536.31,493.98L535.38,493.12L534.59,492.11L533.92,490.92L533.39,489.58L533.02,488.16L532.82,486.65L532.79,485.11L532.93,483.58L533.23,482.09L533.69,480.7L534.31,479.41L535.06,478.28L535.91,477.34L536.89,476.55L537.96,475.97L538.89,475.63L539.67,475.46L540.43,475.37L541.18,475.36L541.91,475.44L542.52,475.57L543.12,475.76L544.3,476.32L545.43,477.11L546.52,478.15ZM541.149,477.63L540.571,477.671L540,477.789L539.441,477.981L538.898,478.246L538.377,478.581L537.883,478.984L537.421,479.45L536.996,479.974L536.611,480.553L536.27,481.18L535.733,482.554L535.405,484.043L535.3,485.591L535.421,487.137L535.764,488.623L536.316,489.991L536.663,490.615L537.055,491.189L537.486,491.71L537.952,492.171L538.45,492.568L538.974,492.898L539.52,493.157L540.082,493.344L540.654,493.455L541.232,493.49L541.809,493.449L542.38,493.332L542.939,493.14L543.482,492.875L544.003,492.539L544.497,492.136L544.959,491.67L545.384,491.146L545.769,490.567L546.11,489.94L546.648,488.566L546.975,487.077L547.08,485.529L546.959,483.983L546.616,482.497L546.064,481.129L545.717,480.506L545.325,479.931L544.894,479.411L544.428,478.949L543.93,478.552L543.406,478.222L542.86,477.963L542.298,477.777L541.726,477.665L541.149,477.63Z" style="fill:rgb(1,1,1);fill-rule:nonzero;"/>
        <path d="M641.87,478.02L642.65,477.33L643.42,476.74L644.18,476.25L644.93,475.86L645.67,475.57L646.41,475.38L647.13,475.29L647.85,475.3L648.53,475.41L649.2,475.61L649.86,475.9L650.51,476.29L651.16,476.77L651.79,477.34L652.42,478L653.04,478.76L653.15,478.87L653.33,478.95L653.52,478.95L653.7,478.89L653.84,478.76L654.68,477.79L655.61,476.97L656.66,476.3L657.77,475.8L658.9,475.5L660.04,475.4L661.15,475.49L662.22,475.79L663.04,476.19L663.82,476.72L664.52,477.37L665.15,478.16L665.67,479.11L666.05,480.26L666.27,481.62L666.35,483.19L666.42,494.82L666.37,495.1L666.21,495.33L665.98,495.49L665.7,495.55L664.71,495.56L664.46,495.51L664.25,495.36L664.11,495.15L664.07,494.9L664.07,494.87L664.15,483.88L664.12,482.66L664.04,481.66L663.89,480.86L663.69,480.28L663.19,479.47L662.53,478.76L661.83,478.25L661.05,477.88L660.2,477.65L659.31,477.57L658.43,477.65L657.57,477.88L656.77,478.25L656.03,478.77L655.59,479.18L655.21,479.62L654.68,480.45L654.28,481.38L654.03,482.43L653.92,483.58L653.83,488.76L653.89,494.78L653.84,495.07L653.67,495.32L653.43,495.49L653.13,495.55L652.3,495.55L652,495.49L651.76,495.32L651.59,495.07L651.54,494.78L651.64,482.98L651.62,482.29L651.54,481.64L651.4,481.02L651.21,480.45L650.95,479.9L650.64,479.42L650.27,478.97L649.86,478.58L649.2,478.14L648.49,477.82L647.7,477.62L646.89,477.56L646.05,477.63L645.23,477.84L644.46,478.17L643.74,478.62L643.27,479.01L642.84,479.47L642.47,479.97L642.14,480.52L641.89,481.1L641.69,481.72L641.55,482.36L641.47,483.05L641.37,485.17L641.33,487.82L641.43,494.68L641.37,495.02L641.18,495.32L640.89,495.52L640.55,495.59L639.89,495.59L639.58,495.53L639.32,495.36L639.15,495.1L639.09,494.79L639.09,476.68L639.15,476.39L639.32,476.14L639.57,475.97L639.86,475.91L640.36,475.91L640.7,475.98L641,476.17L641.19,476.46L641.26,476.8L641.26,477.76L641.29,477.89L641.39,478.03L641.54,478.11L641.72,478.11L641.87,478.02Z" style="fill:rgb(1,1,1);fill-rule:nonzero;"/>
        <path d="M683.17,478.08L683.32,478.19L683.51,478.21L683.68,478.15L683.81,478.01L683.86,477.9L683.89,477.49L683.84,476.95L683.86,476.6L684.01,476.29L684.28,476.07L684.61,475.97L685.35,475.97L685.67,476.04L685.95,476.23L686.12,476.5L686.18,476.83L686.18,476.86L686.09,478.91L686.04,482.07L686.06,491.76L686.05,493.65L685.96,495.19L685.8,496.54L685.55,497.74L685.21,498.8L684.79,499.71L684.27,500.5L683.63,501.2L683.18,501.57L682.69,501.9L681.6,502.41L680.29,502.76L678.83,502.94L677.43,502.96L676.07,502.87L674.84,502.67L673.72,502.36L672.77,501.96L671.98,501.46L671.32,500.85L670.84,500.17L670.55,499.5L670.38,498.73L670.39,498.37L670.51,498.04L670.71,497.79L670.98,497.62L671.3,497.52L671.65,497.52L672,497.6L672.32,497.76L672.59,497.99L672.79,498.28L673.1,498.79L673.46,499.24L673.93,499.7L674.45,500.08L675.04,500.4L675.67,500.64L676.36,500.81L677.06,500.9L677.78,500.91L678.49,500.84L679.2,500.7L679.89,500.48L680.54,500.19L681.17,499.83L681.72,499.41L682.23,498.93L682.65,498.4L683.01,497.82L683.24,497.35L683.65,496.09L683.81,494.83L683.77,493.73L683.55,492.62L683.53,492.57L683.4,492.5L683.26,492.57L682.56,493.36L681.81,494.02L681.02,494.56L680.17,494.97L679.54,495.18L678.88,495.33L678.2,495.42L677.5,495.44L676.53,495.37L675.62,495.2L674.74,494.93L673.94,494.56L672.91,493.89L671.98,493.02L671.2,492.01L670.53,490.82L670,489.48L669.64,488.06L669.44,486.54L669.41,485.01L669.56,483.48L669.86,481.99L670.33,480.6L670.95,479.31L671.7,478.18L672.55,477.24L673.54,476.46L674.61,475.88L675.54,475.55L676.32,475.38L677.08,475.29L677.83,475.28L678.57,475.36L679.18,475.49L679.78,475.68L680.94,476.24L682.07,477.05L683.17,478.08ZM677.733,477.591L677.156,477.636L676.586,477.757L676.028,477.953L675.487,478.221L674.968,478.56L674.478,478.965L674.019,479.434L673.597,479.961L673.216,480.542L672.879,481.17L672.352,482.546L672.035,484.036L671.94,485.582L672.073,487.126L672.426,488.607L672.987,489.97L673.339,490.59L673.734,491.161L674.169,491.677L674.638,492.135L675.139,492.528L675.666,492.854L676.213,493.109L676.776,493.291L677.349,493.398L677.927,493.429L678.504,493.384L679.074,493.263L679.632,493.068L680.173,492.799L680.692,492.46L681.183,492.055L681.641,491.586L682.063,491.059L682.444,490.478L682.781,489.85L683.308,488.474L683.625,486.984L683.72,485.438L683.588,483.894L683.234,482.413L682.673,481.05L682.321,480.43L681.926,479.859L681.492,479.343L681.022,478.885L680.521,478.492L679.994,478.166L679.447,477.911L678.884,477.729L678.311,477.622L677.733,477.591Z" style="fill:rgb(1,1,1);fill-rule:nonzero;"/>
        <path d="M787.68,477.72L787.7,477.85L787.8,477.99L787.96,478.07L788.13,478.07L788.29,477.98L789.06,477.29L789.83,476.7L790.59,476.21L791.35,475.82L792.09,475.53L792.82,475.34L793.55,475.26L794.26,475.27L794.94,475.38L795.61,475.58L796.27,475.87L796.92,476.26L797.56,476.73L798.2,477.3L798.83,477.97L799.45,478.72L799.63,478.88L799.97,478.91L800.24,478.72L801.08,477.76L802.02,476.94L803.06,476.27L804.17,475.77L805.3,475.47L806.44,475.37L807.55,475.46L808.62,475.76L809.44,476.16L810.22,476.69L810.91,477.34L811.54,478.13L812.06,479.08L812.44,480.23L812.66,481.59L812.74,483.16L812.81,494.78L812.75,495.05L812.6,495.29L812.36,495.45L812.09,495.5L811.1,495.51L810.85,495.46L810.63,495.32L810.5,495.1L810.46,494.85L810.46,494.82L810.54,483.84L810.51,482.63L810.43,481.62L810.29,480.83L810.08,480.25L809.59,479.43L808.93,478.72L808.22,478.22L807.45,477.85L806.6,477.62L805.71,477.54L804.84,477.62L803.97,477.85L803.18,478.22L802.43,478.74L802,479.14L801.61,479.58L801.08,480.41L800.69,481.35L800.43,482.39L800.32,483.54L800.23,488.71L800.29,494.73L800.23,495.02L800.07,495.27L799.82,495.44L799.53,495.5L798.69,495.5L798.4,495.44L798.16,495.27L797.99,495.02L797.94,494.73L798.04,482.94L798.02,482.25L797.94,481.6L797.8,480.98L797.61,480.41L797.36,479.87L797.05,479.38L796.68,478.93L796.26,478.54L795.61,478.1L794.9,477.78L794.11,477.59L793.3,477.52L792.46,477.59L791.64,477.8L790.87,478.13L790.16,478.58L789.68,478.97L789.25,479.43L788.88,479.93L788.56,480.48L788.3,481.05L788.1,481.68L787.96,482.32L787.88,483L787.78,485.12L787.74,487.77L787.84,494.62L787.78,494.97L787.59,495.26L787.3,495.46L786.96,495.53L786.3,495.53L785.99,495.47L785.73,495.3L785.56,495.04L785.5,494.73L785.51,476.64L785.57,476.35L785.73,476.1L785.98,475.93L786.28,475.87L786.78,475.87L787.12,475.94L787.41,476.13L787.61,476.42L787.68,476.76L787.68,477.72Z" style="fill:rgb(1,1,1);fill-rule:nonzero;"/>
        <path d="M830.21,477.85L830.24,477.44L830.19,476.9L830.21,476.55L830.36,476.24L830.62,476.02L830.95,475.92L831.69,475.92L832.01,475.99L832.29,476.17L832.47,476.45L832.52,476.77L832.52,476.8L832.44,478.85L832.41,482.01L832.47,491.68L832.46,493.56L832.38,495.1L832.23,496.46L831.99,497.65L831.65,498.71L831.24,499.62L830.72,500.42L830.08,501.11L829.64,501.48L829.15,501.81L828.06,502.33L826.76,502.69L825.3,502.87L823.9,502.9L822.54,502.82L821.31,502.62L820.2,502.32L819.25,501.92L818.46,501.43L817.8,500.82L817.31,500.14L817.02,499.47L816.84,498.71L816.85,498.35L816.97,498.02L817.17,497.77L817.44,497.6L817.76,497.5L818.11,497.49L818.45,497.57L818.77,497.73L819.05,497.96L819.25,498.25L819.56,498.76L819.92,499.21L820.39,499.66L820.91,500.04L821.51,500.35L822.14,500.59L822.82,500.76L823.52,500.85L824.24,500.85L824.96,500.78L825.66,500.64L826.34,500.42L827,500.12L827.62,499.76L828.17,499.34L828.67,498.85L829.1,498.33L829.45,497.75L829.68,497.27L830.08,496.02L830.24,494.76L830.19,493.66L829.97,492.55L829.95,492.5L829.82,492.43L829.68,492.5L828.99,493.29L828.24,493.96L827.44,494.5L826.6,494.91L825.97,495.13L825.32,495.28L824.64,495.36L823.94,495.39L822.97,495.33L822.06,495.16L821.18,494.89L820.38,494.53L819.35,493.86L818.42,493L817.63,491.99L816.96,490.81L816.43,489.47L816.06,488.05L815.86,486.54L815.82,485.01L815.96,483.48L816.26,482L816.71,480.61L817.33,479.32L818.07,478.19L818.92,477.24L819.91,476.46L820.97,475.87L821.9,475.54L822.67,475.36L823.44,475.27L824.18,475.26L824.92,475.34L825.53,475.47L826.12,475.66L827.3,476.21L828.43,477.01L829.52,478.04L829.68,478.14L829.86,478.17L830.04,478.1L830.17,477.97L830.21,477.85ZM824.181,477.54L823.601,477.584L823.027,477.703L822.465,477.897L821.921,478.164L821.398,478.501L820.904,478.905L820.441,479.373L820.015,479.899L819.63,480.479L819.289,481.108L818.997,481.777L818.754,482.483L818.431,483.974L818.33,485.522L818.458,487.068L818.807,488.552L819.062,489.254L819.366,489.919L819.718,490.541L820.113,491.114L820.548,491.633L821.019,492.092L821.521,492.488L822.049,492.816L822.598,493.073L823.163,493.257L823.739,493.367L824.319,493.4L824.899,493.357L825.473,493.237L826.035,493.043L826.579,492.776L827.102,492.439L827.596,492.035L828.059,491.567L828.485,491.041L828.87,490.461L829.211,489.833L829.503,489.163L829.746,488.457L830.069,486.966L830.17,485.418L830.043,483.872L829.693,482.388L829.438,481.686L829.134,481.022L828.782,480.4L828.387,479.826L827.952,479.308L827.481,478.848L826.98,478.452L826.452,478.124L825.902,477.867L825.337,477.683L824.761,477.573L824.181,477.54Z" style="fill:rgb(1,1,1);fill-rule:nonzero;"/>
        <path d="M934.14,477.74L934.16,477.88L934.27,478.02L934.42,478.09L934.6,478.09L934.75,478L935.52,477.31L936.29,476.72L937.05,476.23L937.8,475.84L938.54,475.55L939.27,475.36L939.99,475.27L940.71,475.28L941.38,475.39L942.05,475.59L942.71,475.88L943.36,476.26L944.01,476.74L944.64,477.31L945.27,477.97L945.89,478.72L946.07,478.87L946.29,478.92L946.51,478.87L946.69,478.72L947.52,477.75L948.46,476.93L949.5,476.26L950.6,475.77L951.73,475.46L952.87,475.36L953.97,475.45L955.04,475.75L955.86,476.14L956.64,476.67L957.34,477.32L957.97,478.1L958.49,479.05L958.87,480.2L959.09,481.56L959.18,483.12L959.26,494.72L959.21,495L959.06,495.23L958.82,495.39L958.55,495.45L957.56,495.46L957.31,495.41L957.1,495.27L956.96,495.05L956.92,494.8L956.92,494.78L956.98,483.81L956.95,482.6L956.86,481.59L956.72,480.8L956.52,480.22L956.02,479.41L955.36,478.7L954.66,478.2L953.88,477.83L953.03,477.6L952.15,477.53L951.27,477.61L950.41,477.84L949.61,478.21L948.87,478.73L948.44,479.13L948.05,479.58L947.52,480.4L947.14,481.34L946.89,482.38L946.78,483.53L946.69,488.69L946.76,494.7L946.71,494.99L946.55,495.24L946.3,495.41L946.01,495.47L945.17,495.47L944.88,495.41L944.64,495.25L944.47,495L944.42,494.71L944.5,482.93L944.48,482.24L944.4,481.6L944.26,480.98L944.06,480.41L943.81,479.87L943.5,479.38L943.13,478.93L942.71,478.55L942.06,478.11L941.35,477.79L940.56,477.6L939.75,477.54L938.92,477.61L938.09,477.82L937.33,478.14L936.62,478.59L936.14,478.99L935.71,479.45L935.34,479.95L935.02,480.5L934.77,481.07L934.57,481.69L934.43,482.33L934.36,483.02L934.26,485.14L934.22,487.78L934.33,494.62L934.27,494.97L934.09,495.26L933.8,495.46L933.46,495.53L932.8,495.53L932.57,495.5L932.36,495.4L932.09,495.11L932,494.74L931.97,476.67L932,476.45L932.09,476.25L932.37,475.99L932.74,475.9L933.24,475.9L933.58,475.97L933.87,476.16L934.07,476.45L934.14,476.79L934.14,477.74Z" style="fill:rgb(1,1,1);fill-rule:nonzero;"/>
        <path d="M976.01,478.14L976.17,478.24L976.35,478.26L976.53,478.2L976.66,478.06L976.7,477.95L976.73,477.54L976.69,477L976.7,476.65L976.86,476.35L977.12,476.12L977.45,476.03L977.52,476.02L978.19,476.03L978.51,476.09L978.79,476.28L978.96,476.56L979.02,476.88L979.02,476.91L978.93,478.96L978.88,482.12L978.89,491.78L978.88,493.66L978.79,495.2L978.63,496.55L978.38,497.75L978.04,498.8L977.62,499.71L977.1,500.5L976.47,501.2L976.02,501.56L975.52,501.89L974.43,502.4L973.13,502.75L971.68,502.93L970.28,502.95L968.92,502.86L967.69,502.66L966.58,502.35L965.63,501.95L964.84,501.45L964.19,500.84L963.71,500.16L963.42,499.49L963.24,498.73L963.25,498.37L963.38,498.04L963.58,497.79L963.85,497.62L964.17,497.52L964.51,497.52L964.86,497.6L965.18,497.76L965.45,497.99L965.65,498.28L965.96,498.79L966.32,499.24L966.79,499.69L967.31,500.07L967.9,500.4L968.53,500.64L969.21,500.81L969.91,500.9L970.62,500.91L971.34,500.84L972.04,500.7L972.73,500.48L973.39,500.19L974.01,499.83L974.56,499.41L975.07,498.93L975.49,498.41L975.85,497.83L976.08,497.35L976.48,496.1L976.65,494.84L976.61,493.74L976.39,492.64L976.37,492.59L976.24,492.52L976.1,492.59L975.4,493.38L974.66,494.04L973.86,494.57L973.01,494.98L972.38,495.19L971.73,495.34L971.05,495.42L970.35,495.45L969.38,495.38L968.47,495.21L967.6,494.94L966.8,494.57L965.78,493.9L964.85,493.03L964.06,492.02L963.4,490.83L962.87,489.5L962.51,488.08L962.32,486.57L962.29,485.04L962.43,483.51L962.74,482.03L963.2,480.64L963.82,479.36L964.57,478.23L965.43,477.29L966.41,476.51L967.47,475.93L968.41,475.6L969.18,475.43L969.94,475.34L970.69,475.34L971.42,475.41L972.03,475.55L972.63,475.74L973.8,476.3L974.92,477.1L976.01,478.14ZM970.576,477.561L969.995,477.608L969.421,477.731L968.86,477.929L968.316,478.199L967.795,478.539L967.303,478.946L966.843,479.415L966.42,479.943L966.038,480.525L965.701,481.153L965.412,481.824L965.175,482.529L964.86,484.018L964.771,485.563L964.909,487.104L965.27,488.583L965.529,489.28L965.839,489.942L966.195,490.559L966.595,491.128L967.035,491.643L967.509,492.098L968.015,492.489L968.546,492.813L969.098,493.066L969.665,493.245L970.242,493.35L970.824,493.379L971.405,493.332L971.979,493.209L972.54,493.011L973.084,492.741L973.605,492.401L974.097,491.994L974.558,491.525L974.981,490.997L975.362,490.415L975.699,489.787L975.988,489.116L976.226,488.411L976.54,486.922L976.629,485.377L976.491,483.836L976.13,482.357L975.871,481.66L975.561,480.998L975.205,480.381L974.805,479.812L974.365,479.297L973.891,478.842L973.386,478.451L972.854,478.127L972.302,477.875L971.735,477.695L971.158,477.59L970.576,477.561Z" style="fill:rgb(1,1,1);fill-rule:nonzero;"/>
        <path d="M368.89,477.83L368.92,477.97L369.02,478.11L369.17,478.18L369.35,478.18L369.5,478.09L370.28,477.4L371.04,476.81L371.8,476.32L372.55,475.93L373.29,475.64L374.02,475.46L374.75,475.37L375.46,475.38L376.14,475.49L376.8,475.69L377.46,475.98L378.11,476.36L378.76,476.84L379.39,477.41L380.02,478.07L380.64,478.82L380.81,478.97L381.04,479.02L381.26,478.97L381.43,478.82L382.27,477.85L383.2,477.04L384.24,476.37L385.35,475.87L386.47,475.57L387.62,475.47L388.72,475.56L389.79,475.86L390.61,476.25L391.38,476.78L392.08,477.43L392.71,478.22L393.23,479.16L393.6,480.31L393.83,481.67L393.91,483.23L393.99,494.83L393.93,495.1L393.78,495.34L393.54,495.5L393.27,495.55L392.28,495.56L392.03,495.51L391.82,495.37L391.68,495.15L391.64,494.9L391.64,494.88L391.72,483.92L391.69,482.71L391.6,481.7L391.46,480.91L391.26,480.33L390.76,479.52L390.1,478.81L389.4,478.31L388.62,477.94L387.77,477.71L386.89,477.64L386.01,477.71L385.15,477.94L384.36,478.31L383.62,478.83L383.18,479.24L382.8,479.68L382.27,480.5L381.88,481.44L381.63,482.48L381.52,483.63L381.43,488.79L381.49,494.79L381.44,495.09L381.28,495.33L381.03,495.5L380.74,495.56L379.91,495.56L379.61,495.5L379.37,495.34L379.21,495.09L379.15,494.8L379.24,483.03L379.22,482.34L379.14,481.7L379,481.08L378.81,480.51L378.55,479.96L378.25,479.48L377.88,479.03L377.46,478.65L376.81,478.2L376.1,477.89L375.31,477.69L374.5,477.63L373.67,477.7L372.84,477.91L372.08,478.24L371.37,478.69L370.9,479.08L370.46,479.54L370.1,480.04L369.78,480.59L369.52,481.16L369.32,481.78L369.18,482.42L369.1,483.11L369.01,485.22L368.97,487.86L369.07,494.7L369.01,495.05L368.82,495.34L368.54,495.54L368.2,495.61L367.54,495.61L367.23,495.55L366.97,495.38L366.8,495.12L366.74,494.81L366.73,476.76L366.82,476.39L367.1,476.1L367.49,475.99L367.99,475.99L368.34,476.06L368.63,476.25L368.82,476.54L368.89,476.88L368.89,477.83Z" style="fill:rgb(1,1,1);fill-rule:nonzero;"/>
        <path d="M504.63,477.86L504.66,477.99L504.76,478.13L504.92,478.21L505.09,478.2L505.24,478.12L506.02,477.42L506.79,476.83L507.55,476.34L508.3,475.95L509.05,475.66L509.78,475.47L510.51,475.38L511.22,475.39L511.9,475.5L512.57,475.7L513.24,475.99L513.89,476.37L514.54,476.85L515.18,477.42L515.81,478.09L516.43,478.84L516.58,478.98L516.75,479.04L516.93,479.03L517.1,478.96L517.23,478.84L518.06,477.87L519,477.05L520.05,476.37L521.15,475.88L522.29,475.57L523.43,475.47L524.54,475.56L525.61,475.86L526.44,476.25L527.22,476.79L527.91,477.44L528.55,478.23L529.07,479.17L529.45,480.33L529.68,481.69L529.76,483.26L529.85,494.9L529.79,495.18L529.64,495.42L529.4,495.58L529.13,495.64L528.14,495.65L527.88,495.6L527.67,495.45L527.53,495.24L527.49,494.99L527.49,494.96L527.56,483.95L527.53,482.73L527.44,481.73L527.29,480.93L527.09,480.35L526.59,479.54L525.93,478.82L525.22,478.32L524.45,477.95L523.59,477.72L522.7,477.65L521.83,477.73L520.96,477.96L520.16,478.33L519.42,478.85L518.98,479.26L518.6,479.7L518.07,480.53L517.68,481.47L517.43,482.51L517.31,483.67L517.23,488.85L517.3,494.88L517.25,495.18L517.08,495.43L516.84,495.59L516.55,495.65L516.54,495.65L515.71,495.66L515.7,495.66L515.41,495.6L515.17,495.43L515,495.18L514.95,494.89L515.03,483.07L515.01,482.38L514.93,481.73L514.79,481.11L514.59,480.53L514.33,479.99L514.03,479.5L513.65,479.05L513.24,478.67L512.58,478.22L511.87,477.91L511.08,477.71L510.26,477.65L509.43,477.72L508.6,477.93L507.84,478.26L507.12,478.71L506.64,479.11L506.21,479.57L505.84,480.07L505.52,480.62L505.27,481.2L505.06,481.82L504.93,482.47L504.85,483.15L504.75,485.28L504.71,487.93L504.82,494.8L504.76,495.14L504.57,495.44L504.29,495.64L503.94,495.71L503.28,495.71L502.98,495.65L502.72,495.48L502.54,495.22L502.48,494.91L502.46,476.78L502.53,476.45L502.65,476.27L502.81,476.13L503.01,476.04L503.23,476.01L503.73,476.01L504.07,476.07L504.36,476.27L504.56,476.56L504.63,476.9L504.63,477.86Z" style="fill:rgb(1,1,1);fill-rule:nonzero;"/>
    </g>
</svg>
