<?xml version="1.0" encoding="UTF-8" standalone="no"?>
<!DOCTYPE svg PUBLIC "-//W3C//DTD SVG 1.1//EN" "http://www.w3.org/Graphics/SVG/1.1/DTD/svg11.dtd">
<svg width="100%" height="100%" viewBox="0 0 751 492" version="1.1" xmlns="http://www.w3.org/2000/svg" xmlns:xlink="http://www.w3.org/1999/xlink" xml:space="preserve" xmlns:serif="http://www.serif.com/" style="fill-rule:evenodd;clip-rule:evenodd;stroke-linejoin:round;stroke-miterlimit:2;">
    <g transform="matrix(1,0,0,1,-75.35,-75.68)">
        <path d="M679.3,157.75C679.3,166.856 671.806,174.35 662.7,174.35C653.594,174.35 646.1,166.856 646.1,157.75C646.1,148.644 653.594,141.15 662.7,141.15C671.806,141.15 679.3,148.644 679.3,157.75Z" style="fill:rgb(40,48,126);fill-rule:nonzero;"/>
        <path d="M125.62,176.26L125.72,176.03L125.95,175.93L157,175.93L157.38,176.01L157.7,176.22L157.91,176.54L157.99,176.92L158.12,222.07L158.08,273.5L158.04,277.63L157.93,281.42L157.75,285L157.5,288.41L157.18,291.67L156.79,294.8L156.31,297.8L155.76,300.7L155.12,303.52L154.39,306.25L153.58,308.87L152.69,311.39L151.71,313.83L150.65,316.18L149.49,318.46L148.24,320.65L147.12,322.41L145.94,324.1L144.7,325.71L143.4,327.23L142.02,328.7L140.58,330.08L139.09,331.38L137.54,332.6L135.47,334.04L133.31,335.34L131.07,336.51L128.75,337.55L126.34,338.45L123.84,339.22L121.28,339.85L118.64,340.34L116.3,340.67L113.95,340.91L111.61,341.06L109.27,341.13L106.96,341.11L104.66,341L102.4,340.81L100.15,340.53L97.96,340.16L95.8,339.71L93.69,339.17L91.61,338.55L89.62,337.85L87.66,337.07L85.77,336.21L83.93,335.27L80.08,333.13L75.75,330.62L75.51,330.41L75.37,330.12L75.35,329.8L75.45,329.5L91,302.57L91.01,302.55L91.27,302.28L91.61,302.12L91.99,302.11L92.34,302.25L94.08,303.48L96.84,305.57L98.06,306.44L99.34,307.23L100.68,307.93L102.06,308.54L103.47,309.05L104.91,309.46L106.33,309.76L107.76,309.95L109.16,310.02L110.54,309.99L111.87,309.85L113.17,309.59L114.39,309.23L115.57,308.76L116.68,308.2L117.73,307.52L118.57,306.86L119.36,306.12L120.09,305.33L120.77,304.45L121.38,303.52L121.94,302.51L122.42,301.45L122.86,300.31L123.36,298.78L123.8,297.24L124.18,295.67L124.5,294.07L124.98,290.82L125.23,287.48L125.43,281.15L125.55,274.12L125.59,266.25L125.57,255.45L125.56,244.85L125.6,237.26L125.62,176.26Z" style="fill:rgb(40,48,126);fill-rule:nonzero;"/>
        <path d="M622.41,234.28L622.21,234.24L622.05,234.12L621.94,233.95L621.9,233.75L621.9,227.59L621.94,227.36L622.06,227.16L622.25,227.01L622.47,226.94L628.67,226.11L634.86,225.18L641.06,224.13L647.26,222.96L653.46,221.69L659.67,220.3L665.87,218.8L672.08,217.19L672.24,217.17L672.52,217.23L672.74,217.41L672.86,217.67L672.86,217.96L653.7,295.94L652.26,302.09L651.12,307.52L650.28,312.24L649.75,316.25L649.65,317.59L649.74,317.86L649.89,318.1L650.08,318.3L650.32,318.46L650.58,318.56L650.86,318.6L651.14,318.58L651.41,318.49L651.62,318.38L652.57,317.7L653.5,316.96L655.38,315.24L657.27,313.2L659.15,310.86L661.03,308.22L662.96,305.23L664.96,301.84L667.18,297.8L667.44,297.49L667.81,297.31L668.21,297.29L668.59,297.43L668.65,297.47L676.05,302.98L676.21,303.16L676.3,303.38L676.31,303.62L676.23,303.85L675.05,305.87L671.39,312.13L668.68,316.56L666.17,320.43L663.78,323.82L661.37,326.94L658.94,329.75L656.49,332.26L653.98,334.5L652.54,335.62L651.01,336.65L649.41,337.59L647.74,338.44L646.01,339.18L644.25,339.81L642.47,340.33L640.67,340.73L638.89,341.01L637.1,341.17L635.35,341.21L633.61,341.12L631.94,340.91L630.29,340.58L628.72,340.14L627.18,339.57L625.86,338.93L624.65,338.19L623.62,337.39L622.68,336.51L621.8,335.52L621.01,334.45L620.29,333.26L619.65,332L619.1,330.67L618.63,329.23L618.24,327.71L617.94,326.1L617.73,324.46L617.62,322.76L617.61,321.04L617.69,319.27L617.86,317.52L618.13,315.82L619.93,306.74L622.23,296.17L625.03,284.13L628.34,270.61L631.88,256.07L634.91,242.89L635.1,241.86L635.22,240.9L635.24,240L635.19,239.16L635.05,238.39L634.84,237.68L634.53,237.04L634.15,236.46L633.65,235.91L633.06,235.43L632.38,235.03L631.6,234.7L630.51,234.43L629.1,234.27L627.37,234.21L624.89,234.25L622.41,234.28Z" style="fill:rgb(40,48,126);fill-rule:nonzero;"/>
        <path d="M248.61,231.88L248.61,225.93L248.65,225.72L248.77,225.53L248.96,225.41L249.17,225.37L280.06,225.37L280.23,225.41L280.38,225.5L280.48,225.65L280.51,225.83L280.51,336.95L280.46,337.21L280.31,337.44L280.09,337.59L279.83,337.64L249.16,337.64L248.98,337.61L248.83,337.51L248.74,337.36L248.7,337.19L248.7,331.82L248.68,331.71L248.6,331.57L248.46,331.48L248.29,331.47L248.13,331.53L244.72,333.83L242.64,335.15L240.34,336.41L237.99,337.52L235.6,338.47L233.16,339.27L230.81,339.89L228.43,340.37L226,340.71L223.53,340.91L220.04,341L216.65,340.91L213.34,340.63L210.12,340.16L206.98,339.5L203.94,338.65L200.99,337.61L198.12,336.38L195.76,335.19L193.46,333.87L191.22,332.4L189.05,330.81L186.94,329.07L184.9,327.21L182.92,325.2L181,323.06L179.07,320.67L177.28,318.18L176.25,316.59L175.28,314.97L174.36,313.31L173.49,311.62L172.68,309.89L171.92,308.12L171.22,306.31L170.57,304.47L169.47,300.89L168.54,297.33L167.8,293.78L167.24,290.24L166.87,286.71L166.67,283.2L166.66,279.71L166.83,276.23L167.1,273.44L167.48,270.67L167.98,267.9L168.6,265.15L169.34,262.4L170.19,259.66L171.16,256.93L172.25,254.21L173.49,251.49L174.85,248.87L176.36,246.33L178,243.91L179.77,241.56L181.66,239.33L183.68,237.21L185.81,235.21L188.04,233.34L190.37,231.61L192.8,230.01L195.3,228.56L197.88,227.25L200.54,226.1L203.25,225.09L206.03,224.25L209.11,223.51L212.25,222.97L215.4,222.63L218.6,222.48L221.78,222.54L224.98,222.79L228.15,223.24L231.34,223.9L233.31,224.44L235.32,225.11L237.36,225.93L239.43,226.9L241.54,228L243.68,229.25L245.85,230.64L248.05,232.17L248.15,232.22L248.31,232.23L248.46,232.17L248.57,232.04L248.61,231.88ZM198.3,281.77L198.36,283.92L198.53,286.04L198.82,288.14L199.22,290.2L199.73,292.2L200.35,294.15L201.08,296.01L201.91,297.81L202.83,299.49L203.85,301.1L204.96,302.6L206.17,304.01L207.44,305.28L208.8,306.46L210.23,307.51L211.75,308.45L213.12,309.17L214.55,309.79L216.02,310.32L217.55,310.76L219.11,311.1L220.72,311.34L222.35,311.49L224.05,311.54L225.74,311.49L227.38,311.34L228.99,311.1L230.54,310.77L232.08,310.33L233.55,309.8L234.98,309.17L236.35,308.46L237.87,307.52L239.3,306.47L240.66,305.29L241.94,304.02L243.14,302.61L244.25,301.12L245.28,299.51L246.2,297.82L247.03,296.03L247.76,294.17L248.38,292.22L248.89,290.22L249.3,288.16L249.59,286.06L249.76,283.93L249.82,281.79L249.76,279.64L249.59,277.52L249.3,275.42L248.9,273.36L248.39,271.36L247.77,269.41L247.04,267.55L246.21,265.75L245.29,264.06L244.27,262.46L243.16,260.96L241.95,259.55L240.68,258.28L239.32,257.1L237.89,256.05L236.37,255.11L235,254.39L233.57,253.76L232.1,253.24L230.56,252.8L229.01,252.46L227.4,252.22L225.76,252.07L224.07,252.02L222.37,252.07L220.74,252.22L219.13,252.46L217.57,252.79L216.04,253.23L214.57,253.76L213.14,254.39L211.77,255.1L210.25,256.04L208.82,257.09L207.46,258.27L206.18,259.54L204.98,260.95L203.87,262.44L202.84,264.05L201.92,265.74L201.09,267.53L200.36,269.39L199.74,271.34L199.22,273.34L198.82,275.4L198.53,277.5L198.36,279.63L198.3,281.77Z" style="fill:rgb(40,48,126);fill-rule:nonzero;"/>
        <path d="M795.88,281.81L796.01,336.97L795.94,337.34L795.73,337.65L795.42,337.86L795.05,337.93L765.11,337.93L764.81,337.87L764.55,337.7L764.38,337.44L764.32,337.13L764.32,331.98L764.3,331.83L764.18,331.65L763.99,331.54L763.77,331.53L763.57,331.62L762.11,332.72L760.63,333.75L759.12,334.71L757.58,335.6L756.01,336.44L754.41,337.21L752.79,337.91L751.15,338.55L748.27,339.49L745.34,340.22L742.35,340.76L739.32,341.11L736.23,341.25L733.11,341.2L729.96,340.94L726.78,340.49L723.93,339.93L721.17,339.24L718.49,338.43L715.9,337.49L713.4,336.42L710.98,335.23L708.65,333.91L706.41,332.47L703.99,330.7L701.68,328.77L699.49,326.68L697.4,324.43L695.42,322.02L693.54,319.46L691.78,316.74L690.13,313.85L688.43,310.51L686.94,307.1L685.65,303.64L684.56,300.13L683.98,297.94L683.49,295.73L683.07,293.5L682.72,291.25L682.45,288.98L682.26,286.68L682.14,284.37L682.1,282.03L682.13,279.7L682.24,277.38L682.43,275.09L682.69,272.81L683.02,270.56L683.43,268.33L683.92,266.12L684.48,263.93L685.56,260.41L686.84,256.94L688.32,253.53L690,250.18L691.64,247.29L693.4,244.56L695.26,241.98L697.23,239.57L699.31,237.32L701.5,235.22L703.8,233.28L706.21,231.5L708.45,230.05L710.77,228.72L713.18,227.52L715.68,226.44L718.27,225.49L720.94,224.67L723.7,223.97L726.55,223.4L729.73,222.93L732.88,222.67L736,222.6L739.09,222.73L742.12,223.06L745.11,223.59L748.04,224.31L750.92,225.24L752.57,225.87L754.19,226.57L755.79,227.33L757.37,228.16L758.91,229.05L760.42,230.01L761.91,231.03L763.37,232.12L763.57,232.21L763.79,232.2L763.98,232.09L764.1,231.91L764.12,231.76L764.1,226.61L764.16,226.3L764.33,226.04L764.59,225.87L764.89,225.81L794.83,225.69L795.2,225.76L795.51,225.97L795.72,226.28L795.79,226.64L795.88,281.81ZM713.85,281.98L713.91,284.13L714.08,286.25L714.37,288.35L714.77,290.41L715.29,292.41L715.91,294.36L716.64,296.22L717.47,298.01L718.39,299.7L719.42,301.31L720.53,302.8L721.73,304.21L723,305.48L724.37,306.66L725.8,307.7L727.32,308.65L728.69,309.36L730.12,309.99L731.59,310.52L733.12,310.95L734.67,311.29L736.28,311.53L737.92,311.68L739.62,311.72L741.31,311.67L742.95,311.53L744.56,311.29L746.11,310.95L747.64,310.51L749.11,309.98L750.54,309.35L751.91,308.64L753.43,307.7L754.86,306.65L756.22,305.47L757.49,304.2L758.7,302.79L759.81,301.29L760.83,299.69L761.75,298L762.59,296.2L763.31,294.34L763.93,292.39L764.44,290.39L764.85,288.33L765.13,286.23L765.3,284.11L765.36,281.96L765.3,279.82L765.13,277.7L764.84,275.6L764.44,273.54L763.93,271.54L763.3,269.59L762.58,267.73L761.74,265.93L760.82,264.25L759.8,262.64L758.69,261.14L757.48,259.74L756.21,258.46L754.84,257.29L753.42,256.24L751.9,255.3L750.53,254.58L749.09,253.96L747.62,253.43L746.09,252.99L744.54,252.66L742.93,252.41L741.29,252.27L739.6,252.22L737.9,252.27L736.26,252.42L734.65,252.66L733.1,252.99L731.57,253.43L730.1,253.96L728.67,254.59L727.3,255.31L725.78,256.25L724.35,257.3L722.99,258.47L721.72,259.75L720.51,261.16L719.4,262.65L718.38,264.26L717.46,265.95L716.63,267.74L715.9,269.6L715.28,271.55L714.77,273.55L714.37,275.61L714.08,277.71L713.91,279.84L713.85,281.98Z" style="fill:rgb(40,48,126);fill-rule:nonzero;"/>
        <path d="M294.32,337.66L294.18,337.63L294.05,337.51L294,337.34L294,226.74L294.06,226.44L294.23,226.19L294.48,226.02L294.77,225.96L324.97,225.96L325.29,226.05L325.53,226.28L325.62,226.61L325.62,229.54L325.65,229.68L325.74,229.78L325.87,229.84L326,229.83L326.08,229.8L328.49,228.45L330.92,227.24L333.37,226.17L335.83,225.26L338.3,224.49L340.79,223.86L343.3,223.38L345.81,223.05L348.64,222.84L351.49,222.83L354.36,222.99L357.25,223.33L360.15,223.86L363.08,224.56L366.02,225.45L368.98,226.52L370.42,227.16L371.99,228.02L373.68,229.07L375.5,230.34L376.86,231.39L378.25,232.61L379.59,233.93L380.84,235.31L382.02,236.81L383.13,238.38L384.18,240.06L385.14,241.8L386.04,243.64L386.86,245.57L387.61,247.59L388.31,249.72L388.93,251.94L389.48,254.26L389.96,256.66L390.38,259.18L390.73,261.81L390.92,263.87L391.06,266.45L391.14,269.56L391.17,273.2L391.22,337.27L391.12,337.52L390.87,337.63L360.39,337.63L360.08,337.57L359.82,337.4L359.65,337.14L359.59,336.83L359.62,302.65L359.57,269.75L359.51,267.07L359.33,264.8L359.04,262.78L358.62,260.97L358.05,259.35L357.34,257.91L356.49,256.65L355.49,255.58L354.77,254.97L353.96,254.42L353.1,253.94L352.16,253.53L351.17,253.19L350.1,252.92L348.97,252.71L347.76,252.57L345.33,252.41L343.13,252.37L341.17,252.45L339.46,252.65L337.72,253.03L336.07,253.58L334.59,254.29L333.2,255.17L332.23,255.95L331.34,256.82L330.53,257.77L329.77,258.84L329.09,259.99L328.47,261.26L327.92,262.6L327.44,264.05L327.02,265.58L326.67,267.2L326.38,268.95L326.15,270.81L325.97,272.77L325.85,274.87L325.73,280.01L325.61,309.82L325.7,337.18L325.67,337.36L325.57,337.52L325.42,337.62L325.23,337.66L294.32,337.66Z" style="fill:rgb(40,48,126);fill-rule:nonzero;"/>
        <path d="M450.97,341.12L448.42,341.07L445.96,340.94L443.54,340.72L441.15,340.41L438.86,340.02L436.6,339.54L434.42,338.97L432.29,338.31L430.25,337.57L428.25,336.74L426.34,335.84L424.48,334.83L422.72,333.76L421.02,332.59L419.39,331.35L417.83,330.02L416.26,328.52L414.76,326.91L413.36,325.23L412.02,323.43L410.48,321.07L409.08,318.62L408.23,316.95L407.46,315.26L406.75,313.51L406.11,311.74L405.52,309.92L404.99,308.02L404.53,306.1L404.12,304.1L403.78,302.08L403.48,299.97L403.04,295.46L402.8,290.49L402.74,284.75L402.8,253.91L402.78,226.99L402.86,226.59L403.09,226.25L403.43,226.02L403.83,225.94L433.75,225.94L433.98,225.99L434.17,226.12L434.3,226.31L434.35,226.54L434.28,280.91L434.27,283.1L434.3,288.57L434.47,292.53L434.63,294.33L434.85,296.01L435.11,297.56L435.43,299.01L435.83,300.42L436.27,301.71L436.8,302.93L437.38,304.05L438.02,305.06L438.74,306.02L439.52,306.87L440.38,307.66L441.39,308.41L442.5,309.06L443.69,309.62L444.98,310.07L446.33,310.42L447.8,310.67L449.33,310.82L450.98,310.88L452.63,310.83L454.17,310.68L455.63,310.42L456.99,310.08L458.28,309.62L459.47,309.07L460.58,308.41L461.59,307.67L462.45,306.88L463.23,306.03L463.95,305.08L464.59,304.06L465.17,302.95L465.7,301.72L466.15,300.43L466.54,299.03L466.86,297.58L467.13,296.03L467.35,294.35L467.51,292.55L467.69,288.58L467.72,283.12L467.71,280.92L467.69,226.55L467.73,226.32L467.86,226.13L468.06,226L468.29,225.95L498.21,225.98L498.61,226.06L498.95,226.29L499.18,226.63L499.26,227.03L499.21,253.95L499.25,284.79L499.18,290.53L498.93,295.5L498.49,300.01L498.2,302.12L497.85,304.14L497.44,306.14L496.97,308.06L496.44,309.96L495.86,311.78L495.22,313.54L494.5,315.29L493.73,316.98L492.88,318.66L491.48,321.1L489.93,323.46L488.6,325.26L487.19,326.94L485.69,328.55L484.12,330.05L482.55,331.38L480.93,332.62L479.22,333.78L477.46,334.86L475.6,335.86L473.69,336.76L471.7,337.59L469.65,338.33L467.52,338.98L465.34,339.55L463.08,340.03L460.79,340.42L458.4,340.73L455.98,340.95L453.52,341.08L450.97,341.12Z" style="fill:rgb(40,48,126);fill-rule:nonzero;"/>
        <path d="M581.77,225.94L615.54,225.94L615.73,225.99L615.87,226.12L615.92,226.3L615.89,226.48L560.78,349.77L560.64,349.93L560.44,349.99L560.23,349.94L560.09,349.77L502.69,226.45L502.67,226.38L502.66,226.21L502.74,226.06L502.87,225.95L503.04,225.91L536.77,225.91L536.97,225.97L537.11,226.13L560.01,275.31L560.12,275.45L560.28,275.53L560.46,275.52L560.61,275.43L560.7,275.3L581.42,226.17L581.56,226L581.77,225.94Z" style="fill:rgb(40,48,126);fill-rule:nonzero;"/>
        <path d="M825.82,329.92C825.82,337.145 819.875,343.09 812.65,343.09C805.425,343.09 799.48,337.145 799.48,329.92C799.48,322.695 805.425,316.75 812.65,316.75C819.875,316.75 825.82,322.695 825.82,329.92ZM811.299,319.196L810.271,319.378L809.266,319.663L808.293,320.047L807.363,320.526L806.484,321.097L805.664,321.752L804.911,322.487L804.233,323.294L803.636,324.166L803.127,325.093L802.709,326.067L802.387,327.079L802.163,328.119L802.041,329.176L802.021,330.241L802.104,331.304L802.288,332.353L802.572,333.38L802.954,334.374L803.428,335.325L803.992,336.225L804.639,337.065L805.364,337.836L806.158,338.532L807.015,339.145L807.927,339.669L808.884,340.101L809.878,340.435L810.898,340.668L811.936,340.798L812.98,340.823L814.021,340.744L815.049,340.562L816.054,340.277L817.027,339.893L817.957,339.414L818.837,338.844L819.656,338.188L820.409,337.453L821.087,336.646L821.684,335.774L822.193,334.847L822.611,333.873L822.933,332.861L823.157,331.822L823.279,330.764L823.299,329.699L823.216,328.637L823.032,327.587L822.748,326.56L822.366,325.566L821.892,324.615L821.328,323.715L820.681,322.875L819.957,322.104L819.162,321.408L818.305,320.795L817.393,320.271L816.436,319.839L815.442,319.506L814.422,319.273L813.384,319.143L812.34,319.117L811.299,319.196Z" style="fill:rgb(40,48,126);fill-rule:nonzero;"/>
        <path d="M818.57,336.86L818.62,337.03L818.59,337.21L818.49,337.35L818.33,337.44L818.23,337.45L817.2,337.45L816.8,337.4L816.43,337.24L816.11,337L815.87,336.68L812.87,331.5L812.69,331.26L812.46,331.08L812.18,330.97L811.89,330.93L810.42,330.93L810.23,330.97L810.07,331.08L809.96,331.24L809.92,331.43L809.92,336.86L809.88,337.09L809.77,337.29L809.53,337.47L809.24,337.54L808.15,337.54L807.88,337.47L807.67,337.27L807.6,336.99L807.6,322.94L807.64,322.75L807.74,322.58L807.9,322.46L808.09,322.41L809.53,322.37L811.93,322.4L813.15,322.41L814.35,322.42L815.18,322.49L815.9,322.63L816.53,322.86L817.18,323.24L817.78,323.74L818.09,324.14L818.34,324.69L818.52,325.39L818.64,326.24L818.67,327.28L818.55,328.19L818.27,328.95L817.84,329.57L817.39,329.97L816.85,330.27L816.22,330.49L815.49,330.62L815.35,330.67L815.25,330.76L815.2,330.9L815.21,331.04L815.24,331.1L818.57,336.86ZM809.92,324.78L809.92,328.62L810.02,328.86L810.26,328.96L813.46,328.96L814.03,328.92L814.57,328.79L815.07,328.59L815.51,328.32L815.87,327.99L816.14,327.61L816.3,327.21L816.36,326.78L816.36,326.62L816.3,326.19L816.14,325.79L815.87,325.41L815.51,325.08L815.07,324.81L814.57,324.61L814.03,324.48L813.46,324.44L810.26,324.44L810.02,324.54L809.92,324.78Z" style="fill:rgb(40,48,126);fill-rule:nonzero;"/>
        <path d="M195.04,420.84L195.11,424.9L195.3,428.97L195.62,433.04L196.08,437.1L196.66,441.14L197.36,445.15L198.19,449.12L199.15,453.06L200.23,456.94L201.43,460.79L202.75,464.57L204.19,468.3L205.74,471.94L207.41,475.54L209.19,479.04L211.08,482.49L211.09,482.61L210.99,482.7L205.15,482.7L205.01,482.66L204.9,482.55L203.12,479.58L201.43,476.59L199.83,473.59L198.32,470.58L196.9,467.55L195.58,464.52L194.34,461.48L193.2,458.43L192.16,455.37L191.2,452.29L190.34,449.21L189.56,446.11L188.88,443.01L188.3,439.89L187.8,436.77L187.4,433.63L187.08,430.45L186.86,427.26L186.73,424.06L186.7,420.84L186.73,417.63L186.86,414.42L187.07,411.23L187.39,408.05L187.79,404.91L188.28,401.79L188.87,398.67L189.54,395.57L190.31,392.47L191.17,389.39L192.13,386.31L193.17,383.25L194.31,380.2L195.54,377.15L196.86,374.12L198.28,371.1L199.78,368.09L201.38,365.09L203.07,362.09L204.85,359.11L204.96,359.01L205.1,358.97L210.91,358.96L210.94,358.97L211.04,359.05L211.03,359.18L209.14,362.62L207.37,366.13L205.7,369.72L204.15,373.37L202.71,377.1L201.4,380.88L200.2,384.73L199.13,388.61L198.17,392.55L197.34,396.52L196.64,400.54L196.06,404.57L195.61,408.63L195.29,412.7L195.1,416.77L195.04,420.84Z" style="fill:rgb(3,5,5);fill-rule:nonzero;"/>
        <path d="M274.753,372.615C274.754,372.873 274.542,373.086 274.285,373.087L266.765,373.113C266.764,373.113 266.764,373.113 266.763,373.113C266.506,373.113 266.294,372.902 266.293,372.645L266.247,359.445C266.246,359.187 266.458,358.974 266.715,358.973L274.235,358.947C274.236,358.947 274.236,358.947 274.237,358.947C274.494,358.947 274.706,359.158 274.707,359.415L274.753,372.615Z" style="fill:rgb(3,5,5);fill-rule:nonzero;"/>
        <path d="M444.64,456.94C444.64,457.17 444.45,457.36 444.22,457.36L436.7,457.36C436.47,457.36 436.28,457.17 436.28,456.94L436.28,359.42C436.28,359.19 436.47,359 436.7,359L444.22,359C444.45,359 444.64,359.19 444.64,359.42L444.64,456.94Z" style="fill:rgb(3,5,5);fill-rule:nonzero;"/>
        <path d="M470.03,372.66C470.03,372.912 469.822,373.12 469.57,373.12L462.09,373.12C461.838,373.12 461.63,372.912 461.63,372.66L461.63,359.42C461.63,359.168 461.838,358.96 462.09,358.96L469.57,358.96C469.822,358.96 470.03,359.168 470.03,359.42L470.03,372.66Z" style="fill:rgb(3,5,5);fill-rule:nonzero;"/>
        <path d="M584.06,372.79C584.06,372.944 583.934,373.07 583.78,373.07L575.9,373.07C575.746,373.07 575.62,372.944 575.62,372.79L575.62,359.23C575.62,359.076 575.746,358.95 575.9,358.95L583.78,358.95C583.934,358.95 584.06,359.076 584.06,359.23L584.06,372.79Z" style="fill:rgb(3,5,5);fill-rule:nonzero;"/>
        <path d="M673.97,420.87L673.94,424.08L673.81,427.28L673.59,430.47L673.27,433.64L672.87,436.78L672.37,439.9L671.78,443.01L671.1,446.11L670.33,449.2L669.47,452.28L668.51,455.35L667.46,458.41L666.32,461.46L665.09,464.5L663.77,467.53L662.35,470.54L660.84,473.55L659.24,476.55L657.55,479.53L655.77,482.51L655.66,482.61L655.52,482.65L649.68,482.65L649.59,482.56L649.59,482.44L651.49,479L653.26,475.5L654.93,471.91L656.48,468.27L657.92,464.54L659.24,460.77L660.45,456.92L661.52,453.05L662.48,449.11L663.31,445.15L664.02,441.14L664.6,437.11L665.05,433.05L665.38,428.99L665.58,424.92L665.64,420.86L665.58,416.8L665.39,412.73L665.07,408.67L664.63,404.61L664.05,400.58L663.35,396.57L662.52,392.61L661.57,388.67L660.5,384.79L659.3,380.95L657.99,377.17L656.55,373.44L655.01,369.8L653.35,366.21L651.58,362.71L649.69,359.26L649.68,359.14L649.78,359.05L649.81,359.05L655.61,359.06L655.75,359.1L655.86,359.2L657.64,362.18L659.33,365.17L660.92,368.17L662.43,371.18L663.84,374.19L665.16,377.22L666.38,380.26L667.52,383.31L668.56,386.38L669.51,389.45L670.37,392.53L671.14,395.62L671.82,398.72L672.4,401.83L672.89,404.96L673.29,408.09L673.6,411.27L673.82,414.46L673.94,417.66L673.97,420.87Z" style="fill:rgb(3,5,5);fill-rule:nonzero;"/>
        <path d="M312.46,450.24L312.49,450.24L312.66,450.28L312.73,450.44L312.72,457.19L312.63,457.45L312.4,457.58L309.68,457.98L306.89,458.14L304.03,458.08L301.1,457.79L299.93,457.59L298.86,457.35L297.85,457.04L296.94,456.68L296.11,456.27L295.36,455.8L294.67,455.27L294.07,454.68L293.32,453.74L292.7,452.64L292.21,451.42L291.83,450.02L291.56,448.45L291.4,446.66L291.31,444.58L291.31,441.91L291.36,424.92L291.36,391.76L291.31,391.54L291.18,391.35L290.99,391.22L290.77,391.18L281.67,391.17L281.42,391.07L281.32,390.82L281.32,384.34L281.43,384.07L281.68,383.97L290.66,383.97L290.93,383.92L291.16,383.77L291.31,383.54L291.36,383.27L291.37,364.22L291.49,363.94L291.76,363.83L299.43,363.83L299.6,363.87L299.75,363.97L299.85,364.12L299.88,364.29L299.87,383.75L299.91,383.88L300.02,383.97L300.11,383.99L312.32,383.99L312.52,384.05L312.66,384.2L312.71,384.39L312.71,390.87L312.62,391.1L312.39,391.19L300.46,391.18L300.24,391.23L300.04,391.36L299.91,391.55L299.86,391.78L299.83,442.06L299.88,444.2L300.05,445.94L300.33,447.28L300.52,447.8L300.73,448.23L301.01,448.63L301.39,449.08L301.82,449.47L302.31,449.83L302.84,450.14L303.45,450.42L304.09,450.64L305.52,450.95L307.17,451.07L308.92,450.98L310.75,450.7L312.46,450.24Z" style="fill:rgb(3,5,5);fill-rule:nonzero;"/>
        <path d="M568.78,450.28L568.81,450.27L568.98,450.32L569.05,450.48L569.05,457.23L568.96,457.48L568.73,457.62L566.01,458.02L563.22,458.18L560.35,458.12L557.42,457.83L556.25,457.64L555.18,457.39L554.17,457.09L553.26,456.73L552.43,456.31L551.68,455.85L550.99,455.31L550.38,454.72L549.64,453.79L549.01,452.69L548.52,451.46L548.15,450.07L547.88,448.5L547.71,446.71L547.63,444.62L547.62,441.96L547.67,424.96L547.64,391.79L547.6,391.57L547.47,391.38L547.28,391.25L547.05,391.21L537.95,391.21L537.7,391.11L537.6,390.86L537.6,384.37L537.71,384.11L537.96,384L546.94,384L547.21,383.95L547.43,383.79L547.59,383.57L547.64,383.3L547.64,364.24L547.72,364.01L547.86,363.89L548.03,363.85L555.7,363.85L555.87,363.89L556.02,363.98L556.12,364.13L556.15,364.31L556.15,383.77L556.22,383.94L556.39,384.01L568.6,384.01L568.75,384.04L568.88,384.13L568.97,384.26L569,384.41L569,390.89L568.95,391.06L568.83,391.17L568.68,391.21L556.75,391.21L556.55,391.25L556.37,391.35L556.24,391.5L556.16,391.69L556.15,391.81L556.14,442.1L556.19,444.24L556.36,445.98L556.65,447.32L556.83,447.85L557.05,448.27L557.33,448.68L557.71,449.12L558.14,449.51L558.63,449.87L559.16,450.18L559.77,450.46L560.41,450.68L561.84,450.99L563.49,451.11L565.25,451.02L567.07,450.74L568.78,450.28Z" style="fill:rgb(3,5,5);fill-rule:nonzero;"/>
        <path d="M254.54,404.73L254.42,404.99L254.15,405.1L246.39,405.1L246.17,404.99L246.09,404.76L246.17,402.64L246.06,400.58L245.77,398.67L245.3,396.9L244.67,395.31L243.86,393.9L243.4,393.28L242.89,392.69L242.36,392.17L241.78,391.68L240.97,391.12L240.07,390.64L239.12,390.25L238.09,389.94L236.96,389.71L235.76,389.56L234.54,389.49L233.27,389.5L232.04,389.59L230.8,389.77L229.63,390.01L228.48,390.34L227.45,390.72L226.47,391.17L225.59,391.68L224.76,392.26L224.05,392.87L223.41,393.55L222.87,394.28L222.41,395.06L221.94,396.22L221.49,397.81L221.17,399.3L220.97,400.74L220.91,402.08L220.96,403.38L221.14,404.58L221.45,405.74L221.88,406.82L222.26,407.53L222.68,408.2L223.17,408.86L223.72,409.48L224.34,410.1L225.02,410.68L226.57,411.79L228.37,412.81L230.47,413.8L232.96,414.8L236.47,416.07L238.96,416.96L242.3,418.24L245.06,419.44L247.25,420.57L248.13,421.1L248.87,421.61L250.59,423.05L252.1,424.6L252.77,425.42L253.38,426.27L253.94,427.15L254.44,428.05L255.16,429.61L255.72,431.25L256.13,432.97L256.39,434.76L256.5,436.64L256.46,438.59L256.26,440.62L255.92,442.73L255.59,444.22L255.18,445.63L254.69,446.98L254.13,448.25L253.5,449.46L252.79,450.59L252,451.66L251.14,452.65L250.12,453.64L249.02,454.56L247.82,455.39L246.54,456.13L245.17,456.8L243.71,457.38L242.16,457.88L240.52,458.29L238.03,458.75L235.55,459.02L233.08,459.11L230.63,459.01L229.1,458.85L227.57,458.62L226.05,458.32L224.53,457.94L223.42,457.6L222.37,457.22L221.34,456.77L220.38,456.28L219.46,455.74L218.59,455.15L217.76,454.51L216.98,453.82L216.19,453L215.46,452.14L214.78,451.21L214.16,450.24L213.59,449.18L213.09,448.09L212.64,446.93L212.25,445.74L211.93,444.47L211.66,443.17L211.46,441.81L211.32,440.42L211.23,438.96L211.21,437.49L211.36,434.42L211.43,434.17L211.58,433.96L211.8,433.82L212.06,433.77L219.29,433.77L219.54,433.83L219.74,433.97L219.87,434.18L219.91,434.43L219.89,436.97L220.04,439.29L220.36,441.42L220.85,443.37L221.52,445.1L221.91,445.89L222.35,446.65L222.82,447.33L223.35,447.98L223.91,448.56L224.51,449.1L225.36,449.73L226.31,450.28L227.31,450.74L228.4,451.11L229.65,451.43L230.89,451.68L232.12,451.84L233.34,451.93L234.55,451.94L235.74,451.86L236.9,451.72L238.02,451.49L239.11,451.19L240.15,450.81L241.14,450.36L242.09,449.84L242.97,449.25L243.8,448.58L244.54,447.87L245.22,447.09L245.95,446.06L246.58,444.94L247.08,443.76L247.48,442.48L247.75,441.17L247.9,439.78L247.94,438.35L247.85,436.84L247.64,435.42L247.3,434.09L246.83,432.83L246.22,431.65L245.59,430.69L244.86,429.8L244.03,428.96L243.1,428.18L242.07,427.46L240.94,426.8L239.71,426.2L238.38,425.66L231.04,422.83L223.54,419.72L221.8,418.88L220.17,417.89L218.69,416.78L217.33,415.55L216.14,414.21L215.09,412.77L214.23,411.25L213.53,409.63L213.08,408.17L212.75,406.65L212.58,405.1L212.55,403.5L212.69,401.02L212.98,398.7L213.42,396.53L214.01,394.53L214.76,392.68L215.64,391.01L216.68,389.48L217.89,388.08L218.78,387.24L219.74,386.47L220.76,385.77L221.86,385.13L223.03,384.55L224.28,384.04L225.58,383.6L226.97,383.23L229,382.81L231.04,382.53L233.68,382.37L236.35,382.43L239.04,382.72L241.75,383.23L243.73,383.8L244.67,384.16L245.56,384.56L246.41,385.01L247.2,385.5L247.97,386.05L248.69,386.64L249.44,387.35L250.13,388.11L250.78,388.93L251.37,389.8L251.92,390.74L252.41,391.73L252.86,392.79L253.25,393.88L253.59,395.06L253.88,396.27L254.31,398.87L254.53,401.7L254.54,404.73Z" style="fill:rgb(3,5,5);fill-rule:nonzero;"/>
        <path d="M642.94,456.91L642.85,457.12L642.64,457.21L634.76,457.21L634.58,457.14L634.51,456.96L634.52,404.76L634.46,402.6L634.26,400.59L633.92,398.75L633.44,397.09L632.81,395.57L632.06,394.24L631.14,393.05L630.1,392.04L629.4,391.51L628.64,391.04L627.84,390.63L626.98,390.29L626.06,390L625.09,389.78L624.07,389.62L623,389.53L621.87,389.5L620.77,389.54L619.68,389.65L618.62,389.84L617.59,390.09L616.6,390.41L615.62,390.8L614.68,391.26L613.74,391.81L612.85,392.43L611.99,393.13L611.18,393.89L610.42,394.71L609.72,395.59L609.08,396.52L608.49,397.5L607.97,398.54L607.51,399.62L607.11,400.75L606.79,401.9L606.53,403.08L606.34,404.28L606.23,405.51L606.18,406.76L606.1,427.27L606.12,456.92L606.02,457.16L605.78,457.26L597.91,457.26L597.79,457.23L597.69,457.04L597.69,384.39L597.79,384.1L597.95,383.97L598.15,383.93L604.99,383.93L605.04,383.94L605.13,384L605.16,384.1L605.16,393.5L605.19,393.62L605.28,393.71L605.4,393.74L605.52,393.71L605.61,393.62L606.6,392.05L607.64,390.59L608.74,389.25L609.9,388.03L611.11,386.94L612.38,385.96L613.71,385.1L615.1,384.36L616.16,383.89L617.25,383.48L618.37,383.14L619.53,382.86L620.71,382.65L621.93,382.51L623.17,382.43L624.45,382.41L626.61,382.52L628.65,382.78L630.59,383.2L632.41,383.77L634.08,384.5L635.63,385.38L637.02,386.4L638.27,387.57L639.13,388.57L639.91,389.67L640.58,390.83L641.16,392.08L641.66,393.41L642.06,394.83L642.35,396.31L642.56,397.87L642.86,401.92L643.02,406.59L643.05,411.96L642.96,419.46L642.87,427.2L642.91,432.68L642.95,434.79L642.99,440.2L642.95,446.78L642.91,452.53L642.94,456.91Z" style="fill:rgb(3,5,5);fill-rule:nonzero;"/>
        <path d="M319.82,404.71L320.07,401.9L320.47,399.31L321.01,396.94L321.72,394.75L322.58,392.76L323.6,390.95L324.77,389.32L326.11,387.87L327.47,386.69L328.95,385.67L330.6,384.77L332.36,384.02L333.68,383.57L335.04,383.19L336.42,382.88L337.83,382.64L339.27,382.47L340.74,382.37L342.23,382.35L343.76,382.39L346.45,382.62L348.96,383.02L351.25,383.58L353.35,384.31L355.25,385.21L356.11,385.72L356.93,386.27L357.71,386.87L358.44,387.51L359.1,388.18L359.72,388.9L360.45,389.9L361.1,390.97L361.65,392.11L362.12,393.32L362.5,394.59L362.79,395.93L362.99,397.34L363.11,398.82L363.27,402.7L363.36,406.66L363.39,410.67L363.35,414.76L363.25,422.59L363.24,430.49L363.31,438.46L363.47,446.5L363.53,447.24L363.67,447.93L363.89,448.58L364.18,449.18L364.8,450.01L365.6,450.74L365.99,450.95L366.42,451.02L369.34,451.02L369.6,451.07L369.83,451.22L369.98,451.44L370.03,451.7L370.03,456.2L369.93,456.76L369.64,457.25L369.2,457.61L368.66,457.79L366.59,458.02L364.59,458.06L362.72,457.93L361.02,457.62L359.56,457.15L358.91,456.85L358.3,456.51L357.77,456.14L357.28,455.71L356.86,455.26L356.49,454.77L356.09,454.06L355.78,453.27L355.59,452.43L355.49,451.5L355.37,447.09L355.32,446.96L355.22,446.88L355.1,446.87L354.98,446.92L354.91,447.03L354.48,448.24L354,449.39L353.47,450.46L352.9,451.46L352.27,452.39L351.6,453.25L350.87,454.03L350.1,454.75L349.21,455.45L348.26,456.08L347.22,456.67L346.15,457.18L344.98,457.65L343.77,458.04L342.5,458.38L341.2,458.64L339.83,458.84L338.45,458.97L337.04,459.03L335.64,459.01L334.2,458.93L332.79,458.77L331.41,458.54L330.08,458.25L328.43,457.75L326.87,457.1L325.45,456.32L324.12,455.38L323.21,454.58L322.38,453.72L321.6,452.78L320.9,451.77L320.25,450.67L319.68,449.51L319.17,448.26L318.74,446.98L318.38,445.6L318.08,444.14L317.85,442.66L317.7,441.09L317.63,439.49L317.63,437.83L317.7,436.18L317.85,434.48L318.2,432.29L318.75,430.21L319.5,428.27L320.46,426.44L321.35,425.11L322.36,423.85L323.49,422.67L324.74,421.56L325.65,420.9L326.76,420.24L328.07,419.59L329.58,418.95L331.29,418.31L333.19,417.68L337.6,416.43L343.9,414.7L351.01,412.54L351.78,412.16L352.56,411.52L353.33,410.62L354.11,409.45L354.31,409.01L354.42,408.55L354.64,406.73L354.78,405L354.85,403.36L354.84,401.81L354.75,400.35L354.59,398.98L354.35,397.69L354.03,396.5L353.74,395.68L353.39,394.92L352.96,394.19L352.49,393.53L351.52,392.49L350.36,391.6L349.05,390.87L347.57,390.29L345.93,389.88L344.15,389.62L342.24,389.54L340.24,389.62L339.22,389.74L338.25,389.92L337.32,390.16L336.43,390.45L335.58,390.81L334.78,391.23L334.02,391.71L333.32,392.24L332.51,392.97L331.78,393.77L331.13,394.66L330.55,395.62L330.04,396.67L329.6,397.79L329.25,398.98L328.97,400.24L328.53,403.04L328.43,404L328.43,404.72L328.35,405.26L328.05,405.72L327.6,406.03L327.06,406.14L321.17,406.14L320.64,406.03L320.2,405.73L319.91,405.28L319.82,404.75L319.82,404.71ZM354.4,416.97L353.42,417.76L352.31,418.49L351.05,419.16L349.65,419.78L348.14,420.33L346.47,420.85L344.58,421.35L342.03,421.95L339.7,422.49L338.18,422.91L336.59,423.45L335.12,424.07L333.76,424.76L332.52,425.53L331.4,426.37L330.39,427.29L329.51,428.29L328.74,429.36L328.03,430.62L327.46,431.98L327.03,433.43L326.75,434.97L326.61,436.6L326.61,438.32L326.75,440.13L327.04,442.04L327.3,443.22L327.64,444.32L328.06,445.37L328.55,446.35L329.13,447.27L329.78,448.12L330.5,448.9L331.29,449.59L332.02,450.12L332.79,450.58L333.59,450.98L334.43,451.31L335.3,451.58L336.21,451.79L337.13,451.92L338.08,451.99L339.04,451.99L340.02,451.92L341.01,451.78L342,451.57L342.97,451.3L343.95,450.96L344.91,450.56L345.87,450.09L346.76,449.57L347.62,448.99L348.45,448.31L349.24,447.58L350,446.76L350.72,445.89L351.39,444.95L352.01,443.96L352.58,442.92L353.08,441.84L353.53,440.72L353.9,439.57L354.21,438.42L354.44,437.27L354.6,436.12L354.68,434.98L354.79,429.15L354.91,417.2L354.87,417.06L354.78,416.95L354.64,416.89L354.49,416.91L354.4,416.97Z" style="fill:rgb(3,5,5);fill-rule:nonzero;"/>
        <path d="M414.21,444.68L414.19,444.62L414.08,444.57L413.99,444.65L413.4,446.26L412.72,447.76L411.94,449.17L411.07,450.47L410.1,451.69L409.05,452.78L407.91,453.78L406.69,454.65L405.84,455.17L404.95,455.63L404.04,456.03L403.11,456.38L402.13,456.68L401.14,456.93L399.08,457.25L396.94,457.34L394.74,457.21L392.5,456.85L390.21,456.27L388.57,455.68L386.98,454.92L386.06,454.37L385.18,453.77L384.31,453.1L383.5,452.38L382.7,451.58L381.94,450.74L381.22,449.82L380.53,448.85L379.88,447.81L379.26,446.73L378.14,444.39L377.15,441.79L376.31,438.98L375.6,435.89L375.04,432.59L374.63,429.06L374.38,425.37L374.27,421.46L374.33,417.38L374.54,413.21L374.9,409.06L375.16,406.93L375.48,404.88L375.86,402.93L376.3,401.07L376.8,399.28L377.36,397.59L377.99,395.96L378.67,394.44L379.42,393L380.21,391.67L381.06,390.42L381.99,389.24L382.96,388.18L384,387.18L385.09,386.29L386.26,385.48L387.18,384.92L388.14,384.42L389.12,383.97L390.15,383.57L391.21,383.23L392.31,382.93L394.6,382.51L396.4,382.34L398.16,382.33L399.89,382.46L401.58,382.73L403.2,383.16L404.76,383.73L406.25,384.44L407.65,385.28L408.82,386.13L409.91,387.08L410.93,388.14L411.87,389.28L412.72,390.51L413.48,391.83L414.15,393.22L414.72,394.68L414.8,394.78L414.9,394.82L415.01,394.79L415.12,394.61L415.12,384.39L415.23,384.13L415.49,384.02L422.43,384.02L422.63,384.1L422.71,384.3L422.74,420.28L422.66,453.86L422.61,455.99L422.49,458.07L422.28,460.08L422.01,462L421.65,463.87L421.23,465.64L420.72,467.36L420.14,468.97L419.49,470.51L418.78,471.93L417.99,473.28L417.12,474.56L416.2,475.72L415.19,476.8L414.13,477.79L412.98,478.69L412.01,479.35L410.98,479.96L409.92,480.49L408.81,480.97L407.67,481.38L406.47,481.73L405.25,482.01L403.97,482.24L402.09,482.48L400.2,482.62L398.35,482.67L396.51,482.62L394.75,482.48L393.01,482.25L391.35,481.92L389.74,481.49L388.25,480.99L386.81,480.39L385.47,479.72L384.19,478.95L383.04,478.11L381.96,477.19L380.99,476.19L380.1,475.11L379.37,474.04L378.72,472.9L378.17,471.7L377.69,470.43L377.32,469.13L377.03,467.75L376.83,466.32L376.72,464.82L376.81,464.57L377.06,464.46L384.98,464.46L385.2,464.55L385.29,464.77L385.37,465.99L385.58,467.14L385.92,468.24L386.37,469.26L386.85,470.08L387.4,470.83L388.03,471.55L388.74,472.21L389.54,472.83L390.4,473.39L391.34,473.9L392.33,474.33L393.4,474.72L394.51,475.03L395.67,475.27L396.86,475.44L398.07,475.53L399.28,475.55L400.48,475.5L401.65,475.37L403.13,475.08L404.51,474.66L405.84,474.09L407.07,473.4L408.4,472.41L409.59,471.28L410.67,469.97L411.59,468.52L412.37,466.92L412.99,465.21L413.45,463.38L413.73,461.49L414.09,457.15L414.29,452.9L414.33,448.75L414.21,444.68ZM383.27,419.88L383.3,423.11L383.38,425.86L383.53,428.43L383.74,430.79L384.03,433.04L384.4,435.16L384.84,437.12L385.36,438.96L385.96,440.68L386.64,442.26L387.4,443.69L388.23,444.97L389.15,446.13L390.13,447.13L391.22,448.01L392.36,448.73L393.8,449.4L395.33,449.88L396.99,450.17L398.73,450.26L400.48,450.17L402.14,449.88L403.66,449.41L405.11,448.73L406.25,448.01L407.34,447.13L408.32,446.13L409.24,444.97L410.07,443.69L410.83,442.26L411.51,440.68L412.12,438.96L412.63,437.13L413.07,435.16L413.44,433.04L413.73,430.79L413.95,428.43L414.1,425.87L414.18,423.11L414.2,419.88L414.18,416.65L414.1,413.9L413.95,411.34L413.74,408.97L413.45,406.73L413.08,404.61L412.64,402.64L412.12,400.81L411.52,399.09L410.84,397.51L410.08,396.08L409.25,394.8L408.33,393.64L407.35,392.64L406.26,391.75L405.11,391.03L403.67,390.36L402.15,389.89L400.49,389.6L398.74,389.5L397,389.6L395.34,389.89L393.81,390.36L392.37,391.03L391.23,391.75L390.14,392.63L389.16,393.63L388.24,394.79L387.41,396.07L386.65,397.5L385.97,399.08L385.36,400.8L384.84,402.64L384.4,404.6L384.04,406.72L383.74,408.97L383.53,411.33L383.38,413.9L383.3,416.65L383.27,419.88Z" style="fill:rgb(3,5,5);fill-rule:nonzero;"/>
        <path d="M493.96,446.9L493.87,446.88L493.86,446.91L493.86,481.13L493.82,481.31L493.72,481.46L493.57,481.55L493.39,481.59L485.99,481.59L485.81,481.55L485.66,481.46L485.57,481.31L485.53,481.13L485.53,384.46L485.58,384.21L485.8,383.97L486.11,383.88L492.07,383.88L492.44,383.95L492.76,384.16L492.97,384.47L493.04,384.84L493.04,393.87L493.07,393.98L493.15,394.06L493.27,394.09L493.38,394.06L493.46,393.96L494.17,392.48L494.98,391.07L495.87,389.76L496.85,388.54L497.89,387.45L499.02,386.45L500.2,385.57L501.47,384.79L502.41,384.31L503.4,383.89L504.4,383.53L505.43,383.23L507.57,382.76L509.64,382.47L511.68,382.35L513.65,382.41L515.58,382.64L517.44,383.05L519.24,383.63L520.94,384.38L522.06,384.98L523.12,385.65L524.15,386.4L525.12,387.21L526.06,388.1L526.95,389.06L527.78,390.08L528.57,391.17L529.3,392.31L529.98,393.52L530.6,394.78L531.17,396.1L531.68,397.47L532.13,398.89L532.52,400.36L532.85,401.88L533.34,404.63L533.76,407.39L534.14,410.51L534.41,413.65L534.59,416.8L534.68,419.97L534.66,423.14L534.54,426.34L534.33,429.54L534.02,432.76L533.75,434.84L533.43,436.83L533.03,438.77L532.58,440.6L532.07,442.37L531.5,444.03L530.87,445.63L530.18,447.12L529.44,448.52L528.63,449.85L527.76,451.08L526.83,452.24L525.86,453.29L524.82,454.26L523.73,455.14L522.56,455.93L521.37,456.62L520.1,457.24L518.79,457.75L517.4,458.18L515.99,458.52L514.5,458.77L512.98,458.93L511.38,459L509.75,458.97L508.19,458.85L506.7,458.62L505.28,458.28L503.92,457.85L502.64,457.31L501.43,456.67L500.29,455.93L499.26,455.13L498.3,454.23L497.41,453.24L496.58,452.16L495.83,450.99L495.14,449.72L494.51,448.35L493.96,446.9ZM493.93,420.77L493.94,424.08L494.01,426.92L494.15,429.55L494.36,431.97L494.65,434.27L495.01,436.44L495.45,438.45L495.97,440.33L496.57,442.08L497.26,443.7L498.02,445.17L498.86,446.48L499.79,447.67L500.78,448.71L501.89,449.62L503.05,450.38L503.83,450.79L504.65,451.14L505.48,451.43L506.36,451.67L507.27,451.85L508.22,451.98L510.21,452.06L511.8,451.95L513.34,451.67L514.75,451.23L516.1,450.61L517.28,449.89L518.4,448.99L519.42,447.98L520.37,446.8L521.22,445.48L522.01,444.02L522.72,442.39L523.34,440.62L523.88,438.73L524.34,436.7L524.73,434.51L525.03,432.19L525.26,429.74L525.43,427.09L525.52,424.25L525.56,420.89L525.55,417.53L525.48,414.68L525.33,412.03L525.12,409.59L524.83,407.26L524.47,405.07L524.02,403.04L523.5,401.14L522.89,399.37L522.19,397.73L521.42,396.26L520.57,394.94L519.63,393.76L518.62,392.73L517.51,391.83L516.34,391.09L514.99,390.47L513.58,390.02L512.05,389.72L510.45,389.6L508.47,389.66L507.51,389.78L506.6,389.96L505.72,390.19L504.88,390.47L504.06,390.82L503.28,391.22L502.11,391.97L501,392.88L500,393.9L499.06,395.09L498.21,396.4L497.44,397.86L496.74,399.47L496.12,401.22L495.59,403.1L495.14,405.1L494.75,407.27L494.45,409.56L494.22,411.98L494.06,414.62L493.97,417.45L493.93,420.77Z" style="fill:rgb(3,5,5);fill-rule:nonzero;"/>
        <path d="M470.02,456.98C470.02,457.167 469.867,457.32 469.68,457.32L461.98,457.32C461.793,457.32 461.64,457.167 461.64,456.98L461.64,384.32C461.64,384.133 461.793,383.98 461.98,383.98L469.68,383.98C469.867,383.98 470.02,384.133 470.02,384.32L470.02,456.98Z" style="fill:rgb(3,5,5);fill-rule:nonzero;"/>
        <path d="M584.07,456.91C584.07,457.075 583.935,457.21 583.77,457.21L575.87,457.21C575.705,457.21 575.57,457.075 575.57,456.91L575.57,384.19C575.57,384.025 575.705,383.89 575.87,383.89L583.77,383.89C583.935,383.89 584.07,384.025 584.07,384.19L584.07,456.91Z" style="fill:rgb(3,5,5);fill-rule:nonzero;"/>
        <path d="M274.73,457.03C274.73,457.173 274.613,457.29 274.47,457.29L266.53,457.29C266.387,457.29 266.27,457.173 266.27,457.03L266.27,384.23C266.27,384.087 266.387,383.97 266.53,383.97L274.47,383.97C274.613,383.97 274.73,384.087 274.73,384.23L274.73,457.03Z" style="fill:rgb(3,5,5);fill-rule:nonzero;"/>
        <path d="M661.41,551.66L661.39,552.67L661.53,553.6L661.54,553.97L661.4,554.3L661.13,554.56L660.78,554.67L660.68,554.68L657.12,554.68L656.79,554.61L656.52,554.43L656.33,554.15L656.27,553.82L656.27,504.52L656.35,504.32L656.55,504.24L661.45,504.24L661.63,504.32L661.71,504.5L661.71,519.94L661.74,520.07L661.84,520.16L661.97,520.2L662.1,520.17L662.19,520.07L662.69,519.28L663.25,518.57L663.88,517.94L664.55,517.4L665.48,516.84L666.49,516.41L667.59,516.1L668.78,515.92L669.94,515.88L671.03,515.96L672.08,516.19L673.06,516.53L673.7,516.84L674.3,517.21L674.89,517.63L675.44,518.11L675.98,518.66L676.47,519.26L677.37,520.62L678.14,522.19L678.76,523.92L679.22,525.82L679.5,527.79L679.73,530.52L679.87,533.02L679.94,535.35L679.93,537.56L679.84,539.65L679.66,541.62L679.41,543.44L679.08,545.16L678.66,546.74L678.17,548.2L677.59,549.55L676.93,550.76L676.19,551.86L675.38,552.81L674.48,553.64L673.49,554.36L672.59,554.86L671.62,555.27L670.65,555.55L669.66,555.71L668.65,555.74L667.64,555.64L666.67,555.41L665.74,555.06L664.88,554.59L664.08,554L663.35,553.27L662.7,552.41L662.27,551.77L661.98,551.44L661.84,551.36L661.68,551.36L661.53,551.43L661.44,551.56L661.41,551.66ZM661.51,535.74L661.57,538.67L661.78,541.28L662.12,543.57L662.61,545.52L662.91,546.38L663.25,547.16L663.62,547.85L664.02,548.46L664.46,549L664.94,549.45L665.45,549.81L666,550.1L666.88,550.38L667.85,550.47L668.82,550.39L669.71,550.11L670.26,549.83L670.78,549.46L671.25,549.01L671.7,548.48L672.1,547.87L672.48,547.18L672.81,546.41L673.12,545.55L673.62,543.59L673.98,541.31L674.19,538.7L674.27,535.77L674.21,532.83L674,530.22L673.66,527.94L673.17,525.98L672.87,525.12L672.53,524.35L672.16,523.65L671.76,523.04L671.32,522.51L670.84,522.06L670.33,521.69L669.79,521.4L668.9,521.13L667.93,521.03L666.96,521.12L666.07,521.39L665.52,521.68L665.01,522.04L664.53,522.49L664.08,523.02L663.68,523.63L663.3,524.32L662.97,525.1L662.66,525.95L662.16,527.91L661.81,530.19L661.59,532.8L661.51,535.74Z" style="fill:rgb(3,5,5);fill-rule:nonzero;"/>
        <path d="M691.36,554.38C691.36,554.556 691.216,554.7 691.04,554.7L686.14,554.7C685.964,554.7 685.82,554.556 685.82,554.38L685.82,504.58C685.82,504.404 685.964,504.26 686.14,504.26L691.04,504.26C691.216,504.26 691.36,504.404 691.36,504.58L691.36,554.38Z" style="fill:rgb(3,5,5);fill-rule:nonzero;"/>
        <path d="M622.3,550.17L622.3,554.03L622.24,554.35L622.06,554.62L621.8,554.81L621.48,554.9L620.65,554.95L617.71,555.08L616.66,555.05L615.73,554.95L614.88,554.77L614.15,554.52L613.49,554.19L612.89,553.76L612.42,553.3L612,552.74L611.65,552.12L611.35,551.39L611.2,550.64L611.08,549.38L610.97,545.3L610.94,531.73L611.01,522.27L610.97,522.02L610.82,521.8L610.61,521.65L610.35,521.6L606.76,521.6L606.48,521.54L606.24,521.38L606.08,521.15L606.03,520.87L606.03,517.47L606.08,517.21L606.22,517L606.44,516.86L606.69,516.81L610.48,516.81L610.67,516.77L610.83,516.66L610.94,516.5L610.97,516.31L610.97,506.23L611.01,506.07L611.09,505.94L611.23,505.85L611.38,505.82L615.99,505.82L616.15,505.85L616.29,505.94L616.38,506.08L616.41,506.24L616.41,516.26L616.45,516.45L616.56,516.61L616.72,516.72L616.92,516.76L621.86,516.76L622.03,516.79L622.17,516.89L622.27,517.03L622.3,517.2L622.3,521.08L622.21,521.38L622.02,521.55L621.76,521.62L617.05,521.62L616.81,521.67L616.59,521.81L616.45,522.02L616.4,522.27L616.39,539.65L616.47,544.8L616.59,547.57L616.72,548.22L617.01,548.75L617.32,549.07L617.7,549.32L618.16,549.52L618.7,549.65L619.31,549.73L620.01,549.74L621.64,549.59L621.68,549.59L621.92,549.62L622.12,549.74L622.25,549.94L622.3,550.17Z" style="fill:rgb(3,5,5);fill-rule:nonzero;"/>
        <path d="M739.56,550.3L739.56,554.18L739.5,554.5L739.32,554.77L739.06,554.97L738.74,555.05L737.91,555.1L734.95,555.23L733.9,555.2L732.96,555.1L732.11,554.92L731.37,554.67L730.71,554.34L730.11,553.91L729.64,553.44L729.21,552.88L728.86,552.26L728.56,551.53L728.41,550.78L728.29,549.5L728.18,545.41L728.15,531.78L728.22,522.27L728.17,522.01L728.03,521.79L727.81,521.64L727.55,521.59L723.95,521.59L723.67,521.53L723.43,521.38L723.27,521.14L723.21,520.86L723.21,517.44L723.26,517.19L723.41,516.97L723.62,516.83L723.88,516.78L727.68,516.78L727.87,516.74L728.03,516.63L728.14,516.47L728.18,516.28L728.18,506.15L728.21,505.99L728.3,505.86L728.43,505.77L728.59,505.74L733.22,505.74L733.44,505.8L733.59,505.96L733.64,506.16L733.64,516.23L733.68,516.42L733.79,516.58L733.95,516.69L734.15,516.73L739.12,516.73L739.29,516.76L739.43,516.86L739.53,517L739.56,517.17L739.56,521.07L739.52,521.28L739.4,521.45L739.23,521.57L739.02,521.61L734.29,521.61L734.04,521.66L733.83,521.8L733.68,522.02L733.63,522.27L733.63,539.74L733.7,544.9L733.82,547.69L733.96,548.34L734.25,548.87L734.55,549.19L734.94,549.45L735.4,549.64L735.94,549.78L736.56,549.86L737.26,549.87L738.9,549.72L738.94,549.72L739.18,549.75L739.38,549.87L739.51,550.07L739.56,550.3Z" style="fill:rgb(3,5,5);fill-rule:nonzero;"/>
        <path d="M313.58,507.67L314.62,507.71L315.61,507.81L316.57,507.97L317.48,508.19L318.36,508.48L319.18,508.82L319.97,509.24L320.71,509.71L321.55,510.36L322.31,511.09L323.01,511.93L323.65,512.83L324.22,513.83L324.75,514.94L325.21,516.12L325.61,517.4L325.94,518.75L326.22,520.19L326.45,521.74L326.62,523.39L326.82,527.01L326.84,531.72L326.75,536.43L326.5,540.05L326.31,541.7L326.06,543.25L325.76,544.68L325.4,546.02L324.98,547.3L324.51,548.47L323.97,549.58L323.38,550.57L322.73,551.46L322.01,552.28L321.24,553L320.39,553.65L319.65,554.11L318.85,554.51L318.02,554.84L317.14,555.12L316.23,555.33L315.27,555.47L314.28,555.56L313.24,555.58L312.19,555.54L311.2,555.45L310.24,555.28L309.33,555.06L308.46,554.78L307.63,554.43L306.84,554.02L306.11,553.55L305.27,552.89L304.51,552.16L303.8,551.32L303.17,550.42L302.59,549.42L302.06,548.31L301.61,547.13L301.21,545.85L300.87,544.5L300.59,543.07L300.36,541.51L300.19,539.86L300,536.24L299.97,531.53L300.06,526.82L300.31,523.21L300.51,521.55L300.76,520L301.06,518.57L301.41,517.23L301.83,515.95L302.3,514.78L302.85,513.68L303.44,512.69L304.08,511.79L304.8,510.97L305.57,510.25L306.42,509.6L307.16,509.14L307.96,508.74L308.79,508.41L309.67,508.13L310.58,507.93L311.54,507.78L312.53,507.69L313.58,507.67ZM305.95,531.67L305.95,532.75L305.98,536.74L306.15,539.85L306.48,542.58L306.71,543.79L306.98,544.89L307.31,545.94L307.67,546.87L308.08,547.71L308.55,548.48L309.05,549.13L309.6,549.7L310.2,550.17L310.85,550.55L311.44,550.79L312.07,550.97L312.72,551.07L313.42,551.1L314.11,551.07L314.76,550.96L315.39,550.79L315.98,550.54L316.63,550.16L317.23,549.7L317.78,549.13L318.28,548.48L318.74,547.71L319.15,546.86L319.51,545.93L319.84,544.88L320.1,543.78L320.33,542.57L320.66,539.84L320.82,536.73L320.85,532.73L320.84,531.66L320.84,530.59L320.81,526.59L320.64,523.48L320.31,520.75L320.08,519.55L319.81,518.44L319.48,517.4L319.12,516.46L318.71,515.62L318.24,514.85L317.74,514.2L317.19,513.63L316.59,513.17L315.94,512.79L315.35,512.54L314.72,512.37L314.07,512.27L313.37,512.23L312.68,512.27L312.03,512.37L311.4,512.55L310.81,512.79L310.16,513.17L309.56,513.64L309.01,514.21L308.51,514.86L308.05,515.63L307.64,516.47L307.28,517.4L306.95,518.45L306.69,519.56L306.46,520.76L306.13,523.49L305.97,526.61L305.94,530.6L305.95,531.67Z" style="fill:rgb(3,5,5);fill-rule:nonzero;"/>
        <path d="M104.65,522.13L104.74,519.75L105.03,517.58L105.25,516.57L105.52,515.62L105.83,514.72L106.2,513.88L106.76,512.84L107.38,511.91L108.09,511.07L108.86,510.33L109.78,509.64L110.77,509.07L111.84,508.6L113.03,508.21L114.3,507.92L115.69,507.72L117.23,507.61L118.9,507.59L120.54,507.7L122.12,508.01L123.62,508.5L125.02,509.16L126.29,509.99L127.42,510.97L128.38,512.09L129.16,513.33L129.6,514.29L129.94,515.31L130.28,516.69L130.52,518.05L130.68,519.38L130.74,520.68L130.71,521.95L130.58,523.19L130.36,524.4L130.05,525.59L129.69,526.66L129.24,527.71L128.71,528.73L128.11,529.73L127.42,530.7L126.66,531.65L125.82,532.58L124.9,533.48L119.62,538.28L117.53,540.08L115.82,541.49L115.09,542.12L114.41,542.8L113.76,543.55L113.13,544.39L112.54,545.29L111.96,546.28L110.86,548.55L110.82,548.66L110.83,548.92L110.95,549.15L111.15,549.3L111.4,549.36L130.53,549.36L130.78,549.45L130.9,549.59L130.94,549.77L130.94,554.23L130.89,554.43L130.73,554.59L130.52,554.65L104.87,554.65L104.68,554.61L104.53,554.5L104.42,554.34L104.39,554.15L104.53,552.3L104.8,550.49L105.19,548.79L105.73,547.12L106.49,545.31L107.42,543.56L108.55,541.82L109.87,540.1L111.38,538.41L113.12,536.65L115.2,534.74L118.14,532.17L119.73,530.8L120.59,530L121.37,529.19L122.07,528.35L122.68,527.49L123.21,526.61L123.66,525.71L124.03,524.79L124.32,523.85L124.59,522.41L124.68,520.92L124.59,519.39L124.32,517.81L123.92,516.52L123.35,515.39L122.63,514.43L122.21,514.02L121.75,513.66L120.77,513.1L119.66,512.73L118.46,512.55L117.16,512.57L116.09,512.73L115.16,512.99L114.31,513.38L113.58,513.86L112.99,514.41L112.49,515.03L112.05,515.75L111.67,516.59L111.34,517.53L111.06,518.6L110.52,521.6L110.42,522.2L110.34,522.44L110.18,522.63L109.96,522.76L109.71,522.8L105.33,522.8L105.07,522.75L104.85,522.6L104.7,522.39L104.65,522.13Z" style="fill:rgb(3,5,5);fill-rule:nonzero;"/>
        <path d="M438.16,554.37L438.16,519.98L438.13,519.81L438.03,519.67L437.88,519.57L437.71,519.54L428.87,519.54L428.56,519.47L428.3,519.29L428.14,519.01L428.11,518.7L428.12,518.62L428.24,517.45L428.13,516.24L428.14,515.92L428.27,515.63L428.51,515.42L428.81,515.32L428.87,515.32L430.65,515.23L432.28,515.03L433.72,514.74L435.02,514.34L436.16,513.84L437.14,513.24L437.98,512.51L438.66,511.7L439.09,511L439.43,510.21L439.67,509.37L439.83,508.45L439.91,508.18L440.08,507.97L440.32,507.82L440.59,507.77L443.43,507.77L443.68,507.83L443.93,508.04L444.02,508.36L444.02,554.33L443.92,554.56L443.68,554.66L438.45,554.66L438.24,554.58L438.16,554.37Z" style="fill:rgb(3,5,5);fill-rule:nonzero;"/>
        <path d="M451.87,531.53L451.97,526.82L452.21,523.2L452.41,521.55L452.66,519.99L452.96,518.56L453.32,517.22L453.74,515.94L454.21,514.77L454.76,513.66L455.35,512.67L455.99,511.78L456.72,510.96L457.49,510.24L458.34,509.59L459.08,509.13L459.88,508.73L460.71,508.4L461.59,508.12L462.5,507.91L463.46,507.77L464.45,507.68L465.5,507.66L466.54,507.7L467.53,507.8L468.5,507.96L469.4,508.18L470.28,508.47L471.1,508.82L471.9,509.23L472.63,509.7L473.47,510.36L474.23,511.09L474.94,511.93L475.57,512.83L476.15,513.83L476.68,514.95L477.13,516.12L477.53,517.41L477.87,518.75L478.14,520.19L478.37,521.75L478.54,523.4L478.74,527.02L478.76,531.74L478.66,536.45L478.42,540.07L478.22,541.72L477.97,543.27L477.66,544.71L477.31,546.05L476.89,547.33L476.42,548.5L475.87,549.6L475.28,550.59L474.64,551.49L473.91,552.31L473.14,553.03L472.29,553.68L471.55,554.13L470.75,554.54L469.92,554.87L469.04,555.14L468.13,555.35L467.17,555.5L466.18,555.58L465.13,555.61L464.09,555.57L463.1,555.47L462.13,555.3L461.23,555.08L460.35,554.8L459.53,554.45L458.73,554.03L458,553.56L457.16,552.91L456.4,552.17L455.69,551.34L455.06,550.43L454.48,549.44L453.95,548.32L453.5,547.14L453.1,545.86L452.76,544.51L452.49,543.07L452.26,541.52L452.09,539.86L451.89,536.24L451.87,531.53ZM457.9,530.6L457.9,532.74L457.94,536.73L458.11,539.84L458.45,542.56L458.68,543.77L458.95,544.87L459.27,545.92L459.64,546.85L460.05,547.69L460.52,548.46L461.01,549.11L461.57,549.67L462.16,550.14L462.82,550.52L463.41,550.76L464.04,550.94L464.69,551.04L465.38,551.07L466.08,551.04L466.72,550.93L467.35,550.75L467.94,550.51L468.59,550.13L469.18,549.66L469.74,549.09L470.23,548.44L470.7,547.67L471.11,546.83L471.47,545.9L471.79,544.85L472.05,543.75L472.28,542.54L472.6,539.81L472.77,536.71L472.79,532.71L472.78,531.64L472.78,530.57L472.75,526.58L472.57,523.47L472.24,520.75L472.01,519.55L471.74,518.44L471.41,517.4L471.05,516.47L470.64,515.62L470.17,514.86L469.67,514.21L469.11,513.64L468.52,513.18L467.87,512.8L467.28,512.55L466.64,512.38L466,512.28L465.3,512.24L464.61,512.28L463.96,512.38L463.33,512.56L462.74,512.81L462.09,513.19L461.5,513.65L460.95,514.22L460.45,514.87L459.99,515.64L459.58,516.48L459.22,517.42L458.9,518.46L458.63,519.57L458.41,520.77L458.08,523.5L457.92,526.61L457.9,530.6Z" style="fill:rgb(3,5,5);fill-rule:nonzero;"/>
        <path d="M511.02,531.72L510.93,536.43L510.68,540.04L510.48,541.69L510.23,543.25L509.94,544.68L509.58,546.02L509.16,547.3L508.69,548.47L508.15,549.57L507.56,550.56L506.92,551.46L506.19,552.28L505.42,553L504.58,553.65L503.83,554.1L503.04,554.51L502.21,554.84L501.33,555.12L500.42,555.33L499.46,555.47L498.47,555.56L497.42,555.58L496.38,555.54L495.39,555.45L494.43,555.29L493.52,555.06L492.64,554.78L491.82,554.43L491.03,554.02L490.3,553.55L489.46,552.89L488.7,552.16L487.99,551.33L487.35,550.43L486.78,549.43L486.25,548.32L485.79,547.14L485.39,545.86L485.06,544.51L484.78,543.08L484.55,541.52L484.37,539.87L484.18,536.25L484.15,531.54L484.24,526.83L484.48,523.22L484.68,521.57L484.93,520.02L485.23,518.58L485.58,517.24L486,515.97L486.47,514.8L487.02,513.69L487.61,512.7L488.25,511.81L488.97,510.98L489.74,510.26L490.59,509.62L491.33,509.16L492.13,508.75L492.96,508.42L493.84,508.14L494.75,507.94L495.71,507.79L496.7,507.7L497.74,507.68L498.79,507.72L499.78,507.81L500.74,507.98L501.64,508.2L502.52,508.48L503.34,508.83L504.13,509.24L504.87,509.71L505.71,510.37L506.47,511.1L507.18,511.93L507.81,512.83L508.39,513.83L508.92,514.94L509.37,516.12L509.77,517.4L510.11,518.75L510.39,520.19L510.62,521.74L510.79,523.39L510.99,527.01L511.02,531.72ZM490.11,530.57L490.11,532.71L490.14,536.69L490.3,539.8L490.63,542.52L490.86,543.73L491.13,544.83L491.45,545.88L491.81,546.81L492.22,547.65L492.69,548.42L493.18,549.07L493.74,549.64L494.33,550.1L494.98,550.48L495.57,550.72L496.2,550.9L496.85,551L497.54,551.04L498.23,551L498.88,550.9L499.51,550.72L500.1,550.48L500.75,550.1L501.35,549.63L501.9,549.07L502.4,548.42L502.86,547.65L503.27,546.81L503.63,545.88L503.96,544.83L504.23,543.73L504.45,542.53L504.79,539.8L504.95,536.7L504.98,532.71L504.98,530.57L504.96,526.58L504.79,523.47L504.46,520.75L504.23,519.55L503.97,518.44L503.64,517.4L503.28,516.47L502.87,515.62L502.41,514.86L501.91,514.21L501.36,513.64L500.77,513.17L500.11,512.8L499.53,512.55L498.9,512.38L498.25,512.27L497.56,512.24L496.86,512.27L496.21,512.37L495.58,512.55L494.99,512.8L494.34,513.18L493.75,513.64L493.19,514.21L492.7,514.86L492.23,515.62L491.82,516.47L491.46,517.4L491.14,518.44L490.87,519.55L490.64,520.75L490.31,523.47L490.14,526.58L490.11,530.57Z" style="fill:rgb(3,5,5);fill-rule:nonzero;"/>
        <path d="M142.2,526.83L143.05,526.1L144,525.29L144.44,525.01L144.88,524.81L144.93,524.79L146.25,524.36L147.53,524.05L148.8,523.87L150.02,523.81L151.22,523.87L152.38,524.05L153.5,524.36L154.57,524.79L155.88,525.53L157.07,526.47L158.16,527.61L159.12,528.92L159.93,530.4L160.59,532.03L161.08,533.77L161.42,535.64L161.57,537.05L161.67,538.46L161.69,539.83L161.65,541.18L161.54,542.47L161.36,543.74L161.13,544.94L160.82,546.1L160.46,547.19L160.03,548.24L159.55,549.21L158.99,550.14L158.4,550.97L157.73,551.75L157.02,552.45L156.25,553.09L155.35,553.71L154.37,554.24L153.34,554.68L152.23,555.04L151.09,555.31L149.88,555.49L148.62,555.58L147.29,555.58L146.12,555.51L145.02,555.37L143.96,555.15L142.96,554.87L142.02,554.52L141.14,554.1L140.31,553.61L139.53,553.04L138.62,552.22L137.8,551.28L137.07,550.22L136.44,549.05L135.89,547.77L135.44,546.36L135.09,544.84L134.82,543.21L134.81,543.16L134.86,542.87L135.01,542.63L135.25,542.47L135.53,542.41L140.63,542.44L140.83,542.48L141,542.61L141.1,542.79L141.12,542.99L141.11,543.05L141.09,543.38L141.14,543.91L141.45,545.51L141.79,546.62L142.26,547.62L142.87,548.54L143.59,549.34L144.42,550.01L145.34,550.53L146.32,550.9L147.34,551.1L147.98,551.13L148.62,551.11L149.26,551.01L149.91,550.85L150.54,550.63L151.16,550.34L151.75,549.99L152.32,549.58L153.11,548.81L153.83,547.77L154.44,546.53L154.96,545.07L155.35,543.44L155.61,541.72L155.72,539.94L155.68,538.15L155.5,536.48L155.2,534.94L154.76,533.51L154.21,532.25L153.55,531.16L152.8,530.28L151.93,529.57L151,529.09L150.89,529.05L149.54,528.65L148.25,528.46L147.03,528.49L145.88,528.73L145.25,528.96L144.65,529.26L144.07,529.63L143.51,530.07L142.97,530.58L142.45,531.16L141.48,532.52L141.17,532.82L140.74,532.93L136.79,532.93L136.56,532.88L136.36,532.75L136.23,532.55L136.2,532.31L136.2,532.28L138.68,508.87L138.73,508.71L138.84,508.58L138.98,508.49L139.15,508.46L159.41,508.46L159.59,508.5L159.75,508.6L159.85,508.76L159.89,508.94L159.89,513.36L159.85,513.56L159.73,513.73L159.56,513.85L159.36,513.89L143.92,513.89L143.63,513.94L143.38,514.1L143.2,514.33L143.11,514.62L141.83,526.61L141.91,526.81L142.12,526.86L142.2,526.83Z" style="fill:rgb(3,5,5);fill-rule:nonzero;"/>
        <path d="M275.62,526.64L275.7,526.85L275.91,526.9L275.99,526.86L276.84,526.14L277.79,525.33L278.23,525.06L278.67,524.85L278.72,524.84L280.04,524.41L281.31,524.11L282.58,523.92L283.8,523.87L285,523.93L286.15,524.11L287.28,524.43L288.34,524.86L289.65,525.6L290.84,526.54L291.92,527.68L292.87,528.99L293.67,530.47L294.33,532.1L294.82,533.84L295.15,535.7L295.3,537.12L295.39,538.52L295.41,539.89L295.36,541.24L295.25,542.53L295.07,543.79L294.84,544.98L294.53,546.14L294.17,547.23L293.73,548.28L293.25,549.25L292.69,550.17L292.1,551L291.43,551.78L290.72,552.48L289.95,553.11L289.05,553.72L288.07,554.26L287.04,554.69L285.94,555.05L284.8,555.31L283.58,555.49L282.33,555.57L281,555.57L279.84,555.5L278.73,555.35L277.68,555.14L276.68,554.85L275.74,554.5L274.86,554.08L274.03,553.59L273.26,553.02L272.35,552.2L271.54,551.26L270.81,550.2L270.18,549.03L269.64,547.74L269.2,546.34L268.84,544.83L268.58,543.2L268.58,543.14L268.62,542.86L268.77,542.62L269.01,542.45L269.29,542.4L274.38,542.44L274.59,542.48L274.75,542.61L274.85,542.79L274.87,542.99L274.86,543.05L274.84,543.38L274.88,543.9L275.19,545.51L275.53,546.62L276,547.62L276.6,548.54L277.32,549.33L278.15,550L279.06,550.53L280.04,550.89L281.06,551.1L281.7,551.14L282.34,551.11L282.98,551.02L283.62,550.86L284.25,550.64L284.87,550.35L285.46,550L286.03,549.6L286.82,548.83L287.55,547.8L288.16,546.56L288.68,545.1L289.08,543.48L289.34,541.76L289.45,539.98L289.42,538.19L289.24,536.53L288.94,534.99L288.51,533.56L287.96,532.3L287.3,531.21L286.56,530.33L285.69,529.63L284.76,529.14L284.66,529.1L283.31,528.7L282.02,528.51L280.81,528.53L279.66,528.77L279.03,529L278.43,529.3L277.85,529.67L277.29,530.11L276.75,530.61L276.23,531.19L275.26,532.54L274.94,532.84L274.52,532.95L270.57,532.94L270.34,532.89L270.15,532.76L270.02,532.55L269.98,532.32L269.99,532.29L272.52,508.93L272.57,508.77L272.68,508.64L272.82,508.55L272.99,508.52L293.21,508.57L293.39,508.61L293.55,508.71L293.65,508.87L293.69,509.05L293.68,513.46L293.64,513.67L293.52,513.84L293.35,513.95L293.15,513.99L277.74,513.95L277.45,514.01L277.19,514.16L277.01,514.4L276.93,514.68L275.62,526.64Z" style="fill:rgb(3,5,5);fill-rule:nonzero;"/>
        <path d="M721.03,536.18L720.93,536.4L720.71,536.49L703.5,536.49L703.24,536.59L703.12,536.85L703.03,539.31L703.13,541.72L703.41,543.9L703.88,545.83L704.17,546.68L704.49,547.43L704.85,548.12L705.27,548.75L705.7,549.28L706.19,549.74L706.7,550.12L707.26,550.42L707.77,550.62L708.42,550.79L709.06,550.88L709.68,550.89L710.28,550.81L711.19,550.54L712.06,550.07L712.92,549.39L713.62,548.59L713.94,548.09L714.21,547.57L714.61,546.38L714.85,544.97L714.99,543.07L715.1,542.62L715.37,542.24L715.75,541.99L716.21,541.9L719.78,541.9L720.19,541.98L720.54,542.22L720.76,542.58L720.82,543L720.82,543.05L720.5,544.97L719.91,547.16L719.51,548.32L719.05,549.39L718.54,550.38L717.97,551.28L717.35,552.1L716.68,552.84L715.95,553.49L715.16,554.05L714.4,554.49L713.59,554.86L712.74,555.17L711.84,555.4L710.9,555.56L709.91,555.65L708.88,555.67L707.8,555.62L706.73,555.48L705.73,555.25L704.77,554.92L703.88,554.49L702.8,553.79L701.79,552.91L700.9,551.89L700.09,550.69L699.39,549.35L698.78,547.84L698.26,546.17L697.84,544.35L697.52,542.33L697.31,540.19L697.21,537.9L697.22,535.53L697.35,533.03L697.59,530.54L697.93,528.09L698.36,525.86L698.71,524.49L699.13,523.22L699.63,522.05L700.19,520.98L700.82,520.01L701.52,519.14L702.3,518.37L703.14,517.7L704.35,516.98L705.69,516.43L707.14,516.05L708.71,515.84L709.69,515.8L710.62,515.82L711.52,515.9L712.37,516.05L713.19,516.26L713.95,516.52L714.69,516.86L715.37,517.25L716.14,517.8L716.84,518.42L717.49,519.14L718.07,519.92L718.62,520.81L719.1,521.77L719.53,522.8L719.91,523.94L720.23,525.14L720.5,526.43L720.72,527.83L720.89,529.3L721.06,532.51L721.03,536.18ZM703.58,531.67L714.56,531.88L714.63,531.88L714.91,531.73L715.02,531.44L715.06,529.42L714.98,527.72L714.68,526.07L714.18,524.56L713.86,523.86L713.49,523.22L713.08,522.64L712.64,522.12L712.16,521.67L711.66,521.29L711.13,520.99L710.59,520.77L710.03,520.64L709.47,520.58L709.11,520.58L708.54,520.61L707.98,520.72L707.43,520.92L706.89,521.2L706.37,521.56L705.88,521.99L705.42,522.49L704.99,523.06L704.59,523.68L704.24,524.36L703.68,525.86L703.32,527.49L703.18,529.2L703.14,531.22L703.2,531.45L703.36,531.61L703.58,531.67Z" style="fill:rgb(3,5,5);fill-rule:nonzero;"/>
        <path d="M642.64,551.06L641.97,551.92L641.28,552.68L640.57,553.37L639.84,553.96L639.09,554.47L638.31,554.89L637.52,555.22L636.7,555.47L635.49,555.67L634.52,555.72L633.57,555.69L632.66,555.57L631.78,555.38L630.94,555.1L630.15,554.74L629.4,554.3L628.71,553.78L627.81,552.88L627.04,551.81L626.44,550.62L625.99,549.28L625.6,547.41L625.39,545.56L625.37,543.78L625.54,542.09L625.89,540.52L626.42,539.07L627.14,537.75L628.03,536.58L628.93,535.69L629.79,535.09L630.96,534.49L632.45,533.89L634.26,533.29L635.36,532.97L637.17,532.44L638.5,531.99L639.64,531.51L640.6,531L641.4,530.44L642.02,529.85L642.48,529.19L642.75,528.51L642.82,528.08L642.89,527.04L642.89,526.09L642.82,525.21L642.68,524.42L642.46,523.7L642.16,523.07L641.8,522.51L641.36,522.04L640.96,521.72L640.51,521.45L639.81,521.12L639.13,520.87L638.45,520.69L637.78,520.59L637.14,520.57L636.53,520.61L635.92,520.74L635.34,520.94L634.53,521.38L633.81,521.98L633.17,522.74L632.65,523.64L632.26,524.63L632,525.73L631.88,526.89L631.89,528.12L631.82,528.33L631.63,528.42L626.4,528.42L626.21,528.33L626.14,528.13L626.32,526.14L626.54,524.56L626.82,523.16L627.18,521.92L627.63,520.81L628.16,519.83L628.8,518.95L629.53,518.21L630.24,517.66L631.06,517.18L631.94,516.8L632.93,516.49L634.13,516.22L635.31,516.03L636.47,515.91L637.61,515.86L638.74,515.89L639.84,515.99L640.92,516.16L641.98,516.41L643.05,516.75L644.11,517.16L644.82,517.54L645.61,518.13L646.31,518.89L646.9,519.76L647.39,520.79L647.77,521.94L648.03,523.21L648.19,524.58L648.22,526.01L648.17,534.62L648.27,549.27L648.3,549.56L648.39,549.83L648.54,550.08L648.73,550.29L648.96,550.45L649.22,550.56L649.49,550.6L649.77,550.58L650,550.51L650.27,550.46L650.59,550.52L650.79,550.61L650.94,550.77L651.05,550.96L651.08,551.18L651.08,554.22L651.03,554.48L650.89,554.7L650.68,554.86L650.43,554.94L650.29,554.96L647.97,555.15L647.12,555.14L646.36,555.07L645.68,554.93L645.1,554.72L644.61,554.43L644.18,554.06L643.8,553.54L643.53,552.9L643.37,552.16L643.33,551.29L643.26,551.06L643.07,550.92L642.83,550.92L642.64,551.06ZM642.26,534.74L641.45,535.33L640.5,535.85L639.37,536.34L637.74,536.92L635.68,537.68L634.3,538.36L633.69,538.75L633.18,539.16L632.73,539.61L632.32,540.11L631.78,541.06L631.42,542.14L631.21,543.39L631.18,544.78L631.27,545.85L631.45,546.86L631.73,547.8L632.11,548.64L632.57,549.37L633.11,549.98L633.71,550.45L634.39,550.78L634.88,550.93L635.41,551L635.93,551.01L636.48,550.95L637.06,550.81L637.66,550.61L638.88,550L639.76,549.41L640.49,548.8L641.12,548.13L641.62,547.43L641.93,546.85L642.18,546.24L642.54,544.87L642.72,543.26L642.79,540.85L642.8,540.37L642.89,534.93L642.81,534.78L642.67,534.68L642.5,534.65L642.33,534.69L642.26,534.74Z" style="fill:rgb(3,5,5);fill-rule:nonzero;"/>
        <path d="M764.06,527.83L763.96,528.05L763.73,528.14L758.73,528.14L758.48,528.04L758.39,527.79L758.41,526.62L758.35,525.54L758.21,524.56L757.99,523.69L757.7,522.93L757.33,522.28L756.88,521.73L756.36,521.29L755.89,521.01L755.37,520.81L754.8,520.67L754.18,520.61L753.52,520.61L752.82,520.69L751.27,521.05L750.42,521.43L749.71,521.98L749.1,522.71L748.65,523.58L748.34,524.59L748.19,525.72L748.22,526.85L748.42,527.93L748.79,528.91L749.12,529.43L749.58,529.91L750.17,530.37L750.93,530.84L751.82,531.28L752.88,531.73L755.94,532.83L757.46,533.35L758.44,533.73L759.37,534.15L760.21,534.61L760.98,535.11L761.67,535.65L762.3,536.23L762.85,536.85L763.34,537.52L763.88,538.46L764.31,539.51L764.61,540.62L764.8,541.84L764.9,543.56L764.85,545.23L764.64,546.81L764.28,548.31L763.78,549.67L763.12,550.92L762.33,552.03L761.39,553.02L760.35,553.84L759.15,554.54L757.86,555.07L756.42,555.46L754.65,555.7L752.78,555.72L750.94,555.49L750.06,555.3L749.2,555.04L748.4,554.74L747.63,554.39L746.92,553.99L746.25,553.54L745.65,553.05L745.1,552.52L744.61,551.95L744.17,551.34L743.87,550.86L743.4,549.96L742.99,549.02L742.66,548.04L742.39,547.02L742.2,545.96L742.08,544.85L742.03,543.71L742.05,542.52L742.1,542.29L742.24,542.1L742.44,541.97L742.67,541.93L747.01,541.93L747.23,541.97L747.43,542.1L747.56,542.29L747.61,542.51L747.68,543.9L747.84,545.16L748.08,546.3L748.4,547.31L748.8,548.2L749.28,548.96L749.84,549.6L750.49,550.11L751.35,550.54L752.31,550.81L753.38,550.9L754.57,550.83L755.42,550.67L756.19,550.41L756.87,550.06L757.47,549.62L758.11,548.93L758.63,548.1L759.01,547.12L759.27,546L759.39,544.79L759.34,543.67L759.11,542.64L758.72,541.71L758.19,540.93L757.51,540.22L756.68,539.6L755.7,539.06L754.09,538.35L751.9,537.48L748.94,536.26L747.89,535.75L746.97,535.23L746.15,534.67L745.44,534.08L744.8,533.42L744.26,532.74L743.88,532.13L743.54,531.46L743.27,530.76L743.04,530L742.75,528.35L742.66,526.5L742.71,525.32L742.84,524.2L743.07,523.12L743.37,522.11L743.76,521.17L744.24,520.3L744.79,519.51L745.41,518.8L746.13,518.14L746.91,517.57L747.77,517.08L748.7,516.68L749.69,516.35L750.75,516.11L751.87,515.95L753.05,515.88L754.33,515.9L755.53,516L756.67,516.2L757.74,516.49L758.74,516.88L759.65,517.35L760.48,517.91L761.22,518.55L761.96,519.38L762.59,520.31L763.12,521.34L763.53,522.46L763.83,523.67L764.02,524.97L764.1,526.36L764.06,527.83Z" style="fill:rgb(3,5,5);fill-rule:nonzero;"/>
        <path d="M179.57,522.4L180.44,521.32L180.54,521.19L181.01,520.67L181.52,520.2L182.08,519.77L182.69,519.39L183.34,519.04L184.03,518.76L185.52,518.33L187.12,518.12L188.78,518.14L190.4,518.39L191.91,518.85L192.36,519.06L192.8,519.36L193.24,519.73L193.67,520.18L194.5,521.32L195.31,522.77L195.41,522.89L195.55,522.96L195.71,522.95L195.84,522.88L195.9,522.82L197.04,521.39L197.65,520.77L198.28,520.22L198.93,519.73L199.6,519.3L200.3,518.94L201.03,518.64L202.41,518.25L203.88,518.08L205.42,518.13L207.04,518.39L207.86,518.62L208.64,518.93L209.59,519.46L210.45,520.11L211.23,520.88L211.89,521.75L212.42,522.7L212.81,523.71L213.06,524.75L213.16,525.82L213.28,537.01L213.24,554.16L213.2,554.36L213.09,554.52L212.92,554.63L212.73,554.67L207.98,554.67L207.78,554.63L207.61,554.51L207.5,554.34L207.46,554.14L207.54,539.26L207.48,528.79L207.43,527.88L207.3,527.03L207.08,526.24L206.79,525.53L206.43,524.89L205.99,524.33L205.5,523.88L204.94,523.51L204.37,523.25L203.75,523.09L203.09,523.01L202.4,523.03L201.69,523.15L200.95,523.36L200.23,523.65L199.48,524.04L198.61,524.64L197.91,525.34L197.54,525.84L197.23,526.37L196.96,526.96L196.75,527.59L196.47,529.02L196.38,530.68L196.42,554.17L196.38,554.36L196.28,554.52L196.12,554.62L195.93,554.66L191.05,554.66L190.85,554.62L190.68,554.5L190.56,554.33L190.52,554.12L190.6,538.12L190.51,528.55L190.45,527.73L190.34,526.98L190.15,526.27L189.91,525.64L189.6,525.05L189.24,524.54L188.8,524.09L188.32,523.72L187.87,523.46L187.38,523.26L186.85,523.11L186.29,523.04L185.72,523.02L185.14,523.08L183.99,523.36L182.88,523.88L181.85,524.61L180.97,525.53L180.28,526.57L180,527.14L179.78,527.76L179.5,529.02L179.43,530.5L179.43,533.42L179.47,554.19L179.43,554.36L179.33,554.51L179.18,554.61L179.01,554.64L174.13,554.64L173.93,554.6L173.74,554.43L173.67,554.18L173.67,519.82L173.74,519.49L173.92,519.22L174.2,519.03L174.53,518.97L178.53,518.97L178.75,519.01L178.93,519.13L179.06,519.32L179.1,519.53L179.1,522.22L179.13,522.35L179.22,522.45L179.35,522.49L179.48,522.47L179.57,522.4Z" style="fill:rgb(3,5,5);fill-rule:nonzero;"/>
        <path d="M237.45,551.44L237.42,551.31L237.33,551.18L237.18,551.11L237.02,551.12L236.88,551.21L235.58,552.41L234.24,553.37L233.54,553.75L232.83,554.07L232.11,554.32L231.38,554.51L230.38,554.67L229.36,554.71L228.32,554.64L227.25,554.47L225.81,554.04L225.13,553.74L224.48,553.4L223.54,552.77L222.7,552.03L221.91,551.17L221.22,550.21L220.59,549.13L220.02,547.92L219.54,546.62L219.13,545.2L218.79,543.66L218.54,542.02L218.36,540.26L218.27,538.44L218.26,536.52L218.34,534.58L218.51,532.61L218.75,530.7L219.13,528.63L219.61,526.72L220.2,525.03L220.9,523.5L221.71,522.17L222.63,521.03L223.64,520.08L224.76,519.32L225.45,518.96L226.18,518.67L226.94,518.43L227.74,518.26L229.42,518.08L230.99,518.13L231.73,518.24L232.44,518.42L233.12,518.65L233.77,518.94L234.79,519.56L235.72,520.35L236.57,521.3L237.34,522.42L237.53,522.53L237.72,522.42L237.75,522.31L237.76,519.72L237.81,519.43L237.98,519.18L238.23,519.02L238.52,518.96L242.3,518.96L242.64,519.03L242.92,519.22L243.12,519.51L243.18,519.85L243.16,554.59L243.01,555.76L242.56,558.04L242.33,559.03L242.04,559.96L241.69,560.83L241.3,561.64L240.86,562.39L240.36,563.08L239.81,563.71L239.21,564.29L238.28,565L237.24,565.59L236.09,566.06L234.84,566.41L232.86,566.77L230.96,566.92L229.1,566.89L227.38,566.66L225.79,566.24L224.36,565.64L223.69,565.26L223.06,564.84L222.48,564.38L221.94,563.87L221.44,563.31L220.98,562.71L220.57,562.07L220.21,561.38L219.89,560.65L219.62,559.87L219.23,558.21L219.23,558.18L219.32,557.93L219.57,557.82L224.61,557.83L224.9,557.93L225.05,558.2L225.18,558.81L225.38,559.37L225.65,559.91L225.97,560.39L226.32,560.79L226.71,561.14L227.15,561.46L227.63,561.73L228.69,562.14L229.89,562.36L231.19,562.38L232.48,562.2L233.71,561.82L234.81,561.27L235.3,560.92L235.73,560.53L236.2,559.96L236.58,559.33L236.89,558.62L237.12,557.8L237.29,556.9L237.39,555.9L237.44,553.17L237.45,551.44ZM224.33,536.49L224.4,539.13L224.57,541.3L224.86,543.19L225.29,544.85L225.84,546.27L226.17,546.88L226.54,547.45L226.92,547.94L227.36,548.38L227.81,548.75L228.31,549.06L228.93,549.35L229.61,549.56L230.33,549.68L231.11,549.72L231.88,549.67L232.6,549.54L233.28,549.32L233.89,549.02L234.38,548.7L234.83,548.32L235.26,547.88L235.64,547.38L236,546.81L236.32,546.19L236.85,544.76L237.25,543.09L237.51,541.2L237.65,539.02L237.68,536.39L237.61,533.76L237.44,531.59L237.14,529.7L236.72,528.04L236.17,526.62L235.84,526L235.47,525.43L235.08,524.95L234.65,524.51L234.2,524.14L233.7,523.82L233.08,523.54L232.39,523.33L231.68,523.21L230.9,523.17L230.12,523.22L229.41,523.35L228.73,523.57L228.11,523.87L227.62,524.19L227.17,524.56L226.75,525.01L226.37,525.5L226.01,526.08L225.69,526.7L225.16,528.13L224.76,529.79L224.5,531.69L224.36,533.86L224.33,536.49Z" style="fill:rgb(3,5,5);fill-rule:nonzero;"/>
        <path d="M341.85,522.25L341.89,522.38L341.98,522.48L342.1,522.52L342.23,522.5L342.32,522.43L343.19,521.35L343.29,521.22L343.76,520.7L344.27,520.23L344.83,519.79L345.44,519.41L346.09,519.07L346.78,518.78L348.27,518.35L349.87,518.14L351.53,518.16L353.15,518.4L354.66,518.86L355.11,519.07L355.55,519.37L355.99,519.74L356.42,520.19L357.25,521.32L358.07,522.78L358.16,522.9L358.31,522.96L358.46,522.96L358.6,522.89L358.66,522.83L359.8,521.39L360.4,520.78L361.03,520.22L361.68,519.73L362.36,519.3L363.05,518.94L363.78,518.63L365.16,518.25L366.63,518.08L368.17,518.12L369.79,518.38L370.61,518.61L371.39,518.92L372.34,519.45L373.2,520.09L373.98,520.86L374.64,521.73L375.17,522.68L375.57,523.7L375.82,524.73L375.92,525.8L376.05,536.99L376.04,554.14L376,554.34L375.88,554.51L375.72,554.62L375.53,554.66L370.77,554.66L370.57,554.62L370.4,554.5L370.29,554.33L370.26,554.13L370.32,539.25L370.24,528.78L370.19,527.87L370.06,527.03L369.84,526.23L369.55,525.52L369.18,524.88L368.75,524.33L368.25,523.87L367.7,523.5L367.12,523.25L366.51,523.08L365.85,523.01L365.16,523.03L364.45,523.15L363.71,523.36L362.98,523.65L362.24,524.04L361.37,524.64L360.67,525.34L360.3,525.84L359.99,526.37L359.72,526.96L359.51,527.59L359.23,529.03L359.15,530.69L359.22,554.18L359.18,554.36L359.07,554.52L358.91,554.63L358.73,554.67L353.85,554.67L353.64,554.63L353.47,554.52L353.36,554.34L353.32,554.13L353.38,538.14L353.27,528.56L353.22,527.74L353.1,526.99L352.91,526.29L352.67,525.66L352.36,525.07L351.99,524.56L351.56,524.1L351.08,523.73L350.62,523.47L350.14,523.28L349.6,523.13L349.05,523.06L348.48,523.04L347.9,523.1L346.74,523.38L345.63,523.9L344.61,524.64L343.73,525.55L343.04,526.59L342.76,527.17L342.54,527.78L342.26,529.05L342.2,530.53L342.2,533.45L342.26,554.22L342.23,554.39L342.13,554.54L341.98,554.63L341.81,554.67L336.93,554.68L336.75,554.64L336.6,554.54L336.5,554.39L336.46,554.22L336.42,519.85L336.49,519.53L336.67,519.25L336.95,519.07L337.28,519L341.28,519L341.5,519.04L341.68,519.16L341.81,519.34L341.85,519.56L341.85,522.25Z" style="fill:rgb(3,5,5);fill-rule:nonzero;"/>
        <path d="M526.36,522.21L526.39,522.34L526.48,522.44L526.61,522.49L526.74,522.46L526.83,522.39L527.7,521.31L527.8,521.19L528.27,520.67L528.78,520.2L529.34,519.76L529.95,519.38L530.61,519.04L531.29,518.75L532.79,518.33L534.38,518.12L536.04,518.14L537.66,518.39L539.17,518.85L539.62,519.06L540.06,519.36L540.5,519.73L540.93,520.18L541.76,521.32L542.57,522.77L542.67,522.89L542.81,522.96L542.97,522.95L543.11,522.88L543.16,522.82L544.3,521.39L544.91,520.77L545.54,520.22L546.19,519.73L546.87,519.3L547.57,518.94L548.29,518.64L549.68,518.25L551.14,518.09L552.69,518.13L554.31,518.39L555.13,518.62L555.91,518.94L556.86,519.46L557.72,520.11L558.49,520.89L559.15,521.76L559.68,522.71L560.08,523.72L560.32,524.76L560.43,525.83L560.54,537.02L560.49,554.18L560.45,554.37L560.34,554.54L560.18,554.65L559.98,554.68L555.23,554.68L555.03,554.64L554.86,554.53L554.75,554.35L554.71,554.15L554.8,539.27L554.74,528.8L554.69,527.88L554.56,527.04L554.34,526.25L554.06,525.53L553.69,524.89L553.26,524.34L552.76,523.88L552.21,523.52L551.63,523.26L551.01,523.09L550.36,523.02L549.67,523.04L548.96,523.15L548.22,523.36L547.49,523.66L546.74,524.04L545.88,524.64L545.18,525.34L544.81,525.84L544.49,526.37L544.22,526.96L544.01,527.59L543.73,529.02L543.64,530.68L543.67,554.18L543.63,554.37L543.53,554.52L543.37,554.63L543.18,554.67L538.3,554.67L538.1,554.62L537.92,554.51L537.81,554.33L537.77,554.13L537.86,538.12L537.77,528.55L537.71,527.73L537.6,526.98L537.41,526.27L537.17,525.64L536.86,525.05L536.5,524.54L536.06,524.09L535.58,523.72L535.13,523.46L534.64,523.26L534.11,523.11L533.55,523.03L532.98,523.02L532.4,523.07L531.24,523.36L530.14,523.88L529.11,524.61L528.23,525.52L527.54,526.56L527.26,527.14L527.03,527.75L526.76,529.02L526.69,530.5L526.68,533.42L526.72,554.19L526.68,554.36L526.58,554.51L526.43,554.61L526.26,554.64L521.37,554.64L521.2,554.6L521.05,554.5L520.95,554.35L520.91,554.18L520.93,519.81L520.99,519.49L521.18,519.21L521.46,519.03L521.79,518.96L525.79,518.96L526.01,519.01L526.19,519.13L526.32,519.31L526.36,519.52L526.36,522.21Z" style="fill:rgb(3,5,5);fill-rule:nonzero;"/>
        <path d="M584.14,551.2L582.85,552.41L581.5,553.36L580.81,553.74L580.1,554.06L579.38,554.32L578.65,554.51L577.65,554.66L576.64,554.71L575.6,554.65L574.53,554.47L573.09,554.05L572.4,553.75L571.76,553.4L570.82,552.78L569.98,552.04L569.19,551.18L568.49,550.23L567.86,549.15L567.29,547.94L566.81,546.64L566.4,545.23L566.06,543.69L565.8,542.05L565.63,540.3L565.53,538.47L565.52,536.56L565.6,534.61L565.76,532.64L566,530.74L566.37,528.67L566.86,526.77L567.44,525.07L568.14,523.55L568.94,522.22L569.86,521.07L570.87,520.12L571.98,519.36L572.67,519.01L573.41,518.71L574.16,518.47L574.96,518.3L576.64,518.11L578.21,518.16L578.95,518.28L579.65,518.45L580.33,518.68L580.98,518.97L582,519.59L582.94,520.37L583.79,521.32L584.56,522.44L584.75,522.55L584.94,522.44L584.97,522.33L584.97,519.74L585.03,519.45L585.19,519.2L585.44,519.04L585.73,518.98L589.51,518.98L589.78,519.02L590.02,519.14L590.29,519.46L590.39,519.86L590.42,554.57L590.27,555.74L589.83,558.02L589.59,559.01L589.31,559.94L588.97,560.8L588.57,561.61L588.13,562.36L587.64,563.06L587.09,563.69L586.49,564.26L585.56,564.97L584.52,565.56L583.38,566.04L582.13,566.39L580.15,566.75L578.25,566.91L576.4,566.88L574.68,566.65L573.08,566.23L571.65,565.63L570.98,565.26L570.35,564.83L569.78,564.38L569.24,563.87L568.74,563.32L568.27,562.71L567.87,562.07L567.51,561.39L567.19,560.66L566.91,559.88L566.52,558.22L566.52,558.19L566.61,557.94L566.86,557.83L571.89,557.83L572.18,557.94L572.33,558.2L572.47,558.81L572.67,559.38L572.94,559.91L573.26,560.39L573.61,560.79L573.99,561.14L574.44,561.46L574.92,561.73L575.98,562.13L577.18,562.35L578.48,562.37L579.77,562.18L580.99,561.81L582.09,561.25L582.58,560.9L583,560.52L583.48,559.94L583.86,559.31L584.16,558.6L584.4,557.78L584.56,556.89L584.66,555.88L584.71,553.15L584.71,551.43L584.68,551.3L584.59,551.17L584.44,551.1L584.28,551.11L584.14,551.2ZM571.56,536.52L571.63,539.15L571.81,541.33L572.11,543.22L572.53,544.88L573.09,546.3L573.42,546.92L573.79,547.49L574.18,547.98L574.62,548.42L575.07,548.78L575.57,549.1L576.19,549.39L576.88,549.59L577.6,549.71L578.38,549.75L579.15,549.7L579.87,549.57L580.55,549.34L581.17,549.04L581.66,548.72L582.11,548.34L582.53,547.9L582.91,547.4L583.27,546.82L583.59,546.2L584.12,544.77L584.51,543.1L584.77,541.2L584.91,539.02L584.93,536.39L584.86,533.75L584.68,531.57L584.38,529.68L583.96,528.02L583.4,526.6L583.07,525.99L582.7,525.42L582.31,524.93L581.87,524.49L581.42,524.12L580.92,523.81L580.3,523.52L579.61,523.31L578.9,523.19L578.12,523.15L577.34,523.21L576.62,523.34L575.94,523.56L575.33,523.86L574.83,524.18L574.39,524.56L573.96,525.01L573.58,525.5L573.22,526.08L572.9,526.7L572.37,528.13L571.98,529.8L571.72,531.7L571.58,533.88L571.56,536.52Z" style="fill:rgb(3,5,5);fill-rule:nonzero;"/>
        <path d="M400.21,551.44L400.18,551.31L400.09,551.18L399.94,551.11L399.78,551.12L399.64,551.21L398.35,552.42L397,553.37L396.31,553.75L395.6,554.07L394.88,554.32L394.14,554.52L393.15,554.67L392.13,554.72L391.09,554.65L390.03,554.48L388.59,554.05L387.9,553.75L387.25,553.41L386.32,552.78L385.47,552.05L384.69,551.18L383.99,550.23L383.36,549.15L382.79,547.94L382.31,546.64L381.9,545.23L381.56,543.68L381.3,542.05L381.13,540.29L381.03,538.47L381.03,536.56L381.1,534.61L381.27,532.64L381.51,530.74L381.88,528.66L382.37,526.76L382.95,525.07L383.65,523.54L384.46,522.22L385.37,521.07L386.39,520.12L387.5,519.36L388.19,519L388.92,518.71L389.68,518.47L390.48,518.3L392.16,518.11L393.73,518.16L394.46,518.28L395.17,518.45L395.85,518.68L396.5,518.97L397.52,519.59L398.45,520.38L399.31,521.33L400.08,522.45L400.27,522.55L400.46,522.44L400.49,522.34L400.49,519.75L400.54,519.48L400.68,519.24L400.94,519.05L401.25,518.99L405.03,518.99L405.37,519.06L405.65,519.25L405.84,519.53L405.91,519.87L405.92,554.59L405.77,555.76L405.33,558.04L405.09,559.02L404.8,559.95L404.46,560.82L404.07,561.63L403.63,562.38L403.13,563.07L402.58,563.7L401.99,564.28L401.05,564.99L400.01,565.58L398.87,566.05L397.62,566.4L395.64,566.76L393.74,566.92L391.88,566.89L390.17,566.66L388.57,566.24L387.14,565.64L386.47,565.27L385.84,564.84L385.27,564.39L384.73,563.88L384.22,563.32L383.76,562.71L383.36,562.08L383,561.39L382.68,560.66L382.4,559.88L382.01,558.22L382.01,558.2L382.1,557.94L382.35,557.83L387.38,557.84L387.67,557.94L387.82,558.21L387.96,558.82L388.16,559.38L388.43,559.92L388.75,560.4L389.1,560.79L389.48,561.14L389.93,561.47L390.41,561.74L391.47,562.14L392.67,562.36L393.97,562.38L395.26,562.19L396.48,561.82L397.58,561.26L398.07,560.92L398.5,560.53L398.97,559.95L399.35,559.32L399.65,558.61L399.89,557.8L400.06,556.9L400.16,555.89L400.2,553.17L400.21,551.44ZM387.06,536.5L387.14,539.14L387.33,541.31L387.63,543.21L388.06,544.86L388.63,546.28L388.96,546.9L389.33,547.47L389.72,547.95L390.16,548.39L390.62,548.76L391.12,549.07L391.74,549.36L392.43,549.56L393.14,549.68L393.92,549.71L394.7,549.66L395.42,549.52L396.09,549.3L396.71,549L397.2,548.67L397.65,548.29L398.07,547.84L398.45,547.34L398.81,546.77L399.12,546.14L399.65,544.71L400.04,543.04L400.29,541.14L400.42,538.96L400.43,536.32L400.35,533.69L400.16,531.51L399.86,529.62L399.43,527.96L398.86,526.54L398.53,525.93L398.16,525.36L397.77,524.87L397.33,524.43L396.87,524.07L396.37,523.76L395.75,523.47L395.06,523.26L394.35,523.15L393.57,523.11L392.79,523.17L392.07,523.3L391.4,523.53L390.78,523.83L390.29,524.16L389.84,524.53L389.42,524.98L389.04,525.48L388.68,526.06L388.37,526.68L387.84,528.12L387.45,529.79L387.2,531.68L387.07,533.86L387.06,536.5Z" style="fill:rgb(3,5,5);fill-rule:nonzero;"/>
        <path d="M255.42,547.76L255.46,549.81L255.5,552.86L255.45,555.03L255.29,556.9L255.02,558.54L254.61,560.02L254.06,561.33L253.37,562.44L252.53,563.38L251.83,563.97L251.02,564.48L250.14,564.91L249.16,565.26L249.09,565.28L248.89,565.26L248.71,565.16L248.58,565L248.54,564.8L248.54,562.5L248.57,562.24L248.67,562.01L248.83,561.8L249.04,561.64L249.57,561.3L250.04,560.92L250.46,560.5L250.82,560.04L251.34,559.1L251.68,558.02L251.82,556.81L251.78,555.47L251.72,555.25L251.6,555.05L251.42,554.89L251.21,554.8L250.56,554.72L249.81,554.78L249.72,554.79L249.3,554.74L248.93,554.52L248.68,554.17L248.59,553.75L248.59,547.88L248.65,547.58L248.82,547.33L249.08,547.16L249.38,547.1L254.75,547.1L255,547.15L255.22,547.29L255.37,547.51L255.42,547.76Z" style="fill:rgb(3,5,5);fill-rule:nonzero;"/>
        <path d="M417.99,548.32L418.24,548.36L418.46,548.5L418.61,548.71L418.66,548.96L418.72,550.99L418.8,554.1L418.76,556.32L418.61,558.22L418.33,559.88L417.9,561.38L417.31,562.69L416.56,563.8L415.66,564.73L415.02,565.23L414.29,565.66L413.52,566.03L412.66,566.34L412.59,566.35L412.39,566.34L412.21,566.25L412.09,566.09L412.04,565.89L412.02,563.62L412.05,563.36L412.14,563.12L412.3,562.92L412.5,562.76L413.02,562.42L413.48,562.04L413.89,561.62L414.24,561.16L414.75,560.22L415.07,559.15L415.2,557.95L415.15,556.63L415.09,556.41L414.96,556.21L414.79,556.06L414.57,555.97L413.93,555.89L413.19,555.97L413.1,555.98L412.68,555.93L412.31,555.72L412.06,555.37L411.97,554.96L411.91,549.15L411.96,548.86L412.13,548.61L412.38,548.44L412.68,548.37L417.99,548.32Z" style="fill:rgb(3,5,5);fill-rule:nonzero;"/>
        <path d="M679.42,215.11L691.58,210.83L696.16,209.13L699.73,207.73L703.72,206.05L707.7,204.29L711.61,202.46L715.49,200.54L719.29,198.57L723.05,196.52L726.73,194.41L730.36,192.23L733.9,190L737.38,187.7L740.77,185.35L744.1,182.93L747.32,180.48L750.47,177.95L753.53,175.4L756.51,172.77L758.94,170.51L761.31,168.17L763.56,165.8L765.71,163.38L767.71,160.97L769.58,158.55L771.29,156.15L772.86,153.75L774.26,151.4L775.51,149.06L776.59,146.76L777.52,144.5L778.29,142.26L778.89,140.08L779.34,137.9L779.62,135.79L779.75,133.43L779.68,131.1L779.41,128.84L778.94,126.61L778.27,124.41L777.39,122.26L776.32,120.18L775.05,118.16L773.58,116.2L771.92,114.31L770.07,112.49L768.02,110.74L765.78,109.06L763.38,107.47L760.79,105.97L758.06,104.58L755.19,103.3L752.22,102.14L749.14,101.11L746.02,100.23L742.06,99.29L738,98.48L733.84,97.81L729.57,97.28L725.21,96.88L720.74,96.61L716.17,96.48L711.5,96.48L705.54,96.67L699.56,97.06L693.56,97.66L687.55,98.46L681.52,99.46L675.48,100.66L669.42,102.06L663.34,103.67L656.15,105.78L649.11,108.02L642.22,110.41L635.46,112.93L628.85,115.59L622.39,118.39L616.07,121.33L609.89,124.41L605.85,126.53L602.01,128.64L598.36,130.74L594.87,132.84L591.53,134.96L588.31,137.1L585.25,139.26L582.3,141.45L579.47,143.68L576.74,145.95L574.11,148.29L571.59,150.66L569.16,153.08L566.85,155.55L564.6,158.1L562.46,160.69L560.88,162.77L559.4,164.93L558.04,167.15L556.81,169.4L555.71,171.68L554.76,173.96L553.94,176.27L553.27,178.57L552.75,180.87L552.38,183.12L552.15,185.39L552.07,187.62L552.14,189.83L552.35,191.98L552.72,194.14L553.23,196.23L554.01,198.62L554.67,200.19L555.47,201.75L556.39,203.25L557.46,204.72L558.64,206.15L559.97,207.54L561.44,208.91L563.04,210.24L564.77,211.52L566.62,212.77L568.63,214L570.77,215.19L573.06,216.36L575.5,217.5L578.12,218.64L580.99,219.8L581.15,219.95L581.17,220.18L581.16,220.19L581.05,220.33L580.87,220.36L578.14,219.68L575.43,218.89L572.78,218.01L570.17,217.03L567.64,215.95L565.16,214.78L562.77,213.53L560.44,212.18L558.21,210.76L556.05,209.24L553.99,207.66L552.01,205.99L550.16,204.27L548.38,202.46L546.72,200.59L545.15,198.64L543.73,196.64L542.48,194.56L541.42,192.44L540.53,190.24L539.88,188.19L539.37,186.07L539.01,183.92L538.8,181.7L538.73,179.44L538.82,177.11L539.05,174.76L539.43,172.36L539.96,169.9L540.63,167.4L541.46,164.84L542.43,162.24L543.55,159.61L544.81,156.95L546.22,154.24L547.76,151.51L549.46,148.73L551.19,146.12L552.96,143.68L554.77,141.4L557.76,137.91L560.81,134.56L563.92,131.33L567.09,128.23L570.33,125.27L573.63,122.43L576.99,119.73L580.42,117.15L583.11,115.23L585.84,113.36L588.64,111.52L591.46,109.73L594.36,107.97L597.3,106.26L603.31,102.95L609.51,99.81L615.88,96.85L622.44,94.06L629.15,91.44L636.03,89.01L643.05,86.76L650.22,84.69L657.51,82.82L664.91,81.15L672.39,79.67L679.98,78.39L687.63,77.32L693.03,76.68L697.69,76.2L701.59,75.9L704.74,75.76L710.92,75.68L716.41,75.68L721.18,75.76L725.26,75.91L728.7,76.17L732.55,76.61L736.81,77.24L741.48,78.05L745.05,78.78L748.54,79.63L751.95,80.6L755.28,81.69L758.52,82.9L761.69,84.23L764.77,85.69L767.78,87.26L770.24,88.7L772.62,90.25L774.89,91.91L777.06,93.68L779.09,95.51L781,97.45L782.76,99.45L784.4,101.54L785.86,103.65L787.18,105.85L788.33,108.07L789.34,110.36L790.17,112.65L790.84,115L791.34,117.36L791.68,119.77L791.85,122.5L791.81,125.23L791.57,128.16L791.16,131.04L790.59,133.87L789.86,136.65L789.04,139.18L788.08,141.66L786.99,144.11L785.75,146.51L785.63,146.72L783.49,150.41L781.19,154L778.72,157.5L776.09,160.92L773.29,164.24L770.32,167.47L767.19,170.61L763.9,173.66L759.78,177.21L756.29,180.04L752.73,182.77L749.09,185.41L745.37,187.95L741.57,190.4L737.7,192.76L733.75,195.03L729.72,197.2L725.81,199.19L721.86,201.09L716.82,203.37L711.71,205.51L706.53,207.51L701.29,209.38L695.99,211.11L690.62,212.7L685.19,214.15L679.69,215.46L679.54,215.39L679.41,215.12L679.42,215.11Z" style="fill:rgb(196,24,126);fill-rule:nonzero;"/>
        <path d="M653.44,129.44L653.46,129.45L653.47,129.47L653.49,129.52L653.48,129.52L648.82,131.05L644.23,132.7L639.72,134.47L635.29,136.36L630.94,138.37L626.66,140.49L622.46,142.74L618.33,145.1L614.3,147.6L610.44,150.24L606.72,153.01L603.17,155.92L601.44,157.46L599.81,159.02L598.28,160.6L596.85,162.19L595.57,163.75L594.42,165.3L593.41,166.81L592.54,168.3L591.82,169.74L591.24,171.14L590.79,172.53L590.5,173.86L590.34,175.17L590.32,176.41L590.45,177.62L590.72,178.82L591.26,180.24L592.02,181.57L593.01,182.86L594.21,184.07L595.05,184.77L595.96,185.42L596.98,186.06L598.05,186.66L599.22,187.23L600.48,187.77L603.19,188.75L606.24,189.59L609.43,190.24L612.69,190.68L615.77,190.89L616.34,190.91L622.38,191.04L626.85,191.04L630.74,190.9L634.07,190.62L637.71,190.17L641.33,189.66L644.92,189.08L648.48,188.45L652.02,187.76L655.53,187L659.02,186.18L662.47,185.31L665.91,184.37L669.31,183.37L672.69,182.31L676.05,181.19L679.37,180L682.67,178.76L685.95,177.46L689.2,176.09L694.21,173.85L699.15,171.45L703.42,169.21L707.49,166.89L711.37,164.49L715.05,162.01L718.52,159.45L721.8,156.81L724.89,154.08L727.77,151.28L728.57,150.4L729.36,149.44L730.13,148.38L730.88,147.24L732.34,144.69L733.72,141.79L734.02,141.03L734.25,140.27L734.42,139.5L734.52,138.73L734.57,137.97L734.55,137.2L734.33,135.66L733.88,134.08L733.18,132.49L732.78,131.82L732.25,131.12L731.62,130.44L730.86,129.76L729.97,129.06L728.98,128.37L726.64,126.98L726.57,126.86L726.65,126.75L726.73,126.75L729.42,127.69L731.95,128.8L734.28,130.06L735.36,130.75L736.4,131.48L737.36,132.22L738.27,133.01L739.12,133.82L739.91,134.67L740.63,135.53L741.29,136.43L741.88,137.35L742.42,138.31L743.08,139.72L743.63,141.14L744.07,142.59L744.39,144.05L744.59,145.54L744.68,147.04L744.66,148.56L744.52,150.1L744.26,151.66L743.9,153.24L743.42,154.85L742.82,156.47L741.7,159.03L740.42,161.53L738.96,163.97L737.35,166.35L735.56,168.66L733.61,170.92L731.49,173.11L729.2,175.25L726.73,177.37L724.12,179.44L721.41,181.45L718.58,183.41L715.64,185.31L712.58,187.16L709.44,188.93L706.19,190.64L702.84,192.29L699.39,193.87L695.87,195.36L692.28,196.78L688.62,198.12L684.89,199.38L681.14,200.55L677.35,201.62L671.75,203.08L666.19,204.42L660.68,205.63L655.21,206.73L649.79,207.71L644.41,208.57L639.07,209.3L633.78,209.92L629.88,210.2L625.32,210.28L620.12,210.18L614.26,209.88L611.25,209.61L608.35,209.19L605.56,208.61L602.87,207.89L600.28,207.02L597.8,206L595.43,204.82L593.16,203.5L592.01,202.73L590.92,201.9L589.87,201L588.88,200.04L587.9,198.98L586.99,197.87L586.14,196.68L585.36,195.45L584.66,194.17L584.04,192.86L583.5,191.52L583.04,190.14L582.66,188.74L582.37,187.32L582.17,185.88L582.05,184.43L582.02,182.98L582.08,181.52L582.22,180.09L582.45,178.66L582.72,177.44L583.05,176.23L583.45,175.05L583.9,173.89L584.73,172.04L585.6,170.29L586.53,168.61L587.55,166.96L588.46,165.62L589.44,164.29L590.47,163L591.57,161.73L594.01,159.12L596.6,156.6L599.31,154.17L602.16,151.83L605.14,149.57L608.26,147.41L611.52,145.32L614.91,143.33L618.44,141.42L622.09,139.61L625.89,137.87L629.82,136.24L633.87,134.69L638.05,133.24L642.36,131.87L646.79,130.6L649.45,130.02L653.3,129.43L653.44,129.44Z" style="fill:rgb(130,191,64);fill-rule:nonzero;"/>
    </g>
</svg>
