<?xml version="1.0" encoding="UTF-8" standalone="no"?>
<!DOCTYPE svg PUBLIC "-//W3C//DTD SVG 1.1//EN" "http://www.w3.org/Graphics/SVG/1.1/DTD/svg11.dtd">
<svg width="100%" height="100%" viewBox="0 0 458 203" version="1.1" xmlns="http://www.w3.org/2000/svg" xmlns:xlink="http://www.w3.org/1999/xlink" xml:space="preserve" xmlns:serif="http://www.serif.com/" style="fill-rule:evenodd;clip-rule:evenodd;stroke-linejoin:round;stroke-miterlimit:2;">
    <g transform="matrix(1,0,0,1,-27.51,-42.32)">
        <path d="M429.02,60.21L427.42,62.11L425.74,63.89L423.97,65.57L422.13,67.14L418.93,69.76L415.74,72.45L412.58,75.2L409.44,78.03L407.23,75.86L400.75,69.06L411.59,42.57L411.69,42.42L411.85,42.33L412.02,42.32L412.19,42.38L412.25,42.44L429.02,60.21Z" style="fill:rgb(0,155,151);fill-rule:nonzero;"/>
        <path d="M446.03,74.1L447.32,74.92L448.63,75.7L450.33,76.59L452.07,77.39L453.86,78.11L455.7,78.74L457.58,79.29L459.52,79.75L461.5,80.13L463.53,80.42L443.11,90.45L433.93,95.45L431.7,94.6L429.47,93.54L427.21,92.27L424.95,90.8L445.11,73.56L446.03,74.1Z" style="fill:rgb(0,155,151);fill-rule:nonzero;"/>
        <path d="M49.34,110.52L49.45,110.24L49.73,110.13L56.53,110.13L56.81,110.24L56.92,110.52L56.93,134.37L56.88,145.46L56.82,146.71L56.68,147.9L56.45,149.08L56.15,150.19L55.76,151.29L55.3,152.33L54.75,153.33L54.14,154.27L53.08,155.57L51.89,156.73L50.54,157.76L49.09,158.63L47.5,159.36L45.83,159.92L44.07,160.31L42.27,160.52L40.46,160.55L38.64,160.4L36.86,160.07L35.12,159.56L33.48,158.89L31.9,158.06L30.42,157.06L29.08,155.93L28.32,155.17L27.59,154.34L27.51,154.14L27.57,153.93L31.38,148.3L31.39,148.28L31.52,148.23L31.64,148.29L32.53,149.33L33.44,150.26L34.36,151.06L35.28,151.73L36.24,152.29L37.2,152.73L38.2,153.06L39.2,153.26L40.36,153.35L41.32,153.33L42.21,153.25L43.06,153.12L43.84,152.92L44.56,152.67L45.22,152.36L45.84,151.99L46.39,151.56L47.21,150.71L47.89,149.67L48.43,148.46L48.84,147.07L49.12,145.49L49.29,143.67L49.37,141.54L49.35,138.78L49.31,129.98L49.34,110.52Z" style="fill:rgb(0,155,151);fill-rule:nonzero;"/>
        <path d="M151.68,156.55L150.47,157.44L149.26,158.21L148.05,158.87L146.83,159.42L145.61,159.86L144.38,160.19L143.15,160.41L141.91,160.51L140.11,160.46L138.3,160.18L136.47,159.66L134.64,158.91L133.31,158.2L132.09,157.37L131.01,156.48L130.02,155.49L129.11,154.39L128.3,153.21L127.57,151.92L126.94,150.55L126.4,149.09L125.97,147.58L125.63,145.96L125.41,144.31L125.29,142.61L125.29,140.9L125.39,139.16L125.6,137.44L125.93,135.74L126.36,134.08L126.78,132.83L127.27,131.65L127.86,130.51L128.51,129.43L129.25,128.4L130.06,127.44L130.95,126.54L131.9,125.73L132.91,124.99L133.98,124.34L135.08,123.78L136.22,123.32L137.4,122.95L138.6,122.67L139.82,122.5L141.06,122.43L142.46,122.47L143.87,122.65L145.24,122.96L146.61,123.4L147.91,123.95L149.19,124.64L150.41,125.44L151.59,126.37L151.78,126.46L151.98,126.46L152.17,126.36L152.28,126.19L152.31,126.04L152.31,110.38L152.38,110.2L152.56,110.12L159.13,110.12L159.33,110.2L159.41,110.4L159.41,158.9L159.36,159.16L159.21,159.37L158.99,159.52L158.73,159.57L152.93,159.57L152.69,159.52L152.48,159.39L152.35,159.19L152.3,158.95L152.3,156.85L152.28,156.72L152.18,156.57L152.02,156.48L151.84,156.47L151.68,156.55ZM132.67,141.48L132.77,143.34L133.05,145.14L133.51,146.85L134.13,148.4L134.92,149.79L135.85,150.98L136.37,151.51L136.93,151.99L137.51,152.41L138.12,152.78L138.77,153.1L139.46,153.37L140.88,153.73L142.44,153.87L144.07,153.79L145.23,153.6L146.34,153.31L147.39,152.93L148.39,152.46L149.34,151.88L150.23,151.21L151.08,150.44L151.87,149.57L152.17,149.07L152.28,148.51L152.3,141.47L152.28,134.42L152.16,133.86L151.86,133.36L151.07,132.5L150.23,131.73L149.33,131.06L148.38,130.48L147.38,130L146.32,129.62L145.22,129.34L144.06,129.15L142.43,129.07L140.87,129.21L139.45,129.57L138.76,129.84L138.11,130.16L137.5,130.54L136.92,130.96L136.36,131.44L135.84,131.97L134.92,133.16L134.13,134.55L133.5,136.1L133.04,137.81L132.77,139.62L132.67,141.48Z" style="fill:rgb(0,155,151);fill-rule:nonzero;"/>
        <path d="M176.39,115.71C176.39,118.173 174.363,120.2 171.9,120.2C169.437,120.2 167.41,118.173 167.41,115.71C167.41,113.247 169.437,111.22 171.9,111.22C174.363,111.22 176.39,113.247 176.39,115.71Z" style="fill:rgb(0,155,151);fill-rule:nonzero;"/>
        <path d="M341.78,127.58C341.78,130.449 339.419,132.81 336.55,132.81C333.681,132.81 331.32,130.449 331.32,127.58C331.32,124.711 333.681,122.35 336.55,122.35C339.419,122.35 341.78,124.711 341.78,127.58ZM340.98,127.54C340.98,125.099 338.971,123.09 336.53,123.09C334.089,123.09 332.08,125.099 332.08,127.54C332.08,129.981 334.089,131.99 336.53,131.99C338.971,131.99 340.98,129.981 340.98,127.54Z" style="fill:rgb(0,155,151);fill-rule:nonzero;"/>
        <path d="M87.05,157.39L85.73,158.17L84.41,158.84L83.11,159.39L81.8,159.83L80.51,160.16L79.22,160.37L77.93,160.47L76.66,160.45L75.29,160.31L73.93,160.04L72.58,159.64L71.24,159.11L70.16,158.56L69.16,157.93L68.23,157.2L67.39,156.39L66.73,155.61L66.14,154.8L65.62,153.91L65.18,152.98L64.81,152.01L64.54,151.02L64.34,150L64.23,148.97L64.21,147.94L64.28,146.9L64.43,145.86L64.67,144.83L64.99,143.83L65.39,142.84L65.88,141.9L66.44,140.99L67.18,140.02L68.02,139.15L68.93,138.39L69.96,137.71L71.05,137.15L72.25,136.67L73.5,136.31L74.83,136.05L76.19,135.9L77.61,135.87L79.03,135.95L80.48,136.15L81.9,136.46L83.28,136.88L84.62,137.41L85.86,138.02L87.02,138.73L87.18,138.79L87.35,138.78L87.5,138.69L87.59,138.55L87.61,138.47L87.74,137.27L87.78,136.15L87.73,135.11L87.59,134.15L87.36,133.27L87.04,132.47L86.63,131.75L86.14,131.11L85.61,130.6L85.01,130.16L84.33,129.78L83.58,129.48L82.75,129.23L81.85,129.06L80.88,128.95L79.83,128.91L78.69,128.95L77.58,129.08L76.51,129.31L75.47,129.63L74.64,129.96L73.83,130.36L73.04,130.82L72.28,131.34L71.54,131.93L70.82,132.59L69.45,134.08L69.3,134.16L69.15,134.09L69.13,134.07L65.79,129.22L65.73,129.01L65.82,128.81L67.24,127.41L68.74,126.19L70.31,125.14L71.97,124.26L73.03,123.81L74.11,123.42L75.23,123.1L76.37,122.85L77.54,122.65L78.75,122.53L79.98,122.47L81.25,122.47L83.07,122.6L84.8,122.87L86.42,123.29L87.94,123.85L89.29,124.54L90.53,125.37L91.61,126.32L92.54,127.41L93.03,128.13L93.47,128.89L93.83,129.68L94.14,130.52L94.39,131.4L94.58,132.33L94.7,133.28L94.77,134.27L94.82,141.59L94.8,158.94L94.75,159.17L94.62,159.36L94.43,159.49L94.2,159.53L88.19,159.53L87.99,159.49L87.82,159.38L87.71,159.22L87.67,159.02L87.67,157.73L87.65,157.62L87.56,157.46L87.41,157.35L87.23,157.33L87.05,157.39ZM71.53,148.15L71.6,149.3L71.82,150.33L72.2,151.28L72.7,152.11L73.25,152.74L73.88,153.28L74.62,153.75L75.42,154.13L76.34,154.44L77.3,154.64L78.34,154.75L79.4,154.77L80.53,154.69L81.66,154.51L82.76,154.24L83.82,153.87L84.82,153.43L85.74,152.92L86.54,152.34L87.24,151.71L87.53,151.28L87.67,150.77L87.69,148.18L87.68,145.58L87.55,145.08L87.26,144.65L86.56,144.01L85.75,143.43L84.84,142.91L83.84,142.47L82.78,142.1L81.68,141.83L80.56,141.64L79.43,141.56L78.36,141.57L77.32,141.68L76.36,141.88L75.44,142.18L74.64,142.55L73.9,143.02L73.27,143.56L72.72,144.2L72.21,145.02L71.83,145.97L71.61,147L71.53,148.15Z" style="fill:rgb(0,155,151);fill-rule:nonzero;"/>
        <path d="M111.44,126.87L112.85,125.65L114.32,124.63L115.85,123.83L117.45,123.22L118.47,122.96L119.51,122.77L120.57,122.65L121.66,122.62L121.92,122.67L122.13,122.82L122.28,123.04L122.33,123.3L122.33,129.43L122.25,129.67L122.08,129.87L121.85,129.97L121.59,129.98L120.55,129.83L119.52,129.78L118.52,129.84L117.54,129.99L116.69,130.22L115.86,130.52L115.05,130.9L114.25,131.37L113.47,131.91L112.71,132.53L111.96,133.24L111.23,134.02L110.96,134.48L110.86,135L110.86,159.23L110.76,159.47L110.52,159.57L104.04,159.57L103.79,159.47L103.69,159.22L103.69,123.99L103.74,123.72L103.9,123.5L104.13,123.34L104.4,123.29L110.18,123.29L110.44,123.34L110.65,123.49L110.8,123.71L110.85,123.97L110.85,126.62L110.88,126.75L110.97,126.89L111.13,126.96L111.29,126.95L111.44,126.87Z" style="fill:rgb(0,155,151);fill-rule:nonzero;"/>
        <path d="M205.94,157.75L205.92,157.64L205.83,157.47L205.68,157.37L205.5,157.35L205.32,157.41L204,158.19L202.68,158.86L201.38,159.41L200.07,159.85L198.78,160.18L197.49,160.39L196.2,160.49L194.92,160.48L193.56,160.34L192.2,160.07L190.85,159.67L189.5,159.14L188.42,158.59L187.42,157.96L186.49,157.22L185.65,156.41L184.99,155.64L184.4,154.82L183.88,153.94L183.44,153.01L183.07,152.04L182.79,151.05L182.6,150.03L182.49,149L182.47,147.97L182.53,146.93L182.68,145.89L182.92,144.86L183.24,143.85L183.65,142.87L184.13,141.93L184.69,141.01L185.43,140.04L186.27,139.17L187.19,138.41L188.21,137.73L189.3,137.17L190.5,136.69L191.76,136.32L193.08,136.06L194.44,135.92L195.86,135.89L197.29,135.97L198.73,136.17L200.15,136.48L201.54,136.9L202.87,137.42L204.12,138.03L205.28,138.74L205.44,138.8L205.61,138.79L205.76,138.7L205.85,138.56L205.87,138.48L206,137.28L206.04,136.16L205.99,135.11L205.85,134.15L205.62,133.27L205.3,132.48L204.89,131.76L204.39,131.12L203.86,130.61L203.26,130.17L202.58,129.79L201.83,129.48L201,129.24L200.1,129.07L199.13,128.96L198.08,128.92L196.94,128.96L195.83,129.09L194.76,129.32L193.72,129.64L192.89,129.98L192.08,130.37L191.29,130.83L190.53,131.36L189.79,131.95L189.07,132.6L187.7,134.1L187.55,134.17L187.4,134.11L187.38,134.09L184.04,129.24L183.98,129.03L184.07,128.83L185.48,127.43L186.98,126.2L188.56,125.15L190.22,124.27L191.27,123.82L192.36,123.43L193.47,123.11L194.62,122.86L195.79,122.66L197,122.54L198.23,122.47L199.5,122.48L201.31,122.6L203.05,122.88L204.67,123.29L206.19,123.86L207.55,124.55L208.78,125.38L209.86,126.33L210.8,127.42L211.29,128.13L211.72,128.9L212.09,129.68L212.4,130.52L212.65,131.4L212.84,132.33L212.96,133.28L213.03,134.27L213.08,141.6L213.07,158.95L213.03,159.18L212.9,159.37L212.7,159.5L212.47,159.54L206.46,159.55L206.26,159.51L206.09,159.4L205.98,159.23L205.94,159.04L205.94,157.75ZM189.78,148.21L189.87,149.36L190.1,150.39L190.48,151.33L190.99,152.16L191.54,152.79L192.17,153.32L192.91,153.79L193.72,154.16L194.63,154.45L195.6,154.65L196.64,154.76L197.7,154.77L198.83,154.67L199.95,154.49L201.05,154.2L202.1,153.84L203.1,153.39L204.01,152.86L204.81,152.29L205.5,151.65L205.79,151.22L205.92,150.71L205.92,148.12L205.89,145.53L205.76,145.02L205.46,144.59L204.76,143.96L203.95,143.39L203.03,142.88L202.04,142.45L200.98,142.09L199.88,141.82L198.75,141.65L197.62,141.57L196.56,141.59L195.52,141.71L194.56,141.92L193.65,142.22L192.85,142.6L192.11,143.08L191.49,143.62L190.94,144.26L190.44,145.09L190.07,146.04L189.85,147.07L189.78,148.21Z" style="fill:rgb(0,155,151);fill-rule:nonzero;"/>
        <path d="M221.94,159.22L221.94,124.16L222.01,123.82L222.2,123.54L222.48,123.35L222.82,123.28L228.44,123.28L228.7,123.33L228.93,123.48L229.08,123.7L229.13,123.96L229.13,126.27L229.17,126.45L229.3,126.6L229.47,126.67L229.66,126.65L229.78,126.58L230.68,125.88L231.59,125.24L232.51,124.67L233.45,124.17L234.4,123.73L235.37,123.36L236.34,123.05L237.34,122.8L238.87,122.56L240.43,122.46L242.02,122.52L243.64,122.72L245.2,123.1L246.68,123.68L248.01,124.46L249.17,125.42L249.89,126.18L250.52,127L251.06,127.9L251.51,128.85L251.87,129.85L252.13,130.9L252.3,131.99L252.37,133.12L252.43,142.61L252.41,159.24L252.31,159.48L252.07,159.58L245.58,159.58L245.32,159.47L245.21,159.2L245.25,144.06L245.15,134.56L245.06,133.56L244.85,132.65L244.52,131.85L244.05,131.15L243.5,130.58L242.83,130.1L242.04,129.72L241.14,129.42L240.21,129.22L239.28,129.09L238.36,129.05L237.45,129.09L236.51,129.22L235.57,129.44L234.63,129.75L233.71,130.14L232.79,130.63L231.88,131.2L230.98,131.87L230.09,132.62L229.68,133.07L229.38,133.6L229.19,134.18L229.13,134.79L229.13,159.23L229.03,159.47L228.79,159.57L222.3,159.57L222.05,159.47L221.94,159.22Z" style="fill:rgb(0,155,151);fill-rule:nonzero;"/>
        <path d="M266.69,141.43L266.76,143.04L266.97,144.59L267.32,146.05L267.81,147.42L268.42,148.66L269.17,149.79L270.02,150.79L271.01,151.67L272.14,152.42L273.4,153.03L274.75,153.47L276.22,153.75L277.75,153.85L279.19,153.77L280.54,153.5L281.81,153.04L283.05,152.36L284.19,151.48L285.24,150.39L286.2,149.09L286.22,149.07L286.43,148.96L286.66,149.05L291.07,153.45L291.13,153.6L291.08,153.75L290.21,154.77L289.32,155.7L288.39,156.55L287.44,157.32L286.45,158L285.44,158.61L284.39,159.12L283.32,159.56L281.55,160.07L279.71,160.38L277.79,160.48L275.79,160.37L274.24,160.15L272.76,159.82L271.31,159.39L269.94,158.86L268.64,158.23L267.41,157.5L266.24,156.67L265.15,155.75L263.82,154.38L262.66,152.87L261.67,151.22L260.84,149.46L260.19,147.58L259.73,145.59L259.45,143.55L259.36,141.42L259.45,139.29L259.74,137.25L260.21,135.26L260.86,133.39L261.69,131.62L262.69,129.98L263.86,128.47L265.19,127.11L266.28,126.19L267.45,125.36L268.68,124.64L269.99,124.01L271.36,123.48L272.81,123.05L274.29,122.73L275.84,122.51L277.84,122.41L279.76,122.51L281.6,122.82L283.37,123.35L284.44,123.78L285.48,124.3L286.5,124.91L287.48,125.59L288.44,126.36L289.36,127.22L290.25,128.15L291.11,129.17L291.17,129.33L291.1,129.47L286.68,133.86L286.45,133.95L286.24,133.84L286.22,133.82L285.27,132.52L284.22,131.43L283.08,130.54L281.84,129.85L280.57,129.39L279.22,129.12L277.78,129.03L276.26,129.14L274.78,129.41L273.43,129.85L272.17,130.45L271.04,131.2L270.05,132.07L269.19,133.07L268.44,134.21L267.83,135.44L267.33,136.81L266.98,138.26L266.76,139.82L266.69,141.43Z" style="fill:rgb(0,155,151);fill-rule:nonzero;"/>
        <path d="M327.45,154.87L326.69,155.64L326.13,156.13L324.77,157.07L323.35,157.9L321.86,158.63L320.34,159.24L318.78,159.74L317.19,160.11L315.6,160.36L314,160.49L312.4,160.5L310.81,160.38L309.27,160.14L307.76,159.77L306.3,159.29L304.88,158.68L303.54,157.96L302.26,157.12L301.41,156.48L300.6,155.78L299.85,155.04L299.13,154.25L298.44,153.41L297.8,152.51L297.22,151.59L296.67,150.61L296.19,149.59L295.77,148.52L295.41,147.37L295.13,146.18L294.91,144.93L294.76,143.67L294.69,142.38L294.69,141.09L294.76,139.8L294.9,138.52L295.11,137.26L295.4,136.02L295.75,134.84L296.16,133.69L296.64,132.63L297.18,131.61L297.91,130.44L298.68,129.35L299.49,128.34L300.35,127.41L301.25,126.56L302.19,125.79L303.18,125.11L304.21,124.5L305.36,123.94L306.55,123.48L307.8,123.1L309.1,122.82L310.45,122.63L311.85,122.54L313.29,122.53L314.79,122.62L316.65,122.88L318.44,123.34L320.1,123.98L321.68,124.82L322.68,125.48L323.61,126.22L324.49,127.05L325.31,127.95L326.08,128.93L326.79,129.97L327.43,131.1L328.01,132.29L328.51,133.54L328.94,134.83L329.31,136.2L329.6,137.6L329.81,139.04L329.94,140.51L329.99,141.99L329.97,143.49L329.91,143.74L329.77,143.94L329.56,144.08L329.31,144.13L302.5,144.13L302.35,144.19L302.23,144.3L302.16,144.45L302.17,144.62L302.53,145.9L302.97,147.08L303.51,148.2L304.12,149.22L304.83,150.18L305.6,151.03L306.46,151.81L307.38,152.47L308.29,152.99L309.24,153.42L310.25,153.77L311.3,154.02L312.37,154.18L313.47,154.24L314.58,154.2L315.69,154.07L316.81,153.84L317.92,153.52L319.02,153.11L320.1,152.6L321.14,152.02L322.16,151.35L323.12,150.6L324.05,149.78L324.11,149.73L324.35,149.62L324.62,149.62L324.87,149.73L325.05,149.93L327.53,154.22L327.6,154.56L327.45,154.87ZM302.52,138.37L322.6,138.37L322.69,138.33L322.73,138.24L322.73,138.17L322.68,137.24L322.54,136.33L322.3,135.43L321.97,134.56L321.54,133.72L321.04,132.93L320.45,132.18L319.79,131.49L319.06,130.87L318.27,130.32L317.42,129.84L316.53,129.45L315.6,129.14L314.65,128.91L313.67,128.78L312.69,128.73L312.43,128.73L311.45,128.78L310.47,128.91L309.52,129.14L308.59,129.45L307.7,129.84L306.85,130.32L306.06,130.87L305.33,131.49L304.67,132.18L304.08,132.93L303.58,133.72L303.15,134.56L302.82,135.43L302.58,136.33L302.44,137.24L302.39,138.17L302.39,138.24L302.43,138.33L302.52,138.37Z" style="fill:rgb(0,155,151);fill-rule:nonzero;"/>
        <path d="M175.45,159.26C175.45,159.43 175.31,159.57 175.14,159.57L168.66,159.57C168.49,159.57 168.35,159.43 168.35,159.26L168.35,123.6C168.35,123.43 168.49,123.29 168.66,123.29L175.14,123.29C175.31,123.29 175.45,123.43 175.45,123.6L175.45,159.26Z" style="fill:rgb(0,155,151);fill-rule:nonzero;"/>
        <path d="M335.39,128.32L335.35,130.32L335.3,130.4L335.06,130.54L334.91,130.59L334.76,130.57L334.57,130.44L334.5,130.22L334.5,126.06L334.54,125.67L334.67,125.29L334.88,124.96L335.16,124.68L335.49,124.47L335.86,124.33L336.25,124.28L336.64,124.32L337,124.44L337.87,124.89L338.49,125.34L338.86,125.79L338.95,126.01L338.98,126.23L338.98,126.27L338.91,126.6L338.73,127.01L338.06,128.1L337.87,128.58L337.87,128.92L337.99,129.29L338.23,129.67L338.58,130.07L338.69,130.34L338.57,130.6L338.55,130.61L338.49,130.65L338.31,130.69L338.09,130.67L337.99,130.61L336.12,128.09L335.98,127.97L335.78,127.92L335.59,127.98L335.45,128.12L335.39,128.32ZM335.188,126.143L335.254,126.561L335.526,126.939L335.964,127.217L336.5,127.354L337.053,127.33L337.538,127.147L337.882,126.833L338.032,126.437L337.966,126.019L337.694,125.641L337.256,125.363L336.72,125.226L336.167,125.25L335.682,125.433L335.338,125.747L335.188,126.143Z" style="fill:rgb(0,155,151);fill-rule:nonzero;"/>
        <path d="M457.76,64.61L446.03,74.1L445.11,73.56L437.53,67.56L448.04,55.72L448.06,55.7L448.27,55.55L448.54,55.5L448.8,55.55L449.02,55.7L457.76,64.61Z" style="fill:rgb(77,66,65);fill-rule:nonzero;"/>
        <path d="M443.11,90.45L443.67,91.68L444.06,92.85L444.27,93.96L444.32,95L444.26,95.49L444.11,95.94L443.91,96.32L443.63,96.68L443.28,97.01L442.86,97.31L441.09,97.17L439.35,96.93L437.64,96.58L435.96,96.14L433.93,95.45L443.11,90.45Z" style="fill:rgb(77,66,65);fill-rule:nonzero;"/>
        <path d="M89.21,197.87L89.26,200.33L89.41,202.74L89.66,205.12L90.01,207.46L90.47,209.76L91.02,212.03L91.67,214.26L92.43,216.45L93.34,218.73L93.45,219.19L93.41,219.66L93.26,220.04L93.01,220.35L92.68,220.59L92.31,220.73L91.9,220.76L91.51,220.68L91.15,220.49L90.86,220.21L90.35,219.49L89.83,218.58L89.28,217.48L88.72,216.18L87.58,213.14L86.65,210.08L85.93,206.99L85.43,203.87L85.14,200.88L85.05,197.87L85.14,194.86L85.43,191.88L85.94,188.76L86.66,185.67L87.59,182.6L88.73,179.56L89.29,178.27L89.84,177.16L90.36,176.25L90.87,175.54L91.16,175.26L91.52,175.07L91.91,174.99L92.32,175.02L92.69,175.16L93.02,175.39L93.27,175.71L93.42,176.09L93.46,176.56L93.35,177.02L92.44,179.3L91.68,181.49L91.03,183.72L90.47,185.99L90.02,188.29L89.66,190.63L89.41,193.01L89.26,195.42L89.21,197.87Z" style="fill:rgb(77,66,65);fill-rule:nonzero;"/>
        <path d="M351.88,197.89L351.79,200.9L351.5,203.89L350.99,207.02L350.28,210.11L349.34,213.18L348.2,216.23L347.64,217.53L347.09,218.63L346.57,219.54L346.06,220.26L345.77,220.54L345.41,220.73L345.01,220.81L344.61,220.78L344.23,220.64L343.9,220.4L343.65,220.08L343.5,219.71L343.46,219.24L343.57,218.78L344.49,216.49L345.24,214.3L345.9,212.07L346.45,209.8L346.91,207.49L347.26,205.15L347.51,202.76L347.66,200.35L347.71,197.89L347.66,195.43L347.51,193.02L347.26,190.63L346.91,188.29L346.45,185.99L345.9,183.72L345.24,181.48L344.49,179.29L343.57,177L343.46,176.54L343.5,176.07L343.65,175.7L343.9,175.38L344.23,175.14L344.61,175L345.01,174.97L345.41,175.05L345.77,175.24L346.06,175.52L346.57,176.24L347.09,177.15L347.64,178.25L348.2,179.56L349.34,182.6L350.28,185.67L350.99,188.76L351.5,191.89L351.79,194.88L351.88,197.89Z" style="fill:rgb(77,66,65);fill-rule:nonzero;"/>
        <path d="M247.3,184.79L247.4,181.51L247.47,180.63L247.59,179.81L247.76,179.06L247.99,178.37L248.28,177.75L248.62,177.19L249.01,176.7L249.46,176.28L249.98,175.9L250.55,175.6L251.19,175.36L251.89,175.2L252.64,175.1L253.45,175.08L254.32,175.12L255.25,175.24L256.19,175.48L257.04,175.88L257.72,176.4L257.86,176.58L257.93,176.8L257.92,177.03L257.84,177.24L256.88,178.9L256.75,179.05L256.57,179.13L256.38,179.13L256.2,179.06L256.17,179.03L255.74,178.71L255.31,178.47L254.86,178.31L254.41,178.22L253.7,178.23L252.96,178.43L252.48,178.67L252.08,178.97L251.76,179.32L251.5,179.71L251.3,180.16L251.14,180.69L250.97,181.92L250.95,183.7L250.96,184.51L251.02,184.8L251.18,185.05L251.42,185.21L251.71,185.27L254.88,185.27L255.05,185.3L255.19,185.4L255.29,185.54L255.32,185.71L255.32,188.09L255.28,188.27L255.18,188.43L255.03,188.53L254.85,188.57L251.54,188.57L251.33,188.61L251.16,188.73L251.04,188.9L251,189.11L251,210.34L250.9,210.58L250.65,210.68L247.58,210.68L247.37,210.6L247.29,210.39L247.29,189.15L247.25,188.92L247.12,188.73L246.93,188.6L246.7,188.56L244.29,188.56L244.09,188.52L243.93,188.41L243.82,188.25L243.78,188.05L243.78,185.73L243.81,185.56L243.91,185.42L244.05,185.32L244.22,185.28L246.96,185.24L247.11,185.21L247.23,185.12L247.3,184.99L247.31,184.84L247.3,184.79Z" style="fill:rgb(77,66,65);fill-rule:nonzero;"/>
        <path d="M227.57,210.28C227.57,210.494 227.394,210.67 227.18,210.67L224.26,210.67C224.046,210.67 223.87,210.494 223.87,210.28L223.87,175.88C223.87,175.666 224.046,175.49 224.26,175.49L227.18,175.49C227.394,175.49 227.57,175.666 227.57,175.88L227.57,210.28Z" style="fill:rgb(77,66,65);fill-rule:nonzero;"/>
        <path d="M265.57,210.31C265.57,210.513 265.403,210.68 265.2,210.68L262.18,210.68C261.977,210.68 261.81,210.513 261.81,210.31L261.81,175.87C261.81,175.667 261.977,175.5 262.18,175.5L265.2,175.5C265.403,175.5 265.57,175.667 265.57,175.87L265.57,210.31Z" style="fill:rgb(77,66,65);fill-rule:nonzero;"/>
        <path d="M403.65,187.83L404.33,187.11L405.02,186.49L405.7,185.95L406.38,185.51L407.06,185.15L407.75,184.89L408.43,184.71L409.11,184.63L410.02,184.62L410.89,184.71L411.74,184.89L412.55,185.16L413.27,185.49L413.94,185.89L414.6,186.37L415.21,186.93L415.79,187.56L416.32,188.24L416.81,189.01L417.26,189.82L417.66,190.72L418.01,191.65L418.32,192.66L418.57,193.7L418.76,194.77L418.9,195.87L419,198.1L418.86,200.33L418.7,201.43L418.49,202.5L418.22,203.54L417.9,204.54L417.53,205.47L417.11,206.35L416.65,207.16L416.14,207.92L415.6,208.59L415.01,209.21L414.39,209.75L413.72,210.22L413.03,210.6L412.31,210.91L411.51,211.16L410.67,211.31L409.53,211.36L408.42,211.23L407.8,211.06L407.19,210.84L406.6,210.54L406.02,210.19L404.9,209.29L403.83,208.14L403.71,208.04L403.52,207.98L403.31,208.02L403.15,208.15L403.07,208.34L403.04,208.97L403.17,209.7L403.18,210.04L403.06,210.36L402.81,210.59L402.49,210.7L402.39,210.71L400.06,210.71L399.68,210.61L399.4,210.33L399.3,209.95L399.3,175.96L399.34,175.78L399.43,175.63L399.58,175.54L399.76,175.5L402.75,175.5L403.03,175.61L403.14,175.89L403.14,187.64L403.17,187.76L403.25,187.87L403.39,187.93L403.53,187.91L403.65,187.83ZM414.96,197.95L414.89,196.27L414.69,194.65L414.37,193.19L413.92,191.87L413.38,190.77L412.73,189.85L411.96,189.11L411.11,188.57L410.36,188.28L409.52,188.12L408.63,188.09L407.66,188.2L407.1,188.33L406.56,188.55L406.02,188.84L405.5,189.2L404.99,189.65L404.48,190.17L403.51,191.44L403.26,191.94L403.16,192.49L403.11,197.95L403.16,203.42L403.27,203.97L403.51,204.47L404.49,205.74L404.99,206.26L405.51,206.7L406.03,207.07L406.57,207.36L407.11,207.57L407.67,207.7L408.64,207.81L409.52,207.78L410.36,207.62L411.12,207.33L411.97,206.79L412.74,206.05L413.38,205.13L413.93,204.02L414.37,202.71L414.69,201.25L414.89,199.63L414.96,197.95Z" style="fill:rgb(77,66,65);fill-rule:nonzero;"/>
        <path d="M426.18,210.33C426.18,210.527 426.017,210.69 425.82,210.69L422.86,210.69C422.663,210.69 422.5,210.527 422.5,210.33L422.5,175.85C422.5,175.653 422.663,175.49 422.86,175.49L425.82,175.49C426.017,175.49 426.18,175.653 426.18,175.85L426.18,210.33Z" style="fill:rgb(77,66,65);fill-rule:nonzero;"/>
        <path d="M238.96,179.01C238.96,180.42 237.8,181.58 236.39,181.58C234.98,181.58 233.82,180.42 233.82,179.01C233.82,177.6 234.98,176.44 236.39,176.44C237.8,176.44 238.96,177.6 238.96,179.01Z" style="fill:rgb(77,66,65);fill-rule:nonzero;"/>
        <path d="M316.01,179.02C316.01,180.419 314.859,181.57 313.46,181.57C312.061,181.57 310.91,180.419 310.91,179.02C310.91,177.621 312.061,176.47 313.46,176.47C314.859,176.47 316.01,177.621 316.01,179.02Z" style="fill:rgb(77,66,65);fill-rule:nonzero;"/>
        <path d="M373.22,207.42L373.39,207.35L373.57,207.36L373.74,207.44L373.86,207.57L373.87,207.58L374.69,209.01L374.8,209.32L374.79,209.65L374.67,209.95L374.44,210.19L373.85,210.57L373.25,210.87L372.64,211.11L372.01,211.27L371.33,211.37L370.64,211.39L369.94,211.33L369.22,211.19L368.52,210.98L367.92,210.71L367.38,210.36L366.94,209.96L366.57,209.5L366.28,208.99L366.05,208.42L365.87,207.74L365.68,206.17L365.65,203.81L365.65,202.98L365.67,189.2L365.62,188.96L365.48,188.75L365.27,188.61L365.03,188.56L362.82,188.56L362.5,188.46L362.32,188.26L362.25,187.99L362.25,185.77L362.29,185.57L362.4,185.4L362.57,185.29L362.77,185.25L365.21,185.25L365.38,185.22L365.53,185.12L365.63,184.97L365.66,184.8L365.66,178.68L365.69,178.52L365.79,178.38L365.93,178.28L366.09,178.25L369.04,178.25L369.2,178.28L369.34,178.37L369.43,178.51L369.46,178.67L369.46,184.75L369.5,184.94L369.61,185.1L369.77,185.2L369.96,185.24L373.26,185.24L373.47,185.28L373.65,185.4L373.77,185.58L373.81,185.79L373.81,188.05L373.77,188.25L373.66,188.42L373.5,188.53L373.3,188.57L370.02,188.57L369.81,188.61L369.63,188.73L369.51,188.91L369.47,189.12L369.47,206.05L369.5,206.39L369.6,206.72L369.75,207.02L369.96,207.29L370.22,207.52L370.51,207.69L370.83,207.81L371.17,207.87L372.1,207.84L372.52,207.74L372.92,207.59L373.22,207.42Z" style="fill:rgb(77,66,65);fill-rule:nonzero;"/>
        <path d="M464.01,207.42L464.18,207.35L464.37,207.36L464.53,207.43L464.66,207.57L464.66,207.58L465.48,209.01L465.59,209.31L465.58,209.64L465.46,209.95L465.23,210.19L464.64,210.56L464.04,210.87L463.43,211.1L462.8,211.27L462.12,211.36L461.44,211.38L460.73,211.32L460.01,211.18L459.31,210.97L458.71,210.7L458.18,210.36L457.73,209.96L457.36,209.5L457.07,208.98L456.84,208.41L456.67,207.73L456.47,206.17L456.44,203.81L456.45,202.98L456.47,189.2L456.42,188.96L456.28,188.75L456.07,188.61L455.83,188.56L453.62,188.56L453.4,188.52L453.22,188.4L453.09,188.21L453.05,187.99L453.05,185.78L453.08,185.6L453.17,185.44L453.32,185.32L453.49,185.26L456.01,185.26L456.18,185.22L456.33,185.12L456.42,184.98L456.46,184.81L456.46,178.69L456.49,178.53L456.59,178.39L456.73,178.29L456.89,178.26L459.84,178.26L460.11,178.36L460.22,178.5L460.26,178.68L460.26,184.76L460.3,184.94L460.4,185.1L460.57,185.21L460.76,185.25L464.06,185.25L464.27,185.29L464.44,185.41L464.56,185.59L464.6,185.8L464.6,188.06L464.57,188.26L464.46,188.42L464.29,188.54L464.09,188.58L460.82,188.58L460.61,188.62L460.43,188.74L460.31,188.91L460.27,189.12L460.26,206.05L460.3,206.39L460.39,206.71L460.55,207.02L460.75,207.29L461.01,207.51L461.3,207.69L461.62,207.81L461.96,207.87L462.89,207.84L463.31,207.74L463.71,207.58L464.01,207.42Z" style="fill:rgb(77,66,65);fill-rule:nonzero;"/>
        <path d="M115.22,198.78L115.13,198.99L114.98,199.15L114.78,199.26L114.56,199.29L99.3,199.28L99.28,199.28L99.09,199.32L98.92,199.44L98.82,199.62L98.79,199.82L98.95,201.27L99.28,202.63L99.77,203.92L100.41,205.08L101.17,206.07L102.05,206.9L103.03,207.52L104.1,207.95L104.79,208.11L105.51,208.18L106.22,208.16L106.96,208.07L107.72,207.89L108.49,207.62L109.25,207.27L110.03,206.84L111.89,205.49L112.14,205.37L112.43,205.36L112.69,205.46L112.89,205.65L112.92,205.69L113.67,207L113.75,207.23L113.76,207.48L113.69,207.71L113.54,207.91L112.75,208.61L111.96,209.23L111.15,209.77L110.34,210.23L109.52,210.61L108.68,210.92L107.84,211.14L106.99,211.29L105.6,211.36L104.18,211.23L102.74,210.89L101.28,210.35L100.56,210L99.89,209.6L99.15,209.06L98.49,208.46L97.86,207.78L97.3,207.05L96.78,206.22L96.32,205.35L95.92,204.39L95.58,203.4L95.29,202.31L95.08,201.2L94.92,200.02L94.84,198.84L94.82,197.61L94.88,196.4L95,195.2L95.19,194.04L95.46,192.88L95.8,191.79L96.23,190.74L96.73,189.78L97.32,188.85L97.97,188.02L98.69,187.26L99.47,186.59L100.31,186.01L101.2,185.52L102.14,185.13L103.11,184.85L104.1,184.68L105.09,184.62L106.08,184.67L107.06,184.83L108.43,185.26L109.73,185.92L110.93,186.8L111.98,187.86L112.9,189.1L113.65,190.5L114.27,192.07L114.71,193.77L115.04,195.54L115.23,196.97L115.3,198.05L115.22,198.78ZM99.16,196.42L111.06,196.42L111.31,196.32L111.41,196.07L111.41,195.9L111.38,195.1L111.29,194.31L111.14,193.54L110.94,192.78L110.68,192.06L110.36,191.38L110,190.74L109.59,190.14L109.14,189.61L108.65,189.13L108.12,188.72L107.57,188.38L107,188.11L106.4,187.92L105.8,187.8L105.19,187.76L105.03,187.76L104.42,187.8L103.82,187.92L103.22,188.11L102.65,188.38L102.1,188.72L101.57,189.13L101.08,189.61L100.63,190.14L100.22,190.74L99.86,191.38L99.54,192.06L99.28,192.78L99.08,193.54L98.93,194.31L98.84,195.1L98.81,195.9L98.81,196.07L98.91,196.32L99.16,196.42Z" style="fill:rgb(77,66,65);fill-rule:nonzero;"/>
        <path d="M123.33,188.09L123.36,188.21L123.45,188.31L123.57,188.35L123.7,188.33L123.81,188.25L124.78,187.17L125.89,186.24L127.11,185.49L128.39,184.95L129.68,184.64L130.9,184.58L131.5,184.64L132.08,184.76L132.62,184.93L133.14,185.17L133.93,185.69L134.65,186.4L135.27,187.26L135.77,188.26L135.82,188.35L135.96,188.46L136.14,188.51L136.32,188.46L136.46,188.35L137.43,187.28L138.55,186.35L139.75,185.58L141.02,185.01L142.27,184.66L143.47,184.54L144.06,184.56L144.64,184.64L145.71,184.97L146.39,185.33L147.04,185.81L147.62,186.38L148.16,187.07L148.39,187.46L148.59,187.93L148.89,189.08L149.08,190.52L149.14,192.25L149.12,210.38L149.03,210.6L148.82,210.69L145.67,210.69L145.42,210.59L145.32,210.34L145.32,191.5L145.29,191.07L145.13,190.36L144.81,189.7L144.37,189.11L143.81,188.64L143.16,188.29L142.46,188.09L141.73,188.04L141,188.14L140.46,188.27L139.6,188.57L138.79,189L138.07,189.57L137.46,190.24L136.96,191L136.59,191.84L136.37,192.73L136.29,193.64L136.29,210.36L136.19,210.59L135.95,210.69L132.89,210.69L132.66,210.6L132.57,210.38L132.57,191.62L132.55,191.21L132.38,190.49L132.07,189.82L131.63,189.23L131.07,188.75L130.42,188.39L129.72,188.18L128.98,188.12L128.25,188.22L127.56,188.38L126.69,188.67L125.87,189.1L125.14,189.66L124.51,190.33L124.01,191.1L123.63,191.94L123.41,192.83L123.33,193.75L123.33,210.12L123.29,210.34L123.16,210.53L122.98,210.66L122.76,210.7L120.19,210.7L119.98,210.66L119.8,210.54L119.68,210.36L119.64,210.15L119.64,185.89L119.69,185.64L119.83,185.43L120.05,185.29L120.3,185.24L122.62,185.24L122.89,185.29L123.12,185.45L123.28,185.68L123.33,185.96L123.33,188.09Z" style="fill:rgb(77,66,65);fill-rule:nonzero;"/>
        <path d="M157.74,208.29L157.73,220.03L157.7,220.16L157.56,220.35L157.34,220.42L154.35,220.42L154.08,220.33L153.94,220.17L153.89,219.96L153.93,185.98L153.99,185.69L154.15,185.45L154.4,185.28L154.69,185.22L157.02,185.23L157.12,185.23L157.44,185.35L157.68,185.58L157.81,185.9L157.8,186.24L157.67,186.97L157.7,187.6L157.78,187.79L157.94,187.92L158.14,187.96L158.34,187.9L158.45,187.8L159.52,186.65L160.64,185.75L161.22,185.4L161.82,185.11L162.43,184.88L163.05,184.72L164.15,184.58L165.3,184.64L166.14,184.79L166.93,185.04L167.66,185.35L168.34,185.73L169.01,186.2L169.63,186.74L170.22,187.36L170.76,188.03L171.26,188.79L171.72,189.6L172.14,190.49L172.51,191.42L172.84,192.42L173.1,193.45L173.31,194.53L173.47,195.62L173.6,197.85L173.5,200.08L173.37,201.18L173.17,202.25L172.92,203.29L172.61,204.29L172.26,205.23L171.85,206.12L171.41,206.94L170.91,207.7L170.38,208.39L169.81,209.01L169.2,209.57L168.54,210.05L167.86,210.45L167.14,210.78L166.33,211.05L165.48,211.23L164.62,211.31L163.7,211.3L163.02,211.22L162.34,211.05L161.66,210.78L160.98,210.43L160.29,209.98L159.61,209.44L158.93,208.82L158.25,208.1L158.13,208.02L157.99,208L157.86,208.06L157.77,208.17L157.74,208.29ZM169.59,197.97L169.51,196.28L169.31,194.66L168.98,193.19L168.53,191.88L167.98,190.77L167.32,189.85L166.55,189.11L165.69,188.57L164.94,188.29L164.09,188.13L163.2,188.1L162.23,188.21L161.67,188.35L161.12,188.56L160.59,188.86L160.06,189.23L159.55,189.67L159.05,190.2L158.07,191.48L157.83,191.98L157.73,192.53L157.7,198.02L157.77,203.5L157.88,204.05L158.13,204.55L159.11,205.83L159.62,206.35L160.13,206.79L160.66,207.15L161.2,207.44L161.75,207.65L162.31,207.79L163.28,207.89L164.17,207.86L165.01,207.69L165.77,207.4L166.62,206.86L167.39,206.11L168.04,205.18L168.58,204.07L169.02,202.75L169.33,201.28L169.53,199.66L169.59,197.97Z" style="fill:rgb(77,66,65);fill-rule:nonzero;"/>
        <path d="M190.77,197.2L190.98,197.27L191.15,197.14L191.17,197.05L191.19,194.82L191.14,193L191,191.83L190.68,190.77L190.21,189.89L189.57,189.14L189.13,188.78L188.66,188.48L188.12,188.24L187.55,188.05L186.95,187.93L186.33,187.87L185.66,187.88L184.99,187.94L184.3,188.07L183.62,188.26L182.3,188.81L181.68,189.17L181.09,189.58L180.56,190.02L180.08,190.5L179.87,190.65L179.62,190.7L179.38,190.64L179.18,190.48L179.13,190.4L178.18,188.76L178.09,188.5L178.09,188.22L178.19,187.96L178.37,187.75L179.2,187.13L180.08,186.56L181.04,186.05L182.03,185.6L183.04,185.24L184.06,184.95L185.1,184.75L186.12,184.62L187.11,184.59L188.07,184.64L188.98,184.77L189.85,184.99L190.64,185.28L191.39,185.66L192.06,186.11L192.67,186.64L193.17,187.18L193.6,187.8L193.97,188.45L194.28,189.17L194.52,189.93L194.7,190.75L194.82,191.61L194.87,192.53L194.95,200.29L194.93,210.05L194.88,210.3L194.73,210.51L194.52,210.65L194.27,210.7L191.76,210.7L191.53,210.65L191.34,210.52L191.21,210.33L191.17,210.1L191.17,208.82L191.15,208.71L191.06,208.59L190.93,208.53L190.78,208.53L190.65,208.61L189.58,209.57L188.48,210.32L187.33,210.87L186.14,211.21L185.37,211.33L184.58,211.36L183.78,211.31L182.96,211.18L182.24,211L181.57,210.76L180.91,210.45L180.31,210.09L179.52,209.49L178.83,208.79L178.22,207.98L177.71,207.11L177.3,206.13L177,205.11L176.81,204.02L176.74,202.92L176.8,201.82L176.97,200.74L177.26,199.72L177.66,198.75L178.15,197.88L178.75,197.07L179.43,196.38L180.2,195.78L181.33,195.17L182.56,194.77L183.78,194.56L184.95,194.5L186.07,194.6L187.15,194.85L188.12,195.23L189.05,195.75L189.93,196.4L190.77,197.2ZM191.152,202.02C191.097,199.42 188.944,197.311 186.343,197.311C186.309,197.311 186.276,197.311 186.242,197.312L185.382,197.33C182.782,197.385 180.673,199.538 180.673,202.139C180.673,202.173 180.673,202.206 180.674,202.24L180.708,203.86C180.763,206.46 182.916,208.569 185.517,208.569C185.551,208.569 185.584,208.569 185.618,208.568L186.478,208.55C189.078,208.495 191.187,206.342 191.187,203.741C191.187,203.707 191.187,203.674 191.186,203.64L191.152,202.02Z" style="fill:rgb(77,66,65);fill-rule:nonzero;"/>
        <path d="M214.76,207.46L214.56,207.69L214.26,208.16L214.02,208.48L213.66,208.82L212.36,209.79L211.71,210.18L211.06,210.49L210.41,210.74L209.75,210.92L209.1,211.02L208.45,211.06L207.77,211.03L207.1,210.93L206.43,210.75L205.75,210.51L205.07,210.18L204.4,209.79L203.04,208.78L202.57,208.34L202.13,207.83L201.71,207.24L201.32,206.59L200.63,205.11L200.09,203.45L199.69,201.58L199.46,199.62L199.41,197.63L199.53,195.64L199.81,193.79L200.23,192.07L200.81,190.46L201.51,189.02L202.34,187.77L203.28,186.73L204.35,185.87L205.5,185.24L206.34,184.92L207.24,184.71L208.14,184.6L209,184.59L209.83,184.68L210.64,184.88L211.23,185.09L211.8,185.37L212.88,186.09L213.9,187.05L214.84,188.24L214.96,188.34L215.12,188.37L215.27,188.32L215.37,188.2L215.41,188.06L215.41,185.61L215.52,185.36L215.77,185.25L218.58,185.25L218.79,185.29L218.96,185.41L219.08,185.58L219.12,185.79L219.09,200.57L219.13,207.8L219.13,209.77L219.03,211.53L218.84,213.08L218.54,214.46L218.14,215.71L217.63,216.79L217.01,217.74L216.25,218.58L215.65,219.1L214.96,219.56L214.24,219.94L213.43,220.27L212.55,220.53L211.6,220.73L210.59,220.87L209.5,220.95L208.4,220.96L207.34,220.9L206.34,220.78L205.38,220.58L204.48,220.31L203.62,219.97L202.82,219.56L202.06,219.08L200.96,218.16L200.82,217.97L200.75,217.75L200.76,217.52L200.84,217.3L201.97,215.35L202.02,215.28L202.18,215.15L202.39,215.09L202.6,215.13L202.78,215.26L203.3,215.78L203.87,216.25L204.53,216.68L205.22,217.04L205.96,217.34L206.73,217.57L207.51,217.73L208.31,217.82L209.09,217.83L209.86,217.76L210.59,217.63L211.29,217.42L211.95,217.15L212.57,216.8L213.13,216.4L213.63,215.92L214.2,215.22L214.67,214.39L214.88,213.86L215.06,213.24L215.31,211.75L215.41,209.92L215.38,207.76L215.36,207.65L215.26,207.5L215.11,207.41L214.93,207.39L214.76,207.46ZM203.49,197.8L203.55,199.47L203.75,201.09L204.06,202.55L204.5,203.86L205.03,204.96L205.67,205.88L206.43,206.62L207.28,207.16L208.03,207.45L208.87,207.62L209.75,207.65L210.72,207.55L211.27,207.42L211.82,207.21L212.35,206.92L212.88,206.56L213.39,206.12L213.89,205.6L214.87,204.34L215.12,203.84L215.22,203.3L215.3,197.85L215.27,192.41L215.17,191.86L214.93,191.36L213.96,190.09L213.46,189.57L212.95,189.12L212.43,188.76L211.9,188.47L211.35,188.25L210.8,188.11L209.83,188L208.95,188.03L208.11,188.19L207.36,188.47L206.51,189L205.74,189.74L205.09,190.66L204.55,191.75L204.1,193.06L203.77,194.51L203.57,196.13L203.49,197.8Z" style="fill:rgb(77,66,65);fill-rule:nonzero;"/>
        <path d="M280.48,184.45L281.508,184.515L282.527,184.71L283.525,185.033L284.494,185.48L285.425,186.048L286.308,186.73L287.135,187.521L287.898,188.413L288.589,189.397L289.202,190.463L289.731,191.602L290.172,192.802L290.518,194.052L290.768,195.34L290.92,196.654L290.97,197.98L290.92,199.306L290.768,200.62L290.518,201.908L290.172,203.158L289.731,204.358L289.202,205.497L288.589,206.563L287.898,207.547L287.135,208.439L286.308,209.23L285.425,209.912L284.494,210.48L283.525,210.927L282.527,211.25L281.508,211.445L280.48,211.51L279.452,211.445L278.434,211.25L277.435,210.927L276.466,210.48L275.535,209.912L274.652,209.23L273.825,208.439L273.062,207.547L272.371,206.563L271.758,205.497L271.229,204.358L270.789,203.158L270.442,201.908L270.192,200.62L270.041,199.306L269.99,197.98L270.041,196.654L270.192,195.34L270.442,194.052L270.789,192.802L271.229,191.602L271.758,190.463L272.371,189.397L273.062,188.413L273.825,187.521L274.652,186.73L275.535,186.048L276.466,185.48L277.435,185.033L278.434,184.71L279.452,184.515L280.48,184.45ZM280.49,187.84L279.854,187.889L279.224,188.035L278.606,188.276L278.006,188.61L277.431,189.035L276.884,189.546L276.373,190.137L275.901,190.804L275.473,191.54L275.094,192.338L274.766,193.19L274.494,194.087L274.28,195.022L274.125,195.986L274.031,196.968L274,197.96L274.031,198.952L274.125,199.934L274.28,200.898L274.494,201.833L274.766,202.731L275.094,203.582L275.473,204.38L275.901,205.116L276.373,205.783L276.884,206.375L277.431,206.885L278.006,207.31L278.606,207.644L279.224,207.886L279.854,208.031L280.49,208.08L281.126,208.031L281.756,207.886L282.374,207.644L282.974,207.31L283.549,206.885L284.096,206.375L284.607,205.783L285.079,205.116L285.507,204.38L285.886,203.582L286.214,202.731L286.486,201.833L286.7,200.898L286.855,199.934L286.949,198.952L286.98,197.96L286.949,196.968L286.855,195.986L286.7,195.022L286.486,194.087L286.214,193.19L285.886,192.338L285.507,191.54L285.079,190.804L284.607,190.137L284.096,189.546L283.549,189.035L282.974,188.61L282.374,188.276L281.756,188.035L281.126,187.889L280.49,187.84Z" style="fill:rgb(77,66,65);fill-rule:nonzero;"/>
        <path d="M326.09,188L326.13,188.14L326.22,188.25L326.36,188.3L326.5,188.27L326.6,188.2L327.28,187.48L327.97,186.85L328.68,186.29L329.39,185.81L330.12,185.41L330.86,185.09L331.62,184.86L332.38,184.7L333.12,184.62L333.87,184.62L334.62,184.68L335.39,184.82L336.23,185.06L336.99,185.39L337.65,185.8L338.22,186.31L338.85,187.12L339.32,188.1L339.62,189.24L339.76,190.54L339.82,196.56L339.8,210.22L339.76,210.4L339.66,210.55L339.5,210.65L339.32,210.69L336.51,210.69L336.27,210.62L336.13,210.46L336.08,210.26L336.08,191.95L336.06,191.52L335.88,190.71L335.54,189.96L335.05,189.29L334.43,188.74L333.71,188.33L332.92,188.08L332.09,188L331.27,188.09L330.58,188.25L329.66,188.54L328.79,188.98L328.02,189.56L327.35,190.26L326.81,191.06L326.41,191.95L326.17,192.88L326.09,193.85L326.09,210.31L325.98,210.58L325.71,210.69L322.69,210.69L322.43,210.58L322.32,210.32L322.32,185.89L322.37,185.65L322.51,185.44L322.72,185.3L322.96,185.25L325.42,185.25L325.68,185.3L325.89,185.44L326.04,185.66L326.09,185.91L326.09,188Z" style="fill:rgb(77,66,65);fill-rule:nonzero;"/>
        <path d="M391.43,197.2L391.63,197.27L391.81,197.14L391.83,197.05L391.85,194.82L391.8,193L391.66,191.83L391.34,190.77L390.87,189.89L390.23,189.13L389.79,188.77L389.31,188.48L388.78,188.23L388.21,188.05L387.61,187.93L386.99,187.87L386.32,187.87L385.65,187.94L384.96,188.07L384.28,188.26L382.96,188.81L382.33,189.17L381.74,189.58L381.22,190.01L380.74,190.49L380.53,190.64L380.28,190.69L380.04,190.63L379.84,190.47L379.79,190.39L378.84,188.75L378.74,188.49L378.74,188.21L378.84,187.95L379.03,187.74L379.86,187.12L380.74,186.55L381.7,186.04L382.69,185.6L383.7,185.23L384.72,184.95L385.75,184.74L386.78,184.62L387.77,184.58L388.73,184.63L389.64,184.77L390.51,184.98L391.3,185.28L392.05,185.66L392.72,186.11L393.33,186.64L393.83,187.18L394.26,187.79L394.63,188.45L394.94,189.17L395.18,189.93L395.36,190.75L395.48,191.61L395.53,192.53L395.61,200.29L395.59,210.05L395.53,210.3L395.39,210.52L395.17,210.66L394.92,210.7L392.41,210.7L392.19,210.66L392,210.53L391.87,210.33L391.82,210.1L391.82,208.82L391.8,208.71L391.71,208.59L391.58,208.53L391.43,208.54L391.3,208.61L390.24,209.57L389.13,210.32L387.98,210.87L386.79,211.22L386.02,211.33L385.23,211.36L384.43,211.31L383.61,211.18L382.89,211L382.22,210.76L381.56,210.45L380.96,210.09L380.17,209.49L379.48,208.79L378.87,207.98L378.36,207.1L377.95,206.13L377.65,205.11L377.46,204.02L377.39,202.92L377.45,201.82L377.62,200.74L377.91,199.72L378.31,198.75L378.81,197.87L379.41,197.07L380.08,196.38L380.86,195.78L381.99,195.17L383.22,194.77L384.44,194.55L385.61,194.5L386.73,194.59L387.8,194.85L388.77,195.23L389.7,195.75L390.59,196.4L391.43,197.2ZM391.831,202.045C391.804,199.442 389.654,197.315 387.051,197.315C387.034,197.315 387.018,197.315 387.001,197.316L386.101,197.325C383.498,197.352 381.371,199.501 381.371,202.105C381.371,202.121 381.371,202.138 381.372,202.155L381.389,203.835C381.416,206.438 383.566,208.565 386.169,208.565C386.186,208.565 386.202,208.565 386.219,208.564L387.119,208.555C389.722,208.528 391.849,206.379 391.849,203.775C391.849,203.759 391.849,203.742 391.849,203.725L391.831,202.045Z" style="fill:rgb(77,66,65);fill-rule:nonzero;"/>
        <path d="M450.65,199.28L435.36,199.28L435.16,199.33L434.99,199.45L434.89,199.62L434.86,199.82L435.03,201.27L435.35,202.64L435.84,203.93L436.48,205.09L437.25,206.08L438.14,206.91L439.11,207.53L440.18,207.96L440.87,208.11L441.59,208.18L442.31,208.17L443.05,208.07L443.8,207.89L444.58,207.62L445.34,207.27L446.12,206.84L447.98,205.49L448.23,205.37L448.52,205.35L448.78,205.45L448.98,205.65L449.01,205.69L449.76,207L449.85,207.23L449.86,207.47L449.78,207.71L449.63,207.91L448.85,208.61L448.05,209.23L447.25,209.77L446.43,210.23L445.61,210.62L444.78,210.92L443.93,211.15L443.08,211.3L441.69,211.37L440.27,211.24L438.83,210.9L437.36,210.36L436.64,210.01L435.97,209.61L435.24,209.07L434.57,208.47L433.94,207.79L433.38,207.06L432.86,206.23L432.4,205.36L431.99,204.4L431.65,203.41L431.36,202.32L431.15,201.2L430.99,200.03L430.91,198.85L430.89,197.62L430.94,196.41L431.06,195.2L431.25,194.04L431.52,192.87L431.86,191.78L432.29,190.74L432.79,189.77L433.38,188.85L434.03,188.01L434.75,187.25L435.53,186.58L436.38,185.99L437.26,185.51L438.21,185.11L439.18,184.83L440.16,184.66L441.16,184.6L442.15,184.65L443.13,184.81L444.5,185.24L445.8,185.9L447,186.78L448.05,187.84L448.97,189.08L449.73,190.48L450.35,192.05L450.79,193.75L451.12,195.53L451.32,196.95L451.38,198.04L451.31,198.77L451.22,198.97L451.07,199.14L450.87,199.24L450.65,199.28ZM435.17,196.41L447.17,196.43L447.34,196.38L447.45,196.25L447.47,196.13L447.47,195.91L447.36,194.33L447.21,193.55L447.01,192.8L446.75,192.08L446.44,191.4L446.09,190.76L445.68,190.17L445.24,189.63L444.75,189.15L444.23,188.74L443.69,188.4L443.12,188.13L442.54,187.94L441.94,187.82L441.34,187.78L441.04,187.78L440.43,187.82L439.84,187.93L439.25,188.13L438.68,188.39L438.14,188.73L437.62,189.14L437.13,189.62L436.68,190.15L436.28,190.74L435.92,191.38L435.61,192.06L435.35,192.78L435.14,193.53L434.99,194.31L434.87,195.89L434.87,196.11L434.96,196.32L435.17,196.41Z" style="fill:rgb(77,66,65);fill-rule:nonzero;"/>
        <path d="M467.7,207.68L469.01,205.42L469.12,205.3L469.26,205.24L469.42,205.24L469.57,205.3L469.6,205.33L470.42,206.05L471.23,206.67L472.05,207.19L472.86,207.61L473.66,207.93L474.47,208.15L475.27,208.28L476.06,208.3L476.8,208.24L477.53,208.08L478.26,207.85L478.99,207.53L479.55,207.18L480.01,206.75L480.39,206.17L480.66,205.49L480.81,204.77L480.86,204.12L480.81,203.5L480.66,202.93L480.41,202.4L480.06,201.91L479.62,201.46L479.06,201.01L478.41,200.59L477.64,200.18L475.38,199.18L472.78,198.01L471.84,197.5L471.04,196.97L470.33,196.4L469.75,195.81L469.25,195.16L468.87,194.48L468.57,193.73L468.38,192.89L468.3,192.02L468.33,191.06L468.48,190L468.76,189.03L469.15,188.16L469.66,187.38L470.35,186.63L471.19,186L472.18,185.47L473.3,185.06L474.57,184.75L475.81,184.59L477.03,184.57L478.23,184.7L479.69,185.07L481.12,185.67L482.51,186.5L483.86,187.57L483.96,187.75L483.92,187.95L482.63,190.19L482.48,190.3L482.31,190.26L482.29,190.24L480.99,189.18L480.34,188.75L479.68,188.4L479.02,188.11L478.35,187.9L477.68,187.75L477,187.68L476.12,187.68L475.24,187.81L474.35,188.04L473.45,188.4L473,188.69L472.66,189.11L472.27,189.86L472.04,190.56L471.95,191.25L472,191.88L472.2,192.51L472.56,193.13L473.06,193.7L473.73,194.26L474.53,194.78L475.48,195.29L476.6,195.8L478.16,196.42L480.15,197.27L481.39,198.05L482.47,198.98L483.33,200.02L484,201.18L484.25,201.8L484.44,202.43L484.57,203.06L484.64,203.7L484.65,204.35L484.59,205L484.47,205.64L484.3,206.26L483.92,207.16L483.41,208L482.78,208.75L482.03,209.43L481.21,210L480.27,210.48L479.27,210.84L478.17,211.11L476.63,211.31L475.14,211.33L473.71,211.17L472.34,210.83L471.12,210.36L469.95,209.74L468.83,208.96L467.75,208.03L467.67,207.86L467.7,207.68Z" style="fill:rgb(77,66,65);fill-rule:nonzero;"/>
        <path d="M238.25,210.33C238.25,210.522 238.092,210.68 237.9,210.68L234.92,210.68C234.728,210.68 234.57,210.522 234.57,210.33L234.57,185.61C234.57,185.418 234.728,185.26 234.92,185.26L237.9,185.26C238.092,185.26 238.25,185.418 238.25,185.61L238.25,210.33Z" style="fill:rgb(77,66,65);fill-rule:nonzero;"/>
        <path d="M299.35,197.06L303.94,189.07L303.98,188.92L303.96,188.77L303.87,188.64L303.73,188.57L303.65,188.56L293.55,188.56L293.29,188.47L293.17,188.33L293.13,188.14L293.13,185.67L293.16,185.51L293.26,185.37L293.4,185.28L293.57,185.24L308.32,185.24L308.51,185.28L308.68,185.39L308.8,185.56L308.85,185.75L308.85,187.47L308.8,188.01L308.71,188.33L302.71,198.86L298.11,206.86L298.07,207L298.1,207.16L298.19,207.28L298.33,207.35L298.41,207.36L308.51,207.36L308.67,207.39L308.81,207.48L308.9,207.62L308.93,207.78L308.93,210.25L308.9,210.41L308.8,210.55L308.66,210.65L308.49,210.68L293.74,210.68L293.54,210.64L293.38,210.53L293.26,210.37L293.21,210.17L293.21,208.45L293.26,207.91L293.35,207.59L299.35,197.06Z" style="fill:rgb(77,66,65);fill-rule:nonzero;"/>
        <path d="M315.33,210.29C315.33,210.498 315.158,210.67 314.95,210.67L312.03,210.67C311.822,210.67 311.65,210.498 311.65,210.29L311.65,185.63C311.65,185.422 311.822,185.25 312.03,185.25L314.95,185.25C315.158,185.25 315.33,185.422 315.33,185.63L315.33,210.29Z" style="fill:rgb(77,66,65);fill-rule:nonzero;"/>
        <path d="M418.173,239.807C418.087,240.119 417.802,240.337 417.478,240.337C417.414,240.337 417.35,240.329 417.288,240.312L417.211,240.291C416.899,240.205 416.681,239.92 416.681,239.596C416.681,239.532 416.69,239.468 416.707,239.406L421.667,221.273C421.753,220.961 422.038,220.743 422.362,220.743C422.426,220.743 422.49,220.751 422.552,220.768L422.629,220.789C422.941,220.875 423.159,221.16 423.159,221.484C423.159,221.548 423.15,221.612 423.134,221.674L418.173,239.807Z" style="fill:rgb(77,66,65);fill-rule:nonzero;"/>
        <path d="M374.4,221.01L374.971,221.056L375.535,221.194L376.09,221.421L376.627,221.737L377.144,222.138L377.633,222.619L378.092,223.178L378.515,223.807L378.899,224.502L379.239,225.254L379.533,226.058L379.777,226.905L380.108,228.697L380.22,230.56L380.108,232.423L379.777,234.215L379.533,235.062L379.239,235.866L378.899,236.619L378.515,237.313L378.092,237.942L377.633,238.5L377.144,238.982L376.627,239.383L376.09,239.699L375.535,239.927L374.971,240.064L374.4,240.11L373.83,240.064L373.265,239.927L372.711,239.699L372.173,239.383L371.657,238.982L371.167,238.5L370.708,237.942L370.285,237.313L369.901,236.619L369.561,235.866L369.267,235.062L369.023,234.215L368.692,232.423L368.58,230.56L368.692,228.697L369.023,226.905L369.267,226.058L369.561,225.254L369.901,224.502L370.285,223.807L370.708,223.178L371.167,222.619L371.657,222.138L372.173,221.737L372.711,221.421L373.265,221.194L373.83,221.056L374.4,221.01ZM374.41,222.96L374.062,222.997L373.717,223.106L373.38,223.288L373.051,223.54L372.438,224.244L371.9,225.192L371.458,226.347L371.13,227.664L370.928,229.093L370.86,230.58L370.928,232.067L371.13,233.496L371.458,234.813L371.9,235.968L372.438,236.916L373.051,237.62L373.38,237.872L373.717,238.054L374.062,238.163L374.41,238.2L374.758,238.163L375.103,238.054L375.441,237.872L375.769,237.62L376.382,236.916L376.92,235.968L377.362,234.813L377.69,233.496L377.892,232.067L377.96,230.58L377.892,229.093L377.69,227.664L377.362,226.347L376.92,225.192L376.382,224.244L375.769,223.54L375.441,223.288L375.103,223.106L374.758,222.997L374.41,222.96Z" style="fill:rgb(77,66,65);fill-rule:nonzero;"/>
        <path d="M428.91,237.75L434.47,237.75L434.85,237.86L435.1,238.12L435.19,238.47L435.19,238.94L435.14,239.22L434.98,239.45L434.75,239.61L434.48,239.66L425.54,239.66L425.18,239.6L424.95,239.48L424.76,239.32L424.62,239.11L424.52,238.88L424.49,238.63L424.52,238.38L424.6,238.14L424.74,237.93L426.06,236.42L428.13,234.06L429.64,232.2L430.86,230.52L431.8,229L432.43,227.64L432.64,227.03L432.77,226.44L432.82,225.92L432.8,225.43L432.7,224.99L432.53,224.59L432.08,224.03L431.42,223.57L430.81,223.32L430.17,223.17L429.51,223.13L428.85,223.2L428.22,223.38L427.63,223.66L427.12,224.02L426.67,224.48L426.52,224.69L426.5,224.72L426.23,224.95L425.9,225.06L425.55,225.03L425.24,224.87L425.12,224.76L424.9,224.49L424.79,224.15L424.83,223.8L424.99,223.49L425.85,222.62L426.86,221.91L427.99,221.42L429.15,221.16L430.33,221.13L430.91,221.21L431.47,221.34L432.01,221.54L432.52,221.79L432.97,222.09L433.39,222.44L434.03,223.19L434.5,224.06L434.83,225.08L434.97,226.18L434.93,226.99L434.73,227.9L434.36,228.89L433.82,229.96L433.14,231.09L432.3,232.3L431.29,233.61L429.91,235.29L428.53,237.01L428.45,237.21L428.47,237.43L428.58,237.61L428.77,237.73L428.91,237.75Z" style="fill:rgb(77,66,65);fill-rule:nonzero;"/>
        <path d="M362.99,224.73L360.82,226.9L360.73,226.98L360.46,227.09L360.17,227.07L359.91,226.93L359.74,226.7L359.63,226.44L359.54,226.13L359.55,225.8L359.66,225.49L359.85,225.23L363.47,221.6L363.86,221.34L364.14,221.26L364.43,221.26L364.72,221.32L364.98,221.45L365.2,221.65L365.37,221.89L365.47,222.16L365.51,222.45L365.51,239.12L365.47,239.32L365.36,239.49L365.19,239.6L364.99,239.64L363.84,239.64L363.63,239.6L363.44,239.48L363.32,239.29L363.28,239.08L363.28,224.85L363.27,224.79L363.14,224.68L362.99,224.73Z" style="fill:rgb(77,66,65);fill-rule:nonzero;"/>
        <path d="M441.25,229.2L441.93,228.84L442.61,228.57L443.29,228.38L443.96,228.27L444.62,228.26L445.24,228.34L445.83,228.5L446.38,228.75L446.88,229.07L447.34,229.48L447.74,229.95L448.08,230.5L448.36,231.11L448.57,231.79L448.71,232.5L448.79,233.26L448.78,234.4L448.61,235.51L448.3,236.53L447.86,237.43L447.27,238.25L446.56,238.93L445.74,239.47L444.85,239.85L444.05,240.03L443.23,240.08L442.42,240.01L441.6,239.81L440.83,239.5L440.07,239.07L439.37,238.54L438.69,237.88L438.48,237.54L438.39,237.15L438.45,236.75L438.64,236.39L438.72,236.3L438.98,236.08L439.31,236L439.65,236.05L439.93,236.25L440,236.33L440.46,236.87L441.01,237.32L441.65,237.68L442.34,237.92L443.03,238.04L443.72,238.02L444.34,237.87L444.93,237.59L445.27,237.34L445.58,237.03L446.06,236.29L446.45,235.23L446.61,234.16L446.58,233.46L446.45,232.76L446.22,232.06L445.89,231.35L445.58,230.92L445.16,230.59L444.35,230.22L443.53,230.08L442.77,230.13L442,230.37L441.22,230.8L440.44,231.41L440.22,231.57L439.96,231.66L439.69,231.7L439.42,231.67L439.16,231.57L438.93,231.42L438.75,231.21L438.62,230.97L438.55,230.57L438.55,222.09L438.6,221.83L438.75,221.62L438.96,221.47L439.22,221.42L447.31,221.42L447.54,221.47L447.74,221.6L447.87,221.8L447.92,222.03L447.92,222.79L447.88,223.01L447.75,223.2L447.56,223.33L447.34,223.37L441.31,223.37L441.06,223.42L440.85,223.56L440.71,223.78L440.66,224.03L440.66,228.86L440.67,228.96L440.76,229.12L440.9,229.22L441.08,229.25L441.25,229.2Z" style="fill:rgb(77,66,65);fill-rule:nonzero;"/>
        <path d="M388.27,227.29L388.32,227.45L388.43,227.57L388.58,227.62L388.74,227.6L388.84,227.54L389.84,226.78L390.79,226.29L391.24,226.15L391.68,226.07L392.1,226.05L392.51,226.11L393.05,226.29L393.56,226.59L394.05,227.02L394.51,227.58L394.66,227.73L394.86,227.81L395.07,227.82L395.27,227.76L396.37,226.84L396.86,226.51L397.42,226.27L398.05,226.13L398.7,226.1L399.35,226.17L399.95,226.34L400.46,226.61L400.88,226.96L401.22,227.48L401.46,228.19L401.61,229.09L401.65,230.18L401.65,238.93L401.59,239.23L401.42,239.49L401.17,239.67L400.86,239.73L400.4,239.73L400.01,239.63L399.72,239.34L399.61,238.94L399.64,229.74L399.62,229.49L399.53,229.11L399.36,228.77L399.12,228.47L398.82,228.22L398.48,228.05L398.1,227.95L397.72,227.93L397.34,228L397.19,228.03L396.73,228.19L396.3,228.43L395.91,228.73L395.59,229.1L395.32,229.51L395.13,229.96L395.01,230.43L394.97,230.92L394.98,238.98L394.92,239.26L394.77,239.5L394.53,239.65L394.25,239.71L393.69,239.71L393.4,239.65L393.15,239.49L392.98,239.24L392.92,238.95L392.92,229.65L392.9,229.41L392.81,229.06L392.65,228.74L392.42,228.46L392.14,228.24L391.82,228.08L391.47,227.99L391.11,227.98L390.76,228.05L390.41,228.14L389.98,228.29L389.59,228.5L389.23,228.78L388.93,229.11L388.68,229.49L388.5,229.9L388.39,230.34L388.35,230.79L388.35,239.01L388.32,239.22L388.21,239.42L387.97,239.62L387.67,239.69L386.97,239.69L386.7,239.64L386.48,239.49L386.32,239.26L386.27,238.99L386.27,227.21L386.35,226.84L386.57,226.54L386.89,226.35L387.26,226.29L387.7,226.38L388.02,226.59L388.2,226.89L388.27,227.29Z" style="fill:rgb(77,66,65);fill-rule:nonzero;"/>
        <path d="M412.11,227.54L412.21,227.61L412.39,227.65L412.56,227.61L412.7,227.48L412.77,227.31L412.91,227.02L413.27,226.57L413.61,226.34L414.02,226.31L414.4,226.46L414.65,226.78L414.73,227.11L414.82,233.52L414.77,239.53L414.64,240.97L414.33,242.19L414.1,242.72L413.82,243.19L413.5,243.61L413.13,243.98L412.68,244.32L412.16,244.59L411.59,244.8L410.97,244.94L410.28,245.02L409.55,245.04L407.9,244.87L407.03,244.67L406.32,244.39L405.78,244.03L405.41,243.59L405.32,243.38L405.28,243.15L405.31,242.92L405.4,242.71L405.63,242.3L405.64,242.29L405.76,242.15L405.94,242.07L406.12,242.07L406.3,242.14L407.04,242.56L407.76,242.88L408.47,243.11L409.14,243.24L409.76,243.27L410.35,243.21L410.88,243.04L411.37,242.78L411.71,242.49L412.01,242.14L412.27,241.72L412.48,241.23L412.63,240.69L412.72,240.08L412.75,238.74L412.63,238.52L412.38,238.49L412.31,238.53L411.16,239.24L410.6,239.5L410.05,239.68L409.53,239.79L409.03,239.83L408.52,239.8L408.05,239.7L407.33,239.39L406.69,238.92L406.1,238.28L405.61,237.51L405.18,236.57L404.86,235.54L404.65,234.41L404.56,233.24L404.58,232.09L404.73,230.95L404.98,229.91L405.35,228.94L405.8,228.13L406.35,227.43L406.97,226.89L407.69,226.49L408.45,226.25L409.31,226.18L410.2,226.27L411.18,226.53L411.37,226.69L411.65,227.04L412.11,227.54ZM409.846,227.81L409.225,227.904L408.626,228.192L408.073,228.662L407.587,229.297L407.186,230.071L406.886,230.956L406.698,231.917L406.63,232.918L406.684,233.919L406.858,234.883L407.146,235.772L407.536,236.552L408.014,237.193L408.56,237.671L409.155,237.967L409.774,238.07L410.395,237.976L410.994,237.688L411.547,237.218L412.033,236.583L412.434,235.809L412.734,234.924L412.922,233.963L412.99,232.962L412.936,231.961L412.762,230.997L412.474,230.109L412.084,229.328L411.606,228.687L411.06,228.209L410.466,227.913L409.846,227.81Z" style="fill:rgb(77,66,65);fill-rule:nonzero;"/>
        <path d="M456.98,227.28L457.02,227.44L457.13,227.56L457.29,227.61L457.45,227.59L457.55,227.53L458.55,226.78L459.49,226.29L459.94,226.14L460.38,226.06L460.8,226.05L461.21,226.11L461.75,226.29L462.26,226.59L462.75,227.02L463.2,227.58L463.35,227.73L463.55,227.81L463.76,227.82L463.96,227.76L465.06,226.84L465.55,226.51L466.11,226.28L466.74,226.14L467.38,226.1L468.03,226.17L468.64,226.35L469.14,226.61L469.56,226.97L469.9,227.49L470.14,228.19L470.28,229.09L470.32,230.18L470.31,238.91L470.26,239.21L470.09,239.47L469.83,239.65L469.53,239.71L469.07,239.71L468.73,239.63L468.55,239.51L468.4,239.34L468.31,239.14L468.28,238.92L468.32,229.74L468.3,229.49L468.21,229.11L468.04,228.77L467.8,228.47L467.5,228.22L467.16,228.05L466.79,227.95L466.4,227.94L466.03,228L465.88,228.03L465.42,228.19L464.99,228.43L464.6,228.73L464.27,229.09L464.01,229.5L463.81,229.95L463.7,230.42L463.66,230.91L463.66,238.95L463.6,239.23L463.45,239.47L463.21,239.62L462.93,239.68L462.37,239.68L462.08,239.62L461.83,239.46L461.66,239.21L461.6,238.92L461.61,229.64L461.6,229.4L461.51,229.05L461.35,228.73L461.12,228.46L460.84,228.23L460.52,228.07L460.17,227.99L459.81,227.98L459.46,228.04L459.11,228.13L458.69,228.28L458.29,228.49L457.93,228.77L457.63,229.1L457.38,229.48L457.2,229.89L457.09,230.32L457.05,230.77L457.04,238.98L457.01,239.18L456.92,239.36L456.68,239.58L456.37,239.65L455.67,239.65L455.45,239.62L455.25,239.52L455.1,239.36L455,239.16L454.97,238.95L454.98,227.22L454.98,227.2L455.07,226.83L455.28,226.53L455.6,226.34L455.97,226.28L456.41,226.37L456.72,226.58L456.9,226.88L456.98,227.28Z" style="fill:rgb(77,66,65);fill-rule:nonzero;"/>
        <path d="M481.44,227.31L481.59,227.02L481.94,226.57L482.28,226.34L482.69,226.3L483.07,226.46L483.32,226.78L483.4,227.11L483.49,233.52L483.44,239.53L483.31,240.97L483,242.19L482.77,242.72L482.49,243.19L482.17,243.61L481.8,243.98L481.35,244.32L480.83,244.59L480.26,244.8L479.64,244.95L478.95,245.02L478.22,245.04L476.57,244.87L475.69,244.67L474.99,244.39L474.45,244.03L474.08,243.59L473.99,243.38L473.95,243.15L473.98,242.92L474.07,242.71L474.3,242.3L474.31,242.29L474.43,242.15L474.61,242.08L474.79,242.07L474.97,242.14L475.71,242.56L476.43,242.88L477.13,243.11L477.81,243.24L478.43,243.27L479.02,243.21L479.55,243.04L480.04,242.78L480.38,242.49L480.69,242.14L480.94,241.72L481.15,241.23L481.3,240.69L481.39,240.08L481.42,238.74L481.3,238.52L481.05,238.49L480.98,238.53L479.83,239.24L479.27,239.5L478.72,239.68L478.2,239.79L477.7,239.83L477.19,239.8L476.72,239.7L476,239.39L475.36,238.92L474.77,238.28L474.27,237.51L473.85,236.57L473.53,235.54L473.32,234.41L473.23,233.24L473.25,232.09L473.4,230.95L473.65,229.91L474.02,228.94L474.47,228.12L475.02,227.42L475.64,226.88L476.35,226.49L477.12,226.25L477.98,226.18L478.87,226.27L479.85,226.53L480.04,226.68L480.32,227.04L480.78,227.54L480.88,227.61L481.06,227.65L481.24,227.6L481.37,227.48L481.44,227.31ZM478.544,227.78L477.907,227.873L477.293,228.162L476.724,228.636L476.223,229.276L475.81,230.058L475.499,230.952L475.303,231.924L475.23,232.936L475.282,233.949L475.458,234.925L475.749,235.825L476.147,236.616L476.634,237.266L477.192,237.752L477.801,238.053L478.436,238.16L479.073,238.067L479.687,237.778L480.256,237.304L480.757,236.664L481.17,235.882L481.481,234.988L481.677,234.016L481.75,233.004L481.698,231.991L481.522,231.016L481.231,230.115L480.834,229.325L480.346,228.674L479.788,228.188L479.179,227.887L478.544,227.78Z" style="fill:rgb(77,66,65);fill-rule:nonzero;"/>
        <path d="M400.75,69.06L407.23,75.86L362.93,119.83L369.09,104.09L375.36,88.48L376.8,84.84L378.17,81.18L379.47,77.51L380.69,73.82L381.84,70.11L382.92,66.38L383.92,62.64L384.85,58.88L385.96,53.93L386.01,53.8L386.15,53.65L386.35,53.57L386.56,53.6L386.74,53.72L400.75,69.06Z" style="fill:rgb(255,212,0);fill-rule:nonzero;"/>
        <path d="M420.06,87.38L424.95,90.8L427.21,92.27L429.47,93.54L431.7,94.6L433.93,95.45L435.96,96.14L437.64,96.58L439.35,96.93L441.09,97.17L442.86,97.31L436.31,100.59L429.89,103.95L423.63,107.38L417.51,110.89L411.51,114.48L405.65,118.16L399.91,121.92L394.32,125.77L388.83,129.7L383.48,133.72L378.22,137.85L373.09,142.07L368.07,146.38L363.18,150.78L358.37,155.3L353.69,159.9L353.62,159.95L353.43,159.91L353.36,159.74L354.43,151.58L357.39,149.21L359.14,147.64L378.42,128.24L397.25,109.53L416.18,90.92L418.06,89.15L420.06,87.38Z" style="fill:rgb(255,212,0);fill-rule:nonzero;"/>
        <path d="M457.76,64.61L459.57,66.63L461.23,68.69L462.64,70.66L463.77,72.48L464.61,74.15L465.17,75.67L465.33,76.35L465.43,77.01L465.46,77.61L465.41,78.19L465.2,78.96L464.82,79.58L464.26,80.07L463.53,80.42L461.5,80.13L459.52,79.75L457.58,79.29L455.7,78.74L453.86,78.11L452.07,77.39L450.33,76.59L448.63,75.7L447.32,74.92L446.03,74.1L457.76,64.61Z" style="fill:rgb(125,117,117);fill-rule:nonzero;"/>
        <path d="M437.53,67.56L445.11,73.56L424.95,90.8L420.06,87.38L409.44,78.03L412.58,75.2L415.74,72.45L418.93,69.76L422.13,67.14L423.97,65.57L425.74,63.89L427.42,62.11L429.02,60.21L432.83,63.81L436.7,67.33L436.85,67.44L437.16,67.55L437.53,67.56Z" style="fill:rgb(80,186,184);fill-rule:nonzero;"/>
        <path d="M407.23,75.86L409.44,78.03L420.06,87.38L418.06,89.15L416.18,90.92L397.25,109.53L378.42,128.24L359.14,147.64L357.39,149.21L354.43,151.58L355.16,147.54L355.98,143.53L356.9,139.55L357.9,135.61L358.99,131.7L360.17,127.82L361.44,123.97L362.81,120.16L362.93,119.83L407.23,75.86Z" style="fill:rgb(255,225,80);fill-rule:nonzero;"/>
    </g>
</svg>
