<?xml version="1.0" encoding="UTF-8" standalone="no"?>
<!DOCTYPE svg PUBLIC "-//W3C//DTD SVG 1.1//EN" "http://www.w3.org/Graphics/SVG/1.1/DTD/svg11.dtd">
<svg width="100%" height="100%" viewBox="0 0 1288 693" version="1.1" xmlns="http://www.w3.org/2000/svg" xmlns:xlink="http://www.w3.org/1999/xlink" xml:space="preserve" xmlns:serif="http://www.serif.com/" style="fill-rule:evenodd;clip-rule:evenodd;stroke-linejoin:round;stroke-miterlimit:2;">
    <g transform="matrix(1,0,0,1,-0.45,-0.53)">
        <path d="M805.72,76.07L771.94,130.46L716.82,218.9L716.56,219.15L716.21,219.24L641.01,219.21L638.58,219.1L636.19,218.76L634.85,218.48L633.53,218.12L632.22,217.69L630.92,217.19L629.63,216.62L628.36,215.98L627.1,215.26L625.85,214.48L623.89,213.07L622.1,211.53L620.43,209.84L618.94,208.03L618.03,206.77L617.21,205.46L616.46,204.12L615.78,202.74L615.18,201.3L614.66,199.84L614.21,198.34L613.85,196.82L613.56,195.27L613.36,193.69L613.24,192.1L613.2,190.49L613.24,188.89L613.37,187.28L613.58,185.66L613.87,184.04L614.18,182.91L614.68,181.54L615.39,179.95L616.29,178.14L617.38,176.09L618.67,173.82L621.85,168.59L661.35,105.52L719.27,12.78L720.29,11.34L721.68,9.67L723.08,8.19L724.3,7.11L725.91,5.94L727.57,4.89L729.31,3.93L731.08,3.08L732.9,2.35L734.75,1.75L736.62,1.26L738.51,0.89L740.41,0.65L742.31,0.53L744.21,0.54L746.11,0.68L747.98,0.94L749.83,1.32L751.63,1.83L753.4,2.46L755.68,3.48L757.88,4.72L759.99,6.18L761.95,7.81L763.31,9.22L764.86,11.16L766.61,13.62L768.56,16.62L805.72,76.07Z" style="fill:rgb(93,0,150);fill-rule:nonzero;"/>
        <path d="M772.01,230.92L774.97,231.01L777.71,231.26L780.21,231.68L782.49,232.26L784.57,233.03L785.53,233.47L786.45,233.96L787.31,234.49L788.13,235.07L788.9,235.7L789.62,236.37L790.31,237.1L790.96,237.89L791.56,238.72L792.11,239.6L792.62,240.55L793.08,241.54L793.49,242.59L793.86,243.69L794.48,246.09L794.91,248.69L795.17,251.57L795.25,254.67L795.17,257.78L794.91,260.65L794.47,263.26L793.86,265.65L793.49,266.75L793.08,267.8L792.61,268.8L792.1,269.75L791.55,270.63L790.95,271.46L790.31,272.25L789.62,272.98L788.89,273.65L788.12,274.27L787.31,274.85L786.44,275.39L785.53,275.87L784.56,276.32L782.49,277.08L780.2,277.67L777.71,278.09L774.97,278.34L772,278.42L769.04,278.34L766.29,278.08L763.8,277.67L761.52,277.08L759.44,276.32L758.48,275.87L757.56,275.38L756.7,274.85L755.88,274.27L755.11,273.65L754.39,272.98L753.7,272.24L753.05,271.46L752.45,270.62L751.9,269.74L751.39,268.79L750.93,267.8L750.51,266.75L750.14,265.65L749.53,263.26L749.1,260.65L748.84,257.77L748.76,254.67L748.84,251.56L749.1,248.69L749.53,246.08L750.15,243.69L750.52,242.59L750.93,241.54L751.4,240.54L751.91,239.6L752.46,238.71L753.05,237.88L753.7,237.1L754.39,236.36L755.12,235.69L755.89,235.07L756.7,234.49L757.57,233.96L758.48,233.47L759.44,233.02L761.52,232.26L763.81,231.67L766.3,231.26L769.04,231L772.01,230.92Z" style="fill:rgb(93,0,150);fill-rule:nonzero;"/>
        <path d="M1083.25,296.7L1083.25,336.1L1083.21,336.29L1083.1,336.44L1082.94,336.54L1082.75,336.56L1082.72,336.56L1079.4,336.12L1076.13,335.82L1072.93,335.67L1069.77,335.66L1066.65,335.79L1063.57,336.06L1060.52,336.48L1057.5,337.04L1053.91,337.9L1050.37,338.97L1046.85,340.25L1043.38,341.73L1039.9,343.44L1036.46,345.36L1033.04,347.49L1029.6,349.86L1029.34,350.17L1029.24,350.57L1029.24,459.45L1029.15,459.67L1028.93,459.76L988.32,459.76L988.09,459.67L988,459.44L988,301.19L988.03,301.02L988.13,300.88L988.27,300.78L988.44,300.75L1023.58,300.75L1023.79,300.78L1023.99,300.88L1024.15,301.04L1024.25,301.23L1029.06,314.89L1029.16,315.05L1029.32,315.16L1029.51,315.18L1029.69,315.12L1029.76,315.07L1032.59,312.59L1035.53,310.25L1038.58,308.07L1041.72,306.04L1044.94,304.18L1048.23,302.5L1051.57,300.99L1054.97,299.67L1058.38,298.54L1061.84,297.6L1065.3,296.86L1068.8,296.3L1072.26,295.95L1075.75,295.79L1079.23,295.82L1082.67,296.06L1082.9,296.12L1083.08,296.27L1083.21,296.47L1083.25,296.7Z" style="fill:rgb(93,0,150);fill-rule:nonzero;"/>
        <path d="M49.28,313.32L49.3,313.36L49.39,313.48L49.53,313.55L49.69,313.56L49.83,313.5L52.8,311.57L55.72,309.76L58.6,308.05L61.44,306.45L65.25,304.48L69.19,302.69L73.17,301.11L77.18,299.76L81.14,298.65L85.05,297.78L88.86,297.17L90.73,296.96L92.59,296.81L94.37,296.73L96.14,296.71L97.87,296.75L99.58,296.85L101.23,297.02L102.86,297.25L104.44,297.54L106,297.89L107.5,298.31L108.98,298.79L110.41,299.33L111.81,299.93L113.15,300.59L114.46,301.31L115.71,302.09L116.93,302.94L118.56,304.21L120.12,305.62L121.57,307.14L122.96,308.79L124.24,310.53L125.44,312.4L126.54,314.38L127.56,316.49L127.58,316.54L127.73,316.7L127.92,316.79L128.14,316.79L128.34,316.7L131.76,314.32L134.88,312.22L137.81,310.33L140.64,308.59L143.37,307L146.05,305.53L148.66,304.2L151.24,302.98L153.83,301.86L156.4,300.86L158.95,299.97L161.48,299.18L164.02,298.51L166.54,297.94L169.1,297.47L171.65,297.11L173.57,296.91L175.44,296.79L177.3,296.73L179.11,296.75L180.89,296.83L182.61,296.99L184.32,297.21L185.98,297.51L187.6,297.88L189.18,298.31L190.73,298.82L192.24,299.4L193.69,300.04L195.1,300.75L196.47,301.53L197.8,302.38L199.69,303.77L201.47,305.29L203.14,306.96L204.7,308.76L206.17,310.72L207.51,312.8L208.73,315.02L209.84,317.35L210.83,319.81L211.68,322.38L212.42,325.07L213.03,327.85L213.5,330.72L213.84,333.66L214.06,336.71L214.14,339.82L214.26,394.17L214.2,459.49L214.12,459.68L213.93,459.76L173.44,459.76L173.18,459.67L173.05,459.52L173,459.32L173,351.5L172.86,349.33L172.44,345.56L172.21,344.11L171.89,342.75L171.48,341.47L170.99,340.29L170.4,339.17L169.72,338.15L168.96,337.21L168.12,336.37L167.31,335.71L166.44,335.12L165.5,334.6L164.51,334.16L163.45,333.79L162.34,333.5L161.17,333.28L159.96,333.15L158.7,333.1L157.41,333.12L156.06,333.23L154.7,333.41L153.32,333.68L151.94,334.01L150.52,334.43L149.11,334.92L148.85,335.02L146.69,335.87L144.56,336.81L142.46,337.82L140.39,338.91L138.35,340.08L136.34,341.33L134.35,342.66L132.4,344.06L132.11,344.41L132,344.86L132,459.19L131.9,459.51L131.7,459.69L131.43,459.76L91.1,459.76L90.85,459.66L90.74,459.41L90.75,383.15L90.71,347.28L90.67,346.38L90.55,345.44L90.36,344.47L90.09,343.46L89.31,341.32L88.23,339.03L87.4,337.69L86.9,337.07L86.38,336.5L85.53,335.76L84.62,335.12L83.61,334.56L82.53,334.1L81.37,333.73L80.1,333.45L78.79,333.27L77.38,333.18L75.89,333.18L74.33,333.28L72.7,333.48L71.02,333.78L69.32,334.17L67.62,334.64L65.92,335.2L64.28,335.83L61.66,336.97L58.77,338.36L55.94,339.88L53.17,341.52L50.46,343.28L50.14,343.64L50.02,344.11L50.02,459.28L49.98,459.46L49.88,459.62L49.73,459.72L49.54,459.76L9.07,459.76L8.84,459.67L8.75,459.44L8.75,301.37L8.8,301.13L8.93,300.93L9.13,300.8L9.37,300.75L44.4,300.75L44.6,300.78L44.77,300.87L44.92,301.01L45.01,301.18L49.28,313.32Z" style="fill:rgb(93,0,150);fill-rule:nonzero;"/>
        <path d="M389.27,380.23L389.18,386.33L388.92,392.11L388.49,397.65L387.88,402.9L387.1,407.91L386.14,412.7L385.01,417.25L383.69,421.6L382.96,423.67L382.19,425.71L381.37,427.68L380.5,429.61L379.6,431.47L378.64,433.29L377.64,435.04L376.58,436.75L375.49,438.39L374.35,440L373.16,441.54L371.92,443.04L370.64,444.46L369.31,445.84L367.94,447.16L366.52,448.44L364.76,449.89L362.91,451.28L361.01,452.58L359.03,453.81L357,454.95L354.89,456.02L352.72,457.01L350.47,457.93L346.58,459.29L342.54,460.47L338.32,461.47L333.95,462.28L329.37,462.91L324.63,463.35L319.71,463.62L314.54,463.71L309.38,463.62L304.45,463.35L299.71,462.9L295.14,462.26L290.76,461.45L286.54,460.45L282.51,459.27L278.62,457.9L276.37,456.98L274.2,455.99L272.09,454.92L270.06,453.78L268.08,452.54L266.18,451.24L264.34,449.85L262.58,448.4L261.15,447.12L259.79,445.8L258.46,444.42L257.18,442.99L255.94,441.49L254.76,439.95L253.61,438.35L252.52,436.7L251.47,434.99L250.47,433.24L249.51,431.42L248.61,429.56L247.74,427.63L246.93,425.66L246.15,423.61L245.43,421.54L244.11,417.2L242.98,412.65L242.02,407.85L241.25,402.84L240.65,397.59L240.22,392.06L239.97,386.28L239.88,380.18L239.97,374.08L240.23,368.3L240.66,362.76L241.27,357.51L242.05,352.5L243.01,347.71L244.14,343.16L245.46,338.82L246.19,336.74L246.96,334.7L247.78,332.73L248.65,330.8L249.55,328.94L250.51,327.13L251.51,325.37L252.57,323.66L253.66,322.02L254.8,320.41L255.99,318.87L257.23,317.38L258.51,315.95L259.84,314.57L261.2,313.25L262.63,311.97L264.39,310.52L266.24,309.13L268.14,307.83L270.12,306.6L272.15,305.46L274.26,304.39L276.43,303.4L278.68,302.48L282.57,301.12L286.6,299.94L290.82,298.94L295.2,298.13L299.78,297.5L304.52,297.06L309.44,296.79L314.61,296.7L319.77,296.8L324.7,297.07L329.44,297.52L334.01,298.15L338.39,298.96L342.61,299.96L346.64,301.14L350.53,302.51L352.78,303.43L354.95,304.42L357.06,305.49L359.09,306.64L361.07,307.87L362.97,309.17L364.81,310.56L366.57,312.01L368,313.29L369.36,314.61L370.69,315.99L371.96,317.42L373.21,318.92L374.39,320.46L375.54,322.07L376.63,323.71L377.68,325.42L378.68,327.18L379.64,328.99L380.54,330.85L381.41,332.79L382.22,334.76L383,336.8L383.72,338.87L385.04,343.21L386.17,347.76L387.13,352.56L387.9,357.57L388.5,362.82L388.93,368.36L389.18,374.14L389.27,380.23ZM282.13,380.2L282.17,385.95L282.28,390.63L282.5,394.83L282.83,398.66L283.28,402.31L283.86,405.78L284.58,409.06L285.44,412.22L286.01,413.93L286.64,415.52L287.35,417.03L288.13,418.43L288.99,419.76L289.91,420.97L290.92,422.11L292,423.14L292.93,423.91L293.91,424.63L294.95,425.29L296.04,425.89L297.2,426.45L298.41,426.95L299.69,427.4L301.01,427.79L302.4,428.13L303.89,428.42L307.04,428.86L310.55,429.12L314.55,429.21L318.56,429.13L322.06,428.87L325.22,428.43L326.71,428.13L328.09,427.79L329.42,427.4L330.7,426.96L331.9,426.46L333.07,425.9L334.15,425.3L335.2,424.64L336.18,423.93L337.11,423.15L338.19,422.12L339.2,420.98L340.12,419.77L340.99,418.44L341.76,417.05L342.47,415.54L343.11,413.94L343.68,412.23L344.54,409.08L345.26,405.8L345.84,402.33L346.3,398.68L346.62,394.85L346.84,390.65L346.96,385.97L347,380.21L346.97,374.46L346.85,369.78L346.63,365.58L346.3,361.75L345.85,358.1L345.27,354.63L344.55,351.35L343.69,348.19L343.12,346.48L342.49,344.89L341.78,343.38L341.01,341.98L340.15,340.66L339.22,339.44L338.21,338.31L337.14,337.28L336.2,336.5L335.22,335.78L334.18,335.12L333.09,334.52L331.93,333.96L330.72,333.47L329.44,333.02L328.12,332.63L326.73,332.29L325.25,331.99L322.09,331.55L318.58,331.29L314.58,331.2L310.58,331.29L307.07,331.54L303.91,331.98L302.42,332.28L301.04,332.62L299.72,333.01L298.43,333.46L297.23,333.95L296.06,334.51L294.98,335.11L293.93,335.77L292.96,336.49L292.02,337.27L290.94,338.29L289.93,339.43L289.01,340.64L288.15,341.97L287.37,343.37L286.66,344.87L286.02,346.47L285.46,348.18L284.59,351.33L283.88,354.62L283.29,358.08L282.84,361.74L282.51,365.57L282.29,369.77L282.17,374.45L282.13,380.2Z" style="fill:rgb(93,0,150);fill-rule:nonzero;"/>
        <path d="M625.19,316.11L628.97,313.48L632.69,311.04L636.33,308.8L639.93,306.75L643.45,304.88L646.94,303.2L650.37,301.7L653.76,300.38L656.99,299.3L660.21,298.41L663.43,297.71L666.66,297.2L668.69,296.98L670.73,296.83L672.78,296.75L674.85,296.74L676.93,296.81L679.03,296.95L681.17,297.16L683.34,297.44L686.84,298.06L690.11,298.87L691.68,299.35L693.19,299.87L694.64,300.43L696.04,301.05L697.41,301.71L698.72,302.43L699.98,303.18L701.18,303.99L702.34,304.84L703.44,305.75L704.5,306.69L705.49,307.68L706.68,309L707.79,310.38L708.83,311.86L709.79,313.41L710.66,315.03L711.46,316.71L712.18,318.49L712.83,320.34L713.4,322.27L713.89,324.27L714.31,326.36L714.65,328.51L714.91,330.77L715.1,333.1L715.21,335.52L715.25,338L715.25,459.12L715.21,459.36L715.07,459.57L714.87,459.71L714.62,459.76L674.33,459.76L674.08,459.65L673.97,459.4L673.97,350.25L673.89,347.86L673.67,345.57L673.29,343.37L672.76,341.27L672.24,339.81L671.58,338.45L670.79,337.25L669.84,336.16L669.08,335.46L668.26,334.85L667.37,334.29L666.43,333.82L665.39,333.41L664.32,333.08L663.17,332.82L662,332.64L660.73,332.54L659.44,332.51L658.1,332.57L656.75,332.7L655.34,332.91L653.96,333.2L652.55,333.56L651.19,333.99L648.21,335.1L645.15,336.43L641.99,337.99L638.73,339.76L635.39,341.76L631.95,343.98L628.42,346.42L624.8,349.08L624.6,349.27L624.45,349.5L624.36,349.76L624.33,350.03L624.33,459.37L624.22,459.64L623.95,459.75L583.29,459.75L583.06,459.65L582.96,459.42L582.96,301.22L583,301.02L583.11,300.85L583.28,300.74L583.48,300.7L618.58,300.7L618.81,300.74L619.01,300.84L619.18,301L619.29,301.2L624.45,315.87L624.48,315.93L624.61,316.09L624.79,316.18L625,316.19L625.19,316.11Z" style="fill:rgb(93,0,150);fill-rule:nonzero;"/>
        <path d="M833.09,341.84L832.88,341.83L832.75,341.65L832.75,306.63L832.78,306.42L832.88,306.24L833.03,306.1L833.22,306.01L839.68,304.24L846.21,302.64L852.81,301.23L859.48,300.01L866.23,298.96L873.04,298.1L879.93,297.42L886.89,296.92L891.73,296.73L896.49,296.72L901.17,296.9L905.76,297.27L910.26,297.82L914.69,298.56L919.02,299.49L923.27,300.6L926.12,301.5L928.81,302.53L931.39,303.7L933.8,305L936.11,306.44L938.26,308.01L940.28,309.72L942.15,311.54L943.55,313.11L944.86,314.74L946.08,316.48L947.21,318.28L948.26,320.18L949.21,322.15L950.08,324.22L950.85,326.35L951.53,328.58L952.12,330.87L952.63,333.25L953.03,335.69L953.35,338.24L953.58,340.84L953.72,343.54L953.76,346.28L953.76,459.33L953.73,459.49L953.63,459.63L953.49,459.73L953.32,459.76L919.63,459.76L919.38,459.72L919.15,459.61L918.96,459.43L918.84,459.2L913.98,445.39L913.89,445.25L913.76,445.16L913.6,445.13L913.44,445.17L913.4,445.2L910.26,447.36L907.14,449.38L903.98,451.27L900.83,453.01L897.66,454.62L894.5,456.09L891.31,457.42L888.15,458.61L884.98,459.65L881.79,460.56L878.61,461.33L875.4,461.96L872.23,462.45L869.03,462.8L865.84,463L862.63,463.07L858.6,462.95L854.6,462.61L850.56,462.04L846.55,461.25L844.31,460.68L842.19,460.01L840.15,459.23L838.23,458.36L836.37,457.36L834.62,456.27L832.96,455.06L831.41,453.76L830.13,452.54L828.94,451.24L827.8,449.86L826.75,448.41L825.75,446.86L824.84,445.24L823.99,443.53L823.23,441.76L822.52,439.89L821.9,437.96L821.34,435.93L820.86,433.85L820.45,431.69L820.11,429.41L819.84,427.09L819.64,424.67L819.44,420.77L819.37,416.95L819.43,413.2L819.61,409.53L819.92,405.94L820.36,402.42L820.92,398.98L821.61,395.62L822.27,393.04L823.05,390.56L823.95,388.19L824.98,385.93L826.13,383.78L827.39,381.73L828.78,379.8L830.3,377.97L831.83,376.34L833.48,374.8L835.24,373.37L837.1,372.03L839.07,370.78L841.15,369.63L843.34,368.58L845.64,367.62L848.85,366.46L852.2,365.4L855.68,364.45L859.3,363.62L863.05,362.88L866.93,362.26L870.95,361.75L875.1,361.34L879.68,360.99L884.31,360.71L889,360.48L893.74,360.33L898.53,360.23L903.37,360.2L908.26,360.23L913.21,360.32L913.38,360.29L913.53,360.2L913.64,360.05L913.68,359.88L913.78,355.78L913.81,351.9L913.74,348.23L913.6,344.76L913.49,343.51L913.32,342.33L913.07,341.19L912.75,340.12L912.35,339.09L911.89,338.12L911.35,337.21L910.74,336.36L910.18,335.69L909.57,335.06L908.89,334.47L908.18,333.92L907.4,333.4L906.58,332.92L904.77,332.09L902.77,331.42L900.57,330.91L898.13,330.54L895.5,330.33L890.79,330.22L885.84,330.34L880.66,330.68L875.24,331.25L869.49,332.06L864.87,332.85L860.27,333.76L855.69,334.8L851.13,335.96L846.59,337.25L842.07,338.65L837.57,340.19L833.09,341.84ZM913.38,388.47L908.43,388.3L902.84,388.22L896.62,388.22L889.76,388.3L886.83,388.38L884.24,388.51L881.86,388.7L879.61,388.96L877.49,389.28L875.48,389.68L873.6,390.14L871.83,390.68L870.15,391.3L868.59,391.98L867.11,392.76L865.76,393.6L864.51,394.53L863.38,395.51L862.33,396.6L861.41,397.75L860.61,398.94L859.9,400.23L859.31,401.58L858.8,403.02L858.31,404.82L857.93,406.67L857.65,408.56L857.47,410.5L857.41,412.49L857.45,414.52L857.59,416.6L857.84,418.72L858.11,420.26L858.46,421.72L858.89,423.09L859.41,424.38L860.01,425.58L860.7,426.7L861.48,427.74L862.34,428.69L863.27,429.55L864.28,430.32L865.37,431.01L866.55,431.63L867.8,432.16L869.14,432.61L870.57,432.97L872.07,433.26L874.57,433.58L877.13,433.73L879.68,433.72L882.29,433.55L884.91,433.22L887.57,432.72L890.21,432.07L892.88,431.26L895.55,430.28L898.23,429.15L900.85,427.87L903.47,426.45L906.03,424.88L908.56,423.17L911.02,421.35L913.38,419.42L913.65,419.05L913.75,418.6L913.75,388.86L913.64,388.59L913.38,388.47Z" style="fill:rgb(93,0,150);fill-rule:nonzero;"/>
        <path d="M1172.69,296.7L1177.86,296.79L1182.78,297.06L1187.52,297.5L1192.1,298.14L1196.47,298.95L1200.69,299.94L1204.73,301.12L1208.62,302.49L1210.87,303.41L1213.04,304.39L1215.15,305.47L1217.18,306.61L1219.16,307.84L1221.06,309.14L1222.91,310.53L1224.67,311.98L1226.09,313.26L1227.46,314.58L1228.79,315.96L1230.06,317.38L1231.31,318.88L1232.49,320.42L1233.64,322.03L1234.73,323.67L1235.78,325.39L1236.78,327.14L1237.74,328.96L1238.64,330.81L1239.52,332.75L1240.33,334.71L1241.11,336.76L1241.83,338.83L1243.15,343.17L1244.28,347.72L1245.24,352.52L1246.02,357.53L1246.63,362.78L1247.06,368.31L1247.31,374.09L1247.4,380.19L1247.32,386.29L1247.06,392.07L1246.63,397.61L1246.03,402.86L1245.25,407.87L1244.3,412.66L1243.16,417.21L1241.84,421.56L1241.12,423.63L1240.35,425.67L1239.53,427.64L1238.66,429.58L1237.76,431.43L1236.8,433.25L1235.8,435L1234.75,436.72L1233.66,438.36L1232.51,439.96L1231.33,441.5L1230.09,443L1228.81,444.43L1227.48,445.81L1226.12,447.13L1224.69,448.41L1222.93,449.86L1221.09,451.25L1219.19,452.55L1217.2,453.79L1215.18,454.93L1213.06,456L1210.9,456.99L1208.64,457.91L1204.76,459.28L1200.72,460.46L1196.5,461.45L1192.13,462.27L1187.55,462.9L1182.81,463.35L1177.89,463.62L1172.72,463.71L1167.56,463.62L1162.63,463.35L1157.89,462.91L1153.32,462.27L1148.94,461.46L1144.72,460.47L1140.68,459.29L1136.8,457.92L1134.55,457L1132.38,456.01L1130.27,454.94L1128.24,453.8L1126.25,452.57L1124.35,451.27L1122.51,449.88L1120.75,448.43L1119.32,447.15L1117.96,445.83L1116.63,444.45L1115.35,443.02L1114.11,441.53L1112.92,439.99L1111.78,438.38L1110.69,436.74L1109.63,435.02L1108.63,433.27L1107.67,431.45L1106.77,429.6L1105.9,427.66L1105.08,425.69L1104.31,423.65L1103.59,421.58L1102.27,417.24L1101.13,412.69L1100.17,407.89L1099.39,402.88L1098.79,397.63L1098.36,392.1L1098.1,386.32L1098.01,380.22L1098.1,374.12L1098.35,368.34L1098.78,362.8L1099.38,357.55L1100.16,352.54L1101.12,347.75L1102.25,343.2L1103.57,338.85L1104.29,336.78L1105.07,334.74L1105.88,332.77L1106.75,330.83L1107.66,328.98L1108.61,327.16L1109.61,325.41L1110.67,323.69L1111.76,322.05L1112.9,320.45L1114.09,318.91L1115.33,317.41L1116.6,315.98L1117.93,314.6L1119.3,313.28L1120.72,312L1122.48,310.55L1124.33,309.16L1126.23,307.86L1128.21,306.62L1130.24,305.48L1132.35,304.41L1134.52,303.42L1136.77,302.5L1140.65,301.13L1144.69,299.95L1148.91,298.95L1153.29,298.14L1157.86,297.51L1162.6,297.06L1167.53,296.79L1172.69,296.7ZM1140.27,380.2L1140.31,385.95L1140.43,390.63L1140.65,394.83L1140.97,398.66L1141.42,402.32L1142.01,405.78L1142.73,409.07L1143.59,412.22L1144.16,413.93L1144.79,415.52L1145.5,417.03L1146.27,418.43L1147.14,419.76L1148.06,420.97L1149.07,422.11L1150.15,423.13L1151.08,423.91L1152.06,424.63L1153.11,425.29L1154.19,425.89L1155.35,426.45L1156.56,426.94L1157.84,427.39L1159.16,427.78L1160.55,428.12L1162.04,428.42L1165.19,428.86L1168.7,429.12L1172.7,429.2L1176.71,429.12L1180.21,428.86L1183.37,428.42L1184.86,428.12L1186.24,427.78L1187.56,427.39L1188.85,426.94L1190.05,426.45L1191.22,425.89L1192.3,425.29L1193.35,424.63L1194.32,423.91L1195.26,423.13L1196.33,422.11L1197.34,420.97L1198.27,419.76L1199.13,418.43L1199.91,417.03L1200.62,415.52L1201.25,413.93L1201.82,412.22L1202.68,409.07L1203.4,405.78L1203.98,402.32L1204.43,398.66L1204.76,394.83L1204.98,390.63L1205.1,385.95L1205.14,380.2L1205.1,374.45L1204.98,369.77L1204.76,365.57L1204.43,361.74L1203.98,358.09L1203.4,354.62L1202.68,351.34L1201.82,348.18L1201.25,346.48L1200.62,344.88L1199.91,343.37L1199.13,341.97L1198.27,340.65L1197.34,339.43L1196.33,338.3L1195.26,337.27L1194.32,336.49L1193.35,335.78L1192.3,335.11L1191.22,334.51L1190.05,333.96L1188.85,333.46L1187.57,333.01L1186.24,332.62L1184.86,332.28L1183.37,331.99L1180.21,331.55L1176.71,331.29L1172.7,331.2L1168.7,331.29L1165.19,331.55L1162.04,331.99L1160.55,332.28L1159.16,332.62L1157.84,333.01L1156.56,333.46L1155.35,333.96L1154.19,334.51L1153.11,335.11L1152.06,335.78L1151.08,336.49L1150.15,337.27L1149.07,338.3L1148.06,339.43L1147.14,340.65L1146.27,341.97L1145.5,343.37L1144.79,344.88L1144.16,346.47L1143.59,348.18L1142.73,351.34L1142.01,354.62L1141.42,358.09L1140.97,361.74L1140.65,365.57L1140.43,369.77L1140.31,374.45L1140.27,380.2Z" style="fill:rgb(93,0,150);fill-rule:nonzero;"/>
        <path d="M505.5,444.54L505.48,444.48L505.35,444.32L505.16,444.23L504.95,444.22L504.76,444.3L500.99,446.93L497.27,449.37L493.63,451.61L490.04,453.66L486.52,455.53L483.03,457.21L479.6,458.71L476.21,460.03L472.98,461.12L469.76,462L466.55,462.7L463.32,463.21L461.29,463.43L459.25,463.58L457.2,463.66L455.14,463.67L453.06,463.6L450.96,463.47L448.81,463.26L446.65,462.97L443.15,462.35L439.88,461.55L438.32,461.07L436.8,460.55L435.35,459.98L433.95,459.37L432.58,458.71L431.27,457.99L430.02,457.24L428.82,456.43L427.66,455.58L426.55,454.68L425.5,453.73L424.51,452.74L423.31,451.43L422.21,450.04L421.17,448.56L420.21,447.02L419.34,445.4L418.54,443.72L417.82,441.94L417.17,440.09L416.6,438.16L416.11,436.17L415.69,434.08L415.35,431.92L415.09,429.67L414.9,427.34L414.79,424.92L414.75,422.44L414.73,301.39L414.77,301.15L414.91,300.94L415.11,300.8L415.35,300.75L415.36,300.75L455.62,300.74L455.88,300.85L455.98,301.1L456,410.19L456.08,412.58L456.31,414.87L456.69,417.07L457.21,419.17L457.73,420.63L458.4,421.98L459.19,423.18L460.13,424.27L460.89,424.97L461.71,425.58L462.6,426.14L463.55,426.61L464.58,427.02L465.65,427.35L466.8,427.61L467.97,427.79L469.24,427.89L470.53,427.92L471.87,427.86L473.22,427.73L474.62,427.52L476.01,427.23L477.41,426.87L478.77,426.44L481.75,425.33L484.81,424L487.97,422.44L491.22,420.67L494.57,418.67L498,416.45L501.53,414.01L505.15,411.35L505.34,411.16L505.49,410.93L505.59,410.67L505.62,410.4L505.6,301.12L505.69,300.88L505.82,300.78L505.98,300.74L546.61,300.73L546.85,300.83L546.94,301.06L546.97,459.18L546.93,459.38L546.82,459.55L546.65,459.66L546.45,459.7L511.37,459.7L511.15,459.67L510.94,459.57L510.77,459.41L510.66,459.2L505.5,444.54Z" style="fill:rgb(93,0,150);fill-rule:nonzero;"/>
        <path d="M716.86,489.85L722.01,490.99L726.95,491.85L729.35,492.18L731.7,492.44L733.99,492.63L736.24,492.75L738.06,492.77L739.73,492.68L741.28,492.47L742.69,492.16L744,491.74L745.18,491.2L746.25,490.54L747.19,489.78L748.19,488.7L749.05,487.41L749.75,485.95L750.31,484.29L750.73,482.39L751.02,480.26L751.19,477.85L751.24,475.02L751.24,301.07L751.33,300.84L751.56,300.75L792.13,300.75L792.37,300.8L792.58,300.93L792.71,301.14L792.76,301.38L792.76,469L792.73,471.14L792.61,474.02L792.45,477.99L792.35,480.38L792.19,482.75L791.97,485.08L791.68,487.36L791.33,489.6L790.92,491.77L790.44,493.9L789.91,495.95L789.32,497.92L788.68,499.79L787.97,501.62L787.22,503.34L786.41,505L785.55,506.54L784.65,508.01L783.67,509.42L782.74,510.63L781.77,511.79L780.3,513.37L778.74,514.84L777.1,516.23L775.35,517.54L773.51,518.76L771.55,519.9L769.53,520.93L767.4,521.89L765.18,522.75L762.85,523.53L760.46,524.21L757.98,524.8L755.42,525.29L752.78,525.69L750.04,526L747.24,526.22L743.52,526.39L739.78,526.47L736.01,526.44L732.22,526.33L728.4,526.11L724.55,525.8L720.68,525.39L716.78,524.88L716.57,524.81L716.39,524.67L716.28,524.48L716.24,524.26L716.24,490.34L716.28,490.13L716.41,489.96L716.59,489.86L716.8,489.84L716.86,489.85Z" style="fill:rgb(93,0,150);fill-rule:nonzero;"/>
        <path d="M1288.3,318.03C1288.3,327.597 1280.43,335.47 1270.86,335.47C1261.29,335.47 1253.42,327.597 1253.42,318.03C1253.42,308.463 1261.29,300.59 1270.86,300.59C1280.43,300.59 1288.3,308.463 1288.3,318.03ZM1284.61,318.03C1284.61,310.503 1278.42,304.31 1270.89,304.31C1263.36,304.31 1257.17,310.503 1257.17,318.03C1257.17,325.557 1263.36,331.75 1270.89,331.75C1278.42,331.75 1284.61,325.557 1284.61,318.03Z" style="fill:rgb(93,0,150);fill-rule:nonzero;"/>
        <path d="M1274.36,319.55L1279.42,327.23L1279.44,327.27L1279.41,327.41L1279.28,327.48L1274.67,327.48L1274.45,327.42L1274.29,327.26L1271.52,322.21L1270.91,321.33L1270.55,320.96L1270.16,320.65L1269.59,320.3L1268.96,320.05L1268.26,319.88L1267.51,319.79L1267.31,319.82L1267.13,319.93L1267.01,320.09L1266.96,320.3L1266.96,327L1266.86,327.31L1266.68,327.46L1266.45,327.51L1263.58,327.51L1263.36,327.47L1263.17,327.34L1263.04,327.16L1263,326.94L1263,309.38L1263.1,309.03L1263.34,308.82L1263.64,308.74L1272.25,308.82L1273.54,308.93L1274.67,309.22L1275.63,309.67L1276.42,310.28L1277.04,311.05L1277.5,311.97L1277.8,313.05L1277.95,314.29L1277.95,314.91L1277.88,315.49L1277.74,316.05L1277.53,316.56L1277.04,317.32L1276.38,318L1275.53,318.58L1274.51,319.08L1274.33,319.27L1274.35,319.52L1274.36,319.55ZM1266.98,312.42L1266.96,316.26L1267.03,316.52L1267.21,316.69L1267.44,316.75L1270.08,316.77L1270.8,316.73L1271.5,316.61L1272.14,316.4L1272.7,316.13L1273.16,315.79L1273.5,315.41L1273.71,314.99L1273.79,314.55L1273.79,314.21L1273.72,313.78L1273.52,313.35L1273.18,312.97L1272.72,312.62L1272.16,312.34L1271.53,312.13L1270.84,312L1270.12,311.95L1267.48,311.93L1267.29,311.97L1267.13,312.07L1267.02,312.23L1266.98,312.42Z" style="fill:rgb(93,0,150);fill-rule:nonzero;"/>
        <path d="M361.81,179L374.41,179L374.57,179.05L374.68,179.19L374.7,179.36L374.62,179.51L358.4,195.74L358.31,195.96L358.38,196.14L376.69,218.76L376.76,218.91L376.73,219.08L376.62,219.2L376.46,219.25L363.46,219.25L363.33,219.22L363.22,219.13L348.79,200.11L348.64,200.01L348.46,200.01L348.31,200.11L348.25,200.28L348.25,218.95L348.16,219.16L347.95,219.25L338.05,219.25L337.84,219.16L337.75,218.95L337.75,162.05L337.84,161.84L338.05,161.75L347.95,161.75L348.16,161.84L348.25,162.05L348.25,191.72L348.34,191.93L348.55,192.02L348.76,191.93L361.6,179.09L361.81,179Z" style="fill:rgb(112,115,114);fill-rule:nonzero;"/>
        <path d="M392.76,218.88C392.76,219.083 392.593,219.25 392.39,219.25L382.61,219.25C382.407,219.25 382.24,219.083 382.24,218.88L382.24,162.12C382.24,161.917 382.407,161.75 382.61,161.75L392.39,161.75C392.593,161.75 392.76,161.917 392.76,162.12L392.76,218.88Z" style="fill:rgb(112,115,114);fill-rule:nonzero;"/>
        <path d="M46.377,204.035C46.408,212.795 39.224,220.03 30.463,220.06L25.003,220.079C16.242,220.11 9.008,212.926 8.977,204.165L8.943,194.285C8.912,185.525 16.096,178.29 24.857,178.26L30.317,178.241C39.078,178.21 46.312,185.394 46.343,194.155L46.377,204.035ZM35.629,193.744C35.629,193.74 35.629,193.736 35.629,193.732C35.629,190.089 32.635,187.089 28.991,187.082L26.371,187.078C26.367,187.078 26.363,187.078 26.359,187.078C22.716,187.078 19.716,190.072 19.709,193.716L19.691,204.536C19.691,204.54 19.691,204.544 19.691,204.548C19.691,208.191 22.685,211.191 26.329,211.198L28.949,211.202C28.953,211.202 28.957,211.202 28.961,211.202C32.604,211.202 35.604,208.208 35.611,204.564L35.629,193.744Z" style="fill:rgb(112,115,114);fill-rule:nonzero;"/>
        <path d="M79.24,218.67L79.27,193.47L79.24,191.73L79.12,190.35L78.91,189.31L78.61,188.62L78.25,188.17L77.83,187.82L77.45,187.59L77.03,187.43L76.56,187.32L76.06,187.28L74.93,187.36L73.66,187.68L72.22,188.24L70.7,189.02L69.09,190.02L67.57,191.14L67.33,191.38L67.15,191.67L67.04,191.99L67,192.33L67,218.69L66.96,218.91L66.83,219.09L66.65,219.22L66.43,219.26L56.99,219.26L56.8,219.22L56.64,219.11L56.54,218.95L56.5,218.76L56.5,179.9L56.57,179.55L56.76,179.26L57.06,179.06L57.4,178.99L64.86,178.99L65.21,179.04L65.52,179.2L65.77,179.44L65.94,179.75L66.89,182.46L67.01,182.64L67.19,182.76L67.4,182.79L67.61,182.73L67.68,182.68L68.78,181.86L69.98,181.09L71.25,180.4L72.58,179.78L73.93,179.25L75.31,178.81L76.69,178.47L78.02,178.24L79.28,178.12L80.53,178.1L81.7,178.19L82.84,178.38L83.88,178.67L84.88,179.07L85.79,179.55L86.64,180.15L87.59,181.04L88.39,182.05L88.73,182.65L89.02,183.41L89.26,184.32L89.46,185.39L89.61,186.61L89.73,187.99L89.81,191.22L89.73,218.64L89.69,218.88L89.56,219.08L89.37,219.21L89.13,219.26L79.82,219.25L79.51,219.16L79.31,218.95L79.24,218.67Z" style="fill:rgb(112,115,114);fill-rule:nonzero;"/>
        <path d="M110.5,199.07L110.49,199.54L110.49,201.85L110.56,203.53L110.72,205.02L110.97,206.32L111.33,207.47L111.8,208.45L112.4,209.3L113.1,209.98L113.84,210.47L114.71,210.85L115.67,211.09L116.76,211.21L119.7,211.24L122.73,211.06L125.86,210.68L129.09,210.09L129.32,210.09L129.52,210.17L129.68,210.34L129.76,210.55L129.76,210.59L130.29,218.86L130.26,219.11L130.14,219.33L129.95,219.49L129.71,219.57L127.77,219.79L125.64,219.96L120.8,220.16L117.9,220.16L115.42,220.03L113.19,219.76L111.17,219.34L109.33,218.78L107.67,218.05L106.2,217.16L104.89,216.12L103.83,215.02L102.91,213.8L102.1,212.41L101.42,210.9L100.96,209.63L100.57,208.29L100.24,206.89L99.97,205.43L99.77,203.91L99.63,202.32L99.55,200.68L99.53,198.97L99.58,197.26L99.69,195.61L99.86,194.03L100.09,192.51L100.39,191.05L100.74,189.66L101.16,188.33L101.64,187.07L102.35,185.57L103.19,184.19L104.13,182.99L105.2,181.92L106.53,180.89L108.03,180.04L109.7,179.34L111.54,178.81L113.57,178.43L115.81,178.2L118.29,178.12L121.19,178.17L126.02,178.46L128.15,178.67L130.09,178.93L130.33,179.01L130.52,179.17L130.63,179.4L130.66,179.65L129.97,187.91L129.97,187.95L129.89,188.16L129.73,188.32L129.52,188.4L129.29,188.39L126.08,187.74L122.95,187.3L119.92,187.07L116.98,187.05L115.89,187.15L114.93,187.37L114.06,187.73L113.31,188.2L112.59,188.87L111.98,189.71L111.49,190.69L111.1,191.82L110.83,193.12L110.64,194.6L110.54,196.29L110.5,198.6L110.5,199.07Z" style="fill:rgb(112,115,114);fill-rule:nonzero;"/>
        <path d="M169.05,209.75L169.1,209.74L169.24,209.75L169.37,209.83L169.46,209.94L169.49,210.09L169.49,218.1L169.46,218.28L169.37,218.45L169.22,218.57L169.05,218.63L165.23,219.26L161.41,219.73L157.59,220.05L153.76,220.21L153.26,220.22L150.99,220.18L148.83,219.95L146.84,219.55L145,218.98L143.33,218.24L141.85,217.33L141.19,216.82L140.56,216.26L140,215.68L139.49,215.05L138.77,213.98L138.16,212.79L137.7,211.52L137.36,210.13L136.86,207.19L136.5,204.32L136.27,201.54L136.19,198.83L136.24,196.21L136.42,193.66L136.75,191.19L137.21,188.8L137.48,187.73L137.8,186.74L138.18,185.78L138.6,184.9L139.08,184.06L139.61,183.29L140.2,182.57L140.83,181.91L141.48,181.34L142.17,180.83L142.91,180.36L143.7,179.94L144.55,179.56L145.44,179.23L147.39,178.71L149.54,178.38L151.94,178.21L154.69,178.19L158.02,178.34L159.19,178.45L160.29,178.62L161.34,178.87L162.32,179.19L163.24,179.57L164.1,180.02L164.9,180.55L165.64,181.14L166.3,181.79L166.91,182.5L167.46,183.29L167.95,184.14L168.38,185.06L168.75,186.04L169.06,187.09L169.31,188.21L169.8,191.36L170.11,194.74L170.25,198.36L170.2,202.21L170.16,202.42L170.04,202.59L169.86,202.71L169.65,202.75L148.26,202.75L147.87,202.79L147.5,202.92L147.17,203.12L146.88,203.39L146.67,203.71L146.52,204.07L146.46,204.46L146.48,204.85L146.56,205.14L147.56,207.97L147.87,208.67L148.28,209.32L148.77,209.91L149.35,210.41L150,210.82L150.7,211.13L151.44,211.34L152.2,211.43L154.47,211.5L156.7,211.49L158.87,211.4L161,211.24L163.09,210.98L165.12,210.65L167.11,210.24L169.05,209.75ZM147.15,195.45L159.55,195.55L159.71,195.49L159.78,195.33L159.81,192.19L159.71,190.95L159.42,189.76L158.92,188.66L158.26,187.7L157.44,186.9L156.51,186.31L156.01,186.1L155.5,185.94L154.97,185.84L154.44,185.81L152.42,185.79L151.89,185.82L151.36,185.9L150.85,186.05L150.34,186.26L149.4,186.83L148.57,187.61L147.89,188.57L147.38,189.66L147.06,190.84L146.95,192.07L146.92,195.21L146.99,195.38L147.15,195.45Z" style="fill:rgb(112,115,114);fill-rule:nonzero;"/>
        <path d="M285.56,209.77L285.61,209.76L285.76,209.77L285.89,209.84L285.97,209.96L286,210.11L285.99,218.12L285.96,218.3L285.87,218.47L285.73,218.59L285.55,218.65L281.74,219.27L277.91,219.74L274.09,220.05L270.26,220.21L269.76,220.22L267.49,220.17L265.34,219.95L263.34,219.55L261.5,218.97L259.83,218.23L258.35,217.32L257.69,216.81L257.07,216.25L256.51,215.67L255.99,215.04L255.28,213.97L254.67,212.77L254.21,211.5L253.87,210.11L253.38,207.17L253.02,204.31L252.8,201.52L252.71,198.81L252.77,196.19L252.96,193.64L253.28,191.17L253.75,188.78L254.02,187.72L254.34,186.72L254.72,185.77L255.14,184.89L255.62,184.05L256.15,183.28L256.74,182.55L257.38,181.9L258.03,181.33L258.71,180.82L259.46,180.35L260.24,179.93L261.1,179.55L261.99,179.22L263.93,178.71L266.09,178.37L268.49,178.2L271.24,178.2L274.57,178.35L275.74,178.45L276.84,178.63L277.88,178.88L278.87,179.2L279.79,179.58L280.65,180.04L281.45,180.56L282.18,181.15L282.85,181.8L283.46,182.52L284,183.3L284.49,184.15L284.92,185.07L285.29,186.06L285.6,187.11L285.85,188.23L286.34,191.38L286.64,194.76L286.77,198.38L286.72,202.23L286.68,202.44L286.56,202.61L286.38,202.73L286.17,202.77L264.78,202.75L264.39,202.79L264.02,202.91L263.69,203.11L263.4,203.38L263.19,203.7L263.04,204.07L262.98,204.45L263,204.84L263.08,205.13L264.08,207.96L264.38,208.67L264.79,209.32L265.29,209.9L265.87,210.4L266.51,210.82L267.21,211.13L267.95,211.34L268.71,211.43L270.98,211.5L273.21,211.5L275.38,211.41L277.51,211.24L279.6,211L281.63,210.67L283.62,210.26L285.56,209.77ZM263.61,195.49L276.19,195.51L276.35,195.45L276.41,195.29L276.42,192.46L276.31,191.16L276,189.91L275.48,188.75L274.79,187.74L273.95,186.91L273.48,186.57L272.99,186.29L272.47,186.07L271.94,185.91L271.4,185.81L270.86,185.78L268.98,185.78L268.43,185.81L267.89,185.9L267.36,186.06L266.85,186.28L266.35,186.56L265.88,186.9L265.04,187.73L264.34,188.73L263.83,189.89L263.51,191.14L263.4,192.44L263.39,195.27L263.46,195.42L263.61,195.49Z" style="fill:rgb(112,115,114);fill-rule:nonzero;"/>
        <path d="M326.32,209.77L326.36,209.76L326.51,209.77L326.64,209.84L326.73,209.96L326.76,210.11L326.75,218.12L326.72,218.3L326.63,218.46L326.48,218.58L326.31,218.65L322.49,219.27L318.67,219.74L314.85,220.06L311.02,220.22L310.52,220.23L308.25,220.18L306.09,219.95L304.1,219.56L302.26,218.98L300.59,218.24L299.11,217.33L298.45,216.82L297.83,216.26L297.27,215.68L296.75,215.05L296.03,213.98L295.43,212.79L294.97,211.52L294.63,210.13L294.13,207.18L293.77,204.32L293.55,201.53L293.46,198.83L293.51,196.2L293.7,193.66L294.03,191.19L294.49,188.8L294.76,187.73L295.08,186.74L295.46,185.78L295.88,184.9L296.37,184.06L296.89,183.29L297.48,182.57L298.12,181.91L298.77,181.34L299.45,180.83L300.2,180.36L300.98,179.94L301.84,179.56L302.73,179.24L304.67,178.72L306.83,178.38L309.23,178.21L311.98,178.2L315.31,178.35L316.47,178.46L317.58,178.64L318.62,178.88L319.61,179.2L320.53,179.58L321.39,180.04L322.19,180.56L322.92,181.15L323.59,181.8L324.2,182.52L324.74,183.3L325.23,184.16L325.66,185.07L326.03,186.06L326.34,187.11L326.59,188.23L327.08,191.38L327.39,194.76L327.52,198.38L327.47,202.23L327.43,202.44L327.31,202.61L327.13,202.73L326.92,202.77L305.53,202.75L305.14,202.8L304.77,202.92L304.44,203.12L304.16,203.39L303.94,203.71L303.79,204.08L303.73,204.46L303.75,204.85L303.83,205.14L304.83,207.97L305.14,208.68L305.54,209.33L306.04,209.91L306.62,210.41L307.27,210.82L307.97,211.14L308.71,211.34L309.47,211.44L311.74,211.51L313.96,211.5L316.14,211.42L318.27,211.25L320.35,211L322.39,210.67L324.38,210.26L326.32,209.77ZM304.34,195.47L316.94,195.51L317.08,195.46L317.16,195.34L317.16,195.29L317.17,192.46L317.07,191.16L316.74,189.9L316.22,188.74L315.51,187.73L315.09,187.28L314.64,186.89L314.15,186.55L313.65,186.27L313.12,186.05L312.57,185.89L312.01,185.79L311.45,185.75L309.91,185.75L309.34,185.78L308.78,185.87L308.24,186.03L307.7,186.25L307.19,186.53L306.71,186.86L306.25,187.25L305.83,187.69L305.12,188.7L304.58,189.86L304.25,191.11L304.13,192.42L304.12,195.25L304.16,195.37L304.27,195.45L304.34,195.47Z" style="fill:rgb(112,115,114);fill-rule:nonzero;"/>
        <path d="M221.94,186.25L226.42,186.28L226.68,186.32L226.9,186.44L227.08,186.63L227.2,186.86L232.28,203.35L232.4,203.46L232.56,203.42L232.6,203.34L237.97,179.62L238.08,179.37L238.26,179.17L238.49,179.04L238.76,178.99L248.81,178.99L249,179.07L249.15,179.21L249.22,179.41L249.21,179.62L238,218.73L237.9,218.94L237.75,219.11L237.54,219.21L237.31,219.25L228.48,219.25L228.23,219.21L228.01,219.1L227.83,218.92L227.71,218.7L225.23,211.37L222.28,202.25L222.11,201.85L221.95,201.71L221.78,201.85L221.61,202.26L218.67,211.38L216.2,218.7L216.08,218.93L215.9,219.1L215.67,219.22L215.43,219.26L206.6,219.26L206.37,219.22L206.16,219.12L206,218.95L205.91,218.74L194.67,179.64L194.65,179.43L194.72,179.24L194.87,179.09L195.07,179.02L195.13,179.01L205.11,179L205.38,179.05L205.62,179.18L205.8,179.38L205.91,179.63L211.29,203.35L211.33,203.42L211.49,203.47L211.61,203.36L216.68,186.86L216.8,186.63L216.98,186.45L217.21,186.33L217.46,186.28L221.94,186.25Z" style="fill:rgb(112,115,114);fill-rule:nonzero;"/>
        <path d="M415.56,235.49L405.79,235.49L405.6,235.42L405.5,235.27L405.5,235.08L411.75,218.67L411.75,218.47L398.01,179.41L398,179.27L398.05,179.14L398.16,179.04L398.29,179.01L409.19,179.01L409.37,179.07L409.48,179.22L417,203.66L417.1,203.81L417.28,203.87L417.46,203.81L417.57,203.67L425.94,179.2L426.05,179.06L426.22,179L436.83,179L436.97,179.03L437.08,179.13L437.13,179.26L437.12,179.41L415.84,235.3L415.78,235.4L415.56,235.49Z" style="fill:rgb(112,115,114);fill-rule:nonzero;"/>
        <path d="M440.76,647.07L440.71,646.92L440.59,646.81L440.44,646.78L440.28,646.82L440.17,646.94L439.12,648.71L438.02,650.33L436.89,651.77L435.72,653.07L434.47,654.23L433.19,655.23L431.85,656.1L430.42,656.85L428.82,657.49L427.12,657.97L425.35,658.29L423.48,658.45L421.95,658.47L420.48,658.4L419.04,658.24L417.66,658L416.3,657.66L415.01,657.24L413.75,656.72L412.55,656.13L411.33,655.41L410.19,654.6L409.08,653.7L408.04,652.71L407.04,651.61L406.1,650.43L405.21,649.15L404.39,647.8L403.6,646.32L402.89,644.78L402.23,643.16L401.63,641.43L401.08,639.63L400.6,637.74L400.18,635.79L399.82,633.76L399.21,629.11L398.79,624.06L398.57,618.94L398.58,613.9L398.79,609.1L399.21,604.56L399.84,600.28L400.23,598.23L400.67,596.27L401.15,594.43L401.66,592.68L402.24,590.98L402.85,589.39L403.5,587.88L404.21,586.42L404.95,585.07L405.75,583.78L406.58,582.59L407.46,581.47L408.38,580.45L409.35,579.5L410.35,578.64L411.4,577.86L412.48,577.18L413.62,576.57L414.76,576.06L415.95,575.62L417.17,575.27L418.44,575L419.73,574.81L421.07,574.71L422.44,574.68L423.85,574.73L425.5,574.9L427.07,575.2L428.59,575.62L430.03,576.17L431.33,576.79L432.57,577.52L433.79,578.36L434.95,579.31L436.07,580.37L437.19,581.57L438.26,582.87L439.32,584.31L439.4,584.38L439.52,584.41L439.64,584.37L439.72,584.29L439.75,584.17L439.75,542.77L439.83,542.58L440.02,542.5L449.53,542.5L449.69,542.57L449.76,542.73L449.76,656.76L449.69,656.92L449.53,656.99L441.7,656.99L441.48,656.9L441.38,656.69L440.76,647.07ZM439.9,616.73L439.87,613.27L439.78,610.24L439.61,607.41L439.36,604.77L439.03,602.26L438.61,599.9L438.11,597.72L437.53,595.68L436.86,593.8L436.1,592.08L435.26,590.53L434.34,589.16L433.33,587.93L432.25,586.89L431.07,585.99L429.82,585.28L428.59,584.77L427.26,584.4L425.88,584.17L424.4,584.1L422.93,584.17L421.55,584.39L420.22,584.76L418.99,585.27L417.74,585.98L416.55,586.87L415.46,587.91L414.45,589.13L413.53,590.5L412.69,592.05L411.93,593.77L411.25,595.65L410.66,597.68L410.16,599.87L409.73,602.23L409.39,604.73L409.14,607.36L408.96,610.2L408.86,613.23L408.82,616.69L408.85,620.14L408.94,623.17L409.11,626.01L409.36,628.65L409.69,631.15L410.11,633.51L410.61,635.7L411.19,637.73L411.86,639.61L412.62,641.34L413.46,642.88L414.38,644.26L415.39,645.48L416.47,646.52L417.65,647.42L418.9,648.13L420.13,648.64L421.46,649.02L422.84,649.24L424.32,649.32L425.79,649.24L427.17,649.03L428.5,648.66L429.73,648.15L430.98,647.44L432.17,646.55L433.26,645.51L434.27,644.29L435.19,642.91L436.03,641.37L436.79,639.65L437.47,637.77L438.06,635.73L438.56,633.55L438.99,631.19L439.33,628.69L439.58,626.05L439.76,623.21L439.86,620.18L439.9,616.73Z" style="fill:rgb(112,115,114);fill-rule:nonzero;"/>
        <path d="M76.775,546.34L77.415,546.386L78.049,546.509L78.669,546.708L79.271,546.981L79.847,547.326L80.394,547.739L80.904,548.216L81.374,548.752L81.799,549.344L82.175,549.984L82.497,550.666L82.764,551.385L82.973,552.133L83.121,552.903L83.206,553.687L83.23,554.479L83.19,555.269L83.088,556.052L82.924,556.818L82.7,557.561L82.418,558.274L82.081,558.95L81.692,559.582L81.254,560.165L80.773,560.691L80.253,561.158L79.698,561.559L79.115,561.891L78.507,562.152L77.883,562.338L77.247,562.447L76.606,562.48L75.965,562.434L75.331,562.311L74.711,562.112L74.109,561.839L73.533,561.494L72.987,561.082L72.476,560.604L72.006,560.068L71.581,559.476L71.206,558.836L70.883,558.154L70.616,557.435L70.407,556.687L70.26,555.917L70.174,555.133L70.15,554.342L70.19,553.551L70.293,552.769L70.457,552.002L70.681,551.259L70.962,550.546L71.299,549.87L71.688,549.238L72.126,548.656L72.607,548.129L73.127,547.662L73.682,547.261L74.266,546.929L74.873,546.668L75.497,546.482L76.133,546.373L76.775,546.34Z" style="fill:rgb(112,115,114);fill-rule:nonzero;"/>
        <path d="M383.015,546.34L383.656,546.386L384.291,546.509L384.912,546.708L385.515,546.981L386.092,547.326L386.639,547.739L387.15,548.216L387.621,548.753L388.047,549.344L388.423,549.984L388.746,550.667L389.013,551.385L389.222,552.133L389.37,552.903L389.456,553.687L389.48,554.479L389.44,555.269L389.337,556.052L389.173,556.818L388.949,557.562L388.666,558.275L388.329,558.95L387.939,559.582L387.502,560.165L387.02,560.691L386.498,561.158L385.943,561.559L385.358,561.891L384.75,562.152L384.125,562.338L383.488,562.447L382.846,562.48L382.204,562.434L381.569,562.311L380.948,562.112L380.346,561.839L379.768,561.494L379.221,561.082L378.71,560.604L378.239,560.068L377.813,559.476L377.437,558.836L377.114,558.154L376.847,557.435L376.638,556.687L376.49,555.917L376.404,555.133L376.38,554.341L376.42,553.551L376.523,552.768L376.687,552.002L376.911,551.259L377.194,550.545L377.531,549.87L377.921,549.238L378.359,548.656L378.84,548.129L379.361,547.662L379.917,547.261L380.502,546.929L381.11,546.668L381.735,546.482L382.372,546.373L383.015,546.34Z" style="fill:rgb(112,115,114);fill-rule:nonzero;"/>
        <path d="M568.406,546.34L569.049,546.384L569.685,546.504L570.308,546.701L570.913,546.973L571.492,547.316L572.041,547.727L572.555,548.203L573.028,548.739L573.457,549.33L573.836,549.969L574.162,550.652L574.432,551.37L574.644,552.118L574.795,552.889L574.884,553.674L574.91,554.466L574.873,555.258L574.773,556.041L574.611,556.809L574.389,557.554L574.109,558.269L573.773,558.947L573.385,559.581L572.949,560.166L572.468,560.695L571.948,561.164L571.393,561.567L570.808,561.902L570.2,562.165L569.574,562.354L568.937,562.465L568.294,562.5L567.651,562.456L567.015,562.336L566.392,562.139L565.788,561.867L565.208,561.524L564.659,561.113L564.145,560.637L563.672,560.101L563.243,559.51L562.864,558.871L562.538,558.188L562.268,557.47L562.056,556.722L561.905,555.951L561.816,555.166L561.79,554.374L561.827,553.583L561.927,552.799L562.089,552.031L562.311,551.286L562.591,550.571L562.927,549.893L563.315,549.259L563.751,548.674L564.232,548.145L564.753,547.676L565.308,547.273L565.892,546.938L566.5,546.675L567.126,546.487L567.763,546.375L568.406,546.34Z" style="fill:rgb(112,115,114);fill-rule:nonzero;"/>
        <path d="M651.341,546.331L651.982,546.381L652.616,546.509L653.236,546.712L653.837,546.99L654.412,547.339L654.956,547.756L655.464,548.238L655.931,548.778L656.352,549.373L656.724,550.017L657.042,550.703L657.305,551.424L657.508,552.174L657.651,552.946L657.731,553.732L657.749,554.524L657.704,555.316L657.596,556.098L657.426,556.865L657.197,557.607L656.909,558.319L656.567,558.993L656.173,559.624L655.731,560.203L655.246,560.728L654.721,561.191L654.163,561.589L653.576,561.918L652.966,562.174L652.339,562.356L651.702,562.461L651.059,562.489L650.418,562.439L649.784,562.311L649.164,562.108L648.564,561.83L647.989,561.481L647.444,561.064L646.936,560.583L646.469,560.042L646.048,559.447L645.676,558.803L645.358,558.117L645.096,557.396L644.892,556.646L644.749,555.874L644.669,555.088L644.651,554.296L644.696,553.504L644.804,552.722L644.974,551.956L645.204,551.213L645.491,550.501L645.833,549.827L646.227,549.197L646.669,548.617L647.154,548.093L647.679,547.629L648.237,547.231L648.824,546.902L649.434,546.646L650.061,546.464L650.698,546.359L651.341,546.331Z" style="fill:rgb(112,115,114);fill-rule:nonzero;"/>
        <path d="M812.81,546.34L813.451,546.385L814.085,546.507L814.706,546.704L815.308,546.976L815.885,547.32L816.432,547.732L816.943,548.208L817.414,548.744L817.84,549.335L818.217,549.974L818.541,550.656L818.809,551.375L819.019,552.122L819.168,552.892L819.255,553.676L819.28,554.467L819.241,555.258L819.14,556.04L818.978,556.807L818.755,557.551L818.474,558.264L818.139,558.941L817.751,559.574L817.314,560.157L816.834,560.684L816.315,561.151L815.761,561.554L815.178,561.887L814.571,562.149L813.947,562.336L813.311,562.446L812.67,562.48L812.029,562.435L811.395,562.314L810.774,562.116L810.172,561.844L809.595,561.5L809.048,561.088L808.537,560.612L808.066,560.076L807.64,559.485L807.263,558.846L806.939,558.164L806.671,557.445L806.461,556.698L806.312,555.928L806.225,555.144L806.2,554.353L806.239,553.562L806.34,552.78L806.502,552.013L806.725,551.269L807.006,550.556L807.342,549.879L807.729,549.247L808.165,548.664L808.646,548.136L809.165,547.669L809.719,547.266L810.302,546.933L810.909,546.671L811.533,546.484L812.169,546.374L812.81,546.34Z" style="fill:rgb(112,115,114);fill-rule:nonzero;"/>
        <path d="M10.71,614.5L10.78,618.72L11,622.91L11.38,627.07L11.91,631.19L12.59,635.3L13.42,639.36L14.4,643.38L15.53,647.36L16.96,651.7L18.56,655.99L20.34,660.2L22.3,664.35L24.42,668.42L26.72,672.41L29.19,676.33L31.83,680.16L31.84,680.23L31.79,680.29L22.24,680.29L21.99,680.23L21.78,680.06L19.27,676.78L16.9,673.34L14.69,669.8L12.62,666.11L10.71,662.32L8.95,658.39L7.35,654.39L5.91,650.26L4.64,646.04L3.53,641.71L2.59,637.34L1.81,632.87L1.22,628.35L0.79,623.75L0.53,619.12L0.45,614.49L0.54,609.86L0.81,605.23L1.26,600.63L1.87,596.12L2.66,591.65L3.61,587.28L4.74,582.95L6.02,578.74L7.47,574.61L9.08,570.61L10.85,566.69L12.78,562.9L14.86,559.22L17.07,555.69L19.46,552.26L21.97,548.98L22.18,548.81L22.44,548.75L31.96,548.78L31.98,548.79L32.03,548.84L32.02,548.91L29.37,552.74L26.89,556.65L24.58,560.63L22.44,564.69L20.48,568.83L18.68,573.05L17.07,577.32L15.63,581.66L14.49,585.64L13.49,589.66L12.65,593.72L11.96,597.82L11.42,601.94L11.03,606.1L10.79,610.29L10.71,614.5Z" style="fill:rgb(112,115,114);fill-rule:nonzero;"/>
        <path d="M534.2,614.44L534.13,619.07L533.88,623.69L533.46,628.29L532.86,632.8L532.09,637.27L531.16,641.64L530.05,645.97L528.79,650.18L527.35,654.31L525.77,658.32L524.01,662.24L522.1,666.04L520.04,669.72L517.84,673.26L515.47,676.7L512.97,679.99L512.76,680.15L512.51,680.21L503,680.22L502.97,680.22L502.92,680.17L502.93,680.09L505.56,676.26L508.03,672.35L510.32,668.35L512.44,664.29L514.39,660.14L516.16,655.92L517.76,651.64L519.17,647.3L520.3,643.33L521.27,639.3L522.1,635.24L522.78,631.14L523.3,627.02L523.67,622.87L523.89,618.68L523.95,614.46L523.87,610.25L523.63,606.07L523.23,601.91L522.69,597.8L521.99,593.7L521.14,589.64L520.14,585.62L518.99,581.65L517.55,577.32L515.94,573.05L514.14,568.84L512.17,564.7L510.03,560.65L507.71,556.67L505.23,552.77L502.58,548.95L502.56,548.88L502.62,548.82L502.64,548.82L512.15,548.78L512.41,548.84L512.62,549L515.14,552.28L517.52,555.7L519.74,559.23L521.83,562.9L523.75,566.69L525.53,570.6L527.14,574.6L528.59,578.72L529.88,582.93L531.02,587.25L531.97,591.61L532.76,596.08L533.38,600.59L533.83,605.18L534.1,609.81L534.2,614.44Z" style="fill:rgb(112,115,114);fill-rule:nonzero;"/>
        <path d="M62.07,647.09L62.19,647.08L62.27,647.17L62.27,655.92L62.2,656.15L62.02,656.31L60.36,657.04L58.68,657.62L56.99,658.06L55.27,658.35L53.64,658.49L51.99,658.51L50.32,658.39L48.64,658.14L47.4,657.85L46.27,657.46L45.19,656.95L44.21,656.34L43.43,655.75L42.72,655.09L42.05,654.35L41.45,653.55L40.88,652.64L40.37,651.69L39.92,650.67L39.51,649.55L39.16,648.39L38.86,647.13L38.6,645.79L38.39,644.38L38.12,641.29L38.03,637.75L38.02,585.63L37.99,585.42L37.89,585.24L37.73,585.1L37.54,585.02L37.39,585L31.35,585L31.01,584.9L30.83,584.68L30.76,584.41L30.76,579.19L30.8,578.95L30.91,578.74L31.08,578.57L31.29,578.47L37.81,576.46L38.03,576.36L38.2,576.2L38.33,575.99L38.39,575.76L40.36,558.13L40.51,557.85L40.8,557.74L47.61,557.74L47.77,557.77L47.9,557.86L47.99,558L48.02,558.16L48.02,575.67L48.06,575.89L48.19,576.07L48.38,576.2L48.6,576.24L61.68,576.24L61.97,576.35L62.08,576.5L62.12,576.68L62.12,584.54L62.08,584.71L61.99,584.86L61.84,584.96L61.66,584.99L48.64,584.99L48.51,585L48.33,585.08L48.18,585.21L48.08,585.38L48.05,585.58L48.02,615.36L48.09,639.57L48.16,641.29L48.33,642.84L48.6,644.23L48.99,645.47L49.46,646.52L50.03,647.4L50.71,648.11L51.48,648.63L52.11,648.9L52.8,649.07L53.92,649.21L55.04,649.24L55.92,649.2L56.8,649.09L57.68,648.92L58.56,648.68L59.44,648.38L60.32,648.01L62.07,647.09Z" style="fill:rgb(112,115,114);fill-rule:nonzero;"/>
        <path d="M370.3,647.06L370.41,647.05L370.49,647.14L370.5,647.17L370.5,655.88L370.43,656.11L370.25,656.27L368.59,657L366.91,657.59L365.22,658.03L363.51,658.32L361.87,658.46L360.22,658.47L358.56,658.35L356.88,658.11L355.64,657.82L354.5,657.42L353.42,656.92L352.44,656.31L351.67,655.72L350.96,655.06L350.29,654.31L349.69,653.52L349.12,652.61L348.61,651.66L348.16,650.64L347.75,649.52L347.4,648.36L347.09,647.11L346.84,645.77L346.63,644.35L346.36,641.27L346.27,637.73L346.25,585.64L346.22,585.44L346.13,585.27L345.99,585.13L345.82,585.04L345.62,585.01L339.58,585.01L339.35,584.96L339.16,584.83L339.04,584.64L338.99,584.42L338.99,579.2L339.03,578.96L339.14,578.75L339.31,578.58L339.52,578.48L346.04,576.47L346.25,576.37L346.43,576.21L346.55,576L346.62,575.77L348.58,558.15L348.73,557.87L349.02,557.76L355.83,557.76L355.98,557.79L356.12,557.88L356.21,558.02L356.24,558.18L356.24,575.68L356.28,575.9L356.41,576.08L356.6,576.2L356.82,576.25L369.89,576.25L370.06,576.28L370.2,576.37L370.3,576.52L370.33,576.69L370.33,584.54L370.3,584.71L370.2,584.86L370.05,584.96L369.87,584.99L356.86,584.99L356.53,585.1L356.34,585.31L356.27,585.58L356.24,615.35L356.32,639.55L356.39,641.27L356.56,642.81L356.84,644.21L357.22,645.45L357.69,646.49L358.26,647.37L358.95,648.08L359.71,648.6L360.34,648.87L361.03,649.04L362.15,649.18L363.27,649.21L364.15,649.17L365.03,649.06L365.91,648.89L366.79,648.65L367.67,648.35L368.54,647.98L370.3,647.06Z" style="fill:rgb(112,115,114);fill-rule:nonzero;"/>
        <path d="M799.28,647.06L799.4,647.05L799.48,647.13L799.48,655.88L799.41,656.11L799.23,656.27L797.57,657L795.9,657.58L794.2,658.02L792.49,658.31L790.86,658.46L789.21,658.47L787.54,658.35L785.86,658.1L784.62,657.81L783.48,657.42L782.41,656.91L781.43,656.31L780.65,655.71L779.94,655.05L779.27,654.31L778.67,653.51L778.1,652.61L777.6,651.66L777.14,650.64L776.73,649.52L776.38,648.36L776.08,647.1L775.82,645.76L775.61,644.35L775.34,641.26L775.25,637.72L775.24,585.63L775.19,585.39L775.05,585.19L774.85,585.05L774.61,585L768.57,585L768.35,584.96L768.15,584.83L768.03,584.64L767.98,584.42L767.98,579.2L768.02,578.96L768.13,578.75L768.3,578.58L768.51,578.48L775.03,576.47L775.24,576.37L775.42,576.21L775.55,576L775.61,575.77L777.57,558.15L777.72,557.87L778.01,557.76L784.82,557.76L784.98,557.79L785.11,557.88L785.2,558.02L785.23,558.18L785.23,575.68L785.27,575.9L785.4,576.08L785.59,576.2L785.81,576.25L798.88,576.25L799.05,576.28L799.19,576.38L799.29,576.52L799.32,576.69L799.32,584.54L799.29,584.71L799.19,584.86L799.04,584.96L798.86,584.99L785.85,584.99L785.77,585L785.57,585.07L785.41,585.2L785.3,585.38L785.26,585.58L785.23,615.35L785.31,639.54L785.38,641.26L785.55,642.81L785.82,644.2L786.2,645.44L786.67,646.49L787.25,647.36L787.93,648.08L788.7,648.6L789.32,648.86L790.02,649.04L791.13,649.17L792.25,649.21L793.13,649.17L794.01,649.06L794.89,648.88L795.77,648.65L796.65,648.35L797.53,647.98L799.28,647.06Z" style="fill:rgb(112,115,114);fill-rule:nonzero;"/>
        <path d="M104.87,587.91L106.14,585.44L107.21,583.49L108.11,582.03L109.07,580.7L110.07,579.5L111.12,578.44L112.22,577.52L113.36,576.73L114.56,576.07L115.8,575.55L117.12,575.15L118.5,574.9L119.92,574.79L121.39,574.82L122.92,574.99L124.5,575.3L126.12,575.76L127.8,576.35L128.02,576.49L128.18,576.69L128.26,576.94L128.25,577.2L126.24,586.1L126.24,586.11L126.16,586.27L126.02,586.39L125.84,586.45L125.66,586.43L122.52,585.5L121.32,585.24L120.18,585.13L119.05,585.17L117.98,585.34L116.97,585.65L116.02,586.07L115.08,586.63L114.19,587.3L113.33,588.1L112.48,589.05L111.69,590.09L110.92,591.27L110.19,592.58L109.49,594L108.83,595.56L108.22,597.22L107.64,599.01L107.11,600.88L106.64,602.81L106.23,604.82L105.87,607.27L105.62,610.24L105.49,613.72L105.46,617.72L105.52,634.09L105.49,656.72L105.41,656.91L105.21,656.99L95.78,656.99L95.58,656.91L95.5,656.72L95.5,576.48L95.57,576.32L95.74,576.25L103.46,576.25L103.64,576.32L103.73,576.5L104.46,587.83L104.5,587.94L104.69,588.03L104.87,587.91Z" style="fill:rgb(112,115,114);fill-rule:nonzero;"/>
        <path d="M218.38,642.82L218.41,642.8L218.49,642.82L218.53,642.89L218.53,652.84L218.46,653.1L218.28,653.3L215.89,654.69L213.45,655.87L210.96,656.82L208.41,657.56L206.99,657.87L205.55,658.12L204.09,658.3L202.62,658.41L201.13,658.46L199.62,658.44L198.1,658.35L196.56,658.2L194.29,657.82L192.11,657.24L190.07,656.47L188.12,655.49L187.09,654.87L186.1,654.19L185.13,653.44L184.2,652.63L183.3,651.76L182.44,650.83L181.61,649.83L180.83,648.79L180.07,647.67L179.36,646.52L178.04,644.02L176.87,641.27L175.85,638.32L174.97,635.09L174.25,631.65L173.69,628.01L173.3,624.2L173.08,620.2L173.03,616.06L173.15,611.89L173.44,607.73L173.76,604.77L174.17,601.89L174.68,599.15L175.27,596.52L175.94,594.04L176.71,591.69L177.55,589.5L178.47,587.45L179.47,585.55L180.54,583.81L181.71,582.2L182.95,580.76L184.27,579.46L185.65,578.32L187.13,577.32L188.67,576.49L190.19,575.85L191.8,575.33L193.46,574.97L195.21,574.74L196.99,574.65L198.87,574.7L200.79,574.89L202.8,575.23L203.91,575.49L204.98,575.81L206.04,576.2L207.05,576.65L207.95,577.13L208.83,577.66L209.69,578.26L210.51,578.9L211.31,579.61L212.08,580.37L213.54,582.06L214.87,583.96L216.09,586.07L217.19,588.41L218.16,590.94L219.02,593.74L219.75,596.72L220.35,599.89L220.8,603.21L221.11,606.71L221.27,610.32L221.28,613.93L221.13,617.47L221.08,617.67L220.95,617.84L220.77,617.95L220.56,617.99L183.35,618L183.11,618.1L183.02,618.34L183.09,621.25L183.23,623.93L183.44,626.47L183.73,628.88L184.1,631.14L184.54,633.27L185.06,635.26L185.66,637.12L186.33,638.85L187.09,640.44L187.93,641.93L188.84,643.26L189.84,644.47L190.9,645.53L192.06,646.48L193.28,647.28L194.27,647.8L195.33,648.25L196.42,648.62L197.56,648.91L198.74,649.12L199.97,649.25L201.23,649.3L202.56,649.27L204.16,649.13L205.74,648.91L207.28,648.59L208.8,648.18L210.07,647.75L211.32,647.25L212.55,646.68L213.76,646.05L214.94,645.35L216.11,644.57L217.26,643.73L218.38,642.82ZM183.62,609.43L211.44,609.57L211.59,609.51L211.65,609.36L211.66,608.29L211.61,605.88L211.43,603.49L211.12,601.14L210.69,598.87L210.14,596.68L209.48,594.6L208.71,592.66L207.84,590.86L206.88,589.24L205.83,587.79L204.72,586.54L203.54,585.51L202.31,584.68L201.04,584.09L199.75,583.73L198.44,583.6L196.9,583.6L195.59,583.71L194.29,584.06L193.02,584.64L191.78,585.44L190.59,586.47L189.46,587.71L188.4,589.14L187.42,590.76L186.53,592.54L185.74,594.48L185.06,596.55L184.48,598.73L184.03,601L183.7,603.34L183.5,605.73L183.42,608.15L183.41,609.22L183.47,609.36L183.62,609.43Z" style="fill:rgb(112,115,114);fill-rule:nonzero;"/>
        <path d="M240.99,648.17L240.99,691.61L240.88,691.88L240.61,691.99L231.36,691.99L231.14,691.92L231.04,691.79L231,691.63L231,576.48L231.07,576.32L231.24,576.25L238.97,576.25L239.18,576.33L239.28,576.54L239.93,586.67L239.99,586.85L240.13,586.97L240.32,587.01L240.5,586.95L240.62,586.8L241.65,584.79L242.79,582.94L244.08,581.24L245.47,579.73L246.96,578.4L248.53,577.29L250.22,576.36L251.96,575.65L253.67,575.17L255.4,574.88L257.22,574.73L258.95,574.7L260.64,574.79L262.25,574.99L263.83,575.31L265.33,575.74L266.78,576.3L268.14,576.96L269.13,577.53L270.08,578.16L271,578.86L271.88,579.62L272.73,580.46L273.54,581.35L274.33,582.31L275.07,583.33L275.78,584.42L276.45,585.56L277.67,588.03L278.77,590.76L279.71,593.73L280.51,596.98L281.16,600.45L281.66,604.14L282.01,608.09L282.2,612.24L282.24,616.6L282.12,621.13L281.85,625.76L281.44,629.85L280.87,633.61L280.11,637.12L279.66,638.8L279.17,640.4L278.63,641.96L278.05,643.43L277.42,644.86L276.73,646.25L276.01,647.56L275.22,648.84L274.4,650.05L273.52,651.22L272.81,652.06L272.06,652.85L271.26,653.61L270.42,654.32L269.32,655.13L268.17,655.86L266.96,656.51L265.71,657.07L264.42,657.54L263.1,657.92L261.76,658.21L260.4,658.4L259.04,658.5L257.67,658.5L256.3,658.41L254.94,658.22L253.6,657.93L252.28,657.55L251.01,657.08L249.77,656.51L248.52,655.83L247.31,655.05L246.71,654.58L246.07,654L244.66,652.49L243.08,650.51L241.34,648.07L241.17,647.98L241.01,648.08L240.99,648.17ZM240.96,616.41L240.99,619.87L241.08,622.89L241.25,625.72L241.49,628.36L241.82,630.86L242.24,633.21L242.73,635.4L243.31,637.43L243.98,639.31L244.74,641.03L245.57,642.58L246.49,643.95L247.49,645.17L248.57,646.21L249.76,647.11L251,647.82L252.23,648.33L253.56,648.71L254.93,648.93L256.41,649.01L257.88,648.94L259.26,648.72L260.59,648.35L261.82,647.84L263.07,647.14L264.26,646.25L265.34,645.21L266.35,643.99L267.27,642.62L268.11,641.08L268.87,639.36L269.55,637.48L270.14,635.45L270.65,633.27L271.07,630.92L271.41,628.42L271.67,625.79L271.85,622.95L271.95,619.93L271.99,616.48L271.97,613.03L271.88,610L271.71,607.17L271.46,604.53L271.13,602.04L270.72,599.68L270.22,597.5L269.64,595.46L268.97,593.58L268.21,591.86L267.38,590.32L266.46,588.94L265.46,587.72L264.38,586.68L263.2,585.79L261.95,585.07L260.72,584.56L259.4,584.19L258.02,583.96L256.54,583.89L255.07,583.96L253.69,584.18L252.37,584.54L251.14,585.05L249.89,585.76L248.7,586.65L247.62,587.68L246.6,588.9L245.68,590.27L244.84,591.81L244.08,593.53L243.4,595.41L242.81,597.44L242.31,599.62L241.88,601.98L241.54,604.47L241.28,607.11L241.1,609.94L241,612.96L240.96,616.41Z" style="fill:rgb(112,115,114);fill-rule:nonzero;"/>
        <path d="M323.56,648.25L321.28,651.45L320.33,652.63L319.41,653.66L318.49,654.57L317.57,655.35L316.59,656.05L315.61,656.64L314.08,657.34L312.44,657.86L310.61,658.22L308.63,658.42L306.85,658.47L305.14,658.4L303.52,658.21L301.98,657.91L300.51,657.5L299.12,656.97L297.82,656.32L296.59,655.56L295.35,654.61L294.2,653.53L293.15,652.31L292.19,650.96L291.32,649.47L290.55,647.85L289.86,646.09L289.27,644.2L288.9,642.74L288.59,641.28L288.34,639.83L288.16,638.39L288.04,636.95L287.99,635.51L288,634.08L288.08,632.65L288.26,630.91L288.54,629.18L288.92,627.45L289.39,625.73L290.05,623.85L290.86,622.06L291.8,620.42L292.9,618.87L293.91,617.67L295.05,616.53L296.26,615.49L297.6,614.51L299.02,613.62L300.57,612.79L302.2,612.06L303.94,611.39L305.78,610.8L307.72,610.28L309.79,609.82L311.98,609.44L314.3,609.12L316.77,608.86L319.42,608.66L322.39,608.5L322.6,608.45L322.78,608.33L322.9,608.16L322.95,607.95L323.04,604.16L322.93,599.94L322.58,595.71L322.32,593.83L321.95,592.1L321.49,590.55L320.92,589.16L320.25,587.92L319.49,586.84L318.6,585.91L317.62,585.14L316.42,584.48L315.11,584.01L313.64,583.73L312.06,583.64L311.12,583.66L309.33,583.81L307.55,584.09L305.78,584.5L304.01,585.05L302.25,585.74L300.49,586.56L298.74,587.52L296.99,588.62L296.85,588.64L296.75,588.56L296.74,588.55L293.16,580.86L293.15,580.67L293.26,580.52L294.56,579.7L295.88,578.95L297.21,578.25L298.56,577.62L299.93,577.05L301.31,576.54L302.7,576.09L304.11,575.71L306.86,575.14L309.67,574.81L312.54,574.7L315.46,574.82L316.82,574.97L318.11,575.19L319.36,575.48L320.55,575.85L321.7,576.29L322.78,576.81L323.81,577.41L324.78,578.07L325.79,578.89L326.72,579.78L327.59,580.77L328.39,581.84L329.13,583.02L329.8,584.26L330.4,585.59L330.95,587.02L331.43,588.54L331.84,590.16L332.19,591.86L332.47,593.64L332.7,595.52L332.85,597.49L332.95,599.57L332.98,601.75L332.99,656.73L332.91,656.92L332.73,657L324.99,657L324.82,656.93L324.74,656.77L324.2,648.43L324.15,648.26L324.02,648.14L323.85,648.1L323.68,648.14L323.56,648.25ZM322.26,616.63L320.37,616.83L316.37,617.27L313.5,617.7L311.02,618.2L308.83,618.83L306.85,619.6L305.95,620.04L305.09,620.53L304.31,621.05L303.56,621.62L302.88,622.22L302.23,622.88L301.59,623.63L301,624.45L300.48,625.31L300,626.24L299.59,627.21L299.22,628.25L298.92,629.33L298.66,630.48L298.43,631.87L298.28,633.3L298.2,634.78L298.19,636.24L298.27,637.67L298.42,639.04L298.65,640.37L298.94,641.62L299.31,642.78L299.72,643.83L300.21,644.81L300.77,645.73L301.37,646.52L302.05,647.25L302.78,647.87L303.58,648.41L304.2,648.74L304.86,649.02L306.25,649.42L307.27,649.59L308.25,649.7L309.22,649.73L310.14,649.7L311.04,649.59L311.89,649.42L312.73,649.18L313.53,648.87L314.79,648.2L315.99,647.33L317.08,646.29L318.09,645.05L319,643.64L319.83,642.04L320.58,640.24L321.23,638.28L321.8,636.1L322.27,633.76L322.64,631.24L322.9,628.6L323.06,625.81L323.12,622.9L323.06,619.97L322.89,617.15L322.82,616.93L322.68,616.76L322.48,616.65L322.26,616.63Z" style="fill:rgb(112,115,114);fill-rule:nonzero;"/>
        <path d="M504.55,642.82L504.57,642.8L504.66,642.81L504.7,642.89L504.71,652.84L504.64,653.1L504.46,653.3L502.07,654.7L499.63,655.87L497.14,656.83L494.59,657.57L493.17,657.88L491.73,658.13L490.27,658.31L488.79,658.43L487.31,658.47L485.8,658.45L484.28,658.37L482.74,658.22L480.47,657.84L478.29,657.26L476.25,656.5L474.3,655.53L473.26,654.9L472.27,654.22L471.3,653.47L470.37,652.67L469.47,651.79L468.61,650.87L467.78,649.87L466.99,648.83L466.23,647.71L465.52,646.55L464.2,644.06L463.02,641.31L462,638.36L461.12,635.13L460.4,631.69L459.83,628.05L459.44,624.24L459.21,620.24L459.16,616.1L459.27,611.92L459.56,607.77L459.88,604.8L460.29,601.92L460.79,599.18L461.38,596.55L462.05,594.07L462.81,591.72L463.65,589.53L464.57,587.48L465.57,585.58L466.64,583.84L467.81,582.22L469.04,580.78L470.36,579.47L471.74,578.34L473.22,577.34L474.76,576.51L476.28,575.86L477.89,575.35L479.55,574.98L481.3,574.74L483.09,574.65L484.96,574.7L486.88,574.89L488.89,575.23L490.01,575.49L491.08,575.81L492.13,576.2L493.14,576.65L494.05,577.13L494.92,577.66L495.78,578.25L496.61,578.89L497.41,579.6L498.18,580.36L499.64,582.05L500.98,583.95L502.19,586.06L503.3,588.39L504.27,590.93L505.14,593.72L505.87,596.7L506.47,599.88L506.92,603.2L507.24,606.69L507.4,610.31L507.42,613.92L507.27,617.46L507.22,617.66L507.09,617.83L506.91,617.94L506.7,617.98L469.48,618.03L469.25,618.13L469.15,618.37L469.23,621.28L469.37,623.96L469.58,626.5L469.88,628.91L470.24,631.17L470.69,633.3L471.21,635.29L471.81,637.15L472.49,638.88L473.24,640.47L474.09,641.95L475,643.29L476,644.5L477.06,645.55L478.23,646.5L479.45,647.3L480.44,647.82L481.5,648.27L482.58,648.64L483.73,648.93L484.91,649.13L486.14,649.26L487.4,649.31L488.73,649.28L490.33,649.15L491.91,648.92L493.45,648.6L494.97,648.18L496.24,647.75L497.49,647.26L498.72,646.69L499.93,646.05L501.11,645.35L502.28,644.57L503.42,643.73L504.55,642.82ZM469.89,609.43L497.41,609.57L497.46,609.57L497.61,609.48L497.67,609.31L497.68,607.56L497.63,605.22L497.45,602.9L497.15,600.63L496.72,598.42L496.17,596.29L495.52,594.28L494.75,592.39L493.88,590.65L492.93,589.07L491.89,587.67L490.78,586.46L489.61,585.45L488.38,584.65L487.12,584.08L485.84,583.73L484.54,583.6L483.04,583.6L481.74,583.7L480.45,584.04L479.18,584.6L477.95,585.39L476.77,586.38L475.64,587.58L474.59,588.97L473.62,590.54L472.73,592.28L471.95,594.16L471.27,596.16L470.7,598.28L470.25,600.48L469.92,602.76L469.72,605.08L469.64,607.42L469.63,609.17L469.71,609.35L469.89,609.43Z" style="fill:rgb(112,115,114);fill-rule:nonzero;"/>
        <path d="M596.66,586.02L597.94,583.95L598.72,582.75L599.54,581.64L600.41,580.61L601.32,579.66L602.28,578.79L603.27,578L604.31,577.3L605.4,576.69L606.63,576.1L607.93,575.62L609.27,575.23L610.67,574.95L612.11,574.76L613.61,574.68L615.17,574.7L616.77,574.81L617.91,574.96L619,575.16L620.07,575.42L621.09,575.75L622.07,576.12L623,576.55L623.9,577.05L624.76,577.59L625.79,578.37L626.74,579.22L627.65,580.17L628.47,581.18L629.25,582.32L629.95,583.51L630.59,584.78L631.18,586.17L631.69,587.63L632.15,589.19L632.53,590.8L632.85,592.5L633.1,594.27L633.28,596.12L633.39,598.04L633.44,600.01L633.51,624.86L633.48,656.39L633.43,656.62L633.3,656.82L633.1,656.95L632.87,657L623.95,657L623.67,656.95L623.44,656.79L623.28,656.56L623.23,656.29L623.23,600.51L623.12,597.71L622.81,595.05L622.57,593.81L622.29,592.65L621.95,591.52L621.58,590.49L621.16,589.54L620.69,588.64L620.18,587.83L619.62,587.08L619.03,586.43L618.39,585.84L617.71,585.34L616.98,584.9L616.25,584.57L615.48,584.3L614.68,584.1L613.84,583.98L612.97,583.93L612.06,583.94L611.13,584.03L610.15,584.19L608.71,584.56L607.33,585.11L606.21,585.72L605.17,586.44L604.19,587.27L603.26,588.24L602.4,589.32L601.59,590.54L600.86,591.85L600.18,593.29L599.57,594.85L599.03,596.52L598.55,598.31L598.14,600.19L597.81,602.19L597.55,604.25L597.37,606.37L597.28,608.5L597.26,656.7L597.18,656.91L596.97,656.99L587.52,656.99L587.32,656.91L587.24,656.71L587.24,576.52L587.32,576.33L587.52,576.25L595.2,576.25L595.38,576.32L595.47,576.51L596.07,585.86L596.12,586.01L596.24,586.12L596.4,586.16L596.55,586.12L596.66,586.02Z" style="fill:rgb(112,115,114);fill-rule:nonzero;"/>
        <path d="M711.85,642.83L711.88,642.81L711.96,642.82L712,642.9L712,652.85L711.93,653.11L711.75,653.31L709.36,654.7L706.92,655.88L704.43,656.83L701.88,657.57L700.45,657.88L699.01,658.12L697.56,658.3L696.08,658.41L694.59,658.46L693.09,658.44L691.57,658.35L690.03,658.2L687.76,657.82L685.58,657.24L683.54,656.47L681.59,655.5L680.56,654.87L679.57,654.19L678.6,653.44L677.67,652.63L676.77,651.76L675.91,650.83L675.08,649.83L674.3,648.79L673.54,647.67L672.83,646.51L671.52,644.02L670.34,641.27L669.32,638.32L668.44,635.08L667.73,631.65L667.17,628L666.78,624.2L666.56,620.2L666.51,616.06L666.63,611.89L666.92,607.73L667.24,604.77L667.66,601.89L668.16,599.15L668.76,596.52L669.43,594.04L670.19,591.69L671.03,589.5L671.96,587.45L672.96,585.56L674.03,583.82L675.2,582.21L676.44,580.76L677.76,579.46L679.14,578.33L680.62,577.33L682.15,576.5L683.68,575.86L685.29,575.34L686.95,574.97L688.7,574.74L690.48,574.66L692.36,574.71L694.28,574.9L696.29,575.24L697.4,575.5L698.47,575.82L699.52,576.21L700.53,576.67L701.44,577.14L702.31,577.67L703.17,578.27L704,578.91L704.8,579.62L705.57,580.38L707.03,582.07L708.36,583.97L709.57,586.08L710.67,588.42L711.64,590.95L712.51,593.75L713.23,596.73L713.83,599.91L714.28,603.23L714.59,606.72L714.75,610.33L714.76,613.94L714.61,617.48L714.55,617.68L714.43,617.85L714.25,617.96L714.04,618L676.83,618L676.59,618.1L676.5,618.34L676.57,621.25L676.71,623.93L676.92,626.47L677.21,628.88L677.57,631.14L678.02,633.27L678.54,635.26L679.13,637.12L679.81,638.85L680.56,640.45L681.4,641.93L682.31,643.26L683.31,644.47L684.37,645.53L685.53,646.48L686.75,647.28L687.75,647.8L688.8,648.25L689.89,648.62L691.04,648.91L692.21,649.12L693.44,649.25L694.71,649.3L696.03,649.27L697.63,649.14L699.21,648.92L700.75,648.6L702.27,648.18L703.54,647.75L704.79,647.26L706.02,646.69L707.23,646.06L708.41,645.35L709.58,644.58L710.73,643.74L711.85,642.83ZM677.22,609.45L704.82,609.55L705.04,609.46L705.13,609.25L705.13,608.1L705.07,605.7L704.89,603.33L704.58,601.01L704.15,598.75L703.6,596.58L702.94,594.52L702.17,592.59L701.3,590.81L700.34,589.2L699.3,587.77L698.19,586.53L697.01,585.5L695.79,584.69L694.52,584.1L693.24,583.75L691.94,583.62L690.3,583.62L688.99,583.73L687.7,584.08L686.44,584.66L685.21,585.46L684.02,586.48L682.9,587.71L681.85,589.13L680.88,590.74L680,592.51L679.22,594.44L678.54,596.49L677.97,598.66L677.53,600.91L677.2,603.24L677,605.61L676.93,608L676.93,609.16L677.02,609.37L677.22,609.45Z" style="fill:rgb(112,115,114);fill-rule:nonzero;"/>
        <path d="M761.79,645.43L761.91,645.42L761.99,645.5L762,645.54L762,654.59L761.94,654.79L761.78,654.93L759.82,655.84L757.86,656.61L755.91,657.25L753.96,657.76L752.03,658.13L750.1,658.37L748.17,658.47L746.26,658.44L744.16,658.25L742.07,657.9L739.98,657.39L737.91,656.71L736.56,656.15L735.14,655.41L733.8,654.55L732.53,653.57L731.31,652.44L730.15,651.19L729.05,649.8L728.03,648.31L727.08,646.68L726.18,644.93L725.36,643.05L724.6,641.05L723.92,638.93L723.31,636.71L722.79,634.4L722.34,631.99L721.97,629.51L721.57,625.88L721.31,622.24L721.2,618.62L721.23,614.99L721.46,610.55L721.91,606.11L722.58,601.68L723.46,597.25L724.11,594.83L725.01,592.33L726.15,589.73L727.53,587.04L728.34,585.67L729.2,584.38L730.14,583.15L731.13,582.01L732.19,580.93L733.31,579.94L734.5,579.01L735.73,578.18L737.1,577.38L738.52,576.69L740,576.09L741.52,575.59L743.09,575.19L744.69,574.9L746.32,574.71L747.96,574.63L749.65,574.65L751.34,574.77L753.04,575L754.74,575.33L756.44,575.76L758.13,576.3L759.81,576.93L761.47,577.67L761.75,577.84L762,578.06L762.2,578.32L762.35,578.61L762.44,578.93L762.47,579.26L762.43,579.58L762.34,579.9L759.79,586.24L759.56,586.57L759.21,586.77L758.81,586.8L758.44,586.65L758.29,586.53L757.72,586.1L756.84,585.66L755.63,585.19L754.1,584.7L752.64,584.32L751.25,584.06L749.88,583.91L748.57,583.87L747.28,583.94L746.05,584.12L744.86,584.42L743.72,584.82L742.49,585.4L741.34,586.11L740.26,586.94L739.2,587.93L738.22,589.04L737.29,590.3L736.43,591.67L735.63,593.17L734.89,594.81L734.22,596.58L733.6,598.48L733.06,600.48L732.59,602.61L732.19,604.82L731.88,607.12L731.64,609.46L731.42,612.94L731.33,616.52L731.37,620.04L731.54,623.43L731.82,626.63L732.24,629.67L732.77,632.5L733.42,635.14L734.17,637.51L735.04,639.68L736.01,641.61L737.09,643.33L738.28,644.83L739.57,646.1L740.26,646.65L740.98,647.15L741.71,647.59L742.48,647.97L743.47,648.37L744.48,648.69L745.56,648.93L746.67,649.1L747.84,649.2L749.03,649.22L750.27,649.17L751.51,649.04L752.83,648.83L754.13,648.55L755.46,648.19L756.76,647.77L758.08,647.27L759.36,646.71L760.61,646.09L761.79,645.43Z" style="fill:rgb(112,115,114);fill-rule:nonzero;"/>
        <path d="M853.84,574.64L855.5,574.68L857.1,574.81L858.66,575.04L860.14,575.35L861.6,575.76L862.99,576.27L864.34,576.86L865.61,577.55L867.32,578.66L868.94,579.97L870.42,581.43L871.81,583.08L873.09,584.91L874.26,586.91L875.34,589.1L876.29,591.45L877.15,594L877.89,596.7L878.52,599.58L879.04,602.62L879.44,605.85L879.74,609.21L879.92,612.73L879.99,616.42L879.95,620.11L879.79,623.63L879.52,627L879.14,630.23L878.64,633.27L878.03,636.16L877.31,638.86L876.48,641.41L875.53,643.78L874.48,645.97L873.32,647.98L872.06,649.81L870.68,651.48L869.2,652.95L867.6,654.27L865.9,655.4L864.63,656.09L863.28,656.7L861.9,657.21L860.44,657.63L858.96,657.96L857.4,658.19L855.81,658.34L854.14,658.39L852.48,658.35L850.88,658.22L849.33,657.99L847.84,657.68L846.38,657.26L844.99,656.76L843.64,656.16L842.37,655.48L840.66,654.37L839.05,653.06L837.56,651.6L836.17,649.94L834.89,648.12L833.72,646.12L832.65,643.93L831.69,641.58L830.83,639.03L830.1,636.33L829.46,633.45L828.95,630.41L828.54,627.18L828.24,623.82L828.06,620.3L827.99,616.61L828.03,612.92L828.19,609.4L828.46,606.03L828.85,602.8L829.34,599.76L829.95,596.87L830.67,594.16L831.51,591.62L832.45,589.25L833.5,587.06L834.66,585.05L835.93,583.21L837.3,581.55L838.78,580.07L840.39,578.76L842.08,577.63L843.36,576.94L844.7,576.33L846.08,575.82L847.54,575.4L849.02,575.07L850.58,574.83L852.17,574.69L853.84,574.64ZM838.4,616.55L838.43,620.03L838.54,623.07L838.72,625.93L838.98,628.58L839.32,631.09L839.75,633.46L840.26,635.66L840.85,637.7L841.53,639.59L842.3,641.32L843.15,642.87L844.07,644.25L845.09,645.48L846.18,646.52L847.37,647.42L848.63,648.13L849.87,648.64L851.21,649.01L852.59,649.23L854.08,649.3L855.56,649.22L856.95,649L858.28,648.62L859.52,648.11L860.77,647.39L861.97,646.49L863.05,645.44L864.06,644.21L864.98,642.83L865.83,641.27L866.59,639.54L867.26,637.65L867.85,635.6L868.35,633.4L868.76,631.03L869.1,628.52L869.34,625.86L869.51,623.01L869.61,619.97L869.63,616.49L869.59,613.02L869.49,609.98L869.31,607.12L869.05,604.47L868.71,601.96L868.28,599.59L867.77,597.39L867.18,595.35L866.5,593.46L865.73,591.73L864.88,590.18L863.96,588.8L862.94,587.57L861.85,586.53L860.65,585.63L859.4,584.92L858.16,584.41L856.82,584.04L855.43,583.82L853.95,583.75L852.47,583.83L851.08,584.05L849.75,584.43L848.51,584.94L847.25,585.66L846.06,586.56L844.98,587.61L843.96,588.84L843.04,590.22L842.2,591.78L841.44,593.51L840.77,595.4L840.18,597.45L839.68,599.65L839.26,602.02L838.93,604.53L838.68,607.19L838.51,610.04L838.42,613.08L838.4,616.55Z" style="fill:rgb(112,115,114);fill-rule:nonzero;"/>
        <path d="M899.06,585.86L899.11,586.01L899.23,586.12L899.39,586.16L899.55,586.12L899.65,586.02L900.93,583.95L901.71,582.75L902.54,581.63L903.4,580.6L904.31,579.65L905.27,578.79L906.26,578L907.3,577.3L908.39,576.68L909.63,576.1L910.92,575.61L912.26,575.23L913.66,574.95L915.11,574.76L916.61,574.68L918.16,574.69L919.76,574.81L920.9,574.95L921.99,575.16L923.06,575.42L924.08,575.74L925.06,576.12L925.99,576.55L926.9,577.04L927.75,577.59L928.78,578.36L929.74,579.21L930.64,580.16L931.46,581.18L932.25,582.31L932.95,583.51L933.59,584.78L934.17,586.16L934.69,587.62L935.14,589.18L935.53,590.8L935.84,592.5L936.09,594.27L936.28,596.11L936.39,598.03L936.44,600.01L936.51,624.85L936.48,656.39L936.39,656.71L936.17,656.92L935.87,657L926.95,657L926.68,656.95L926.44,656.79L926.29,656.56L926.23,656.29L926.23,600.51L926.12,597.71L925.8,595.05L925.56,593.8L925.29,592.64L924.95,591.51L924.57,590.48L924.16,589.54L923.69,588.64L923.18,587.83L922.61,587.08L922.02,586.43L921.38,585.84L920.7,585.34L919.97,584.9L919.25,584.56L918.47,584.29L917.67,584.1L916.83,583.97L915.96,583.92L915.05,583.94L914.12,584.03L913.14,584.19L911.7,584.56L910.32,585.11L909.2,585.72L908.16,586.44L907.19,587.27L906.25,588.24L905.39,589.32L904.58,590.54L903.85,591.85L903.18,593.29L902.56,594.85L902.02,596.52L901.54,598.31L901.14,600.19L900.8,602.19L900.55,604.25L900.37,606.37L900.27,608.5L900.26,656.7L900.17,656.91L899.97,656.99L890.52,656.99L890.4,656.97L890.28,656.86L890.24,656.71L890.23,576.52L890.31,576.33L890.51,576.25L898.19,576.25L898.37,576.32L898.46,576.51L899.06,585.86Z" style="fill:rgb(112,115,114);fill-rule:nonzero;"/>
        <path d="M81.5,656.6C81.5,656.814 81.324,656.99 81.11,656.99L71.89,656.99C71.676,656.99 71.5,656.814 71.5,656.6L71.5,576.64C71.5,576.426 71.676,576.25 71.89,576.25L81.11,576.25C81.324,576.25 81.5,576.426 81.5,576.64L81.5,656.6Z" style="fill:rgb(112,115,114);fill-rule:nonzero;"/>
        <path d="M143.67,647.62L143.66,647.67L143.71,647.9L143.93,648L168.29,648L168.47,648.04L168.62,648.14L168.72,648.29L168.76,648.47L168.76,656.52L168.72,656.7L168.62,656.86L168.47,656.96L168.29,657L132.84,657L132.63,656.96L132.45,656.84L132.34,656.66L132.3,656.45L132.44,651.22L132.54,649.71L132.68,648.94L156.62,585.78L156.64,585.61L156.6,585.45L156.48,585.32L156.33,585.26L156.26,585.25L134.44,585.25L134.27,585.22L134.13,585.12L134.03,584.98L134,584.82L134,576.68L134.03,576.51L134.13,576.37L134.27,576.27L134.44,576.24L167.39,576.24L167.58,576.27L167.76,576.36L167.94,576.58L168,576.85L168,583.56L167.96,583.79L143.67,647.62Z" style="fill:rgb(112,115,114);fill-rule:nonzero;"/>
        <path d="M387.76,656.59C387.76,656.809 387.579,656.99 387.36,656.99L378.14,656.99C377.921,656.99 377.74,656.809 377.74,656.59L377.74,576.65C377.74,576.431 377.921,576.25 378.14,576.25L387.36,576.25C387.579,576.25 387.76,576.431 387.76,576.65L387.76,656.59Z" style="fill:rgb(112,115,114);fill-rule:nonzero;"/>
        <path d="M573.26,656.6C573.26,656.819 573.079,657 572.86,657L563.64,657C563.421,657 563.24,656.819 563.24,656.6L563.24,576.66C563.24,576.441 563.421,576.26 563.64,576.26L572.86,576.26C573.079,576.26 573.26,576.441 573.26,576.66L573.26,656.6Z" style="fill:rgb(112,115,114);fill-rule:nonzero;"/>
        <path d="M635.25,681.67L635.74,682L636.48,682.32L637.48,682.65L638.73,682.97L639.8,683.15L640.77,683.16L641.67,683.01L642.46,682.7L643.24,682.19L643.94,681.47L644.54,680.56L645.03,679.46L645.42,678.16L645.7,676.7L645.88,675.07L645.95,673.25L646.01,643.98L645.99,576.5L646.06,576.32L646.24,576.25L655.75,576.25L655.91,576.32L655.98,576.48L656.01,629.98L655.96,674.68L655.88,676.32L655.63,678.12L655.23,680.09L654.66,682.21L654.24,683.5L653.74,684.7L653.17,685.84L652.54,686.88L651.84,687.84L651.08,688.71L650.23,689.5L649.33,690.2L647.96,691.04L646.48,691.69L644.88,692.16L643.19,692.45L641.39,692.55L639.52,692.46L637.55,692.19L635.53,691.73L635.11,691.54L634.78,691.23L634.56,690.82L634.49,690.37L634.49,682L634.52,681.84L634.65,681.66L634.84,681.56L635.06,681.57L635.25,681.67Z" style="fill:rgb(112,115,114);fill-rule:nonzero;"/>
        <path d="M817.5,656.61C817.5,656.824 817.324,657 817.11,657L808.13,657C807.916,657 807.74,656.824 807.74,656.61L807.74,576.63C807.74,576.416 807.916,576.24 808.13,576.24L817.11,576.24C817.324,576.24 817.5,576.416 817.5,576.63L817.5,656.61Z" style="fill:rgb(112,115,114);fill-rule:nonzero;"/>
        <path d="M771.94,130.46L805.72,76.07L809.12,70.45L811.19,67.19L812.19,65.79L813.25,64.47L814.39,63.2L815.59,62.03L816.86,60.91L818.19,59.88L819.58,58.93L821.02,58.06L822.92,57.09L824.87,56.27L826.9,55.59L828.97,55.06L831.07,54.7L833.2,54.49L835.33,54.44L837.47,54.54L839.59,54.81L841.7,55.24L843.75,55.81L845.77,56.54L847.71,57.41L849.6,58.44L851.41,59.59L853.16,60.89L854.14,61.75L855.18,62.82L856.28,64.08L857.44,65.54L858.67,67.2L859.96,69.07L862.72,73.39L881.8,104.08L926.62,175.86L927.9,178.13L928.46,179.31L928.97,180.51L929.8,182.93L930.13,184.18L930.4,185.43L930.7,187.33L930.86,189.23L930.9,191.16L930.8,193.07L930.56,194.99L930.2,196.89L929.71,198.76L929.1,200.59L928.36,202.38L927.5,204.12L926.53,205.8L925.44,207.42L924.25,208.95L922.96,210.42L921.58,211.77L920.1,213.04L918.02,214.57L915.84,215.89L913.5,217.03L911.09,217.96L909.89,218.3L908.48,218.6L906.87,218.84L905.06,219.03L903.04,219.17L900.82,219.26L895.78,219.29L875.81,219.24L827.96,219.27L827.51,219.15L827.18,218.83L771.94,130.46Z" style="fill:rgb(250,66,66);fill-rule:nonzero;"/>
    </g>
</svg>
