<?xml version="1.0" encoding="UTF-8" standalone="no"?>
<!DOCTYPE svg PUBLIC "-//W3C//DTD SVG 1.1//EN" "http://www.w3.org/Graphics/SVG/1.1/DTD/svg11.dtd">
<svg width="100%" height="100%" viewBox="0 0 447 213" version="1.1" xmlns="http://www.w3.org/2000/svg" xmlns:xlink="http://www.w3.org/1999/xlink" xml:space="preserve" xmlns:serif="http://www.serif.com/" style="fill-rule:evenodd;clip-rule:evenodd;stroke-linejoin:round;stroke-miterlimit:2;">
    <g transform="matrix(1,0,0,1,-71.35,-194)">
        <path d="M456.2,295.41L454.57,297.24L452.95,298.89L451.33,300.34L449.7,301.61L448.04,302.73L446.36,303.67L444.61,304.47L442.85,305.09L441.63,305.43L440.37,305.7L439.12,305.89L437.82,306.02L436.49,306.07L435.12,306.06L433.75,305.97L432.33,305.82L430.96,305.61L429.64,305.33L428.32,305L427.04,304.6L425.8,304.15L424.59,303.64L423.4,303.06L422.25,302.43L420.66,301.42L419.15,300.3L417.71,299.06L416.37,297.73L415.09,296.26L413.91,294.71L412.81,293.06L411.82,291.32L410.91,289.48L410.12,287.58L409.43,285.59L408.86,283.56L408.39,281.46L408.05,279.34L407.82,277.2L407.72,275.05L407.73,272.89L407.86,270.74L408.11,268.61L408.48,266.5L408.96,264.45L409.56,262.43L410.27,260.5L411.09,258.62L412,256.85L413.02,255.15L414.13,253.55L415.34,252.04L416.63,250.65L418.01,249.35L419.46,248.18L421.01,247.1L422.19,246.38L423.43,245.73L424.69,245.14L426,244.62L427.33,244.17L428.71,243.78L430.1,243.46L431.54,243.2L433.16,243L434.74,242.88L436.3,242.86L437.82,242.93L439.31,243.09L440.77,243.35L442.19,243.69L443.59,244.12L445.35,244.82L447.06,245.68L448.71,246.68L450.31,247.84L451.86,249.15L453.35,250.62L454.79,252.24L456.18,254.01L456.28,254.09L456.41,254.12L456.55,254.08L456.64,253.98L456.68,253.84L456.68,194.38L456.79,194.11L457.06,194L467.61,194L467.83,194.04L468.02,194.17L468.15,194.35L468.19,194.57L468.19,303.45L468.14,303.69L468.01,303.89L467.81,304.02L467.57,304.07L457.27,304.07L457.05,304.03L456.86,303.9L456.73,303.71L456.69,303.49L456.69,295.59L456.66,295.47L456.58,295.37L456.45,295.32L456.31,295.33L456.2,295.41ZM438.383,252.87L436.502,252.964L434.637,253.266L432.808,253.771L431.031,254.475L429.324,255.372L427.703,256.453L426.184,257.707L424.781,259.123L423.508,260.686L422.377,262.382L421.4,264.194L420.584,266.105L419.939,268.097L419.471,270.15L419.184,272.244L419.08,274.36L419.162,276.476L419.427,278.573L419.874,280.631L420.498,282.629L421.293,284.549L422.252,286.371L423.364,288.079L424.621,289.655L426.009,291.085L427.515,292.355L429.124,293.453L430.822,294.368L432.591,295.091L434.415,295.615L436.277,295.936L438.157,296.05L440.038,295.956L441.903,295.655L443.732,295.149L445.509,294.445L447.216,293.548L448.837,292.467L450.357,291.213L451.759,289.797L453.032,288.234L454.163,286.538L455.14,284.726L455.956,282.815L456.601,280.823L457.069,278.771L457.356,276.676L457.46,274.561L457.378,272.444L457.113,270.347L456.666,268.289L456.042,266.291L455.247,264.371L454.289,262.549L453.176,260.841L451.919,259.265L450.531,257.835L449.025,256.565L447.416,255.467L445.718,254.552L443.949,253.829L442.125,253.305L440.263,252.984L438.383,252.87Z" style="fill:rgb(192,48,26);fill-rule:nonzero;"/>
        <path d="M198.67,253.81L172.69,208.82L172.65,208.65L172.69,208.48L172.82,208.36L172.99,208.31L185.56,208.31L185.73,208.36L185.86,208.48L205.42,242.37L205.55,242.5L205.8,242.53L206.01,242.38L226.41,208.47L226.53,208.35L226.7,208.31L239.46,208.31L239.63,208.36L239.75,208.48L239.8,208.65L239.75,208.83L212.72,253.74L212.67,253.91L212.72,254.08L241.29,303.56L241.33,303.73L241.29,303.9L241.16,304.02L240.99,304.07L228.42,304.07L228.32,304.06L228.12,303.9L205.91,265.43L205.82,265.33L205.55,265.27L205.32,265.42L182.16,303.91L182.07,304L181.87,304.07L169.23,304.07L169.08,304.03L168.96,303.93L168.89,303.75L168.94,303.55L198.67,254.15L198.7,254.07L198.67,253.81Z" style="fill:rgb(192,48,26);fill-rule:nonzero;"/>
        <path d="M249.93,244.24L249.93,222.32L250.04,222.04L250.32,221.93L261.12,221.93L261.4,222.04L261.51,222.32L261.51,244.23L261.62,244.51L261.9,244.62L272.29,244.62L272.57,244.73L272.68,245.01L272.68,254.93L272.57,255.21L272.29,255.32L261.9,255.32L261.62,255.43L261.51,255.71L261.51,303.68L261.4,303.96L261.12,304.07L250.32,304.07L250.04,303.96L249.93,303.68L249.93,255.71L249.82,255.43L249.54,255.32L244.13,255.32L243.85,255.21L243.74,254.93L243.74,245.02L243.85,244.74L244.13,244.63L249.54,244.63L249.82,244.52L249.93,244.24Z" style="fill:rgb(192,48,26);fill-rule:nonzero;"/>
        <path d="M498.49,231.07C498.49,235.514 494.834,239.17 490.39,239.17C485.946,239.17 482.29,235.514 482.29,231.07C482.29,226.626 485.946,222.97 490.39,222.97C494.834,222.97 498.49,226.626 498.49,231.07Z" style="fill:rgb(192,48,26);fill-rule:nonzero;"/>
        <path d="M321.93,295.27L321.9,295.15L321.81,295.06L321.7,295.03L321.58,295.05L321.49,295.13L320.36,296.65L319.17,298.05L317.89,299.36L316.55,300.56L315.15,301.65L313.69,302.61L312.18,303.46L310.62,304.19L308.75,304.88L306.83,305.41L304.85,305.77L302.82,305.98L300.76,306.02L298.65,305.9L296.51,305.62L294.33,305.17L292.39,304.63L290.55,303.95L288.76,303.14L287.06,302.21L285.48,301.18L283.99,300.05L282.57,298.79L281.25,297.43L279.99,295.95L278.84,294.38L277.77,292.7L276.81,290.94L275.94,289.08L275.18,287.15L274.53,285.14L273.99,283.09L273.57,280.98L273.27,278.84L273.09,276.68L273.02,274.51L273.08,272.34L273.26,270.18L273.55,268.04L273.97,265.93L274.5,263.87L275.15,261.86L275.9,259.93L276.77,258.05L277.73,256.29L278.79,254.61L279.94,253.03L281.19,251.54L282.52,250.18L283.93,248.91L285.42,247.76L287,246.72L288.2,246.04L289.44,245.42L290.71,244.87L292.02,244.38L293.35,243.97L294.73,243.61L296.12,243.33L297.55,243.11L299.13,242.95L300.67,242.88L302.19,242.89L303.67,242.99L305.12,243.17L306.53,243.45L307.92,243.81L309.27,244.25L310.96,244.95L312.59,245.79L314.17,246.77L315.7,247.89L317.17,249.16L318.6,250.56L319.97,252.11L321.29,253.8L321.43,253.91L321.61,253.95L321.78,253.89L321.9,253.75L321.94,253.59L321.94,245.16L321.98,244.95L322.1,244.78L322.28,244.66L322.49,244.62L332.89,244.62L333.13,244.67L333.33,244.8L333.46,245.01L333.51,245.25L333.51,303.69L333.4,303.96L333.13,304.07L322.53,304.07L322.3,304.02L322.11,303.89L321.98,303.7L321.93,303.47L321.93,295.27ZM303.635,252.88L301.754,252.978L299.89,253.282L298.062,253.79L296.286,254.498L294.58,255.398L292.961,256.481L291.444,257.738L290.044,259.156L288.774,260.722L287.646,262.42L286.672,264.234L285.86,266.146L285.218,268.139L284.753,270.192L284.47,272.287L284.37,274.403L284.455,276.52L284.724,278.616L285.175,280.673L285.802,282.67L286.601,284.588L287.562,286.409L288.678,288.115L289.937,289.689L291.328,291.117L292.836,292.384L294.448,293.479L296.147,294.391L297.917,295.111L299.742,295.632L301.604,295.949L303.485,296.06L305.366,295.963L307.23,295.658L309.058,295.15L310.834,294.442L312.54,293.542L314.159,292.459L315.676,291.202L317.076,289.784L318.346,288.218L319.474,286.52L320.448,284.707L321.26,282.794L321.902,280.801L322.366,278.748L322.65,276.653L322.75,274.537L322.665,272.421L322.396,270.324L321.945,268.267L321.318,266.27L320.52,264.352L319.558,262.531L318.442,260.825L317.183,259.251L315.792,257.823L314.284,256.556L312.673,255.461L310.973,254.549L309.203,253.829L307.378,253.308L305.516,252.991L303.635,252.88Z" style="fill:rgb(192,48,26);fill-rule:nonzero;"/>
        <path d="M358.49,252.22L358.51,252.3L358.65,252.39L358.8,252.31L360.15,250.46L361.63,248.81L363.24,247.36L364.98,246.12L366,245.51L367.06,244.97L368.16,244.49L369.3,244.07L370.48,243.71L371.7,243.42L372.95,243.19L374.25,243.02L376.62,242.86L378.86,242.88L381.01,243.07L383.04,243.44L384.97,244L386.78,244.73L388.47,245.63L390.02,246.7L390.93,247.46L391.78,248.28L392.57,249.16L393.31,250.1L394.01,251.11L394.64,252.17L395.21,253.29L395.73,254.47L396.19,255.71L396.6,256.99L396.94,258.33L397.23,259.72L397.45,261.16L397.62,262.65L397.72,264.19L397.76,265.76L397.84,285.41L397.8,303.38L397.75,303.65L397.59,303.87L397.37,304.03L397.1,304.08L386.97,304.08L386.72,304.03L386.5,303.88L386.36,303.67L386.31,303.41L386.31,268.76L386.25,266.28L386.07,264.12L385.75,262.18L385.3,260.43L384.7,258.89L383.95,257.53L383.07,256.37L382.04,255.4L381.03,254.7L379.93,254.16L378.68,253.74L377.35,253.46L375.26,253.21L373.32,253.11L371.49,253.17L369.81,253.37L368.22,253.73L366.78,254.24L365.44,254.91L364.24,255.72L363.57,256.29L362.94,256.91L362.34,257.61L361.8,258.36L361.3,259.17L360.84,260.02L360.43,260.95L360.05,261.93L359.44,264.06L358.99,266.45L358.71,269.1L358.59,272.01L358.51,285.58L358.53,303.7L358.42,303.96L358.16,304.07L347.37,304.07L347.11,303.96L347,303.71L347,245.25L347.05,245.01L347.18,244.8L347.39,244.67L347.63,244.62L357.9,244.62L358.13,244.67L358.32,244.8L358.45,244.99L358.49,245.22L358.49,252.22Z" style="fill:rgb(192,48,26);fill-rule:nonzero;"/>
        <path d="M495.82,303.67C495.82,303.895 495.635,304.08 495.41,304.08L484.65,304.08C484.425,304.08 484.24,303.895 484.24,303.67L484.24,245.03C484.24,244.805 484.425,244.62 484.65,244.62L495.41,244.62C495.635,244.62 495.82,244.805 495.82,245.03L495.82,303.67Z" style="fill:rgb(192,48,26);fill-rule:nonzero;"/>
        <path d="M517.38,295.65C517.38,300.286 513.566,304.1 508.93,304.1C504.294,304.1 500.48,300.286 500.48,295.65C500.48,291.014 504.294,287.2 508.93,287.2C513.566,287.2 517.38,291.014 517.38,295.65ZM509.268,288.546L508.592,288.552L507.919,288.627L507.257,288.769L506.611,288.977L505.988,289.25L505.393,289.585L504.833,289.978L504.313,290.426L503.838,290.924L503.412,291.468L503.039,292.052L502.724,292.671L502.469,293.319L502.277,293.989L502.148,294.676L502.086,295.372L502.09,296.07L502.16,296.765L502.296,297.449L502.496,298.116L502.758,298.759L503.081,299.372L503.46,299.95L503.892,300.486L504.372,300.976L504.898,301.415L505.462,301.798L506.06,302.122L506.686,302.384L507.335,302.581L507.998,302.711L508.672,302.774L509.348,302.768L510.021,302.693L510.683,302.551L511.329,302.343L511.952,302.07L512.547,301.735L513.107,301.342L513.627,300.894L514.102,300.396L514.528,299.852L514.901,299.268L515.216,298.649L515.471,298.001L515.664,297.331L515.792,296.644L515.854,295.949L515.85,295.25L515.78,294.555L515.644,293.871L515.444,293.204L515.182,292.561L514.859,291.948L514.481,291.37L514.049,290.834L513.568,290.344L513.042,289.905L512.478,289.522L511.88,289.198L511.254,288.936L510.605,288.739L509.942,288.609L509.268,288.546Z" style="fill:rgb(192,48,26);fill-rule:nonzero;"/>
        <path d="M512.74,299.94L512.81,300.16L512.77,300.38L512.64,300.57L512.44,300.67L512.31,300.69L511.97,300.69L511.7,300.62L511.49,300.44L508.93,296.65L508.77,296.47L508.58,296.34L508.36,296.27L508.12,296.25L507.89,296.29L507.68,296.39L507.5,296.54L507.36,296.74L507.26,297.17L507.29,299.93L507.24,300.21L507.07,300.45L506.83,300.61L506.55,300.65L506.51,300.65L506.45,300.64L506.15,300.55L505.9,300.36L505.74,300.1L505.68,299.79L505.68,291.4L505.73,291.14L505.87,290.92L506.08,290.76L506.33,290.7L506.67,290.68L508.95,290.59L509.8,290.64L510.55,290.76L511.21,290.94L511.74,291.18L512.18,291.49L512.53,291.89L512.72,292.24L512.85,292.63L512.97,293.32L512.98,293.94L512.88,294.49L512.66,294.97L512.4,295.3L512.08,295.59L511.68,295.84L511.21,296.04L511.02,296.16L510.9,296.34L510.86,296.55L510.91,296.77L510.93,296.81L512.74,299.94ZM507.25,292.42L507.25,294.62L507.28,294.79L507.37,294.93L507.51,295.02L507.67,295.05L509.32,295.06L510.11,294.96L510.78,294.67L511.04,294.46L511.23,294.23L511.35,293.97L511.39,293.71L511.39,293.37L511.35,293.1L511.24,292.85L511.05,292.61L510.79,292.4L510.12,292.11L509.34,292L507.69,291.99L507.5,292.03L507.32,292.19L507.25,292.42Z" style="fill:rgb(192,48,26);fill-rule:nonzero;"/>
        <path d="M175.5,341L175.55,343.63L175.72,346.24L176.01,348.84L176.4,351.41L176.85,353.69L177.39,355.97L178.02,358.22L178.74,360.46L179.56,362.68L180.46,364.89L181.45,367.08L182.54,369.26L182.57,369.34L182.59,369.55L182.51,369.75L182.36,369.9L182.16,369.97L181.31,370L180.53,369.87L180.05,369.63L179.69,369.23L178.1,366.37L176.67,363.5L175.42,360.61L174.35,357.71L173.45,354.78L172.72,351.85L172.17,348.89L171.8,345.92L171.62,343.46L171.56,341L171.62,338.54L171.8,336.09L172.17,333.11L172.72,330.16L173.45,327.22L174.35,324.29L175.42,321.39L176.67,318.5L178.09,315.63L179.69,312.77L180.05,312.37L180.53,312.13L181.31,312.01L182.16,312.03L182.36,312.1L182.51,312.25L182.58,312.45L182.57,312.66L182.53,312.74L181.45,314.92L180.46,317.11L179.55,319.32L178.74,321.54L178.02,323.78L177.39,326.03L176.85,328.31L176.4,330.59L176.01,333.17L175.72,335.76L175.55,338.37L175.5,341Z" style="fill-rule:nonzero;"/>
        <path d="M296.89,357.74C296.89,357.965 296.705,358.15 296.48,358.15L293.34,358.15C293.115,358.15 292.93,357.965 292.93,357.74L292.93,312.48C292.93,312.255 293.115,312.07 293.34,312.07L296.48,312.07C296.705,312.07 296.89,312.255 296.89,312.48L296.89,357.74Z" style="fill-rule:nonzero;"/>
        <path d="M424.93,318.33C424.93,318.522 424.772,318.68 424.58,318.68L421.28,318.68C421.088,318.68 420.93,318.522 420.93,318.33L420.93,312.41C420.93,312.218 421.088,312.06 421.28,312.06L424.58,312.06C424.772,312.06 424.93,312.218 424.93,312.41L424.93,318.33Z" style="fill-rule:nonzero;"/>
        <path d="M450.44,353.33L450.03,354.23L449.53,355.05L448.94,355.83L448.27,356.52L447.6,357.08L446.87,357.56L446.1,357.98L445.28,358.31L444.43,358.57L443.55,358.74L442.63,358.84L441.69,358.85L440.47,358.74L439.34,358.52L438.27,358.16L437.28,357.68L436.25,356.99L435.28,356.13L434.44,355.13L433.67,353.96L433.01,352.66L432.44,351.19L431.97,349.58L431.6,347.82L431.33,345.87L431.17,343.8L431.12,341.61L431.19,339.36L431.38,337.02L431.68,334.72L432.08,332.52L432.56,330.56L433.16,328.86L433.52,328.09L433.93,327.37L434.38,326.71L434.87,326.11L435.4,325.55L435.98,325.06L437.03,324.36L438.19,323.81L439.47,323.4L440.87,323.15L442.39,323.06L443.81,323.17L445.13,323.47L446.34,323.98L447.09,324.43L447.8,324.97L448.47,325.61L449.08,326.33L449.51,326.96L449.67,327.37L449.77,327.91L449.85,328.06L449.96,328.13L450.09,328.12L450.24,328.02L450.32,327.85L450.32,312.36L450.41,312.15L450.62,312.06L453.97,312.06L454.17,312.14L454.25,312.34L454.25,357.73L454.22,357.88L454.13,358.01L454,358.1L453.85,358.13L451.15,358.13L450.88,358.04L450.73,357.88L450.68,357.66L450.68,353.38L450.61,353.27L450.49,353.27L450.44,353.33ZM435.4,340.96L435.44,343.88L435.61,346.23L435.9,348.28L436.34,350.09L436.93,351.65L437.28,352.33L437.68,352.96L438.1,353.5L438.57,353.99L439.07,354.41L439.61,354.77L440.32,355.11L441.11,355.37L441.94,355.52L442.84,355.57L443.75,355.52L444.58,355.37L445.36,355.11L446.07,354.77L446.62,354.41L447.11,353.99L447.58,353.5L448,352.96L448.4,352.33L448.75,351.65L449.34,350.09L449.79,348.28L450.08,346.23L450.25,343.88L450.29,340.97L450.25,338.06L450.08,335.7L449.79,333.65L449.35,331.84L448.76,330.28L448.41,329.6L448.01,328.97L447.59,328.43L447.12,327.94L446.62,327.52L446.08,327.16L445.37,326.82L444.58,326.57L443.75,326.42L442.85,326.36L441.94,326.42L441.11,326.56L440.33,326.82L439.62,327.16L439.07,327.52L438.58,327.94L438.11,328.43L437.69,328.97L437.29,329.6L436.94,330.28L436.35,331.84L435.9,333.65L435.61,335.7L435.44,338.05L435.4,340.96Z" style="fill-rule:nonzero;"/>
        <path d="M495.99,340.99L495.93,343.45L495.76,345.9L495.38,348.87L494.83,351.82L494.11,354.76L493.21,357.68L492.14,360.59L490.89,363.47L489.47,366.34L487.88,369.2L487.52,369.6L487.04,369.84L486.26,369.96L485.41,369.94L485.21,369.87L485.06,369.72L484.99,369.52L485,369.31L485.04,369.23L486.12,367.05L487.11,364.86L488.01,362.66L488.82,360.44L489.54,358.2L490.17,355.94L490.71,353.67L491.16,351.39L491.55,348.82L491.83,346.23L492,343.62L492.06,340.99L492,338.36L491.83,335.75L491.55,333.16L491.15,330.59L490.7,328.3L490.16,326.03L489.53,323.78L488.81,321.54L488,319.32L487.1,317.12L486.1,314.93L485.02,312.75L484.99,312.67L484.97,312.46L485.04,312.26L485.19,312.11L485.39,312.04L486.24,312.02L487.02,312.14L487.5,312.38L487.86,312.78L489.46,315.64L490.88,318.51L492.13,321.39L493.2,324.29L494.1,327.21L494.83,330.15L495.38,333.1L495.75,336.08L495.93,338.53L495.99,340.99Z" style="fill-rule:nonzero;"/>
        <path d="M333.94,327.12L330.38,327.12L330.12,327.04L329.98,326.88L329.93,326.67L329.93,324.33L329.97,324.13L330.08,323.96L330.24,323.85L330.44,323.81L334.08,323.81L334.31,323.76L334.5,323.63L334.63,323.43L334.68,323.2L334.68,314.79L334.71,314.63L334.81,314.49L334.95,314.4L335.11,314.37L338.2,314.37L338.36,314.4L338.5,314.49L338.6,314.63L338.63,314.79L338.63,323.21L338.68,323.44L338.81,323.64L339,323.77L339.23,323.82L344.18,323.82L344.38,323.86L344.54,323.97L344.65,324.13L344.69,324.33L344.69,326.62L344.65,326.82L344.54,326.98L344.38,327.09L344.18,327.13L338.93,327.13L338.77,327.19L338.64,327.31L338.57,327.47L338.58,327.65L338.64,333.78L338.6,351.31L338.66,352.36L338.85,353.21L339.18,353.92L339.63,354.46L339.99,354.72L340.4,354.92L340.87,355.07L341.39,355.16L342.64,355.16L344.17,354.93L344.21,354.92L344.39,354.94L344.55,355.04L344.65,355.18L344.69,355.36L344.69,357.69L344.65,357.91L344.53,358.1L344.36,358.24L344.14,358.31L342.66,358.46L341.29,358.51L340.06,358.46L338.95,358.29L337.98,358.02L337.14,357.65L336.4,357.16L335.81,356.57L335.32,355.84L334.98,355.02L334.77,354.08L334.7,352.99L334.7,327.91L334.65,327.61L334.48,327.36L334.24,327.18L333.94,327.12Z" style="fill-rule:nonzero;"/>
        <path d="M207.26,346.97L207.04,348.93L206.61,350.76L205.98,352.45L205.58,353.25L205.14,354.02L204.3,355.2L203.76,355.82L203.17,356.38L202.51,356.91L201.82,357.37L201.08,357.78L200.32,358.12L199.49,358.41L198.65,358.63L197.78,358.79L196.89,358.88L196,358.9L195.11,358.86L194.24,358.74L193.38,358.56L192.55,358.31L191.74,358L190.96,357.61L189.94,356.94L188.99,356.11L188.15,355.15L187.39,354.03L186.72,352.78L186.13,351.37L185.65,349.85L185.26,348.19L184.96,346.35L184.77,344.4L184.69,342.34L184.71,340.23L184.85,338.03L185.1,335.88L185.45,333.8L185.88,331.93L186.23,330.78L186.63,329.72L187.09,328.73L187.6,327.82L188.18,326.99L188.81,326.25L189.49,325.58L190.24,324.98L191.01,324.49L191.83,324.07L192.71,323.72L193.64,323.45L194.63,323.25L195.67,323.13L196.76,323.08L197.9,323.1L199.04,323.22L200.09,323.45L201.09,323.81L202.01,324.26L202.74,324.74L203.42,325.29L204.05,325.93L204.62,326.63L205.17,327.43L205.65,328.28L206.08,329.21L206.47,330.23L206.8,331.32L207.09,332.51L207.32,333.73L207.5,335.02L207.68,337.76L207.63,340.62L207.57,340.84L207.44,341.02L207.25,341.14L207.03,341.18L189.54,341.18L189.31,341.23L189.11,341.36L188.98,341.56L188.93,341.8L188.97,343.94L189.11,345.93L189.36,347.79L189.72,349.5L190.06,350.62L190.5,351.65L191.03,352.58L191.64,353.41L192.34,354.12L193.11,354.71L193.92,355.14L194.79,355.44L195.92,355.6L196.51,355.59L197.12,355.52L198.36,355.2L199.59,354.64L200.29,354.17L200.95,353.51L201.54,352.71L202.07,351.76L202.54,350.67L202.91,349.48L203.18,348.23L203.33,347.02L203.44,346.79L203.69,346.69L206.99,346.69L207.19,346.77L207.26,346.97ZM189.29,337.85L203.09,337.89L203.25,337.83L203.31,337.67L203.32,335.17L203.29,334.31L203.2,333.46L203.05,332.63L202.85,331.81L202.58,331.03L202.26,330.29L201.89,329.6L201.47,328.96L201.01,328.38L200.51,327.86L199.97,327.42L199.41,327.05L198.82,326.76L198.21,326.55L197.6,326.42L196.97,326.37L195.49,326.37L194.86,326.41L194.24,326.53L193.64,326.74L193.05,327.03L192.48,327.39L191.94,327.83L191.44,328.35L190.97,328.92L190.55,329.56L190.17,330.25L189.85,330.99L189.58,331.77L189.36,332.58L189.21,333.41L189.11,334.26L189.08,335.13L189.07,337.63L189.13,337.78L189.29,337.85Z" style="fill-rule:nonzero;"/>
        <path d="M217.62,328.04L218.19,327.2L218.83,326.44L219.53,325.74L220.29,325.12L221.11,324.57L221.97,324.09L222.88,323.69L223.82,323.39L224.77,323.17L225.73,323.04L226.68,323L227.62,323.06L228.54,323.2L229.43,323.44L230.27,323.77L231.07,324.19L231.79,324.68L232.45,325.25L232.99,325.85L233.48,326.51L233.89,327.22L234.24,327.99L234.51,328.8L234.72,329.66L234.85,330.56L234.91,331.52L234.92,357.81L234.85,358L234.75,358.09L234.61,358.12L231.3,358.12L231.09,358.03L231,357.82L231.01,334.91L230.99,333.46L230.91,332.23L230.76,331.16L230.55,330.22L230.26,329.37L229.91,328.66L229.47,328.04L228.94,327.51L228.25,327.04L227.43,326.69L226.51,326.47L225.45,326.38L224.27,326.43L223.19,326.63L222.15,326.99L221.22,327.49L220.45,328.06L219.77,328.73L219.16,329.51L218.66,330.38L218.25,331.33L217.95,332.35L217.76,333.42L217.68,334.53L217.63,342.65L217.64,357.74L217.53,358L217.27,358.11L214.07,358.11L213.8,358L213.69,357.73L213.69,324.32L213.73,324.12L213.84,323.96L214,323.85L214.2,323.81L216.78,323.81L216.96,323.85L217.11,323.95L217.21,324.1L217.25,324.28L217.25,327.94L217.28,328.04L217.44,328.14L217.62,328.04Z" style="fill-rule:nonzero;"/>
        <path d="M280.44,354.13L280.35,354.32L279.89,355.1L279.36,355.81L278.72,356.48L278.02,357.07L277.22,357.6L276.36,358.04L275.43,358.42L274.46,358.69L273.47,358.88L272.45,358.97L271.44,358.96L270.43,358.86L269.46,358.66L268.52,358.36L267.65,357.98L266.83,357.5L266.31,357.11L265.83,356.67L265.38,356.16L264.97,355.6L264.6,354.97L264.27,354.3L263.76,352.81L263.43,351.13L263.31,349.36L263.42,347.58L263.56,346.75L263.75,345.97L264.02,345.15L264.35,344.4L264.74,343.68L265.18,343.03L265.89,342.23L266.73,341.48L267.68,340.83L268.77,340.25L269.99,339.72L271.4,339.23L273.03,338.75L275.37,338.14L278.6,337.29L279.28,336.99L279.86,336.52L280.29,335.92L280.55,335.23L280.77,334.05L280.87,332.91L280.86,331.8L280.73,330.79L280.49,329.85L280.14,329.04L279.69,328.33L279.11,327.7L278.44,327.2L277.64,326.81L276.76,326.55L275.75,326.41L274.19,326.4L273.47,326.48L272.81,326.61L272.19,326.8L271.61,327.05L271.09,327.35L270.61,327.71L270.1,328.2L269.66,328.77L269.28,329.41L268.97,330.13L268.72,330.94L268.54,331.81L268.42,332.77L268.37,333.8L268.29,333.98L268.11,334.06L264.8,334.06L264.6,333.98L264.51,333.79L264.51,332.55L264.61,331.36L264.81,330.23L265.12,329.15L265.53,328.15L266.03,327.23L266.62,326.4L267.31,325.66L267.86,325.18L268.45,324.74L269.1,324.35L269.8,324.01L270.53,323.73L271.31,323.5L272.96,323.2L274.59,323.08L276.13,323.1L277.59,323.25L278.92,323.53L280.12,323.94L281.18,324.48L282.12,325.15L282.91,325.94L283.61,326.95L284.13,328.08L284.49,329.38L284.66,330.79L284.75,333.56L284.79,338.02L284.74,352.01L284.79,353.03L284.98,353.85L285.29,354.48L285.73,354.91L286.31,355.14L287.02,355.16L287.34,355.19L287.62,355.35L287.81,355.6L287.89,355.91L287.89,357.47L287.82,357.81L287.64,358.11L287.36,358.31L287.02,358.4L285.28,358.45L284.03,358.34L283.51,358.22L283.04,358.05L282.63,357.83L282.26,357.56L281.77,356.99L281.39,356.25L281.14,355.34L281,354.23L280.95,354.08L280.83,353.99L280.68,353.96L280.54,354.01L280.44,354.13ZM280.22,339.5L279.27,340.04L278.17,340.51L276.89,340.93L275.08,341.41L273.41,341.85L272.27,342.22L271.3,342.63L270.49,343.09L270.35,343.18L269.71,343.7L269.14,344.3L268.64,344.99L268.24,345.74L267.91,346.58L267.67,347.44L267.54,348.36L267.5,349.29L267.57,350.22L267.75,351.12L268.01,351.95L268.37,352.74L268.8,353.43L269.32,354.04L269.9,354.55L270.56,354.97L271.07,355.21L271.62,355.38L272.17,355.5L272.76,355.56L274.02,355.49L275.35,355.19L276.04,354.94L276.68,354.64L277.28,354.28L277.82,353.86L278.3,353.42L278.72,352.94L279.11,352.39L279.46,351.81L280.04,350.46L280.47,348.91L280.74,347.16L280.87,345.18L280.88,342.89L280.76,339.78L280.72,339.62L280.61,339.5L280.46,339.44L280.3,339.46L280.22,339.5Z" style="fill-rule:nonzero;"/>
        <path d="M364.73,354.24L364.68,354.09L364.56,354L364.41,353.97L364.27,354.02L364.17,354.14L364.08,354.33L363.62,355.11L363.08,355.83L362.45,356.49L361.74,357.08L360.95,357.61L360.09,358.06L359.16,358.43L358.19,358.71L357.19,358.9L356.18,358.99L355.16,358.99L354.16,358.88L353.19,358.68L352.25,358.39L351.38,358L350.55,357.53L350.03,357.14L349.55,356.7L349.09,356.19L348.69,355.63L348.31,355L347.99,354.33L347.47,352.84L347.14,351.15L347.02,349.39L347.13,347.61L347.27,346.77L347.46,345.99L347.73,345.17L348.05,344.42L348.44,343.7L348.89,343.05L349.59,342.24L350.43,341.5L351.38,340.85L352.47,340.26L353.7,339.73L355.11,339.24L356.74,338.76L359.07,338.15L362.31,337.29L362.99,336.99L363.56,336.52L364,335.92L364.26,335.23L364.48,334.05L364.58,332.91L364.57,331.8L364.44,330.78L364.19,329.85L363.84,329.04L363.39,328.32L362.81,327.7L362.14,327.2L361.34,326.81L360.45,326.55L359.45,326.41L357.88,326.4L357.17,326.48L356.5,326.62L355.88,326.81L355.31,327.05L354.78,327.35L354.3,327.71L353.79,328.2L353.35,328.77L352.98,329.42L352.66,330.14L352.42,330.94L352.24,331.82L352.12,332.78L352.07,333.81L351.99,333.99L351.81,334.07L348.5,334.07L348.29,334L348.21,333.8L348.2,332.56L348.3,331.37L348.51,330.24L348.81,329.17L349.22,328.16L349.72,327.24L350.31,326.41L351,325.66L351.55,325.18L352.14,324.74L352.79,324.36L353.49,324.02L354.22,323.73L355,323.5L356.65,323.2L358.28,323.08L359.82,323.09L361.28,323.24L362.61,323.52L363.82,323.93L364.88,324.47L365.82,325.14L366.61,325.93L367.31,326.94L367.83,328.07L368.19,329.37L368.37,330.78L368.46,333.55L368.5,338.02L368.47,352.01L368.52,353.04L368.71,353.86L369.02,354.48L369.46,354.91L370.04,355.14L370.75,355.16L371.07,355.2L371.35,355.36L371.54,355.61L371.62,355.92L371.62,357.47L371.56,357.82L371.37,358.11L371.09,358.32L370.76,358.41L369.01,358.46L367.77,358.35L367.25,358.23L366.77,358.06L366.36,357.84L366,357.57L365.5,357L365.12,356.26L364.87,355.35L364.73,354.24ZM363.98,339.49L363.03,340.03L361.92,340.5L360.64,340.91L358.82,341.39L357.14,341.83L356,342.2L355.03,342.6L354.21,343.06L354.08,343.15L353.42,343.68L352.86,344.28L352.36,344.97L351.95,345.72L351.61,346.55L351.38,347.42L351.24,348.34L351.2,349.27L351.27,350.2L351.44,351.1L351.7,351.94L352.06,352.73L352.49,353.42L353.01,354.04L353.59,354.55L354.25,354.98L354.76,355.21L355.31,355.39L355.87,355.51L356.46,355.57L357.07,355.57L357.72,355.51L359.05,355.21L359.75,354.96L360.38,354.66L360.99,354.3L361.53,353.89L362.01,353.44L362.44,352.96L362.83,352.41L363.18,351.83L363.77,350.48L364.2,348.92L364.47,347.18L364.61,345.19L364.63,342.89L364.52,339.77L364.48,339.62L364.37,339.5L364.22,339.44L364.06,339.45L363.98,339.49Z" style="fill-rule:nonzero;"/>
        <path d="M380.76,327.59L381.86,326.18L382.44,325.57L383.05,325.04L383.68,324.57L384.33,324.16L385,323.82L385.69,323.55L386.49,323.33L387.31,323.19L388.29,323.11L389.21,323.09L390.07,323.15L390.89,323.27L391.65,323.47L392.36,323.73L393.01,324.07L393.61,324.47L394.38,325.17L395.04,326.02L395.58,327.01L396.02,328.14L396.08,328.25L396.2,328.34L396.36,328.37L396.51,328.32L396.62,328.21L397.14,327.37L397.69,326.6L398.27,325.91L398.87,325.3L399.51,324.75L400.17,324.29L400.86,323.89L401.58,323.57L402.3,323.34L403.05,323.17L403.82,323.07L404.62,323.04L405.44,323.08L406.29,323.19L407.17,323.37L408.07,323.61L408.9,323.91L409.65,324.3L410.33,324.75L410.92,325.29L411.37,325.81L411.77,326.38L412.1,327.02L412.38,327.71L412.6,328.46L412.76,329.26L412.86,330.12L412.9,331.04L413.02,344.48L412.98,357.83L412.89,358.04L412.67,358.13L409.42,358.13L409.17,358.02L409.07,357.77L409.07,333.82L408.99,331.61L408.87,330.72L408.7,329.94L408.46,329.23L408.17,328.62L407.81,328.08L407.37,327.61L406.89,327.23L406.32,326.91L405.7,326.67L404.99,326.5L404.32,326.41L403.67,326.39L403.01,326.43L402.37,326.55L401.3,326.9L400.26,327.48L399.33,328.24L398.53,329.15L397.85,330.23L397.35,331.41L397.02,332.65L396.89,333.92L396.81,343.03L396.84,357.63L396.8,357.82L396.69,357.98L396.53,358.09L396.34,358.13L393.35,358.13L393.17,358.09L393.01,357.99L392.91,357.83L392.87,357.65L392.89,334.43L392.85,332.66L392.72,331.19L392.51,330.01L392.22,329.13L391.78,328.36L391.19,327.67L390.77,327.33L390.33,327.04L389.83,326.79L389.3,326.6L388.74,326.46L388.16,326.38L386.98,326.39L385.79,326.63L384.66,327.09L383.65,327.74L382.84,328.54L382.01,329.68L381.38,330.84L380.95,332.02L380.71,333.22L380.67,333.78L380.56,342.3L380.59,357.73L380.56,357.88L380.47,358.01L380.34,358.1L380.19,358.13L377,358.13L376.73,358.02L376.62,357.75L376.62,324.24L376.7,323.99L376.85,323.86L377.05,323.81L379.8,323.81L380.07,323.92L380.18,324.19L380.18,327.41L380.22,327.57L380.33,327.68L380.49,327.73L380.65,327.69L380.76,327.59Z" style="fill-rule:nonzero;"/>
        <path d="M478.83,346.69L482.13,346.69L482.32,346.77L482.4,346.97L482.18,348.93L481.75,350.75L481.12,352.45L480.72,353.25L480.27,354.02L479.44,355.2L478.9,355.82L478.31,356.38L477.65,356.9L476.96,357.37L476.22,357.77L475.45,358.12L474.63,358.4L473.79,358.63L472.91,358.79L472.03,358.88L471.14,358.9L470.25,358.85L469.38,358.74L468.52,358.56L467.69,358.31L466.88,358L466.1,357.61L465.08,356.94L464.13,356.1L463.29,355.15L462.53,354.03L461.86,352.77L461.27,351.36L460.79,349.84L460.41,348.19L460.11,346.35L459.91,344.4L459.83,342.34L459.86,340.22L459.99,338.03L460.24,335.88L460.59,333.8L461.02,331.93L461.37,330.78L461.77,329.72L462.23,328.73L462.75,327.82L463.32,327L463.95,326.25L464.63,325.58L465.38,324.99L466.15,324.49L466.97,324.07L467.85,323.72L468.78,323.45L469.77,323.25L470.81,323.13L471.9,323.08L473.04,323.1L474.18,323.22L475.23,323.46L476.23,323.81L477.15,324.26L477.88,324.74L478.55,325.29L479.19,325.93L479.76,326.63L480.31,327.43L480.79,328.28L481.21,329.21L481.6,330.23L481.94,331.32L482.23,332.51L482.46,333.73L482.63,335.02L482.82,337.76L482.77,340.62L482.71,340.84L482.58,341.02L482.39,341.14L482.17,341.18L464.68,341.18L464.45,341.23L464.25,341.36L464.12,341.56L464.07,341.8L464.11,343.93L464.25,345.93L464.5,347.78L464.86,349.5L465.2,350.61L465.64,351.64L466.17,352.58L466.78,353.41L467.48,354.12L468.25,354.7L469.06,355.14L469.93,355.44L471.06,355.6L471.65,355.59L472.26,355.52L473.5,355.19L474.73,354.64L475.42,354.16L476.09,353.51L476.68,352.71L477.21,351.76L477.68,350.66L478.05,349.48L478.32,348.23L478.47,347.02L478.58,346.78L478.83,346.69ZM464.53,337.89L478.17,337.87L478.38,337.78L478.47,337.57L478.47,335.3L478.34,333.56L478.2,332.71L477.99,331.89L477.73,331.1L477.42,330.35L477.06,329.65L476.65,329L476.2,328.41L475.71,327.89L475.19,327.45L474.64,327.07L474.07,326.78L473.48,326.57L472.88,326.44L472.28,326.4L470.38,326.4L469.78,326.45L469.18,326.57L468.59,326.79L468.02,327.08L467.47,327.46L466.95,327.91L466.47,328.43L466.02,329.02L465.62,329.67L465.26,330.37L464.95,331.12L464.69,331.91L464.49,332.74L464.34,333.58L464.23,335.32L464.23,337.61L464.32,337.81L464.53,337.89Z" style="fill-rule:nonzero;"/>
        <path d="M244.28,354.42L244.26,354.65L244.43,354.8L244.5,354.81L259.89,354.81L260.05,354.84L260.19,354.94L260.28,355.08L260.31,355.24L260.31,357.72L260.28,357.88L260.19,358.01L260.06,358.1L259.91,358.13L240.43,358.13L240.23,358.09L240.06,357.99L239.93,357.83L239.86,357.64L239.76,356.55L239.81,355.55L240.02,354.63L240.38,353.8L240.43,353.71L255.76,327.59L255.8,327.46L255.78,327.32L255.7,327.21L255.58,327.14L255.5,327.13L241.05,327.13L240.89,327.1L240.75,327L240.65,326.86L240.62,326.69L240.62,324.23L240.65,324.07L240.74,323.94L240.87,323.85L241.03,323.82L259.82,323.82L260,323.85L260.16,323.95L260.26,324.1L260.31,324.27L260.34,325.45L260.29,326.42L260.16,327.18L259.94,327.73L244.28,354.42Z" style="fill-rule:nonzero;"/>
        <path d="M322.27,353.99L322.24,353.89L322.07,353.79L321.9,353.89L321.33,354.72L320.69,355.49L319.99,356.18L319.23,356.81L318.41,357.36L317.55,357.84L316.63,358.24L315.7,358.55L314.75,358.77L313.79,358.9L312.84,358.93L311.9,358.88L310.97,358.73L310.08,358.49L309.24,358.17L308.45,357.75L307.73,357.26L307.06,356.69L306.52,356.09L306.03,355.43L305.62,354.72L305.27,353.95L305,353.14L304.79,352.27L304.66,351.37L304.6,350.42L304.57,324.12L304.64,323.92L304.75,323.84L304.88,323.81L308.19,323.8L308.37,323.86L308.46,323.96L308.49,324.1L308.5,347.02L308.52,348.47L308.6,349.71L308.75,350.77L308.96,351.72L309.25,352.56L309.61,353.28L310.04,353.9L310.58,354.43L311.26,354.89L312.08,355.24L313,355.46L314.07,355.55L315.24,355.5L316.33,355.3L317.36,354.94L318.3,354.44L319.07,353.87L319.75,353.2L320.35,352.42L320.86,351.55L321.27,350.59L321.56,349.58L321.75,348.51L321.83,347.39L321.88,339.27L321.86,324.18L321.97,323.91L322.23,323.81L325.43,323.8L325.7,323.91L325.81,324.18L325.83,357.61L325.79,357.8L325.68,357.97L325.52,358.08L325.32,358.12L322.74,358.12L322.56,358.08L322.41,357.98L322.31,357.83L322.27,357.65L322.27,353.99Z" style="fill-rule:nonzero;"/>
        <path d="M424.93,357.77C424.93,357.973 424.763,358.14 424.56,358.14L421.3,358.14C421.097,358.14 420.93,357.973 420.93,357.77L420.93,324.19C420.93,323.987 421.097,323.82 421.3,323.82L424.56,323.82C424.763,323.82 424.93,323.987 424.93,324.19L424.93,357.77Z" style="fill-rule:nonzero;"/>
        <path d="M277.54,384.75L277.98,384.02L278.57,383.4L278.96,383.11L279.39,382.87L279.86,382.68L280.36,382.55L281.41,382.46L282.46,382.6L283.47,382.96L284.38,383.52L284.78,383.86L285.13,384.25L285.42,384.66L285.66,385.1L286,385.98L286.29,387.02L286.52,388.2L286.68,389.47L286.76,390.76L286.77,392.03L286.7,393.29L286.55,394.46L286.34,395.52L286.07,396.46L285.74,397.32L285.34,398.1L284.9,398.75L284.4,399.31L283.85,399.75L283.23,400.09L282.98,400.19L282.27,400.4L281.58,400.51L280.92,400.51L280.29,400.41L279.51,400.13L278.77,399.68L278.08,399.07L277.42,398.28L277.31,398.19L277.18,398.17L277.05,398.21L276.96,398.31L276.93,398.43L276.93,399.57L276.83,399.89L276.63,400.06L276.38,400.12L276.05,400.12L275.89,400.09L275.75,400L275.66,399.86L275.63,399.7L275.63,376.95L275.73,376.71L275.98,376.61L276.31,376.61L276.57,376.66L276.78,376.81L276.92,377.03L276.97,377.28L276.93,384.72L277.02,384.85L277.16,384.93L277.32,384.93L277.46,384.85L277.54,384.75ZM281.18,383.4L280.757,383.435L280.336,383.548L279.923,383.736L279.522,383.999L279.136,384.333L278.768,384.736L278.105,385.731L277.557,386.947L277.146,388.335L276.887,389.843L276.79,391.412L276.86,392.983L277.092,394.496L277.479,395.891L278.006,397.115L278.652,398.122L279.012,398.531L279.392,398.873L279.789,399.142L280.198,399.338L280.617,399.457L281.04,399.5L281.464,399.465L281.884,399.352L282.297,399.164L282.698,398.901L283.084,398.567L283.452,398.164L284.115,397.169L284.663,395.954L285.074,394.565L285.333,393.057L285.43,391.488L285.361,389.917L285.128,388.404L284.741,387.009L284.214,385.785L283.568,384.778L283.208,384.369L282.828,384.027L282.431,383.758L282.022,383.562L281.603,383.443L281.18,383.4Z" style="fill-rule:nonzero;"/>
        <path d="M291,399.59C291,399.864 290.774,400.09 290.5,400.09L290.18,400.09C289.906,400.09 289.68,399.864 289.68,399.59L289.68,377.09C289.68,376.816 289.906,376.59 290.18,376.59L290.5,376.59C290.774,376.59 291,376.816 291,377.09L291,399.59Z" style="fill-rule:nonzero;"/>
        <path d="M448.73,384.66L448.82,384.8L448.96,384.88L449.13,384.88L449.27,384.8L449.35,384.7L449.79,383.97L450.38,383.35L450.78,383.06L451.21,382.83L451.68,382.64L452.18,382.51L453.24,382.42L454.29,382.57L455.31,382.93L456.22,383.5L456.61,383.85L456.96,384.24L457.25,384.65L457.49,385.09L457.82,385.98L458.11,387.02L458.33,388.2L458.49,389.48L458.56,390.78L458.56,392.05L458.48,393.31L458.33,394.49L458.11,395.54L457.84,396.49L457.5,397.35L457.1,398.13L456.65,398.78L456.14,399.34L455.59,399.77L454.97,400.11L454.72,400.21L454,400.42L453.32,400.52L452.65,400.52L452.02,400.42L451.24,400.13L450.5,399.68L449.8,399.06L449.15,398.27L449.05,398.18L448.91,398.15L448.78,398.19L448.69,398.29L448.66,398.41L448.65,399.56L448.61,399.77L448.49,399.95L448.31,400.06L448.1,400.11L447.77,400.1L447.61,400.07L447.47,399.98L447.38,399.84L447.35,399.68L447.47,376.86L447.58,376.62L447.83,376.53L448.16,376.53L448.42,376.58L448.63,376.73L448.77,376.95L448.81,377.2L448.73,384.66ZM453,383.41L452.576,383.445L452.156,383.557L451.743,383.746L451.342,384.008L450.955,384.342L450.588,384.744L449.925,385.738L449.377,386.952L448.966,388.339L448.707,389.845L448.61,391.412L448.68,392.982L448.912,394.492L449.299,395.885L449.826,397.108L450.472,398.114L450.832,398.523L451.212,398.863L451.609,399.133L452.018,399.328L452.437,399.447L452.86,399.49L453.284,399.455L453.704,399.343L454.117,399.155L454.518,398.892L454.905,398.558L455.272,398.156L455.935,397.162L456.483,395.948L456.894,394.562L457.153,393.055L457.25,391.488L457.181,389.919L456.948,388.408L456.561,387.015L456.034,385.792L455.388,384.786L455.028,384.377L454.648,384.037L454.251,383.767L453.842,383.572L453.423,383.453L453,383.41Z" style="fill-rule:nonzero;"/>
        <path d="M462.83,399.54C462.83,399.842 462.582,400.09 462.28,400.09L462.04,400.09C461.738,400.09 461.49,399.842 461.49,399.54L461.49,377.14C461.49,376.838 461.738,376.59 462.04,376.59L462.28,376.59C462.582,376.59 462.83,376.838 462.83,377.14L462.83,399.54Z" style="fill-rule:nonzero;"/>
        <path d="M183.58,394.34L183.58,399.64L183.56,399.78L183.4,400L183.13,400.09L182.85,400.09L182.62,400.04L182.42,399.91L182.29,399.71L182.24,399.48L182.24,394.33L182.2,394.14L182.09,393.98L181.93,393.87L181.73,393.83L173.46,393.83L173.23,393.8L172.89,393.61L172.66,393.29L172.6,392.9L172.72,392.52L181.99,377.13L182.3,376.83L182.72,376.72L183.15,376.83L183.46,377.15L183.57,377.57L183.57,392.01L183.62,392.25L183.75,392.45L183.95,392.58L184.19,392.63L186.08,392.63L186.34,392.74L186.45,392.99L186.45,393.32L186.41,393.5L186.31,393.66L186.15,393.76L185.97,393.8L184.11,393.8L183.91,393.84L183.74,393.96L183.62,394.13L183.58,394.34ZM174.43,392.07L174.38,392.23L174.4,392.39L174.5,392.53L174.64,392.61L174.74,392.62L181.81,392.62L181.93,392.6L182.17,392.44L182.26,392.17L182.26,379.47L182.2,379.37L182.09,379.37L182.05,379.41L174.43,392.07Z" style="fill-rule:nonzero;"/>
        <path d="M195.49,376.83L196.4,376.89L197.23,377.05L198,377.33L198.68,377.7L199.49,378.36L200.2,379.22L200.78,380.28L201.24,381.52L201.58,382.96L201.8,384.58L201.92,386.41L201.94,388.69L201.89,390.97L201.75,392.8L201.51,394.42L201.15,395.85L200.67,397.09L200.07,398.14L199.35,398.99L198.53,399.64L197.84,400L197.07,400.26L196.24,400.42L195.33,400.47L194.42,400.4L193.59,400.24L192.82,399.97L192.14,399.6L191.33,398.94L190.62,398.08L190.04,397.02L189.58,395.77L189.24,394.34L189.01,392.71L188.9,390.88L188.88,388.6L188.93,386.32L189.07,384.5L189.31,382.88L189.67,381.44L190.15,380.2L190.75,379.15L191.47,378.3L192.29,377.65L192.98,377.29L193.75,377.03L194.58,376.88L195.49,376.83ZM190.32,388.64L190.34,390.85L190.43,392.56L190.62,394.06L190.92,395.38L191.32,396.52L191.84,397.48L192.47,398.22L193.19,398.77L193.67,399L194.2,399.17L194.74,399.27L195.34,399.3L195.94,399.27L196.49,399.18L197.02,399.01L197.5,398.79L198.23,398.25L198.87,397.51L199.4,396.56L199.81,395.42L200.12,394.11L200.32,392.61L200.44,390.9L200.48,388.69L200.46,386.48L200.36,384.77L200.17,383.27L199.88,381.95L199.48,380.81L198.96,379.85L198.33,379.11L197.6,378.56L197.13,378.33L196.6,378.16L196.05,378.06L195.45,378.03L194.85,378.06L194.3,378.15L193.77,378.32L193.29,378.54L192.56,379.08L191.93,379.82L191.4,380.77L190.98,381.91L190.68,383.22L190.47,384.72L190.36,386.43L190.32,388.64Z" style="fill-rule:nonzero;"/>
        <path d="M351.43,376.83L352.59,376.92L353.69,377.21L354.66,377.67L355.52,378.32L356.11,378.95L356.59,379.67L356.96,380.47L357.2,381.32L357.3,382.2L357.27,383.08L357.1,383.93L356.8,384.75L356.41,385.47L355.89,386.14L355.29,386.73L354.58,387.25L354.45,387.38L354.39,387.55L354.42,387.74L354.52,387.89L354.62,387.95L355.19,388.24L355.7,388.58L356.17,388.96L356.58,389.39L357.04,390.02L357.4,390.74L357.67,391.54L357.85,392.41L357.95,393.39L357.95,394.32L357.85,395.22L357.67,396.06L357.39,396.84L357.03,397.56L356.58,398.21L356.05,398.79L355.6,399.17L355.12,399.5L354.59,399.78L354.02,400.02L352.8,400.33L351.43,400.44L350.06,400.33L348.84,400.02L348.27,399.78L347.74,399.5L347.26,399.17L346.81,398.79L346.28,398.21L345.83,397.56L345.47,396.84L345.19,396.06L345.01,395.22L344.91,394.33L344.91,393.39L345.01,392.41L345.19,391.54L345.46,390.74L345.82,390.03L346.28,389.39L346.69,388.96L347.15,388.58L347.67,388.24L348.24,387.95L348.33,387.89L348.44,387.74L348.47,387.55L348.41,387.38L348.28,387.25L347.57,386.73L346.96,386.14L346.45,385.47L346.06,384.76L345.75,383.93L345.59,383.09L345.55,382.2L345.66,381.32L345.89,380.47L346.26,379.67L346.74,378.96L347.33,378.32L348.2,377.67L349.17,377.21L350.26,376.92L351.43,376.83ZM355.738,382.055C355.776,379.9 354.033,378.095 351.878,378.057L351.118,378.044C351.095,378.044 351.072,378.043 351.049,378.043C348.919,378.043 347.157,379.775 347.12,381.905L347.102,382.945C347.064,385.1 348.807,386.905 350.962,386.943L351.722,386.956C351.745,386.956 351.768,386.957 351.791,386.957C353.921,386.957 355.683,385.225 355.72,383.095L355.738,382.055ZM351.686,388.096L350.671,388.158L349.686,388.435L348.768,388.915L347.952,389.58L347.27,390.404L346.747,391.357L346.405,392.4L346.255,393.495L346.305,394.599L346.551,395.669L346.985,396.665L347.59,397.548L348.342,398.284L349.213,398.845L350.17,399.21L351.174,399.364L352.189,399.302L353.174,399.025L354.092,398.545L354.908,397.88L355.59,397.056L356.113,396.103L356.455,395.06L356.605,393.965L356.555,392.861L356.309,391.791L355.875,390.795L355.27,389.912L354.518,389.176L353.647,388.615L352.691,388.25L351.686,388.096Z" style="fill-rule:nonzero;"/>
        <path d="M360.7,388.6L360.75,386.32L360.89,384.49L361.14,382.88L361.49,381.44L361.97,380.21L362.57,379.15L363.29,378.31L364.11,377.66L364.8,377.3L365.57,377.03L366.39,376.88L367.31,376.83L368.22,376.89L369.04,377.06L369.81,377.33L370.49,377.7L371.31,378.36L372.01,379.22L372.6,380.28L373.06,381.52L373.4,382.96L373.62,384.58L373.73,386.41L373.75,388.69L373.7,390.97L373.56,392.79L373.32,394.41L372.96,395.84L372.48,397.08L371.88,398.13L371.17,398.98L370.34,399.63L369.66,399.99L368.88,400.25L368.06,400.4L367.15,400.45L366.23,400.39L365.41,400.23L364.64,399.95L363.96,399.59L363.15,398.92L362.44,398.07L361.86,397.01L361.4,395.76L361.06,394.33L360.84,392.71L360.72,390.88L360.7,388.6ZM362.13,388.64L362.15,390.85L362.24,392.56L362.43,394.07L362.73,395.39L363.13,396.53L363.65,397.49L364.28,398.23L365,398.78L365.48,399.01L366.01,399.18L366.56,399.28L367.15,399.32L367.75,399.29L368.31,399.19L368.84,399.03L369.32,398.8L370.05,398.26L370.68,397.52L371.21,396.57L371.63,395.43L371.94,394.12L372.14,392.61L372.26,390.9L372.3,388.69L372.28,386.49L372.18,384.77L371.99,383.27L371.7,381.95L371.3,380.8L370.78,379.85L370.15,379.1L369.42,378.56L368.95,378.33L368.42,378.16L367.87,378.06L367.27,378.02L366.67,378.05L366.12,378.14L365.59,378.31L365.11,378.54L364.38,379.07L363.74,379.82L363.21,380.76L362.8,381.9L362.49,383.22L362.28,384.72L362.17,386.43L362.13,388.64Z" style="fill-rule:nonzero;"/>
        <path d="M260.59,384.06L258.87,384.06L258.63,384.12L258.44,384.26L258.31,384.46L258.26,384.69L258.26,397.85L258.35,398.3L258.61,398.68L258.99,398.94L259.44,399.03L260.96,399.03L261.2,399.12L261.32,399.35L261.36,399.66L261.29,399.96L261.04,400.15L260.15,400.35L259.36,400.39L258.68,400.26L258.1,399.97L257.61,399.49L257.24,398.83L257.02,397.99L256.94,396.99L256.96,384.81L256.91,384.51L256.74,384.26L256.5,384.09L256.2,384.03L255.05,384.03L254.86,384L254.71,383.89L254.6,383.73L254.57,383.54L254.57,383.25L254.61,383.07L254.75,382.92L254.95,382.87L256.4,382.87L256.61,382.83L256.78,382.71L256.9,382.54L256.94,382.33L256.94,378.24L256.98,378.04L257.16,377.84L257.42,377.76L257.69,377.76L257.91,377.81L258.09,377.93L258.22,378.12L258.26,378.33L258.26,382.33L258.3,382.53L258.41,382.7L258.58,382.81L258.77,382.85L260.83,382.85L261.06,382.95L261.16,383.18L261.16,383.5L261.11,383.72L260.99,383.9L260.8,384.02L260.59,384.06Z" style="fill-rule:nonzero;"/>
        <path d="M310.69,384.07L310.45,384.12L310.25,384.25L310.11,384.46L310.06,384.7L310.07,397.83L310.16,398.28L310.41,398.66L310.79,398.92L311.24,399.01L312.76,399.01L313,399.1L313.12,399.33L313.16,399.64L313.09,399.94L312.84,400.13L311.95,400.33L311.17,400.37L310.48,400.24L309.91,399.95L309.41,399.47L309.05,398.81L308.83,397.98L308.75,396.98L308.76,384.81L308.71,384.52L308.55,384.27L308.3,384.1L308.01,384.04L306.85,384.04L306.67,384L306.51,383.9L306.41,383.74L306.37,383.55L306.37,383.26L306.48,382.99L306.75,382.88L308.2,382.88L308.41,382.84L308.59,382.72L308.7,382.55L308.74,382.34L308.74,378.26L308.78,378.08L308.88,377.92L309.04,377.82L309.22,377.78L309.49,377.78L309.71,377.82L309.9,377.95L310.02,378.13L310.06,378.35L310.06,382.34L310.1,382.54L310.21,382.71L310.38,382.82L310.57,382.86L312.62,382.86L312.86,382.95L312.95,383.19L312.95,383.51L312.91,383.72L312.79,383.9L312.6,384.03L312.38,384.07L310.69,384.07Z" style="fill-rule:nonzero;"/>
        <path d="M430.7,384.06L430.46,384.11L430.25,384.25L430.12,384.45L430.07,384.69L430.08,397.83L430.17,398.28L430.43,398.67L430.81,398.92L431.26,399.01L432.78,399.01L433.02,399.1L433.14,399.33L433.18,399.64L433.11,399.94L432.86,400.13L431.97,400.33L431.18,400.37L430.5,400.24L429.92,399.95L429.43,399.47L429.07,398.81L428.84,397.98L428.76,396.98L428.77,384.8L428.71,384.51L428.55,384.26L428.3,384.09L428.01,384.03L426.86,384.03L426.67,384L426.52,383.89L426.41,383.73L426.38,383.54L426.38,383.25L426.49,382.99L426.76,382.87L428.21,382.87L428.41,382.83L428.59,382.71L428.71,382.54L428.75,382.33L428.74,378.25L428.81,378L428.99,377.83L429.22,377.77L429.49,377.77L429.71,377.81L429.9,377.93L430.02,378.12L430.06,378.34L430.07,382.33L430.11,382.53L430.22,382.7L430.38,382.81L430.58,382.85L432.63,382.85L432.86,382.94L432.96,383.18L432.96,383.5L432.92,383.71L432.79,383.89L432.61,384.02L432.39,384.06L430.7,384.06Z" style="fill-rule:nonzero;"/>
        <path d="M481.88,384.71L481.88,397.84L481.97,398.29L482.22,398.67L482.6,398.93L483.05,399.02L484.57,399.02L484.81,399.11L484.93,399.34L484.97,399.65L484.9,399.95L484.65,400.14L483.76,400.34L482.97,400.38L482.29,400.25L481.71,399.96L481.22,399.48L480.86,398.82L480.64,397.99L480.56,396.99L480.58,384.82L480.53,384.53L480.36,384.28L480.12,384.11L479.82,384.05L478.67,384.05L478.49,384.01L478.33,383.91L478.23,383.75L478.19,383.56L478.19,383.27L478.3,383L478.57,382.89L480.02,382.89L480.21,382.85L480.38,382.75L480.5,382.59L480.56,382.4L480.56,378.27L480.61,378.07L480.78,377.86L481.04,377.79L481.31,377.79L481.64,377.9L481.82,378.1L481.88,378.36L481.88,382.35L481.92,382.55L482.03,382.72L482.19,382.83L482.39,382.87L484.44,382.87L484.67,382.97L484.77,383.2L484.77,383.52L484.73,383.73L484.6,383.92L484.42,384.04L484.2,384.08L482.51,384.08L482.27,384.13L482.06,384.26L481.93,384.47L481.88,384.71Z" style="fill-rule:nonzero;"/>
        <path d="M222.66,384.59L223.34,383.86L224.09,383.28L224.93,382.84L225.79,382.56L226.68,382.46L227.54,382.53L228.32,382.77L229.03,383.18L229.68,383.82L230.16,384.6L230.48,385.55L230.62,386.61L230.62,399.51L230.58,399.74L230.45,399.93L230.26,400.06L230.04,400.1L229.74,400.1L229.48,400.01L229.36,399.86L229.31,399.67L229.31,386.5L229.25,385.93L229.08,385.39L228.8,384.9L228.42,384.47L227.96,384.13L227.45,383.9L226.89,383.77L226.32,383.76L226.09,383.79L225.74,383.85L225.09,384.02L224.47,384.31L223.92,384.7L223.44,385.17L223.05,385.73L222.76,386.34L222.59,387L222.53,387.67L222.53,399.52L222.47,399.76L222.31,399.96L222.08,400.08L221.83,400.11L221.58,400.08L221.42,400.03L221.29,399.93L221.2,399.79L221.17,399.63L221.17,386.54L221.16,386.26L221.04,385.69L220.8,385.16L220.46,384.68L220.03,384.29L219.53,384L218.98,383.82L218.4,383.75L217.82,383.81L217.46,383.88L216.82,384.07L216.22,384.37L215.68,384.76L215.21,385.25L214.83,385.8L214.56,386.41L214.39,387.05L214.33,387.72L214.33,399.6L214.29,399.79L214.18,399.95L214.02,400.06L213.83,400.1L213.5,400.1L213.31,400.06L213.15,399.96L213.05,399.8L213.01,399.61L213.01,383.31L213.05,383.13L213.15,382.98L213.3,382.88L213.48,382.84L213.74,382.84L213.94,382.88L214.11,382.98L214.23,383.15L214.28,383.34L214.35,384.19L214.4,384.35L214.52,384.46L214.68,384.51L214.84,384.48L214.94,384.41L215.4,383.7L215.66,383.37L215.9,383.18L217.07,382.71L218.15,382.47L219.13,382.46L219.58,382.55L220.01,382.69L220.57,382.98L221.09,383.39L221.56,383.91L222.02,384.6L222.17,384.71L222.34,384.74L222.52,384.7L222.66,384.59Z" style="fill-rule:nonzero;"/>
        <path d="M243.01,384.67L243.13,384.78L243.29,384.83L243.45,384.79L243.58,384.69L243.63,384.58L243.44,383.64L243.42,383.43L243.51,383.13L243.73,382.91L244.03,382.8L244.34,382.85L244.59,382.98L244.75,383.16L244.81,383.44L244.83,393.05L244.75,399.99L244.61,401.59L244.47,402.31L244.26,402.95L244.01,403.54L243.71,404.07L243.35,404.53L242.94,404.93L242.53,405.24L242.07,405.49L241.58,405.7L241.05,405.86L239.85,406.03L238.49,406.01L237.64,405.88L236.89,405.65L236.24,405.31L235.7,404.87L235.28,404.37L234.96,403.77L234.72,403.08L234.58,402.3L234.58,402.23L234.63,402.02L234.77,401.85L234.96,401.74L235.18,401.73L235.52,401.79L235.7,401.88L235.84,402.11L235.96,402.64L236.14,403.11L236.38,403.55L236.68,403.93L237.3,404.45L238.02,404.79L238.85,404.97L239.7,404.96L240.56,404.78L241.36,404.43L242.07,403.91L242.62,403.28L242.86,402.87L243.06,402.43L243.28,401.48L243.54,398.89L243.59,397.25L243.55,397.18L243.47,397.18L243.45,397.21L242.74,398.23L241.99,399.01L241.18,399.57L240.32,399.88L240.21,399.91L239.2,400.04L238.29,400.01L237.44,399.84L236.7,399.52L236.16,399.17L235.69,398.75L235.26,398.23L234.88,397.64L234.55,396.94L234.27,396.19L234.05,395.36L233.88,394.44L233.76,393.41L233.7,392.3L233.7,391.16L233.77,389.98L233.9,388.78L234.09,387.6L234.32,386.5L234.59,385.57L234.8,385.05L235.05,384.57L235.37,384.12L235.73,383.72L236.39,383.2L237.12,382.82L237.93,382.57L238.78,382.47L239.64,382.52L240.48,382.71L241.26,383.05L241.98,383.52L242.53,384.04L243.01,384.67ZM239.355,383.44L238.932,383.475L238.513,383.584L238.101,383.768L237.701,384.023L237.316,384.348L236.951,384.74L236.291,385.706L235.747,386.886L235.339,388.234L235.084,389.697L234.99,391.22L235.062,392.744L235.297,394.211L235.686,395.564L236.214,396.751L236.86,397.727L237.22,398.123L237.6,398.454L237.997,398.715L238.406,398.904L238.823,399.019L239.246,399.06L239.668,399.025L240.087,398.916L240.499,398.732L240.899,398.477L241.284,398.152L241.649,397.76L242.309,396.794L242.853,395.614L243.261,394.267L243.516,392.803L243.61,391.28L243.538,389.756L243.303,388.289L242.914,386.936L242.386,385.749L241.74,384.773L241.38,384.377L241,384.046L240.603,383.785L240.194,383.596L239.777,383.481L239.355,383.44Z" style="fill-rule:nonzero;"/>
        <path d="M270.92,398.6L270.81,398.45L270.65,398.36L270.46,398.36L270.29,398.43L270.22,398.5L269.53,399.21L268.73,399.77L267.82,400.18L266.86,400.42L265.91,400.48L264.98,400.35L264.15,400.05L263.41,399.56L263.03,399.18L262.69,398.74L262.42,398.26L262.21,397.71L261.98,396.83L261.86,395.98L261.86,395.16L261.98,394.36L262.14,393.79L262.35,393.24L262.97,392.18L263.22,391.89L263.5,391.65L263.82,391.46L264.17,391.33L269.63,389.66L269.97,389.5L270.25,389.26L270.46,388.94L270.57,388.59L270.7,387.22L270.68,386.62L270.6,386.06L270.47,385.55L270.27,385.09L270.03,384.71L269.73,384.39L269.17,384.01L268.48,383.77L267.68,383.67L266.73,383.72L265.81,383.95L265.41,384.13L265.06,384.38L264.54,384.9L264.15,385.58L263.87,386.4L263.72,387.38L263.65,387.58L263.52,387.75L263.34,387.87L263.13,387.91L263.08,387.91L262.85,387.86L262.66,387.73L262.53,387.53L262.49,387.3L262.58,386.23L262.81,385.3L263.18,384.5L263.69,383.84L264.38,383.28L265.23,382.87L266.24,382.61L267.4,382.5L268.43,382.54L269.31,382.71L270.08,383.02L270.71,383.45L271.05,383.81L271.34,384.22L271.59,384.71L271.79,385.25L271.94,385.87L272.04,386.55L272.09,388.12L272.08,398.19L272.17,398.57L272.41,398.88L272.76,399.05L273.4,399.21L273.6,399.31L273.73,399.49L273.75,399.72L273.65,399.93L273.46,400.06L272.94,400.21L272.47,400.27L272.05,400.24L271.67,400.11L271.44,399.98L271.13,399.68L270.99,399.34L270.98,399.15L270.99,398.84L270.92,398.6ZM270.07,390.65L269.27,390.96L268,391.33L266.14,391.89L264.94,392.42L264.49,392.71L264.1,393.05L263.82,393.4L263.63,393.8L263.6,393.88L263.43,394.58L263.34,395.35L263.35,396.12L263.44,396.82L263.62,397.45L263.87,397.98L264.2,398.42L264.62,398.78L265.06,399.01L265.58,399.16L266.44,399.26L267.2,399.22L267.91,399.06L268.52,398.78L269.11,398.33L269.63,397.71L270.04,396.97L270.36,396.07L270.6,395.01L270.73,393.82L270.77,392.48L270.72,391.03L270.66,390.84L270.53,390.69L270.35,390.61L270.15,390.62L270.07,390.65Z" style="fill-rule:nonzero;"/>
        <path d="M305.16,390.8L305.11,391.05L304.97,391.25L304.76,391.39L304.51,391.44L296.14,391.44L295.86,391.51L295.62,391.68L295.47,391.92L295.43,392.21L295.63,394.52L295.77,395.44L295.95,396.21L296.15,396.78L296.38,397.29L296.68,397.78L297.02,398.2L297.39,398.56L297.8,398.85L298.23,399.07L298.69,399.23L299.54,399.32L300.43,399.19L301.29,398.83L302.16,398.24L302.67,397.67L303.08,396.91L303.39,395.97L303.6,394.83L303.67,394.63L303.8,394.46L303.98,394.36L304.19,394.32L304.47,394.32L304.72,394.42L304.82,394.66L304.81,395.37L304.73,396.05L304.58,396.7L304.37,397.31L304.08,397.89L303.74,398.42L303.33,398.92L302.87,399.35L302.31,399.75L301.71,400.07L301.08,400.3L300.42,400.45L299.75,400.51L299.07,400.48L298.41,400.36L297.75,400.15L297.09,399.81L296.46,399.37L295.91,398.84L295.41,398.21L295.01,397.52L294.68,396.73L294.43,395.89L294.26,394.96L294.05,392.85L293.99,390.91L294.08,389.15L294.33,387.57L294.72,386.21L295.27,385.06L295.6,384.57L295.97,384.12L296.36,383.74L296.8,383.4L297.37,383.07L298.01,382.81L298.68,382.64L299.43,382.54L300.26,382.53L301.01,382.62L301.71,382.82L302.33,383.12L302.99,383.6L303.58,384.24L304.06,384.99L304.46,385.89L304.78,386.94L305,388.11L305.13,389.41L305.16,390.8ZM295.96,390.21L303.26,390.31L303.43,390.28L303.57,390.19L303.66,390.05L303.7,389.89L303.71,389.2L303.65,388.13L303.45,387.1L303.12,386.14L302.66,385.31L302.1,384.62L301.45,384.1L300.75,383.78L300.02,383.66L299.4,383.66L298.66,383.75L297.95,384.05L297.29,384.55L296.71,385.22L296.23,386.05L295.87,386.99L295.64,388.01L295.55,389.08L295.54,389.77L295.57,389.94L295.66,390.08L295.8,390.17L295.96,390.21Z" style="fill-rule:nonzero;"/>
        <path d="M323.1,387.59L323.09,387.6L322.98,387.79L322.76,387.84L322.36,387.77L322.17,387.71L322.02,387.59L321.92,387.43L321.88,387.23L321.72,386.12L321.39,385.19L321.17,384.8L320.9,384.47L320.6,384.18L320.27,383.95L319.92,383.79L319.53,383.67L318.69,383.61L317.77,383.77L316.76,384.15L316.33,384.45L316,384.85L315.62,385.68L315.44,386.51L315.45,387.34L315.66,388.12L316,388.74L316.5,389.29L317.11,389.74L317.85,390.09L318.35,390.27L320.65,391.13L321.38,391.48L321.89,391.8L322.2,392.07L322.83,392.81L323.32,393.7L323.62,394.67L323.73,395.67L323.63,396.67L323.34,397.63L322.86,398.49L322.23,399.18L321.76,399.54L321.23,399.85L320.36,400.2L319.48,400.42L318.58,400.51L317.71,400.47L316.89,400.3L316.13,400L315.44,399.58L314.84,399.03L314.52,398.63L314.24,398.18L313.86,397.21L313.67,396.09L313.71,394.89L313.71,394.87L313.77,394.7L313.89,394.57L314.06,394.49L314.24,394.49L314.58,394.55L314.79,394.67L314.89,394.9L314.96,395.67L315.11,396.38L315.35,397.06L315.65,397.67L316.01,398.19L316.44,398.62L316.91,398.97L317.44,399.22L318.29,399.4L318.74,399.4L319.22,399.34L320.19,399.04L321.15,398.52L321.55,398.16L321.81,397.71L322.15,396.71L322.31,395.79L322.28,395.02L322.08,394.31L321.87,393.94L321.62,393.61L320.93,393.01L319.98,392.46L318.49,391.81L316.88,391.1L315.81,390.49L315,389.79L314.68,389.4L314.42,388.98L314.21,388.48L314.06,387.93L313.98,387.34L313.98,386.69L314.05,386.08L314.19,385.52L314.4,384.98L314.67,384.49L314.98,384.06L315.34,383.69L315.76,383.34L316.22,383.05L316.73,382.81L317.26,382.62L318.36,382.43L319.47,382.48L320.01,382.59L320.54,382.76L321.02,382.99L321.47,383.27L321.86,383.59L322.21,383.97L322.69,384.73L322.99,385.57L323.13,386.55L323.1,387.59Z" style="fill-rule:nonzero;"/>
        <path d="M393.78,384.54L393.83,384.6L393.97,384.71L394.15,384.74L394.32,384.7L394.46,384.59L395.14,383.86L395.9,383.28L396.73,382.84L397.59,382.56L398.48,382.45L399.34,382.53L400.12,382.77L400.83,383.18L401.49,383.81L401.96,384.59L402.29,385.54L402.43,386.61L402.43,399.51L402.39,399.74L402.26,399.93L402.07,400.05L401.85,400.1L401.55,400.1L401.39,400.07L401.25,399.97L401.15,399.83L401.12,399.67L401.12,386.5L401.06,385.93L400.88,385.39L400.6,384.89L400.22,384.47L399.77,384.13L399.25,383.89L398.7,383.77L398.13,383.76L397.89,383.79L397.54,383.85L396.89,384.02L396.28,384.31L395.72,384.69L395.24,385.17L394.85,385.73L394.57,386.34L394.39,386.99L394.33,387.67L394.34,399.49L394.34,399.52L394.27,399.77L394.12,399.97L393.89,400.09L393.64,400.11L393.39,400.08L393.23,400.04L393.1,399.94L393.01,399.8L392.98,399.63L392.97,386.54L392.96,386.26L392.84,385.69L392.6,385.15L392.26,384.68L391.83,384.29L391.33,384L390.78,383.82L390.2,383.75L389.62,383.81L389.26,383.88L388.62,384.07L388.02,384.37L387.48,384.77L387.01,385.25L386.63,385.8L386.36,386.41L386.19,387.06L386.13,387.72L386.14,399.61L386.09,399.82L385.9,400.03L385.64,400.11L385.31,400.11L385.12,400.07L384.96,399.96L384.85,399.8L384.82,399.62L384.81,383.31L384.89,383.05L385.1,382.88L385.28,382.84L385.54,382.84L385.74,382.88L385.91,382.99L386.03,383.15L386.08,383.34L386.15,384.19L386.2,384.35L386.32,384.47L386.48,384.51L386.64,384.48L386.74,384.41L387.2,383.7L387.45,383.37L387.7,383.18L388.87,382.71L389.95,382.47L390.93,382.46L391.38,382.55L391.82,382.69L392.38,382.98L392.89,383.39L393.36,383.91L393.78,384.54Z" style="fill-rule:nonzero;"/>
        <path d="M415.44,384.58L415.25,383.64L415.23,383.43L415.32,383.13L415.54,382.91L415.83,382.81L416.15,382.85L416.4,382.98L416.56,383.16L416.62,383.44L416.64,393.05L416.57,399.99L416.43,401.6L416.28,402.31L416.08,402.95L415.83,403.54L415.52,404.07L415.17,404.53L414.75,404.93L414.34,405.24L413.89,405.5L413.4,405.7L412.87,405.86L411.67,406.03L410.31,406.01L409.46,405.88L408.71,405.65L408.06,405.32L407.52,404.88L407.1,404.37L406.78,403.78L406.54,403.09L406.4,402.31L406.4,402.24L406.45,402.03L406.58,401.85L406.78,401.75L407,401.74L407.34,401.8L407.55,401.91L407.66,402.12L407.78,402.65L407.95,403.12L408.2,403.56L408.5,403.94L409.12,404.45L409.84,404.79L410.67,404.97L411.52,404.97L412.38,404.79L413.18,404.43L413.89,403.91L414.44,403.28L414.68,402.87L414.88,402.43L415.1,401.48L415.36,398.89L415.4,397.25L415.36,397.19L415.29,397.18L415.26,397.21L414.56,398.23L413.8,399.02L412.99,399.57L412.13,399.89L412.03,399.91L411.02,400.04L410.11,400.02L409.26,399.84L408.51,399.53L407.98,399.18L407.51,398.75L407.07,398.23L406.7,397.65L406.36,396.95L406.09,396.19L405.87,395.37L405.69,394.44L405.57,393.42L405.51,392.31L405.52,391.17L405.58,389.99L405.71,388.79L405.89,387.61L406.13,386.51L406.4,385.58L406.61,385.06L406.86,384.58L407.18,384.13L407.54,383.73L408.2,383.21L408.93,382.83L409.74,382.58L410.59,382.47L411.45,382.52L412.29,382.72L413.07,383.05L413.78,383.53L414.34,384.05L414.82,384.67L414.94,384.78L415.1,384.83L415.26,384.79L415.39,384.69L415.44,384.58ZM411.175,383.45L410.753,383.485L410.335,383.594L409.924,383.778L409.525,384.033L409.141,384.358L408.776,384.75L408.118,385.716L407.575,386.896L407.168,388.244L406.913,389.707L406.82,391.23L406.892,392.754L407.127,394.221L407.515,395.574L408.041,396.761L408.686,397.737L409.045,398.134L409.424,398.464L409.82,398.725L410.228,398.914L410.644,399.029L411.066,399.07L411.487,399.035L411.905,398.926L412.316,398.742L412.715,398.487L413.099,398.162L413.464,397.77L414.122,396.804L414.665,395.624L415.072,394.276L415.327,392.813L415.42,391.29L415.348,389.766L415.114,388.299L414.726,386.946L414.199,385.759L413.554,384.783L413.195,384.387L412.816,384.056L412.42,383.795L412.012,383.606L411.596,383.491L411.175,383.45Z" style="fill-rule:nonzero;"/>
        <path d="M442.03,398.5L441.34,399.21L440.54,399.76L439.63,400.18L438.67,400.42L437.72,400.48L436.79,400.35L435.96,400.04L435.22,399.55L434.84,399.17L434.5,398.73L434.23,398.25L434.02,397.7L433.79,396.82L433.68,395.97L433.68,395.15L433.8,394.35L433.95,393.78L434.17,393.23L434.79,392.17L435.04,391.89L435.32,391.65L435.64,391.46L435.99,391.32L441.45,389.66L441.79,389.5L442.07,389.26L442.28,388.94L442.39,388.59L442.52,387.22L442.5,386.62L442.43,386.06L442.29,385.55L442.1,385.1L441.86,384.72L441.55,384.39L441,384.01L440.3,383.77L439.5,383.67L438.56,383.72L437.64,383.94L437.24,384.13L436.88,384.37L436.37,384.9L435.98,385.57L435.7,386.4L435.54,387.37L435.48,387.58L435.35,387.75L435.16,387.86L434.95,387.9L434.91,387.9L434.67,387.85L434.48,387.72L434.35,387.52L434.31,387.29L434.41,386.23L434.64,385.29L435.01,384.5L435.52,383.83L436.21,383.27L437.06,382.86L438.07,382.61L439.23,382.5L440.26,382.54L441.14,382.71L441.91,383.02L442.53,383.45L442.88,383.81L443.17,384.22L443.42,384.71L443.61,385.25L443.76,385.87L443.86,386.55L443.91,388.12L443.89,398.19L443.98,398.58L444.22,398.88L444.57,399.05L445.21,399.21L445.41,399.31L445.54,399.5L445.55,399.72L445.46,399.93L445.27,400.06L444.75,400.21L444.28,400.28L443.85,400.24L443.47,400.11L443.25,399.98L442.94,399.68L442.79,399.34L442.79,398.84L442.73,398.6L442.62,398.45L442.46,398.36L442.27,398.36L442.1,398.43L442.03,398.5ZM436.22,398.62L436.89,399.05L437.6,399.28L438.32,399.33L439.08,399.19L439.87,398.88L440.7,398.38L441.13,398.04L441.49,397.66L441.77,397.26L442,396.82L442.33,395.79L442.5,394.52L442.57,392.61L442.62,390.83L442.59,390.7L442.56,390.67L442.54,390.64L442.51,390.62L442.47,390.6L442.34,390.6L440.62,391.06L438.77,391.57L437.58,392.02L436.65,392.58L436.27,392.9L435.94,393.28L435.66,393.71L435.42,394.21L435.13,395.13L435.01,395.97L435.05,396.74L435.27,397.43L435.65,398.07L436.22,398.62Z" style="fill-rule:nonzero;"/>
        <path d="M476.33,391.44L467.95,391.44L467.67,391.51L467.43,391.67L467.28,391.92L467.24,392.21L467.44,394.52L467.58,395.45L467.76,396.21L467.96,396.78L468.19,397.3L468.49,397.78L468.83,398.2L469.2,398.56L469.61,398.86L470.04,399.08L470.5,399.23L471.35,399.33L472.24,399.19L473.11,398.83L473.97,398.24L474.48,397.67L474.89,396.92L475.21,395.97L475.42,394.83L475.49,394.63L475.62,394.47L475.8,394.36L476.01,394.32L476.29,394.32L476.53,394.42L476.64,394.66L476.63,395.38L476.55,396.05L476.4,396.7L476.18,397.31L475.9,397.9L475.56,398.43L475.15,398.92L474.69,399.35L474.13,399.75L473.52,400.07L472.89,400.31L472.23,400.46L471.56,400.52L470.89,400.49L470.22,400.37L469.56,400.15L468.9,399.82L468.27,399.38L467.72,398.85L467.22,398.21L466.82,397.52L466.49,396.73L466.24,395.89L466.07,394.96L465.86,392.85L465.8,390.91L465.89,389.15L466.13,387.57L466.53,386.21L467.08,385.05L467.41,384.56L467.78,384.11L468.17,383.73L468.61,383.4L469.18,383.07L469.82,382.81L470.5,382.63L471.24,382.53L472.07,382.52L472.82,382.61L473.52,382.81L474.15,383.11L474.8,383.59L475.39,384.23L475.88,384.98L476.28,385.89L476.59,386.93L476.82,388.1L476.95,389.41L476.98,390.8L476.93,391.05L476.79,391.25L476.58,391.39L476.33,391.44ZM467.76,390.23L475.12,390.29L475.14,390.29L475.41,390.17L475.52,389.9L475.53,389.18L475.47,388.11L475.26,387.08L474.92,386.13L474.46,385.29L473.9,384.6L473.25,384.09L472.54,383.77L471.81,383.66L471.19,383.66L470.45,383.76L469.74,384.06L469.09,384.56L468.51,385.24L468.03,386.07L467.68,387.01L467.45,388.04L467.37,389.1L467.36,389.82L467.39,389.98L467.48,390.11L467.61,390.2L467.76,390.23Z" style="fill-rule:nonzero;"/>
        <path d="M494.91,387.59L494.91,387.6L494.79,387.79L494.57,387.84L494.17,387.77L493.99,387.71L493.84,387.59L493.73,387.42L493.69,387.23L493.53,386.12L493.2,385.19L492.98,384.8L492.71,384.46L492.41,384.18L492.08,383.95L491.73,383.78L491.35,383.67L490.5,383.61L489.58,383.77L488.57,384.15L488.14,384.44L487.81,384.85L487.43,385.68L487.25,386.5L487.26,387.34L487.47,388.12L487.82,388.74L488.31,389.29L488.92,389.74L489.66,390.09L490.16,390.27L492.46,391.13L493.2,391.48L493.7,391.8L494.01,392.07L494.65,392.81L495.14,393.7L495.44,394.67L495.54,395.67L495.45,396.67L495.16,397.63L494.68,398.49L494.05,399.19L493.58,399.55L493.05,399.85L492.17,400.2L491.29,400.42L490.4,400.51L489.53,400.47L488.71,400.3L487.94,400L487.25,399.58L486.66,399.04L486.33,398.64L486.05,398.19L485.67,397.22L485.48,396.09L485.52,394.89L485.52,394.88L485.58,394.71L485.7,394.57L485.87,394.5L486.05,394.49L486.39,394.55L486.6,394.67L486.7,394.9L486.78,395.67L486.93,396.38L487.16,397.07L487.46,397.67L487.83,398.19L488.25,398.63L488.73,398.97L489.26,399.22L490.1,399.4L490.56,399.41L491.03,399.35L492.01,399.05L492.97,398.52L493.36,398.16L493.63,397.71L493.96,396.71L494.12,395.79L494.1,395.02L493.89,394.31L493.69,393.94L493.44,393.61L492.74,393.01L491.8,392.46L490.3,391.81L488.69,391.1L487.62,390.49L486.81,389.79L486.49,389.4L486.23,388.97L486.02,388.48L485.87,387.92L485.79,387.34L485.79,386.69L485.86,386.08L485.99,385.52L486.2,384.97L486.48,384.48L486.79,384.06L487.15,383.68L487.57,383.34L488.03,383.05L488.54,382.8L489.07,382.62L490.17,382.43L491.28,382.47L491.83,382.58L492.35,382.75L492.83,382.98L493.28,383.27L493.67,383.59L494.02,383.96L494.5,384.72L494.81,385.57L494.95,386.54L494.91,387.59Z" style="fill-rule:nonzero;"/>
        <path d="M105.87,272.73L104.34,273.43L103.12,274.06L102.07,274.7L101.19,275.35L100.48,276.02L99.95,276.7L99.58,277.41L99.39,278.12L99.38,279L99.53,279.69L99.82,280.34L100.25,280.98L100.81,281.59L101.5,282.19L102.35,282.78L103.31,283.33L104.42,283.87L105.69,284.39L107.09,284.89L108.62,285.35L110.24,285.77L112,286.16L113.76,286.48L115.47,286.73L116.93,286.87L117.08,286.85L117.21,286.76L117.29,286.63L117.31,286.48L117.3,286.42L116.63,284.06L115.89,281.71L115.1,279.38L114.24,277.07L113.32,274.78L112.33,272.52L111.31,270.3L110.22,268.12L109.08,265.98L107.88,263.87L106.64,261.82L105.35,259.81L104.01,257.84L102.61,255.92L101.18,254.06L99.7,252.25L98.19,250.51L96.63,248.82L95.05,247.2L93.41,245.63L91.76,244.14L90.06,242.7L88.34,241.33L86.57,240.02L84.78,238.78L82.94,237.6L81.1,236.5L79.21,235.45L77.31,234.48L75.37,233.58L73.42,232.75L71.44,231.99L71.35,231.88L71.41,231.74L71.49,231.72L75.18,231.93L78.86,232.28L82.51,232.76L86.15,233.37L89.72,234.12L93.26,234.99L96.73,235.99L100.16,237.13L103.49,238.37L106.75,239.74L109.92,241.23L113.02,242.84L115.99,244.54L118.89,246.37L121.66,248.29L124.35,250.34L125.63,251.41L126.87,252.55L128.07,253.77L129.19,255.03L130.23,256.31L131.17,257.6L132.03,258.92L132.77,260.24L133.41,261.53L133.93,262.8L134.36,264.09L134.67,265.33L134.87,266.55L134.97,267.77L134.95,268.95L134.83,270.13L133.36,279.2L132.01,286.61L132.01,286.64L132.08,286.84L132.28,286.92L134.1,286.83L135.89,286.64L137.66,286.36L139.41,285.98L141.5,285.41L143.55,284.7L145.57,283.85L147.56,282.86L148.28,282.43L148.94,281.92L149.52,281.37L150,280.77L150.36,280.18L150.61,279.55L150.74,278.94L150.76,278.32L150.66,277.74L150.44,277.17L150.12,276.62L149.68,276.07L148.62,275.08L147.36,274.2L145.88,273.41L144.2,272.72L144.13,272.61L144.16,272.6L144.23,272.59L144.3,272.57L146.11,273.05L147.83,273.66L149.48,274.4L151.05,275.28L152.06,275.94L153.03,276.66L153.9,277.45L154.57,278.3L154.98,279.15L155.18,280.04L155.16,280.86L154.94,281.71L154.54,282.53L153.95,283.37L153.19,284.18L152.25,284.97L151.21,285.68L150.05,286.31L148.15,287.16L146.15,287.93L144.04,288.6L141.83,289.18L139.51,289.67L137.09,290.08L134.56,290.39L131.93,290.61L131.7,290.67L131.49,290.8L131.35,290.98L131.27,291.21L128.65,306.55L128.64,306.6L128.67,306.8L128.78,306.98L128.96,307.09L129.16,307.13L131.13,307.02L133.07,306.84L134.98,306.59L136.86,306.28L138.72,305.91L140.54,305.46L142.34,304.95L144.11,304.38L145.48,303.83L146.86,303.13L148.07,302.37L149.09,301.56L149.85,300.77L150.4,299.97L150.72,299.15L150.81,298.34L150.75,297.85L150.6,297.35L150.37,296.87L150.04,296.38L149.72,295.99L149.2,295.44L148.64,294.92L148.02,294.45L147.35,294.02L145.88,293.29L144.21,292.72L144.18,292.66L144.18,292.65L144.23,292.56L144.35,292.48L144.49,292.48L146.12,292.97L147.62,293.49L149,294.04L150.24,294.64L151.35,295.26L152.33,295.93L153.18,296.63L153.9,297.36L154.46,298.1L154.84,298.82L155.08,299.56L155.17,300.29L155.08,301.1L154.81,301.94L154.35,302.75L153.7,303.55L152.86,304.35L151.86,305.11L150.69,305.83L149.44,306.46L147.31,307.34L145.04,308.13L142.63,308.81L140.09,309.39L137.41,309.87L134.59,310.24L131.64,310.52L128.55,310.69L128.3,310.75L128.07,310.88L127.91,311.08L127.82,311.33L124.91,328.4L124.78,328.55L124.59,328.5L124.54,328.39L122.82,311.43L122.74,311.16L122.57,310.93L122.33,310.78L122.05,310.72L119.56,310.6L116.84,310.38L114.13,310.07L111.53,309.69L109.11,309.25L106.82,308.74L104.72,308.18L102.78,307.55L101.09,306.9L99.57,306.19L98.26,305.44L97.15,304.64L96.22,303.79L95.49,302.92L94.96,302L94.62,301.01L94.53,300.5L94.52,300L94.61,299.37L94.81,298.77L95.13,298.16L95.54,297.58L96.08,296.98L96.72,296.41L97.46,295.85L98.32,295.29L99.31,294.73L100.4,294.19L102.88,293.17L105.71,292.26L107.13,291.89L108.36,291.63L108.26,291.64L106.35,292.32L104.53,293.12L102.97,293.96L101.65,294.85L100.64,295.73L99.91,296.64L99.65,297.09L99.47,297.55L99.36,297.99L99.33,298.45L99.36,298.88L99.46,299.32L99.86,300.18L100.54,301.06L101.48,301.92L102.24,302.49L103.07,303.01L104,303.52L104.98,303.99L107.2,304.86L109.7,305.6L112.52,306.21L115.53,306.68L118.66,306.98L121.78,307.11L122.01,307.01L122.09,306.77L122.08,306.74L118.84,291.19L118.77,291L118.64,290.85L118.47,290.74L118.27,290.7L114.89,290.38L111.6,289.9L108.39,289.27L105.27,288.48L103.01,287.75L100.87,286.89L99.01,285.96L97.44,284.97L96.23,283.96L95.75,283.45L95.34,282.92L95.03,282.4L94.79,281.86L94.64,281.34L94.58,280.79L94.59,280.25L94.7,279.69L94.89,279.15L95.16,278.59L95.52,278.04L95.97,277.46L97.12,276.33L98.28,275.4L99.49,274.57L100.75,273.84L102.05,273.21L103.81,272.54L105.65,272.05L105.85,272.06L106.01,272.18L106.08,272.37L106.05,272.56L105.87,272.73Z" style="fill:rgb(250,175,52);fill-rule:nonzero;"/>
        <path d="M145.34,314.49L146.42,314.77L147.64,315.23L149.02,315.87L150.54,316.68L151.63,317.34L152.57,318L153.37,318.67L154.02,319.34L154.54,320.03L154.91,320.71L155.14,321.41L155.22,322.09L155.19,322.62L155.07,323.15L154.86,323.69L154.58,324.21L154.2,324.75L153.75,325.28L152.59,326.32L151.08,327.36L149.29,328.34L147.25,329.23L145.17,329.96L142.64,330.66L139.99,331.26L137.23,331.76L134.39,332.16L131.48,332.46L128.52,332.64L125.57,332.72L122.6,332.69L119.66,332.55L116.74,332.3L113.9,331.94L111.09,331.48L108.37,330.92L105.78,330.26L103.26,329.5L100.89,328.65L99.55,328.04L98.23,327.25L97.06,326.37L96.07,325.42L95.34,324.49L94.83,323.55L94.56,322.6L94.52,322.14L94.53,321.68L94.7,320.92L95.05,320.16L95.58,319.44L96.3,318.72L97.25,317.95L98.28,317.21L99.37,316.54L100.5,315.93L101.68,315.39L102.92,314.91L104.2,314.5L105.53,314.15L106.91,313.87L106.99,313.89L107.04,313.96L107.03,314.05L106.95,314.11L105.88,314.45L104.86,314.85L103.91,315.29L103.02,315.78L102.19,316.32L101.42,316.9L100.72,317.54L100.07,318.22L99.77,318.62L99.54,319.07L99.39,319.55L99.31,320.05L99.32,320.55L99.4,321.04L99.56,321.52L99.8,321.96L100.55,322.92L101.53,323.83L102.74,324.68L104.16,325.46L105.83,326.19L107.67,326.83L109.7,327.39L111.88,327.86L114.85,328.36L117.8,328.73L120.73,328.99L123.64,329.11L126.53,329.12L129.41,329L132.26,328.75L135.1,328.38L138.33,327.81L141.54,327.07L143.44,326.49L145.27,325.77L146.87,324.99L148.23,324.13L149.29,323.26L150.07,322.35L150.34,321.9L150.55,321.43L150.68,320.97L150.74,320.5L150.69,319.77L150.46,319L150.06,318.25L149.47,317.47L148.91,316.98L148.02,316.38L146.78,315.68L145.21,314.89L145.12,314.81L145.09,314.7L145.12,314.59L145.21,314.51L145.34,314.49Z" style="fill:rgb(250,175,52);fill-rule:nonzero;"/>
        <path d="M336.27,403.81C336.27,404.128 336.008,404.39 335.69,404.39L334.45,404.39C334.132,404.39 333.87,404.128 333.87,403.81L333.87,374.93C333.87,374.612 334.132,374.35 334.45,374.35L335.69,374.35C336.008,374.35 336.27,374.612 336.27,374.93L336.27,403.81Z" style="fill:rgb(250,175,52);fill-rule:nonzero;"/>
    </g>
</svg>
