<?xml version="1.0" encoding="UTF-8" standalone="no"?><svg xmlns="http://www.w3.org/2000/svg" xmlns:xlink="http://www.w3.org/1999/xlink" width="545" height="114"><defs><path id="a" d="M0 145.5h576V0H0z"/><path id="c" d="M0 145.5h576V0H0z"/><path id="e" d="M0 145.5h576V0H0z"/><path id="g" d="M0 145.5h576V0H0z"/><path id="i" d="M0 145.5h576V0H0z"/><path id="k" d="M0 145.5h576V0H0z"/><path id="m" d="M0 145.5h576V0H0z"/><path id="o" d="M0 145.5h576V0H0z"/><path id="q" d="M0 145.5h576V0H0z"/><path id="s" d="M0 145.5h576V0H0z"/><path id="u" d="M0 145.5h576V0H0z"/><path id="w" d="M0 145.5h576V0H0z"/><path id="y" d="M0 145.5h576V0H0z"/><path id="A" d="M0 145.5h576V0H0z"/><path id="C" d="M0 145.5h576V0H0z"/><path id="E" d="M0 145.5h576V0H0z"/><path id="G" d="M0 145.5h576V0H0z"/><path id="I" d="M0 145.5h576V0H0z"/><path id="K" d="M0 145.5h576V0H0z"/><path id="M" d="M0 145.5h576V0H0z"/><path id="O" d="M0 145.5h576V0H0z"/><path id="Q" d="M0 145.5h576V0H0z"/><path id="S" d="M0 145.5h576V0H0z"/><path id="U" d="M0 145.5h576V0H0z"/><path id="W" d="M0 145.5h576V0H0z"/><path id="Y" d="M576 145.5V0H0v145.5z"/></defs><g fill="none" fill-rule="evenodd"><path fill="#FEFEFE" d="M145.491 92.294h.631c4.888 0 8.237-1.674 8.237-6.534 0-4.475-2.718-6.864-7.303-6.864h-1.565v13.398zm-3.404-16.31h5.435c4.915 0 10.433 2.582 10.433 9.529 0 7.11-5.436 9.69-10.707 9.69h-5.16V75.986zM177.638 95.204h-2.416l-5.93-14.99v14.99h-3.405V75.986h5.134l5.436 14.084 5.574-14.084h5.08v19.218h-3.406V80.27z"/><g transform="translate(-17 -16)"><mask id="b" fill="#fff"><use xlink:href="#a"/></mask><path fill="#FEFEFE" d="M212.892 111.204h3.404V91.986h-3.404z" mask="url(#b)"/></g><g transform="translate(-17 -16)"><mask id="d" fill="#fff"><use xlink:href="#c"/></mask><path fill="#FEFEFE" d="M237.984 111.204l-9.5-12.986v12.986h-3.404V91.986h2.993L237.627 105V91.986h3.405v19.218z" mask="url(#d)"/></g><g transform="translate(-17 -16)"><mask id="f" fill="#fff"><use xlink:href="#e"/></mask><path fill="#FEFEFE" d="M249.814 111.204h3.404V91.986h-3.404z" mask="url(#f)"/></g><g transform="translate(-17 -16)"><mask id="h" fill="#fff"><use xlink:href="#g"/></mask><path fill="#FEFEFE" d="M268.4 94.594c-1.593 0-2.855.796-2.855 2.252 0 1.509 1.894 2.114 3.43 2.635 2.829.962 6.014 2.224 6.014 6.095 0 4.228-3.844 5.958-7.028 5.958-2.911 0-5.107-1.016-7.194-3.075l2.307-2.223c1.674 1.619 2.937 2.36 4.914 2.36 1.702 0 3.404-.824 3.404-2.828 0-1.84-1.95-2.526-3.953-3.238-2.581-.935-5.3-2.198-5.3-5.52 0-3.652 2.91-5.354 6.068-5.354 2.389 0 4.339.742 6.206 2.142l-2.005 2.443c-.988-.877-2.526-1.647-4.008-1.647" mask="url(#h)"/></g><g transform="translate(-17 -16)"><mask id="j" fill="#fff"><use xlink:href="#i"/></mask><path fill="#FEFEFE" d="M288.933 94.895v16.31h-3.404v-16.31h-4.668v-2.91h12.74v2.91z" mask="url(#j)"/></g><g transform="translate(-17 -16)"><mask id="l" fill="#fff"><use xlink:href="#k"/></mask><path fill="#FEFEFE" d="M305.733 100.441c2.224 0 3.871-.796 3.871-2.718 0-1.702-1.346-2.828-3.32-2.828h-2.446v5.546h1.895zm.632-8.456c3.047 0 6.836 1.565 6.836 5.656 0 3.103-2.142 4.75-4.393 5.381l5.958 8.182h-4.228l-5.492-7.853h-1.208v7.853h-3.403V91.985h5.93z" mask="url(#l)"/></g><g transform="translate(-17 -16)"><mask id="n" fill="#fff"><use xlink:href="#m"/></mask><path fill="#FEFEFE" d="M349.876 94.895v16.31h-3.404v-16.31h-4.668v-2.91h12.74v2.91z" mask="url(#n)"/></g><g transform="translate(-17 -16)"><mask id="p" fill="#fff"><use xlink:href="#o"/></mask><path fill="#FEFEFE" d="M361.378 111.204h3.404V91.986h-3.404z" mask="url(#p)"/></g><g transform="translate(-17 -16)"><mask id="r" fill="#fff"><use xlink:href="#q"/></mask><path fill="#FEFEFE" d="M382.68 94.65c-3.678 0-6.368 3.046-6.368 6.944 0 3.9 2.69 6.947 6.369 6.947 3.706 0 6.397-3.047 6.397-6.947 0-3.898-2.691-6.945-6.397-6.945m0 16.885c-5.655 0-9.966-4.448-9.966-9.94 0-5.49 4.31-9.938 9.966-9.938 5.684 0 9.994 4.447 9.994 9.938 0 5.492-4.31 9.94-9.994 9.94" mask="url(#r)"/></g><g transform="translate(-17 -16)"><mask id="t" fill="#fff"><use xlink:href="#s"/></mask><path fill="#FEFEFE" d="M413.51 111.204l-9.5-12.986v12.986h-3.404V91.986h2.993L413.153 105V91.986h3.405v19.218z" mask="url(#t)"/></g><g transform="translate(-17 -16)"><mask id="v" fill="#fff"><use xlink:href="#u"/></mask><path fill="#FEFEFE" d="M148.245 111.204h3.9l-7.277-19.218h-2.828l-7.66 19.218h3.734l1.373-3.789h5.277l-1.017-2.855h-3.217l2.691-7.385h.027z" mask="url(#v)"/></g><g transform="translate(-17 -16)"><mask id="x" fill="#fff"><use xlink:href="#w"/></mask><path fill="#FEFEFE" d="M334.174 111.204h3.899l-7.276-19.218h-2.828l-7.66 19.218h3.734l1.373-3.789h5.277l-1.017-2.855h-3.217l2.692-7.385h.026z" mask="url(#x)"/></g><g transform="translate(-17 -16)"><mask id="z" fill="#fff"><use xlink:href="#y"/></mask><path fill="#FEFEFE" d="M150.21 72.827h.022c3.796-.035 6.994-1.301 9.492-3.754 2.495-2.4 3.798-5.662 3.867-9.715V34.724h-7.482v24.053c-.026 2.103-.58 3.699-1.655 4.754-1.115 1.12-2.498 1.666-4.233 1.666-1.728 0-3.094-.541-4.204-1.686-1.106-1.057-1.657-2.607-1.684-4.718v-24.07h-7.482V59.38c.034 4.042 1.363 7.308 3.934 9.693 2.517 2.455 5.69 3.719 9.425 3.754" mask="url(#z)"/></g><g transform="translate(-17 -16)"><mask id="B" fill="#fff"><use xlink:href="#A"/></mask><path fill="#FEFEFE" d="M167.396 72.534h7.189v-7.337h-7.189z" mask="url(#B)"/></g><g transform="translate(-17 -16)"><mask id="D" fill="#fff"><use xlink:href="#C"/></mask><path fill="#FEFEFE" d="M212.787 72.534h7.189v-7.337h-7.189z" mask="url(#D)"/></g><g transform="translate(-17 -16)"><mask id="F" fill="#fff"><use xlink:href="#E"/></mask><path fill="#FEFEFE" d="M241.26 72.453h7.481v-15.19h11.164v-7.042h-11.164V41.98h16.781v-7.338H241.26z" mask="url(#F)"/></g><g transform="translate(-17 -16)"><mask id="H" fill="#fff"><use xlink:href="#G"/></mask><path fill="#FEFEFE" d="M288.53 53.547c0 3.417-.114 5.737-.333 6.883-.21 1.033-.592 1.866-1.208 2.573-.417.585-.984 1.068-1.733 1.463-1.458.86-3.74.922-5.32-.036a5.168 5.168 0 0 1-1.838-1.52c-.536-.605-.9-1.432-1.086-2.48-.237-1.159-.357-3.475-.357-6.883 0-3.413.12-5.746.361-6.954.182-1.006.537-1.793 1.137-2.478.452-.6 1.062-1.11 1.806-1.513.714-.38 1.6-.592 2.633-.623 1.055.033 1.968.244 2.684.612.713.403 1.29.906 1.786 1.593.545.614.926 1.434 1.132 2.413.222 1.193.335 3.531.335 6.95m5.856-12.175c-.88-1.804-2.32-3.424-4.278-4.813-2.008-1.43-4.528-2.174-7.517-2.21-2.934.036-5.429.778-7.406 2.194-1.988 1.381-3.46 2.992-4.335 4.716-.592.977-1.028 2.25-1.305 3.794-.248 1.471-.37 4.25-.37 8.494 0 4.168.122 6.925.37 8.421.133.824.31 1.536.545 2.16.208.5.443 1.027.718 1.61.917 1.806 2.393 3.408 4.361 4.746 1.988 1.43 4.481 2.19 7.41 2.261H282.63c2.956-.069 5.471-.829 7.463-2.249 1.964-1.359 3.407-2.966 4.211-4.636.674-.998 1.141-2.31 1.39-3.914.212-1.496.316-4.244.316-8.399 0-4.222-.104-6.985-.319-8.465-.246-1.556-.71-2.848-1.306-3.71" mask="url(#H)"/></g><g transform="translate(-17 -16)"><mask id="J" fill="#fff"><use xlink:href="#I"/></mask><path fill="#FEFEFE" d="M321.245 53.547c0 3.417-.113 5.737-.332 6.883-.21 1.033-.592 1.866-1.208 2.573-.417.585-.984 1.068-1.732 1.463-1.458.86-3.742.922-5.322-.036a5.168 5.168 0 0 1-1.837-1.52c-.536-.605-.9-1.432-1.086-2.48-.237-1.159-.357-3.475-.357-6.883 0-3.413.12-5.746.361-6.954.182-1.006.537-1.793 1.137-2.478.452-.6 1.063-1.11 1.806-1.513.715-.38 1.6-.592 2.633-.623 1.055.033 1.968.244 2.684.612.713.403 1.29.906 1.786 1.593.545.614.926 1.434 1.132 2.413.222 1.193.335 3.531.335 6.95m5.857-12.175c-.882-1.804-2.322-3.424-4.279-4.813-2.008-1.43-4.528-2.174-7.516-2.21-2.935.036-5.43.778-7.407 2.194-1.988 1.381-3.46 2.992-4.335 4.716-.59.977-1.028 2.25-1.305 3.794-.248 1.471-.369 4.25-.369 8.494 0 4.168.121 6.925.37 8.421.132.824.31 1.536.545 2.16.208.5.442 1.027.717 1.61.917 1.806 2.393 3.408 4.361 4.746 1.988 1.43 4.481 2.19 7.41 2.261H315.345c2.956-.069 5.471-.829 7.464-2.249 1.963-1.359 3.406-2.966 4.21-4.636.674-.998 1.141-2.31 1.39-3.914.212-1.496.317-4.244.317-8.399 0-4.222-.105-6.985-.32-8.465-.246-1.556-.71-2.848-1.305-3.71" mask="url(#J)"/></g><g transform="translate(-17 -16)"><mask id="L" fill="#fff"><use xlink:href="#K"/></mask><path fill="#FEFEFE" d="M343.258 41.98l5.343-.002c2.16 0 3.789.823 5.048 2.608.563.663.928 1.56 1.082 2.633.136 1.29.206 3.486.206 6.523 0 3.117-.07 5.258-.202 6.348-.131.97-.43 1.767-.942 2.445-1.112 1.737-2.89 2.58-5.43 2.58h-5.105V41.98zm17.164-.782c-2.536-4.313-6.393-6.52-11.465-6.556h-13.18v37.81H348.6c2.794 0 5.206-.653 7.129-1.918 1.944-1.18 3.488-2.702 4.59-4.533.403-.67.742-1.318 1.04-1.97.285-.678.502-1.45.638-2.29.282-1.6.42-4.28.42-8.194 0-3.67-.087-6.194-.272-7.75a12.047 12.047 0 0 0-1.724-4.6z" mask="url(#L)"/></g><g transform="translate(-17 -16)"><mask id="N" fill="#fff"><use xlink:href="#M"/></mask><path fill="#FEFEFE" d="M443.626 41.98l5.343-.002c2.161 0 3.789.823 5.048 2.608.563.663.929 1.56 1.082 2.633.137 1.29.206 3.486.206 6.523 0 3.117-.069 5.258-.202 6.348-.131.97-.43 1.767-.942 2.445-1.112 1.737-2.889 2.58-5.429 2.58h-5.106V41.98zm17.164-.782c-2.536-4.313-6.392-6.52-11.464-6.556h-13.181v37.81h12.824c2.794 0 5.206-.653 7.129-1.918 1.944-1.18 3.488-2.702 4.59-4.533.403-.67.742-1.318 1.041-1.97.284-.678.501-1.45.638-2.29.282-1.6.419-4.28.419-8.194 0-3.67-.086-6.194-.272-7.75a12.047 12.047 0 0 0-1.724-4.6z" mask="url(#N)"/></g><g transform="translate(-17 -16)"><mask id="P" fill="#fff"><use xlink:href="#O"/></mask><path fill="#FEFEFE" d="M477.342 41.687h7.056c1.393 0 2.44.281 3.158.875.829.616 1.245 1.642 1.269 3.123 0 1.267-.377 2.298-1.172 3.173-.762.889-1.925 1.337-3.54 1.363h-6.771v-8.534zm18.673 3.978c-.108-3.615-1.395-6.449-3.81-8.408-2.014-1.735-4.626-2.615-7.76-2.615h-14.584v37.811h7.48V57.264h4.82l7.125 15.189h8.759l-8.265-16.355c4.074-2.023 6.169-5.513 6.235-10.433z" mask="url(#P)"/></g><g transform="translate(-17 -16)"><mask id="R" fill="#fff"><use xlink:href="#Q"/></mask><path fill="#FEFEFE" d="M521.2 58.695c-.027 2.103-.58 3.7-1.655 4.753-1.116 1.122-2.498 1.667-4.233 1.667-1.729 0-3.094-.54-4.204-1.686-1.106-1.058-1.658-2.607-1.684-4.718V34.642h-7.482v24.656c.033 4.042 1.362 7.308 3.934 9.693 2.516 2.455 5.688 3.718 9.425 3.754h.022c3.796-.036 6.994-1.3 9.491-3.754 2.495-2.4 3.8-5.662 3.867-9.715V34.642h-7.48v24.053z" mask="url(#R)"/></g><g transform="translate(-17 -16)"><mask id="T" fill="#fff"><use xlink:href="#S"/></mask><path fill="#FEFEFE" d="M394.834 47.594c.997-.684 2.029-1.276 2.865-2.144.783-.812 1.11-1.76.873-2.863-.467-2.187-3.183-3.179-5.038-1.855-1.087.776-1.528 2.46-.961 3.752.524 1.191 1.463 2.082 2.261 3.11m5.62 16.807l-7.584-8.916a17.469 17.469 0 0 0-2.455 2.128c-.994 1.027-1.403 2.272-1.403 3.667-.001 2.381 1.489 4.398 3.785 5.073 1.947.572 3.849.38 5.661-.532a8.455 8.455 0 0 0 1.996-1.42m-1.878-12.546l6.414 7.59c.725-.969 1.153-2.037 1.433-3.174.281-1.133.431-2.287.503-3.465h6.569c-.067.718-.117 1.413-.202 2.103-.202 1.657-.523 3.29-1.061 4.874a13.424 13.424 0 0 1-2.62 4.57c-.057.065-.108.138-.178.23l6.77 7.99c-.077.108-.174.063-.253.063-2.739.003-5.476.001-8.216.006a.515.515 0 0 1-.451-.206c-.805-.98-1.626-1.948-2.439-2.92-.05-.06-.09-.126-.142-.2-.602.448-1.154.877-1.723 1.277-1.785 1.253-3.781 1.971-5.93 2.228-2.369.283-4.733.183-7.046-.445-4.273-1.16-6.726-3.99-7.491-8.313-.28-1.576-.35-3.166.018-4.739.41-1.757 1.295-3.273 2.458-4.638 1.101-1.29 2.451-2.289 3.825-3.259.091-.064.183-.125.303-.207-.331-.399-.663-.783-.978-1.179-1.167-1.465-2.16-3.033-2.565-4.888-.889-4.082.807-8.28 5.146-10.008 2.138-.852 4.353-1.019 6.615-.723 1.933.253 3.659.984 5.122 2.29 1.268 1.13 2.078 2.54 2.46 4.185.401 1.731.458 3.457-.237 5.14-.44 1.06-1.187 1.9-1.999 2.681-1.112 1.07-2.424 1.882-3.649 2.805-.14.106-.285.207-.456.332" mask="url(#T)"/></g><g transform="translate(-17 -16)"><mask id="V" fill="#fff"><use xlink:href="#U"/></mask><path fill="#FEFEFE" d="M548.56 50.636v7.335h5.917v.709c-.026 1.95-.587 3.464-1.732 4.647-1.115 1.204-2.489 1.789-4.206 1.789-1.014 0-1.88-.215-2.656-.685a5.168 5.168 0 0 1-1.838-1.52c-.536-.605-.9-1.432-1.085-2.48-.238-1.16-.358-3.475-.358-6.883 0-3.413.12-5.746.361-6.954.183-1.006.537-1.793 1.138-2.478.45-.6 1.06-1.11 1.804-1.513.72-.386 1.615-.594 2.608-.623 1.418.029 2.58.432 3.512 1.2a6.681 6.681 0 0 1 1.99 3.155l.241.813H562l-.25-1.341c-.593-3.2-2.038-5.921-4.294-8.095-2.298-2.194-5.292-3.327-8.918-3.362-2.934.035-5.433.78-7.41 2.203-1.985 1.385-3.457 3-4.332 4.73-.59.98-1.03 2.25-1.304 3.786-.248 1.472-.37 4.244-.37 8.479 0 4.168.122 6.925.37 8.42.133.825.31 1.537.546 2.16.207.5.442 1.028.716 1.61.918 1.807 2.394 3.409 4.362 4.747 1.988 1.43 4.48 2.19 7.408 2.26h.048c2.43-.045 4.614-.62 6.534-1.703v1.479H562V50.636H548.56z" mask="url(#V)"/></g><g transform="translate(-17 -16)"><mask id="X" fill="#fff"><use xlink:href="#W"/></mask><path fill="#FEFEFE" d="M196.389 41.033c-2.547 0-4.83 1.274-4.83 3.715 0 2.866 3.503 3.662 6.369 4.67 5.254 1.805 11.57 4.246 11.57 12.048 0 8.067-7.59 11.517-14.064 11.517-5.732 0-10.19-2.176-14.223-6.21l5.04-4.936c3.026 2.919 5.36 4.67 9.236 4.67 2.972 0 5.89-1.432 5.89-4.723 0-3.184-3.396-4.405-7.164-5.784-4.83-1.805-10.243-3.928-10.243-11.04 0-7.058 5.997-10.402 12.154-10.402 4.776 0 8.544 1.539 12.312 4.406l-4.352 5.413c-2.07-1.752-4.83-3.344-7.695-3.344" mask="url(#X)"/></g><g transform="translate(-17 -16)"><mask id="Z" fill="#fff"><use xlink:href="#Y"/></mask><path fill="#FEFEFE" d="M17.168 129.853h94.896v-113.6H17.168z" mask="url(#Z)"/></g><path fill="#007CBA" d="M79.859 53.916l-8.016-24.092-3.853 11.338h4.332l1.566 5.447h-7.626l-2.524 7.307h-7.086l11.869-31.62h6.289l11.869 31.62zM48.246 52.897c-2.038.682-4.34 1.02-6.91 1.02H30.62V35.255h6.599v13.036h4.252c1.712 0 3.173-.243 4.384-.73 1.21-.487 2.192-1.188 2.946-2.103.752-.916 1.306-2 1.66-3.255.355-1.256.532-2.665.532-4.23 0-1.535-.155-2.931-.465-4.185-.31-1.255-.805-2.31-1.484-3.166-.68-.856-1.558-1.52-2.635-1.995-.944-.412-2.108-.61-3.425-.665h-26.75v7.244h8.903v5.668h-8.902v13.042h-6.6V22.296h33.992c4.272.203 7.658 1.535 10.134 3.941 2.7 2.628 4.052 6.525 4.052 11.692 0 2.628-.376 4.931-1.13 6.909-.752 1.978-1.838 3.647-3.255 5.004-1.417 1.36-3.144 2.378-5.181 3.056z"/></g></svg>